<?xml version="1.0" standalone="no"?>
<!DOCTYPE svg PUBLIC "-//W3C//DTD SVG 1.1//EN" "http://www.w3.org/Graphics/SVG/1.1/DTD/svg11.dtd" >
<svg xmlns="http://www.w3.org/2000/svg" xmlns:xlink="http://www.w3.org/1999/xlink" version="1.1">
<metadata>
Created by FontForge 20170731 at Sat Jul 18 17:22:49 2020
 By Aleksey,,,
(c) 2012-2019, Copyright by Lineto GmbH. All rights reserved.
</metadata>
<defs>
<font id="Unica77LL-Light" horiz-adv-x="1290" >
  <font-face 
    font-family="Unica77 LL Light"
    font-weight="300"
    font-stretch="normal"
    units-per-em="2048"
    panose-1="2 11 4 4 2 1 1 1 1 2"
    ascent="1536"
    descent="-512"
    x-height="1057"
    cap-height="1487"
    bbox="-846 -492 2628 2073"
    underline-thickness="102"
    underline-position="-409"
    unicode-range="U+000D-FEFF"
  />
<missing-glyph horiz-adv-x="1374" 
d="M199 0v1487h977v-1487h-977zM1059 109v1269h-744v-1269h744z" />
    <glyph glyph-name="f_f" unicode="ff" horiz-adv-x="1105" 
d="M348 958v-958h-117v958h-196v99h196v139q0 146 62 220.5t199 74.5q21 0 71 -4v-101q-27 3 -51 3q-88 0 -126 -42t-38 -151v-139h393v139q0 146 61.5 220.5t198.5 74.5q22 0 72 -4v-101q-27 3 -51 3q-88 0 -126 -42t-38 -151v-139h215v-99h-215v-958h-117v958h-393z" />
    <glyph glyph-name="f_f_i" unicode="ffi" horiz-adv-x="1521" 
d="M1352 1057v-1057h-117v1057h117zM1364 1487v-172h-141v172h141zM348 958v-958h-117v958h-196v99h196v139q0 146 62 220.5t199 74.5q21 0 71 -4v-101q-27 3 -51 3q-88 0 -126 -42t-38 -151v-139h393v139q0 146 61.5 220.5t198.5 74.5q22 0 72 -4v-101q-27 3 -51 3
q-88 0 -126 -42t-38 -151v-139h215v-99h-215v-958h-117v958h-393z" />
    <glyph glyph-name="f_f_l" unicode="ffl" horiz-adv-x="1519" 
d="M1350 1487v-1487h-117v1487h117zM348 958v-958h-117v958h-196v99h196v139q0 146 62 220.5t199 74.5q21 0 71 -4v-101q-27 3 -51 3q-88 0 -126 -42t-38 -151v-139h393v139q0 146 61.5 220.5t198.5 74.5q22 0 72 -4v-101q-27 3 -51 3q-88 0 -126 -42t-38 -151v-139h215v-99
h-215v-958h-117v958h-393z" />
    <glyph glyph-name="f_i" unicode="fi" horiz-adv-x="1011" 
d="M35 958v99h196v139q0 146 62 220.5t199 74.5q21 0 71 -4v-101q-27 3 -51 3q-88 0 -126 -42t-38 -151v-139h215v-99h-215v-958h-117v958h-196zM842 1057v-1057h-117v1057h117zM854 1487v-172h-141v172h141z" />
    <glyph glyph-name="f_l" unicode="fl" horiz-adv-x="1011" 
d="M35 958v99h196v139q0 146 62 220.5t199 74.5q21 0 71 -4v-101q-27 3 -51 3q-88 0 -126 -42t-38 -151v-139h215v-99h-215v-958h-117v958h-196zM842 1487v-1487h-117v1487h117z" />
    <glyph glyph-name=".notdef" horiz-adv-x="1374" 
d="M199 0v1487h977v-1487h-977zM1059 109v1269h-744v-1269h744z" />
    <glyph glyph-name=".null" horiz-adv-x="0" 
 />
    <glyph glyph-name="nonmarkingreturn" horiz-adv-x="682" 
 />
    <glyph glyph-name="NULL" horiz-adv-x="0" 
 />
    <glyph glyph-name="NULL" horiz-adv-x="0" 
 />
    <glyph glyph-name="CR" unicode="&#xd;" horiz-adv-x="409" 
 />
    <glyph glyph-name="space" unicode=" " horiz-adv-x="409" 
 />
    <glyph glyph-name="exclam" unicode="!" horiz-adv-x="507" 
d="M205 309l-25 1178h148l-27 -1178h-96zM338 176v-176h-164v176h164z" />
    <glyph glyph-name="quotedbl" unicode="&#x22;" horiz-adv-x="634" 
d="M262 1399l-43 -451h-61l-47 451h151zM522 1399l-43 -451h-61l-47 451h151z" />
    <glyph glyph-name="numbersign" unicode="#" horiz-adv-x="1247" 
d="M414 428l-123 -428h-119l121 428h-236l27 96h238l104 371h-248l27 96h250l116 408h121l-117 -408h281l117 408h121l-117 -408h209l-27 -96h-211l-106 -371h223l-27 -96h-223l-123 -428h-119l121 428h-280zM723 524l104 371h-280l-107 -371h283z" />
    <glyph glyph-name="dollar" unicode="$" horiz-adv-x="1122" 
d="M211 463q12 -169 89.5 -261t211.5 -110v582l-14 4q-53 18 -84.5 29.5t-77.5 32t-74 39t-60 48t-49.5 62t-29.5 76.5t-12 96q0 146 109.5 245t297.5 111v164h98v-164q383 -42 406 -454h-127q-15 310 -279 346v-537l29 -8q66 -22 117.5 -44.5t105.5 -57.5t89.5 -75.5
t58 -98.5t22.5 -126q0 -168 -116 -269t-312 -109v-191h-98v193q-194 19 -306 139.5t-122 337.5h127zM236 1063q0 -59 21 -103.5t64 -75.5t86.5 -50.5t110.5 -40.5v518q-127 -6 -204.5 -74t-77.5 -174zM913 365q0 60 -22.5 107t-66.5 81t-94 57.5t-120 46.5v-567
q138 5 220.5 77t82.5 198z" />
    <glyph glyph-name="percent" unicode="%" horiz-adv-x="1771" 
d="M377 1413q138 0 217.5 -110t79.5 -312q0 -209 -78.5 -317.5t-218.5 -108.5q-138 0 -217.5 111t-79.5 315q0 202 79.5 312t217.5 110zM377 1327q-180 0 -180 -336q0 -340 180 -340q178 0 178 340q0 336 -178 336zM1307 1427l-756 -1456h-98l753 1456h101zM1395 825
q138 0 217.5 -110t79.5 -312q0 -209 -78.5 -317.5t-218.5 -108.5q-138 0 -217.5 111t-79.5 315q0 202 79.5 312t217.5 110zM1395 739q-181 0 -181 -336q0 -164 45 -252t136 -88q178 0 178 340q0 336 -178 336z" />
    <glyph glyph-name="ampersand" unicode="&#x26;" horiz-adv-x="1386" 
d="M1030 375q92 189 92 399h121q0 -266 -131 -485l270 -289h-163l-179 190q-180 -213 -452 -213q-221 0 -358.5 117.5t-137.5 304.5q0 255 344 437q-113 108 -155.5 183.5t-42.5 176.5q0 133 98.5 218t251.5 85q147 0 243.5 -85.5t96.5 -217.5q0 -109 -88 -211.5
t-217 -169.5zM590 74q228 0 377 196l-457 490q-289 -144 -289 -357q0 -141 105 -235t264 -94zM553 891q250 124 250 305q0 89 -61.5 148t-157.5 59q-97 0 -159.5 -57.5t-62.5 -149.5q0 -68 45 -139t146 -166z" />
    <glyph glyph-name="quotesingle" unicode="'" horiz-adv-x="374" 
d="M262 1399l-43 -451h-61l-47 451h151z" />
    <glyph glyph-name="parenleft" unicode="(" horiz-adv-x="534" 
d="M348 -217q-134 277 -189 472t-55 392q0 191 55 387t189 482h109q-52 -125 -85 -213t-68.5 -204t-53 -228.5t-17.5 -223.5q0 -192 52 -392t172 -472h-109z" />
    <glyph glyph-name="parenright" unicode=")" horiz-adv-x="534" 
d="M78 -217q119 282 171 479t52 385q0 87 -13 180t-29 162.5t-50 172t-53.5 154.5t-63.5 164q-9 24 -14 36h106q135 -288 190.5 -483.5t55.5 -385.5q0 -196 -55.5 -389.5t-190.5 -474.5h-106z" />
    <glyph glyph-name="asterisk" unicode="*" horiz-adv-x="833" 
d="M76 1200l41 115l262 -113l-31 285h137l-32 -281l264 109l37 -123l-281 -57l189 -205l-109 -80l-141 248l-136 -248l-108 80l188 205z" />
    <glyph glyph-name="plus" unicode="+" 
d="M215 631h373v385h112v-385h375v-103h-375v-385h-112v385h-373v103z" />
    <glyph glyph-name="comma" unicode="," horiz-adv-x="421" 
d="M129 14v162h164v-176l-80 -276h-82l68 290h-70z" />
    <glyph glyph-name="hyphen" unicode="-" horiz-adv-x="776" 
d="M635 639v-111h-494v111h494z" />
    <glyph glyph-name="period" unicode="." horiz-adv-x="421" 
d="M293 176v-176h-164v176h164z" />
    <glyph glyph-name="slash" unicode="/" horiz-adv-x="757" 
d="M700 1487l-540 -1487h-101l541 1487h100z" />
    <glyph glyph-name="zero" unicode="0" horiz-adv-x="1177" 
d="M598 1421q459 0 459 -723q0 -366 -117 -543.5t-352 -177.5q-467 0 -467 721q0 723 477 723zM592 1321q-342 0 -342 -623q0 -620 336 -620q172 0 257 152t85 468t-84 469.5t-252 153.5z" />
    <glyph glyph-name="one" unicode="1" horiz-adv-x="667" 
d="M346 0v1065h-291v98q73 2 118.5 8t83 20t58 41t34 66.5t20.5 100.5h100v-1399h-123z" />
    <glyph glyph-name="two" unicode="2" horiz-adv-x="1079" 
d="M96 41q0 203 77.5 326t297.5 258q106 66 165 108t107 91.5t66 99.5t18 116q0 123 -77.5 202t-196.5 79q-134 0 -214.5 -86t-82.5 -229h-127q8 189 122 302t300 113q179 0 291 -104t112 -270q0 -65 -17 -121.5t-41.5 -97.5t-69 -83.5t-81 -70t-94.5 -66.5
q-27 -18 -74 -47.5t-75.5 -48t-69 -48t-66 -53.5t-54 -59t-44.5 -69.5t-26.5 -79t-10.5 -94.5h756v-109h-891v41z" />
    <glyph glyph-name="three" unicode="3" horiz-adv-x="1097" 
d="M227 395q0 -149 85.5 -234t224.5 -85q138 0 226.5 82t88.5 211q0 134 -97 212t-255 78q-27 0 -66 -2v107q46 -4 60 -4q152 0 243.5 76.5t91.5 214.5q0 127 -77.5 198.5t-208.5 71.5q-132 0 -207.5 -78.5t-77.5 -210.5h-131q13 189 121.5 289t294.5 100q189 0 300 -95
t111 -271q0 -256 -254 -334v-6q138 -30 209.5 -122.5t71.5 -225.5q0 -180 -121 -285t-330 -105q-204 0 -316 107.5t-120 310.5h133z" />
    <glyph glyph-name="four" unicode="4" horiz-adv-x="1089" 
d="M51 387v109l582 903h164v-905h235v-107h-235v-387h-123v387h-623zM674 494v370l10 412l-12 -2l-492 -780h494z" />
    <glyph glyph-name="five" unicode="5" horiz-adv-x="1083" 
d="M244 362q0 -129 78 -206.5t208 -77.5q148 0 236 99t88 269q0 168 -77 266.5t-216 98.5q-116 0 -199 -59.5t-120 -178.5h-117l68 826h725v-109h-617l-47 -516v-2q53 68 139 104.5t185 36.5q183 0 293 -125.5t110 -341.5q0 -214 -124.5 -341.5t-328.5 -127.5
q-176 0 -290.5 106t-118.5 279h125z" />
    <glyph glyph-name="six" unicode="6" horiz-adv-x="1120" 
d="M856 1065q-4 121 -74 188.5t-188 67.5q-166 0 -251 -149.5t-97 -469.5v-2q110 203 352 203q185 0 299.5 -126t114.5 -335q0 -203 -123.5 -334t-313.5 -131q-82 0 -149 21.5t-113.5 57t-81.5 89t-55.5 110t-33 127t-17 134t-4.5 137.5q0 375 123 571.5t356 196.5
q177 0 274.5 -95.5t102.5 -260.5h-121zM586 803q-141 0 -230.5 -100.5t-89.5 -256.5q0 -164 85 -266t220 -102q140 0 227 100.5t87 263.5q0 159 -83.5 260t-215.5 101z" />
    <glyph glyph-name="seven" unicode="7" horiz-adv-x="964" 
d="M911 1290q-199 -315 -312.5 -615t-192.5 -675h-138q73 351 193.5 651t322.5 639h-735v109h862v-109z" />
    <glyph glyph-name="eight" unicode="8" horiz-adv-x="1132" 
d="M385 729q-106 36 -170.5 123.5t-64.5 202.5q0 163 118 265.5t299 102.5q184 0 302 -101t118 -261q0 -113 -66.5 -203t-172.5 -129v-8q122 -32 196 -129.5t74 -226.5q0 -177 -124 -282.5t-327 -105.5q-206 0 -329 107t-123 285q0 122 75.5 218.5t194.5 133.5v8zM567 674
q-137 0 -230 -87t-93 -216t90.5 -211t232.5 -82q141 0 231.5 81t90.5 210q0 130 -90.5 217.5t-231.5 87.5zM567 1323q-131 0 -212 -74t-81 -192q0 -125 81.5 -203t211.5 -78q134 0 214.5 78t80.5 203q0 119 -81 192.5t-214 73.5z" />
    <glyph glyph-name="nine" unicode="9" horiz-adv-x="1116" 
d="M262 346q6 -123 80 -195.5t195 -72.5q68 0 121.5 24t87.5 57t58.5 93t36 106.5t17.5 124.5t7 120.5t1 118.5v7q-67 -109 -151 -157t-203 -48q-181 0 -291 123t-110 326q0 123 54 225.5t153.5 163.5t224.5 61q230 0 340 -176t110 -553q0 -76 -3.5 -138.5t-15 -139
t-30.5 -136t-54 -118.5t-81.5 -98t-116 -63t-155.5 -24q-182 0 -285.5 94t-120.5 275h131zM543 1323q-130 0 -216.5 -98t-86.5 -250q0 -154 77.5 -251t200.5 -97q137 0 225 98.5t88 253.5q0 138 -82 241t-206 103z" />
    <glyph glyph-name="colon" unicode=":" horiz-adv-x="442" 
d="M303 176v-176h-164v176h164zM303 1057v-176h-164v176h164z" />
    <glyph glyph-name="semicolon" unicode=";" horiz-adv-x="446" 
d="M143 14v162h164v-176l-80 -276h-82l68 290h-70zM305 1057v-176h-164v176h164z" />
    <glyph glyph-name="less" unicode="&#x3c;" 
d="M1063 1028v-121l-762 -346l762 -358v-121l-862 412v127z" />
    <glyph glyph-name="equal" unicode="=" 
d="M1075 453v-103h-860v103h860zM1075 780v-102h-860v102h860z" />
    <glyph glyph-name="greater" unicode="&#x3e;" 
d="M227 82v121l760 358l-760 346v121l863 -407v-127z" />
    <glyph glyph-name="question" unicode="?" horiz-adv-x="993" 
d="M55 1106q19 194 129 298.5t310 104.5q207 0 320.5 -94.5t113.5 -257.5q0 -53 -12 -99.5t-27.5 -78t-47 -67t-51.5 -54t-61.5 -53t-58.5 -49.5q-65 -62 -87 -93q-71 -98 -71 -288v-66h-119q0 158 16 245t56.5 148.5t128.5 135.5q122 100 163.5 167t41.5 152
q0 119 -79 185.5t-226 66.5q-137 0 -220 -82t-94 -221h-125zM535 176v-176h-164v176h164z" />
    <glyph glyph-name="at" unicode="@" horiz-adv-x="1802" 
d="M1507 -59q-306 -177 -604 -177q-125 0 -242.5 34t-219 104t-178 167.5t-120 233.5t-43.5 293q0 144 38 276t111.5 240.5t175.5 188.5t237.5 124.5t289.5 44.5q171 0 316 -50t248 -140t161 -220t58 -284q0 -268 -129.5 -421.5t-327.5 -153.5q-27 0 -53.5 7t-58.5 26
t-53.5 62.5t-25.5 106.5q-46 -83 -99.5 -130t-98 -60.5t-101.5 -13.5q-132 0 -204 91.5t-72 282.5q0 131 49 246t140.5 186.5t203.5 71.5q39 0 70 -5t67.5 -20t65 -48t45.5 -82l31 135h119q-115 -425 -115 -600q0 -76 34.5 -116t90.5 -40q58 0 111.5 30.5t98 87.5t71 150.5
t26.5 208.5q0 143 -54 257t-148 186t-216.5 109.5t-263.5 37.5q-149 0 -280.5 -55t-228.5 -152.5t-153.5 -240.5t-56.5 -310q0 -176 58 -319.5t156.5 -234.5t224.5 -140t266 -49q242 0 526 166zM907 979q-79 0 -140 -62.5t-90.5 -156t-29.5 -197.5q0 -125 46.5 -193.5
t125.5 -68.5q70 0 125.5 44.5t88.5 116t50 154t17 166.5q0 83 -51.5 140t-141.5 57z" />
    <glyph glyph-name="A" unicode="A" horiz-adv-x="1368" 
d="M766 1487l584 -1487h-136l-188 494h-692l-182 -494h-136l586 1487h164zM684 1393h-8l-301 -793h610z" />
    <glyph glyph-name="B" unicode="B" horiz-adv-x="1284" 
d="M621 1487q104 0 170.5 -6.5t126.5 -28.5q103 -40 165 -126.5t62 -207.5q0 -135 -69.5 -228.5t-192.5 -125.5v-4q124 -22 207.5 -115.5t83.5 -238.5q0 -271 -242 -367q-104 -39 -303 -39h-430v1487h422zM625 109q121 0 203.5 19.5t129.5 59.5t66.5 92.5t19.5 125.5
q0 301 -397 301h-325v-598h303zM643 813q377 0 377 293q0 150 -96 211t-283 61h-319v-565h321z" />
    <glyph glyph-name="C" unicode="C" horiz-adv-x="1406" 
d="M1327 502q-29 -247 -191 -386t-407 -139q-193 0 -333.5 97t-212.5 269t-72 400q0 221 74.5 394t218 272.5t335.5 99.5q247 0 400.5 -137t173.5 -383h-129q-8 185 -131.5 300.5t-313.5 115.5q-234 0 -366.5 -177t-132.5 -485q0 -194 57 -342.5t168.5 -233.5t263.5 -85
q190 0 312 106.5t157 313.5h129z" />
    <glyph glyph-name="D" unicode="D" horiz-adv-x="1474" 
d="M1239 743q0 298 -164 488q-71 82 -182.5 114.5t-292.5 32.5h-278v-1269h278q183 0 292.5 32.5t182.5 114.5q79 89 121.5 214t42.5 273zM1366 743q0 -330 -176 -534q-89 -109 -225.5 -159t-364.5 -50h-401v1487h401q228 0 363.5 -50.5t226.5 -158.5q176 -204 176 -535z
" />
    <glyph glyph-name="E" unicode="E" horiz-adv-x="1212" 
d="M1092 1487v-109h-770v-557h735v-106h-735v-606h798v-109h-921v1487h893z" />
    <glyph glyph-name="F" unicode="F" horiz-adv-x="1138" 
d="M1073 1487v-109h-751v-577h712v-109h-712v-692h-123v1487h874z" />
    <glyph glyph-name="G" unicode="G" horiz-adv-x="1454" 
d="M1202 229q-147 -252 -469 -252q-282 0 -452 203.5t-170 562.5q0 228 79.5 401.5t227.5 269t344 95.5q229 0 372 -113.5t181 -328.5h-127q-32 165 -141 252.5t-283 87.5q-254 0 -389 -174.5t-135 -489.5q0 -304 131.5 -485.5t357.5 -181.5q459 0 477 594h-434v106h551
v-776h-117q-2 41 -2 63q0 37 3 96.5t3 69.5h-8z" />
    <glyph glyph-name="H" unicode="H" horiz-adv-x="1484" 
d="M322 1487v-670h841v670h123v-1487h-123v711h-841v-711h-123v1487h123z" />
    <glyph glyph-name="I" unicode="I" horiz-adv-x="520" 
d="M322 1487v-1487h-123v1487h123z" />
    <glyph glyph-name="J" unicode="J" horiz-adv-x="673" 
d="M31 109q74 -9 110 -9q128 0 176 81t48 292v1014h122v-1059q0 -229 -82.5 -334.5t-265.5 -105.5q-37 0 -108 12v109z" />
    <glyph glyph-name="K" unicode="K" horiz-adv-x="1206" 
d="M322 1487v-682l671 682h158l-688 -699l751 -788h-167l-725 760v-760h-123v1487h123z" />
    <glyph glyph-name="L" unicode="L" horiz-adv-x="1130" 
d="M322 1487v-1378h782v-109h-905v1487h123z" />
    <glyph glyph-name="M" unicode="M" horiz-adv-x="1851" 
d="M397 1487l531 -1358l534 1358h191v-1487h-123v745l8 621h-14l-535 -1366h-133l-530 1366h-15l4 -621v-745h-116v1487h198z" />
    <glyph glyph-name="N" unicode="N" horiz-adv-x="1488" 
d="M391 1487l772 -1364h13l-5 622v742h119v-1487h-192l-774 1366h-13l4 -621v-745h-116v1487h192z" />
    <glyph glyph-name="O" unicode="O" horiz-adv-x="1527" 
d="M764 1509q145 0 267.5 -56.5t207.5 -157t132.5 -243t47.5 -309.5t-47.5 -309.5t-132.5 -243t-207.5 -157t-267.5 -56.5t-267.5 56.5t-207.5 157t-132.5 243t-47.5 309.5t47.5 309.5t132.5 243t207.5 157t267.5 56.5zM764 1405q-235 0 -380.5 -181.5t-145.5 -480.5
t145.5 -480t380.5 -181q234 0 380 181.5t146 479.5q0 299 -145.5 480.5t-380.5 181.5z" />
    <glyph glyph-name="P" unicode="P" horiz-adv-x="1234" 
d="M655 1487q141 0 230.5 -25t154.5 -84q134 -118 134 -311q0 -94 -38 -175t-110 -138q-70 -56 -159.5 -81.5t-223.5 -25.5h-321v-647h-123v1487h456zM651 754q118 0 186 19.5t121 72.5q86 86 86 223q0 163 -116 248q-53 37 -117 50t-186 13h-303v-626h329z" />
    <glyph glyph-name="Q" unicode="Q" horiz-adv-x="1527" 
d="M764 1509q145 0 267.5 -56.5t207.5 -157t132.5 -243t47.5 -309.5q0 -351 -198 -571l168 -178l-89 -80l-167 180q-153 -117 -369 -117q-145 0 -267.5 56.5t-207.5 157t-132.5 243t-47.5 309.5t47.5 309.5t132.5 243t207.5 157t267.5 56.5zM1141 258q149 182 149 485
q0 299 -146 481.5t-380 182.5t-380 -182.5t-146 -481.5t145.5 -481t380.5 -182q169 0 291 96l-193 207l86 80z" />
    <glyph glyph-name="R" unicode="R" horiz-adv-x="1284" 
d="M629 1487q156 0 241 -23.5t146 -81.5q117 -106 117 -301q0 -119 -85.5 -225.5t-216.5 -134.5v-6q29 -7 54 -17.5t45 -26t35.5 -28.5t29 -35t22 -35t18.5 -39t14 -37t13 -38.5t11 -34.5l137 -424h-139l-143 453q-38 116 -117 165.5t-242 49.5h-247v-668h-123v1487h430z
M631 772q166 0 270.5 83.5t104.5 221.5q0 154 -89.5 228.5t-285.5 74.5h-309v-608h309z" />
    <glyph glyph-name="S" unicode="S" horiz-adv-x="1222" 
d="M231 494q8 -212 103 -313t291 -101q168 0 269 80t101 215q0 37 -7.5 69.5t-19.5 58t-32.5 48.5t-41 39.5t-51.5 32.5t-56 26.5t-63 22.5t-65 19.5t-69 18.5q-3 1 -4 1q-177 48 -249 82q-160 77 -199 224q-13 51 -13 113q0 168 129 273.5t348 105.5q244 0 364 -117.5
t128 -363.5h-129q-3 379 -363 379q-158 0 -253 -76t-95 -201q0 -52 14.5 -94t42.5 -72t63 -53t82 -40.5t92.5 -31.5t99.5 -28q6 -1 9 -2q90 -23 138.5 -38t121.5 -49.5t110.5 -74t67 -106t29.5 -152.5q0 -180 -137.5 -296t-361.5 -116q-252 0 -386 129.5t-141 387.5h133z
" />
    <glyph glyph-name="T" unicode="T" horiz-adv-x="1161" 
d="M25 1378v109h1112v-109h-496v-1378h-123v1378h-493z" />
    <glyph glyph-name="U" unicode="U" horiz-adv-x="1413" 
d="M305 600q0 -160 23 -251t88 -154q115 -115 291 -115q178 0 288 110q65 65 88 154.5t23 249.5v893h125v-930q0 -580 -524 -580q-525 0 -525 580v930h123v-887z" />
    <glyph glyph-name="V" unicode="V" horiz-adv-x="1282" 
d="M164 1487l475 -1378h10l481 1378h127l-530 -1487h-174l-526 1487h137z" />
    <glyph glyph-name="W" unicode="W" horiz-adv-x="1884" 
d="M170 1487l338 -1378h10l326 1378h200l336 -1378h11l325 1378h121l-354 -1487h-203l-330 1384h-10l-326 -1384h-202l-373 1487h131z" />
    <glyph glyph-name="X" unicode="X" horiz-adv-x="1241" 
d="M43 1487h156l426 -633l422 633h147l-498 -725l535 -762h-156l-457 672l-458 -672h-146l533 762z" />
    <glyph glyph-name="Y" unicode="Y" horiz-adv-x="1251" 
d="M20 1487h152l461 -742l454 742h146l-547 -854v-633h-123v633z" />
    <glyph glyph-name="Z" unicode="Z" horiz-adv-x="1161" 
d="M936 1378h-850v109h993v-107l-868 -1271h895v-109h-1043v106z" />
    <glyph glyph-name="bracketleft" unicode="[" horiz-adv-x="608" 
d="M553 1487v-90h-246v-1522h246v-90h-360v1702h360z" />
    <glyph glyph-name="backslash" unicode="\" horiz-adv-x="757" 
d="M596 0l-539 1487h99l542 -1487h-102z" />
    <glyph glyph-name="bracketright" unicode="]" horiz-adv-x="608" 
d="M55 -215v90h244v1522h-244v90h361v-1702h-361z" />
    <glyph glyph-name="asciicircum" unicode="^" 
d="M1055 662h-121l-295 641l-291 -641h-115l375 825h72z" />
    <glyph glyph-name="underscore" unicode="_" horiz-adv-x="976" 
d="M0 -172h977v-80h-977v80z" />
    <glyph glyph-name="grave" unicode="`" horiz-adv-x="1161" 
d="M315 1487h154l180 -252h-106z" />
    <glyph glyph-name="a" unicode="a" horiz-adv-x="1091" 
d="M141 739q0 152 115 246t295 94q94 0 161 -19t120 -64.5t79.5 -129.5t26.5 -207v-419q0 -133 20 -240h-120q-11 76 -13 154q-70 -96 -154 -136.5t-200 -40.5q-169 0 -272 78.5t-103 216.5q0 216 223 299q68 26 163.5 42.5t163 22.5t175.5 13v43q0 150 -68.5 217.5
t-205.5 67.5q-130 0 -206.5 -62t-76.5 -176h-123zM821 549q-318 -20 -450 -68q-88 -34 -119 -85t-31 -122q0 -95 70.5 -147.5t191.5 -52.5q162 0 250 115.5t88 310.5v49z" />
    <glyph glyph-name="b" unicode="b" horiz-adv-x="1175" 
d="M1075 528q0 -248 -127 -399.5t-313 -151.5q-106 0 -197.5 49t-150.5 140v-166h-117v1487h117v-596q115 188 342 188q89 0 169.5 -37.5t142 -106t98 -174.5t36.5 -233zM952 528q0 204 -93 328.5t-243 124.5q-153 0 -243 -123.5t-90 -329.5q0 -205 90 -329.5t243 -124.5
q150 0 243 125.5t93 328.5z" />
    <glyph glyph-name="c" unicode="c" horiz-adv-x="1097" 
d="M1018 360q-20 -171 -143.5 -277t-299.5 -106q-214 0 -345.5 150.5t-131.5 400.5q0 122 38.5 226t103.5 174.5t153.5 110.5t186.5 40q178 0 300.5 -105.5t129.5 -268.5h-125q-7 117 -95 194.5t-210 77.5q-158 0 -258.5 -125.5t-100.5 -323.5q0 -203 98 -326.5t256 -123.5
q124 0 214 79.5t102 202.5h127z" />
    <glyph glyph-name="d" unicode="d" horiz-adv-x="1175" 
d="M100 528q0 128 36 233.5t97.5 174t142.5 106t171 37.5q227 0 342 -188v596h117v-1487h-117v166q-59 -91 -150.5 -140t-197.5 -49q-91 0 -171 39t-140 108.5t-95 174.5t-35 229zM223 528q0 -203 93 -328.5t243 -125.5q153 0 243.5 124.5t90.5 329.5q0 206 -90.5 329.5
t-243.5 123.5q-150 0 -243 -124.5t-93 -328.5z" />
    <glyph glyph-name="e" unicode="e" horiz-adv-x="1120" 
d="M1018 313q-31 -158 -148.5 -247t-294.5 -89q-224 0 -349.5 147t-125.5 404q0 250 129.5 400.5t348.5 150.5q92 0 165.5 -27.5t124.5 -77t85.5 -121.5t50.5 -159.5t16 -191.5h-797q0 -195 98.5 -311.5t260.5 -116.5q126 0 210.5 66.5t102.5 172.5h123zM897 600
q-10 185 -95 283t-233 98q-150 0 -237.5 -95.5t-104.5 -285.5h670z" />
    <glyph glyph-name="f" unicode="f" horiz-adv-x="595" 
d="M35 958v99h196v139q0 146 62 220.5t199 74.5q21 0 71 -4v-101q-27 3 -51 3q-88 0 -126 -42t-38 -151v-139h215v-99h-215v-958h-117v958h-196z" />
    <glyph glyph-name="g" unicode="g" horiz-adv-x="1173" 
d="M268 -80q10 -117 88 -179.5t213 -62.5q80 0 137.5 23.5t92 62t54.5 99.5t27 124t7 148v90q-55 -94 -145 -146t-205 -52q-194 0 -314.5 142t-120.5 378q0 232 128 382t329 150q110 0 189.5 -44t140.5 -140v162h117v-991q0 -243 -113.5 -364.5t-321.5 -121.5
q-195 0 -307 89.5t-123 250.5h127zM559 981q-153 0 -243.5 -118t-90.5 -316q0 -196 90 -309t244 -113q148 0 238 117.5t90 312.5q0 197 -89 311.5t-239 114.5z" />
    <glyph glyph-name="h" unicode="h" horiz-adv-x="1153" 
d="M287 899q122 180 356 180q73 0 133.5 -22t111.5 -69.5t80 -131.5t29 -199v-657h-118v637q0 344 -269 344q-46 0 -90 -13t-87 -43.5t-75 -76t-51.5 -117t-19.5 -160.5v-571h-117v1487h117v-588z" />
    <glyph glyph-name="i" unicode="i" horiz-adv-x="456" 
d="M287 1057v-1057h-117v1057h117zM299 1487v-172h-141v172h141z" />
    <glyph glyph-name="j" unicode="j" horiz-adv-x="456" 
d="M299 1487v-172h-141v172h141zM-59 -309q31 -8 69 -8q26 0 47.5 5t37 12.5t28 22t20.5 26.5t13 35t8 38t4.5 43.5t1.5 45v48.5v1098h117v-1071q0 -79 -2 -120t-15.5 -105.5t-39.5 -97t-78.5 -58t-128.5 -25.5q-46 0 -82 8v103z" />
    <glyph glyph-name="k" unicode="k" horiz-adv-x="976" 
d="M287 1487v-875l477 445h156l-510 -469l573 -588h-164l-532 555v-555h-117v1487h117z" />
    <glyph glyph-name="l" unicode="l" horiz-adv-x="456" 
d="M287 1487v-1487h-117v1487h117z" />
    <glyph glyph-name="m" unicode="m" horiz-adv-x="1728" 
d="M813 0v657q0 171 -58.5 247.5t-183.5 76.5q-126 0 -205 -104t-79 -299v-578h-117v1057h117v-154q102 176 313 176q111 0 187.5 -55t105.5 -158q47 104 134 158.5t206 54.5q82 0 142.5 -20.5t98 -56.5t60 -91.5t31 -117.5t8.5 -144v-649h-117v657q0 171 -58.5 247.5
t-183.5 76.5q-127 0 -205.5 -104t-78.5 -299v-578h-117z" />
    <glyph glyph-name="n" unicode="n" horiz-adv-x="1153" 
d="M287 899q122 180 352 180q73 0 135 -22t113.5 -69.5t80.5 -131.5t29 -199v-657h-116v637q0 174 -62.5 260t-210.5 86q-47 0 -90 -11t-86 -40.5t-74.5 -74.5t-51 -118.5t-19.5 -167.5v-571h-117v1057h117v-158z" />
    <glyph glyph-name="o" unicode="o" horiz-adv-x="1163" 
d="M586 1079q214 0 346.5 -152.5t132.5 -398.5q0 -247 -133 -399t-348 -152t-350.5 152.5t-135.5 398.5t135 398.5t353 152.5zM582 981q-168 0 -264.5 -120t-96.5 -333q0 -216 94 -335t267 -119q171 0 265.5 119t94.5 335q0 213 -96.5 333t-263.5 120z" />
    <glyph glyph-name="p" unicode="p" horiz-adv-x="1175" 
d="M1075 528q0 -127 -36.5 -233t-98 -174.5t-142 -106t-169.5 -37.5q-102 0 -191.5 47t-150.5 142v-578h-117v1469h117v-166q59 91 150.5 139.5t197.5 48.5q186 0 313 -151.5t127 -399.5zM952 528q0 204 -93 328.5t-243 124.5q-153 0 -243 -123.5t-90 -329.5
q0 -205 90 -329.5t243 -124.5q150 0 243 125.5t93 328.5z" />
    <glyph glyph-name="q" unicode="q" horiz-adv-x="1175" 
d="M100 528q0 124 36 229t96.5 174.5t141.5 108.5t171 39q120 0 203 -43.5t141 -144.5v166h117v-1469h-117v578q-61 -95 -150.5 -142t-191.5 -47q-90 0 -171 37.5t-142.5 106t-97.5 174t-36 233.5zM223 528q0 -203 93 -328.5t243 -125.5q153 0 243.5 124.5t90.5 329.5
q0 206 -90.5 329.5t-243.5 123.5q-150 0 -243 -124.5t-93 -328.5z" />
    <glyph glyph-name="r" unicode="r" horiz-adv-x="710" 
d="M287 1057v-162q108 168 305 168q47 0 88 -8v-109q-58 10 -88 10q-150 0 -227.5 -112.5t-77.5 -300.5v-543h-117v1057h117z" />
    <glyph glyph-name="s" unicode="s" horiz-adv-x="1017" 
d="M786 733q0 127 -70.5 187.5t-199.5 60.5q-135 0 -206.5 -46t-71.5 -132q0 -31 9.5 -56.5t22.5 -43.5t39 -34t47 -25.5t58 -20t61.5 -15.5t67.5 -14q7 -1 10 -2q52 -11 78.5 -17.5t73 -21t71.5 -28t57.5 -37.5t49.5 -52t29 -68t12 -89q0 -141 -109 -221.5t-301 -80.5
q-200 0 -312 94.5t-116 272.5h119q4 -130 88 -200t221 -70q131 0 208 49t77 141q0 26 -6 48.5t-14 40t-24.5 33t-30 26t-39 21.5t-41.5 17t-48 14t-49 12t-53 11q-40 7 -61.5 11.5t-59 13.5t-59 17t-52.5 21.5t-49.5 28.5t-39.5 37t-32 47t-18.5 58t-7.5 72q0 130 108 208
t291 78q185 0 287 -84t102 -262h-117z" />
    <glyph glyph-name="t" unicode="t" horiz-adv-x="606" 
d="M563 1057v-99h-221v-639q0 -53 2 -83.5t10 -62t24 -47t43 -25t68 -9.5q31 0 74 6v-98q-58 -10 -102 -10q-81 0 -137.5 30t-83.5 109q-15 46 -15 201v628h-190v99h190v231h117v-231h221z" />
    <glyph glyph-name="u" unicode="u" horiz-adv-x="1148" 
d="M862 156q-128 -179 -352 -179q-59 0 -109.5 12.5t-96.5 43.5t-78 78t-51 120.5t-19 167.5v658h116v-639q0 -344 269 -344q59 0 113 22t102 68t77 129t29 192v572h117v-1057h-117v156z" />
    <glyph glyph-name="v" unicode="v" horiz-adv-x="1013" 
d="M506 109h10l332 948h127l-393 -1057h-150l-395 1057h135z" />
    <glyph glyph-name="w" unicode="w" horiz-adv-x="1605" 
d="M168 1057l268 -948h10l269 948h180l276 -948h13l262 948h119l-314 -1057h-170l-268 952h-14l-277 -952h-170l-309 1057h125z" />
    <glyph glyph-name="x" unicode="x" horiz-adv-x="995" 
d="M55 1057h148l297 -426l299 426h139l-369 -500l408 -557h-148l-333 475l-336 -475h-142l406 551z" />
    <glyph glyph-name="y" unicode="y" horiz-adv-x="1011" 
d="M78 -311q44 -6 82 -6q48 0 83.5 12t61.5 32.5t50 62.5t41.5 85t43.5 117l-403 1065h133l332 -920h12l332 920h129l-457 -1190q-58 -151 -139 -219t-209 -68q-48 0 -92 8v101z" />
    <glyph glyph-name="z" unicode="z" horiz-adv-x="962" 
d="M743 958h-649v99h783v-105l-674 -854h698v-98h-835v104z" />
    <glyph glyph-name="braceleft" unicode="{" horiz-adv-x="612" 
d="M369 141q0 -140 28.5 -205t108.5 -65q32 0 43 4v-92q-36 -4 -51 -4q-250 0 -250 340v184q0 303 -178 303v88q90 5 134 75t44 230v144q0 197 53 285t201 88q20 0 47 -3v-90q-14 2 -33 2q-39 0 -67 -12.5t-43 -31.5t-24 -50t-11 -59t-2 -68v-178q0 -122 -16 -196.5
t-61.5 -121t-125.5 -57.5q53 -10 90 -32.5t59 -53t34 -78.5t16 -96t4 -119v-131z" />
    <glyph glyph-name="bar" unicode="|" horiz-adv-x="495" 
d="M305 1487v-1487h-115v1487h115z" />
    <glyph glyph-name="braceright" unicode="}" horiz-adv-x="612" 
d="M244 1204q0 40 -2.5 68t-11 59t-24 50t-43.5 31.5t-67 12.5q-19 0 -33 -2v90q27 3 48 3q148 0 201 -88t53 -285v-144q0 -160 44 -230t134 -75v-88q-83 0 -130.5 -73t-47.5 -230v-184q0 -340 -250 -340q-16 0 -52 4v92q9 -4 43 -4q80 0 109 65.5t29 204.5v131
q0 71 3.5 119t15.5 96t34 78.5t59 53t90 32.5q-117 16 -159.5 103.5t-42.5 271.5v178z" />
    <glyph glyph-name="asciitilde" unicode="~" 
d="M831 440q-52 0 -104 18t-87.5 39.5t-84 39.5t-94.5 18q-16 0 -29.5 -2.5t-27 -10.5t-21.5 -13t-21.5 -20t-18.5 -21t-20.5 -26.5t-19.5 -25.5l-84 64q62 85 114.5 122t129.5 37q59 0 112.5 -18t87 -39t78.5 -39t90 -18q14 0 27 3t22.5 6t22 13t18 14t18.5 19.5t16 19.5
t17.5 23.5t16.5 22.5l86 -64q-64 -86 -117 -124t-127 -38z" />
    <glyph glyph-name="uni00A0" unicode="&#xa0;" horiz-adv-x="409" 
 />
    <glyph glyph-name="exclamdown" unicode="&#xa1;" horiz-adv-x="481" 
d="M289 778l24 -1177h-147l27 1177h96zM156 911v176h163v-176h-163z" />
    <glyph glyph-name="cent" unicode="&#xa2;" horiz-adv-x="1101" 
d="M528 201q-197 12 -311.5 157.5t-114.5 393.5q0 239 121.5 387.5t304.5 160.5v218h99v-215q161 -12 268 -112.5t119 -262.5h-121q-17 119 -90.5 189.5t-175.5 78.5v-887q108 11 181 82.5t91 192.5h123q-24 -169 -130.5 -268t-264.5 -111v-236h-99v232zM227 752
q0 -203 82.5 -318t218.5 -127v887q-136 -14 -218.5 -127t-82.5 -315z" />
    <glyph glyph-name="sterling" unicode="&#xa3;" horiz-adv-x="1185" 
d="M969 1026q0 161 -64.5 228t-204.5 67q-141 0 -212.5 -85.5t-71.5 -246.5v-190h284v-99h-284v-319q0 -114 -22 -176t-77 -92v-7h766v-106h-993v102q114 4 158.5 67.5t44.5 203.5v327h-211v99h211v184q0 213 106 325.5t303 112.5q196 0 293 -94.5t97 -300.5h-123z" />
    <glyph glyph-name="currency" unicode="&#xa4;" horiz-adv-x="1146" 
d="M958 627q0 -148 -86 -254l160 -140l-76 -73l-145 162q-104 -93 -242 -93q-143 0 -239 90l-154 -159l-74 73l166 140q-78 105 -78 243q0 144 86 250l-161 142l78 65l143 -153q110 92 244 92q140 0 237 -90l154 151l76 -65l-166 -142q77 -103 77 -239zM850 623
q0 124 -73.5 213.5t-201.5 89.5q-124 0 -200 -88.5t-76 -219.5q0 -124 73 -213.5t201 -89.5q125 0 201 88.5t76 219.5z" />
    <glyph glyph-name="yen" unicode="&#xa5;" horiz-adv-x="1183" 
d="M465 735l-410 664h152l393 -656l383 656h145l-411 -664h307v-102h-371v-141h371v-103h-371v-389h-123v389h-370v103h370v141h-370v102h305z" />
    <glyph glyph-name="brokenbar" unicode="&#xa6;" horiz-adv-x="495" 
d="M305 1427v-555h-115v555h115zM305 555v-555h-115v555h115z" />
    <glyph glyph-name="section" unicode="&#xa7;" horiz-adv-x="1040" 
d="M733 1124q-4 109 -57 160t-158 51q-102 0 -165.5 -47.5t-63.5 -122.5q0 -92 69 -143q33 -26 77 -48t127.5 -55t105.5 -42q64 -29 108.5 -55t89 -63t67.5 -85.5t23 -106.5q0 -85 -51.5 -163t-134.5 -121q111 -97 111 -228q0 -136 -101.5 -218.5t-271.5 -82.5
q-172 0 -269.5 84t-97.5 228v20h125q0 -121 58 -177t182 -56q115 0 180.5 54t65.5 148t-68 150q-70 57 -264 137q-58 25 -99 45.5t-87.5 51.5t-75 63t-47.5 75.5t-19 92.5q0 82 41 148t133 132q-102 82 -102 215q0 117 100 191t254 74q157 0 247.5 -72.5t90.5 -210.5v-23
h-123zM696 330q74 54 104.5 103.5t30.5 115.5q0 82 -64 137t-237 131l-184 82q-129 -99 -129 -211q0 -79 71 -140t244 -140z" />
    <glyph glyph-name="dieresis" unicode="&#xa8;" horiz-adv-x="1167" 
d="M465 1487v-174h-139v174h139zM842 1487v-174h-140v174h140z" />
    <glyph glyph-name="copyright" unicode="&#xa9;" horiz-adv-x="1740" 
d="M1243 588q-23 -148 -120 -231t-249 -83q-184 0 -292.5 128t-108.5 337q0 203 111.5 330t294.5 127q145 0 244.5 -85.5t119.5 -221.5h-125q-19 101 -81 157t-158 56q-125 0 -204 -101t-79 -262q0 -166 77 -268t201 -102q96 0 159.5 58.5t84.5 160.5h125zM207 748
q0 -189 90 -345t242 -243.5t331 -87.5q134 0 256 51.5t212 140.5t143 215.5t53 268.5q0 141 -53 267t-143 214.5t-212 140t-256 51.5q-179 0 -331 -87t-242 -242.5t-90 -343.5zM104 748q0 215 100.5 391t276 276.5t389.5 100.5t389.5 -100.5t276 -276.5t100.5 -391
q0 -162 -59 -305t-161 -245t-244 -161.5t-302 -59.5t-302 59.5t-244 161.5t-161 245t-59 305z" />
    <glyph glyph-name="ordfeminine" unicode="&#xaa;" horiz-adv-x="886" 
d="M129 1251q0 121 81.5 190.5t221.5 69.5q139 0 225 -77.5t86 -239.5v-320q0 -94 17 -188h-103q-8 43 -12 115q-42 -67 -110.5 -102t-151.5 -35q-279 0 -279 219q0 50 17.5 90.5t46 69t72 51t87 36.5t101 24t104 15t105.5 9v32q0 106 -57 160.5t-148 54.5q-93 0 -144.5 -45
t-51.5 -129h-107zM637 1092q-47 -3 -73.5 -5t-78 -9t-83 -15.5t-72 -24t-63.5 -36t-39.5 -51t-16.5 -68.5q0 -65 46.5 -99t133.5 -34q121 0 183.5 78.5t62.5 226.5v37z" />
    <glyph glyph-name="guillemotleft" unicode="&#xab;" horiz-adv-x="802" 
d="M586 969h110l-202 -406v-4l202 -416h-110l-213 418zM297 969h113l-203 -406v-4l203 -416h-113l-211 418z" />
    <glyph glyph-name="logicalnot" unicode="&#xac;" 
d="M1065 270h-115v381h-745v105h860v-486z" />
    <glyph glyph-name="uni00AD" unicode="&#xad;" horiz-adv-x="776" 
d="M635 639v-111h-494v111h494z" />
    <glyph glyph-name="registered" unicode="&#xae;" horiz-adv-x="1740" 
d="M887 1174q140 0 216.5 -61.5t76.5 -176.5q0 -77 -52 -134t-145 -87q41 -7 71 -22t47 -30.5t31 -46t19 -48.5t14 -58l43 -213h-127l-32 178q-20 115 -57.5 152t-137.5 37h-154v-367h-118v877h305zM862 760q96 0 146.5 43t50.5 123q0 151 -197 151h-162v-317h162zM207 748
q0 -189 90 -345t242 -243.5t331 -87.5q134 0 256 51.5t212 140.5t143 215.5t53 268.5q0 141 -53 267t-143 214.5t-212 140t-256 51.5q-179 0 -331 -87t-242 -242.5t-90 -343.5zM104 748q0 215 100.5 391t276 276.5t389.5 100.5t389.5 -100.5t276 -276.5t100.5 -391
q0 -162 -59 -305t-161 -245t-244 -161.5t-302 -59.5t-302 59.5t-244 161.5t-161 245t-59 305z" />
    <glyph glyph-name="overscore" unicode="&#xaf;" horiz-adv-x="1138" 
d="M309 1436h518v-99h-518v99z" />
    <glyph glyph-name="degree" unicode="&#xb0;" horiz-adv-x="782" 
d="M92 1130q0 125 89 211t210 86t210 -86t89 -211t-89 -210.5t-210 -85.5t-210 85.5t-89 210.5zM602 1130q0 88 -58 150.5t-153 62.5t-153 -62.5t-58 -150.5t58 -150t153 -62t153 62t58 150z" />
    <glyph glyph-name="plusminus" unicode="&#xb1;" 
d="M215 102h860v-102h-860v102zM215 719h373v366h112v-366h375v-101h-375v-366h-112v366h-373v101z" />
    <glyph glyph-name="twosuperior" unicode="&#xb2;" horiz-adv-x="702" 
d="M78 979q-2 16 -2 33q0 121 65 202q57 71 185 148q101 61 140.5 106.5t39.5 106.5q0 66 -41 105.5t-109 39.5q-77 0 -120 -50.5t-48 -143.5h-110q1 131 79 204.5t208 73.5q121 0 189.5 -61.5t68.5 -167.5q0 -78 -49 -139t-168 -136t-164 -126q-34 -39 -43 -101v-4h428v-90
h-549z" />
    <glyph glyph-name="threesuperior" unicode="&#xb3;" horiz-adv-x="731" 
d="M184 1233q0 -86 49 -138.5t129 -52.5q74 0 123.5 46.5t49.5 113.5q0 69 -46.5 106.5t-132.5 37.5q-12 0 -39 -3v93q18 -2 29 -2q87 0 133.5 36t46.5 103q0 66 -44 105.5t-117 39.5q-78 0 -121.5 -46.5t-48.5 -131.5h-113q4 126 80.5 195t208.5 69q121 0 195.5 -61
t74.5 -160q0 -66 -41.5 -117.5t-107.5 -68.5v-8q161 -40 161 -193q0 -104 -84.5 -172t-212.5 -68q-130 0 -208 74.5t-78 202.5h114z" />
    <glyph glyph-name="acute" unicode="&#xb4;" horiz-adv-x="1161" 
d="M692 1487h154l-230 -252h-104z" />
    <glyph glyph-name="mu" unicode="&#xb5;" horiz-adv-x="1259" 
d="M303 1057v-608q0 -375 297 -375q129 0 211 106t82 307v570h119v-852q0 -125 110 -125q40 0 78 12v-92q-46 -14 -102 -14q-182 0 -197 186q-23 -44 -47 -75.5t-59.5 -60.5t-85 -44t-111.5 -15q-105 0 -179.5 43t-115.5 115v-547h-117v1469h117z" />
    <glyph glyph-name="paragraph" unicode="&#xb6;" horiz-adv-x="1187" 
d="M803 -264v1648h-215v-1648h-117v842q-130 3 -224.5 63.5t-141 160t-46.5 226.5q0 144 66.5 249.5t177.5 157.5t252 52h569v-103h-200v-1648h-121z" />
    <glyph glyph-name="middot" unicode="&#xb7;" horiz-adv-x="442" 
d="M303 793v-177h-164v177h164z" />
    <glyph glyph-name="cedilla" unicode="&#xb8;" horiz-adv-x="1093" 
d="M401 -418q-33 0 -71 6v82q24 -6 51 -6q60 0 93.5 30t33.5 79q0 42 -29.5 70t-79.5 28q-20 0 -34 -2v151h100v-88q65 -6 104 -50.5t39 -108.5q0 -82 -56.5 -136.5t-150.5 -54.5z" />
    <glyph glyph-name="onesuperior" unicode="&#xb9;" horiz-adv-x="454" 
d="M47 1575v72q103 4 146 36t49 107h92v-811h-107v596h-180z" />
    <glyph glyph-name="ordmasculine" unicode="&#xba;" horiz-adv-x="929" 
d="M465 750q128 0 191 93.5t63 243.5t-63 244t-191 94t-191 -94t-63 -244t63 -243.5t191 -93.5zM465 664q-171 0 -271 115.5t-100 307.5t100 308t271 116t271 -116t100 -308t-100 -307.5t-271 -115.5z" />
    <glyph glyph-name="guillemotright" unicode="&#xbb;" horiz-adv-x="804" 
d="M106 143l203 416v4l-203 406h113l213 -408l-213 -418h-113zM393 143l203 416v4l-203 406h113l211 -408l-211 -418h-113z" />
    <glyph glyph-name="onequarter" unicode="&#xbc;" horiz-adv-x="1409" 
d="M47 1184v71q102 4 145.5 36.5t49.5 107.5h92v-811h-107v596h-180zM1008 1427l-756 -1456h-98l753 1456h101zM1210 213v-213h-108v213h-375v84l334 514h149v-510h148v-88h-148zM1102 301q0 254 8 410h-8l-260 -410h260z" />
    <glyph glyph-name="onehalf" unicode="&#xbd;" horiz-adv-x="1421" 
d="M47 1184v71q102 4 145.5 36.5t49.5 107.5h92v-811h-107v596h-180zM1008 1427l-756 -1456h-98l753 1456h101zM797 0q-2 16 -2 33q0 122 65 203q57 70 184 147q102 61 141.5 107t39.5 106q0 66 -41 105.5t-109 39.5q-77 0 -120 -50.5t-48 -143.5h-110q1 132 78.5 205
t207.5 73q121 0 189.5 -61.5t68.5 -167.5q0 -78 -49 -138.5t-168 -135.5q-114 -72 -163 -127q-34 -39 -43 -101v-4h428v-90h-549z" />
    <glyph glyph-name="threequarters" unicode="&#xbe;" horiz-adv-x="1685" 
d="M184 842q0 -86 49 -138.5t129 -52.5q74 0 123.5 46.5t49.5 113.5q0 69 -46.5 106t-132.5 37q-21 0 -39 -2v92q18 -2 29 -2q86 0 133 36.5t47 103.5q0 66 -44 105.5t-117 39.5q-78 0 -121.5 -46.5t-48.5 -131.5h-113q4 126 80.5 195t208.5 69q121 0 195.5 -61t74.5 -160
q0 -66 -41.5 -117.5t-107.5 -68.5v-9q161 -40 161 -192q0 -104 -84.5 -172t-212.5 -68q-130 0 -208 74.5t-78 202.5h114zM1284 1427l-756 -1456h-98l754 1456h100zM1487 213v-213h-109v213h-374v84l333 514h150v-510h147v-88h-147zM1378 301q0 254 8 410h-8l-260 -410h260z
" />
    <glyph glyph-name="questiondown" unicode="&#xbf;" horiz-adv-x="983" 
d="M934 -16q-19 -195 -128.5 -299.5t-309.5 -104.5q-208 0 -321.5 95t-113.5 257q0 53 12 99.5t27.5 78t47 67.5t51.5 54t61.5 53t58.5 50q65 62 87 93q71 98 71 288v65h119q0 -157 -16 -244t-57 -150.5t-128 -133.5q-124 -108 -164.5 -171t-40.5 -149q0 -118 79 -184.5
t227 -66.5q137 0 219.5 82t93.5 221h125zM455 913v177h163v-177h-163z" />
    <glyph glyph-name="Agrave" unicode="&#xc0;" horiz-adv-x="1368" 
d="M766 1487l584 -1487h-136l-188 494h-692l-182 -494h-136l586 1487h164zM684 1393h-8l-301 -793h610zM637 1630l-244 225h160l195 -225h-111z" />
    <glyph glyph-name="Aacute" unicode="&#xc1;" horiz-adv-x="1368" 
d="M766 1487l584 -1487h-136l-188 494h-692l-182 -494h-136l586 1487h164zM684 1393h-8l-301 -793h610zM809 1855h160l-244 -225h-111z" />
    <glyph glyph-name="Acircumflex" unicode="&#xc2;" horiz-adv-x="1368" 
d="M766 1487l584 -1487h-136l-188 494h-692l-182 -494h-136l586 1487h164zM684 1393h-8l-301 -793h610zM952 1630h-127l-147 166l-150 -166h-120l196 225h152z" />
    <glyph glyph-name="Atilde" unicode="&#xc3;" horiz-adv-x="1368" 
d="M766 1487l584 -1487h-136l-188 494h-692l-182 -494h-136l586 1487h164zM684 1393h-8l-301 -793h610zM815 1651q-39 0 -89.5 24t-97 48t-75.5 24q-69 0 -92 -94h-80q13 99 58.5 146.5t111.5 47.5q42 0 92.5 -24t96 -48t73.5 -24q69 0 90 94h82q-13 -99 -58.5 -146.5
t-111.5 -47.5z" />
    <glyph glyph-name="Adieresis" unicode="&#xc4;" horiz-adv-x="1368" 
d="M766 1487l584 -1487h-136l-188 494h-692l-182 -494h-136l586 1487h164zM684 1393h-8l-301 -793h610zM553 1835v-174h-139v174h139zM950 1835v-174h-139v174h139z" />
    <glyph glyph-name="Aring" unicode="&#xc5;" horiz-adv-x="1368" 
d="M766 1487l584 -1487h-136l-188 494h-692l-182 -494h-136l586 1487h164zM684 1393h-8l-301 -793h610zM682 1456q-98 0 -154.5 60.5t-56.5 140.5t56.5 140.5t154.5 60.5q97 0 155 -61t58 -140t-58 -140t-155 -61zM682 1532q59 0 92 35t33 90t-33 90t-92 35q-56 0 -89.5 -35
t-33.5 -90t33.5 -90t89.5 -35z" />
    <glyph glyph-name="AE" unicode="&#xc6;" horiz-adv-x="1921" 
d="M1798 1487v-109h-760l78 -557h641v-106h-624l86 -606h614v-109h-727l-72 522h-608l-270 -522h-142l789 1487h995zM872 1384l-389 -753h535l-107 753h-39z" />
    <glyph glyph-name="Ccedilla" unicode="&#xc7;" horiz-adv-x="1406" 
d="M1327 502q-29 -247 -191 -386t-407 -139q-193 0 -333.5 97t-212.5 269t-72 400q0 221 74.5 394t218 272.5t335.5 99.5q247 0 400.5 -137t173.5 -383h-129q-8 185 -131.5 300.5t-313.5 115.5q-234 0 -366.5 -177t-132.5 -485q0 -194 57 -342.5t168.5 -233.5t263.5 -85
q190 0 312 106.5t157 313.5h129zM688 -418q-49 0 -72 6v82q24 -6 52 -6q60 0 93.5 30t33.5 79q0 42 -29.5 70t-79.5 28q-21 0 -35 -2v151h101v-88q65 -6 104 -50.5t39 -108.5q0 -82 -56.5 -136.5t-150.5 -54.5z" />
    <glyph glyph-name="Egrave" unicode="&#xc8;" horiz-adv-x="1212" 
d="M1092 1487v-109h-770v-557h735v-106h-735v-606h798v-109h-921v1487h893zM600 1630l-244 225h160l195 -225h-111z" />
    <glyph glyph-name="Eacute" unicode="&#xc9;" horiz-adv-x="1212" 
d="M1092 1487v-109h-770v-557h735v-106h-735v-606h798v-109h-921v1487h893zM772 1855h160l-244 -225h-110z" />
    <glyph glyph-name="Ecircumflex" unicode="&#xca;" horiz-adv-x="1212" 
d="M1092 1487v-109h-770v-557h735v-106h-735v-606h798v-109h-921v1487h893zM915 1630h-127l-147 166l-149 -166h-121l196 225h152z" />
    <glyph glyph-name="Edieresis" unicode="&#xcb;" horiz-adv-x="1212" 
d="M1092 1487v-109h-770v-557h735v-106h-735v-606h798v-109h-921v1487h893zM516 1835v-174h-139v174h139zM913 1835v-174h-139v174h139z" />
    <glyph glyph-name="Igrave" unicode="&#xcc;" horiz-adv-x="520" 
d="M322 1487v-1487h-123v1487h123zM215 1630l-244 225h160l195 -225h-111z" />
    <glyph glyph-name="Iacute" unicode="&#xcd;" horiz-adv-x="520" 
d="M322 1487v-1487h-123v1487h123zM387 1855h160l-244 -225h-110z" />
    <glyph glyph-name="Icircumflex" unicode="&#xce;" horiz-adv-x="520" 
d="M322 1487v-1487h-123v1487h123zM530 1630h-127l-147 166l-150 -166h-120l196 225h152z" />
    <glyph glyph-name="Idieresis" unicode="&#xcf;" horiz-adv-x="520" 
d="M322 1487v-1487h-123v1487h123zM164 1835v-174h-139v174h139zM496 1835v-174h-140v174h140z" />
    <glyph glyph-name="Eth" unicode="&#xd0;" horiz-adv-x="1509" 
d="M233 821v666h402q228 0 363.5 -50.5t226.5 -158.5q176 -204 176 -535q0 -330 -176 -534q-89 -109 -225.5 -159t-364.5 -50h-402v715h-198v106h198zM1274 743q0 298 -164 488q-71 82 -182.5 114.5t-292.5 32.5h-279v-557h295v-106h-295v-606h279q183 0 292.5 32.5
t182.5 114.5q79 89 121.5 214t42.5 273z" />
    <glyph glyph-name="Ntilde" unicode="&#xd1;" horiz-adv-x="1488" 
d="M391 1487l772 -1364h13l-5 622v742h119v-1487h-192l-774 1366h-13l4 -621v-745h-116v1487h192zM877 1651q-49 0 -139 48t-124 48q-68 0 -92 -94h-80q13 99 58.5 146.5t111.5 47.5q52 0 141 -48t121 -48q70 0 91 94h82q-13 -99 -58.5 -146.5t-111.5 -47.5z" />
    <glyph glyph-name="Ograve" unicode="&#xd2;" horiz-adv-x="1527" 
d="M764 1509q145 0 267.5 -56.5t207.5 -157t132.5 -243t47.5 -309.5t-47.5 -309.5t-132.5 -243t-207.5 -157t-267.5 -56.5t-267.5 56.5t-207.5 157t-132.5 243t-47.5 309.5t47.5 309.5t132.5 243t207.5 157t267.5 56.5zM764 1405q-235 0 -380.5 -181.5t-145.5 -480.5
t145.5 -480t380.5 -181q234 0 380 181.5t146 479.5q0 299 -145.5 480.5t-380.5 181.5zM719 1630l-244 225h160l194 -225h-110z" />
    <glyph glyph-name="Oacute" unicode="&#xd3;" horiz-adv-x="1527" 
d="M764 1509q145 0 267.5 -56.5t207.5 -157t132.5 -243t47.5 -309.5t-47.5 -309.5t-132.5 -243t-207.5 -157t-267.5 -56.5t-267.5 56.5t-207.5 157t-132.5 243t-47.5 309.5t47.5 309.5t132.5 243t207.5 157t267.5 56.5zM764 1405q-235 0 -380.5 -181.5t-145.5 -480.5
t145.5 -480t380.5 -181q234 0 380 181.5t146 479.5q0 299 -145.5 480.5t-380.5 181.5zM891 1855h160l-244 -225h-111z" />
    <glyph glyph-name="Ocircumflex" unicode="&#xd4;" horiz-adv-x="1527" 
d="M764 1509q145 0 267.5 -56.5t207.5 -157t132.5 -243t47.5 -309.5t-47.5 -309.5t-132.5 -243t-207.5 -157t-267.5 -56.5t-267.5 56.5t-207.5 157t-132.5 243t-47.5 309.5t47.5 309.5t132.5 243t207.5 157t267.5 56.5zM764 1405q-235 0 -380.5 -181.5t-145.5 -480.5
t145.5 -480t380.5 -181q234 0 380 181.5t146 479.5q0 299 -145.5 480.5t-380.5 181.5zM1034 1630h-127l-147 166l-150 -166h-121l197 225h152z" />
    <glyph glyph-name="Otilde" unicode="&#xd5;" horiz-adv-x="1527" 
d="M764 1509q145 0 267.5 -56.5t207.5 -157t132.5 -243t47.5 -309.5t-47.5 -309.5t-132.5 -243t-207.5 -157t-267.5 -56.5t-267.5 56.5t-207.5 157t-132.5 243t-47.5 309.5t47.5 309.5t132.5 243t207.5 157t267.5 56.5zM764 1405q-235 0 -380.5 -181.5t-145.5 -480.5
t145.5 -480t380.5 -181q234 0 380 181.5t146 479.5q0 299 -145.5 480.5t-380.5 181.5zM897 1651q-39 0 -89.5 24t-97 48t-75.5 24q-69 0 -92 -94h-80q13 99 58.5 146.5t111.5 47.5q42 0 92.5 -24t96 -48t73.5 -24q69 0 90 94h82q-13 -99 -58.5 -146.5t-111.5 -47.5z" />
    <glyph glyph-name="Odieresis" unicode="&#xd6;" horiz-adv-x="1527" 
d="M764 1509q145 0 267.5 -56.5t207.5 -157t132.5 -243t47.5 -309.5t-47.5 -309.5t-132.5 -243t-207.5 -157t-267.5 -56.5t-267.5 56.5t-207.5 157t-132.5 243t-47.5 309.5t47.5 309.5t132.5 243t207.5 157t267.5 56.5zM764 1405q-235 0 -380.5 -181.5t-145.5 -480.5
t145.5 -480t380.5 -181q234 0 380 181.5t146 479.5q0 299 -145.5 480.5t-380.5 181.5zM635 1835v-174h-139v174h139zM1032 1835v-174h-139v174h139z" />
    <glyph glyph-name="multiply" unicode="&#xd7;" 
d="M293 297l278 278l-286 285l80 80l286 -285l277 279l73 -74l-278 -276l285 -287l-80 -80l-285 285l-278 -277z" />
    <glyph glyph-name="Oslash" unicode="&#xd8;" horiz-adv-x="1536" 
d="M770 1509q237 0 404 -145l112 149l78 -61l-119 -158q180 -214 180 -551q0 -167 -47.5 -309.5t-132.5 -243t-207.5 -157t-267.5 -56.5q-237 0 -405 146l-127 -170l-80 61l135 181q-178 212 -178 548q0 167 47.5 309.5t132.5 243t207.5 157t267.5 56.5zM1296 743
q0 275 -125 455l-741 -985q137 -131 340 -131q234 0 380 181.5t146 479.5zM770 1405q-235 0 -380.5 -181.5t-145.5 -480.5q0 -270 121 -450l741 981q-137 131 -336 131z" />
    <glyph glyph-name="Ugrave" unicode="&#xd9;" horiz-adv-x="1413" 
d="M305 600q0 -160 23 -251t88 -154q115 -115 291 -115q178 0 288 110q65 65 88 154.5t23 249.5v893h125v-930q0 -580 -524 -580q-525 0 -525 580v930h123v-887zM662 1630l-244 225h160l194 -225h-110z" />
    <glyph glyph-name="Uacute" unicode="&#xda;" horiz-adv-x="1413" 
d="M305 600q0 -160 23 -251t88 -154q115 -115 291 -115q178 0 288 110q65 65 88 154.5t23 249.5v893h125v-930q0 -580 -524 -580q-525 0 -525 580v930h123v-887zM834 1855h159l-243 -225h-111z" />
    <glyph glyph-name="Ucircumflex" unicode="&#xdb;" horiz-adv-x="1413" 
d="M305 600q0 -160 23 -251t88 -154q115 -115 291 -115q178 0 288 110q65 65 88 154.5t23 249.5v893h125v-930q0 -580 -524 -580q-525 0 -525 580v930h123v-887zM977 1630h-127l-148 166l-149 -166h-121l197 225h151z" />
    <glyph glyph-name="Udieresis" unicode="&#xdc;" horiz-adv-x="1413" 
d="M305 600q0 -160 23 -251t88 -154q115 -115 291 -115q178 0 288 110q65 65 88 154.5t23 249.5v893h125v-930q0 -580 -524 -580q-525 0 -525 580v930h123v-887zM578 1835v-174h-140v174h140zM975 1835v-174h-139v174h139z" />
    <glyph glyph-name="Yacute" unicode="&#xdd;" horiz-adv-x="1251" 
d="M20 1487h152l461 -742l454 742h146l-547 -854v-633h-123v633zM754 1855h159l-243 -225h-111z" />
    <glyph glyph-name="Thorn" unicode="&#xde;" horiz-adv-x="1267" 
d="M322 1487v-299h333q138 0 228 -26.5t157 -84.5q64 -56 99 -137t35 -174q0 -94 -38 -175t-110 -138q-70 -56 -159.5 -81.5t-223.5 -25.5h-321v-346h-123v1487h123zM651 453q117 0 185.5 19.5t121.5 70.5q86 83 86 225q0 163 -116 248q-54 37 -119 51t-184 14h-303v-628
h329z" />
    <glyph glyph-name="germandbls" unicode="&#xdf;" horiz-adv-x="1124" 
d="M170 1028q0 234 99 357.5t302 123.5q171 0 279 -95.5t108 -246.5q0 -115 -73.5 -210.5t-179.5 -120.5v-9q140 -17 232.5 -126t92.5 -250q0 -143 -68 -247t-182.5 -156t-261.5 -52q-51 0 -88 4v98q33 -4 86 -4q191 0 290 90.5t99 266.5q0 153 -109 239t-290 86v98
q23 -2 33 -2q130 0 215.5 82.5t85.5 206.5q0 111 -77 181.5t-200 70.5q-141 0 -208.5 -95t-67.5 -296v-1022h-117v1028z" />
    <glyph glyph-name="agrave" unicode="&#xe0;" horiz-adv-x="1091" 
d="M141 739q0 152 115 246t295 94q94 0 161 -19t120 -64.5t79.5 -129.5t26.5 -207v-419q0 -133 20 -240h-120q-11 76 -13 154q-70 -96 -154 -136.5t-200 -40.5q-169 0 -272 78.5t-103 216.5q0 216 223 299q68 26 163.5 42.5t163 22.5t175.5 13v43q0 150 -68.5 217.5
t-205.5 67.5q-130 0 -206.5 -62t-76.5 -176h-123zM821 549q-318 -20 -450 -68q-88 -34 -119 -85t-31 -122q0 -95 70.5 -147.5t191.5 -52.5q162 0 250 115.5t88 310.5v49zM272 1487h154l180 -252h-106z" />
    <glyph glyph-name="aacute" unicode="&#xe1;" horiz-adv-x="1091" 
d="M141 739q0 152 115 246t295 94q94 0 161 -19t120 -64.5t79.5 -129.5t26.5 -207v-419q0 -133 20 -240h-120q-11 76 -13 154q-70 -96 -154 -136.5t-200 -40.5q-169 0 -272 78.5t-103 216.5q0 216 223 299q68 26 163.5 42.5t163 22.5t175.5 13v43q0 150 -68.5 217.5
t-205.5 67.5q-130 0 -206.5 -62t-76.5 -176h-123zM821 549q-318 -20 -450 -68q-88 -34 -119 -85t-31 -122q0 -95 70.5 -147.5t191.5 -52.5q162 0 250 115.5t88 310.5v49zM662 1487h153l-229 -252h-105z" />
    <glyph glyph-name="acircumflex" unicode="&#xe2;" horiz-adv-x="1091" 
d="M141 739q0 152 115 246t295 94q94 0 161 -19t120 -64.5t79.5 -129.5t26.5 -207v-419q0 -133 20 -240h-120q-11 76 -13 154q-70 -96 -154 -136.5t-200 -40.5q-169 0 -272 78.5t-103 216.5q0 216 223 299q68 26 163.5 42.5t163 22.5t175.5 13v43q0 150 -68.5 217.5
t-205.5 67.5q-130 0 -206.5 -62t-76.5 -176h-123zM821 549q-318 -20 -450 -68q-88 -34 -119 -85t-31 -122q0 -95 70.5 -147.5t191.5 -52.5q162 0 250 115.5t88 310.5v49zM815 1235h-115l-153 184l-152 -184h-114l194 252h143z" />
    <glyph glyph-name="atilde" unicode="&#xe3;" horiz-adv-x="1091" 
d="M141 739q0 152 115 246t295 94q94 0 161 -19t120 -64.5t79.5 -129.5t26.5 -207v-419q0 -133 20 -240h-120q-11 76 -13 154q-70 -96 -154 -136.5t-200 -40.5q-169 0 -272 78.5t-103 216.5q0 216 223 299q68 26 163.5 42.5t163 22.5t175.5 13v43q0 150 -68.5 217.5
t-205.5 67.5q-130 0 -206.5 -62t-76.5 -176h-123zM821 549q-318 -20 -450 -68q-88 -34 -119 -85t-31 -122q0 -95 70.5 -147.5t191.5 -52.5q162 0 250 115.5t88 310.5v49zM680 1282q-40 0 -89 24t-94.5 48t-74.5 24q-68 0 -92 -94h-80q13 99 58.5 147t111.5 48q41 0 91 -24
t94.5 -48.5t72.5 -24.5q69 0 90 95h82q-13 -99 -58.5 -147t-111.5 -48z" />
    <glyph glyph-name="adieresis" unicode="&#xe4;" horiz-adv-x="1091" 
d="M141 739q0 152 115 246t295 94q94 0 161 -19t120 -64.5t79.5 -129.5t26.5 -207v-419q0 -133 20 -240h-120q-11 76 -13 154q-70 -96 -154 -136.5t-200 -40.5q-169 0 -272 78.5t-103 216.5q0 216 223 299q68 26 163.5 42.5t163 22.5t175.5 13v43q0 150 -68.5 217.5
t-205.5 67.5q-130 0 -206.5 -62t-76.5 -176h-123zM821 549q-318 -20 -450 -68q-88 -34 -119 -85t-31 -122q0 -95 70.5 -147.5t191.5 -52.5q162 0 250 115.5t88 310.5v49zM430 1487v-174h-139v174h139zM807 1487v-174h-139v174h139z" />
    <glyph glyph-name="aring" unicode="&#xe5;" horiz-adv-x="1091" 
d="M141 739q0 152 115 246t295 94q94 0 161 -19t120 -64.5t79.5 -129.5t26.5 -207v-419q0 -133 20 -240h-120q-11 76 -13 154q-70 -96 -154 -136.5t-200 -40.5q-169 0 -272 78.5t-103 216.5q0 216 223 299q68 26 163.5 42.5t163 22.5t175.5 13v43q0 150 -68.5 217.5
t-205.5 67.5q-130 0 -206.5 -62t-76.5 -176h-123zM821 549q-318 -20 -450 -68q-88 -34 -119 -85t-31 -122q0 -95 70.5 -147.5t191.5 -52.5q162 0 250 115.5t88 310.5v49zM551 1163q-98 0 -154.5 60.5t-56.5 140.5t56.5 140.5t154.5 60.5q97 0 155 -61t58 -140t-58 -140
t-155 -61zM551 1239q59 0 92 35t33 90t-33 90t-92 35q-56 0 -89.5 -35t-33.5 -90t33.5 -90t89.5 -35z" />
    <glyph glyph-name="ae" unicode="&#xe6;" horiz-adv-x="1792" 
d="M461 -23q-162 0 -262.5 77.5t-100.5 224.5q0 174 147 254.5t466 80.5h98v54q0 158 -71 237.5t-203 79.5q-125 0 -200 -63t-81 -179h-119q4 154 115 245t285 91q276 0 354 -219q134 219 373 219q216 0 324 -142.5t108 -399.5v-29h-762q0 -126 36 -222t112 -153t184 -57
q116 0 191.5 60t105.5 167h120q-31 -160 -145.5 -243t-269.5 -83q-138 0 -242.5 66t-153.5 188q-56 -120 -159 -187t-250 -67zM471 72q152 0 246 100t94 293v51h-100q-255 0 -369.5 -56.5t-114.5 -178.5q0 -102 72 -155.5t172 -53.5zM1571 608q-11 180 -88.5 276.5
t-222.5 96.5q-137 0 -225.5 -99t-100.5 -274h637z" />
    <glyph glyph-name="ccedilla" unicode="&#xe7;" horiz-adv-x="1097" 
d="M1018 360q-20 -171 -143.5 -277t-299.5 -106q-214 0 -345.5 150.5t-131.5 400.5q0 122 38.5 226t103.5 174.5t153.5 110.5t186.5 40q178 0 300.5 -105.5t129.5 -268.5h-125q-7 117 -95 194.5t-210 77.5q-158 0 -258.5 -125.5t-100.5 -323.5q0 -203 98 -326.5t256 -123.5
q124 0 214 79.5t102 202.5h127zM524 -418q-34 0 -71 6v82q24 -6 51 -6q60 0 93.5 30t33.5 79q0 42 -29.5 70t-79.5 28q-21 0 -35 -2v151h101v-88q65 -6 104 -50.5t39 -108.5q0 -82 -56.5 -136.5t-150.5 -54.5z" />
    <glyph glyph-name="egrave" unicode="&#xe8;" horiz-adv-x="1120" 
d="M1018 313q-31 -158 -148.5 -247t-294.5 -89q-224 0 -349.5 147t-125.5 404q0 250 129.5 400.5t348.5 150.5q92 0 165.5 -27.5t124.5 -77t85.5 -121.5t50.5 -159.5t16 -191.5h-797q0 -195 98.5 -311.5t260.5 -116.5q126 0 210.5 66.5t102.5 172.5h123zM897 600
q-10 185 -95 283t-233 98q-150 0 -237.5 -95.5t-104.5 -285.5h670zM295 1487h154l180 -252h-107z" />
    <glyph glyph-name="eacute" unicode="&#xe9;" horiz-adv-x="1120" 
d="M1018 313q-31 -158 -148.5 -247t-294.5 -89q-224 0 -349.5 147t-125.5 404q0 250 129.5 400.5t348.5 150.5q92 0 165.5 -27.5t124.5 -77t85.5 -121.5t50.5 -159.5t16 -191.5h-797q0 -195 98.5 -311.5t260.5 -116.5q126 0 210.5 66.5t102.5 172.5h123zM897 600
q-10 185 -95 283t-233 98q-150 0 -237.5 -95.5t-104.5 -285.5h670zM684 1487h154l-230 -252h-104z" />
    <glyph glyph-name="ecircumflex" unicode="&#xea;" horiz-adv-x="1120" 
d="M1018 313q-31 -158 -148.5 -247t-294.5 -89q-224 0 -349.5 147t-125.5 404q0 250 129.5 400.5t348.5 150.5q92 0 165.5 -27.5t124.5 -77t85.5 -121.5t50.5 -159.5t16 -191.5h-797q0 -195 98.5 -311.5t260.5 -116.5q126 0 210.5 66.5t102.5 172.5h123zM897 600
q-10 185 -95 283t-233 98q-150 0 -237.5 -95.5t-104.5 -285.5h670zM838 1235h-115l-154 184l-151 -184h-115l195 252h143z" />
    <glyph glyph-name="edieresis" unicode="&#xeb;" horiz-adv-x="1120" 
d="M1018 313q-31 -158 -148.5 -247t-294.5 -89q-224 0 -349.5 147t-125.5 404q0 250 129.5 400.5t348.5 150.5q92 0 165.5 -27.5t124.5 -77t85.5 -121.5t50.5 -159.5t16 -191.5h-797q0 -195 98.5 -311.5t260.5 -116.5q126 0 210.5 66.5t102.5 172.5h123zM897 600
q-10 185 -95 283t-233 98q-150 0 -237.5 -95.5t-104.5 -285.5h670zM453 1487v-174h-140v174h140zM829 1487v-174h-139v174h139z" />
    <glyph glyph-name="igrave" unicode="&#xec;" horiz-adv-x="456" 
d="M287 1057v-1057h-117v1057h117zM219 1235l-194 252h135l157 -252h-98z" />
    <glyph glyph-name="iacute" unicode="&#xed;" horiz-adv-x="456" 
d="M287 1057v-1057h-117v1057h117zM297 1487h135l-194 -252h-99z" />
    <glyph glyph-name="icircumflex" unicode="&#xee;" horiz-adv-x="456" 
d="M287 1057v-1057h-117v1057h117zM147 1487h154l166 -252h-107l-133 192l-135 -192h-102z" />
    <glyph glyph-name="idieresis" unicode="&#xef;" horiz-adv-x="456" 
d="M287 1057v-1057h-117v1057h117zM152 1487v-174h-140v174h140zM444 1487v-174h-139v174h139z" />
    <glyph glyph-name="eth" unicode="&#xf0;" horiz-adv-x="1142" 
d="M459 1487q77 -59 123 -98l186 118l51 -73l-168 -109q188 -177 289.5 -377.5t101.5 -410.5q0 -157 -53 -282.5t-162.5 -202.5t-259.5 -77q-146 0 -254 72.5t-161.5 191.5t-53.5 267q0 147 57 268t163.5 192.5t242.5 71.5q73 0 138 -24.5t135 -87.5l6 2q-100 177 -275 344
l-203 -129l-51 71l185 119q-97 81 -197 154h160zM563 74q88 0 158 37.5t112.5 100t64.5 140t22 162.5t-22 160.5t-64 136t-110.5 96t-154.5 35.5q-89 0 -158 -37.5t-109.5 -101.5t-60.5 -139.5t-20 -159.5q0 -68 12.5 -130t39.5 -117t66.5 -95.5t97 -64t126.5 -23.5z" />
    <glyph glyph-name="ntilde" unicode="&#xf1;" horiz-adv-x="1153" 
d="M287 899q122 180 352 180q73 0 135 -22t113.5 -69.5t80.5 -131.5t29 -199v-657h-116v637q0 174 -62.5 260t-210.5 86q-47 0 -90 -11t-86 -40.5t-74.5 -74.5t-51 -118.5t-19.5 -167.5v-571h-117v1057h117v-158zM707 1282q-40 0 -89 24t-94.5 48t-74.5 24q-69 0 -93 -94
h-80q13 99 58.5 147t111.5 48q51 0 139.5 -48.5t119.5 -48.5q69 0 90 95h82q-13 -99 -58.5 -147t-111.5 -48z" />
    <glyph glyph-name="ograve" unicode="&#xf2;" horiz-adv-x="1163" 
d="M586 1079q214 0 346.5 -152.5t132.5 -398.5q0 -247 -133 -399t-348 -152t-350.5 152.5t-135.5 398.5t135 398.5t353 152.5zM582 981q-168 0 -264.5 -120t-96.5 -333q0 -216 94 -335t267 -119q171 0 265.5 119t94.5 335q0 213 -96.5 333t-263.5 120zM305 1487h154
l180 -252h-107z" />
    <glyph glyph-name="oacute" unicode="&#xf3;" horiz-adv-x="1163" 
d="M586 1079q214 0 346.5 -152.5t132.5 -398.5q0 -247 -133 -399t-348 -152t-350.5 152.5t-135.5 398.5t135 398.5t353 152.5zM582 981q-168 0 -264.5 -120t-96.5 -333q0 -216 94 -335t267 -119q171 0 265.5 119t94.5 335q0 213 -96.5 333t-263.5 120zM694 1487h154
l-230 -252h-104z" />
    <glyph glyph-name="ocircumflex" unicode="&#xf4;" horiz-adv-x="1163" 
d="M586 1079q214 0 346.5 -152.5t132.5 -398.5q0 -247 -133 -399t-348 -152t-350.5 152.5t-135.5 398.5t135 398.5t353 152.5zM582 981q-168 0 -264.5 -120t-96.5 -333q0 -216 94 -335t267 -119q171 0 265.5 119t94.5 335q0 213 -96.5 333t-263.5 120zM848 1235h-115
l-153 184l-152 -184h-115l195 252h143z" />
    <glyph glyph-name="otilde" unicode="&#xf5;" horiz-adv-x="1163" 
d="M586 1079q214 0 346.5 -152.5t132.5 -398.5q0 -247 -133 -399t-348 -152t-350.5 152.5t-135.5 398.5t135 398.5t353 152.5zM582 981q-168 0 -264.5 -120t-96.5 -333q0 -216 94 -335t267 -119q171 0 265.5 119t94.5 335q0 213 -96.5 333t-263.5 120zM713 1282
q-40 0 -89 24t-94.5 48t-74.5 24q-69 0 -93 -94h-79q13 99 58.5 147t111.5 48q51 0 139 -48.5t119 -48.5q69 0 90 95h82q-13 -99 -58.5 -147t-111.5 -48z" />
    <glyph glyph-name="odieresis" unicode="&#xf6;" horiz-adv-x="1163" 
d="M586 1079q214 0 346.5 -152.5t132.5 -398.5q0 -247 -133 -399t-348 -152t-350.5 152.5t-135.5 398.5t135 398.5t353 152.5zM582 981q-168 0 -264.5 -120t-96.5 -333q0 -216 94 -335t267 -119q171 0 265.5 119t94.5 335q0 213 -96.5 333t-263.5 120zM463 1487v-174h-139
v174h139zM840 1487v-174h-140v174h140z" />
    <glyph glyph-name="divide" unicode="&#xf7;" 
d="M731 969v-178h-174v178h174zM731 317v-178h-174v178h174zM215 631h860v-103h-860v103z" />
    <glyph glyph-name="oslash" unicode="&#xf8;" horiz-adv-x="1179" 
d="M946 920q127 -152 127 -392q0 -247 -133 -399t-348 -152q-161 0 -287 93l-123 -164l-76 61l130 170q-130 152 -130 391q0 246 135 398.5t353 152.5q162 0 280 -92l123 162l76 -62zM229 528q0 -192 72 -305l510 680q-90 78 -221 78q-168 0 -264.5 -120t-96.5 -333z
M950 528q0 189 -71 301l-514 -679q91 -76 225 -76q171 0 265.5 119t94.5 335z" />
    <glyph glyph-name="ugrave" unicode="&#xf9;" horiz-adv-x="1148" 
d="M862 156q-128 -179 -352 -179q-59 0 -109.5 12.5t-96.5 43.5t-78 78t-51 120.5t-19 167.5v658h116v-639q0 -344 269 -344q59 0 113 22t102 68t77 129t29 192v572h117v-1057h-117v156zM295 1487h154l180 -252h-107z" />
    <glyph glyph-name="uacute" unicode="&#xfa;" horiz-adv-x="1148" 
d="M862 156q-128 -179 -352 -179q-59 0 -109.5 12.5t-96.5 43.5t-78 78t-51 120.5t-19 167.5v658h116v-639q0 -344 269 -344q59 0 113 22t102 68t77 129t29 192v572h117v-1057h-117v156zM684 1487h154l-230 -252h-104z" />
    <glyph glyph-name="ucircumflex" unicode="&#xfb;" horiz-adv-x="1148" 
d="M862 156q-128 -179 -352 -179q-59 0 -109.5 12.5t-96.5 43.5t-78 78t-51 120.5t-19 167.5v658h116v-639q0 -344 269 -344q59 0 113 22t102 68t77 129t29 192v572h117v-1057h-117v156zM838 1235h-115l-154 184l-151 -184h-115l195 252h143z" />
    <glyph glyph-name="udieresis" unicode="&#xfc;" horiz-adv-x="1148" 
d="M862 156q-128 -179 -352 -179q-59 0 -109.5 12.5t-96.5 43.5t-78 78t-51 120.5t-19 167.5v658h116v-639q0 -344 269 -344q59 0 113 22t102 68t77 129t29 192v572h117v-1057h-117v156zM453 1487v-174h-140v174h140zM829 1487v-174h-139v174h139z" />
    <glyph glyph-name="yacute" unicode="&#xfd;" horiz-adv-x="1011" 
d="M78 -311q44 -6 82 -6q48 0 83.5 12t61.5 32.5t50 62.5t41.5 85t43.5 117l-403 1065h133l332 -920h12l332 920h129l-457 -1190q-58 -151 -139 -219t-209 -68q-48 0 -92 8v101zM618 1487h154l-229 -252h-105z" />
    <glyph glyph-name="thorn" unicode="&#xfe;" horiz-adv-x="1175" 
d="M1075 528q0 -127 -36.5 -233t-98 -174.5t-142 -106t-169.5 -37.5q-102 0 -191.5 47t-150.5 142v-578h-117v1899h117v-596q59 91 150.5 139.5t197.5 48.5q186 0 313 -151.5t127 -399.5zM952 528q0 204 -93 328.5t-243 124.5q-153 0 -243 -123.5t-90 -329.5
q0 -205 90 -329.5t243 -124.5q150 0 243 125.5t93 328.5z" />
    <glyph glyph-name="ydieresis" unicode="&#xff;" horiz-adv-x="1011" 
d="M78 -311q44 -6 82 -6q48 0 83.5 12t61.5 32.5t50 62.5t41.5 85t43.5 117l-403 1065h133l332 -920h12l332 920h129l-457 -1190q-58 -151 -139 -219t-209 -68q-48 0 -92 8v101zM387 1487v-174h-139v174h139zM764 1487v-174h-139v174h139z" />
    <glyph glyph-name="Amacron" unicode="&#x100;" horiz-adv-x="1368" 
d="M766 1487l584 -1487h-136l-188 494h-692l-182 -494h-136l586 1487h164zM684 1393h-8l-301 -793h610zM428 1790h510v-98h-510v98z" />
    <glyph glyph-name="amacron" unicode="&#x101;" horiz-adv-x="1091" 
d="M141 739q0 152 115 246t295 94q94 0 161 -19t120 -64.5t79.5 -129.5t26.5 -207v-419q0 -133 20 -240h-120q-11 76 -13 154q-70 -96 -154 -136.5t-200 -40.5q-169 0 -272 78.5t-103 216.5q0 216 223 299q68 26 163.5 42.5t163 22.5t175.5 13v43q0 150 -68.5 217.5
t-205.5 67.5q-130 0 -206.5 -62t-76.5 -176h-123zM821 549q-318 -20 -450 -68q-88 -34 -119 -85t-31 -122q0 -95 70.5 -147.5t191.5 -52.5q162 0 250 115.5t88 310.5v49zM289 1436h518v-99h-518v99z" />
    <glyph glyph-name="Abreve" unicode="&#x102;" horiz-adv-x="1368" 
d="M766 1487l584 -1487h-136l-188 494h-692l-182 -494h-136l586 1487h164zM684 1393h-8l-301 -793h610zM684 1622q-120 0 -191 65.5t-73 167.5h104q5 -67 45 -108t115 -41q74 0 113.5 41t44.5 108h106q-5 -103 -74.5 -168t-189.5 -65z" />
    <glyph glyph-name="abreve" unicode="&#x103;" horiz-adv-x="1091" 
d="M141 739q0 152 115 246t295 94q94 0 161 -19t120 -64.5t79.5 -129.5t26.5 -207v-419q0 -133 20 -240h-120q-11 76 -13 154q-70 -96 -154 -136.5t-200 -40.5q-169 0 -272 78.5t-103 216.5q0 216 223 299q68 26 163.5 42.5t163 22.5t175.5 13v43q0 150 -68.5 217.5
t-205.5 67.5q-130 0 -206.5 -62t-76.5 -176h-123zM821 549q-318 -20 -450 -68q-88 -34 -119 -85t-31 -122q0 -95 70.5 -147.5t191.5 -52.5q162 0 250 115.5t88 310.5v49zM551 1231q-115 0 -185.5 67t-70.5 189h102q0 -85 41.5 -129.5t112.5 -44.5t112.5 44.5t41.5 129.5h102
q0 -122 -70.5 -189t-185.5 -67z" />
    <glyph glyph-name="Aogonek" unicode="&#x104;" horiz-adv-x="1368" 
d="M766 1487l584 -1487h-136l-188 494h-692l-182 -494h-136l586 1487h164zM684 1393h-8l-301 -793h610zM1255 -418q-87 0 -140.5 49.5t-53.5 128.5q0 133 207 279l82 -39q-185 -114 -185 -225q0 -44 29.5 -70.5t77.5 -26.5q44 0 78 17v-96q-33 -17 -95 -17z" />
    <glyph glyph-name="aogonek" unicode="&#x105;" horiz-adv-x="1091" 
d="M141 739q0 152 115 246t295 94q94 0 161 -19t120 -64.5t79.5 -129.5t26.5 -207v-419q0 -133 20 -240h-120q-11 76 -13 154q-70 -96 -154 -136.5t-200 -40.5q-169 0 -272 78.5t-103 216.5q0 216 223 299q68 26 163.5 42.5t163 22.5t175.5 13v43q0 150 -68.5 217.5
t-205.5 67.5q-130 0 -206.5 -62t-76.5 -176h-123zM821 549q-318 -20 -450 -68q-88 -34 -119 -85t-31 -122q0 -95 70.5 -147.5t191.5 -52.5q162 0 250 115.5t88 310.5v49zM864 -418q-87 0 -140.5 49.5t-53.5 128.5q0 133 207 279l81 -39q-184 -114 -184 -225
q0 -44 29.5 -70.5t77.5 -26.5q43 0 77 17v-96q-33 -17 -94 -17z" />
    <glyph glyph-name="Cacute" unicode="&#x106;" horiz-adv-x="1406" 
d="M1327 502q-29 -247 -191 -386t-407 -139q-193 0 -333.5 97t-212.5 269t-72 400q0 221 74.5 394t218 272.5t335.5 99.5q247 0 400.5 -137t173.5 -383h-129q-8 185 -131.5 300.5t-313.5 115.5q-234 0 -366.5 -177t-132.5 -485q0 -194 57 -342.5t168.5 -233.5t263.5 -85
q190 0 312 106.5t157 313.5h129zM866 1855h160l-244 -225h-110z" />
    <glyph glyph-name="cacute" unicode="&#x107;" horiz-adv-x="1097" 
d="M1018 360q-20 -171 -143.5 -277t-299.5 -106q-214 0 -345.5 150.5t-131.5 400.5q0 122 38.5 226t103.5 174.5t153.5 110.5t186.5 40q178 0 300.5 -105.5t129.5 -268.5h-125q-7 117 -95 194.5t-210 77.5q-158 0 -258.5 -125.5t-100.5 -323.5q0 -203 98 -326.5t256 -123.5
q124 0 214 79.5t102 202.5h127zM686 1487h154l-230 -252h-104z" />
    <glyph glyph-name="Ccircumflex" unicode="&#x108;" horiz-adv-x="1406" 
d="M1327 502q-29 -247 -191 -386t-407 -139q-193 0 -333.5 97t-212.5 269t-72 400q0 221 74.5 394t218 272.5t335.5 99.5q247 0 400.5 -137t173.5 -383h-129q-8 185 -131.5 300.5t-313.5 115.5q-234 0 -366.5 -177t-132.5 -485q0 -194 57 -342.5t168.5 -233.5t263.5 -85
q190 0 312 106.5t157 313.5h129zM1010 1630h-127l-148 166l-149 -166h-121l197 225h151z" />
    <glyph glyph-name="ccircumflex" unicode="&#x109;" horiz-adv-x="1097" 
d="M1018 360q-20 -171 -143.5 -277t-299.5 -106q-214 0 -345.5 150.5t-131.5 400.5q0 122 38.5 226t103.5 174.5t153.5 110.5t186.5 40q178 0 300.5 -105.5t129.5 -268.5h-125q-7 117 -95 194.5t-210 77.5q-158 0 -258.5 -125.5t-100.5 -323.5q0 -203 98 -326.5t256 -123.5
q124 0 214 79.5t102 202.5h127zM840 1235h-115l-154 184l-151 -184h-115l195 252h143z" />
    <glyph glyph-name="Cdotaccent" unicode="&#x10a;" horiz-adv-x="1406" 
d="M1327 502q-29 -247 -191 -386t-407 -139q-193 0 -333.5 97t-212.5 269t-72 400q0 221 74.5 394t218 272.5t335.5 99.5q247 0 400.5 -137t173.5 -383h-129q-8 185 -131.5 300.5t-313.5 115.5q-234 0 -366.5 -177t-132.5 -485q0 -194 57 -342.5t168.5 -233.5t263.5 -85
q190 0 312 106.5t157 313.5h129zM809 1835v-172h-141v172h141z" />
    <glyph glyph-name="cdotaccent" unicode="&#x10b;" horiz-adv-x="1097" 
d="M1018 360q-20 -171 -143.5 -277t-299.5 -106q-214 0 -345.5 150.5t-131.5 400.5q0 122 38.5 226t103.5 174.5t153.5 110.5t186.5 40q178 0 300.5 -105.5t129.5 -268.5h-125q-7 117 -95 194.5t-210 77.5q-158 0 -258.5 -125.5t-100.5 -323.5q0 -203 98 -326.5t256 -123.5
q124 0 214 79.5t102 202.5h127zM643 1487v-172h-141v172h141z" />
    <glyph glyph-name="Ccaron" unicode="&#x10c;" horiz-adv-x="1406" 
d="M1327 502q-29 -247 -191 -386t-407 -139q-193 0 -333.5 97t-212.5 269t-72 400q0 221 74.5 394t218 272.5t335.5 99.5q247 0 400.5 -137t173.5 -383h-129q-8 185 -131.5 300.5t-313.5 115.5q-234 0 -366.5 -177t-132.5 -485q0 -194 57 -342.5t168.5 -233.5t263.5 -85
q190 0 312 106.5t157 313.5h129zM467 1855h127l147 -165l150 165h121l-197 -225h-151z" />
    <glyph glyph-name="ccaron" unicode="&#x10d;" horiz-adv-x="1097" 
d="M1018 360q-20 -171 -143.5 -277t-299.5 -106q-214 0 -345.5 150.5t-131.5 400.5q0 122 38.5 226t103.5 174.5t153.5 110.5t186.5 40q178 0 300.5 -105.5t129.5 -268.5h-125q-7 117 -95 194.5t-210 77.5q-158 0 -258.5 -125.5t-100.5 -323.5q0 -203 98 -326.5t256 -123.5
q124 0 214 79.5t102 202.5h127zM305 1487h115l153 -187l152 187h115l-195 -252h-143z" />
    <glyph glyph-name="Dcaron" unicode="&#x10e;" horiz-adv-x="1474" 
d="M1239 743q0 298 -164 488q-71 82 -182.5 114.5t-292.5 32.5h-278v-1269h278q183 0 292.5 32.5t182.5 114.5q79 89 121.5 214t42.5 273zM1366 743q0 -330 -176 -534q-89 -109 -225.5 -159t-364.5 -50h-401v1487h401q228 0 363.5 -50.5t226.5 -158.5q176 -204 176 -535z
M397 1855h127l148 -165l149 165h121l-197 -225h-151z" />
    <glyph glyph-name="dcaron" unicode="&#x10f;" horiz-adv-x="1208" 
d="M1159 1487h115v-29l-51 -278h-84zM100 528q0 128 36 233.5t97.5 174t142.5 106t171 37.5q227 0 342 -188v596h117v-1487h-117v166q-59 -91 -150.5 -140t-197.5 -49q-91 0 -171 39t-140 108.5t-95 174.5t-35 229zM223 528q0 -203 93 -328.5t243 -125.5q153 0 243.5 124.5
t90.5 329.5q0 206 -90.5 329.5t-243.5 123.5q-150 0 -243 -124.5t-93 -328.5z" />
    <glyph glyph-name="Dcroat" unicode="&#x110;" horiz-adv-x="1509" 
d="M233 821v666h402q228 0 363.5 -50.5t226.5 -158.5q176 -204 176 -535q0 -330 -176 -534q-89 -109 -225.5 -159t-364.5 -50h-402v715h-198v106h198zM1274 743q0 298 -164 488q-71 82 -182.5 114.5t-292.5 32.5h-279v-557h295v-106h-295v-606h279q183 0 292.5 32.5
t182.5 114.5q79 89 121.5 214t42.5 273z" />
    <glyph glyph-name="dslash" unicode="&#x111;" horiz-adv-x="1175" 
d="M889 1341v146h117v-146h165v-96h-165v-1245h-117v166q-59 -91 -150.5 -140t-197.5 -49q-91 0 -171 39t-140 108.5t-95 174.5t-35 229q0 128 36 233.5t97.5 174t142.5 106t171 37.5q227 0 342 -188v354h-242v96h242zM223 528q0 -203 93 -328.5t243 -125.5
q153 0 243.5 124.5t90.5 329.5q0 206 -90.5 329.5t-243.5 123.5q-150 0 -243 -124.5t-93 -328.5z" />
    <glyph glyph-name="Emacron" unicode="&#x112;" horiz-adv-x="1212" 
d="M1092 1487v-109h-770v-557h735v-106h-735v-606h798v-109h-921v1487h893zM391 1790h510v-98h-510v98z" />
    <glyph glyph-name="emacron" unicode="&#x113;" horiz-adv-x="1120" 
d="M1018 313q-31 -158 -148.5 -247t-294.5 -89q-224 0 -349.5 147t-125.5 404q0 250 129.5 400.5t348.5 150.5q92 0 165.5 -27.5t124.5 -77t85.5 -121.5t50.5 -159.5t16 -191.5h-797q0 -195 98.5 -311.5t260.5 -116.5q126 0 210.5 66.5t102.5 172.5h123zM897 600
q-10 185 -95 283t-233 98q-150 0 -237.5 -95.5t-104.5 -285.5h670zM311 1436h518v-99h-518v99z" />
    <glyph glyph-name="Ebreve" unicode="&#x114;" horiz-adv-x="1212" 
d="M1092 1487v-109h-770v-557h735v-106h-735v-606h798v-109h-921v1487h893zM647 1622q-120 0 -191 65.5t-73 167.5h104q5 -67 45 -108t115 -41q74 0 113.5 41t44.5 108h106q-5 -103 -74.5 -168t-189.5 -65z" />
    <glyph glyph-name="ebreve" unicode="&#x115;" horiz-adv-x="1120" 
d="M1018 313q-31 -158 -148.5 -247t-294.5 -89q-224 0 -349.5 147t-125.5 404q0 250 129.5 400.5t348.5 150.5q92 0 165.5 -27.5t124.5 -77t85.5 -121.5t50.5 -159.5t16 -191.5h-797q0 -195 98.5 -311.5t260.5 -116.5q126 0 210.5 66.5t102.5 172.5h123zM897 600
q-10 185 -95 283t-233 98q-150 0 -237.5 -95.5t-104.5 -285.5h670zM573 1231q-115 0 -185.5 67t-70.5 189h103q0 -86 41 -130t112 -44t112.5 44.5t41.5 129.5h102q0 -122 -70.5 -189t-185.5 -67z" />
    <glyph glyph-name="Edotaccent" unicode="&#x116;" horiz-adv-x="1212" 
d="M1092 1487v-109h-770v-557h735v-106h-735v-606h798v-109h-921v1487h893zM715 1835v-172h-142v172h142z" />
    <glyph glyph-name="edotaccent" unicode="&#x117;" horiz-adv-x="1120" 
d="M1018 313q-31 -158 -148.5 -247t-294.5 -89q-224 0 -349.5 147t-125.5 404q0 250 129.5 400.5t348.5 150.5q92 0 165.5 -27.5t124.5 -77t85.5 -121.5t50.5 -159.5t16 -191.5h-797q0 -195 98.5 -311.5t260.5 -116.5q126 0 210.5 66.5t102.5 172.5h123zM897 600
q-10 185 -95 283t-233 98q-150 0 -237.5 -95.5t-104.5 -285.5h670zM641 1487v-172h-141v172h141z" />
    <glyph glyph-name="Eogonek" unicode="&#x118;" horiz-adv-x="1212" 
d="M1092 1487v-109h-770v-557h735v-106h-735v-606h798v-109h-921v1487h893zM1026 -418q-87 0 -141 50t-54 128q0 133 207 279l82 -39q-184 -114 -184 -225q0 -44 29 -70.5t77 -26.5q44 0 78 17v-96q-33 -17 -94 -17z" />
    <glyph glyph-name="eogonek" unicode="&#x119;" horiz-adv-x="1120" 
d="M582 74q126 0 210.5 66.5t102.5 172.5h123q-36 -166 -154 -250q-123 -94 -179 -161.5t-56 -126.5q0 -44 29 -70.5t77 -26.5q44 0 78 17v-96q-33 -17 -94 -17q-87 0 -141 50t-54 126q0 107 138 226q-47 -7 -87 -7q-224 0 -349.5 147t-125.5 404q0 250 129.5 400.5
t348.5 150.5q92 0 165.5 -27.5t124.5 -77t85.5 -121.5t50.5 -159.5t16 -191.5h-797q0 -195 98.5 -311.5t260.5 -116.5zM569 981q-150 0 -237.5 -95.5t-104.5 -285.5h670q-10 185 -95 283t-233 98z" />
    <glyph glyph-name="Ecaron" unicode="&#x11a;" horiz-adv-x="1212" 
d="M1092 1487v-109h-770v-557h735v-106h-735v-606h798v-109h-921v1487h893zM373 1855h127l147 -165l150 165h121l-197 -225h-152z" />
    <glyph glyph-name="ecaron" unicode="&#x11b;" horiz-adv-x="1120" 
d="M1018 313q-31 -158 -148.5 -247t-294.5 -89q-224 0 -349.5 147t-125.5 404q0 250 129.5 400.5t348.5 150.5q92 0 165.5 -27.5t124.5 -77t85.5 -121.5t50.5 -159.5t16 -191.5h-797q0 -195 98.5 -311.5t260.5 -116.5q126 0 210.5 66.5t102.5 172.5h123zM897 600
q-10 185 -95 283t-233 98q-150 0 -237.5 -95.5t-104.5 -285.5h670zM303 1487h115l153 -187l152 187h115l-195 -252h-143z" />
    <glyph glyph-name="Gcircumflex" unicode="&#x11c;" horiz-adv-x="1454" 
d="M1202 229q-147 -252 -469 -252q-282 0 -452 203.5t-170 562.5q0 228 79.5 401.5t227.5 269t344 95.5q229 0 372 -113.5t181 -328.5h-127q-32 165 -141 252.5t-283 87.5q-254 0 -389 -174.5t-135 -489.5q0 -304 131.5 -485.5t357.5 -181.5q459 0 477 594h-434v106h551
v-776h-117q-2 41 -2 63q0 37 3 96.5t3 69.5h-8zM1040 1630h-127l-147 166l-150 -166h-120l196 225h152z" />
    <glyph glyph-name="gcircumflex" unicode="&#x11d;" horiz-adv-x="1173" 
d="M268 -80q10 -117 88 -179.5t213 -62.5q80 0 137.5 23.5t92 62t54.5 99.5t27 124t7 148v90q-55 -94 -145 -146t-205 -52q-194 0 -314.5 142t-120.5 378q0 232 128 382t329 150q110 0 189.5 -44t140.5 -140v162h117v-991q0 -243 -113.5 -364.5t-321.5 -121.5
q-195 0 -307 89.5t-123 250.5h127zM559 981q-153 0 -243.5 -118t-90.5 -316q0 -196 90 -309t244 -113q148 0 238 117.5t90 312.5q0 197 -89 311.5t-239 114.5zM827 1235h-114l-154 184l-151 -184h-115l194 252h144z" />
    <glyph glyph-name="Gbreve" unicode="&#x11e;" horiz-adv-x="1454" 
d="M1202 229q-147 -252 -469 -252q-282 0 -452 203.5t-170 562.5q0 228 79.5 401.5t227.5 269t344 95.5q229 0 372 -113.5t181 -328.5h-127q-32 165 -141 252.5t-283 87.5q-254 0 -389 -174.5t-135 -489.5q0 -304 131.5 -485.5t357.5 -181.5q459 0 477 594h-434v106h551
v-776h-117q-2 41 -2 63q0 37 3 96.5t3 69.5h-8zM772 1622q-120 0 -191 65.5t-73 167.5h104q5 -67 45 -108t115 -41q74 0 113.5 41t44.5 108h106q-5 -103 -74.5 -168t-189.5 -65z" />
    <glyph glyph-name="gbreve" unicode="&#x11f;" horiz-adv-x="1173" 
d="M268 -80q10 -117 88 -179.5t213 -62.5q80 0 137.5 23.5t92 62t54.5 99.5t27 124t7 148v90q-55 -94 -145 -146t-205 -52q-194 0 -314.5 142t-120.5 378q0 232 128 382t329 150q110 0 189.5 -44t140.5 -140v162h117v-991q0 -243 -113.5 -364.5t-321.5 -121.5
q-195 0 -307 89.5t-123 250.5h127zM559 981q-153 0 -243.5 -118t-90.5 -316q0 -196 90 -309t244 -113q148 0 238 117.5t90 312.5q0 197 -89 311.5t-239 114.5zM563 1231q-115 0 -185.5 67t-70.5 189h103q0 -86 41 -130t112 -44t112.5 44.5t41.5 129.5h102q0 -122 -70.5 -189
t-185.5 -67z" />
    <glyph glyph-name="Gdotaccent" unicode="&#x120;" horiz-adv-x="1454" 
d="M1202 229q-147 -252 -469 -252q-282 0 -452 203.5t-170 562.5q0 228 79.5 401.5t227.5 269t344 95.5q229 0 372 -113.5t181 -328.5h-127q-32 165 -141 252.5t-283 87.5q-254 0 -389 -174.5t-135 -489.5q0 -304 131.5 -485.5t357.5 -181.5q459 0 477 594h-434v106h551
v-776h-117q-2 41 -2 63q0 37 3 96.5t3 69.5h-8zM840 1835v-172h-142v172h142z" />
    <glyph glyph-name="gdotaccent" unicode="&#x121;" horiz-adv-x="1173" 
d="M268 -80q10 -117 88 -179.5t213 -62.5q80 0 137.5 23.5t92 62t54.5 99.5t27 124t7 148v90q-55 -94 -145 -146t-205 -52q-194 0 -314.5 142t-120.5 378q0 232 128 382t329 150q110 0 189.5 -44t140.5 -140v162h117v-991q0 -243 -113.5 -364.5t-321.5 -121.5
q-195 0 -307 89.5t-123 250.5h127zM559 981q-153 0 -243.5 -118t-90.5 -316q0 -196 90 -309t244 -113q148 0 238 117.5t90 312.5q0 197 -89 311.5t-239 114.5zM631 1487v-172h-142v172h142z" />
    <glyph glyph-name="uni0122" unicode="&#x122;" horiz-adv-x="1454" 
d="M1202 229q-147 -252 -469 -252q-282 0 -452 203.5t-170 562.5q0 228 79.5 401.5t227.5 269t344 95.5q229 0 372 -113.5t181 -328.5h-127q-32 165 -141 252.5t-283 87.5q-254 0 -389 -174.5t-135 -489.5q0 -304 131.5 -485.5t357.5 -181.5q459 0 477 594h-434v106h551
v-776h-117q-2 41 -2 63q0 37 3 96.5t3 69.5h-8zM756 -291h-64v148h146v-158l-82 -191h-68z" />
    <glyph glyph-name="uni0123" unicode="&#x123;" horiz-adv-x="1173" 
d="M268 -80q10 -117 88 -179.5t213 -62.5q80 0 137.5 23.5t92 62t54.5 99.5t27 124t7 148v90q-55 -94 -145 -146t-205 -52q-194 0 -314.5 142t-120.5 378q0 232 128 382t329 150q110 0 189.5 -44t140.5 -140v162h117v-991q0 -243 -113.5 -364.5t-321.5 -121.5
q-195 0 -307 89.5t-123 250.5h127zM559 981q-153 0 -243.5 -118t-90.5 -316q0 -196 90 -309t244 -113q148 0 238 117.5t90 312.5q0 197 -89 311.5t-239 114.5zM571 1382h62v-155h-148v157l82 191h68z" />
    <glyph glyph-name="Hcircumflex" unicode="&#x124;" horiz-adv-x="1484" 
d="M322 1487v-670h841v670h123v-1487h-123v711h-841v-711h-123v1487h123zM1012 1630h-127l-148 166l-149 -166h-121l197 225h151z" />
    <glyph glyph-name="hcircumflex" unicode="&#x125;" horiz-adv-x="1153" 
d="M287 899q122 180 356 180q73 0 133.5 -22t111.5 -69.5t80 -131.5t29 -199v-657h-118v637q0 344 -269 344q-46 0 -90 -13t-87 -43.5t-75 -76t-51.5 -117t-19.5 -160.5v-571h-117v1487h117v-588zM475 1630h-119l-133 166l-133 -166h-115l181 225h141z" />
    <glyph glyph-name="Hbar" unicode="&#x126;" horiz-adv-x="1497" 
d="M205 1247v240h123v-240h841v240h123v-240h138v-104h-138v-1143h-123v702h-841v-702h-123v1143h-137v104h137zM1169 1143h-841v-334h841v334z" />
    <glyph glyph-name="hbar" unicode="&#x127;" horiz-adv-x="1153" 
d="M528 1341v-96h-241v-346q122 180 356 180q73 0 133.5 -22t111.5 -69.5t80 -131.5t29 -199v-657h-118v637q0 344 -269 344q-46 0 -90 -13t-87 -43.5t-75 -76t-51.5 -117t-19.5 -160.5v-571h-117v1245h-166v96h166v146h117v-146h241z" />
    <glyph glyph-name="Itilde" unicode="&#x128;" horiz-adv-x="520" 
d="M322 1487v-1487h-123v1487h123zM393 1651q-39 0 -89.5 24t-97 48t-75.5 24q-69 0 -92 -94h-80q13 99 58.5 146.5t111.5 47.5q42 0 92.5 -24t96 -48t73.5 -24q69 0 90 94h82q-13 -99 -58.5 -146.5t-111.5 -47.5z" />
    <glyph glyph-name="itilde" unicode="&#x129;" horiz-adv-x="456" 
d="M287 1057v-1057h-117v1057h117zM342 1282q-40 0 -117.5 48t-107.5 48q-56 0 -76 -94h-76q10 96 49.5 145.5t100.5 49.5q43 0 120.5 -48.5t104.5 -48.5t45.5 20t28.5 75h78q-10 -96 -49.5 -145.5t-100.5 -49.5z" />
    <glyph glyph-name="Imacron" unicode="&#x12a;" horiz-adv-x="520" 
d="M322 1487v-1487h-123v1487h123zM6 1790h510v-98h-510v98z" />
    <glyph glyph-name="imacron" unicode="&#x12b;" horiz-adv-x="456" 
d="M287 1057v-1057h-117v1057h117zM4 1436h449v-99h-449v99z" />
    <glyph glyph-name="Ibreve" unicode="&#x12c;" horiz-adv-x="520" 
d="M322 1487v-1487h-123v1487h123zM262 1622q-120 0 -191 65.5t-73 167.5h104q5 -67 45 -108t115 -41q74 0 113.5 41t44.5 108h106q-5 -103 -74.5 -168t-189.5 -65z" />
    <glyph glyph-name="ibreve" unicode="&#x12d;" horiz-adv-x="456" 
d="M287 1057v-1057h-117v1057h117zM229 1231q-103 0 -167 68t-64 188h98q0 -86 35.5 -130t97.5 -44t97.5 44t35.5 130h99q0 -120 -64.5 -188t-167.5 -68z" />
    <glyph glyph-name="Iogonek" unicode="&#x12e;" horiz-adv-x="520" 
d="M322 1487v-1487q-164 -117 -164 -225q0 -44 28.5 -70.5t75.5 -26.5q44 0 78 17v-96q-33 -17 -94 -17q-87 0 -140 49.5t-53 128.5q0 61 34.5 118t111.5 122v1487h123z" />
    <glyph glyph-name="iogonek" unicode="&#x12f;" horiz-adv-x="456" 
d="M287 1057v-1057q-164 -117 -164 -225q0 -44 28.5 -70.5t75.5 -26.5q44 0 78 17v-96q-33 -17 -94 -17q-87 0 -140 49.5t-53 128.5q0 118 152 244v1053h117zM299 1487v-172h-141v172h141z" />
    <glyph glyph-name="Idot" unicode="&#x130;" horiz-adv-x="520" 
d="M322 1487v-1487h-123v1487h123zM330 1835v-172h-142v172h142z" />
    <glyph glyph-name="dotlessi" unicode="&#x131;" horiz-adv-x="456" 
d="M287 1057v-1057h-117v1057h117z" />
    <glyph glyph-name="IJ" unicode="&#x132;" horiz-adv-x="1198" 
d="M322 1487v-1487h-123v1487h123zM555 109q74 -9 111 -9q128 0 175.5 81t47.5 292v1014h123v-1059q0 -229 -82.5 -334.5t-265.5 -105.5q-38 0 -109 12v109z" />
    <glyph glyph-name="ij" unicode="&#x133;" horiz-adv-x="905" 
d="M287 1057v-1057h-117v1057h117zM299 1487v-172h-141v172h141zM748 1487v-172h-142v172h142zM389 -309q31 -8 70 -8q29 0 52.5 5t40 18t28 25t19 35.5t11.5 39.5t5.5 48.5t2 50t0.5 54.5v1098h117v-1071q0 -79 -2 -120t-15.5 -105.5t-39.5 -97t-78.5 -58t-128.5 -25.5
q-46 0 -82 8v103z" />
    <glyph glyph-name="Jcircumflex" unicode="&#x134;" horiz-adv-x="673" 
d="M31 109q74 -9 110 -9q128 0 176 81t48 292v1014h122v-1059q0 -229 -82.5 -334.5t-265.5 -105.5q-37 0 -108 12v109zM690 1630h-127l-147 166l-150 -166h-121l197 225h152z" />
    <glyph glyph-name="jcircumflex" unicode="&#x135;" horiz-adv-x="456" 
d="M147 1487h154l166 -252h-107l-133 192l-135 -192h-102zM-59 -309q31 -8 69 -8q26 0 47.5 5t37 12.5t28 22t20.5 26.5t13 35t8 38t4.5 43.5t1.5 45v48.5v1098h117v-1071q0 -79 -2 -120t-15.5 -105.5t-39.5 -97t-78.5 -58t-128.5 -25.5q-46 0 -82 8v103z" />
    <glyph glyph-name="uni0136" unicode="&#x136;" horiz-adv-x="1206" 
d="M322 1487v-682l671 682h158l-688 -699l751 -788h-167l-725 760v-760h-123v1487h123zM645 -291h-63v148h145v-158l-82 -191h-67z" />
    <glyph glyph-name="uni0137" unicode="&#x137;" horiz-adv-x="976" 
d="M287 1487v-875l477 445h156l-510 -469l573 -588h-164l-532 555v-555h-117v1487h117zM502 -299h-64v156h148v-158l-82 -191h-68z" />
    <glyph glyph-name="kgreenlandic" unicode="&#x138;" horiz-adv-x="976" 
d="M287 1057v-445l477 445h156l-510 -469l573 -588h-164l-532 555v-555h-117v1057h117z" />
    <glyph glyph-name="Lacute" unicode="&#x139;" horiz-adv-x="1130" 
d="M322 1487v-1378h782v-109h-905v1487h123zM385 1855h160l-244 -225h-111z" />
    <glyph glyph-name="lacute" unicode="&#x13a;" horiz-adv-x="456" 
d="M287 1487v-1487h-117v1487h117zM348 1855h160l-244 -225h-110z" />
    <glyph glyph-name="uni013B" unicode="&#x13b;" horiz-adv-x="1130" 
d="M322 1487v-1378h782v-109h-905v1487h123zM657 -291h-63v148h145v-158l-82 -191h-67z" />
    <glyph glyph-name="uni013C" unicode="&#x13c;" horiz-adv-x="456" 
d="M287 1487v-1487h-117v1487h117zM217 -299h-63v156h147v-158l-82 -191h-67z" />
    <glyph glyph-name="Lcaron" unicode="&#x13d;" horiz-adv-x="1130" 
d="M684 1487h115v-29l-51 -278h-84zM322 1487v-1378h782v-109h-905v1487h123z" />
    <glyph glyph-name="lcaron" unicode="&#x13e;" horiz-adv-x="489" 
d="M442 1487h115v-29l-51 -278h-84zM287 1487v-1487h-117v1487h117z" />
    <glyph glyph-name="Ldot" unicode="&#x13f;" horiz-adv-x="1132" 
d="M883 889v-172h-144v172h144zM322 1487v-1378h782v-109h-905v1487h123z" />
    <glyph glyph-name="ldot" unicode="&#x140;" horiz-adv-x="550" 
d="M575 887v-172h-143v172h143zM287 1487v-1487h-117v1487h117z" />
    <glyph glyph-name="Lslash" unicode="&#x141;" horiz-adv-x="1202" 
d="M78 578l192 127v782h123v-711l416 283v-125l-416 -275v-550h783v-109h-906v588l-192 -129v119z" />
    <glyph glyph-name="lslash" unicode="&#x142;" horiz-adv-x="585" 
d="M70 676l172 145v666h116v-576l174 150v-117l-174 -147v-797h-116v707l-172 -146v115z" />
    <glyph glyph-name="Nacute" unicode="&#x143;" horiz-adv-x="1488" 
d="M391 1487l772 -1364h13l-5 622v742h119v-1487h-192l-774 1366h-13l4 -621v-745h-116v1487h192zM870 1855h160l-244 -225h-110z" />
    <glyph glyph-name="nacute" unicode="&#x144;" horiz-adv-x="1153" 
d="M287 899q122 180 352 180q73 0 135 -22t113.5 -69.5t80.5 -131.5t29 -199v-657h-116v637q0 174 -62.5 260t-210.5 86q-47 0 -90 -11t-86 -40.5t-74.5 -74.5t-51 -118.5t-19.5 -167.5v-571h-117v1057h117v-158zM688 1487h154l-230 -252h-104z" />
    <glyph glyph-name="uni0145" unicode="&#x145;" horiz-adv-x="1488" 
d="M391 1487l772 -1364h13l-5 622v742h119v-1487h-192l-774 1366h-13l4 -621v-745h-116v1487h192zM735 -291h-63v148h145v-158l-82 -191h-67z" />
    <glyph glyph-name="uni0146" unicode="&#x146;" horiz-adv-x="1153" 
d="M287 899q122 180 352 180q73 0 135 -22t113.5 -69.5t80.5 -131.5t29 -199v-657h-116v637q0 174 -62.5 260t-210.5 86q-47 0 -90 -11t-86 -40.5t-74.5 -74.5t-51 -118.5t-19.5 -167.5v-571h-117v1057h117v-158zM569 -299h-63v156h147v-158l-82 -191h-67z" />
    <glyph glyph-name="Ncaron" unicode="&#x147;" horiz-adv-x="1488" 
d="M391 1487l772 -1364h13l-5 622v742h119v-1487h-192l-774 1366h-13l4 -621v-745h-116v1487h192zM471 1855h127l147 -165l150 165h121l-197 -225h-151z" />
    <glyph glyph-name="ncaron" unicode="&#x148;" horiz-adv-x="1153" 
d="M287 899q122 180 352 180q73 0 135 -22t113.5 -69.5t80.5 -131.5t29 -199v-657h-116v637q0 174 -62.5 260t-210.5 86q-47 0 -90 -11t-86 -40.5t-74.5 -74.5t-51 -118.5t-19.5 -167.5v-571h-117v1057h117v-158zM307 1487h115l153 -187l152 187h115l-195 -252h-143z" />
    <glyph glyph-name="napostrophe" unicode="&#x149;" horiz-adv-x="1316" 
d="M451 899q122 180 352 180q73 0 135 -22t113.5 -69.5t80.5 -131.5t29 -199v-657h-117v637q0 174 -62 260t-210 86q-47 0 -90 -11t-86 -40.5t-74.5 -74.5t-51 -118.5t-19.5 -167.5v-571h-117v1057h117v-158zM139 1337h-69v150h159v-164l-88 -219h-80z" />
    <glyph glyph-name="Eng" unicode="&#x14a;" horiz-adv-x="1490" 
d="M965 -420q-64 0 -123 10v111q51 -10 114 -10q110 0 162.5 67.5t52.5 233.5l-624 989l-230 362h-8q0 -83 3 -258t3 -235v-850h-116v1487h174l567 -912l229 -366h11q-6 154 -6 489v789h118v-1464q0 -103 -14.5 -179t-50 -138t-101.5 -94t-161 -32z" />
    <glyph glyph-name="eng" unicode="&#x14b;" horiz-adv-x="1148" 
d="M647 -309q31 -8 70 -8q26 0 47 5t36.5 12t27.5 22.5t19.5 27t13 34.5t8 37.5t4 44t1.5 45v48.5v694q0 328 -256 328q-47 0 -91 -10.5t-88.5 -38.5t-77.5 -70.5t-53.5 -112t-20.5 -157.5v-592h-117v1057h117v-154q119 176 362 176q55 0 103.5 -12t93.5 -41t77 -74
t51 -115.5t19 -160.5v-690q0 -79 -2 -120t-15.5 -105.5t-39.5 -97t-78.5 -58t-128.5 -25.5q-46 0 -82 8v103z" />
    <glyph glyph-name="Omacron" unicode="&#x14c;" horiz-adv-x="1527" 
d="M764 1509q145 0 267.5 -56.5t207.5 -157t132.5 -243t47.5 -309.5t-47.5 -309.5t-132.5 -243t-207.5 -157t-267.5 -56.5t-267.5 56.5t-207.5 157t-132.5 243t-47.5 309.5t47.5 309.5t132.5 243t207.5 157t267.5 56.5zM764 1405q-235 0 -380.5 -181.5t-145.5 -480.5
t145.5 -480t380.5 -181q234 0 380 181.5t146 479.5q0 299 -145.5 480.5t-380.5 181.5zM510 1790h510v-98h-510v98z" />
    <glyph glyph-name="omacron" unicode="&#x14d;" horiz-adv-x="1163" 
d="M586 1079q214 0 346.5 -152.5t132.5 -398.5q0 -247 -133 -399t-348 -152t-350.5 152.5t-135.5 398.5t135 398.5t353 152.5zM582 981q-168 0 -264.5 -120t-96.5 -333q0 -216 94 -335t267 -119q171 0 265.5 119t94.5 335q0 213 -96.5 333t-263.5 120zM322 1436h518v-99
h-518v99z" />
    <glyph glyph-name="Obreve" unicode="&#x14e;" horiz-adv-x="1527" 
d="M764 1509q145 0 267.5 -56.5t207.5 -157t132.5 -243t47.5 -309.5t-47.5 -309.5t-132.5 -243t-207.5 -157t-267.5 -56.5t-267.5 56.5t-207.5 157t-132.5 243t-47.5 309.5t47.5 309.5t132.5 243t207.5 157t267.5 56.5zM764 1405q-235 0 -380.5 -181.5t-145.5 -480.5
t145.5 -480t380.5 -181q234 0 380 181.5t146 479.5q0 299 -145.5 480.5t-380.5 181.5zM766 1622q-120 0 -191 65.5t-73 167.5h104q5 -67 45 -108t115 -41q74 0 113.5 41t44.5 108h106q-5 -103 -74.5 -168t-189.5 -65z" />
    <glyph glyph-name="obreve" unicode="&#x14f;" horiz-adv-x="1163" 
d="M586 1079q214 0 346.5 -152.5t132.5 -398.5q0 -247 -133 -399t-348 -152t-350.5 152.5t-135.5 398.5t135 398.5t353 152.5zM582 981q-168 0 -264.5 -120t-96.5 -333q0 -216 94 -335t267 -119q171 0 265.5 119t94.5 335q0 213 -96.5 333t-263.5 120zM584 1231
q-115 0 -185.5 67t-70.5 189h102q0 -85 41.5 -129.5t112.5 -44.5t112 44t41 130h103q0 -122 -70.5 -189t-185.5 -67z" />
    <glyph glyph-name="Ohungarumlaut" unicode="&#x150;" horiz-adv-x="1527" 
d="M764 1509q145 0 267.5 -56.5t207.5 -157t132.5 -243t47.5 -309.5t-47.5 -309.5t-132.5 -243t-207.5 -157t-267.5 -56.5t-267.5 56.5t-207.5 157t-132.5 243t-47.5 309.5t47.5 309.5t132.5 243t207.5 157t267.5 56.5zM764 1405q-235 0 -380.5 -181.5t-145.5 -480.5
t145.5 -480t380.5 -181q234 0 380 181.5t146 479.5q0 299 -145.5 480.5t-380.5 181.5zM700 1855h148l-225 -225h-105zM1077 1855h150l-236 -225h-108z" />
    <glyph glyph-name="ohungarumlaut" unicode="&#x151;" horiz-adv-x="1163" 
d="M586 1079q214 0 346.5 -152.5t132.5 -398.5q0 -247 -133 -399t-348 -152t-350.5 152.5t-135.5 398.5t135 398.5t353 152.5zM582 981q-168 0 -264.5 -120t-96.5 -333q0 -216 94 -335t267 -119q171 0 265.5 119t94.5 335q0 213 -96.5 333t-263.5 120zM881 1487h141
l-221 -252h-101zM530 1487h144l-217 -252h-99z" />
    <glyph glyph-name="OE" unicode="&#x152;" horiz-adv-x="1988" 
d="M817 0q-330 0 -519 192t-189 553q0 226 90.5 395t251.5 258t370 89h1049v-109h-701v-557h662v-106h-662v-606h725v-109h-1077zM1047 109v1269h-213q-277 0 -436.5 -163t-159.5 -470q0 -315 152 -475.5t439 -160.5h218z" />
    <glyph glyph-name="oe" unicode="&#x153;" horiz-adv-x="1914" 
d="M575 -23q-212 0 -343.5 150t-131.5 399q0 247 131.5 400t341.5 153q143 0 252 -71.5t164 -204.5q60 138 162 207t233 69q214 0 321 -144t112 -403v-28h-764q0 -192 85.5 -311t245.5 -119q248 0 302 239h118q-35 -169 -148.5 -252.5t-271.5 -83.5q-140 0 -246 71t-149 212
q-51 -131 -161.5 -207t-252.5 -76zM582 78q162 0 256 119.5t94 328.5q0 215 -94.5 336t-257.5 121q-164 0 -260.5 -125.5t-96.5 -331.5q0 -209 96.5 -328.5t262.5 -119.5zM1692 602q-8 182 -86.5 281.5t-223.5 99.5q-138 0 -226.5 -102t-100.5 -279h637z" />
    <glyph glyph-name="Racute" unicode="&#x154;" horiz-adv-x="1284" 
d="M629 1487q156 0 241 -23.5t146 -81.5q117 -106 117 -301q0 -119 -85.5 -225.5t-216.5 -134.5v-6q29 -7 54 -17.5t45 -26t35.5 -28.5t29 -35t22 -35t18.5 -39t14 -37t13 -38.5t11 -34.5l137 -424h-139l-143 453q-38 116 -117 165.5t-242 49.5h-247v-668h-123v1487h430z
M631 772q166 0 270.5 83.5t104.5 221.5q0 154 -89.5 228.5t-285.5 74.5h-309v-608h309zM750 1855h159l-243 -225h-111z" />
    <glyph glyph-name="racute" unicode="&#x155;" horiz-adv-x="710" 
d="M287 1057v-162q108 168 305 168q47 0 88 -8v-109q-58 10 -88 10q-150 0 -227.5 -112.5t-77.5 -300.5v-543h-117v1057h117zM532 1487h154l-229 -252h-105z" />
    <glyph glyph-name="uni0156" unicode="&#x156;" horiz-adv-x="1284" 
d="M629 1487q156 0 241 -23.5t146 -81.5q117 -106 117 -301q0 -119 -85.5 -225.5t-216.5 -134.5v-6q29 -7 54 -17.5t45 -26t35.5 -28.5t29 -35t22 -35t18.5 -39t14 -37t13 -38.5t11 -34.5l137 -424h-139l-143 453q-38 116 -117 165.5t-242 49.5h-247v-668h-123v1487h430z
M631 772q166 0 270.5 83.5t104.5 221.5q0 154 -89.5 228.5t-285.5 74.5h-309v-608h309zM662 -291h-64v148h145v-158l-81 -191h-68z" />
    <glyph glyph-name="uni0157" unicode="&#x157;" horiz-adv-x="710" 
d="M287 1057v-162q108 168 305 168q47 0 88 -8v-109q-58 10 -88 10q-150 0 -227.5 -112.5t-77.5 -300.5v-543h-117v1057h117zM217 -299h-63v156h147v-158l-82 -191h-67z" />
    <glyph glyph-name="Rcaron" unicode="&#x158;" horiz-adv-x="1284" 
d="M629 1487q156 0 241 -23.5t146 -81.5q117 -106 117 -301q0 -119 -85.5 -225.5t-216.5 -134.5v-6q29 -7 54 -17.5t45 -26t35.5 -28.5t29 -35t22 -35t18.5 -39t14 -37t13 -38.5t11 -34.5l137 -424h-139l-143 453q-38 116 -117 165.5t-242 49.5h-247v-668h-123v1487h430z
M631 772q166 0 270.5 83.5t104.5 221.5q0 154 -89.5 228.5t-285.5 74.5h-309v-608h309zM350 1855h127l148 -165l149 165h121l-197 -225h-151z" />
    <glyph glyph-name="rcaron" unicode="&#x159;" horiz-adv-x="710" 
d="M287 1057v-162q108 168 305 168q47 0 88 -8v-109q-58 10 -88 10q-150 0 -227.5 -112.5t-77.5 -300.5v-543h-117v1057h117zM152 1487h114l154 -187l151 187h115l-194 -252h-144z" />
    <glyph glyph-name="Sacute" unicode="&#x15a;" horiz-adv-x="1222" 
d="M231 494q8 -212 103 -313t291 -101q168 0 269 80t101 215q0 37 -7.5 69.5t-19.5 58t-32.5 48.5t-41 39.5t-51.5 32.5t-56 26.5t-63 22.5t-65 19.5t-69 18.5q-3 1 -4 1q-177 48 -249 82q-160 77 -199 224q-13 51 -13 113q0 168 129 273.5t348 105.5q244 0 364 -117.5
t128 -363.5h-129q-3 379 -363 379q-158 0 -253 -76t-95 -201q0 -52 14.5 -94t42.5 -72t63 -53t82 -40.5t92.5 -31.5t99.5 -28q6 -1 9 -2q90 -23 138.5 -38t121.5 -49.5t110.5 -74t67 -106t29.5 -152.5q0 -180 -137.5 -296t-361.5 -116q-252 0 -386 129.5t-141 387.5h133z
M727 1855h160l-244 -225h-111z" />
    <glyph glyph-name="sacute" unicode="&#x15b;" horiz-adv-x="1017" 
d="M786 733q0 127 -70.5 187.5t-199.5 60.5q-135 0 -206.5 -46t-71.5 -132q0 -31 9.5 -56.5t22.5 -43.5t39 -34t47 -25.5t58 -20t61.5 -15.5t67.5 -14q7 -1 10 -2q52 -11 78.5 -17.5t73 -21t71.5 -28t57.5 -37.5t49.5 -52t29 -68t12 -89q0 -141 -109 -221.5t-301 -80.5
q-200 0 -312 94.5t-116 272.5h119q4 -130 88 -200t221 -70q131 0 208 49t77 141q0 26 -6 48.5t-14 40t-24.5 33t-30 26t-39 21.5t-41.5 17t-48 14t-49 12t-53 11q-40 7 -61.5 11.5t-59 13.5t-59 17t-52.5 21.5t-49.5 28.5t-39.5 37t-32 47t-18.5 58t-7.5 72q0 130 108 208
t291 78q185 0 287 -84t102 -262h-117zM618 1487h154l-229 -252h-105z" />
    <glyph glyph-name="Scircumflex" unicode="&#x15c;" horiz-adv-x="1222" 
d="M231 494q8 -212 103 -313t291 -101q168 0 269 80t101 215q0 37 -7.5 69.5t-19.5 58t-32.5 48.5t-41 39.5t-51.5 32.5t-56 26.5t-63 22.5t-65 19.5t-69 18.5q-3 1 -4 1q-177 48 -249 82q-160 77 -199 224q-13 51 -13 113q0 168 129 273.5t348 105.5q244 0 364 -117.5
t128 -363.5h-129q-3 379 -363 379q-158 0 -253 -76t-95 -201q0 -52 14.5 -94t42.5 -72t63 -53t82 -40.5t92.5 -31.5t99.5 -28q6 -1 9 -2q90 -23 138.5 -38t121.5 -49.5t110.5 -74t67 -106t29.5 -152.5q0 -180 -137.5 -296t-361.5 -116q-252 0 -386 129.5t-141 387.5h133z
M870 1630h-127l-147 166l-150 -166h-120l196 225h152z" />
    <glyph glyph-name="scircumflex" unicode="&#x15d;" horiz-adv-x="1017" 
d="M786 733q0 127 -70.5 187.5t-199.5 60.5q-135 0 -206.5 -46t-71.5 -132q0 -31 9.5 -56.5t22.5 -43.5t39 -34t47 -25.5t58 -20t61.5 -15.5t67.5 -14q7 -1 10 -2q52 -11 78.5 -17.5t73 -21t71.5 -28t57.5 -37.5t49.5 -52t29 -68t12 -89q0 -141 -109 -221.5t-301 -80.5
q-200 0 -312 94.5t-116 272.5h119q4 -130 88 -200t221 -70q131 0 208 49t77 141q0 26 -6 48.5t-14 40t-24.5 33t-30 26t-39 21.5t-41.5 17t-48 14t-49 12t-53 11q-40 7 -61.5 11.5t-59 13.5t-59 17t-52.5 21.5t-49.5 28.5t-39.5 37t-32 47t-18.5 58t-7.5 72q0 130 108 208
t291 78q185 0 287 -84t102 -262h-117zM772 1235h-115l-153 184l-152 -184h-114l194 252h143z" />
    <glyph glyph-name="Scedilla" unicode="&#x15e;" horiz-adv-x="1222" 
d="M231 494q8 -212 103 -313t291 -101q168 0 269 80t101 215q0 37 -7.5 69.5t-19.5 58t-32.5 48.5t-41 39.5t-51.5 32.5t-56 26.5t-63 22.5t-65 19.5t-69 18.5q-3 1 -4 1q-177 48 -249 82q-160 77 -199 224q-13 51 -13 113q0 168 129 273.5t348 105.5q244 0 364 -117.5
t128 -363.5h-129q-3 379 -363 379q-158 0 -253 -76t-95 -201q0 -52 14.5 -94t42.5 -72t63 -53t82 -40.5t92.5 -31.5t99.5 -28q6 -1 9 -2q90 -23 138.5 -38t121.5 -49.5t110.5 -74t67 -106t29.5 -152.5q0 -180 -137.5 -296t-361.5 -116q-252 0 -386 129.5t-141 387.5h133z
M584 -418q-49 0 -72 6v82q24 -6 51 -6q60 0 93.5 30t33.5 79q0 42 -29 70t-79 28q-21 0 -35 -2v151h100v-88q65 -6 104.5 -50.5t39.5 -108.5q0 -82 -56.5 -136.5t-150.5 -54.5z" />
    <glyph glyph-name="scedilla" unicode="&#x15f;" horiz-adv-x="1017" 
d="M786 733q0 127 -70.5 187.5t-199.5 60.5q-135 0 -206.5 -46t-71.5 -132q0 -31 9.5 -56.5t22.5 -43.5t39 -34t47 -25.5t58 -20t61.5 -15.5t67.5 -14q7 -1 10 -2q52 -11 78.5 -17.5t73 -21t71.5 -28t57.5 -37.5t49.5 -52t29 -68t12 -89q0 -141 -109 -221.5t-301 -80.5
q-200 0 -312 94.5t-116 272.5h119q4 -130 88 -200t221 -70q131 0 208 49t77 141q0 26 -6 48.5t-14 40t-24.5 33t-30 26t-39 21.5t-41.5 17t-48 14t-49 12t-53 11q-40 7 -61.5 11.5t-59 13.5t-59 17t-52.5 21.5t-49.5 28.5t-39.5 37t-32 47t-18.5 58t-7.5 72q0 130 108 208
t291 78q185 0 287 -84t102 -262h-117zM477 -418q-33 0 -71 6v82q24 -6 51 -6q60 0 93.5 30t33.5 79q0 42 -29.5 70t-79.5 28q-21 0 -35 -2v151h101v-88q65 -6 104 -50.5t39 -108.5q0 -82 -56.5 -136.5t-150.5 -54.5z" />
    <glyph glyph-name="Scaron" unicode="&#x160;" horiz-adv-x="1222" 
d="M231 494q8 -212 103 -313t291 -101q168 0 269 80t101 215q0 37 -7.5 69.5t-19.5 58t-32.5 48.5t-41 39.5t-51.5 32.5t-56 26.5t-63 22.5t-65 19.5t-69 18.5q-3 1 -4 1q-177 48 -249 82q-160 77 -199 224q-13 51 -13 113q0 168 129 273.5t348 105.5q244 0 364 -117.5
t128 -363.5h-129q-3 379 -363 379q-158 0 -253 -76t-95 -201q0 -52 14.5 -94t42.5 -72t63 -53t82 -40.5t92.5 -31.5t99.5 -28q6 -1 9 -2q90 -23 138.5 -38t121.5 -49.5t110.5 -74t67 -106t29.5 -152.5q0 -180 -137.5 -296t-361.5 -116q-252 0 -386 129.5t-141 387.5h133z
M328 1855h127l147 -165l150 165h120l-196 -225h-152z" />
    <glyph glyph-name="scaron" unicode="&#x161;" horiz-adv-x="1017" 
d="M786 733q0 127 -70.5 187.5t-199.5 60.5q-135 0 -206.5 -46t-71.5 -132q0 -31 9.5 -56.5t22.5 -43.5t39 -34t47 -25.5t58 -20t61.5 -15.5t67.5 -14q7 -1 10 -2q52 -11 78.5 -17.5t73 -21t71.5 -28t57.5 -37.5t49.5 -52t29 -68t12 -89q0 -141 -109 -221.5t-301 -80.5
q-200 0 -312 94.5t-116 272.5h119q4 -130 88 -200t221 -70q131 0 208 49t77 141q0 26 -6 48.5t-14 40t-24.5 33t-30 26t-39 21.5t-41.5 17t-48 14t-49 12t-53 11q-40 7 -61.5 11.5t-59 13.5t-59 17t-52.5 21.5t-49.5 28.5t-39.5 37t-32 47t-18.5 58t-7.5 72q0 130 108 208
t291 78q185 0 287 -84t102 -262h-117zM238 1487h114l154 -187l151 187h115l-194 -252h-144z" />
    <glyph glyph-name="uni0162" unicode="&#x162;" horiz-adv-x="1161" 
d="M641 -70q55 -12 88 -54.5t33 -102.5q0 -82 -56.5 -136.5t-150.5 -54.5q-47 0 -72 6v82q24 -6 52 -6q60 0 93.5 30t33.5 79q0 44 -29.5 72t-79.5 28q-21 0 -35 -2v1507h-493v109h1112v-109h-496v-1448z" />
    <glyph glyph-name="uni0163" unicode="&#x163;" horiz-adv-x="606" 
d="M563 1057v-99h-221v-639q0 -53 2 -83.5t10 -62t24 -47t43 -25t68 -9.5q31 0 74 6v-98q-58 -10 -102 -10q-81 0 -137.5 30t-83.5 109q-15 46 -15 201v628h-190v99h190v231h117v-231h221zM369 -418q-35 0 -72 6v82q24 -6 51 -6q60 0 93.5 30t33.5 79q0 42 -29 70t-79 28
q-21 0 -35 -2v151h100v-88q65 -6 104 -50.5t39 -108.5q0 -82 -56 -136.5t-150 -54.5z" />
    <glyph glyph-name="Tcaron" unicode="&#x164;" horiz-adv-x="1161" 
d="M25 1378v109h1112v-109h-496v-1378h-123v1378h-493zM307 1855h127l148 -165l149 165h121l-197 -225h-151z" />
    <glyph glyph-name="tcaron" unicode="&#x165;" horiz-adv-x="606" 
d="M498 1487h114v-29l-51 -278h-84zM563 1057v-99h-221v-639q0 -53 2 -83.5t10 -62t24 -47t43 -25t68 -9.5q31 0 74 6v-98q-58 -10 -102 -10q-81 0 -137.5 30t-83.5 109q-15 46 -15 201v628h-190v99h190v231h117v-231h221z" />
    <glyph glyph-name="Tbar" unicode="&#x166;" horiz-adv-x="1185" 
d="M530 821v557h-493v109h1112v-109h-496v-557h299v-106h-299v-715h-123v715h-297v106h297z" />
    <glyph glyph-name="tbar" unicode="&#x167;" horiz-adv-x="638" 
d="M584 1057v-99h-222v-325h222v-98h-222v-216q0 -52 2.5 -83.5t10.5 -62.5t24 -46.5t43 -25t68 -9.5q30 0 74 6v-98q-58 -10 -103 -10q-81 0 -137.5 30t-83.5 109q-14 43 -14 201v205h-191v98h191v325h-191v99h191v231h116v-231h222z" />
    <glyph glyph-name="Utilde" unicode="&#x168;" horiz-adv-x="1413" 
d="M305 600q0 -160 23 -251t88 -154q115 -115 291 -115q178 0 288 110q65 65 88 154.5t23 249.5v893h125v-930q0 -580 -524 -580q-525 0 -525 580v930h123v-887zM840 1651q-48 0 -138 48t-124 48q-70 0 -93 -94h-79q13 99 58 146.5t111 47.5q53 0 142 -48t121 -48
q69 0 90 94h82q-13 -99 -58.5 -146.5t-111.5 -47.5z" />
    <glyph glyph-name="utilde" unicode="&#x169;" horiz-adv-x="1148" 
d="M862 156q-128 -179 -352 -179q-59 0 -109.5 12.5t-96.5 43.5t-78 78t-51 120.5t-19 167.5v658h116v-639q0 -344 269 -344q59 0 113 22t102 68t77 129t29 192v572h117v-1057h-117v156zM702 1282q-40 0 -89 24t-94.5 48t-74.5 24q-68 0 -92 -94h-80q13 99 58.5 147
t111.5 48q41 0 91 -24t94.5 -48.5t72.5 -24.5q70 0 91 95h81q-13 -99 -58.5 -147t-111.5 -48z" />
    <glyph glyph-name="Umacron" unicode="&#x16a;" horiz-adv-x="1413" 
d="M305 600q0 -160 23 -251t88 -154q115 -115 291 -115q178 0 288 110q65 65 88 154.5t23 249.5v893h125v-930q0 -580 -524 -580q-525 0 -525 580v930h123v-887zM453 1790h510v-98h-510v98z" />
    <glyph glyph-name="umacron" unicode="&#x16b;" horiz-adv-x="1148" 
d="M862 156q-128 -179 -352 -179q-59 0 -109.5 12.5t-96.5 43.5t-78 78t-51 120.5t-19 167.5v658h116v-639q0 -344 269 -344q59 0 113 22t102 68t77 129t29 192v572h117v-1057h-117v156zM311 1436h518v-99h-518v99z" />
    <glyph glyph-name="Ubreve" unicode="&#x16c;" horiz-adv-x="1413" 
d="M305 600q0 -160 23 -251t88 -154q115 -115 291 -115q178 0 288 110q65 65 88 154.5t23 249.5v893h125v-930q0 -580 -524 -580q-525 0 -525 580v930h123v-887zM709 1622q-120 0 -191.5 65.5t-73.5 167.5h105q5 -67 45 -108t115 -41q74 0 113 41t44 108h107
q-5 -103 -74.5 -168t-189.5 -65z" />
    <glyph glyph-name="ubreve" unicode="&#x16d;" horiz-adv-x="1148" 
d="M862 156q-128 -179 -352 -179q-59 0 -109.5 12.5t-96.5 43.5t-78 78t-51 120.5t-19 167.5v658h116v-639q0 -344 269 -344q59 0 113 22t102 68t77 129t29 192v572h117v-1057h-117v156zM573 1231q-115 0 -185.5 67t-70.5 189h103q0 -86 41 -130t112 -44t112.5 44.5
t41.5 129.5h102q0 -122 -70.5 -189t-185.5 -67z" />
    <glyph glyph-name="Uring" unicode="&#x16e;" horiz-adv-x="1413" 
d="M305 600q0 -160 23 -251t88 -154q115 -115 291 -115q178 0 288 110q65 65 88 154.5t23 249.5v893h125v-930q0 -580 -524 -580q-525 0 -525 580v930h123v-887zM702 1516q-98 0 -154 60t-56 140t56 140.5t154 60.5q97 0 155 -61t58 -140t-58 -139.5t-155 -60.5zM702 1591
q59 0 92 35t33 90t-33 90t-92 35q-56 0 -89 -35t-33 -90t33 -90t89 -35z" />
    <glyph glyph-name="uring" unicode="&#x16f;" horiz-adv-x="1148" 
d="M862 156q-128 -179 -352 -179q-59 0 -109.5 12.5t-96.5 43.5t-78 78t-51 120.5t-19 167.5v658h116v-639q0 -344 269 -344q59 0 113 22t102 68t77 129t29 192v572h117v-1057h-117v156zM573 1163q-98 0 -154.5 60.5t-56.5 140.5t56.5 140.5t154.5 60.5q97 0 155 -61
t58 -140t-58 -140t-155 -61zM573 1239q59 0 92 35t33 90t-33 90t-92 35q-56 0 -89 -35t-33 -90t33 -90t89 -35z" />
    <glyph glyph-name="Uhungarumlaut" unicode="&#x170;" horiz-adv-x="1413" 
d="M305 600q0 -160 23 -251t88 -154q115 -115 291 -115q178 0 288 110q65 65 88 154.5t23 249.5v893h125v-930q0 -580 -524 -580q-525 0 -525 580v930h123v-887zM643 1855h148l-226 -225h-104zM1020 1855h149l-235 -225h-109z" />
    <glyph glyph-name="uhungarumlaut" unicode="&#x171;" horiz-adv-x="1148" 
d="M862 156q-128 -179 -352 -179q-59 0 -109.5 12.5t-96.5 43.5t-78 78t-51 120.5t-19 167.5v658h116v-639q0 -344 269 -344q59 0 113 22t102 68t77 129t29 192v572h117v-1057h-117v156zM870 1487h142l-221 -252h-101zM520 1487h144l-218 -252h-98z" />
    <glyph glyph-name="Uogonek" unicode="&#x172;" horiz-adv-x="1413" 
d="M1231 1487v-930q0 -187 -49.5 -302.5t-163.5 -201.5q-116 -89 -169.5 -154.5t-53.5 -123.5q0 -45 28.5 -71t81.5 -26q48 0 82 17v-96q-33 -17 -96 -17q-92 0 -146.5 49.5t-54.5 126.5q0 59 34 113.5t105 116.5q-54 -11 -122 -11q-525 0 -525 580v930h123v-887
q0 -160 23 -251t88 -154q118 -115 291 -115q181 0 288 110q64 67 87.5 157t23.5 247v893h125z" />
    <glyph glyph-name="uogonek" unicode="&#x173;" horiz-adv-x="1148" 
d="M862 156q-128 -179 -352 -179q-59 0 -109.5 12.5t-96.5 43.5t-78 78t-51 120.5t-19 167.5v658h116v-639q0 -344 269 -344q59 0 113 22t102 68t77 129t29 192v572h117v-1057h-117v156zM885 -418q-87 0 -141 50t-54 128q0 133 207 279l82 -39q-184 -114 -184 -225
q0 -44 29 -70.5t77 -26.5q44 0 78 17v-96q-33 -17 -94 -17z" />
    <glyph glyph-name="Wcircumflex" unicode="&#x174;" horiz-adv-x="1884" 
d="M170 1487l338 -1378h10l326 1378h200l336 -1378h11l325 1378h121l-354 -1487h-203l-330 1384h-10l-326 -1384h-202l-373 1487h131zM1208 1630h-127l-147 166l-150 -166h-120l196 225h152z" />
    <glyph glyph-name="wcircumflex" unicode="&#x175;" horiz-adv-x="1605" 
d="M168 1057l268 -948h10l269 948h180l276 -948h13l262 948h119l-314 -1057h-170l-268 952h-14l-277 -952h-170l-309 1057h125zM1069 1235h-115l-153 184l-152 -184h-114l194 252h143z" />
    <glyph glyph-name="Ycircumflex" unicode="&#x176;" horiz-adv-x="1251" 
d="M20 1487h152l461 -742l454 742h146l-547 -854v-633h-123v633zM897 1630h-127l-147 166l-150 -166h-121l197 225h151z" />
    <glyph glyph-name="ycircumflex" unicode="&#x177;" horiz-adv-x="1011" 
d="M78 -311q44 -6 82 -6q48 0 83.5 12t61.5 32.5t50 62.5t41.5 85t43.5 117l-403 1065h133l332 -920h12l332 920h129l-457 -1190q-58 -151 -139 -219t-209 -68q-48 0 -92 8v101zM772 1235h-115l-153 184l-152 -184h-114l194 252h143z" />
    <glyph glyph-name="Ydieresis" unicode="&#x178;" horiz-adv-x="1251" 
d="M20 1487h152l461 -742l454 742h146l-547 -854v-633h-123v633zM498 1835v-174h-140v174h140zM895 1835v-174h-139v174h139z" />
    <glyph glyph-name="Zacute" unicode="&#x179;" horiz-adv-x="1161" 
d="M936 1378h-850v109h993v-107l-868 -1271h895v-109h-1043v106zM733 1855h160l-244 -225h-110z" />
    <glyph glyph-name="zacute" unicode="&#x17a;" horiz-adv-x="962" 
d="M743 958h-649v99h783v-105l-674 -854h698v-98h-835v104zM604 1487h154l-230 -252h-104z" />
    <glyph glyph-name="Zdotaccent" unicode="&#x17b;" horiz-adv-x="1161" 
d="M936 1378h-850v109h993v-107l-868 -1271h895v-109h-1043v106zM676 1835v-172h-141v172h141z" />
    <glyph glyph-name="zdotaccent" unicode="&#x17c;" horiz-adv-x="962" 
d="M743 958h-649v99h783v-105l-674 -854h698v-98h-835v104zM561 1487v-172h-141v172h141z" />
    <glyph glyph-name="Zcaron" unicode="&#x17d;" horiz-adv-x="1161" 
d="M936 1378h-850v109h993v-107l-868 -1271h895v-109h-1043v106zM334 1855h127l147 -165l150 165h121l-197 -225h-152z" />
    <glyph glyph-name="zcaron" unicode="&#x17e;" horiz-adv-x="962" 
d="M743 958h-649v99h783v-105l-674 -854h698v-98h-835v104zM223 1487h115l154 -187l151 187h115l-195 -252h-143z" />
    <glyph glyph-name="longs" unicode="&#x17f;" horiz-adv-x="456" 
d="M170 1196q0 146 61.5 220.5t198.5 74.5q22 0 72 -4v-101q-27 3 -51 3q-88 0 -126 -42t-38 -151v-1196h-117v1196z" />
    <glyph glyph-name="uni018F" unicode="&#x18f;" horiz-adv-x="1449" 
d="M721 -27q-284 0 -448 205t-169 551v35h1102q-5 294 -137.5 467.5t-355.5 173.5q-166 0 -277.5 -87t-154.5 -267h-140q48 224 202 342t370 118q287 0 456.5 -210t169.5 -556q0 -352 -166 -562t-452 -210zM721 80q208 0 335 154t144 421h-958q17 -267 144 -421t335 -154z
" />
    <glyph glyph-name="uni0190" unicode="&#x190;" horiz-adv-x="1208" 
d="M1124 395q-17 -201 -144.5 -309.5t-356.5 -108.5q-232 0 -372 108t-140 304q0 146 81.5 245.5t231.5 123.5v6q-279 84 -279 348q0 189 133.5 293t346.5 104q210 0 332.5 -102.5t134.5 -286.5h-131q0 125 -90 207t-244 82t-255.5 -80.5t-101.5 -224.5q0 -140 100 -220.5
t261 -80.5h92v-101h-98q-168 0 -276.5 -87.5t-108.5 -233.5q0 -138 97 -221.5t277 -83.5q79 0 143.5 18.5t115.5 56t81.5 99.5t36.5 145h133z" />
    <glyph glyph-name="florin" unicode="&#x192;" 
d="M160 -162q37 -12 92 -12q44 0 80 18.5t58.5 45t41.5 70.5t29 80t22 89l105 502h-236v96h254l51 246q3 15 12.5 61t14 65t15 57t19.5 60.5t24 50t32 48.5q38 49 100.5 77.5t139.5 28.5q58 0 108 -16v-102q-39 14 -116 14q-32 0 -59.5 -11.5t-47 -27t-36.5 -45t-27 -52
t-20.5 -62.5t-15 -60.5t-12.5 -61.5l-53 -270h252v-96h-272l-99 -475q-13 -63 -23.5 -106.5t-26.5 -93t-34 -82t-43.5 -64.5t-56.5 -50.5t-73 -29.5t-93 -11q-35 0 -106 11v108z" />
    <glyph glyph-name="uni0194" unicode="&#x194;" horiz-adv-x="1216" 
d="M33 1487h123l452 -912l453 912h123l-510 -1045l55 -108q8 -15 32 -61.5t32.5 -62.5t28 -56.5t27 -60t20.5 -54.5t18 -59t9.5 -54.5t4.5 -58.5q0 -132 -76.5 -209.5t-216.5 -77.5t-216.5 77.5t-76.5 209.5q0 54 18 118t34.5 102t60.5 127t59 120l54 108zM608 -322
q73 0 121.5 52t48.5 137q0 38 -26 112.5t-45 116.5t-65 140q-7 16 -11 24l-23 45l-22 -45q-2 -5 -20 -42.5t-23 -48.5t-21 -46t-22.5 -50.5t-19 -45.5t-18 -47.5t-12.5 -40.5t-9.5 -40.5t-2.5 -31.5q0 -85 48.5 -137t121.5 -52z" />
    <glyph glyph-name="uni0197" unicode="&#x197;" horiz-adv-x="630" 
d="M377 1487v-672h237v-104h-237v-711h-123v711h-238v104h238v672h123z" />
    <glyph glyph-name="uni019D" unicode="&#x19d;" horiz-adv-x="1488" 
d="M1290 1487v-1487h-192l-774 1366h-13l4 -621v-759q0 -61 -1.5 -94t-8 -89.5t-23.5 -88.5t-45 -67t-75 -51t-111 -16q-46 0 -82 8v103q31 -8 70 -8q33 0 59 9.5t42.5 22.5t28.5 38t17.5 44t8.5 53t3.5 53.5t0.5 55.5v1528h192l772 -1364h13l-5 622v742h119z" />
    <glyph glyph-name="uni01B5" unicode="&#x1b5;" horiz-adv-x="1204" 
d="M1128 109v-109h-1042v106l395 576h-354v106h426l405 590h-849v109h993v-107l-406 -592h379v-106h-450l-392 -573h895z" />
    <glyph glyph-name="uni01B6" unicode="&#x1b6;" horiz-adv-x="983" 
d="M913 98v-98h-835v104l297 375h-252v96h330l303 383h-650v99h783v-105l-299 -377h262v-96h-338l-299 -381h698z" />
    <glyph glyph-name="uni01CD" unicode="&#x1cd;" horiz-adv-x="1368" 
d="M766 1487l584 -1487h-136l-188 494h-692l-182 -494h-136l586 1487h164zM684 1393h-8l-301 -793h610zM410 1855h127l147 -165l150 165h120l-196 -225h-152z" />
    <glyph glyph-name="uni01CE" unicode="&#x1ce;" horiz-adv-x="1091" 
d="M141 739q0 152 115 246t295 94q94 0 161 -19t120 -64.5t79.5 -129.5t26.5 -207v-419q0 -133 20 -240h-120q-11 76 -13 154q-70 -96 -154 -136.5t-200 -40.5q-169 0 -272 78.5t-103 216.5q0 216 223 299q68 26 163.5 42.5t163 22.5t175.5 13v43q0 150 -68.5 217.5
t-205.5 67.5q-130 0 -206.5 -62t-76.5 -176h-123zM821 549q-318 -20 -450 -68q-88 -34 -119 -85t-31 -122q0 -95 70.5 -147.5t191.5 -52.5q162 0 250 115.5t88 310.5v49zM281 1487h114l154 -187l151 187h115l-194 -252h-144z" />
    <glyph glyph-name="uni01CF" unicode="&#x1cf;" horiz-adv-x="520" 
d="M322 1487v-1487h-123v1487h123zM-12 1855h127l147 -165l150 165h120l-196 -225h-152z" />
    <glyph glyph-name="uni01D0" unicode="&#x1d0;" horiz-adv-x="456" 
d="M287 1057v-1057h-117v1057h117zM309 1235h-153l-166 252h106l133 -193l136 193h102z" />
    <glyph glyph-name="uni01D1" unicode="&#x1d1;" horiz-adv-x="1527" 
d="M764 1509q145 0 267.5 -56.5t207.5 -157t132.5 -243t47.5 -309.5t-47.5 -309.5t-132.5 -243t-207.5 -157t-267.5 -56.5t-267.5 56.5t-207.5 157t-132.5 243t-47.5 309.5t47.5 309.5t132.5 243t207.5 157t267.5 56.5zM764 1405q-235 0 -380.5 -181.5t-145.5 -480.5
t145.5 -480t380.5 -181q234 0 380 181.5t146 479.5q0 299 -145.5 480.5t-380.5 181.5zM492 1855h126l148 -165l149 165h121l-196 -225h-152z" />
    <glyph glyph-name="uni01D2" unicode="&#x1d2;" horiz-adv-x="1163" 
d="M586 1079q214 0 346.5 -152.5t132.5 -398.5q0 -247 -133 -399t-348 -152t-350.5 152.5t-135.5 398.5t135 398.5t353 152.5zM582 981q-168 0 -264.5 -120t-96.5 -333q0 -216 94 -335t267 -119q171 0 265.5 119t94.5 335q0 213 -96.5 333t-263.5 120zM313 1487h115
l154 -187l151 187h115l-195 -252h-143z" />
    <glyph glyph-name="uni01D3" unicode="&#x1d3;" horiz-adv-x="1413" 
d="M305 600q0 -160 23 -251t88 -154q115 -115 291 -115q178 0 288 110q65 65 88 154.5t23 249.5v893h125v-930q0 -580 -524 -580q-525 0 -525 580v930h123v-887zM434 1855h127l148 -165l149 165h121l-197 -225h-151z" />
    <glyph glyph-name="uni01D4" unicode="&#x1d4;" horiz-adv-x="1148" 
d="M862 156q-128 -179 -352 -179q-59 0 -109.5 12.5t-96.5 43.5t-78 78t-51 120.5t-19 167.5v658h116v-639q0 -344 269 -344q59 0 113 22t102 68t77 129t29 192v572h117v-1057h-117v156zM303 1487h115l153 -187l152 187h115l-195 -252h-143z" />
    <glyph glyph-name="Gcaron" unicode="&#x1e6;" horiz-adv-x="1454" 
d="M1202 229q-147 -252 -469 -252q-282 0 -452 203.5t-170 562.5q0 228 79.5 401.5t227.5 269t344 95.5q229 0 372 -113.5t181 -328.5h-127q-32 165 -141 252.5t-283 87.5q-254 0 -389 -174.5t-135 -489.5q0 -304 131.5 -485.5t357.5 -181.5q459 0 477 594h-434v106h551
v-776h-117q-2 41 -2 63q0 37 3 96.5t3 69.5h-8zM487 1855h127l148 -165l149 165h121l-196 -225h-152z" />
    <glyph glyph-name="gcaron" unicode="&#x1e7;" horiz-adv-x="1173" 
d="M268 -80q10 -117 88 -179.5t213 -62.5q80 0 137.5 23.5t92 62t54.5 99.5t27 124t7 148v90q-55 -94 -145 -146t-205 -52q-194 0 -314.5 142t-120.5 378q0 232 128 382t329 150q110 0 189.5 -44t140.5 -140v162h117v-991q0 -243 -113.5 -364.5t-321.5 -121.5
q-195 0 -307 89.5t-123 250.5h127zM559 981q-153 0 -243.5 -118t-90.5 -316q0 -196 90 -309t244 -113q148 0 238 117.5t90 312.5q0 197 -89 311.5t-239 114.5zM354 1487h115l154 -187l151 187h115l-195 -252h-143z" />
    <glyph glyph-name="uni01E8" unicode="&#x1e8;" horiz-adv-x="1206" 
d="M322 1487v-682l671 682h158l-688 -699l751 -788h-167l-725 760v-760h-123v1487h123zM381 1855h127l147 -165l150 165h121l-197 -225h-151z" />
    <glyph glyph-name="uni01E9" unicode="&#x1e9;" horiz-adv-x="976" 
d="M287 1487v-875l477 445h156l-510 -469l573 -588h-164l-532 555v-555h-117v1487h117zM-25 1855h119l133 -165l133 165h115l-180 -225h-141z" />
    <glyph glyph-name="uni01EA" unicode="&#x1ea;" horiz-adv-x="1527" 
d="M1419 743q0 -243 -96.5 -423.5t-267.5 -274.5q-250 -140 -250 -270q0 -44 29 -70.5t77 -26.5q44 0 78 17v-96q-33 -17 -94 -17q-87 0 -141 50t-54 128q0 108 131 222q-57 -5 -67 -5q-145 0 -267.5 56.5t-207.5 157t-132.5 243t-47.5 309.5t47.5 309.5t132.5 243
t207.5 157t267.5 56.5t267.5 -56.5t207.5 -157t132.5 -243t47.5 -309.5zM238 743q0 -299 145.5 -480t380.5 -181q234 0 380 181.5t146 479.5q0 299 -145.5 480.5t-380.5 181.5t-380.5 -181.5t-145.5 -480.5z" />
    <glyph glyph-name="uni01EB" unicode="&#x1eb;" horiz-adv-x="1163" 
d="M586 1079q214 0 346.5 -152.5t132.5 -398.5q0 -165 -60 -289t-171 -192q-250 -154 -250 -272q0 -44 29 -70.5t77 -26.5q44 0 78 17v-96q-33 -17 -94 -17q-87 0 -141 50t-54 128q0 114 133 217h-28q-215 0 -350.5 152.5t-135.5 398.5t135 398.5t353 152.5zM582 74
q171 0 265.5 119t94.5 335q0 213 -96.5 333t-263.5 120q-168 0 -264.5 -120t-96.5 -333q0 -216 94 -335t267 -119z" />
    <glyph glyph-name="uni01F8" unicode="&#x1f8;" horiz-adv-x="1488" 
d="M391 1487l772 -1364h13l-5 622v742h119v-1487h-192l-774 1366h-13l4 -621v-745h-116v1487h192zM707 1630l-244 225h160l194 -225h-110z" />
    <glyph glyph-name="uni01F9" unicode="&#x1f9;" horiz-adv-x="1153" 
d="M287 899q122 180 352 180q73 0 135 -22t113.5 -69.5t80.5 -131.5t29 -199v-657h-116v637q0 174 -62.5 260t-210.5 86q-47 0 -90 -11t-86 -40.5t-74.5 -74.5t-51 -118.5t-19.5 -167.5v-571h-117v1057h117v-158zM307 1487h154l180 -252h-106z" />
    <glyph glyph-name="Aringacute" unicode="&#x1fa;" horiz-adv-x="1368" 
d="M748 1847q69 -20 109 -74t40 -118q0 -59 -33.5 -110t-91.5 -75l578 -1470h-136l-188 494h-692l-182 -494h-136l580 1470q-59 24 -91 74.5t-32 110.5q0 71 44 127t124 69l174 222h150zM684 1393h-8l-301 -793h610zM684 1530q59 0 92 35t33 90t-33 90t-92 35
q-56 0 -89.5 -35t-33.5 -90t33.5 -90t89.5 -35z" />
    <glyph glyph-name="aringacute" unicode="&#x1fb;" horiz-adv-x="1091" 
d="M141 739q0 152 115 246t295 94q94 0 161 -19t120 -64.5t79.5 -129.5t26.5 -207v-419q0 -133 20 -240h-120q-11 76 -13 154q-70 -96 -154 -136.5t-200 -40.5q-169 0 -272 78.5t-103 216.5q0 216 223 299q68 26 163.5 42.5t163 22.5t175.5 13v43q0 150 -68.5 217.5
t-205.5 67.5q-130 0 -206.5 -62t-76.5 -176h-123zM821 549q-318 -20 -450 -68q-88 -34 -119 -85t-31 -122q0 -95 70.5 -147.5t191.5 -52.5q162 0 250 115.5t88 310.5v49zM537 1163q-98 0 -154.5 60.5t-56.5 140.5q0 67 42.5 124t116.5 73l189 237h149l-233 -239
q75 -17 117.5 -72.5t42.5 -122.5q0 -79 -58 -140t-155 -61zM537 1239q59 0 92 35t33 90t-33 90t-92 35q-56 0 -89.5 -35t-33.5 -90t33.5 -90t89.5 -35z" />
    <glyph glyph-name="AEacute" unicode="&#x1fc;" horiz-adv-x="1921" 
d="M1798 1487v-109h-760l78 -557h641v-106h-624l86 -606h614v-109h-727l-72 522h-608l-270 -522h-142l789 1487h995zM872 1384l-389 -753h535l-107 753h-39zM1102 1855h160l-244 -225h-111z" />
    <glyph glyph-name="aeacute" unicode="&#x1fd;" horiz-adv-x="1792" 
d="M461 -23q-162 0 -262.5 77.5t-100.5 224.5q0 174 147 254.5t466 80.5h98v54q0 158 -71 237.5t-203 79.5q-125 0 -200 -63t-81 -179h-119q4 154 115 245t285 91q276 0 354 -219q134 219 373 219q216 0 324 -142.5t108 -399.5v-29h-762q0 -126 36 -222t112 -153t184 -57
q116 0 191.5 60t105.5 167h120q-31 -160 -145.5 -243t-269.5 -83q-138 0 -242.5 66t-153.5 188q-56 -120 -159 -187t-250 -67zM471 72q152 0 246 100t94 293v51h-100q-255 0 -369.5 -56.5t-114.5 -178.5q0 -102 72 -155.5t172 -53.5zM1571 608q-11 180 -88.5 276.5
t-222.5 96.5q-137 0 -225.5 -99t-100.5 -274h637zM1034 1487h154l-230 -252h-104z" />
    <glyph glyph-name="Oslashacute" unicode="&#x1fe;" horiz-adv-x="1536" 
d="M770 1509q237 0 404 -145l112 149l78 -61l-119 -158q180 -214 180 -551q0 -167 -47.5 -309.5t-132.5 -243t-207.5 -157t-267.5 -56.5q-237 0 -405 146l-127 -170l-80 61l135 181q-178 212 -178 548q0 167 47.5 309.5t132.5 243t207.5 157t267.5 56.5zM1296 743
q0 275 -125 455l-741 -985q137 -131 340 -131q234 0 380 181.5t146 479.5zM770 1405q-235 0 -380.5 -181.5t-145.5 -480.5q0 -270 121 -450l741 981q-137 131 -336 131zM897 1855h160l-244 -225h-111z" />
    <glyph glyph-name="oslashacute" unicode="&#x1ff;" horiz-adv-x="1179" 
d="M946 920q127 -152 127 -392q0 -247 -133 -399t-348 -152q-161 0 -287 93l-123 -164l-76 61l130 170q-130 152 -130 391q0 246 135 398.5t353 152.5q162 0 280 -92l123 162l76 -62zM229 528q0 -192 72 -305l510 680q-90 78 -221 78q-168 0 -264.5 -120t-96.5 -333z
M950 528q0 189 -71 301l-514 -679q91 -76 225 -76q171 0 265.5 119t94.5 335zM702 1487h154l-229 -252h-105z" />
    <glyph glyph-name="uni0218" unicode="&#x218;" horiz-adv-x="1222" 
d="M231 494q8 -212 103 -313t291 -101q168 0 269 80t101 215q0 37 -7.5 69.5t-19.5 58t-32.5 48.5t-41 39.5t-51.5 32.5t-56 26.5t-63 22.5t-65 19.5t-69 18.5q-3 1 -4 1q-177 48 -249 82q-160 77 -199 224q-13 51 -13 113q0 168 129 273.5t348 105.5q244 0 364 -117.5
t128 -363.5h-129q-3 379 -363 379q-158 0 -253 -76t-95 -201q0 -52 14.5 -94t42.5 -72t63 -53t82 -40.5t92.5 -31.5t99.5 -28q6 -1 9 -2q90 -23 138.5 -38t121.5 -49.5t110.5 -74t67 -106t29.5 -152.5q0 -180 -137.5 -296t-361.5 -116q-252 0 -386 129.5t-141 387.5h133z
M635 -291h-64v148h146v-158l-82 -191h-68z" />
    <glyph glyph-name="uni0219" unicode="&#x219;" horiz-adv-x="1017" 
d="M786 733q0 127 -70.5 187.5t-199.5 60.5q-135 0 -206.5 -46t-71.5 -132q0 -31 9.5 -56.5t22.5 -43.5t39 -34t47 -25.5t58 -20t61.5 -15.5t67.5 -14q7 -1 10 -2q52 -11 78.5 -17.5t73 -21t71.5 -28t57.5 -37.5t49.5 -52t29 -68t12 -89q0 -141 -109 -221.5t-301 -80.5
q-200 0 -312 94.5t-116 272.5h119q4 -130 88 -200t221 -70q131 0 208 49t77 141q0 26 -6 48.5t-14 40t-24.5 33t-30 26t-39 21.5t-41.5 17t-48 14t-49 12t-53 11q-40 7 -61.5 11.5t-59 13.5t-59 17t-52.5 21.5t-49.5 28.5t-39.5 37t-32 47t-18.5 58t-7.5 72q0 130 108 208
t291 78q185 0 287 -84t102 -262h-117zM504 -299h-64v156h148v-158l-82 -191h-68z" />
    <glyph glyph-name="uni021A" unicode="&#x21a;" horiz-adv-x="1161" 
d="M25 1378v109h1112v-109h-496v-1378h-123v1378h-493zM571 -291h-63v148h145v-158l-82 -191h-67z" />
    <glyph glyph-name="uni021B" unicode="&#x21b;" horiz-adv-x="606" 
d="M563 1057v-99h-221v-639q0 -53 2 -83.5t10 -62t24 -47t43 -25t68 -9.5q31 0 74 6v-98q-58 -10 -102 -10q-81 0 -137.5 30t-83.5 109q-15 46 -15 201v628h-190v99h190v231h117v-231h221zM397 -299h-63v156h147v-158l-82 -191h-67z" />
    <glyph glyph-name="uni021E" unicode="&#x21e;" horiz-adv-x="1484" 
d="M322 1487v-670h841v670h123v-1487h-123v711h-841v-711h-123v1487h123zM469 1855h127l147 -165l150 165h121l-197 -225h-151z" />
    <glyph glyph-name="uni021F" unicode="&#x21f;" horiz-adv-x="1153" 
d="M287 899q122 180 356 180q73 0 133.5 -22t111.5 -69.5t80 -131.5t29 -199v-657h-118v637q0 344 -269 344q-46 0 -90 -13t-87 -43.5t-75 -76t-51.5 -117t-19.5 -160.5v-571h-117v1487h117v-588zM-25 1855h119l133 -165l133 165h115l-180 -225h-141z" />
    <glyph glyph-name="uni022E" unicode="&#x22e;" horiz-adv-x="1527" 
d="M764 1509q145 0 267.5 -56.5t207.5 -157t132.5 -243t47.5 -309.5t-47.5 -309.5t-132.5 -243t-207.5 -157t-267.5 -56.5t-267.5 56.5t-207.5 157t-132.5 243t-47.5 309.5t47.5 309.5t132.5 243t207.5 157t267.5 56.5zM764 1405q-235 0 -380.5 -181.5t-145.5 -480.5
t145.5 -480t380.5 -181q234 0 380 181.5t146 479.5q0 299 -145.5 480.5t-380.5 181.5zM834 1835v-172h-142v172h142z" />
    <glyph glyph-name="uni022F" unicode="&#x22f;" horiz-adv-x="1163" 
d="M586 1079q214 0 346.5 -152.5t132.5 -398.5q0 -247 -133 -399t-348 -152t-350.5 152.5t-135.5 398.5t135 398.5t353 152.5zM582 981q-168 0 -264.5 -120t-96.5 -333q0 -216 94 -335t267 -119q171 0 265.5 119t94.5 335q0 213 -96.5 333t-263.5 120zM651 1487v-172h-141
v172h141z" />
    <glyph glyph-name="uni0232" unicode="&#x232;" horiz-adv-x="1251" 
d="M20 1487h152l461 -742l454 742h146l-547 -854v-633h-123v633zM375 1790h510v-98h-510v98z" />
    <glyph glyph-name="uni0233" unicode="&#x233;" horiz-adv-x="1011" 
d="M78 -311q44 -6 82 -6q48 0 83.5 12t61.5 32.5t50 62.5t41.5 85t43.5 117l-403 1065h133l332 -920h12l332 920h129l-457 -1190q-58 -151 -139 -219t-209 -68q-48 0 -92 8v101zM248 1436h518v-99h-518v99z" />
    <glyph glyph-name="uni0237" unicode="&#x237;" horiz-adv-x="456" 
d="M-59 -309q31 -8 69 -8q26 0 47.5 5t37 12.5t28 22t20.5 26.5t13 35t8 38t4.5 43.5t1.5 45v48.5v1098h117v-1071q0 -79 -2 -120t-15.5 -105.5t-39.5 -97t-78.5 -58t-128.5 -25.5q-46 0 -82 8v103z" />
    <glyph glyph-name="uni0244" unicode="&#x244;" horiz-adv-x="1437" 
d="M317 815h801v672h125v-672h137v-104h-137v-154q0 -580 -524 -580t-524 580v154h-138v104h138v672h122v-672zM1008 190q64 67 87 156.5t23 247.5v117h-801v-111q0 -163 22.5 -254t88.5 -151q121 -115 291 -115q182 0 289 110z" />
    <glyph glyph-name="uni0259" unicode="&#x259;" horiz-adv-x="1122" 
d="M104 743q31 158 148.5 247t294.5 89q224 0 349.5 -147t125.5 -404q0 -251 -129 -401t-348 -150q-114 0 -200 42t-138.5 119.5t-78.5 181.5t-26 235h797q0 196 -98 312t-260 116q-126 0 -211 -67t-103 -173h-123zM225 457q10 -185 95 -283t233 -98q150 0 237.5 95.5
t104.5 285.5h-670z" />
    <glyph glyph-name="uni025B" unicode="&#x25b;" horiz-adv-x="1015" 
d="M821 344h111q0 -160 -118 -263.5t-329 -103.5q-107 0 -190.5 29.5t-137 97.5t-53.5 166q0 193 193 262v9q-88 22 -132 86t-44 151q0 126 103 213.5t274 87.5q401 0 417 -342h-110q-5 111 -85 178.5t-214 67.5q-120 0 -193 -60t-73 -153q0 -188 256 -188h92v-99h-99
q-137 0 -201.5 -56t-64.5 -148q0 -100 76.5 -152.5t200.5 -52.5q154 0 233.5 72.5t87.5 197.5z" />
    <glyph glyph-name="uni0263" unicode="&#x263;" horiz-adv-x="958" 
d="M133 1057l346 -631l346 631h131l-415 -744l51 -92q77 -142 112 -230t35 -161q0 -105 -68.5 -177.5t-191.5 -72.5t-191.5 72.5t-68.5 177.5q0 72 35 159.5t113 231.5l51 92l-416 744h131zM479 -330q64 0 105 48t41 112q0 72 -30 146.5t-93 187.5l-23 39l-22 -39
q-63 -113 -93 -187.5t-30 -146.5q0 -64 40.5 -112t104.5 -48z" />
    <glyph glyph-name="uni0268" unicode="&#x268;" horiz-adv-x="665" 
d="M612 537h-221v-537h-117v537h-221v98h221v422h117v-422h221v-98zM403 1487v-172h-141v172h141z" />
    <glyph glyph-name="uni0272" unicode="&#x272;" horiz-adv-x="1153" 
d="M639 1079q73 0 135 -22t113.5 -69.5t80.5 -131.5t29 -199v-657h-116v637q0 174 -62.5 260t-210.5 86q-47 0 -90 -11t-86 -40.5t-74.5 -74.5t-51 -118.5t-19.5 -167.5v-585q0 -61 -1.5 -94t-8 -89.5t-23.5 -88.5t-45 -67t-75 -51t-111 -16q-46 0 -82 8v103q31 -8 69 -8
q33 0 59 9.5t42.5 22.5t28.5 38t17.5 44t8.5 53t3.5 53.5t0.5 55.5v1098h117v-158q122 180 352 180z" />
    <glyph glyph-name="uni0289" unicode="&#x289;" horiz-adv-x="1243" 
d="M920 156q-128 -179 -353 -179q-59 0 -109.5 12.5t-96.5 43.5t-78 78t-51 120.5t-19 167.5v138h-172v98h172v422h117v-422h590v422h116v-422h172v-98h-172v-537h-116v156zM598 74q59 0 113 22t102.5 68t77.5 129t29 192v52h-590v-119q0 -344 268 -344z" />
    <glyph glyph-name="uni02BC" unicode="&#x2bc;" horiz-adv-x="378" 
d="M193 1337h-70v150h160v-164l-88 -219h-80z" />
    <glyph glyph-name="circumflex" unicode="&#x2c6;" horiz-adv-x="1148" 
d="M842 1235h-115l-154 184l-151 -184h-115l195 252h143z" />
    <glyph glyph-name="caron" unicode="&#x2c7;" horiz-adv-x="1148" 
d="M307 1487h115l153 -187l152 187h115l-195 -252h-143z" />
    <glyph glyph-name="uni02C9" unicode="&#x2c9;" horiz-adv-x="1138" 
d="M309 1436h518v-99h-518v99z" />
    <glyph glyph-name="breve" unicode="&#x2d8;" horiz-adv-x="1064" 
d="M532 1231q-115 0 -185.5 67t-70.5 189h103q0 -86 41 -130t112 -44t112.5 44.5t41.5 129.5h102q0 -122 -70.5 -189t-185.5 -67z" />
    <glyph glyph-name="dotaccent" unicode="&#x2d9;" horiz-adv-x="1165" 
d="M653 1487v-172h-141v172h141z" />
    <glyph glyph-name="ring" unicode="&#x2da;" horiz-adv-x="1157" 
d="M578 1163q-98 0 -154.5 60.5t-56.5 140.5t56.5 140.5t154.5 60.5q97 0 155 -61t58 -140t-58 -140t-155 -61zM578 1239q58 0 91 34.5t33 90.5t-33 90.5t-91 34.5q-56 0 -89.5 -35t-33.5 -90t33.5 -90t89.5 -35z" />
    <glyph glyph-name="ogonek" unicode="&#x2db;" horiz-adv-x="1087" 
d="M592 -418q-87 0 -141 50t-54 128q0 133 207 279l82 -39q-184 -114 -184 -225q0 -44 29 -70.5t77 -26.5q44 0 78 17v-96q-33 -17 -94 -17z" />
    <glyph glyph-name="tilde" unicode="&#x2dc;" horiz-adv-x="1208" 
d="M733 1282q-40 0 -89 24t-94.5 48t-74.5 24q-69 0 -92 -94h-80q13 99 58.5 147t111.5 48q51 0 139 -48.5t119 -48.5q69 0 90 95h82q-13 -99 -58.5 -147t-111.5 -48z" />
    <glyph glyph-name="hungarumlaut" unicode="&#x2dd;" horiz-adv-x="1222" 
d="M891 1487h141l-221 -252h-100zM541 1487h143l-217 -252h-98z" />
    <glyph glyph-name="gravecomb" unicode="&#x300;" horiz-adv-x="0" 
d="M-690 1487h153l181 -252h-107z" />
    <glyph glyph-name="acutecomb" unicode="&#x301;" horiz-adv-x="0" 
d="M-498 1487h154l-229 -252h-105z" />
    <glyph glyph-name="uni0302" unicode="&#x302;" horiz-adv-x="0" 
d="M-246 1235h-114l-154 184l-152 -184h-114l194 252h144z" />
    <glyph glyph-name="tildecomb" unicode="&#x303;" horiz-adv-x="0" 
d="M-379 1282q-40 0 -89 24t-94.5 48t-74.5 24q-69 0 -92 -94h-80q13 99 58.5 147t111.5 48q51 0 139 -48.5t119 -48.5q69 0 90 95h82q-13 -99 -58.5 -147t-111.5 -48z" />
    <glyph glyph-name="uni0304" unicode="&#x304;" horiz-adv-x="0" 
d="M-770 1436h518v-99h-518v99z" />
    <glyph glyph-name="uni0306" unicode="&#x306;" horiz-adv-x="0" 
d="M-510 1231q-115 0 -185.5 67t-70.5 189h102q0 -85 41.5 -129.5t112.5 -44.5t112.5 44.5t41.5 129.5h102q0 -122 -70.5 -189t-185.5 -67z" />
    <glyph glyph-name="uni0307" unicode="&#x307;" horiz-adv-x="0" 
d="M-442 1487v-172h-142v172h142z" />
    <glyph glyph-name="uni0308" unicode="&#x308;" horiz-adv-x="0" 
d="M-631 1487v-174h-139v174h139zM-254 1487v-174h-139v174h139z" />
    <glyph glyph-name="uni030A" unicode="&#x30a;" horiz-adv-x="0" 
d="M-510 1163q-98 0 -154.5 60.5t-56.5 140.5t56.5 140.5t154.5 60.5q97 0 155 -61t58 -140t-58 -140t-155 -61zM-510 1239q59 0 92 35t33 90t-33 90t-92 35q-56 0 -89.5 -35t-33.5 -90t33.5 -90t89.5 -35z" />
    <glyph glyph-name="uni030B" unicode="&#x30b;" horiz-adv-x="0" 
d="M-301 1487h141l-221 -252h-100zM-651 1487h143l-217 -252h-98z" />
    <glyph glyph-name="uni030C" unicode="&#x30c;" horiz-adv-x="0" 
d="M-780 1487h114l154 -187l152 187h114l-194 -252h-144z" />
    <glyph glyph-name="uni0312" unicode="&#x312;" horiz-adv-x="0" 
d="M-504 1382h62v-155h-148v157l82 191h68z" />
    <glyph glyph-name="uni0313" unicode="&#x313;" horiz-adv-x="0" 
d="M-518 1337h-70v150h160v-164l-88 -219h-80z" />
    <glyph glyph-name="dotbelowcomb" unicode="&#x323;" horiz-adv-x="0" 
d="M-442 -176v-172h-142v172h142z" />
    <glyph glyph-name="uni0326" unicode="&#x326;" horiz-adv-x="0" 
d="M-522 -299h-64v156h148v-158l-82 -191h-68z" />
    <glyph glyph-name="uni0327" unicode="&#x327;" horiz-adv-x="0" 
d="M-489 -418q-35 0 -72 6v82q24 -6 51 -6q60 0 93.5 30t33.5 79q0 42 -29.5 70t-79.5 28q-20 0 -34 -2v151h100v-88q65 -6 104 -50.5t39 -108.5q0 -82 -56 -136.5t-150 -54.5z" />
    <glyph glyph-name="uni0328" unicode="&#x328;" horiz-adv-x="0" 
d="M-524 -418q-87 0 -141 50t-54 128q0 133 207 279l82 -39q-184 -114 -184 -225q0 -44 29 -70.5t77 -26.5q44 0 78 17v-96q-33 -17 -94 -17z" />
    <glyph glyph-name="uni032E" unicode="&#x32e;" horiz-adv-x="0" 
d="M-510 -387q-115 0 -185.5 67t-70.5 189h102q0 -85 41.5 -129.5t112.5 -44.5t112.5 44.5t41.5 129.5h102q0 -122 -70.5 -189t-185.5 -67z" />
    <glyph glyph-name="uni0331" unicode="&#x331;" horiz-adv-x="0" 
d="M-770 -213h518v-98h-518v98z" />
    <glyph glyph-name="uni037E" unicode="&#x37e;" horiz-adv-x="448" 
d="M143 14v162h164v-176l-80 -276h-82l68 290h-70zM305 1057v-176h-164v176h164z" />
    <glyph glyph-name="dieresistonos" unicode="&#x385;" horiz-adv-x="1257" 
d="M465 1425v-174h-139v174h139zM913 1425v-174h-139v174h139zM571 1505h156l-76 -270h-104z" />
    <glyph glyph-name="anoteleia" unicode="&#x387;" horiz-adv-x="421" 
d="M295 1057v-176h-164v176h164z" />
    <glyph glyph-name="uni0394" unicode="&#x394;" horiz-adv-x="1380" 
d="M608 1487h164l571 -1401v-86h-1306v86zM860 948q-35 86 -170 447h-8q-3 -8 -63 -169.5t-103 -269.5l-342 -850h1028z" />
    <glyph glyph-name="Sigma" unicode="&#x3a3;" horiz-adv-x="1175" 
d="M66 100l649 641l-639 650v96h1026v-107h-735q-82 0 -129 2l614 -616v-39l-641 -625q62 7 219 7h678v-109h-1042v100z" />
    <glyph glyph-name="uni03A9" unicode="&#x3a9;" horiz-adv-x="1552" 
d="M774 1407q-238 0 -381 -162.5t-143 -419.5q0 -235 94.5 -423t267.5 -298v-104h-493v106h334q-171 146 -251.5 323.5t-80.5 397.5q0 141 45.5 265.5t128 217t206.5 146t273 53.5q150 0 275 -53.5t208 -146t129 -217t46 -265.5q0 -220 -80.5 -397.5t-251.5 -323.5h334v-106
h-494v104q173 110 268 298t95 423q0 257 -144.5 419.5t-384.5 162.5z" />
    <glyph glyph-name="uni03BC" unicode="&#x3bc;" horiz-adv-x="1208" 
d="M287 1057v-608q0 -375 297 -375q129 0 211 106t82 307v570h118v-852q0 -125 111 -125q40 0 78 12v-92q-46 -14 -103 -14q-181 0 -196 186q-23 -44 -47 -75.5t-59.5 -60.5t-85 -44t-111.5 -15q-105 0 -179.5 43t-115.5 115v-547h-117v1469h117z" />
    <glyph glyph-name="pi" unicode="&#x3c0;" horiz-adv-x="1239" 
d="M946 262q0 -31 2.5 -54.5t10 -49t21.5 -41.5t38.5 -26.5t58.5 -10.5q41 0 78 12v-92q-43 -14 -98 -14q-122 0 -175 60.5t-53 199.5v708h-477v-954h-116v954h-195v103h1124v-103h-219v-692z" />
    <glyph glyph-name="uni1E02" unicode="&#x1e02;" horiz-adv-x="1284" 
d="M621 1487q104 0 170.5 -6.5t126.5 -28.5q103 -40 165 -126.5t62 -207.5q0 -135 -69.5 -228.5t-192.5 -125.5v-4q124 -22 207.5 -115.5t83.5 -238.5q0 -271 -242 -367q-104 -39 -303 -39h-430v1487h422zM625 109q121 0 203.5 19.5t129.5 59.5t66.5 92.5t19.5 125.5
q0 301 -397 301h-325v-598h303zM643 813q377 0 377 293q0 150 -96 211t-283 61h-319v-565h321zM725 1835v-172h-141v172h141z" />
    <glyph glyph-name="uni1E03" unicode="&#x1e03;" horiz-adv-x="1175" 
d="M1075 528q0 -248 -127 -399.5t-313 -151.5q-106 0 -197.5 49t-150.5 140v-166h-117v1487h117v-596q115 188 342 188q89 0 169.5 -37.5t142 -106t98 -174.5t36.5 -233zM952 528q0 204 -93 328.5t-243 124.5q-153 0 -243 -123.5t-90 -329.5q0 -205 90 -329.5t243 -124.5
q150 0 243 125.5t93 328.5zM700 1487v-172h-141v172h141z" />
    <glyph glyph-name="uni1E0A" unicode="&#x1e0a;" horiz-adv-x="1474" 
d="M1239 743q0 298 -164 488q-71 82 -182.5 114.5t-292.5 32.5h-278v-1269h278q183 0 292.5 32.5t182.5 114.5q79 89 121.5 214t42.5 273zM1366 743q0 -330 -176 -534q-89 -109 -225.5 -159t-364.5 -50h-401v1487h401q228 0 363.5 -50.5t226.5 -158.5q176 -204 176 -535z
M760 1835v-172h-142v172h142z" />
    <glyph glyph-name="uni1E0B" unicode="&#x1e0b;" horiz-adv-x="1175" 
d="M100 528q0 128 36 233.5t97.5 174t142.5 106t171 37.5q227 0 342 -188v596h117v-1487h-117v166q-59 -91 -150.5 -140t-197.5 -49q-91 0 -171 39t-140 108.5t-95 174.5t-35 229zM223 528q0 -203 93 -328.5t243 -125.5q153 0 243.5 124.5t90.5 329.5q0 206 -90.5 329.5
t-243.5 123.5q-150 0 -243 -124.5t-93 -328.5zM616 1487v-172h-141v172h141z" />
    <glyph glyph-name="uni1E0C" unicode="&#x1e0c;" horiz-adv-x="1474" 
d="M1239 743q0 298 -164 488q-71 82 -182.5 114.5t-292.5 32.5h-278v-1269h278q183 0 292.5 32.5t182.5 114.5q79 89 121.5 214t42.5 273zM1366 743q0 -330 -176 -534q-89 -109 -225.5 -159t-364.5 -50h-401v1487h401q228 0 363.5 -50.5t226.5 -158.5q176 -204 176 -535z
M756 -176v-172h-142v172h142z" />
    <glyph glyph-name="uni1E0D" unicode="&#x1e0d;" horiz-adv-x="1175" 
d="M100 528q0 128 36 233.5t97.5 174t142.5 106t171 37.5q227 0 342 -188v596h117v-1487h-117v166q-59 -91 -150.5 -140t-197.5 -49q-91 0 -171 39t-140 108.5t-95 174.5t-35 229zM223 528q0 -203 93 -328.5t243 -125.5q153 0 243.5 124.5t90.5 329.5q0 206 -90.5 329.5
t-243.5 123.5q-150 0 -243 -124.5t-93 -328.5zM631 -176v-172h-142v172h142z" />
    <glyph glyph-name="uni1E0E" unicode="&#x1e0e;" horiz-adv-x="1474" 
d="M1239 743q0 298 -164 488q-71 82 -182.5 114.5t-292.5 32.5h-278v-1269h278q183 0 292.5 32.5t182.5 114.5q79 89 121.5 214t42.5 273zM1366 743q0 -330 -176 -534q-89 -109 -225.5 -159t-364.5 -50h-401v1487h401q228 0 363.5 -50.5t226.5 -158.5q176 -204 176 -535z
M371 -213h510v-98h-510v98z" />
    <glyph glyph-name="uni1E0F" unicode="&#x1e0f;" horiz-adv-x="1175" 
d="M100 528q0 128 36 233.5t97.5 174t142.5 106t171 37.5q227 0 342 -188v596h117v-1487h-117v166q-59 -91 -150.5 -140t-197.5 -49q-91 0 -171 39t-140 108.5t-95 174.5t-35 229zM223 528q0 -203 93 -328.5t243 -125.5q153 0 243.5 124.5t90.5 329.5q0 206 -90.5 329.5
t-243.5 123.5q-150 0 -243 -124.5t-93 -328.5zM303 -213h518v-98h-518v98z" />
    <glyph glyph-name="uni1E10" unicode="&#x1e10;" horiz-adv-x="1474" 
d="M1239 743q0 298 -164 488q-71 82 -182.5 114.5t-292.5 32.5h-278v-1269h278q183 0 292.5 32.5t182.5 114.5q79 89 121.5 214t42.5 273zM1366 743q0 -330 -176 -534q-89 -109 -225.5 -159t-364.5 -50h-401v1487h401q228 0 363.5 -50.5t226.5 -158.5q176 -204 176 -535z
M678 -291h-64v148h146v-158l-82 -191h-68z" />
    <glyph glyph-name="uni1E11" unicode="&#x1e11;" horiz-adv-x="1175" 
d="M100 528q0 128 36 233.5t97.5 174t142.5 106t171 37.5q227 0 342 -188v596h117v-1487h-117v166q-59 -91 -150.5 -140t-197.5 -49q-91 0 -171 39t-140 108.5t-95 174.5t-35 229zM223 528q0 -203 93 -328.5t243 -125.5q153 0 243.5 124.5t90.5 329.5q0 206 -90.5 329.5
t-243.5 123.5q-150 0 -243 -124.5t-93 -328.5zM551 -299h-64v156h148v-158l-82 -191h-68z" />
    <glyph glyph-name="uni1E1E" unicode="&#x1e1e;" horiz-adv-x="1138" 
d="M1073 1487v-109h-751v-577h712v-109h-712v-692h-123v1487h874zM705 1835v-172h-142v172h142z" />
    <glyph glyph-name="uni1E1F" unicode="&#x1e1f;" horiz-adv-x="595" 
d="M35 958v99h196v139q0 146 62 220.5t199 74.5q21 0 71 -4v-101q-27 3 -51 3q-88 0 -126 -42t-38 -151v-139h215v-99h-215v-958h-117v958h-196zM479 1835v-172h-141v172h141z" />
    <glyph glyph-name="uni1E20" unicode="&#x1e20;" horiz-adv-x="1454" 
d="M1202 229q-147 -252 -469 -252q-282 0 -452 203.5t-170 562.5q0 228 79.5 401.5t227.5 269t344 95.5q229 0 372 -113.5t181 -328.5h-127q-32 165 -141 252.5t-283 87.5q-254 0 -389 -174.5t-135 -489.5q0 -304 131.5 -485.5t357.5 -181.5q459 0 477 594h-434v106h551
v-776h-117q-2 41 -2 63q0 37 3 96.5t3 69.5h-8zM508 1790h510v-98h-510v98z" />
    <glyph glyph-name="uni1E21" unicode="&#x1e21;" horiz-adv-x="1173" 
d="M268 -80q10 -117 88 -179.5t213 -62.5q80 0 137.5 23.5t92 62t54.5 99.5t27 124t7 148v90q-55 -94 -145 -146t-205 -52q-194 0 -314.5 142t-120.5 378q0 232 128 382t329 150q110 0 189.5 -44t140.5 -140v162h117v-991q0 -243 -113.5 -364.5t-321.5 -121.5
q-195 0 -307 89.5t-123 250.5h127zM559 981q-153 0 -243.5 -118t-90.5 -316q0 -196 90 -309t244 -113q148 0 238 117.5t90 312.5q0 197 -89 311.5t-239 114.5zM322 1436h518v-99h-518v99z" />
    <glyph glyph-name="uni1E22" unicode="&#x1e22;" horiz-adv-x="1484" 
d="M322 1487v-670h841v670h123v-1487h-123v711h-841v-711h-123v1487h123zM811 1835v-172h-141v172h141z" />
    <glyph glyph-name="uni1E23" unicode="&#x1e23;" horiz-adv-x="1153" 
d="M287 899q122 180 356 180q73 0 133.5 -22t111.5 -69.5t80 -131.5t29 -199v-657h-118v637q0 344 -269 344q-46 0 -90 -13t-87 -43.5t-75 -76t-51.5 -117t-19.5 -160.5v-571h-117v1487h117v-588zM686 1487v-172h-141v172h141z" />
    <glyph glyph-name="uni1E24" unicode="&#x1e24;" horiz-adv-x="1484" 
d="M322 1487v-670h841v670h123v-1487h-123v711h-841v-711h-123v1487h123zM811 -176v-172h-141v172h141z" />
    <glyph glyph-name="uni1E25" unicode="&#x1e25;" horiz-adv-x="1153" 
d="M287 899q122 180 356 180q73 0 133.5 -22t111.5 -69.5t80 -131.5t29 -199v-657h-118v637q0 344 -269 344q-46 0 -90 -13t-87 -43.5t-75 -76t-51.5 -117t-19.5 -160.5v-571h-117v1487h117v-588zM653 -176v-172h-141v172h141z" />
    <glyph glyph-name="uni1E2A" unicode="&#x1e2a;" horiz-adv-x="1484" 
d="M322 1487v-670h841v670h123v-1487h-123v711h-841v-711h-123v1487h123zM743 -387q-122 0 -192 69t-72 187h105q10 -172 159 -172q148 0 158 172h107q-5 -119 -74.5 -187.5t-190.5 -68.5z" />
    <glyph glyph-name="uni1E2B" unicode="&#x1e2b;" horiz-adv-x="1153" 
d="M287 899q122 180 356 180q73 0 133.5 -22t111.5 -69.5t80 -131.5t29 -199v-657h-118v637q0 344 -269 344q-46 0 -90 -13t-87 -43.5t-75 -76t-51.5 -117t-19.5 -160.5v-571h-117v1487h117v-588zM586 -387q-115 0 -185.5 67t-70.5 189h102q0 -85 41.5 -129.5t112.5 -44.5
t112 44t41 130h103q0 -122 -70.5 -189t-185.5 -67z" />
    <glyph glyph-name="uni1E36" unicode="&#x1e36;" horiz-adv-x="1130" 
d="M322 1487v-1378h782v-109h-905v1487h123zM735 -176v-172h-141v172h141z" />
    <glyph glyph-name="uni1E37" unicode="&#x1e37;" horiz-adv-x="456" 
d="M287 1487v-1487h-117v1487h117zM297 -176v-172h-141v172h141z" />
    <glyph glyph-name="uni1E38" unicode="&#x1e38;" horiz-adv-x="1130" 
d="M322 1487v-1378h782v-109h-905v1487h123zM735 -176v-172h-141v172h141zM6 1790h510v-98h-510v98z" />
    <glyph glyph-name="uni1E39" unicode="&#x1e39;" horiz-adv-x="456" 
d="M287 1487v-1487h-117v1487h117zM297 -176v-172h-141v172h141zM4 1790h449v-98h-449v98z" />
    <glyph glyph-name="uni1E3A" unicode="&#x1e3a;" horiz-adv-x="1130" 
d="M322 1487v-1378h782v-109h-905v1487h123zM412 -213h510v-98h-510v98z" />
    <glyph glyph-name="uni1E3B" unicode="&#x1e3b;" horiz-adv-x="456" 
d="M287 1487v-1487h-117v1487h117zM4 -213h449v-98h-449v98z" />
    <glyph glyph-name="uni1E3E" unicode="&#x1e3e;" horiz-adv-x="1851" 
d="M397 1487l531 -1358l534 1358h191v-1487h-123v745l8 621h-14l-535 -1366h-133l-530 1366h-15l4 -621v-745h-116v1487h198zM1061 1855h160l-244 -225h-111z" />
    <glyph glyph-name="uni1E3F" unicode="&#x1e3f;" horiz-adv-x="1728" 
d="M813 0v657q0 171 -58.5 247.5t-183.5 76.5q-126 0 -205 -104t-79 -299v-578h-117v1057h117v-154q102 176 313 176q111 0 187.5 -55t105.5 -158q47 104 134 158.5t206 54.5q82 0 142.5 -20.5t98 -56.5t60 -91.5t31 -117.5t8.5 -144v-649h-117v657q0 171 -58.5 247.5
t-183.5 76.5q-127 0 -205.5 -104t-78.5 -299v-578h-117zM991 1487h154l-230 -252h-104z" />
    <glyph glyph-name="uni1E40" unicode="&#x1e40;" horiz-adv-x="1851" 
d="M397 1487l531 -1358l534 1358h191v-1487h-123v745l8 621h-14l-535 -1366h-133l-530 1366h-15l4 -621v-745h-116v1487h198zM999 1835v-172h-141v172h141z" />
    <glyph glyph-name="uni1E41" unicode="&#x1e41;" horiz-adv-x="1728" 
d="M813 0v657q0 171 -58.5 247.5t-183.5 76.5q-126 0 -205 -104t-79 -299v-578h-117v1057h117v-154q102 176 313 176q111 0 187.5 -55t105.5 -158q47 104 134 158.5t206 54.5q82 0 142.5 -20.5t98 -56.5t60 -91.5t31 -117.5t8.5 -144v-649h-117v657q0 171 -58.5 247.5
t-183.5 76.5q-127 0 -205.5 -104t-78.5 -299v-578h-117zM944 1487v-172h-141v172h141z" />
    <glyph glyph-name="uni1E42" unicode="&#x1e42;" horiz-adv-x="1851" 
d="M397 1487l531 -1358l534 1358h191v-1487h-123v745l8 621h-14l-535 -1366h-133l-530 1366h-15l4 -621v-745h-116v1487h198zM999 -176v-172h-141v172h141z" />
    <glyph glyph-name="uni1E43" unicode="&#x1e43;" horiz-adv-x="1728" 
d="M813 0v657q0 171 -58.5 247.5t-183.5 76.5q-126 0 -205 -104t-79 -299v-578h-117v1057h117v-154q102 176 313 176q111 0 187.5 -55t105.5 -158q47 104 134 158.5t206 54.5q82 0 142.5 -20.5t98 -56.5t60 -91.5t31 -117.5t8.5 -144v-649h-117v657q0 171 -58.5 247.5
t-183.5 76.5q-127 0 -205.5 -104t-78.5 -299v-578h-117zM940 -176v-172h-141v172h141z" />
    <glyph glyph-name="uni1E44" unicode="&#x1e44;" horiz-adv-x="1488" 
d="M391 1487l772 -1364h13l-5 622v742h119v-1487h-192l-774 1366h-13l4 -621v-745h-116v1487h192zM834 1835v-172h-142v172h142z" />
    <glyph glyph-name="uni1E45" unicode="&#x1e45;" horiz-adv-x="1153" 
d="M287 899q122 180 352 180q73 0 135 -22t113.5 -69.5t80.5 -131.5t29 -199v-657h-116v637q0 174 -62.5 260t-210.5 86q-47 0 -90 -11t-86 -40.5t-74.5 -74.5t-51 -118.5t-19.5 -167.5v-571h-117v1057h117v-158zM666 1487v-172h-142v172h142z" />
    <glyph glyph-name="uni1E46" unicode="&#x1e46;" horiz-adv-x="1488" 
d="M391 1487l772 -1364h13l-5 622v742h119v-1487h-192l-774 1366h-13l4 -621v-745h-116v1487h192zM813 -176v-172h-141v172h141z" />
    <glyph glyph-name="uni1E47" unicode="&#x1e47;" horiz-adv-x="1153" 
d="M287 899q122 180 352 180q73 0 135 -22t113.5 -69.5t80.5 -131.5t29 -199v-657h-116v637q0 174 -62.5 260t-210.5 86q-47 0 -90 -11t-86 -40.5t-74.5 -74.5t-51 -118.5t-19.5 -167.5v-571h-117v1057h117v-158zM649 -176v-172h-141v172h141z" />
    <glyph glyph-name="uni1E48" unicode="&#x1e48;" horiz-adv-x="1488" 
d="M391 1487l772 -1364h13l-5 622v742h119v-1487h-192l-774 1366h-13l4 -621v-745h-116v1487h192zM489 -213h510v-98h-510v98z" />
    <glyph glyph-name="uni1E49" unicode="&#x1e49;" horiz-adv-x="1153" 
d="M287 899q122 180 352 180q73 0 135 -22t113.5 -69.5t80.5 -131.5t29 -199v-657h-116v637q0 174 -62.5 260t-210.5 86q-47 0 -90 -11t-86 -40.5t-74.5 -74.5t-51 -118.5t-19.5 -167.5v-571h-117v1057h117v-158zM322 -213h518v-98h-518v98z" />
    <glyph glyph-name="uni1E56" unicode="&#x1e56;" horiz-adv-x="1234" 
d="M655 1487q141 0 230.5 -25t154.5 -84q134 -118 134 -311q0 -94 -38 -175t-110 -138q-70 -56 -159.5 -81.5t-223.5 -25.5h-321v-647h-123v1487h456zM651 754q118 0 186 19.5t121 72.5q86 86 86 223q0 163 -116 248q-53 37 -117 50t-186 13h-303v-626h329zM721 1835v-172
h-141v172h141z" />
    <glyph glyph-name="uni1E57" unicode="&#x1e57;" horiz-adv-x="1175" 
d="M1075 528q0 -127 -36.5 -233t-98 -174.5t-142 -106t-169.5 -37.5q-102 0 -191.5 47t-150.5 142v-578h-117v1469h117v-166q59 91 150.5 139.5t197.5 48.5q186 0 313 -151.5t127 -399.5zM952 528q0 204 -93 328.5t-243 124.5q-153 0 -243 -123.5t-90 -329.5
q0 -205 90 -329.5t243 -124.5q150 0 243 125.5t93 328.5zM684 1487v-172h-141v172h141z" />
    <glyph glyph-name="uni1E5A" unicode="&#x1e5a;" horiz-adv-x="1284" 
d="M629 1487q156 0 241 -23.5t146 -81.5q117 -106 117 -301q0 -119 -85.5 -225.5t-216.5 -134.5v-6q29 -7 54 -17.5t45 -26t35.5 -28.5t29 -35t22 -35t18.5 -39t14 -37t13 -38.5t11 -34.5l137 -424h-139l-143 453q-38 116 -117 165.5t-242 49.5h-247v-668h-123v1487h430z
M631 772q166 0 270.5 83.5t104.5 221.5q0 154 -89.5 228.5t-285.5 74.5h-309v-608h309zM760 -176v-172h-142v172h142z" />
    <glyph glyph-name="uni1E5B" unicode="&#x1e5b;" horiz-adv-x="710" 
d="M287 1057v-162q108 168 305 168q47 0 88 -8v-109q-58 10 -88 10q-150 0 -227.5 -112.5t-77.5 -300.5v-543h-117v1057h117zM297 -176v-172h-141v172h141z" />
    <glyph glyph-name="uni1E5C" unicode="&#x1e5c;" horiz-adv-x="1284" 
d="M629 1487q156 0 241 -23.5t146 -81.5q117 -106 117 -301q0 -119 -85.5 -225.5t-216.5 -134.5v-6q29 -7 54 -17.5t45 -26t35.5 -28.5t29 -35t22 -35t18.5 -39t14 -37t13 -38.5t11 -34.5l137 -424h-139l-143 453q-38 116 -117 165.5t-242 49.5h-247v-668h-123v1487h430z
M631 772q166 0 270.5 83.5t104.5 221.5q0 154 -89.5 228.5t-285.5 74.5h-309v-608h309zM760 -176v-172h-142v172h142zM371 1790h510v-98h-510v98z" />
    <glyph glyph-name="uni1E5D" unicode="&#x1e5d;" horiz-adv-x="710" 
d="M287 1057v-162q108 168 305 168q47 0 88 -8v-109q-58 10 -88 10q-150 0 -227.5 -112.5t-77.5 -300.5v-543h-117v1057h117zM297 -176v-172h-141v172h141zM162 1436h518v-99h-518v99z" />
    <glyph glyph-name="uni1E5E" unicode="&#x1e5e;" horiz-adv-x="1284" 
d="M629 1487q156 0 241 -23.5t146 -81.5q117 -106 117 -301q0 -119 -85.5 -225.5t-216.5 -134.5v-6q29 -7 54 -17.5t45 -26t35.5 -28.5t29 -35t22 -35t18.5 -39t14 -37t13 -38.5t11 -34.5l137 -424h-139l-143 453q-38 116 -117 165.5t-242 49.5h-247v-668h-123v1487h430z
M631 772q166 0 270.5 83.5t104.5 221.5q0 154 -89.5 228.5t-285.5 74.5h-309v-608h309zM436 -213h510v-98h-510v98z" />
    <glyph glyph-name="uni1E5F" unicode="&#x1e5f;" horiz-adv-x="710" 
d="M287 1057v-162q108 168 305 168q47 0 88 -8v-109q-58 10 -88 10q-150 0 -227.5 -112.5t-77.5 -300.5v-543h-117v1057h117zM4 -213h449v-98h-449v98z" />
    <glyph glyph-name="uni1E60" unicode="&#x1e60;" horiz-adv-x="1222" 
d="M231 494q8 -212 103 -313t291 -101q168 0 269 80t101 215q0 37 -7.5 69.5t-19.5 58t-32.5 48.5t-41 39.5t-51.5 32.5t-56 26.5t-63 22.5t-65 19.5t-69 18.5q-3 1 -4 1q-177 48 -249 82q-160 77 -199 224q-13 51 -13 113q0 168 129 273.5t348 105.5q244 0 364 -117.5
t128 -363.5h-129q-3 379 -363 379q-158 0 -253 -76t-95 -201q0 -52 14.5 -94t42.5 -72t63 -53t82 -40.5t92.5 -31.5t99.5 -28q6 -1 9 -2q90 -23 138.5 -38t121.5 -49.5t110.5 -74t67 -106t29.5 -152.5q0 -180 -137.5 -296t-361.5 -116q-252 0 -386 129.5t-141 387.5h133z
M670 1835v-172h-142v172h142z" />
    <glyph glyph-name="uni1E61" unicode="&#x1e61;" horiz-adv-x="1017" 
d="M786 733q0 127 -70.5 187.5t-199.5 60.5q-135 0 -206.5 -46t-71.5 -132q0 -31 9.5 -56.5t22.5 -43.5t39 -34t47 -25.5t58 -20t61.5 -15.5t67.5 -14q7 -1 10 -2q52 -11 78.5 -17.5t73 -21t71.5 -28t57.5 -37.5t49.5 -52t29 -68t12 -89q0 -141 -109 -221.5t-301 -80.5
q-200 0 -312 94.5t-116 272.5h119q4 -130 88 -200t221 -70q131 0 208 49t77 141q0 26 -6 48.5t-14 40t-24.5 33t-30 26t-39 21.5t-41.5 17t-48 14t-49 12t-53 11q-40 7 -61.5 11.5t-59 13.5t-59 17t-52.5 21.5t-49.5 28.5t-39.5 37t-32 47t-18.5 58t-7.5 72q0 130 108 208
t291 78q185 0 287 -84t102 -262h-117zM586 1487v-172h-142v172h142z" />
    <glyph glyph-name="uni1E62" unicode="&#x1e62;" horiz-adv-x="1222" 
d="M231 494q8 -212 103 -313t291 -101q168 0 269 80t101 215q0 37 -7.5 69.5t-19.5 58t-32.5 48.5t-41 39.5t-51.5 32.5t-56 26.5t-63 22.5t-65 19.5t-69 18.5q-3 1 -4 1q-177 48 -249 82q-160 77 -199 224q-13 51 -13 113q0 168 129 273.5t348 105.5q244 0 364 -117.5
t128 -363.5h-129q-3 379 -363 379q-158 0 -253 -76t-95 -201q0 -52 14.5 -94t42.5 -72t63 -53t82 -40.5t92.5 -31.5t99.5 -28q6 -1 9 -2q90 -23 138.5 -38t121.5 -49.5t110.5 -74t67 -106t29.5 -152.5q0 -180 -137.5 -296t-361.5 -116q-252 0 -386 129.5t-141 387.5h133z
M696 -176v-172h-141v172h141z" />
    <glyph glyph-name="uni1E63" unicode="&#x1e63;" horiz-adv-x="1017" 
d="M786 733q0 127 -70.5 187.5t-199.5 60.5q-135 0 -206.5 -46t-71.5 -132q0 -31 9.5 -56.5t22.5 -43.5t39 -34t47 -25.5t58 -20t61.5 -15.5t67.5 -14q7 -1 10 -2q52 -11 78.5 -17.5t73 -21t71.5 -28t57.5 -37.5t49.5 -52t29 -68t12 -89q0 -141 -109 -221.5t-301 -80.5
q-200 0 -312 94.5t-116 272.5h119q4 -130 88 -200t221 -70q131 0 208 49t77 141q0 26 -6 48.5t-14 40t-24.5 33t-30 26t-39 21.5t-41.5 17t-48 14t-49 12t-53 11q-40 7 -61.5 11.5t-59 13.5t-59 17t-52.5 21.5t-49.5 28.5t-39.5 37t-32 47t-18.5 58t-7.5 72q0 130 108 208
t291 78q185 0 287 -84t102 -262h-117zM584 -176v-172h-142v172h142z" />
    <glyph glyph-name="uni1E6A" unicode="&#x1e6a;" horiz-adv-x="1161" 
d="M25 1378v109h1112v-109h-496v-1378h-123v1378h-493zM649 1835v-172h-141v172h141z" />
    <glyph glyph-name="uni1E6B" unicode="&#x1e6b;" horiz-adv-x="606" 
d="M563 1057v-99h-221v-639q0 -53 2 -83.5t10 -62t24 -47t43 -25t68 -9.5q31 0 74 6v-98q-58 -10 -102 -10q-81 0 -137.5 30t-83.5 109q-15 46 -15 201v628h-190v99h190v231h117v-231h221zM354 1645v-172h-141v172h141z" />
    <glyph glyph-name="uni1E6C" unicode="&#x1e6c;" horiz-adv-x="1161" 
d="M25 1378v109h1112v-109h-496v-1378h-123v1378h-493zM649 -176v-172h-141v172h141z" />
    <glyph glyph-name="uni1E6D" unicode="&#x1e6d;" horiz-adv-x="606" 
d="M563 1057v-99h-221v-639q0 -53 2 -83.5t10 -62t24 -47t43 -25t68 -9.5q31 0 74 6v-98q-58 -10 -102 -10q-81 0 -137.5 30t-83.5 109q-15 46 -15 201v628h-190v99h190v231h117v-231h221zM453 -176v-172h-142v172h142z" />
    <glyph glyph-name="uni1E6E" unicode="&#x1e6e;" horiz-adv-x="1161" 
d="M25 1378v109h1112v-109h-496v-1378h-123v1378h-493zM326 -213h510v-98h-510v98z" />
    <glyph glyph-name="uni1E6F" unicode="&#x1e6f;" horiz-adv-x="606" 
d="M563 1057v-99h-221v-639q0 -53 2 -83.5t10 -62t24 -47t43 -25t68 -9.5q31 0 74 6v-98q-58 -10 -102 -10q-81 0 -137.5 30t-83.5 109q-15 46 -15 201v628h-190v99h190v231h117v-231h221zM160 -213h448v-98h-448v98z" />
    <glyph glyph-name="uni1E7C" unicode="&#x1e7c;" horiz-adv-x="1282" 
d="M164 1487l475 -1378h10l481 1378h127l-530 -1487h-174l-526 1487h137zM776 1651q-48 0 -138 48t-124 48q-68 0 -92 -94h-80q13 99 58.5 146.5t111.5 47.5q52 0 141 -48t121 -48q69 0 90 94h82q-13 -99 -58.5 -146.5t-111.5 -47.5z" />
    <glyph glyph-name="uni1E7D" unicode="&#x1e7d;" horiz-adv-x="1013" 
d="M506 109h10l332 948h127l-393 -1057h-150l-395 1057h135zM639 1282q-40 0 -89 24t-94.5 48t-74.5 24q-69 0 -92 -94h-80q13 99 58.5 147t111.5 48q51 0 139 -48.5t119 -48.5q69 0 90 95h82q-13 -99 -58.5 -147t-111.5 -48z" />
    <glyph glyph-name="Wgrave" unicode="&#x1e80;" horiz-adv-x="1884" 
d="M170 1487l338 -1378h10l326 1378h200l336 -1378h11l325 1378h121l-354 -1487h-203l-330 1384h-10l-326 -1384h-202l-373 1487h131zM893 1630l-244 225h160l195 -225h-111z" />
    <glyph glyph-name="wgrave" unicode="&#x1e81;" horiz-adv-x="1605" 
d="M168 1057l268 -948h10l269 948h180l276 -948h13l262 948h119l-314 -1057h-170l-268 952h-14l-277 -952h-170l-309 1057h125zM526 1487h154l180 -252h-106z" />
    <glyph glyph-name="Wacute" unicode="&#x1e82;" horiz-adv-x="1884" 
d="M170 1487l338 -1378h10l326 1378h200l336 -1378h11l325 1378h121l-354 -1487h-203l-330 1384h-10l-326 -1384h-202l-373 1487h131zM1065 1855h160l-244 -225h-111z" />
    <glyph glyph-name="wacute" unicode="&#x1e83;" horiz-adv-x="1605" 
d="M168 1057l268 -948h10l269 948h180l276 -948h13l262 948h119l-314 -1057h-170l-268 952h-14l-277 -952h-170l-309 1057h125zM915 1487h154l-229 -252h-105z" />
    <glyph glyph-name="Wdieresis" unicode="&#x1e84;" horiz-adv-x="1884" 
d="M170 1487l338 -1378h10l326 1378h200l336 -1378h11l325 1378h121l-354 -1487h-203l-330 1384h-10l-326 -1384h-202l-373 1487h131zM809 1835v-174h-139v174h139zM1206 1835v-174h-139v174h139z" />
    <glyph glyph-name="wdieresis" unicode="&#x1e85;" horiz-adv-x="1605" 
d="M168 1057l268 -948h10l269 948h180l276 -948h13l262 948h119l-314 -1057h-170l-268 952h-14l-277 -952h-170l-309 1057h125zM684 1487v-174h-139v174h139zM1061 1487v-174h-139v174h139z" />
    <glyph glyph-name="uni1E8A" unicode="&#x1e8a;" horiz-adv-x="1241" 
d="M43 1487h156l426 -633l422 633h147l-498 -725l535 -762h-156l-457 672l-458 -672h-146l533 762zM696 1835v-172h-141v172h141z" />
    <glyph glyph-name="uni1E8B" unicode="&#x1e8b;" horiz-adv-x="995" 
d="M55 1057h148l297 -426l299 426h139l-369 -500l408 -557h-148l-333 475l-336 -475h-142l406 551zM567 1487v-172h-141v172h141z" />
    <glyph glyph-name="uni1E92" unicode="&#x1e92;" horiz-adv-x="1161" 
d="M936 1378h-850v109h993v-107l-868 -1271h895v-109h-1043v106zM653 -176v-172h-141v172h141z" />
    <glyph glyph-name="uni1E93" unicode="&#x1e93;" horiz-adv-x="962" 
d="M743 958h-649v99h783v-105l-674 -854h698v-98h-835v104zM553 -176v-172h-141v172h141z" />
    <glyph glyph-name="uni1E97" unicode="&#x1e97;" horiz-adv-x="606" 
d="M563 1057v-99h-221v-639q0 -53 2 -83.5t10 -62t24 -47t43 -25t68 -9.5q31 0 74 6v-98q-58 -10 -102 -10q-81 0 -137.5 30t-83.5 109q-15 46 -15 201v628h-190v99h190v231h117v-231h221zM207 1645v-175h-139v175h139zM500 1645v-175h-140v175h140z" />
    <glyph glyph-name="Germandbls" unicode="&#x1e9e;" horiz-adv-x="1441" 
d="M657 365q5 -133 83 -209t223 -76q124 0 207 74.5t83 191.5q0 64 -18.5 113.5t-67 93.5t-77 63.5t-103.5 63.5q-5 4 -8.5 6t-7.5 4q-55 31 -88 51.5t-77 57t-68.5 72t-42 88t-17.5 114.5q0 112 68.5 188t168.5 109v8h-593v-1378h-123v1487h972v-101h-2q-99 -29 -162 -55.5
t-112 -62.5t-70.5 -83.5t-21.5 -111.5q0 -28 4.5 -53t17 -48t22.5 -40t33 -37.5t36 -32t44.5 -31t45 -28t49.5 -29.5q43 -24 67 -39t63 -41.5t62 -48.5t50.5 -55.5t42.5 -67t25.5 -78t10.5 -94.5q0 -156 -115.5 -264.5t-297.5 -108.5q-202 0 -309 102.5t-113 285.5h116z" />
    <glyph glyph-name="uni1EA0" unicode="&#x1ea0;" horiz-adv-x="1368" 
d="M766 1487l584 -1487h-136l-188 494h-692l-182 -494h-136l586 1487h164zM684 1393h-8l-301 -793h610zM750 -176v-172h-142v172h142z" />
    <glyph glyph-name="uni1EA1" unicode="&#x1ea1;" horiz-adv-x="1091" 
d="M141 739q0 152 115 246t295 94q94 0 161 -19t120 -64.5t79.5 -129.5t26.5 -207v-419q0 -133 20 -240h-120q-11 76 -13 154q-70 -96 -154 -136.5t-200 -40.5q-169 0 -272 78.5t-103 216.5q0 216 223 299q68 26 163.5 42.5t163 22.5t175.5 13v43q0 150 -68.5 217.5
t-205.5 67.5q-130 0 -206.5 -62t-76.5 -176h-123zM821 549q-318 -20 -450 -68q-88 -34 -119 -85t-31 -122q0 -95 70.5 -147.5t191.5 -52.5q162 0 250 115.5t88 310.5v49zM559 -176v-172h-141v172h141z" />
    <glyph glyph-name="uni1EB8" unicode="&#x1eb8;" horiz-adv-x="1212" 
d="M1092 1487v-109h-770v-557h735v-106h-735v-606h798v-109h-921v1487h893zM752 -176v-172h-142v172h142z" />
    <glyph glyph-name="uni1EB9" unicode="&#x1eb9;" horiz-adv-x="1120" 
d="M1018 313q-31 -158 -148.5 -247t-294.5 -89q-224 0 -349.5 147t-125.5 404q0 250 129.5 400.5t348.5 150.5q92 0 165.5 -27.5t124.5 -77t85.5 -121.5t50.5 -159.5t16 -191.5h-797q0 -195 98.5 -311.5t260.5 -116.5q126 0 210.5 66.5t102.5 172.5h123zM897 600
q-10 185 -95 283t-233 98q-150 0 -237.5 -95.5t-104.5 -285.5h670zM649 -176v-172h-141v172h141z" />
    <glyph glyph-name="uni1EBC" unicode="&#x1ebc;" horiz-adv-x="1212" 
d="M1092 1487v-109h-770v-557h735v-106h-735v-606h798v-109h-921v1487h893zM780 1651q-48 0 -138 48t-124 48q-68 0 -92 -94h-80q13 99 58.5 146.5t111.5 47.5q52 0 141 -48t121 -48q69 0 90 94h82q-13 -99 -58.5 -146.5t-111.5 -47.5z" />
    <glyph glyph-name="uni1EBD" unicode="&#x1ebd;" horiz-adv-x="1120" 
d="M1018 313q-31 -158 -148.5 -247t-294.5 -89q-224 0 -349.5 147t-125.5 404q0 250 129.5 400.5t348.5 150.5q92 0 165.5 -27.5t124.5 -77t85.5 -121.5t50.5 -159.5t16 -191.5h-797q0 -195 98.5 -311.5t260.5 -116.5q126 0 210.5 66.5t102.5 172.5h123zM897 600
q-10 185 -95 283t-233 98q-150 0 -237.5 -95.5t-104.5 -285.5h670zM715 1282q-40 0 -89 24t-94.5 48t-74.5 24q-69 0 -92 -94h-80q13 99 58.5 147t111.5 48q51 0 139 -48.5t119 -48.5q69 0 90 95h82q-13 -99 -58.5 -147t-111.5 -48z" />
    <glyph glyph-name="uni1ECA" unicode="&#x1eca;" horiz-adv-x="520" 
d="M322 1487v-1487h-123v1487h123zM330 -176v-172h-142v172h142z" />
    <glyph glyph-name="uni1ECB" unicode="&#x1ecb;" horiz-adv-x="456" 
d="M287 1057v-1057h-117v1057h117zM299 1487v-172h-141v172h141zM295 -176v-172h-141v172h141z" />
    <glyph glyph-name="uni1ECC" unicode="&#x1ecc;" horiz-adv-x="1527" 
d="M764 1509q145 0 267.5 -56.5t207.5 -157t132.5 -243t47.5 -309.5t-47.5 -309.5t-132.5 -243t-207.5 -157t-267.5 -56.5t-267.5 56.5t-207.5 157t-132.5 243t-47.5 309.5t47.5 309.5t132.5 243t207.5 157t267.5 56.5zM764 1405q-235 0 -380.5 -181.5t-145.5 -480.5
t145.5 -480t380.5 -181q234 0 380 181.5t146 479.5q0 299 -145.5 480.5t-380.5 181.5zM834 -176v-172h-142v172h142z" />
    <glyph glyph-name="uni1ECD" unicode="&#x1ecd;" horiz-adv-x="1163" 
d="M586 1079q214 0 346.5 -152.5t132.5 -398.5q0 -247 -133 -399t-348 -152t-350.5 152.5t-135.5 398.5t135 398.5t353 152.5zM582 981q-168 0 -264.5 -120t-96.5 -333q0 -216 94 -335t267 -119q171 0 265.5 119t94.5 335q0 213 -96.5 333t-263.5 120zM653 -176v-172h-141
v172h141z" />
    <glyph glyph-name="uni1EE4" unicode="&#x1ee4;" horiz-adv-x="1413" 
d="M305 600q0 -160 23 -251t88 -154q115 -115 291 -115q178 0 288 110q65 65 88 154.5t23 249.5v893h125v-930q0 -580 -524 -580q-525 0 -525 580v930h123v-887zM776 -176v-172h-141v172h141z" />
    <glyph glyph-name="uni1EE5" unicode="&#x1ee5;" horiz-adv-x="1148" 
d="M862 156q-128 -179 -352 -179q-59 0 -109.5 12.5t-96.5 43.5t-78 78t-51 120.5t-19 167.5v658h116v-639q0 -344 269 -344q59 0 113 22t102 68t77 129t29 192v572h117v-1057h-117v156zM610 -176v-172h-141v172h141z" />
    <glyph glyph-name="Ygrave" unicode="&#x1ef2;" horiz-adv-x="1251" 
d="M20 1487h152l461 -742l454 742h146l-547 -854v-633h-123v633zM582 1630l-244 225h160l194 -225h-110z" />
    <glyph glyph-name="ygrave" unicode="&#x1ef3;" horiz-adv-x="1011" 
d="M78 -311q44 -6 82 -6q48 0 83.5 12t61.5 32.5t50 62.5t41.5 85t43.5 117l-403 1065h133l332 -920h12l332 920h129l-457 -1190q-58 -151 -139 -219t-209 -68q-48 0 -92 8v101zM229 1487h154l180 -252h-106z" />
    <glyph glyph-name="uni1EF8" unicode="&#x1ef8;" horiz-adv-x="1251" 
d="M20 1487h152l461 -742l454 742h146l-547 -854v-633h-123v633zM762 1651q-48 0 -138 48t-124 48q-68 0 -92 -94h-80q13 99 58.5 146.5t111.5 47.5q52 0 141 -48t121 -48q69 0 90 94h82q-13 -99 -58.5 -146.5t-111.5 -47.5z" />
    <glyph glyph-name="uni1EF9" unicode="&#x1ef9;" horiz-adv-x="1011" 
d="M78 -311q44 -6 82 -6q48 0 83.5 12t61.5 32.5t50 62.5t41.5 85t43.5 117l-403 1065h133l332 -920h12l332 920h129l-457 -1190q-58 -151 -139 -219t-209 -68q-48 0 -92 8v101zM639 1282q-40 0 -89 24t-94.5 48t-74.5 24q-69 0 -92 -94h-80q13 99 58.5 147t111.5 48
q51 0 139 -48.5t119 -48.5q69 0 90 95h82q-13 -99 -58.5 -147t-111.5 -48z" />
    <glyph glyph-name="uni2000" unicode="&#x2000;" horiz-adv-x="1024" 
 />
    <glyph glyph-name="uni2001" unicode="&#x2001;" horiz-adv-x="2048" 
 />
    <glyph glyph-name="uni2002" unicode="&#x2002;" horiz-adv-x="1024" 
 />
    <glyph glyph-name="uni2003" unicode="&#x2003;" horiz-adv-x="2048" 
 />
    <glyph glyph-name="uni2004" unicode="&#x2004;" horiz-adv-x="681" 
 />
    <glyph glyph-name="uni2005" unicode="&#x2005;" horiz-adv-x="512" 
 />
    <glyph glyph-name="uni2006" unicode="&#x2006;" horiz-adv-x="342" 
 />
    <glyph glyph-name="uni2007" unicode="&#x2007;" 
 />
    <glyph glyph-name="uni2008" unicode="&#x2008;" horiz-adv-x="421" 
 />
    <glyph glyph-name="uni2009" unicode="&#x2009;" horiz-adv-x="256" 
 />
    <glyph glyph-name="uni200A" unicode="&#x200a;" horiz-adv-x="86" 
 />
    <glyph glyph-name="uni200B" unicode="&#x200b;" horiz-adv-x="0" 
 />
    <glyph glyph-name="figuredash" unicode="&#x2012;" 
d="M1094 631v-103h-899v103h899z" />
    <glyph glyph-name="endash" unicode="&#x2013;" horiz-adv-x="1181" 
d="M1040 631v-103h-899v103h899z" />
    <glyph glyph-name="emdash" unicode="&#x2014;" horiz-adv-x="1697" 
d="M1556 631v-103h-1415v103h1415z" />
    <glyph glyph-name="uni2015" unicode="&#x2015;" horiz-adv-x="1697" 
d="M1556 631v-103h-1415v103h1415z" />
    <glyph glyph-name="quoteleft" unicode="&#x2018;" horiz-adv-x="395" 
d="M117 1210l71 277h80l-61 -301h69v-152h-159v176z" />
    <glyph glyph-name="quoteright" unicode="&#x2019;" horiz-adv-x="382" 
d="M279 1311l-72 -277h-80l61 301h-69v152h160v-176z" />
    <glyph glyph-name="quotesinglbase" unicode="&#x201a;" horiz-adv-x="417" 
d="M289 0l-72 -276h-80l62 301h-70v151h160v-176z" />
    <glyph glyph-name="quotereversed" unicode="&#x201b;" horiz-adv-x="382" 
d="M264 1487v-152h-69l61 -301h-80l-72 277v176h160z" />
    <glyph glyph-name="quotedblleft" unicode="&#x201c;" horiz-adv-x="690" 
d="M117 1210l71 277h80l-61 -301h69v-152h-159v176zM412 1202l71 285h80l-61 -301h69v-152h-159v168z" />
    <glyph glyph-name="quotedblright" unicode="&#x201d;" horiz-adv-x="677" 
d="M573 1311l-71 -277h-80l61 301h-69v152h159v-176zM279 1319l-72 -285h-80l61 301h-69v152h160v-168z" />
    <glyph glyph-name="quotedblbase" unicode="&#x201e;" horiz-adv-x="712" 
d="M584 0l-72 -276h-80l62 301h-70v151h160v-176zM289 8l-72 -284h-80l62 301h-70v151h160v-168z" />
    <glyph glyph-name="uni201F" unicode="&#x201f;" horiz-adv-x="677" 
d="M264 1487v-152h-69l61 -301h-80l-72 277v176h160zM559 1487v-152h-70l62 -301h-80l-72 285v168h160z" />
    <glyph glyph-name="dagger" unicode="&#x2020;" horiz-adv-x="968" 
d="M55 965v102h373v420h117v-420h368v-102h-368v-967h-117v967h-373z" />
    <glyph glyph-name="daggerdbl" unicode="&#x2021;" horiz-adv-x="1046" 
d="M467 297v668h-373v102h373v420h117v-420h368v-102h-368v-668h368v-104h-368v-429h-117v429h-373v104h373z" />
    <glyph glyph-name="bullet" unicode="&#x2022;" horiz-adv-x="720" 
d="M557 725q0 -87 -54.5 -143t-140.5 -56t-142 56.5t-56 142.5t56 141.5t142 55.5t140.5 -55.5t54.5 -141.5z" />
    <glyph glyph-name="ellipsis" unicode="&#x2026;" horiz-adv-x="1175" 
d="M293 176v-176h-164v176h164zM670 176v-176h-164v176h164zM1047 176v-176h-164v176h164z" />
    <glyph glyph-name="perthousand" unicode="&#x2030;" horiz-adv-x="2525" 
d="M377 1413q138 0 217.5 -110t79.5 -312q0 -209 -78.5 -317.5t-218.5 -108.5q-138 0 -217.5 111t-79.5 315q0 202 79.5 312t217.5 110zM377 1327q-180 0 -180 -336q0 -340 180 -340q178 0 178 340q0 336 -178 336zM1307 1427l-756 -1456h-98l753 1456h101zM1395 825
q138 0 217.5 -110t79.5 -312q0 -209 -78.5 -317.5t-218.5 -108.5q-138 0 -217.5 111t-79.5 315q0 202 79.5 312t217.5 110zM1395 739q-181 0 -181 -336q0 -164 45 -252t136 -88q178 0 178 340q0 336 -178 336zM2148 825q138 0 217.5 -110t79.5 -312q0 -209 -78.5 -317.5
t-218.5 -108.5q-138 0 -217.5 111t-79.5 315q0 202 79.5 312t217.5 110zM2148 739q-180 0 -180 -336q0 -340 180 -340q179 0 179 340q0 336 -179 336z" />
    <glyph glyph-name="minute" unicode="&#x2032;" horiz-adv-x="374" 
d="M262 1399l-43 -451h-61l-47 451h151z" />
    <glyph glyph-name="second" unicode="&#x2033;" horiz-adv-x="634" 
d="M262 1399l-43 -451h-61l-47 451h151zM522 1399l-43 -451h-61l-47 451h151z" />
    <glyph glyph-name="guilsinglleft" unicode="&#x2039;" horiz-adv-x="516" 
d="M299 969h111l-203 -408l203 -418h-111l-213 418z" />
    <glyph glyph-name="guilsinglright" unicode="&#x203a;" horiz-adv-x="516" 
d="M106 143l201 418l-201 408h109l215 -408l-215 -418h-109z" />
    <glyph glyph-name="fraction" unicode="&#x2044;" horiz-adv-x="264" 
d="M553 1427l-756 -1456h-98l754 1456h100z" />
    <glyph glyph-name="uni2070" unicode="&#x2070;" horiz-adv-x="753" 
d="M377 1804q138 0 217.5 -110t79.5 -312q0 -209 -78.5 -317.5t-218.5 -108.5q-138 0 -217.5 111t-79.5 315q0 202 79.5 312t217.5 110zM377 1718q-180 0 -180 -336q0 -340 180 -340q178 0 178 340q0 336 -178 336z" />
    <glyph glyph-name="uni2074" unicode="&#x2074;" horiz-adv-x="729" 
d="M530 1192v-213h-108v213h-375v84l334 514h149v-510h148v-88h-148zM422 1280q0 254 8 410h-8l-260 -410h260z" />
    <glyph glyph-name="uni2075" unicode="&#x2075;" horiz-adv-x="710" 
d="M598 1790v-90h-375l-30 -264q41 47 83.5 66.5t102.5 19.5q117 0 191.5 -78.5t74.5 -198.5q0 -125 -82 -206t-209 -81q-117 0 -191 63t-91 173h114q8 -67 54 -108.5t114 -41.5q78 0 127 54.5t49 142.5q0 85 -48.5 140t-123.5 55q-119 0 -159 -117l-121 10l59 461h461z" />
    <glyph glyph-name="uni2076" unicode="&#x2076;" horiz-adv-x="739" 
d="M537 1579q-16 139 -146 139q-92 0 -144 -82.5t-52 -222.5v-29q70 119 208 119q109 0 186 -71.5t77 -194.5q0 -121 -85 -201t-210 -80q-142 0 -216.5 107t-74.5 305q0 205 82 320.5t229 115.5q115 0 182.5 -58t81.5 -167h-118zM383 1419q-74 0 -124 -52t-50 -130
q0 -84 50 -139.5t124 -55.5q72 0 119 55.5t47 137.5t-45.5 133t-120.5 51z" />
    <glyph glyph-name="uni2077" unicode="&#x2077;" horiz-adv-x="616" 
d="M164 979q80 357 291 723h-416v88h536v-76q-220 -387 -290 -735h-121z" />
    <glyph glyph-name="uni2078" unicode="&#x2078;" horiz-adv-x="737" 
d="M371 956q-129 0 -212 66.5t-83 169.5q0 158 176 199v8q-72 17 -112 65t-40 117q0 100 74 161.5t197 61.5q121 0 194.5 -61.5t73.5 -161.5q0 -69 -41 -117t-113 -65v-8q177 -41 177 -199q0 -104 -81 -170t-210 -66zM371 1042q77 0 125.5 45t48.5 113q0 67 -48 108.5
t-126 41.5q-79 0 -127.5 -41t-48.5 -109t49 -113t127 -45zM371 1436q71 0 113 38.5t42 102.5q0 62 -42 101.5t-113 39.5q-73 0 -116.5 -39.5t-43.5 -101.5q0 -63 44 -102t116 -39z" />
    <glyph glyph-name="uni2079" unicode="&#x2079;" horiz-adv-x="735" 
d="M193 1184q6 -64 46 -103t105 -39q92 0 144.5 82t52.5 224v49q-65 -111 -199 -111q-118 0 -192 69t-74 185q0 114 79.5 189t206.5 75q293 0 293 -407q0 -209 -80.5 -325t-226.5 -116q-116 0 -187.5 61.5t-82.5 166.5h115zM356 1718q-72 0 -119 -49t-47 -127
q0 -74 46.5 -124t117.5 -50q73 0 121.5 49t48.5 121q0 78 -48 129t-120 51z" />
    <glyph glyph-name="uni2080" unicode="&#x2080;" horiz-adv-x="753" 
d="M377 524q138 0 217.5 -110t79.5 -312q0 -209 -78.5 -317.5t-218.5 -108.5q-138 0 -217.5 111t-79.5 315q0 202 79.5 312t217.5 110zM377 438q-180 0 -180 -336q0 -340 180 -340q178 0 178 340q0 336 -178 336z" />
    <glyph glyph-name="uni2081" unicode="&#x2081;" horiz-adv-x="454" 
d="M47 295v72q103 4 146 36t49 107h92v-811h-107v596h-180z" />
    <glyph glyph-name="uni2082" unicode="&#x2082;" horiz-adv-x="702" 
d="M78 -301q-2 16 -2 33q0 121 65 202q57 71 185 148q101 61 140.5 106.5t39.5 106.5q0 66 -41 105.5t-109 39.5q-77 0 -120 -50.5t-48 -143.5h-110q1 131 79 204.5t208 73.5q121 0 189.5 -61.5t68.5 -167.5q0 -78 -49 -139t-168 -136t-164 -126q-34 -39 -43 -101v-4h428
v-90h-549z" />
    <glyph glyph-name="uni2083" unicode="&#x2083;" horiz-adv-x="731" 
d="M184 -47q0 -86 49 -138.5t129 -52.5q74 0 123.5 46.5t49.5 113.5q0 69 -46.5 106.5t-132.5 37.5q-12 0 -39 -3v93q18 -2 29 -2q87 0 133.5 36t46.5 103q0 66 -44 105.5t-117 39.5q-78 0 -121.5 -46.5t-48.5 -131.5h-113q4 126 80.5 195t208.5 69q121 0 195.5 -61
t74.5 -160q0 -66 -41.5 -117.5t-107.5 -68.5v-8q161 -40 161 -193q0 -104 -84.5 -172t-212.5 -68q-130 0 -208 74.5t-78 202.5h114z" />
    <glyph glyph-name="uni2084" unicode="&#x2084;" horiz-adv-x="729" 
d="M532 -88v-213h-108v213h-375v84l334 514h149v-510h148v-88h-148zM424 0q0 254 8 410h-8l-260 -410h260z" />
    <glyph glyph-name="uni2085" unicode="&#x2085;" horiz-adv-x="710" 
d="M598 510v-90h-375l-30 -264q41 47 83.5 66.5t102.5 19.5q117 0 191.5 -78.5t74.5 -198.5q0 -125 -82 -206t-209 -81q-117 0 -191 63t-91 173h114q8 -67 54 -108.5t114 -41.5q78 0 127 54.5t49 142.5q0 85 -48.5 140t-123.5 55q-119 0 -159 -117l-121 10l59 461h461z" />
    <glyph glyph-name="uni2086" unicode="&#x2086;" horiz-adv-x="739" 
d="M537 299q-16 139 -146 139q-92 0 -144 -82.5t-52 -222.5v-29q70 119 208 119q109 0 186 -71.5t77 -194.5q0 -121 -85 -201t-210 -80q-142 0 -216.5 107t-74.5 305q0 205 82 320.5t229 115.5q115 0 182.5 -58t81.5 -167h-118zM383 139q-74 0 -124 -52t-50 -130
q0 -84 50 -139.5t124 -55.5q72 0 119 55.5t47 137.5t-45.5 133t-120.5 51z" />
    <glyph glyph-name="uni2087" unicode="&#x2087;" horiz-adv-x="616" 
d="M164 -301q80 357 291 723h-416v88h536v-76q-220 -387 -290 -735h-121z" />
    <glyph glyph-name="uni2088" unicode="&#x2088;" horiz-adv-x="737" 
d="M371 -324q-129 0 -212 66.5t-83 169.5q0 158 176 199v8q-72 17 -112 65t-40 117q0 100 74 161.5t197 61.5q121 0 194.5 -61.5t73.5 -161.5q0 -69 -41 -117t-113 -65v-8q177 -41 177 -199q0 -104 -81 -170t-210 -66zM371 -238q77 0 125.5 45t48.5 113q0 67 -48 108.5
t-126 41.5q-79 0 -127.5 -41t-48.5 -109t49 -113t127 -45zM371 156q71 0 113 38.5t42 102.5q0 62 -42 101.5t-113 39.5q-73 0 -116.5 -39.5t-43.5 -101.5q0 -63 44 -102t116 -39z" />
    <glyph glyph-name="uni2089" unicode="&#x2089;" horiz-adv-x="735" 
d="M193 -96q6 -64 46 -103t105 -39q92 0 144.5 82t52.5 224v49q-65 -111 -199 -111q-118 0 -192 69t-74 185q0 114 79.5 189t206.5 75q293 0 293 -407q0 -209 -80.5 -325t-226.5 -116q-116 0 -187.5 61.5t-82.5 166.5h115zM356 438q-72 0 -119 -49t-47 -127q0 -74 46.5 -124
t117.5 -50q73 0 121.5 49t48.5 121q0 78 -48 129t-120 51z" />
    <glyph glyph-name="colonmonetary" unicode="&#x20a1;" horiz-adv-x="1257" 
d="M1053 948q-23 212 -162 303l-127 -1157q112 28 182.5 120t114.5 243h123q-49 -210 -153 -329.5t-279 -143.5l-21 -189h-94l20 182q-84 0 -182 25l-22 -207h-95l27 246q-281 155 -281 661q0 286 108.5 473t322.5 230l20 176h94l-18 -164q14 2 41 2q66 0 141 -16l21 178h94
l-23 -207q229 -104 271 -426h-123zM487 115q67 -33 175 -33h6l133 1214q-62 19 -129 19q-22 0 -54 -4zM233 702q0 -380 166 -530l123 1122q-150 -46 -219.5 -195t-69.5 -397z" />
    <glyph glyph-name="uni20A6" unicode="&#x20a6;" horiz-adv-x="1396" 
d="M1157 1399v-506h135v-94h-135v-217h135v-95h-135v-487h-131l-274 487h-398v-487h-114v487h-136v95h136v217h-136v94h136v506h131l288 -506h383v506h115zM354 582h344l-123 217h-223q2 -59 2 -176v-41zM1044 582q-2 72 -2 213v4h-329l123 -217h208zM346 1194
q0 -105 4 -301h172l-168 301h-8zM1044 487h-153l151 -266h9z" />
    <glyph glyph-name="Euro" unicode="&#x20ac;" horiz-adv-x="1351" 
d="M215 868q33 255 176.5 403t380.5 148q404 0 477 -434h-123q-26 154 -116 242t-238 88q-367 0 -428 -447h565l-10 -96h-563q-2 -25 -2 -74q0 -61 2 -92h536l-10 -96h-516q32 -204 135 -316t281 -112q150 0 241 77t132 240h122q-90 -422 -495 -422q-236 0 -374 140.5
t-171 392.5h-145l10 96h125q-2 31 -2 92q0 49 2 74h-135l10 96h133z" />
    <glyph glyph-name="uni20B2" unicode="&#x20b2;" horiz-adv-x="1245" 
d="M578 -20q-231 17 -351.5 205.5t-120.5 510.5q0 309 123.5 499.5t348.5 219.5v164h98v-158q180 -6 294.5 -109.5t151.5 -295.5h-123q-29 136 -115 217.5t-208 87.5v-592h438v-729h-82l-24 180q-46 -86 -134.5 -137.5t-197.5 -62.5v-183h-98v183zM229 696q0 -255 91 -424.5
t258 -193.5v1237q-167 -31 -258 -193.5t-91 -425.5zM676 631v-551q146 18 239 136t93 316v99h-332z" />
    <glyph glyph-name="uni20B4" unicode="&#x20b4;" horiz-adv-x="1249" 
d="M528 606h619v-96h-744q-106 -88 -106 -205q0 -106 88 -166.5t227 -60.5q157 0 258 71.5t131 215.5h115q-30 -181 -156 -284.5t-337 -103.5q-123 0 -222 34t-161 107.5t-62 176.5q0 116 86 215h-168v96h273q30 21 61.5 40t74.5 42t54 29l94 51l64 35h-621v96h742
q104 85 104 201q0 100 -81.5 160.5t-225.5 60.5q-300 0 -344 -274h-117q24 188 150 281t315 93q195 0 308.5 -85.5t113.5 -233.5q0 -102 -88 -203h174v-96h-279q-66 -49 -206 -125z" />
    <glyph glyph-name="uni20B5" unicode="&#x20b5;" horiz-adv-x="1257" 
d="M1053 948q-18 159 -106 256t-242 109v-1229q136 13 221 108t135 265h123q-51 -222 -167 -343.5t-312 -133.5v-183h-99v183q-130 10 -227 65.5t-157 151t-89 221.5t-29 284q0 311 125.5 500t376.5 213v166h99v-162q409 -20 471 -471h-123zM233 702q0 -132 21 -238
t64.5 -188.5t116.5 -132t171 -59.5v1227q-196 -24 -284.5 -176.5t-88.5 -432.5z" />
    <glyph glyph-name="uni20B8" unicode="&#x20b8;" horiz-adv-x="1286" 
d="M82 1001v103h1122v-103h-499v-1001h-123v1001h-500zM1204 1399v-103h-1122v103h1122z" />
    <glyph glyph-name="uni20B9" unicode="&#x20b9;" horiz-adv-x="1183" 
d="M797 1055q-8 60 -34 104t-61.5 69t-88 40t-102 19.5t-114.5 4.5h-315v107h1012v-103h-312q133 -71 148 -241h162v-103h-164q-18 -115 -104.5 -195.5t-213.5 -107.5v-6q105 -23 157 -77.5t85 -147.5l139 -418h-135l-131 393q-39 112 -126 159.5t-218 47.5h-184v105h190
q107 0 192.5 24.5t145 81.5t72.5 141h-707v103h707z" />
    <glyph glyph-name="uni20BA" unicode="&#x20ba;" horiz-adv-x="1198" 
d="M104 856l164 96v447h115v-379l383 225v-104l-383 -226v-190l383 225v-104l-383 -225v-523h133q95 0 182 34t159 100t115.5 178t43.5 254h119q0 -198 -70 -346.5t-211 -233t-338 -84.5h-248v555l-164 -96v102l164 96v193l-164 -96v102z" />
    <glyph glyph-name="uni20BD" unicode="&#x20bd;" horiz-adv-x="1239" 
d="M248 711v688h409q83 0 156 -12.5t140.5 -42t116 -74.5t77.5 -114.5t29 -156.5q0 -81 -29 -148t-79 -112t-118 -76t-144.5 -45t-160.5 -14h-274v-186h547v-107h-547v-311h-123v311h-144v107h144v186h-144v107h144zM653 711q81 0 148 15t124 47t89.5 90t32.5 138
q0 83 -31.5 141.5t-91 90.5t-131.5 45.5t-166 13.5h-256v-581h282z" />
    <glyph glyph-name="uni20BF" unicode="&#x20bf;" horiz-adv-x="1216" 
d="M395 1399v180h90v-180h131q71 0 123 -8v188h90v-205q246 -69 246 -334q0 -110 -63 -195t-183 -116v-8q287 -46 287 -336q0 -153 -78 -242.5t-209 -119.5v-230h-90v213q-59 -6 -114 -6h-140v-207h-90v207h-196v1399h196zM625 90q360 0 360 295q0 63 -17 111t-58 88.5
t-119 62t-191 21.5h-287v-578h312zM600 766q80 0 143.5 14.5t113.5 46t77 85.5t27 128q0 138 -85.5 199t-267.5 61h-295v-534h287z" />
    <glyph glyph-name="uni2113" unicode="&#x2113;" horiz-adv-x="872" 
d="M829 109q-131 -127 -284 -127q-166 0 -242 129t-76 378l-141 -92l-39 84l182 105v436q0 201 78.5 298t212.5 97q114 0 179 -64.5t65 -170.5q0 -61 -11 -114.5t-39 -106t-57.5 -95t-85 -99.5t-102.5 -100t-127 -114v-43q0 -32 0.5 -54.5t2.5 -60t5.5 -65.5t11 -63.5
t18 -61.5t26.5 -53t36 -44t48 -27.5t61 -10.5q64 0 118 27.5t111 86.5zM340 659q103 99 156.5 155t96 116t57 110.5t14.5 114.5q0 102 -40 143t-114 41q-170 0 -170 -301v-379z" />
    <glyph glyph-name="uni2116" unicode="&#x2116;" horiz-adv-x="2390" 
d="M2257 539v-76h-670v76h670zM1923 664q-173 0 -273 112t-100 314t99.5 311.5t273.5 109.5q173 0 273 -112t100 -314t-99.5 -311.5t-273.5 -109.5zM1923 739q121 0 194.5 89.5t73.5 256.5q0 169 -73.5 260t-194.5 91q-122 0 -195 -89.5t-73 -256.5q0 -169 73 -260t195 -91z
M391 1487l772 -1364h13l-5 622v742h119v-1487h-192l-774 1366h-13l4 -621v-745h-116v1487h192z" />
    <glyph glyph-name="uni2117" unicode="&#x2117;" horiz-adv-x="1740" 
d="M717 297h-119v877h305q139 0 220 -70.5t81 -192.5q0 -133 -93.5 -206.5t-231.5 -73.5h-162v-334zM879 727q98 0 151 46t53 136q0 168 -204 168h-162v-350h162zM207 748q0 -189 90 -345t242 -243.5t331 -87.5q134 0 256 51.5t212 140.5t143 215.5t53 268.5q0 141 -53 267
t-143 214.5t-212 140t-256 51.5q-179 0 -331 -87t-242 -242.5t-90 -343.5zM104 748q0 215 100.5 391t276 276.5t389.5 100.5t389.5 -100.5t276 -276.5t100.5 -391q0 -162 -59 -305t-161 -245t-244 -161.5t-302 -59.5t-302 59.5t-244 161.5t-161 245t-59 305z" />
    <glyph glyph-name="trademark" unicode="&#x2122;" horiz-adv-x="1818" 
d="M57 1393v94h631v-94h-260v-709h-109v709h-262zM1548 1391h-10l-244 -707h-127l-264 707h-10v-707h-100v803h194l250 -684l236 684h182v-803h-107v707z" />
    <glyph glyph-name="estimated" unicode="&#x212e;" horiz-adv-x="1236" 
d="M311 186q141 -153 338 -153q223 0 352 166l50 -45q-73 -96 -171 -137.5t-233 -41.5q-155 0 -280 74t-194 200t-69 277q0 152 69 278.5t194 200.5t280 74q148 0 266 -74.5t183 -204t65 -290.5h-850v-324zM958 870q-126 150 -323 150q-186 0 -324 -150v-301h647v301z" />
    <glyph glyph-name="uni2150" unicode="&#x2150;" horiz-adv-x="1335" 
d="M47 1184v71q102 4 145.5 36.5t49.5 107.5h92v-811h-107v596h-180zM1008 1427l-756 -1456h-98l753 1456h101zM883 0q79 357 291 723h-416v88h536v-76q-220 -387 -290 -735h-121z" />
    <glyph glyph-name="uni2151" unicode="&#x2151;" horiz-adv-x="1454" 
d="M47 1184v71q102 4 145.5 36.5t49.5 107.5h92v-811h-107v596h-180zM1008 1427l-756 -1456h-98l753 1456h101zM911 205q6 -64 46.5 -103t105.5 -39q92 0 144.5 82t52.5 224v49q-64 -111 -199 -111q-118 0 -192 69t-74 185q0 114 79.5 189t206.5 75q293 0 293 -407
q0 -209 -80.5 -325t-226.5 -116q-116 0 -187.5 61.5t-82.5 166.5h114zM1075 739q-72 0 -119 -49t-47 -127q0 -74 46.5 -124t117.5 -50q73 0 121.5 49t48.5 121q0 78 -48 129t-120 51z" />
    <glyph glyph-name="uni2152" unicode="&#x2152;" horiz-adv-x="1927" 
d="M47 1184v71q102 4 145.5 36.5t49.5 107.5h92v-811h-107v596h-180zM1008 1427l-756 -1456h-98l753 1456h101zM766 596v72q103 4 146 36t49 107h92v-811h-107v596h-180zM1550 825q138 0 217.5 -110t79.5 -312q0 -209 -78.5 -317.5t-218.5 -108.5q-138 0 -217.5 111
t-79.5 315q0 202 79.5 312t217.5 110zM1550 739q-180 0 -180 -336q0 -340 180 -340q179 0 179 340q0 336 -179 336z" />
    <glyph glyph-name="onethird" unicode="&#x2153;" horiz-adv-x="1449" 
d="M47 1184v71q102 4 145.5 36.5t49.5 107.5h92v-811h-107v596h-180zM1008 1427l-756 -1456h-98l753 1456h101zM903 254q0 -86 49 -138.5t129 -52.5q74 0 123 46.5t49 113.5q0 69 -46 106.5t-132 37.5q-21 0 -39 -2v92q18 -2 29 -2q87 0 133.5 36t46.5 103q0 66 -44 105.5
t-118 39.5q-78 0 -121.5 -46.5t-48.5 -131.5h-112q4 126 80.5 195t208.5 69q121 0 195.5 -61t74.5 -160q0 -66 -42 -117.5t-108 -68.5v-8q162 -40 162 -193q0 -104 -84.5 -172t-212.5 -68q-130 0 -208.5 74.5t-78.5 202.5h115z" />
    <glyph glyph-name="twothirds" unicode="&#x2154;" horiz-adv-x="1697" 
d="M78 588q-2 16 -2 33q0 121 65 202q57 71 185 148q101 61 140.5 106.5t39.5 106.5q0 66 -41 105.5t-109 39.5q-77 0 -120 -50.5t-48 -143.5h-110q1 131 79 204.5t208 73.5q121 0 189.5 -61.5t68.5 -167.5q0 -78 -49 -139t-168 -136q-117 -73 -164 -127q-34 -40 -43 -100
v-4h428v-90h-549zM1255 1427l-755 -1456h-99l754 1456h100zM1151 254q0 -86 49 -138.5t129 -52.5q74 0 123 46.5t49 113.5q0 69 -46 106.5t-132 37.5q-21 0 -39 -2v92q18 -2 29 -2q87 0 133.5 36t46.5 103q0 66 -44 105.5t-118 39.5q-78 0 -121.5 -46.5t-48.5 -131.5h-112
q4 127 80 195.5t208 68.5q121 0 196 -61.5t75 -159.5q0 -66 -42 -117.5t-108 -68.5v-8q162 -40 162 -193q0 -104 -84.5 -172t-212.5 -68q-130 0 -208.5 74.5t-78.5 202.5h115z" />
    <glyph glyph-name="uni2155" unicode="&#x2155;" horiz-adv-x="1429" 
d="M47 1184v71q102 4 145.5 36.5t49.5 107.5h92v-811h-107v596h-180zM1008 1427l-756 -1456h-98l753 1456h101zM1317 811v-90h-375l-31 -264q41 47 84 66.5t103 19.5q117 0 191.5 -78.5t74.5 -198.5q0 -125 -82 -205.5t-209 -80.5q-117 0 -191 62.5t-91 172.5h114
q8 -66 53.5 -107.5t114.5 -41.5q78 0 127 54t49 142q0 85 -48.5 140t-123.5 55q-119 0 -159 -117l-121 10l59 461h461z" />
    <glyph glyph-name="uni2156" unicode="&#x2156;" horiz-adv-x="1677" 
d="M78 588q-2 16 -2 33q0 121 65 202q57 71 185 148q101 61 140.5 106.5t39.5 106.5q0 66 -41 105.5t-109 39.5q-77 0 -120 -50.5t-48 -143.5h-110q1 131 79 204.5t208 73.5q121 0 189.5 -61.5t68.5 -167.5q0 -78 -49 -139t-168 -136q-117 -73 -164 -127q-34 -40 -43 -100
v-4h428v-90h-549zM1255 1427l-755 -1456h-99l754 1456h100zM1565 811v-90h-375l-31 -264q41 47 84 66.5t103 19.5q117 0 191.5 -78.5t74.5 -198.5q0 -125 -82 -205.5t-209 -80.5q-117 0 -191.5 62.5t-91.5 172.5h115q8 -66 53.5 -107.5t114.5 -41.5q78 0 127 54t49 142
q0 85 -48.5 140t-123.5 55q-120 0 -160 -117l-121 10l60 461h461z" />
    <glyph glyph-name="uni2157" unicode="&#x2157;" horiz-adv-x="1705" 
d="M184 842q0 -86 49 -138.5t129 -52.5q74 0 123.5 46.5t49.5 113.5q0 69 -46.5 106t-132.5 37q-21 0 -39 -2v92q18 -2 29 -2q86 0 133 36.5t47 103.5q0 66 -44 105.5t-117 39.5q-78 0 -121.5 -46.5t-48.5 -131.5h-113q4 126 80.5 195t208.5 69q121 0 195.5 -61t74.5 -160
q0 -66 -41.5 -117.5t-107.5 -68.5v-9q161 -40 161 -192q0 -104 -84.5 -172t-212.5 -68q-130 0 -208 74.5t-78 202.5h114zM1284 1427l-756 -1456h-98l754 1456h100zM1593 811v-90h-374l-31 -264q41 47 83.5 66.5t102.5 19.5q117 0 191.5 -78.5t74.5 -198.5
q0 -125 -81.5 -205.5t-208.5 -80.5q-117 0 -191.5 62.5t-91.5 172.5h115q8 -66 53.5 -107.5t114.5 -41.5q78 0 127 54t49 142q0 85 -48.5 140t-123.5 55q-120 0 -160 -117l-121 10l60 461h460z" />
    <glyph glyph-name="uni2158" unicode="&#x2158;" horiz-adv-x="1703" 
d="M530 801v-213h-108v213h-375v84l334 514h149v-510h148v-88h-148zM422 889q0 253 8 409h-8l-260 -409h260zM1282 1427l-756 -1456h-98l754 1456h100zM1591 811v-90h-374l-31 -264q41 47 83.5 66.5t102.5 19.5q117 0 191.5 -78.5t74.5 -198.5q0 -125 -81.5 -205.5
t-208.5 -80.5q-117 0 -191.5 62.5t-91.5 172.5h115q8 -66 53.5 -107.5t114.5 -41.5q78 0 127 54t49 142q0 85 -48.5 140t-123.5 55q-120 0 -160 -117l-121 10l59 461h461z" />
    <glyph glyph-name="uni2159" unicode="&#x2159;" horiz-adv-x="1458" 
d="M47 1184v71q102 4 145.5 36.5t49.5 107.5h92v-811h-107v596h-180zM1008 1427l-756 -1456h-98l753 1456h101zM1255 600q-16 139 -145 139q-92 0 -144.5 -82.5t-52.5 -222.5v-28q69 118 209 118q109 0 185.5 -71.5t76.5 -194.5q0 -121 -84.5 -201t-209.5 -80
q-142 0 -216.5 107t-74.5 305q0 205 82 320.5t229 115.5q115 0 182.5 -58t81.5 -167h-119zM1102 440q-74 0 -124 -52t-50 -130q0 -84 50 -139.5t124 -55.5q72 0 119 55.5t47 137.5t-45.5 133t-120.5 51z" />
    <glyph glyph-name="uni215A" unicode="&#x215a;" horiz-adv-x="1714" 
d="M598 1399v-90h-375l-30 -265q41 47 83.5 66.5t102.5 19.5q117 0 191.5 -78t74.5 -198q0 -125 -82 -206t-209 -81q-117 0 -191 63t-91 173h114q8 -67 54 -108.5t114 -41.5q78 0 127 54.5t49 142.5q0 85 -48.5 139.5t-123.5 54.5q-120 0 -159 -116l-121 10l59 461h461z
M1264 1427l-756 -1456h-98l753 1456h101zM1511 600q-16 139 -145 139q-92 0 -144.5 -82.5t-52.5 -222.5v-28q69 118 209 118q109 0 185.5 -71.5t76.5 -194.5q0 -121 -84.5 -201t-209.5 -80q-142 0 -216.5 107t-74.5 305q0 205 82 320.5t229 115.5q115 0 182.5 -58t81.5 -167
h-119zM1358 440q-74 0 -124 -52t-50 -130q0 -84 50 -139.5t124 -55.5q72 0 119 55.5t47 137.5t-45.5 133t-120.5 51z" />
    <glyph glyph-name="oneeighth" unicode="&#x215b;" horiz-adv-x="1456" 
d="M47 1184v71q102 4 145.5 36.5t49.5 107.5h92v-811h-107v596h-180zM1008 1427l-756 -1456h-98l753 1456h101zM1090 -23q-129 0 -212 66.5t-83 169.5q0 158 176 199v8q-72 17 -112 65t-40 117q0 100 74 161.5t197 61.5q121 0 194.5 -61.5t73.5 -161.5q0 -69 -41 -117
t-113 -65v-8q176 -41 176 -199q0 -104 -80.5 -170t-209.5 -66zM1090 63q77 0 125.5 45t48.5 113q0 67 -48 108.5t-126 41.5q-80 0 -128.5 -41.5t-48.5 -108.5q0 -68 49 -113t128 -45zM1090 457q71 0 113 38.5t42 102.5q0 62 -42 101.5t-113 39.5q-73 0 -116.5 -39.5
t-43.5 -101.5q0 -63 44 -102t116 -39z" />
    <glyph glyph-name="threeeighths" unicode="&#x215c;" horiz-adv-x="1732" 
d="M184 842q0 -86 49 -138.5t129 -52.5q74 0 123.5 46.5t49.5 113.5q0 69 -46.5 106t-132.5 37q-21 0 -39 -2v92q18 -2 29 -2q86 0 133 36.5t47 103.5q0 66 -44 105.5t-117 39.5q-78 0 -121.5 -46.5t-48.5 -131.5h-113q4 126 80.5 195t208.5 69q121 0 195.5 -61t74.5 -160
q0 -66 -41.5 -117.5t-107.5 -68.5v-9q161 -40 161 -192q0 -104 -84.5 -172t-212.5 -68q-130 0 -208 74.5t-78 202.5h114zM1284 1427l-756 -1456h-98l754 1456h100zM1366 -23q-129 0 -212 66.5t-83 169.5q0 158 176 199v8q-72 17 -111.5 65t-39.5 117q0 100 74 161.5
t196 61.5q121 0 194.5 -61.5t73.5 -161.5q0 -69 -40.5 -117t-112.5 -65v-8q176 -41 176 -199q0 -104 -81 -170t-210 -66zM1366 63q77 0 125.5 45t48.5 113q0 67 -48 108.5t-126 41.5q-79 0 -127.5 -41t-48.5 -109t49 -113t127 -45zM1366 457q71 0 113.5 38.5t42.5 102.5
q0 62 -42.5 101.5t-113.5 39.5q-73 0 -116.5 -39.5t-43.5 -101.5q0 -63 44 -102t116 -39z" />
    <glyph glyph-name="fiveeighths" unicode="&#x215d;" horiz-adv-x="1712" 
d="M598 1399v-90h-375l-30 -265q41 47 83.5 66.5t102.5 19.5q117 0 191.5 -78t74.5 -198q0 -125 -82 -206t-209 -81q-117 0 -191 63t-91 173h114q8 -67 54 -108.5t114 -41.5q78 0 127 54.5t49 142.5q0 85 -48.5 139.5t-123.5 54.5q-120 0 -159 -116l-121 10l59 461h461z
M1264 1427l-756 -1456h-98l753 1456h101zM1346 -23q-129 0 -212 66.5t-83 169.5q0 158 176 199v8q-72 17 -112 65t-40 117q0 100 74 161.5t197 61.5q121 0 194.5 -61.5t73.5 -161.5q0 -69 -41 -117t-113 -65v-8q176 -41 176 -199q0 -104 -80.5 -170t-209.5 -66zM1346 63
q77 0 125.5 45t48.5 113q0 67 -48 108.5t-126 41.5q-80 0 -128.5 -41.5t-48.5 -108.5q0 -68 49 -113t128 -45zM1346 457q71 0 113 38.5t42 102.5q0 62 -42 101.5t-113 39.5q-73 0 -116.5 -39.5t-43.5 -101.5q0 -63 44 -102t116 -39z" />
    <glyph glyph-name="seveneighths" unicode="&#x215e;" horiz-adv-x="1550" 
d="M164 588q80 357 291 723h-416v88h536v-76q-220 -387 -290 -735h-121zM1102 1427l-756 -1456h-98l753 1456h101zM1184 -23q-129 0 -212 66.5t-83 169.5q0 158 176 199v8q-72 17 -112 65t-40 117q0 100 74 161.5t197 61.5q121 0 194.5 -61.5t73.5 -161.5q0 -69 -41 -117
t-113 -65v-8q177 -41 177 -199q0 -104 -81 -170t-210 -66zM1184 63q77 0 125.5 45t48.5 113q0 67 -48 108.5t-126 41.5q-79 0 -127.5 -41t-48.5 -109t49 -113t127 -45zM1184 457q71 0 113 38.5t42 102.5q0 62 -42 101.5t-113 39.5q-73 0 -116.5 -39.5t-43.5 -101.5
q0 -63 44 -102t116 -39z" />
    <glyph glyph-name="uni215F" unicode="&#x215f;" horiz-adv-x="718" 
d="M47 1184v71q102 4 145.5 36.5t49.5 107.5h92v-811h-107v596h-180zM1008 1427l-756 -1456h-98l753 1456h101z" />
    <glyph glyph-name="uni2160" unicode="&#x2160;" horiz-adv-x="520" 
d="M322 1487v-1487h-123v1487h123z" />
    <glyph glyph-name="uni2161" unicode="&#x2161;" horiz-adv-x="1040" 
d="M322 1487v-1487h-123v1487h123zM842 1487v-1487h-123v1487h123z" />
    <glyph glyph-name="uni2162" unicode="&#x2162;" horiz-adv-x="1560" 
d="M322 1487v-1487h-123v1487h123zM842 1487v-1487h-123v1487h123zM1362 1487v-1487h-123v1487h123z" />
    <glyph glyph-name="uni2163" unicode="&#x2163;" horiz-adv-x="1783" 
d="M322 1487v-1487h-123v1487h123zM666 1487l475 -1378h10l481 1378h127l-530 -1487h-174l-527 1487h138z" />
    <glyph glyph-name="uni2164" unicode="&#x2164;" horiz-adv-x="1282" 
d="M164 1487l475 -1378h10l481 1378h127l-530 -1487h-174l-526 1487h137z" />
    <glyph glyph-name="uni2165" unicode="&#x2165;" horiz-adv-x="1785" 
d="M164 1487l475 -1378h10l481 1378h127l-530 -1487h-174l-526 1487h137zM1587 1487v-1487h-123v1487h123z" />
    <glyph glyph-name="uni2166" unicode="&#x2166;" horiz-adv-x="2306" 
d="M164 1487l475 -1378h10l481 1378h127l-530 -1487h-174l-526 1487h137zM1587 1487v-1487h-123v1487h123zM2107 1487v-1487h-122v1487h122z" />
    <glyph glyph-name="uni2167" unicode="&#x2167;" horiz-adv-x="2826" 
d="M164 1487l475 -1378h10l481 1378h127l-530 -1487h-174l-526 1487h137zM1587 1487v-1487h-123v1487h123zM2107 1487v-1487h-122v1487h122zM2628 1487v-1487h-123v1487h123z" />
    <glyph glyph-name="uni2168" unicode="&#x2168;" horiz-adv-x="1755" 
d="M322 1487v-1487h-123v1487h123zM557 1487h156l426 -633l422 633h147l-498 -725l535 -762h-156l-456 672l-459 -672h-146l533 762z" />
    <glyph glyph-name="uni2169" unicode="&#x2169;" horiz-adv-x="1241" 
d="M43 1487h156l426 -633l422 633h147l-498 -725l535 -762h-156l-457 672l-458 -672h-146l533 762z" />
    <glyph glyph-name="uni216A" unicode="&#x216a;" horiz-adv-x="1759" 
d="M43 1487h156l426 -633l422 633h147l-498 -725l535 -762h-156l-457 672l-458 -672h-146l533 762zM1561 1487v-1487h-123v1487h123z" />
    <glyph glyph-name="uni216B" unicode="&#x216b;" horiz-adv-x="2279" 
d="M43 1487h156l426 -633l422 633h147l-498 -725l535 -762h-156l-457 672l-458 -672h-146l533 762zM1561 1487v-1487h-123v1487h123zM2081 1487v-1487h-123v1487h123z" />
    <glyph glyph-name="uni216C" unicode="&#x216c;" horiz-adv-x="1130" 
d="M322 1487v-1378h782v-109h-905v1487h123z" />
    <glyph glyph-name="uni216D" unicode="&#x216d;" horiz-adv-x="1406" 
d="M1327 502q-29 -247 -191 -386t-407 -139q-193 0 -333.5 97t-212.5 269t-72 400q0 221 74.5 394t218 272.5t335.5 99.5q247 0 400.5 -137t173.5 -383h-129q-8 185 -131.5 300.5t-313.5 115.5q-234 0 -366.5 -177t-132.5 -485q0 -194 57 -342.5t168.5 -233.5t263.5 -85
q190 0 312 106.5t157 313.5h129z" />
    <glyph glyph-name="uni216E" unicode="&#x216e;" horiz-adv-x="1474" 
d="M1239 743q0 298 -164 488q-71 82 -182.5 114.5t-292.5 32.5h-278v-1269h278q183 0 292.5 32.5t182.5 114.5q79 89 121.5 214t42.5 273zM1366 743q0 -330 -176 -534q-89 -109 -225.5 -159t-364.5 -50h-401v1487h401q228 0 363.5 -50.5t226.5 -158.5q176 -204 176 -535z
" />
    <glyph glyph-name="uni216F" unicode="&#x216f;" horiz-adv-x="1851" 
d="M397 1487l531 -1358l534 1358h191v-1487h-123v745l8 621h-14l-535 -1366h-133l-530 1366h-15l4 -621v-745h-116v1487h198z" />
    <glyph glyph-name="uni2170" unicode="&#x2170;" horiz-adv-x="456" 
d="M287 1057v-1057h-117v1057h117zM299 1487v-172h-141v172h141z" />
    <glyph glyph-name="uni2171" unicode="&#x2171;" horiz-adv-x="905" 
d="M287 1057v-1057h-117v1057h117zM299 1487v-172h-141v172h141zM735 1057v-1057h-117v1057h117zM748 1487v-172h-142v172h142z" />
    <glyph glyph-name="uni2172" unicode="&#x2172;" horiz-adv-x="1353" 
d="M287 1057v-1057h-117v1057h117zM299 1487v-172h-141v172h141zM735 1057v-1057h-117v1057h117zM748 1487v-172h-142v172h142zM1184 1057v-1057h-117v1057h117zM1196 1487v-172h-141v172h141z" />
    <glyph glyph-name="uni2173" unicode="&#x2173;" horiz-adv-x="1437" 
d="M287 1057v-1057h-117v1057h117zM299 1487v-172h-141v172h141zM930 109h10l332 948h127l-393 -1057h-150l-395 1057h135z" />
    <glyph glyph-name="uni2174" unicode="&#x2174;" horiz-adv-x="1013" 
d="M506 109h10l332 948h127l-393 -1057h-150l-395 1057h135z" />
    <glyph glyph-name="uni2175" unicode="&#x2175;" horiz-adv-x="1435" 
d="M506 109h10l332 948h127l-393 -1057h-150l-395 1057h135zM1266 1057v-1057h-117v1057h117zM1278 1487v-172h-141v172h141z" />
    <glyph glyph-name="uni2176" unicode="&#x2176;" horiz-adv-x="1884" 
d="M506 109h10l332 948h127l-393 -1057h-150l-395 1057h135zM1266 1057v-1057h-117v1057h117zM1278 1487v-172h-141v172h141zM1714 1057v-1057h-117v1057h117zM1726 1487v-172h-141v172h141z" />
    <glyph glyph-name="uni2177" unicode="&#x2177;" horiz-adv-x="2332" 
d="M506 109h10l332 948h127l-393 -1057h-150l-395 1057h135zM1266 1057v-1057h-117v1057h117zM1278 1487v-172h-141v172h141zM1714 1057v-1057h-117v1057h117zM1726 1487v-172h-141v172h141zM2163 1057v-1057h-117v1057h117zM2175 1487v-172h-141v172h141z" />
    <glyph glyph-name="uni2178" unicode="&#x2178;" horiz-adv-x="1437" 
d="M287 1057v-1057h-117v1057h117zM299 1487v-172h-141v172h141zM498 1057h147l297 -426l299 426h139l-368 -500l407 -557h-147l-334 475l-336 -475h-141l405 551z" />
    <glyph glyph-name="uni2179" unicode="&#x2179;" horiz-adv-x="995" 
d="M55 1057h148l297 -426l299 426h139l-369 -500l408 -557h-148l-333 475l-336 -475h-142l406 551z" />
    <glyph glyph-name="uni217A" unicode="&#x217a;" horiz-adv-x="1437" 
d="M55 1057h148l297 -426l299 426h139l-369 -500l408 -557h-148l-333 475l-336 -475h-142l406 551zM1268 1057v-1057h-117v1057h117zM1280 1487v-172h-141v172h141z" />
    <glyph glyph-name="uni217B" unicode="&#x217b;" horiz-adv-x="1886" 
d="M55 1057h148l297 -426l299 426h139l-369 -500l408 -557h-148l-333 475l-336 -475h-142l406 551zM1268 1057v-1057h-117v1057h117zM1280 1487v-172h-141v172h141zM1716 1057v-1057h-117v1057h117zM1729 1487v-172h-142v172h142z" />
    <glyph glyph-name="uni217C" unicode="&#x217c;" horiz-adv-x="456" 
d="M287 1487v-1487h-117v1487h117z" />
    <glyph glyph-name="uni217D" unicode="&#x217d;" horiz-adv-x="1097" 
d="M1018 360q-20 -171 -143.5 -277t-299.5 -106q-214 0 -345.5 150.5t-131.5 400.5q0 122 38.5 226t103.5 174.5t153.5 110.5t186.5 40q178 0 300.5 -105.5t129.5 -268.5h-125q-7 117 -95 194.5t-210 77.5q-158 0 -258.5 -125.5t-100.5 -323.5q0 -203 98 -326.5t256 -123.5
q124 0 214 79.5t102 202.5h127z" />
    <glyph glyph-name="uni217E" unicode="&#x217e;" horiz-adv-x="1175" 
d="M100 528q0 128 36 233.5t97.5 174t142.5 106t171 37.5q227 0 342 -188v596h117v-1487h-117v166q-59 -91 -150.5 -140t-197.5 -49q-91 0 -171 39t-140 108.5t-95 174.5t-35 229zM223 528q0 -203 93 -328.5t243 -125.5q153 0 243.5 124.5t90.5 329.5q0 206 -90.5 329.5
t-243.5 123.5q-150 0 -243 -124.5t-93 -328.5z" />
    <glyph glyph-name="uni217F" unicode="&#x217f;" horiz-adv-x="1728" 
d="M813 0v657q0 171 -58.5 247.5t-183.5 76.5q-126 0 -205 -104t-79 -299v-578h-117v1057h117v-154q102 176 313 176q111 0 187.5 -55t105.5 -158q47 104 134 158.5t206 54.5q82 0 142.5 -20.5t98 -56.5t60 -91.5t31 -117.5t8.5 -144v-649h-117v657q0 171 -58.5 247.5
t-183.5 76.5q-127 0 -205.5 -104t-78.5 -299v-578h-117z" />
    <glyph glyph-name="uni2189" unicode="&#x2189;" horiz-adv-x="1748" 
d="M377 1413q138 0 217.5 -110t79.5 -312q0 -209 -78.5 -317.5t-218.5 -108.5q-138 0 -217.5 111t-79.5 315q0 202 79.5 312t217.5 110zM377 1327q-180 0 -180 -336q0 -340 180 -340q178 0 178 340q0 336 -178 336zM1307 1427l-756 -1456h-98l753 1456h101zM1202 254
q0 -86 49 -138.5t129 -52.5q74 0 123 46.5t49 113.5q0 69 -46 106.5t-132 37.5q-21 0 -39 -2v92q18 -2 29 -2q87 0 133.5 36t46.5 103q0 66 -44 105.5t-118 39.5q-78 0 -121.5 -46.5t-48.5 -131.5h-112q4 126 80.5 195t208.5 69q121 0 195.5 -61t74.5 -160q0 -66 -42 -117.5
t-108 -68.5v-8q162 -40 162 -193q0 -104 -84.5 -172t-212.5 -68q-130 0 -208.5 74.5t-78.5 202.5h115z" />
    <glyph glyph-name="arrowleft" unicode="&#x2190;" horiz-adv-x="1208" 
d="M1143 633v-94h-928l391 -375l-65 -66l-488 488l488 487l65 -65l-391 -375h928z" />
    <glyph glyph-name="arrowup" unicode="&#x2191;" horiz-adv-x="1069" 
d="M47 602l488 488l487 -488l-66 -65l-374 391v-928h-95v928l-374 -391z" />
    <glyph glyph-name="arrowright" unicode="&#x2192;" horiz-adv-x="1208" 
d="M668 1073l487 -487l-487 -488l-66 66l391 375h-927v94h927l-391 375z" />
    <glyph glyph-name="arrowdown" unicode="&#x2193;" horiz-adv-x="1069" 
d="M487 1057h95v-928l374 391l66 -65l-487 -488l-488 488l66 65l374 -391v928z" />
    <glyph glyph-name="uni2196" unicode="&#x2196;" horiz-adv-x="1050" 
d="M147 240v688h689v-92l-541 10l655 -656l-65 -65l-656 655l11 -540h-93z" />
    <glyph glyph-name="uni2197" unicode="&#x2197;" horiz-adv-x="1050" 
d="M166 125l-66 65l656 656l-541 -10v92h688v-688h-92l10 540z" />
    <glyph glyph-name="uni2198" unicode="&#x2198;" horiz-adv-x="1050" 
d="M885 930l65 -66l-655 -655l541 10v-92h-689v688h93l-11 -541z" />
    <glyph glyph-name="uni2199" unicode="&#x2199;" horiz-adv-x="1050" 
d="M903 815v-688h-688v92l541 -10l-656 655l66 66l655 -656l-10 541h92z" />
    <glyph glyph-name="partialdiff" unicode="&#x2202;" horiz-adv-x="1015" 
d="M322 1427q141 0 252 -58t181.5 -160.5t107 -239.5t36.5 -299q0 -693 -428 -693q-185 0 -292 125t-107 334q0 187 117.5 311.5t285.5 124.5q94 0 173.5 -41.5t121.5 -128.5l10 5q0 83 -15 166t-50 166t-86 146t-130.5 102.5t-176.5 39.5v100zM479 74q118 0 198.5 101
t80.5 255q0 146 -75.5 245t-205.5 99q-124 0 -203 -102t-79 -246q0 -150 79 -251t205 -101z" />
    <glyph glyph-name="increment" unicode="&#x2206;" horiz-adv-x="1409" 
d="M623 1487h163l572 -1401v-86h-1307v86zM874 948q-23 55 -169 447h-9q-3 -8 -63 -169.5t-103 -269.5l-342 -850h1029z" />
    <glyph glyph-name="product" unicode="&#x220f;" horiz-adv-x="1421" 
d="M1360 1296h-205v-1544h-125v1544h-639v-1544h-123v1544h-211v103h1303v-103z" />
    <glyph glyph-name="summation" unicode="&#x2211;" horiz-adv-x="1157" 
d="M721 586l-635 694v119h983v-103h-836l641 -712l-677 -723h899v-113h-1035v129z" />
    <glyph glyph-name="minus" unicode="&#x2212;" 
d="M215 631h860v-103h-860v103z" />
    <glyph glyph-name="uni2215" unicode="&#x2215;" horiz-adv-x="264" 
d="M553 1427l-756 -1456h-98l754 1456h100z" />
    <glyph glyph-name="uni2219" unicode="&#x2219;" 
d="M727 793v-177h-164v177h164z" />
    <glyph glyph-name="radical" unicode="&#x221a;" horiz-adv-x="1110" 
d="M225 848l-194 -86l-35 76l291 129l225 -752l508 1544h94l-582 -1759h-49z" />
    <glyph glyph-name="infinity" unicode="&#x221e;" 
d="M891 272q-63 0 -111.5 41t-136.5 150q-53 -80 -120.5 -135.5t-139.5 -55.5q-94 0 -156.5 76.5t-62.5 198.5q0 114 70 196t167 82q37 0 72 -16.5t67 -48.5t53.5 -59.5t49.5 -67.5q147 192 262 192q96 0 158.5 -75.5t62.5 -200.5q0 -110 -69.5 -193.5t-165.5 -83.5z
M901 719q-54 0 -99.5 -40.5t-101.5 -117.5q99 -168 203 -168q55 0 93 45t38 111q0 73 -37 121.5t-96 48.5zM389 377q29 0 55.5 12t54.5 39.5t45 47t48 59.5q-31 43 -43.5 60t-37 45.5t-40.5 39t-38.5 20t-47.5 9.5q-53 0 -90 -47.5t-37 -114.5q0 -71 36.5 -120.5t94.5 -49.5
z" />
    <glyph glyph-name="integral" unicode="&#x222b;" horiz-adv-x="770" 
d="M348 1001q12 220 88.5 324.5t225.5 104.5q66 0 112 -21l-22 -94q-54 14 -84 14q-90 0 -137.5 -72.5t-59.5 -246.5l-53 -932q-12 -242 -85.5 -343.5t-228.5 -101.5q-66 0 -112 21l22 94q54 -14 84 -14q90 0 137.5 72.5t59.5 246.5z" />
    <glyph glyph-name="approxequal" unicode="&#x2248;" 
d="M829 266q-52 0 -104 18t-87.5 39.5t-84 39.5t-94.5 18q-16 0 -29.5 -2.5t-27 -10.5t-21.5 -13t-21.5 -20t-18.5 -21t-20.5 -26.5t-19.5 -25.5l-84 64q62 85 114.5 122t129.5 37q59 0 112.5 -18t87 -39t78.5 -39t90 -18q14 0 27 3t22.5 6t22 13t18 14t18.5 19.5t16 19.5
t17.5 23.5t16.5 22.5l86 -64q-64 -86 -117 -124t-127 -38zM829 598q-52 0 -104 18t-87.5 39.5t-84 39.5t-94.5 18q-16 0 -29.5 -2.5t-27 -10.5t-21.5 -13t-21.5 -20t-18.5 -21t-20.5 -26.5t-19.5 -25.5l-84 63q62 85 114.5 122.5t129.5 37.5q59 0 112.5 -18t87 -39.5
t78.5 -39.5t90 -18q14 0 27 3t22.5 6t22 13t18 14t18.5 19.5t16 19.5t17.5 23.5t16.5 22.5l86 -63q-64 -86 -117 -124t-127 -38z" />
    <glyph glyph-name="notequal" unicode="&#x2260;" 
d="M682 780l137 305h99l-134 -305h291v-102h-336l-102 -227h438v-103h-483l-154 -348h-102l153 348h-274v103h320l102 227h-422v102h467z" />
    <glyph glyph-name="equivalence" unicode="&#x2261;" 
d="M1075 305v-102h-860v102h860zM1075 616v-102h-860v102h860zM1075 928v-103h-860v103h860z" />
    <glyph glyph-name="lessequal" unicode="&#x2264;" 
d="M1071 1087v-120l-760 -308l760 -319v-121l-860 371v127zM211 102h860v-102h-860v102z" />
    <glyph glyph-name="greaterequal" unicode="&#x2265;" 
d="M219 219v121l758 319l-758 308v120l860 -370v-127zM219 102h860v-102h-860v102z" />
    <glyph glyph-name="uni25AF" unicode="&#x25af;" horiz-adv-x="1374" 
d="M199 0v1487h977v-1487h-977zM1059 109v1269h-744v-1269h744z" />
    <glyph glyph-name="triagup" unicode="&#x25b2;" horiz-adv-x="1210" 
d="M197 1065l966 -516l-966 -524v1040z" />
    <glyph glyph-name="triagrt" unicode="&#x25ba;" horiz-adv-x="1130" 
d="M45 68l516 1032l524 -1032h-1040z" />
    <glyph glyph-name="triagdn" unicode="&#x25bc;" horiz-adv-x="1130" 
d="M45 1075h1040l-524 -1032z" />
    <glyph glyph-name="triaglf" unicode="&#x25c4;" horiz-adv-x="1210" 
d="M1014 1065v-1040l-967 524z" />
    <glyph glyph-name="lozenge" unicode="&#x25ca;" horiz-adv-x="1024" 
d="M563 0h-102l-387 700l387 701h102l387 -701zM512 1303l-334 -603l334 -602l334 602z" />
    <glyph glyph-name="uniFB00" unicode="&#xfb00;" horiz-adv-x="1105" 
d="M348 958v-958h-117v958h-196v99h196v139q0 146 62 220.5t199 74.5q21 0 71 -4v-101q-27 3 -51 3q-88 0 -126 -42t-38 -151v-139h393v139q0 146 61.5 220.5t198.5 74.5q22 0 72 -4v-101q-27 3 -51 3q-88 0 -126 -42t-38 -151v-139h215v-99h-215v-958h-117v958h-393z" />
    <glyph glyph-name="fi" unicode="&#xfb01;" horiz-adv-x="1011" 
d="M35 958v99h196v139q0 146 62 220.5t199 74.5q21 0 71 -4v-101q-27 3 -51 3q-88 0 -126 -42t-38 -151v-139h215v-99h-215v-958h-117v958h-196zM842 1057v-1057h-117v1057h117zM854 1487v-172h-141v172h141z" />
    <glyph glyph-name="fl" unicode="&#xfb02;" horiz-adv-x="1011" 
d="M35 958v99h196v139q0 146 62 220.5t199 74.5q21 0 71 -4v-101q-27 3 -51 3q-88 0 -126 -42t-38 -151v-139h215v-99h-215v-958h-117v958h-196zM842 1487v-1487h-117v1487h117z" />
    <glyph glyph-name="uniFB03" unicode="&#xfb03;" horiz-adv-x="1521" 
d="M1352 1057v-1057h-117v1057h117zM1364 1487v-172h-141v172h141zM348 958v-958h-117v958h-196v99h196v139q0 146 62 220.5t199 74.5q21 0 71 -4v-101q-27 3 -51 3q-88 0 -126 -42t-38 -151v-139h393v139q0 146 61.5 220.5t198.5 74.5q22 0 72 -4v-101q-27 3 -51 3
q-88 0 -126 -42t-38 -151v-139h215v-99h-215v-958h-117v958h-393z" />
    <glyph glyph-name="uniFB04" unicode="&#xfb04;" horiz-adv-x="1519" 
d="M1350 1487v-1487h-117v1487h117zM348 958v-958h-117v958h-196v99h196v139q0 146 62 220.5t199 74.5q21 0 71 -4v-101q-27 3 -51 3q-88 0 -126 -42t-38 -151v-139h393v139q0 146 61.5 220.5t198.5 74.5q22 0 72 -4v-101q-27 3 -51 3q-88 0 -126 -42t-38 -151v-139h215v-99
h-215v-958h-117v958h-393z" />
    <glyph glyph-name="uniFEFF" unicode="&#xfeff;" horiz-adv-x="0" 
 />
    <glyph glyph-name="i.latn_TRK" horiz-adv-x="456" 
d="M287 1057v-1057h-117v1057h117zM299 1487v-172h-141v172h141z" />
    <glyph glyph-name="Ldot.latn_CAT" horiz-adv-x="1132" 
d="M883 889v-172h-144v172h144zM322 1487v-1378h782v-109h-905v1487h123z" />
    <glyph glyph-name="ldot.latn_CAT" horiz-adv-x="550" 
d="M575 887v-172h-143v172h143zM287 1487v-1487h-117v1487h117z" />
    <glyph glyph-name="zero.numr" horiz-adv-x="753" 
d="M377 1413q138 0 217.5 -110t79.5 -312q0 -209 -78.5 -317.5t-218.5 -108.5q-138 0 -217.5 111t-79.5 315q0 202 79.5 312t217.5 110zM377 1327q-180 0 -180 -336q0 -340 180 -340q178 0 178 340q0 336 -178 336z" />
    <glyph glyph-name="one.numr" horiz-adv-x="454" 
d="M47 1184v71q102 4 145.5 36.5t49.5 107.5h92v-811h-107v596h-180z" />
    <glyph glyph-name="two.numr" horiz-adv-x="702" 
d="M78 588q-2 16 -2 33q0 121 65 202q57 71 185 148q101 61 140.5 106.5t39.5 106.5q0 66 -41 105.5t-109 39.5q-77 0 -120 -50.5t-48 -143.5h-110q1 131 79 204.5t208 73.5q121 0 189.5 -61.5t68.5 -167.5q0 -78 -49 -139t-168 -136q-117 -73 -164 -127q-34 -40 -43 -100
v-4h428v-90h-549z" />
    <glyph glyph-name="three.numr" horiz-adv-x="731" 
d="M184 842q0 -86 49 -138.5t129 -52.5q74 0 123.5 46.5t49.5 113.5q0 69 -46.5 106t-132.5 37q-21 0 -39 -2v92q18 -2 29 -2q86 0 133 36.5t47 103.5q0 66 -44 105.5t-117 39.5q-78 0 -121.5 -46.5t-48.5 -131.5h-113q4 126 80.5 195t208.5 69q121 0 195.5 -61t74.5 -160
q0 -66 -41.5 -117.5t-107.5 -68.5v-9q161 -40 161 -192q0 -104 -84.5 -172t-212.5 -68q-130 0 -208 74.5t-78 202.5h114z" />
    <glyph glyph-name="four.numr" horiz-adv-x="729" 
d="M530 801v-213h-108v213h-375v84l334 514h149v-510h148v-88h-148zM422 889q0 253 8 409h-8l-260 -409h260z" />
    <glyph glyph-name="five.numr" horiz-adv-x="710" 
d="M598 1399v-90h-375l-30 -265q41 47 83.5 66.5t102.5 19.5q117 0 191.5 -78t74.5 -198q0 -125 -82 -206t-209 -81q-117 0 -191 63t-91 173h114q8 -67 54 -108.5t114 -41.5q78 0 127 54.5t49 142.5q0 85 -48.5 139.5t-123.5 54.5q-120 0 -159 -116l-121 10l59 461h461z" />
    <glyph glyph-name="six.numr" horiz-adv-x="739" 
d="M537 1188q-16 139 -146 139q-92 0 -144 -82.5t-52 -222.5v-29q70 119 208 119q109 0 186 -71.5t77 -194.5q0 -121 -85 -201t-210 -80q-142 0 -216.5 107t-74.5 305q0 205 82 320.5t229 115.5q115 0 182.5 -58t81.5 -167h-118zM383 1028q-74 0 -124 -52t-50 -130
q0 -84 50 -139.5t124 -55.5q72 0 119 55.5t47 137.5t-45.5 133t-120.5 51z" />
    <glyph glyph-name="seven.numr" horiz-adv-x="616" 
d="M164 588q80 357 291 723h-416v88h536v-76q-220 -387 -290 -735h-121z" />
    <glyph glyph-name="eight.numr" horiz-adv-x="737" 
d="M371 565q-129 0 -212 66.5t-83 169.5q0 157 176 198v9q-72 17 -112 65t-40 117q0 100 74 161.5t197 61.5q121 0 194.5 -61.5t73.5 -161.5q0 -69 -41 -117t-113 -65v-9q177 -41 177 -198q0 -104 -81 -170t-210 -66zM371 651q77 0 125.5 45t48.5 113q0 67 -48 108t-126 41
q-80 0 -128 -41t-48 -108q0 -68 49 -113t127 -45zM371 1044q71 0 113 39t42 103q0 62 -42 101.5t-113 39.5q-73 0 -116.5 -39.5t-43.5 -101.5q0 -63 44 -102.5t116 -39.5z" />
    <glyph glyph-name="nine.numr" horiz-adv-x="735" 
d="M193 793q6 -64 46 -103t105 -39q92 0 144.5 82t52.5 223v50q-65 -111 -199 -111q-118 0 -192 69t-74 185q0 114 79.5 189t206.5 75q293 0 293 -407q0 -209 -80.5 -325t-226.5 -116q-116 0 -187.5 61.5t-82.5 166.5h115zM356 1327q-72 0 -119 -49t-47 -127
q0 -74 46.5 -124t117.5 -50q73 0 121.5 49t48.5 121q0 78 -48 129t-120 51z" />
    <glyph glyph-name="zero.dnom" horiz-adv-x="753" 
d="M377 825q138 0 217.5 -110t79.5 -312q0 -209 -78.5 -317.5t-218.5 -108.5q-138 0 -217.5 111t-79.5 315q0 202 79.5 312t217.5 110zM377 739q-180 0 -180 -336q0 -340 180 -340q178 0 178 340q0 336 -178 336z" />
    <glyph glyph-name="one.dnom" horiz-adv-x="454" 
d="M47 596v72q103 4 146 36t49 107h92v-811h-107v596h-180z" />
    <glyph glyph-name="two.dnom" horiz-adv-x="702" 
d="M78 0q-2 16 -2 33q0 122 65 203q56 69 185 147q101 61 140.5 106.5t39.5 106.5q0 66 -41 105.5t-109 39.5q-77 0 -120 -50.5t-48 -143.5h-110q1 131 79 204.5t208 73.5q121 0 189.5 -61.5t68.5 -167.5q0 -78 -49 -138.5t-168 -135.5q-117 -73 -164 -127q-34 -39 -43 -101
v-4h428v-90h-549z" />
    <glyph glyph-name="three.dnom" horiz-adv-x="731" 
d="M184 254q0 -86 49 -138.5t129 -52.5q74 0 123.5 46.5t49.5 113.5q0 69 -46.5 106.5t-132.5 37.5q-21 0 -39 -2v92q18 -2 29 -2q87 0 133.5 36t46.5 103q0 66 -44 105.5t-117 39.5q-78 0 -121.5 -46.5t-48.5 -131.5h-113q4 126 80.5 195t208.5 69q121 0 195.5 -61
t74.5 -160q0 -66 -41.5 -117.5t-107.5 -68.5v-8q161 -40 161 -193q0 -104 -84.5 -172t-212.5 -68q-130 0 -208 74.5t-78 202.5h114z" />
    <glyph glyph-name="four.dnom" horiz-adv-x="729" 
d="M530 213v-213h-108v213h-375v84l334 514h149v-510h148v-88h-148zM422 301q0 254 8 410h-8l-260 -410h260z" />
    <glyph glyph-name="five.dnom" horiz-adv-x="710" 
d="M598 811v-90h-375l-30 -264q41 47 83.5 66.5t102.5 19.5q117 0 191.5 -78.5t74.5 -198.5q0 -125 -82 -205.5t-209 -80.5q-117 0 -191 62.5t-91 172.5h114q8 -66 53.5 -107.5t114.5 -41.5q78 0 127 54t49 142q0 85 -48.5 140t-123.5 55q-119 0 -159 -117l-121 10l59 461
h461z" />
    <glyph glyph-name="six.dnom" horiz-adv-x="739" 
d="M537 600q-16 139 -146 139q-92 0 -144 -82.5t-52 -222.5v-28q69 118 208 118q109 0 186 -71.5t77 -194.5q0 -121 -85 -201t-210 -80q-142 0 -216.5 107t-74.5 305q0 205 82 320.5t229 115.5q115 0 182.5 -58t81.5 -167h-118zM383 440q-74 0 -124 -52t-50 -130
q0 -84 50 -139.5t124 -55.5q72 0 119 55.5t47 137.5t-45.5 133t-120.5 51z" />
    <glyph glyph-name="seven.dnom" horiz-adv-x="616" 
d="M164 0q80 357 291 723h-416v88h536v-76q-220 -387 -290 -735h-121z" />
    <glyph glyph-name="eight.dnom" horiz-adv-x="737" 
d="M371 -23q-129 0 -212 66.5t-83 169.5q0 158 176 199v8q-72 17 -112 65t-40 117q0 100 74 161.5t197 61.5q121 0 194.5 -61.5t73.5 -161.5q0 -69 -41 -117t-113 -65v-8q177 -41 177 -199q0 -104 -81 -170t-210 -66zM371 63q77 0 125.5 45t48.5 113q0 67 -48 108.5
t-126 41.5q-79 0 -127.5 -41t-48.5 -109t49 -113t127 -45zM371 457q71 0 113 38.5t42 102.5q0 62 -42 101.5t-113 39.5q-73 0 -116.5 -39.5t-43.5 -101.5q0 -63 44 -102t116 -39z" />
    <glyph glyph-name="nine.dnom" horiz-adv-x="735" 
d="M193 205q6 -64 46 -103t105 -39q92 0 144.5 82t52.5 224v49q-65 -111 -199 -111q-118 0 -192 69t-74 185q0 114 79.5 189t206.5 75q293 0 293 -407q0 -209 -80.5 -325t-226.5 -116q-116 0 -187.5 61.5t-82.5 166.5h115zM356 739q-72 0 -119 -49t-47 -127q0 -74 46.5 -124
t117.5 -50q73 0 121.5 49t48.5 121q0 78 -48 129t-120 51z" />
    <glyph glyph-name="space.frac" horiz-adv-x="81" 
 />
    <glyph glyph-name="space.tf" 
 />
    <glyph glyph-name="numbersign.tf" 
d="M434 428l-123 -428h-118l120 428h-235l26 96h238l104 371h-247l26 96h250l117 408h121l-117 -408h281l116 408h121l-117 -408h209l-26 -96h-211l-107 -371h223l-26 -96h-223l-123 -428h-119l121 428h-281zM743 524l105 371h-281l-106 -371h282z" />
    <glyph glyph-name="dollar.tf" 
d="M295 463q12 -169 89.5 -261t211.5 -110v582l-14 4q-53 18 -84.5 29.5t-77.5 32t-74 39t-60 48t-49.5 62t-29.5 76.5t-12 96q0 146 109.5 245t297.5 111v164h98v-164q383 -42 406 -454h-127q-15 310 -279 346v-537l29 -8q66 -22 117.5 -44.5t105.5 -57.5t89.5 -75.5
t58 -98.5t22.5 -126q0 -168 -116 -269t-312 -109v-191h-98v193q-194 19 -306 139.5t-122 337.5h127zM319 1063q0 -59 21 -103.5t64.5 -75.5t87 -50.5t110.5 -40.5v518q-128 -6 -205.5 -74t-77.5 -174zM997 365q0 60 -22.5 107t-66.5 81t-94 57.5t-120 46.5v-567
q138 5 220.5 77t82.5 198z" />
    <glyph glyph-name="percent.tf" 
d="M977 1341l72 -43l-730 -1241l-71 43zM272 1092q0 -183 142 -183q141 0 141 183q0 89 -33 135.5t-108 46.5q-142 0 -142 -182zM174 1092q0 132 67 195t173 63t172.5 -63t66.5 -195t-66.5 -195t-172.5 -63t-173 63t-67 195zM733 307q0 -89 33 -135.5t108 -46.5
q142 0 142 182t-142 182q-75 0 -108 -46.5t-33 -135.5zM635 307q0 132 66.5 195t172.5 63t173 -63t67 -195t-67 -195t-173 -63t-172.5 63t-66.5 195z" />
    <glyph glyph-name="comma.tf" 
d="M563 14v162h164v-176l-80 -276h-82l68 290h-70z" />
    <glyph glyph-name="period.tf" 
d="M727 176v-176h-164v176h164z" />
    <glyph glyph-name="zero.tf" 
d="M176 698q0 361 120.5 542t354.5 181q461 0 461 -723q0 -367 -116 -544t-351 -177q-469 0 -469 721zM983 698q0 623 -336 623q-342 0 -342 -623q0 -620 338 -620q340 0 340 620z" />
    <glyph glyph-name="one.tf" 
d="M1051 106v-106h-744v106h314v959h-293v98q73 2 118.5 8t83 20t58.5 41t34.5 66.5t20.5 100.5h100v-1293h308z" />
    <glyph glyph-name="two.tf" 
d="M203 41q0 139 32 233t111.5 177t228.5 174q87 54 137.5 88.5t99 75t71.5 75.5t37 79t14 97q0 123 -78.5 202t-198.5 79q-134 0 -213 -85.5t-84 -229.5h-127q11 191 124 303t298 112q180 0 293 -104t113 -270q0 -65 -17 -121.5t-41.5 -97.5t-69 -83.5t-81 -70t-94.5 -66.5
q-28 -19 -74.5 -48t-75.5 -47.5t-69.5 -48t-66 -53.5t-53.5 -58.5t-44 -69t-26.5 -79.5t-10.5 -95h754v-109h-889v41z" />
    <glyph glyph-name="three.tf" 
d="M322 395q0 -150 85 -234.5t224 -84.5q138 0 226.5 82t88.5 211q0 134 -97 212t-255 78q-27 0 -66 -2v107q46 -4 60 -4q153 0 244.5 76.5t91.5 214.5q0 127 -78 198.5t-209 71.5q-132 0 -207.5 -78.5t-77.5 -210.5h-131q13 189 121.5 289t294.5 100q189 0 300.5 -95
t111.5 -271q0 -256 -254 -334v-6q137 -30 208.5 -122.5t71.5 -225.5q0 -180 -120.5 -285t-329.5 -105q-204 0 -317 108t-120 310h134z" />
    <glyph glyph-name="four.tf" 
d="M152 387v109l583 903h164v-905h234v-107h-234v-387h-123v387h-624zM776 494v370l8 412l-10 -2l-493 -780h495z" />
    <glyph glyph-name="five.tf" 
d="M348 362q0 -129 79 -206.5t210 -77.5q147 0 234 99t87 269q0 169 -75.5 267t-214.5 98q-116 0 -200.5 -60t-121.5 -178h-115l68 826h725v-109h-616l-48 -516v-2q53 68 139 104.5t185 36.5q183 0 292 -125t109 -342q0 -214 -123.5 -341.5t-326.5 -127.5q-178 0 -293 105.5
t-119 279.5h125z" />
    <glyph glyph-name="six.tf" 
d="M940 1065q-4 121 -73.5 188.5t-186.5 67.5q-168 0 -253 -149.5t-97 -469.5v-2q110 203 352 203q185 0 299.5 -126t114.5 -335q0 -203 -123.5 -334t-313.5 -131q-82 0 -149 21.5t-113.5 57t-81.5 89t-55.5 110t-33 127t-17 134t-4.5 137.5q0 374 124.5 571t354.5 197
q177 0 274.5 -95.5t102.5 -260.5h-121zM670 803q-141 0 -230.5 -100.5t-89.5 -256.5q0 -164 85 -266t220 -102q140 0 227 100.5t87 263.5q0 159 -83.5 260t-215.5 101z" />
    <glyph glyph-name="seven.tf" 
d="M1079 1290q-200 -315 -313.5 -615.5t-192.5 -674.5h-139q73 351 194.5 653.5t321.5 636.5h-735v109h864v-109z" />
    <glyph glyph-name="eight.tf" 
d="M465 729q-106 36 -172 123.5t-66 202.5q0 163 118 265.5t300 102.5q185 0 303.5 -100.5t118.5 -261.5q0 -113 -67.5 -203t-174.5 -129v-8q123 -31 197 -129t74 -227q0 -177 -124 -282.5t-327 -105.5q-204 0 -327 107t-123 285q0 124 74 220.5t196 131.5v8zM645 674
q-135 0 -228 -87t-93 -216t90 -211t231 -82t231.5 81t90.5 210q0 130 -90.5 217.5t-231.5 87.5zM645 1323q-131 0 -212 -74t-81 -192q0 -125 81.5 -203t211.5 -78q134 0 215.5 78t81.5 203q0 119 -82 192.5t-215 73.5z" />
    <glyph glyph-name="nine.tf" 
d="M348 346q4 -122 79 -195t194 -73q69 0 122.5 23.5t88 56.5t58.5 92.5t36 105.5t18 123.5t7 119.5t1 119v3.5v3.5v4q-66 -109 -151.5 -157t-202.5 -48q-182 0 -291.5 123t-109.5 326q0 188 121.5 319t308.5 131q230 0 341 -176t111 -553q0 -76 -3.5 -138.5t-15 -139
t-30.5 -136t-54 -118.5t-82 -98t-117 -63t-156 -24q-180 0 -283.5 94.5t-120.5 274.5h131zM627 1323q-129 0 -215 -98t-86 -250q0 -155 76 -251.5t202 -96.5q136 0 223.5 98.5t87.5 253.5q0 138 -82 241t-206 103z" />
    <glyph glyph-name="colon.tf" 
d="M727 176v-176h-164v176h164zM727 1057v-176h-164v176h164z" />
    <glyph glyph-name="semicolon.tf" 
d="M563 14v162h164v-176l-80 -276h-82l68 290h-70zM725 1057v-176h-164v176h164z" />
    <glyph glyph-name="cent.tf" 
d="M625 201q-197 12 -311.5 157.5t-114.5 393.5q0 239 121.5 387.5t304.5 160.5v218h98v-215q161 -12 268 -112.5t119 -262.5h-121q-17 119 -90.5 189.5t-175.5 78.5v-887q108 11 181 82.5t91 192.5h123q-24 -169 -130.5 -268t-264.5 -111v-236h-98v232zM324 752
q0 -203 82.5 -318t218.5 -127v887q-136 -14 -218.5 -127t-82.5 -315z" />
    </font>
</defs>
</svg>
