<?xml version="1.0" standalone="no"?>
<!DOCTYPE svg PUBLIC "-//W3C//DTD SVG 1.1//EN" "http://www.w3.org/Graphics/SVG/1.1/DTD/svg11.dtd" >
<svg xmlns="http://www.w3.org/2000/svg" xmlns:xlink="http://www.w3.org/1999/xlink" version="1.1">
<metadata>
Created by FontForge 20170731 at Sat Jul 18 17:22:47 2020
 By Aleksey,,,
(c) 2012-2019, Copyright by Lineto GmbH. All rights reserved.
</metadata>
<defs>
<font id="Unica77LL-LightItalic" horiz-adv-x="1290" >
  <font-face 
    font-family="Unica77 LL Light"
    font-weight="300"
    font-style="italic"
    font-stretch="normal"
    units-per-em="2048"
    panose-1="2 11 4 4 3 1 1 1 1 2"
    ascent="1536"
    descent="-512"
    x-height="1057"
    cap-height="1487"
    bbox="-938 -492 2871 2073"
    underline-thickness="102"
    underline-position="-409"
    slope="-14"
    unicode-range="U+000D-FEFF"
  />
<missing-glyph horiz-adv-x="1482" 
d="M305 0v1487h977v-1487h-977zM1165 109v1269h-743v-1269h743z" />
    <glyph glyph-name="f_f" unicode="ff" horiz-adv-x="1095" 
d="M958 958l-239 -958h-117l242 958h-395l-240 -958h-117l242 958h-193l25 99h190l39 143q41 150 104.5 220.5t182.5 70.5q60 0 115 -14l-27 -99q-60 17 -86 17q-39 0 -67.5 -13.5t-48 -41.5t-32.5 -60t-26 -80l-37 -143h393l39 143q41 150 104.5 220.5t182.5 70.5
q60 0 115 -14l-27 -99q-59 17 -86 17q-39 0 -67.5 -13.5t-48 -41.5t-32.5 -60t-26 -80l-37 -143h215l-22 -99h-218z" />
    <glyph glyph-name="f_f_i" unicode="ffi" horiz-adv-x="1521" 
d="M1102 0l262 1057h117l-262 -1057h-117zM1411 1315l43 172h135l-43 -172h-135zM958 958l-239 -958h-117l242 958h-395l-240 -958h-117l242 958h-193l25 99h190l39 143q41 150 104.5 220.5t182.5 70.5q60 0 115 -14l-27 -99q-60 17 -86 17q-39 0 -67.5 -13.5t-48 -41.5
t-32.5 -60t-26 -80l-37 -143h393l39 143q41 150 104.5 220.5t182.5 70.5q60 0 115 -14l-27 -99q-59 17 -86 17q-39 0 -67.5 -13.5t-48 -41.5t-32.5 -60t-26 -80l-37 -143h215l-22 -99h-218z" />
    <glyph glyph-name="f_f_l" unicode="ffl" horiz-adv-x="1521" 
d="M1470 1487h117l-368 -1487h-117zM958 958l-239 -958h-117l242 958h-395l-240 -958h-117l242 958h-193l25 99h190l39 143q41 150 104.5 220.5t182.5 70.5q60 0 115 -14l-27 -99q-60 17 -86 17q-39 0 -67.5 -13.5t-48 -41.5t-32.5 -60t-26 -80l-37 -143h393l39 143
q41 150 104.5 220.5t182.5 70.5q60 0 115 -14l-27 -99q-59 17 -86 17q-39 0 -67.5 -13.5t-48 -41.5t-32.5 -60t-26 -80l-37 -143h215l-22 -99h-218z" />
    <glyph glyph-name="f_i" unicode="fi" horiz-adv-x="1011" 
d="M449 958l-240 -958h-117l242 958h-193l25 99h190l39 143q41 150 104.5 220.5t182.5 70.5q60 0 115 -14l-27 -99q-60 17 -86 17q-39 0 -67.5 -13.5t-48 -41.5t-32.5 -60t-26 -80l-37 -143h215l-22 -99h-217zM592 0l262 1057h117l-262 -1057h-117zM901 1315l43 172h135
l-43 -172h-135z" />
    <glyph glyph-name="f_l" unicode="fl" horiz-adv-x="1011" 
d="M449 958l-240 -958h-117l242 958h-193l25 99h190l39 143q41 150 104.5 220.5t182.5 70.5q60 0 115 -14l-27 -99q-60 17 -86 17q-39 0 -67.5 -13.5t-48 -41.5t-32.5 -60t-26 -80l-37 -143h215l-22 -99h-217zM961 1487h116l-368 -1487h-117z" />
    <glyph glyph-name=".notdef" horiz-adv-x="1482" 
d="M305 0v1487h977v-1487h-977zM1165 109v1269h-743v-1269h743z" />
    <glyph glyph-name=".null" horiz-adv-x="0" 
 />
    <glyph glyph-name="nonmarkingreturn" horiz-adv-x="682" 
 />
    <glyph glyph-name="NULL" horiz-adv-x="0" 
 />
    <glyph glyph-name="NULL" horiz-adv-x="0" 
 />
    <glyph glyph-name="CR" unicode="&#xd;" horiz-adv-x="409" 
 />
    <glyph glyph-name="space" unicode=" " horiz-adv-x="409" 
 />
    <glyph glyph-name="exclam" unicode="!" horiz-adv-x="514" 
d="M156 309l266 1178h149l-321 -1178h-94zM252 176l-45 -176h-160l45 176h160z" />
    <glyph glyph-name="quotedbl" unicode="&#x22;" horiz-adv-x="632" 
d="M471 1399l-154 -451h-61l63 451h152zM731 1399l-153 -451h-62l64 451h151z" />
    <glyph glyph-name="numbersign" unicode="#" horiz-adv-x="1206" 
d="M401 428l-182 -428h-119l181 428h-234l37 96h238l157 371h-248l41 96h250l172 408h121l-172 -408h281l172 408h121l-173 -408h209l-41 -96h-211l-159 -371h223l-39 -96h-223l-182 -428h-119l180 428h-281zM723 524l158 371h-281l-160 -371h283z" />
    <glyph glyph-name="dollar" unicode="$" horiz-adv-x="1099" 
d="M369 -6q-143 21 -227.5 123.5t-84.5 265.5q0 24 4 74h115q-2 -31 -2 -64q0 -120 55.5 -198.5t163.5 -98.5l146 590l-25 10q-65 28 -109 54t-84.5 63.5t-60.5 89t-20 117.5q0 176 130 290.5t341 114.5h10l39 156h100l-41 -164q129 -26 209 -118t80 -234q0 -26 -4 -72h-115
q4 36 4 54q0 104 -53 174.5t-147 89.5l-136 -551l54 -23q142 -60 211 -133.5t69 -193.5q0 -184 -139.5 -304t-359.5 -120h-25l-47 -193h-101zM360 1038q0 -50 14.5 -87.5t44.5 -65.5t63.5 -46.5t84.5 -39.5l129 522h-6q-143 0 -236.5 -80t-93.5 -203zM870 401
q0 48 -15.5 85.5t-46 64.5t-61.5 44.5t-77 37.5l-39 16l-137 -559q166 0 271 87.5t105 223.5z" />
    <glyph glyph-name="percent" unicode="%" horiz-adv-x="1771" 
d="M582 1413q111 0 169 -67t58 -197q0 -71 -14.5 -148t-47.5 -155.5t-79.5 -140.5t-117 -101t-153.5 -39q-109 0 -166 66t-57 194q0 70 14.5 147t47 156t78.5 142t116 103t152 40zM563 1329q-72 0 -128 -55t-85.5 -138.5t-44 -165t-14.5 -151.5q0 -168 125 -168
q72 0 128.5 55t87 138t45.5 164t15 149q0 172 -129 172zM1532 1427l-1110 -1456h-109l1110 1456h109zM1454 825q111 0 169 -67t58 -197q0 -71 -14.5 -148t-47.5 -155.5t-79 -140.5t-116.5 -101t-153.5 -39q-109 0 -166 66t-57 195q0 70 14.5 147t46.5 156t78 141.5
t116 102.5t152 40zM1436 741q-72 0 -128 -55t-86 -138.5t-44.5 -165t-14.5 -151.5q0 -168 125 -168q58 0 107 37t79.5 93.5t51.5 126.5t30 133t9 116q0 172 -129 172z" />
    <glyph glyph-name="ampersand" unicode="&#x26;" horiz-adv-x="1396" 
d="M1016 371q132 191 172 403h121q-53 -267 -230 -489l209 -285h-155l-138 193q-219 -216 -497 -216q-197 0 -319 94.5t-122 247.5q0 337 465 525q-145 170 -145 280q0 166 108 270.5t303 104.5q131 0 214 -68t83 -178q0 -266 -389 -444zM522 74q229 0 414 198l-350 488
q-97 -40 -166 -80.5t-123.5 -90.5t-81.5 -111.5t-27 -135.5q0 -116 95.5 -192t238.5 -76zM643 891q313 142 313 344q0 73 -52.5 120.5t-137.5 47.5q-105 0 -182.5 -72.5t-77.5 -175.5q0 -116 137 -264z" />
    <glyph glyph-name="quotesingle" unicode="'" horiz-adv-x="372" 
d="M471 1399l-154 -451h-61l63 451h152z" />
    <glyph glyph-name="parenleft" unicode="(" horiz-adv-x="534" 
d="M172 -217q-70 263 -70 545q0 203 43.5 369t146.5 353.5t302 465.5h113q-70 -100 -113.5 -164t-101 -157t-92.5 -163t-73.5 -163t-59.5 -178t-34.5 -186.5t-13.5 -207.5q0 -226 53 -514h-100z" />
    <glyph glyph-name="parenright" unicode=")" horiz-adv-x="532" 
d="M424 1516q70 -263 70 -545q0 -203 -43.5 -369t-146.5 -353.5t-302 -465.5h-113q53 77 79.5 116t73.5 110t71.5 113t62.5 109.5t58 116t47.5 115t41.5 125t28.5 127.5t20 140t5.5 146q0 227 -53 515h100z" />
    <glyph glyph-name="asterisk" unicode="*" horiz-adv-x="841" 
d="M563 1114l-194 -207l-80 97l231 157l-260 125l64 103l229 -177l43 289l123 -20l-101 -277l287 45l8 -116l-290 10l137 -256l-117 -45z" />
    <glyph glyph-name="plus" unicode="+" 
d="M229 631h373v385h113v-385h375v-103h-375v-385h-113v385h-373v103z" />
    <glyph glyph-name="comma" unicode="," horiz-adv-x="411" 
d="M14 14l41 162h160l-45 -176l-150 -276h-81l141 290h-66z" />
    <glyph glyph-name="hyphen" unicode="-" horiz-adv-x="778" 
d="M664 639l-27 -111h-494l27 111h494z" />
    <glyph glyph-name="period" unicode="." horiz-adv-x="411" 
d="M215 176l-45 -176h-160l45 176h160z" />
    <glyph glyph-name="slash" unicode="/" horiz-adv-x="806" 
d="M-51 0l901 1487h121l-905 -1487h-117z" />
    <glyph glyph-name="zero" unicode="0" horiz-adv-x="1175" 
d="M786 1423q165 0 256 -98.5t91 -292.5q0 -84 -9.5 -176.5t-32.5 -196.5t-57 -200.5t-86.5 -185.5t-117.5 -154.5t-154.5 -104.5t-192.5 -39q-169 0 -261.5 101.5t-92.5 300.5q0 84 10 176.5t34 195.5t59 198t88.5 182.5t119 152t155 103t191.5 38.5zM774 1327
q-110 0 -209 -83t-165 -214t-105 -292.5t-39 -319.5q0 -179 55 -262.5t176 -83.5q111 0 210.5 83.5t165.5 215t104.5 292.5t38.5 318q0 180 -55.5 263t-176.5 83z" />
    <glyph glyph-name="one" unicode="1" horiz-adv-x="661" 
d="M205 0l266 1063h-291l25 94q76 0 126.5 7t89 21t66 44t48 68.5t43.5 101.5h100l-350 -1399h-123z" />
    <glyph glyph-name="two" unicode="2" horiz-adv-x="1079" 
d="M-4 0q17 98 35 164.5t48.5 129t67.5 106.5t99.5 92.5t137.5 91t187 98.5q140 73 190 103t93 73q100 100 100 232q0 116 -65.5 176.5t-183.5 60.5q-268 0 -336 -317h-127q42 199 156 306t323 107q164 0 263 -88t99 -229q0 -63 -16 -119t-49 -103t-71.5 -86t-94 -77
t-105.5 -66.5t-118 -62.5q-152 -75 -238.5 -134.5t-140.5 -121.5q-66 -79 -103 -234h756l-26 -102h-881z" />
    <glyph glyph-name="three" unicode="3" horiz-adv-x="1099" 
d="M197 391q-9 -37 -9 -69q0 -110 65.5 -180t190.5 -70q99 0 184 40.5t138 118t53 175.5q0 60 -18.5 106.5t-48.5 76t-74 48t-90.5 26t-100.5 7.5h-26l22 98q14 -2 49 -2q59 0 115.5 11t110 36t93.5 61.5t64.5 93.5t24.5 126q0 105 -61 169t-179 64q-128 0 -218.5 -77
t-119.5 -208h-129q108 381 476 381q161 0 261.5 -82t100.5 -219q0 -162 -83 -261t-247 -144l-2 -8q105 -25 158 -102t53 -181q0 -137 -67.5 -240.5t-184 -157t-264.5 -53.5q-177 0 -274 85t-97 239q0 33 9 92h125z" />
    <glyph glyph-name="four" unicode="4" horiz-adv-x="1081" 
d="M18 391l29 111l787 897h174l-228 -905h240l-25 -103h-241l-97 -391h-122l96 391h-613zM657 494l103 417q32 128 104 367h-10l-680 -784h483z" />
    <glyph glyph-name="five" unicode="5" horiz-adv-x="1067" 
d="M483 1296l-155 -487h6q64 61 130 86t154 25q158 0 246 -100.5t88 -270.5q0 -161 -66.5 -292.5t-183 -206.5t-258.5 -75q-160 0 -264 89t-104 241q0 14 4 60h121q-4 -12 -4 -50q0 -104 67 -173.5t182 -69.5q155 0 267 139t112 332q0 136 -62.5 203t-176.5 67
q-209 0 -318 -211h-125l252 797h719l-24 -103h-607z" />
    <glyph glyph-name="six" unicode="6" horiz-adv-x="1128" 
d="M983 1065q6 30 6 57q0 95 -56 150t-159 55q-169 0 -288.5 -148.5t-196.5 -465.5h2q55 94 148.5 142t203.5 48q71 0 135.5 -23t116.5 -66t82.5 -112.5t30.5 -154.5q0 -254 -139.5 -413t-368.5 -159q-98 0 -172 33t-116 90.5t-62.5 127.5t-20.5 153q0 93 15 200.5t45.5 227
t83.5 228t121.5 196t167 140t212.5 52.5q162 0 251 -74t89 -219q0 -42 -2 -65h-129zM635 805q-162 0 -273.5 -128t-111.5 -319q0 -124 79 -205t195 -81q153 0 254 125.5t101 324.5q0 121 -68 202t-176 81z" />
    <glyph glyph-name="seven" unicode="7" horiz-adv-x="960" 
d="M1094 1290q-299 -354 -495.5 -658.5t-332.5 -631.5h-139q172 365 371.5 678t472.5 618h-740l27 103h864z" />
    <glyph glyph-name="eight" unicode="8" horiz-adv-x="1142" 
d="M434 739q-82 36 -130 104t-48 158q0 94 39 174t104.5 133.5t152.5 84t183 30.5q159 0 265 -91t106 -222q0 -145 -87 -248.5t-220 -142.5v-6q53 -12 91.5 -41.5t61 -70.5t33 -88t10.5 -101q0 -105 -43 -189.5t-117 -138t-168.5 -81.5t-201.5 -28q-174 0 -277.5 91
t-103.5 235q0 151 97.5 268t252.5 162v8zM592 676q-95 0 -181.5 -44t-142 -125.5t-55.5 -180.5q0 -105 77.5 -179.5t194.5 -74.5q159 0 269 93.5t110 248.5q0 108 -75 185t-197 77zM729 1327q-142 0 -244 -85.5t-102 -229.5q0 -100 70.5 -169t179.5 -69q144 0 245 89.5
t101 230.5q0 100 -69.5 166.5t-180.5 66.5z" />
    <glyph glyph-name="nine" unicode="9" horiz-adv-x="1116" 
d="M219 346q-4 -28 -4 -43q0 -96 65.5 -163.5t172.5 -67.5q91 0 164.5 44.5t116.5 97.5t83 156.5t54 158t39 165.5q3 14 5 21q-85 -112 -174.5 -149.5t-214.5 -37.5q-142 0 -227.5 104t-85.5 251q0 234 139.5 387t358.5 153q354 0 354 -389q0 -130 -26 -294.5t-74 -321.5
q-32 -102 -75 -179.5t-104.5 -138.5t-146 -93t-190.5 -32q-167 0 -264 84t-97 236q0 33 2 51h129zM711 1327q-159 0 -265 -122.5t-106 -311.5q0 -118 53 -192t152 -74q78 0 149.5 29.5t128.5 83.5t91 140t34 191q0 115 -66 185.5t-171 70.5z" />
    <glyph glyph-name="colon" unicode=":" horiz-adv-x="442" 
d="M213 176l-43 -176h-160l43 176h160zM432 1057l-43 -176h-160l43 176h160z" />
    <glyph glyph-name="semicolon" unicode=";" horiz-adv-x="446" 
d="M16 14l41 162h160l-43 -176l-149 -276h-82l139 290h-66zM434 1057l-43 -176h-160l43 176h160z" />
    <glyph glyph-name="less" unicode="&#x3c;" 
d="M1032 1028v-121l-762 -346l762 -358v-121l-862 412v127z" />
    <glyph glyph-name="equal" unicode="=" 
d="M1085 453v-103h-860v103h860zM1085 780v-102h-860v102h860z" />
    <glyph glyph-name="greater" unicode="&#x3e;" 
d="M270 82v121l760 358l-760 346v121l863 -407v-127z" />
    <glyph glyph-name="question" unicode="?" horiz-adv-x="997" 
d="M360 399q15 72 34 123t41 89.5t65.5 78t87 71t125.5 85.5q130 83 185.5 154t55.5 157q0 119 -68.5 185.5t-199.5 66.5q-144 0 -238.5 -78.5t-117.5 -224.5h-125q33 188 155.5 295.5t325.5 107.5q191 0 293 -93t102 -261q0 -89 -57.5 -176t-146.5 -154q-37 -28 -96 -68
t-93 -63.5t-78 -64.5t-69.5 -81t-48 -101.5t-31.5 -137.5h-119zM444 176l-45 -176h-159l45 176h159z" />
    <glyph glyph-name="at" unicode="@" horiz-adv-x="1810" 
d="M1006 983q-90 0 -173.5 -84t-131.5 -203.5t-48 -228.5q0 -82 34 -127t95 -45q59 0 116 35.5t100 92t76.5 124.5t51 136.5t17.5 123.5q0 47 -10.5 84t-43 64.5t-83.5 27.5zM1401 -59q-304 -177 -621 -177q-190 0 -342 77t-243 229t-91 354q0 172 51.5 332t145.5 288.5
t219.5 224.5t282 148.5t323.5 52.5q139 0 254 -32t193.5 -87t132.5 -130.5t79 -160t25 -177.5q0 -126 -39 -247.5t-109 -219.5t-178 -157.5t-235 -59.5q-79 0 -129.5 38.5t-50.5 110.5q0 13 4 45q-58 -95 -144.5 -144.5t-176.5 -49.5q-102 0 -169 66t-67 192q0 163 66 304.5
t182.5 227.5t255.5 86q76 0 131.5 -42t69.5 -142l65 166h127q-233 -503 -233 -647q0 -55 27 -85t71 -30q69 0 130 29.5t105.5 78t80 110t57 128t32.5 128.5t11 114q0 103 -37 191t-107.5 155t-183 105t-254.5 38q-132 0 -261.5 -43t-241.5 -126t-197.5 -195.5t-135 -262.5
t-49.5 -315q0 -135 45 -243.5t123.5 -178.5t182.5 -107.5t225 -37.5q146 0 293 45.5t266 124.5z" />
    <glyph glyph-name="A" unicode="A" horiz-adv-x="1368" 
d="M1087 0l-61 487h-700l-310 -487h-135l967 1487h162l202 -1487h-125zM893 1384l-496 -796h615l-111 796h-8z" />
    <glyph glyph-name="B" unicode="B" horiz-adv-x="1286" 
d="M834 1487q203 0 303 -62q70 -40 110.5 -115t40.5 -155q0 -151 -107 -256t-268 -131l-2 -8q109 -29 174.5 -105.5t65.5 -171.5q0 -173 -82.5 -283.5t-230.5 -162.5q-108 -37 -328 -37h-438l368 1487h394zM692 815q216 0 342.5 90.5t126.5 245.5q0 123 -84.5 178t-269.5 55
h-268l-140 -569h293zM539 102q202 0 299 52q85 44 134.5 122t49.5 189q0 130 -81.5 190t-260.5 60h-309l-150 -613h318z" />
    <glyph glyph-name="C" unicode="C" horiz-adv-x="1400" 
d="M1307 477q-80 -247 -254.5 -374.5t-413.5 -127.5q-241 0 -366.5 146.5t-125.5 402.5q0 203 60 385t165 314t253.5 209t318.5 77q220 0 350.5 -116t130.5 -330q0 -70 -4 -92h-125q4 17 4 73q0 176 -101 270.5t-271 94.5q-125 0 -233 -53t-183.5 -141t-129.5 -201.5
t-80 -235.5t-26 -243q0 -208 96 -333.5t277 -125.5q191 0 322 96t207 305h129z" />
    <glyph glyph-name="D" unicode="D" horiz-adv-x="1474" 
d="M805 1487q259 0 387 -80q115 -67 177.5 -200.5t62.5 -307.5q0 -255 -114.5 -459t-303.5 -325q-176 -115 -594 -115h-348l368 1487h365zM547 102q271 0 434 123q143 107 232.5 288t89.5 392q0 368 -263 453q-71 26 -229 26h-272l-318 -1282h326z" />
    <glyph glyph-name="E" unicode="E" horiz-adv-x="1200" 
d="M1315 1487l-25 -103h-751l-142 -565h727l-26 -102h-725l-154 -615h793l-25 -102h-915l368 1487h875z" />
    <glyph glyph-name="F" unicode="F" horiz-adv-x="1148" 
d="M1315 1487l-25 -103h-751l-148 -585h715l-25 -103h-712l-174 -696h-123l368 1487h875z" />
    <glyph glyph-name="G" unicode="G" horiz-adv-x="1449" 
d="M1298 1057q0 175 -94.5 264.5t-263.5 89.5q-125 0 -234.5 -53t-187 -141.5t-134 -202.5t-83.5 -237.5t-27 -244.5q0 -208 93.5 -330t275.5 -122q139 0 263.5 65t201.5 189q43 68 72.5 143t60.5 199h-432l27 102h548l-194 -778h-113l56 209l-9 2q-93 -127 -214 -179
t-279 -52q-234 0 -360 144.5t-126 399.5q0 204 62.5 386.5t169.5 314.5t257.5 209t319.5 77q220 0 343.5 -113t123.5 -327v-14h-123z" />
    <glyph glyph-name="H" unicode="H" horiz-adv-x="1490" 
d="M565 1487l-166 -672h842l166 672h123l-373 -1487h-123l180 715h-839l-180 -715h-123l370 1487h123z" />
    <glyph glyph-name="I" unicode="I" horiz-adv-x="528" 
d="M72 0l372 1487h123l-372 -1487h-123z" />
    <glyph glyph-name="J" unicode="J" horiz-adv-x="684" 
d="M477 451q-28 -116 -61 -196t-84 -143.5t-124 -94.5t-171 -31q-59 0 -129 12l29 111q60 -13 102 -13q57 0 104 20.5t79 53.5t59.5 86t45 104.5t35.5 122.5l252 1004h123z" />
    <glyph glyph-name="K" unicode="K" horiz-adv-x="1187" 
d="M1090 0h-146l-553 780l-196 -780h-123l370 1487h123l-164 -658l783 658h164l-824 -686z" />
    <glyph glyph-name="L" unicode="L" horiz-adv-x="1120" 
d="M565 1487l-346 -1385h776l-24 -102h-899l370 1487h123z" />
    <glyph glyph-name="M" unicode="M" horiz-adv-x="1859" 
d="M643 1487l135 -961q38 -277 43 -385h8q34 61 73 123.5t92 142.5t81 125l621 955h202l-372 -1487h-123l346 1366h-4l-881 -1366h-133l-192 1366h-9l-342 -1366h-116l370 1487h201z" />
    <glyph glyph-name="N" unicode="N" horiz-adv-x="1495" 
d="M627 1487l434 -1370h12l344 1370h117l-373 -1487h-196l-422 1366h-13l-342 -1366h-116l370 1487h185z" />
    <glyph glyph-name="O" unicode="O" horiz-adv-x="1529" 
d="M969 1511q245 0 383.5 -158.5t138.5 -424.5q0 -195 -68 -372.5t-181 -304t-264 -201.5t-312 -75q-241 0 -381 155t-140 409q0 204 67 386t179.5 309.5t263.5 202t314 74.5zM958 1411q-127 0 -238.5 -52t-192 -139t-138.5 -200.5t-86.5 -239t-28.5 -250.5
q0 -211 110 -332.5t294 -121.5q106 0 209 43t188 122t150 184t101 237t36 272q0 227 -104.5 352t-299.5 125z" />
    <glyph glyph-name="P" unicode="P" horiz-adv-x="1239" 
d="M440 1487h404q130 0 209 -21.5t141 -70.5q117 -100 117 -258q0 -105 -42.5 -203t-117.5 -164q-73 -66 -166 -94.5t-233 -28.5h-396l-161 -647h-123zM688 750q138 0 206.5 11.5t123.5 47.5q77 47 122.5 131.5t45.5 179.5q0 264 -342 264h-305l-154 -634h303z" />
    <glyph glyph-name="Q" unicode="Q" horiz-adv-x="1529" 
d="M1059 96q-183 -121 -393 -121q-241 0 -381 155t-140 409q0 204 67 386t179.5 309.5t263.5 202t314 74.5q245 0 383.5 -158.5t138.5 -424.5q0 -231 -93.5 -434.5t-250.5 -333.5l143 -183l-86 -65zM958 1411q-127 0 -238.5 -52t-192 -139t-138.5 -200.5t-86.5 -239
t-28.5 -250.5q0 -211 110 -332.5t294 -121.5q169 0 317 102l-170 217l86 66l168 -215q131 120 207 299t76 389q0 227 -104.5 352t-299.5 125z" />
    <glyph glyph-name="R" unicode="R" horiz-adv-x="1284" 
d="M829 1487q441 0 441 -338q0 -186 -118 -297t-310 -137v-8q38 -12 67.5 -30.5t50 -37.5t35.5 -49.5t23.5 -54t15.5 -65.5t10 -69t7 -79l32 -322h-122l-37 319q-5 40 -8.5 63.5t-9.5 57t-12.5 53t-16 45.5t-22 41t-29.5 32.5t-39 27.5t-49 19t-60.5 12.5t-73.5 3.5h-237
l-172 -674h-123l370 1487h387zM668 778q227 0 352 95.5t125 267.5q0 124 -80.5 181.5t-253.5 57.5h-270l-148 -602h275z" />
    <glyph glyph-name="S" unicode="S" horiz-adv-x="1204" 
d="M1073 1057q4 50 4 71q0 131 -84.5 207t-236.5 76q-157 0 -261 -86.5t-104 -224.5q0 -38 10 -71t24.5 -57t42 -46.5t50.5 -37t62.5 -31.5t65.5 -26t71 -24q5 -2 16 -6q149 -55 211 -96q140 -96 141 -267q0 -134 -70 -240t-192.5 -164.5t-273.5 -58.5q-212 0 -341.5 105
t-129.5 293q0 53 12 112h129q-10 -65 -10 -102q0 -143 83 -225t255 -82q173 0 291 99.5t118 250.5q0 42 -11 76.5t-34 62t-48 47.5t-65 39t-72 31.5t-81 28.5q-42 14 -65.5 22.5t-62 23.5t-61 26.5t-53.5 30.5t-49 37t-39 43t-31.5 52t-18 61.5t-7.5 73.5q0 184 145.5 307
t362.5 123q191 0 315.5 -96t124.5 -268q0 -43 -6 -90h-127z" />
    <glyph glyph-name="T" unicode="T" horiz-adv-x="1157" 
d="M236 1384l24 103h1112l-24 -103h-496l-344 -1384h-123l344 1384h-493z" />
    <glyph glyph-name="U" unicode="U" horiz-adv-x="1417" 
d="M1227 504q-71 -283 -220 -406t-389 -123q-220 0 -333 109t-113 299q0 82 31 213l223 891h123l-227 -922q-23 -97 -23 -166q0 -151 81 -237t253 -86q189 0 305 115.5t176 361.5l232 934h124z" />
    <glyph glyph-name="V" unicode="V" horiz-adv-x="1286" 
d="M424 0l-156 1487h127l137 -1376h7l833 1376h135l-915 -1487h-168z" />
    <glyph glyph-name="W" unicode="W" horiz-adv-x="1886" 
d="M408 1487l-7 -959q0 -69 -2 -211t-2 -208h13l671 1378h203l-12 -957q-2 -137 -2 -421h10l676 1378h125l-733 -1487h-195l4 930q0 174 12 456h-14l-672 -1386h-198l-6 1487h129z" />
    <glyph glyph-name="X" unicode="X" horiz-adv-x="1234" 
d="M281 1487h147l270 -625l562 625h153l-651 -721l344 -766h-150l-292 672l-629 -672h-152l723 766z" />
    <glyph glyph-name="Y" unicode="Y" horiz-adv-x="1239" 
d="M254 1487h139l277 -737l633 737h153l-745 -854l-160 -633h-123l160 633z" />
    <glyph glyph-name="Z" unicode="Z" horiz-adv-x="1169" 
d="M1155 1384h-862l26 103h1008l-27 -107l-1191 -1278h911l-27 -102h-1059l25 106z" />
    <glyph glyph-name="bracketleft" unicode="[" horiz-adv-x="608" 
d="M795 1487l-23 -90h-246l-379 -1522h246l-22 -90h-361l424 1702h361z" />
    <glyph glyph-name="backslash" unicode="\" horiz-adv-x="768" 
d="M463 0l-170 1487h115l172 -1487h-117z" />
    <glyph glyph-name="bracketright" unicode="]" horiz-adv-x="608" 
d="M-131 -215l22 90h244l379 1522h-244l23 90h360l-424 -1702h-360z" />
    <glyph glyph-name="asciicircum" unicode="^" 
d="M1104 662h-121l-295 641l-291 -641h-114l374 825h72z" />
    <glyph glyph-name="underscore" unicode="_" horiz-adv-x="978" 
d="M-174 -172h977l-19 -80h-977z" />
    <glyph glyph-name="grave" unicode="`" horiz-adv-x="1161" 
d="M643 1487h139l152 -252h-103z" />
    <glyph glyph-name="a" unicode="a" horiz-adv-x="1083" 
d="M696 0q16 118 27 156q-72 -92 -162.5 -134t-212.5 -42q-139 0 -223 78.5t-84 201.5q0 58 17 106.5t45 84.5t72.5 65.5t89 49t107 34.5t114.5 23.5t122 14t119.5 7.5t116.5 4q20 100 20 137q0 91 -58.5 143t-172.5 52t-202 -59t-118 -166h-127q46 162 169.5 243.5
t306.5 81.5q157 0 239 -77t82 -213q0 -54 -16 -129l-101 -404q-37 -147 -47 -258h-123zM819 549q-58 0 -95.5 -0.5t-113 -6t-127 -15.5t-116.5 -31.5t-105 -51t-68 -76.5t-28 -106q0 -83 55 -133.5t152 -50.5q101 0 197 51t155 141q48 75 94 279z" />
    <glyph glyph-name="b" unicode="b" horiz-adv-x="1179" 
d="M387 918q150 159 348 159q92 0 162.5 -36t111.5 -98t61 -136.5t20 -159.5q0 -131 -43.5 -253t-117.5 -213.5t-179 -146t-222 -54.5q-247 0 -319 213l-49 -193h-119l371 1487h116zM270 391q0 -65 13 -119t41 -98.5t78.5 -70t119.5 -25.5q123 0 225.5 79.5t160 212
t57.5 285.5q0 65 -13 120.5t-40.5 102.5t-77 74t-117.5 27q-123 0 -226.5 -80t-162 -215t-58.5 -293z" />
    <glyph glyph-name="c" unicode="c" horiz-adv-x="1091" 
d="M479 76q245 0 363 268h127q-66 -180 -193.5 -274.5t-306.5 -94.5q-176 0 -278.5 111.5t-102.5 296.5q0 104 24.5 204t75 189.5t121 157.5t169 107.5t212.5 39.5q165 0 262 -92t97 -244q0 -10 -2 -35.5t-3 -35.5h-126q4 62 4 67q0 110 -65 175t-181 65q-86 0 -162 -34.5
t-130.5 -93t-94 -134.5t-59 -160t-19.5 -168q0 -147 71.5 -231t196.5 -84z" />
    <glyph glyph-name="d" unicode="d" horiz-adv-x="1177" 
d="M793 139q-147 -159 -349 -159q-93 0 -163 34.5t-110 95.5t-59.5 136t-19.5 164q0 175 71 327t202 246t292 94q117 0 197 -47.5t119 -159.5l157 617h117l-373 -1487h-116zM463 78q124 0 226.5 80.5t161 222.5t58.5 315q0 133 -64.5 208t-187.5 75q-190 0 -316 -163.5
t-126 -414.5q0 -65 13 -120t40.5 -102t77 -74t117.5 -27z" />
    <glyph glyph-name="e" unicode="e" horiz-adv-x="1110" 
d="M948 313q-69 -165 -188 -251.5t-303 -86.5q-183 0 -278 98.5t-95 278.5q0 199 71.5 364.5t205.5 265t303 99.5q182 0 277 -99t95 -273q0 -97 -20 -203h-799q-12 -94 -12 -144q0 -288 264 -288q125 0 221 66t135 173h123zM913 604q1 10 4 41.5t3 46.5q0 142 -68 216.5
t-197 74.5q-145 0 -252.5 -95.5t-160.5 -283.5h671z" />
    <glyph glyph-name="f" unicode="f" horiz-adv-x="585" 
d="M449 958l-240 -958h-117l242 958h-193l25 99h190l39 143q41 150 104.5 220.5t182.5 70.5q60 0 115 -14l-27 -99q-60 17 -86 17q-39 0 -67.5 -13.5t-48 -41.5t-32.5 -60t-26 -80l-37 -143h215l-22 -99h-217z" />
    <glyph glyph-name="g" unicode="g" horiz-adv-x="1173" 
d="M887 57q-40 -162 -99.5 -263.5t-162 -157.5t-252.5 -56q-79 0 -144.5 19t-117.5 57.5t-81.5 104.5t-29.5 153h115q0 -112 67 -174t189 -62q160 0 255 89t142 282l37 156q-78 -91 -159 -129.5t-191 -38.5q-165 0 -260 111t-95 294q0 129 42.5 246.5t115.5 202.5
t174.5 135.5t214.5 50.5q121 0 204 -55.5t120 -155.5l47 191h117zM643 979q-125 0 -221.5 -72.5t-147.5 -192.5t-51 -265q0 -152 71 -233t185 -81q77 0 153 37t139 104t101.5 173t38.5 233q0 297 -268 297z" />
    <glyph glyph-name="h" unicode="h" horiz-adv-x="1153" 
d="M385 903q58 87 150.5 130.5t201.5 43.5q133 0 219 -70t86 -206q0 -104 -32 -221l-144 -580h-118l137 547q37 142 37 235q0 90 -52 143.5t-153 53.5q-134 0 -250.5 -104t-159.5 -277l-149 -598h-117l371 1487h116z" />
    <glyph glyph-name="i" unicode="i" horiz-adv-x="460" 
d="M41 0l262 1057h117l-262 -1057h-117zM350 1315l43 172h135l-43 -172h-135z" />
    <glyph glyph-name="j" unicode="j" horiz-adv-x="460" 
d="M123 -135q-33 -133 -115.5 -209t-202.5 -76q-45 0 -94 12l25 107q31 -8 69 -8q84 0 134.5 58t78.5 169l287 1139h117zM352 1315l43 172h135l-43 -172h-135z" />
    <glyph glyph-name="k" unicode="k" horiz-adv-x="962" 
d="M844 0h-137l-402 580l-147 -580h-117l371 1487h116l-215 -862l574 432h166l-619 -471z" />
    <glyph glyph-name="l" unicode="l" horiz-adv-x="460" 
d="M410 1487h116l-368 -1487h-117z" />
    <glyph glyph-name="m" unicode="m" horiz-adv-x="1736" 
d="M379 905q62 81 153.5 126.5t184.5 45.5q104 0 176.5 -55.5t85.5 -163.5q73 105 171 162t210 57q278 0 278 -256q0 -64 -20 -137l-170 -684h-117l133 530q56 221 56 283q0 166 -177 166q-141 0 -245 -111.5t-158 -320.5l-137 -547h-117l152 616q28 118 28 191
q0 80 -46.5 126t-127.5 46q-79 0 -146 -36.5t-115 -100t-81 -136.5t-55 -159l-137 -547h-117l264 1057h115z" />
    <glyph glyph-name="n" unicode="n" horiz-adv-x="1153" 
d="M369 895q55 86 156.5 134t209.5 48q133 0 219 -70t86 -206q0 -95 -30 -221l-146 -580h-119l140 547q35 134 35 235q0 90 -52 143.5t-153 53.5q-134 0 -249.5 -104t-158.5 -277l-149 -598h-117l262 1057h109z" />
    <glyph glyph-name="o" unicode="o" horiz-adv-x="1169" 
d="M698 1081q186 0 284.5 -111.5t98.5 -301.5q0 -193 -77.5 -351t-217 -250t-313.5 -92q-181 0 -283 114t-102 302q0 143 47.5 271t128.5 219.5t194 145.5t240 54zM690 981q-98 0 -185.5 -45t-152.5 -124t-103 -193.5t-38 -247.5q0 -137 72 -216t202 -79q132 0 240 78.5
t170.5 218t62.5 311.5q0 141 -69.5 219t-198.5 78z" />
    <glyph glyph-name="p" unicode="p" horiz-adv-x="1179" 
d="M385 918q150 159 348 159q92 0 163 -36t112 -98t61.5 -136.5t20.5 -159.5q0 -177 -73 -330.5t-201 -245t-279 -91.5q-260 0 -332 206l-150 -596h-116l366 1467h115zM715 979q-124 0 -226.5 -80.5t-160.5 -217.5t-58 -300q0 -141 64 -222t188 -81q122 0 224 77.5
t160.5 210.5t58.5 289q0 65 -13 120.5t-40.5 102.5t-78 74t-118.5 27z" />
    <glyph glyph-name="q" unicode="q" horiz-adv-x="1173" 
d="M793 139q-147 -159 -349 -159q-92 0 -162.5 36t-111 98t-60.5 136.5t-20 159.5q0 176 73 328.5t205.5 245.5t293.5 93q116 0 192.5 -49.5t116.5 -163.5l45 193h119l-365 -1467h-119zM463 78q124 0 226.5 80.5t161 222.5t58.5 315q0 133 -64.5 208t-189.5 75
q-123 0 -224 -73.5t-159.5 -206.5t-58.5 -298q0 -65 13 -120t40.5 -102t78 -74t118.5 -27z" />
    <glyph glyph-name="r" unicode="r" horiz-adv-x="708" 
d="M788 958q-57 11 -88 11q-78 0 -145.5 -32.5t-117.5 -90.5t-85.5 -131t-56.5 -160l-137 -555h-117l262 1057h115l-33 -137q132 147 324 147q54 0 106 -8z" />
    <glyph glyph-name="s" unicode="s" horiz-adv-x="993" 
d="M823 719q4 46 4 55q0 209 -245 209q-118 0 -196.5 -56t-78.5 -141q0 -33 13.5 -60t33.5 -45.5t54.5 -36t63 -28t73.5 -24.5q135 -46 185 -75q120 -70 120 -198q0 -151 -122.5 -247.5t-309.5 -96.5q-107 0 -192 30.5t-140 101t-55 172.5q0 38 8 65h123q-8 -24 -8 -57
q0 -213 262 -213q132 0 219.5 62t87.5 159q0 19 -5 36.5t-10.5 30.5t-19.5 26.5t-23 22.5t-31 20t-32.5 16.5t-38.5 16t-38 14t-42 14.5q-137 46 -187 76q-116 69 -116 194q0 141 113 230t297 89q165 0 260.5 -76t95.5 -225q0 -15 -4 -61h-119z" />
    <glyph glyph-name="t" unicode="t" horiz-adv-x="600" 
d="M444 958l-174 -694q-12 -46 -12 -78q0 -51 27 -70.5t75 -19.5q27 0 103 13l-31 -109q-52 -10 -92 -10q-54 0 -97.5 13t-75.5 50.5t-32 96.5q0 50 25 141l168 667h-195l25 99h194l58 231h116l-57 -231h217l-22 -99h-220z" />
    <glyph glyph-name="u" unicode="u" horiz-adv-x="1150" 
d="M780 160q-55 -85 -154.5 -132.5t-207.5 -47.5q-133 0 -219 70t-86 206q0 95 30 221l146 580h117l-138 -549q-37 -154 -37 -234q0 -89 52.5 -142.5t152.5 -53.5q134 0 250.5 104t159.5 275l149 600h117l-264 -1057h-111z" />
    <glyph glyph-name="v" unicode="v" horiz-adv-x="1009" 
d="M307 0l-139 1057h125l106 -948l580 948h127l-664 -1057h-135z" />
    <glyph glyph-name="w" unicode="w" horiz-adv-x="1611" 
d="M961 0l-35 965l-535 -965h-170l-43 1057h121l29 -961l528 961h172l39 -951l516 951h123l-584 -1057h-161z" />
    <glyph glyph-name="x" unicode="x" horiz-adv-x="995" 
d="M858 0h-133l-236 473l-448 -473h-150l539 563l-248 494h133l203 -420l400 420h149l-494 -504z" />
    <glyph glyph-name="y" unicode="y" horiz-adv-x="1013" 
d="M461 0q-18 -30 -44.5 -75.5t-44 -75.5t-43.5 -69.5t-48 -65.5t-52.5 -53.5t-61.5 -43.5t-70.5 -26.5t-84.5 -10.5q-64 0 -121 17l29 104q46 -14 94 -14q40 0 73.5 12.5t57 29t50 51t42.5 60.5t46 77.5t49 82.5l-166 1057h127l131 -930l553 930h131z" />
    <glyph glyph-name="z" unicode="z" horiz-adv-x="956" 
d="M113 98h673l-24 -98h-825l24 96l879 862h-652l23 99h803l-29 -101z" />
    <glyph glyph-name="braceleft" unicode="{" horiz-adv-x="612" 
d="M270 141q-26 -107 -26 -164q0 -106 96 -106q32 0 43 4l-23 -92q-36 -4 -53 -4q-184 0 -184 192q0 69 20 148l45 184q27 121 27 152q0 151 -129 151l23 88q88 2 150.5 73.5t102.5 231.5l35 144q47 195 124 284t224 89q21 0 48 -3l-23 -90q-14 2 -33 2q-32 0 -58.5 -8.5
t-45 -21.5t-34.5 -34.5t-26 -41t-20 -49t-15 -50t-12.5 -51.5t-11.5 -47l-25 -96q-24 -94 -47 -155.5t-57 -113t-80.5 -77t-109.5 -29.5q76 -17 108.5 -59t32.5 -113q0 -92 -33 -207z" />
    <glyph glyph-name="bar" unicode="|" horiz-adv-x="587" 
d="M406 1487v-1487h-115v1487h115z" />
    <glyph glyph-name="braceright" unicode="}" horiz-adv-x="616" 
d="M403 1153q27 111 27 164q0 106 -96 106q-32 0 -43 -4l22 92q45 5 54 5q184 0 184 -193q0 -65 -21 -147l-45 -185q-26 -117 -26 -151q0 -152 129 -152l-23 -88q-89 -5 -151.5 -75.5t-102.5 -229.5l-35 -143q-47 -195 -124 -284t-224 -89q-29 0 -47 2l23 90q14 -2 33 -2
q31 0 57.5 8.5t45 21.5t35 34.5t26 41t19.5 49t15 49.5t13 51.5t12 47.5l24 96q44 185 110 276.5t185 98.5q-76 17 -108.5 59t-32.5 113q0 92 33 207z" />
    <glyph glyph-name="asciitilde" unicode="~" 
d="M838 440q-52 0 -104 18t-88 39.5t-84.5 39.5t-94.5 18q-16 0 -29.5 -2.5t-27 -10.5t-21.5 -13t-21.5 -20t-18.5 -21t-20.5 -26.5t-19.5 -25.5l-84 64q62 85 114.5 122t129.5 37q59 0 112.5 -18t87.5 -39t79 -39t90 -18q14 0 27 3t22.5 6.5t21.5 12.5t18 14t18 19.5t16 20
t17 23t17 22.5l86 -64q-43 -58 -75 -90t-74.5 -52t-93.5 -20z" />
    <glyph glyph-name="uni00A0" unicode="&#xa0;" horiz-adv-x="409" 
 />
    <glyph glyph-name="exclamdown" unicode="&#xa1;" horiz-adv-x="487" 
d="M354 778l-266 -1177h-149l321 1177h94zM258 911l45 176h160l-45 -176h-160z" />
    <glyph glyph-name="cent" unicode="&#xa2;" horiz-adv-x="1101" 
d="M455 205q-142 25 -222.5 132t-80.5 269q0 128 38 249t109 220t182.5 161.5t247.5 68.5l53 213h99l-56 -220q135 -19 211 -106.5t76 -222.5q0 -18 -4 -72h-127q4 54 4 68q0 93 -48.5 154.5t-135.5 78.5l-226 -897q222 15 330 266h127q-63 -174 -186.5 -269t-294.5 -99
l-57 -230h-99zM274 614q0 -129 53.5 -209t151.5 -100l226 897q-100 -8 -183.5 -63.5t-136.5 -139t-82 -183.5t-29 -202z" />
    <glyph glyph-name="sterling" unicode="&#xa3;" horiz-adv-x="1175" 
d="M1094 1026q18 68 18 121q0 178 -221 178q-138 0 -223 -83t-127 -247l-49 -196h282l-26 -97h-283l-80 -325q-29 -113 -68 -174.5t-102 -93.5l-2 -7h772l-27 -102h-993l25 102q114 4 176 68t98 203l82 329h-217l25 97h217l45 184q56 221 169.5 329.5t309.5 108.5
q154 0 245 -66.5t91 -201.5q0 -70 -17 -127h-120z" />
    <glyph glyph-name="currency" unicode="&#xa4;" horiz-adv-x="1224" 
d="M1020 627q0 -148 -86 -254l160 -140l-76 -73l-146 162q-104 -93 -241 -93q-144 0 -240 90l-153 -159l-74 73l166 140q-78 105 -78 243q0 144 86 250l-162 142l78 65l143 -153q110 92 244 92q141 0 238 -90l153 151l76 -65l-166 -142q78 -105 78 -239zM911 623
q0 124 -73 213.5t-201 89.5q-125 0 -201 -88.5t-76 -219.5q0 -124 73.5 -213.5t201.5 -89.5q124 0 200 88.5t76 219.5z" />
    <glyph glyph-name="yen" unicode="&#xa5;" horiz-adv-x="1196" 
d="M543 735l-264 664h147l227 -656l547 656h152l-578 -664h307l-26 -102h-369l-39 -141h373l-27 -103h-370l-97 -389h-123l97 389h-369l27 103h366l37 141h-368l24 102h326z" />
    <glyph glyph-name="brokenbar" unicode="&#xa6;" horiz-adv-x="587" 
d="M397 1427v-555h-114v555h114zM397 555v-555h-114v555h114z" />
    <glyph glyph-name="section" unicode="&#xa7;" horiz-adv-x="1034" 
d="M858 1126q6 30 6 58q0 153 -174 153q-124 0 -195 -50.5t-71 -141.5q0 -24 8.5 -46.5t19 -38.5t35 -35.5t39 -30t50.5 -29t50 -25t56 -25.5q42 -20 59.5 -29t54.5 -29t54.5 -34t43 -37t37 -44.5t21 -50t9.5 -60.5q0 -100 -68.5 -189.5t-187.5 -138.5q33 -36 53 -84.5
t20 -95.5q0 -164 -115 -266.5t-296 -102.5q-88 0 -159 25t-117 82t-46 139q0 39 12 86h121q-8 -31 -8 -68q0 -80 51 -128t156 -48q134 0 205 67.5t71 190.5q0 70 -39 115q-18 19 -48 39t-53 32t-70 35t-66 33q-46 24 -76 41t-67 44.5t-58 53t-36 61t-15 75.5
q0 99 56.5 173.5t189.5 147.5q-72 79 -72 170q0 138 111 225t280 87q129 0 214 -56t85 -170q0 -39 -10 -80h-121zM635 354q109 62 154 116t45 132q0 63 -52 109t-190 116l-146 72q-89 -49 -140.5 -110t-51.5 -125q0 -69 57 -122t197 -124z" />
    <glyph glyph-name="dieresis" unicode="&#xa8;" horiz-adv-x="1167" 
d="M526 1315l43 172h133l-43 -172h-133zM901 1315l43 172h133l-43 -172h-133z" />
    <glyph glyph-name="copyright" unicode="&#xa9;" horiz-adv-x="1781" 
d="M1319 588q-23 -148 -120 -231t-249 -83q-184 0 -292.5 128t-108.5 337q0 203 111 330t294 127q145 0 245 -85.5t120 -221.5h-125q-19 101 -81.5 157t-158.5 56q-125 0 -203.5 -101t-78.5 -262q0 -166 77 -268t201 -102q96 0 159.5 58.5t84.5 160.5h125zM283 748
q0 -189 90 -345t242 -243.5t331 -87.5q134 0 256 51.5t212 140.5t143 215.5t53 268.5q0 141 -53 267t-143 214.5t-212 140t-256 51.5q-179 0 -331 -87t-242 -242.5t-90 -343.5zM180 748q0 215 100.5 391t276 276.5t389.5 100.5t389.5 -100.5t276 -276.5t100.5 -391
q0 -162 -59 -305t-161 -245t-244 -161.5t-302 -59.5t-302 59.5t-244 161.5t-161 245t-59 305z" />
    <glyph glyph-name="ordfeminine" unicode="&#xaa;" horiz-adv-x="880" 
d="M305 1251q29 122 124.5 191t234.5 69q116 0 186 -51t70 -160q0 -48 -15 -106l-80 -320q-24 -107 -30 -188h-99q0 32 17 115q-59 -66 -138.5 -101.5t-162.5 -35.5q-108 0 -167 47.5t-59 130.5q0 58 22.5 106t56.5 80.5t88 58.5t104 40.5t117.5 26t114.5 16t110 8.5l8 32
q8 31 8 72q0 71 -44.5 107t-119.5 36q-93 0 -156 -45t-83 -129h-107zM776 1092q-47 -2 -82 -4t-88 -8.5t-92 -16.5t-83 -28t-71.5 -41.5t-46 -59.5t-18.5 -80q0 -48 37.5 -76t109.5 -28q121 0 205 78.5t121 226.5z" />
    <glyph glyph-name="guillemotleft" unicode="&#xab;" horiz-adv-x="815" 
d="M326 143h-107l-121 422l318 404h114l-305 -414zM612 143h-106l-121 422l317 404h115l-305 -414z" />
    <glyph glyph-name="logicalnot" unicode="&#xac;" 
d="M1069 270h-115v381h-745v105h860v-486z" />
    <glyph glyph-name="uni00AD" unicode="&#xad;" horiz-adv-x="778" 
d="M664 639l-27 -111h-494l27 111h494z" />
    <glyph glyph-name="registered" unicode="&#xae;" horiz-adv-x="1781" 
d="M963 1174q140 0 216 -61.5t76 -176.5q0 -77 -51.5 -134t-144.5 -87q41 -7 71 -22t47 -30.5t31 -46t19 -48.5t14 -58l43 -213h-127l-33 178q-21 116 -57.5 152.5t-136.5 36.5h-154v-367h-119v877h306zM938 760q96 0 146.5 43t50.5 123q0 151 -197 151h-162v-317h162z
M283 748q0 -189 90 -345t242 -243.5t331 -87.5q134 0 256 51.5t212 140.5t143 215.5t53 268.5q0 141 -53 267t-143 214.5t-212 140t-256 51.5q-179 0 -331 -87t-242 -242.5t-90 -343.5zM180 748q0 215 100.5 391t276 276.5t389.5 100.5t389.5 -100.5t276 -276.5t100.5 -391
q0 -162 -59 -305t-161 -245t-244 -161.5t-302 -59.5t-302 59.5t-244 161.5t-161 245t-59 305z" />
    <glyph glyph-name="overscore" unicode="&#xaf;" horiz-adv-x="1138" 
d="M545 1436h502l-25 -97h-502z" />
    <glyph glyph-name="degree" unicode="&#xb0;" horiz-adv-x="788" 
d="M240 1130q0 125 89 211t210 86t210 -86t89 -211t-89 -210.5t-210 -85.5t-210 85.5t-89 210.5zM750 1130q0 88 -58 150.5t-153 62.5t-153 -62.5t-58 -150.5t58 -150t153 -62t153 62t58 150z" />
    <glyph glyph-name="plusminus" unicode="&#xb1;" 
d="M176 102h860v-102h-860v102zM176 719h373v366h113v-366h374v-101h-374v-366h-113v366h-373v101z" />
    <glyph glyph-name="twosuperior" unicode="&#xb2;" horiz-adv-x="692" 
d="M197 979q24 157 102 246q35 39 86.5 73t97 55t99.5 51.5t90 61.5q43 36 61.5 69t18.5 77q0 45 -32 75.5t-89 30.5q-76 0 -119 -42.5t-68 -137.5h-110q35 141 110 203.5t209 62.5q101 0 160 -52t59 -128q0 -57 -23 -106t-58 -82.5t-85 -66.5t-95.5 -55.5t-98 -51
t-84.5 -52.5q-41 -30 -60.5 -63t-25.5 -78h428l-25 -90h-548z" />
    <glyph glyph-name="threesuperior" unicode="&#xb3;" horiz-adv-x="720" 
d="M358 1231q-4 -9 -4 -45q0 -66 44 -105t116 -39q80 0 134 57t54 136q0 54 -39.5 84.5t-111.5 30.5h-37l25 88h22q93 0 148 44.5t55 121.5q0 55 -35 85.5t-100 30.5q-150 0 -180 -164h-117q52 248 317 248q108 0 172 -49t64 -131q0 -76 -54.5 -138t-134.5 -83l-2 -10
q125 -34 125 -150q0 -121 -94.5 -204t-230.5 -83q-106 0 -179 62.5t-73 167.5q0 17 4 45h112z" />
    <glyph glyph-name="acute" unicode="&#xb4;" horiz-adv-x="1161" 
d="M827 1487h156l-278 -252h-111z" />
    <glyph glyph-name="mu" unicode="&#xb5;" horiz-adv-x="1267" 
d="M823 172q-31 -38 -51.5 -61t-55 -52t-67.5 -44.5t-81 -26.5t-105 -11q-105 0 -168 43t-88 115l-135 -547h-117l364 1469h117l-151 -608q-23 -97 -23 -156q0 -219 227 -219q129 0 236.5 105.5t159.5 307.5l141 570h119l-201 -813q-12 -46 -12 -82q0 -38 19.5 -57t68.5 -19
t82 10l-25 -96q-47 -12 -100 -12q-158 0 -158 125q0 41 4 59z" />
    <glyph glyph-name="paragraph" unicode="&#xb6;" horiz-adv-x="1198" 
d="M610 -264l412 1648h-217l-410 -1648h-116l208 842q-77 2 -137.5 32t-96.5 79t-54.5 109t-18.5 128q0 112 34 205t93 158t140 110.5t174 66.5t196 21h551l-27 -103h-200l-412 -1648h-119z" />
    <glyph glyph-name="middot" unicode="&#xb7;" horiz-adv-x="444" 
d="M367 793l-45 -177h-160l45 177h160z" />
    <glyph glyph-name="cedilla" unicode="&#xb8;" horiz-adv-x="1093" 
d="M254 -416q-47 0 -78 8l17 82q23 -10 59 -10q61 0 101 30t40 95q0 48 -40 71t-95 23l37 135h96l-20 -84q57 -8 92 -47.5t35 -99.5q0 -94 -72 -148.5t-172 -54.5z" />
    <glyph glyph-name="onesuperior" unicode="&#xb9;" horiz-adv-x="452" 
d="M303 1575l16 72q105 4 155.5 35.5t80.5 107.5h92l-205 -811h-108l147 596h-178z" />
    <glyph glyph-name="ordmasculine" unicode="&#xba;" horiz-adv-x="923" 
d="M516 750q82 0 150.5 43.5t112 113t67.5 151.5t24 163q0 96 -45.5 150t-140.5 54q-82 0 -151.5 -43.5t-113 -113t-67.5 -151.5t-24 -163q0 -96 46 -150t142 -54zM502 664q-136 0 -211.5 75t-75.5 209q0 102 33.5 202t93.5 180.5t152.5 130.5t201.5 50q136 0 211.5 -75
t75.5 -209q0 -102 -33.5 -202t-93.5 -180.5t-152.5 -130.5t-201.5 -50z" />
    <glyph glyph-name="guillemotright" unicode="&#xbb;" horiz-adv-x="815" 
d="M504 969h106l121 -422l-317 -404h-115l305 414zM217 969h107l120 -422l-317 -404h-115l305 414z" />
    <glyph glyph-name="onequarter" unicode="&#xbc;" horiz-adv-x="1425" 
d="M205 1184l16 71q104 4 155 36t81 108h92l-205 -811h-108l147 596h-178zM1231 1427l-1110 -1456h-109l1110 1456h109zM1149 213l-53 -213h-107l53 213h-372l18 82l453 516h159l-126 -510h151l-22 -88h-154zM1065 301q73 276 113 410h-15l-362 -410h264z" />
    <glyph glyph-name="onehalf" unicode="&#xbd;" horiz-adv-x="1409" 
d="M205 1184l16 71q104 4 155 36t81 108h92l-205 -811h-108l147 596h-178zM1231 1427l-1110 -1456h-109l1110 1456h109zM670 0q24 157 102 246q35 39 86.5 73t97 55t99.5 51.5t90 61.5q43 36 61.5 69t18.5 77q0 45 -32 75.5t-89 30.5q-76 0 -118.5 -42.5t-67.5 -137.5h-111
q35 141 110 203.5t209 62.5q101 0 160.5 -52t59.5 -128q0 -57 -23 -106t-58.5 -82.5t-85.5 -66.5t-95.5 -55.5t-98 -51t-84.5 -52.5q-41 -30 -60.5 -63t-25.5 -78h428l-24 -90h-549z" />
    <glyph glyph-name="threequarters" unicode="&#xbe;" horiz-adv-x="1693" 
d="M260 840q-4 -9 -4 -45q0 -66 44 -105t116 -39q80 0 134 57t54 136q0 54 -39.5 84t-111.5 30h-37l24 89h23q93 0 148 44t55 121q0 55 -35.5 86t-100.5 31q-150 0 -180 -164h-117q26 123 107 185.5t211 62.5q108 0 171.5 -49t63.5 -131q0 -76 -54 -138t-134 -83l-2 -11
q125 -34 125 -149q0 -121 -95 -204t-231 -83q-106 0 -179 62.5t-73 167.5q0 17 4 45h113zM1499 1427l-1110 -1456h-108l1110 1456h108zM1417 213l-53 -213h-107l54 213h-373l18 82l453 516h160l-127 -510h151l-22 -88h-154zM1333 301q73 276 113 410h-14l-363 -410h264z" />
    <glyph glyph-name="questiondown" unicode="&#xbf;" horiz-adv-x="991" 
d="M641 690q-13 -60 -26 -103.5t-35 -82.5t-43 -66t-62 -61t-79 -61t-107 -72q-131 -87 -186.5 -156.5t-55.5 -155.5q0 -119 68.5 -185t199.5 -66q145 0 239.5 78.5t117.5 224.5h125q-33 -188 -156.5 -296t-325.5 -108q-191 0 -293 93t-102 261q0 88 58 175.5t147 154.5
q37 28 96 68t93 63.5t78 64.5t69.5 81t48 101.5t31.5 137.5h118zM557 913l45 177h160l-45 -177h-160z" />
    <glyph glyph-name="Agrave" unicode="&#xc0;" horiz-adv-x="1368" 
d="M1087 0l-61 487h-700l-310 -487h-135l967 1487h162l202 -1487h-125zM893 1384l-496 -796h615l-111 796h-8zM725 1855h137l142 -225h-101z" />
    <glyph glyph-name="Aacute" unicode="&#xc1;" horiz-adv-x="1368" 
d="M1087 0l-61 487h-700l-310 -487h-135l967 1487h162l202 -1487h-125zM893 1384l-496 -796h615l-111 796h-8zM1077 1855h154l-254 -225h-111z" />
    <glyph glyph-name="Acircumflex" unicode="&#xc2;" horiz-adv-x="1368" 
d="M1087 0l-61 487h-700l-310 -487h-135l967 1487h162l202 -1487h-125zM893 1384l-496 -796h615l-111 796h-8zM926 1855h151l137 -225h-110l-109 168l-186 -168h-119z" />
    <glyph glyph-name="Atilde" unicode="&#xc3;" horiz-adv-x="1368" 
d="M1087 0l-61 487h-700l-310 -487h-135l967 1487h162l202 -1487h-125zM893 1384l-496 -796h615l-111 796h-8zM670 1653q31 99 81.5 146.5t108.5 47.5q43 0 87 -25t81 -50t62 -25q66 0 102 98h78q-29 -98 -79.5 -145t-109.5 -47q-40 0 -83.5 25.5t-81.5 51t-66 25.5
q-59 0 -102 -102h-78z" />
    <glyph glyph-name="Adieresis" unicode="&#xc4;" horiz-adv-x="1368" 
d="M1087 0l-61 487h-700l-310 -487h-135l967 1487h162l202 -1487h-125zM893 1384l-496 -796h615l-111 796h-8zM698 1661l43 174h133l-43 -174h-133zM1081 1661l43 174h133l-43 -174h-133z" />
    <glyph glyph-name="Aring" unicode="&#xc5;" horiz-adv-x="1368" 
d="M1087 0l-61 487h-700l-310 -487h-135l967 1487h162l202 -1487h-125zM893 1384l-496 -796h615l-111 796h-8zM930 1456q-85 0 -138 52t-53 126q0 89 69 156.5t173 67.5q84 0 136 -51t52 -126q0 -92 -68.5 -158.5t-170.5 -66.5zM940 1532q61 0 102 41.5t41 101.5
q0 52 -31 79.5t-81 27.5q-62 0 -104 -42t-42 -100q0 -52 32.5 -80t82.5 -28z" />
    <glyph glyph-name="AE" unicode="&#xc6;" horiz-adv-x="1916" 
d="M1026 1487h1012l-27 -103h-809l-51 -563h682l-27 -102h-663l-56 -617h644l-25 -102h-750l48 530h-572l-399 -530h-139zM508 631h506l65 737h-16z" />
    <glyph glyph-name="Ccedilla" unicode="&#xc7;" horiz-adv-x="1400" 
d="M1307 477q-80 -247 -254.5 -374.5t-413.5 -127.5q-241 0 -366.5 146.5t-125.5 402.5q0 203 60 385t165 314t253.5 209t318.5 77q220 0 350.5 -116t130.5 -330q0 -70 -4 -92h-125q4 17 4 73q0 176 -101 270.5t-271 94.5q-125 0 -233 -53t-183.5 -141t-129.5 -201.5
t-80 -235.5t-26 -243q0 -208 96 -333.5t277 -125.5q191 0 322 96t207 305h129zM526 -418q-46 0 -77 8l18 80q19 -8 59 -8q61 0 101.5 30t40.5 97q0 49 -41 71.5t-95 22.5l35 137h97l-21 -83q58 -8 93.5 -47.5t35.5 -100.5q0 -98 -72 -152.5t-174 -54.5z" />
    <glyph glyph-name="Egrave" unicode="&#xc8;" horiz-adv-x="1200" 
d="M1315 1487l-25 -103h-751l-142 -565h727l-26 -102h-725l-154 -615h793l-25 -102h-915l368 1487h875zM682 1855h137l142 -225h-101z" />
    <glyph glyph-name="Eacute" unicode="&#xc9;" horiz-adv-x="1200" 
d="M1315 1487l-25 -103h-751l-142 -565h727l-26 -102h-725l-154 -615h793l-25 -102h-915l368 1487h875zM1024 1855h154l-254 -225h-111z" />
    <glyph glyph-name="Ecircumflex" unicode="&#xca;" horiz-adv-x="1200" 
d="M1315 1487l-25 -103h-751l-142 -565h727l-26 -102h-725l-154 -615h793l-25 -102h-915l368 1487h875zM872 1855h152l137 -225h-110l-109 168l-186 -168h-119z" />
    <glyph glyph-name="Edieresis" unicode="&#xcb;" horiz-adv-x="1200" 
d="M1315 1487l-25 -103h-751l-142 -565h727l-26 -102h-725l-154 -615h793l-25 -102h-915l368 1487h875zM645 1661l43 174h133l-43 -174h-133zM1028 1661l43 174h133l-43 -174h-133z" />
    <glyph glyph-name="Igrave" unicode="&#xcc;" horiz-adv-x="528" 
d="M72 0l372 1487h123l-372 -1487h-123zM311 1855h138l141 -225h-101z" />
    <glyph glyph-name="Iacute" unicode="&#xcd;" horiz-adv-x="528" 
d="M72 0l372 1487h123l-372 -1487h-123zM666 1855h153l-254 -225h-110z" />
    <glyph glyph-name="Icircumflex" unicode="&#xce;" horiz-adv-x="528" 
d="M72 0l372 1487h123l-372 -1487h-123zM514 1855h152l137 -225h-111l-108 168l-187 -168h-118z" />
    <glyph glyph-name="Idieresis" unicode="&#xcf;" horiz-adv-x="528" 
d="M72 0l372 1487h123l-372 -1487h-123zM324 1661l43 174h133l-43 -174h-133zM641 1661l43 174h133l-43 -174h-133z" />
    <glyph glyph-name="Eth" unicode="&#xd0;" horiz-adv-x="1507" 
d="M838 1487q250 0 387 -80q115 -67 177 -200.5t62 -307.5q0 -256 -114 -459.5t-303 -324.5q-175 -115 -594 -115h-349l179 721h-197l25 100h196l166 666h365zM580 102q271 0 434 123q142 107 231.5 288t89.5 392q0 368 -262 453q-71 26 -229 26h-273l-139 -563h295
l-25 -100h-294l-154 -619h326z" />
    <glyph glyph-name="Ntilde" unicode="&#xd1;" horiz-adv-x="1495" 
d="M627 1487l434 -1370h12l344 1370h117l-373 -1487h-196l-422 1366h-13l-342 -1366h-116l370 1487h185zM731 1653q31 99 82 146.5t109 47.5q43 0 86.5 -25t80.5 -50t62 -25q66 0 102 98h78q-29 -98 -79 -145t-109 -47q-40 0 -83.5 25.5t-82 51t-66.5 25.5q-59 0 -102 -102
h-78z" />
    <glyph glyph-name="Ograve" unicode="&#xd2;" horiz-adv-x="1529" 
d="M969 1511q245 0 383.5 -158.5t138.5 -424.5q0 -195 -68 -372.5t-181 -304t-264 -201.5t-312 -75q-241 0 -381 155t-140 409q0 204 67 386t179.5 309.5t263.5 202t314 74.5zM958 1411q-127 0 -238.5 -52t-192 -139t-138.5 -200.5t-86.5 -239t-28.5 -250.5
q0 -211 110 -332.5t294 -121.5q106 0 209 43t188 122t150 184t101 237t36 272q0 227 -104.5 352t-299.5 125zM811 1855h137l142 -225h-101z" />
    <glyph glyph-name="Oacute" unicode="&#xd3;" horiz-adv-x="1529" 
d="M969 1511q245 0 383.5 -158.5t138.5 -424.5q0 -195 -68 -372.5t-181 -304t-264 -201.5t-312 -75q-241 0 -381 155t-140 409q0 204 67 386t179.5 309.5t263.5 202t314 74.5zM958 1411q-127 0 -238.5 -52t-192 -139t-138.5 -200.5t-86.5 -239t-28.5 -250.5
q0 -211 110 -332.5t294 -121.5q106 0 209 43t188 122t150 184t101 237t36 272q0 227 -104.5 352t-299.5 125zM1153 1855h154l-254 -225h-111z" />
    <glyph glyph-name="Ocircumflex" unicode="&#xd4;" horiz-adv-x="1529" 
d="M969 1511q245 0 383.5 -158.5t138.5 -424.5q0 -195 -68 -372.5t-181 -304t-264 -201.5t-312 -75q-241 0 -381 155t-140 409q0 204 67 386t179.5 309.5t263.5 202t314 74.5zM958 1411q-127 0 -238.5 -52t-192 -139t-138.5 -200.5t-86.5 -239t-28.5 -250.5
q0 -211 110 -332.5t294 -121.5q106 0 209 43t188 122t150 184t101 237t36 272q0 227 -104.5 352t-299.5 125zM1001 1855h152l137 -225h-110l-109 168l-186 -168h-119z" />
    <glyph glyph-name="Otilde" unicode="&#xd5;" horiz-adv-x="1529" 
d="M969 1511q245 0 383.5 -158.5t138.5 -424.5q0 -195 -68 -372.5t-181 -304t-264 -201.5t-312 -75q-241 0 -381 155t-140 409q0 204 67 386t179.5 309.5t263.5 202t314 74.5zM958 1411q-127 0 -238.5 -52t-192 -139t-138.5 -200.5t-86.5 -239t-28.5 -250.5
q0 -211 110 -332.5t294 -121.5q106 0 209 43t188 122t150 184t101 237t36 272q0 227 -104.5 352t-299.5 125zM745 1653q31 99 82 146.5t109 47.5q43 0 86.5 -25t80.5 -50t62 -25q28 0 56 23.5t47 74.5h78q-29 -98 -79.5 -145t-109.5 -47q-40 0 -83.5 25.5t-81.5 51t-66 25.5
q-60 0 -103 -102h-78z" />
    <glyph glyph-name="Odieresis" unicode="&#xd6;" horiz-adv-x="1529" 
d="M969 1511q245 0 383.5 -158.5t138.5 -424.5q0 -195 -68 -372.5t-181 -304t-264 -201.5t-312 -75q-241 0 -381 155t-140 409q0 204 67 386t179.5 309.5t263.5 202t314 74.5zM958 1411q-127 0 -238.5 -52t-192 -139t-138.5 -200.5t-86.5 -239t-28.5 -250.5
q0 -211 110 -332.5t294 -121.5q106 0 209 43t188 122t150 184t101 237t36 272q0 227 -104.5 352t-299.5 125zM774 1661l43 174h133l-43 -174h-133zM1157 1661l43 174h133l-43 -174h-133z" />
    <glyph glyph-name="multiply" unicode="&#xd7;" 
d="M305 297l279 278l-287 285l80 80l287 -285l276 279l74 -74l-279 -276l285 -287l-80 -80l-285 285l-278 -277z" />
    <glyph glyph-name="Oslash" unicode="&#xd8;" horiz-adv-x="1533" 
d="M1415 1268q80 -142 80 -340q0 -195 -68 -372.5t-181 -304t-264 -201.5t-312 -75q-247 0 -389 164l-187 -184l-65 68l196 196q-75 132 -75 320q0 204 67 386t179 309.5t263 202t314 74.5q247 0 387 -165l170 167l65 -63l-180 -180v-2zM279 530q0 -125 38 -221l959 955
q-104 147 -313 147q-127 0 -238.5 -52t-192 -139t-138.5 -200.5t-86.5 -239t-28.5 -250.5zM682 76q106 0 209 43t188 122t150 184t101 237t36 272q0 136 -41 242l-958 -953q111 -147 315 -147z" />
    <glyph glyph-name="Ugrave" unicode="&#xd9;" horiz-adv-x="1417" 
d="M1227 504q-71 -283 -220 -406t-389 -123q-220 0 -333 109t-113 299q0 82 31 213l223 891h123l-227 -922q-23 -97 -23 -166q0 -151 81 -237t253 -86q189 0 305 115.5t176 361.5l232 934h124zM750 1855h137l141 -225h-100z" />
    <glyph glyph-name="Uacute" unicode="&#xda;" horiz-adv-x="1417" 
d="M1227 504q-71 -283 -220 -406t-389 -123q-220 0 -333 109t-113 299q0 82 31 213l223 891h123l-227 -922q-23 -97 -23 -166q0 -151 81 -237t253 -86q189 0 305 115.5t176 361.5l232 934h124zM1092 1855h153l-254 -225h-110z" />
    <glyph glyph-name="Ucircumflex" unicode="&#xdb;" horiz-adv-x="1417" 
d="M1227 504q-71 -283 -220 -406t-389 -123q-220 0 -333 109t-113 299q0 82 31 213l223 891h123l-227 -922q-23 -97 -23 -166q0 -151 81 -237t253 -86q189 0 305 115.5t176 361.5l232 934h124zM940 1855h152l137 -225h-111l-108 168l-187 -168h-118z" />
    <glyph glyph-name="Udieresis" unicode="&#xdc;" horiz-adv-x="1417" 
d="M1227 504q-71 -283 -220 -406t-389 -123q-220 0 -333 109t-113 299q0 82 31 213l223 891h123l-227 -922q-23 -97 -23 -166q0 -151 81 -237t253 -86q189 0 305 115.5t176 361.5l232 934h124zM713 1661l43 174h133l-43 -174h-133zM1096 1661l43 174h133l-43 -174h-133z" />
    <glyph glyph-name="Yacute" unicode="&#xdd;" horiz-adv-x="1239" 
d="M254 1487h139l277 -737l633 737h153l-745 -854l-160 -633h-123l160 633zM999 1855h154l-254 -225h-111z" />
    <glyph glyph-name="Thorn" unicode="&#xde;" horiz-adv-x="1263" 
d="M768 1186q130 0 209 -21.5t141 -70.5q117 -100 117 -258q0 -105 -42.5 -203t-117.5 -164q-73 -66 -166 -94.5t-233 -28.5h-395l-86 -346h-123l372 1487h123l-75 -301h276zM612 449q138 0 206.5 11.5t123.5 47.5q77 47 122.5 131.5t45.5 179.5q0 264 -342 264h-299
l-160 -634h303z" />
    <glyph glyph-name="germandbls" unicode="&#xdf;" horiz-adv-x="1140" 
d="M297 1028q62 240 181.5 361.5t328.5 121.5q145 0 232 -83t87 -209q0 -152 -95.5 -254t-235.5 -134v-8q231 -54 231 -317q0 -232 -168.5 -373t-433.5 -141q-51 0 -84 8l18 100q44 -8 95 -8q122 0 222.5 47.5t164 147.5t63.5 237q0 124 -80.5 189t-234.5 65l22 101
q6 -2 31 -2q92 0 173.5 40t134 119.5t52.5 180.5q0 88 -60 143t-163 55q-139 0 -225.5 -96t-136.5 -297l-256 -1022h-119z" />
    <glyph glyph-name="agrave" unicode="&#xe0;" horiz-adv-x="1083" 
d="M696 0q16 118 27 156q-72 -92 -162.5 -134t-212.5 -42q-139 0 -223 78.5t-84 201.5q0 58 17 106.5t45 84.5t72.5 65.5t89 49t107 34.5t114.5 23.5t122 14t119.5 7.5t116.5 4q20 100 20 137q0 91 -58.5 143t-172.5 52t-202 -59t-118 -166h-127q46 162 169.5 243.5
t306.5 81.5q157 0 239 -77t82 -213q0 -54 -16 -129l-101 -404q-37 -147 -47 -258h-123zM819 549q-58 0 -95.5 -0.5t-113 -6t-127 -15.5t-116.5 -31.5t-105 -51t-68 -76.5t-28 -106q0 -83 55 -133.5t152 -50.5q101 0 197 51t155 141q48 75 94 279zM471 1487h139l152 -252
h-103z" />
    <glyph glyph-name="aacute" unicode="&#xe1;" horiz-adv-x="1083" 
d="M696 0q16 118 27 156q-72 -92 -162.5 -134t-212.5 -42q-139 0 -223 78.5t-84 201.5q0 58 17 106.5t45 84.5t72.5 65.5t89 49t107 34.5t114.5 23.5t122 14t119.5 7.5t116.5 4q20 100 20 137q0 91 -58.5 143t-172.5 52t-202 -59t-118 -166h-127q46 162 169.5 243.5
t306.5 81.5q157 0 239 -77t82 -213q0 -54 -16 -129l-101 -404q-37 -147 -47 -258h-123zM819 549q-58 0 -95.5 -0.5t-113 -6t-127 -15.5t-116.5 -31.5t-105 -51t-68 -76.5t-28 -106q0 -83 55 -133.5t152 -50.5q101 0 197 51t155 141q48 75 94 279zM842 1487h155l-278 -252
h-111z" />
    <glyph glyph-name="acircumflex" unicode="&#xe2;" horiz-adv-x="1083" 
d="M696 0q16 118 27 156q-72 -92 -162.5 -134t-212.5 -42q-139 0 -223 78.5t-84 201.5q0 58 17 106.5t45 84.5t72.5 65.5t89 49t107 34.5t114.5 23.5t122 14t119.5 7.5t116.5 4q20 100 20 137q0 91 -58.5 143t-172.5 52t-202 -59t-118 -166h-127q46 162 169.5 243.5
t306.5 81.5q157 0 239 -77t82 -213q0 -54 -16 -129l-101 -404q-37 -147 -47 -258h-123zM819 549q-58 0 -95.5 -0.5t-113 -6t-127 -15.5t-116.5 -31.5t-105 -51t-68 -76.5t-28 -106q0 -83 55 -133.5t152 -50.5q101 0 197 51t155 141q48 75 94 279zM682 1487h147l134 -252
h-107l-104 197l-195 -197h-115z" />
    <glyph glyph-name="atilde" unicode="&#xe3;" horiz-adv-x="1083" 
d="M696 0q16 118 27 156q-72 -92 -162.5 -134t-212.5 -42q-139 0 -223 78.5t-84 201.5q0 58 17 106.5t45 84.5t72.5 65.5t89 49t107 34.5t114.5 23.5t122 14t119.5 7.5t116.5 4q20 100 20 137q0 91 -58.5 143t-172.5 52t-202 -59t-118 -166h-127q46 162 169.5 243.5
t306.5 81.5q157 0 239 -77t82 -213q0 -54 -16 -129l-101 -404q-37 -147 -47 -258h-123zM819 549q-58 0 -95.5 -0.5t-113 -6t-127 -15.5t-116.5 -31.5t-105 -51t-68 -76.5t-28 -106q0 -83 55 -133.5t152 -50.5q101 0 197 51t155 141q48 75 94 279zM422 1284q69 191 188 191
q32 0 67 -15.5t60.5 -34t55.5 -34t53 -15.5q30 0 53.5 22t46.5 75h84q-31 -97 -81.5 -144t-108.5 -47q-41 0 -84 24t-82 48t-68 24q-59 0 -102 -94h-82z" />
    <glyph glyph-name="adieresis" unicode="&#xe4;" horiz-adv-x="1083" 
d="M696 0q16 118 27 156q-72 -92 -162.5 -134t-212.5 -42q-139 0 -223 78.5t-84 201.5q0 58 17 106.5t45 84.5t72.5 65.5t89 49t107 34.5t114.5 23.5t122 14t119.5 7.5t116.5 4q20 100 20 137q0 91 -58.5 143t-172.5 52t-202 -59t-118 -166h-127q46 162 169.5 243.5
t306.5 81.5q157 0 239 -77t82 -213q0 -54 -16 -129l-101 -404q-37 -147 -47 -258h-123zM819 549q-58 0 -95.5 -0.5t-113 -6t-127 -15.5t-116.5 -31.5t-105 -51t-68 -76.5t-28 -106q0 -83 55 -133.5t152 -50.5q101 0 197 51t155 141q48 75 94 279zM469 1315l43 172h133
l-43 -172h-133zM844 1315l43 172h133l-43 -172h-133z" />
    <glyph glyph-name="aring" unicode="&#xe5;" horiz-adv-x="1083" 
d="M696 0q16 118 27 156q-72 -92 -162.5 -134t-212.5 -42q-139 0 -223 78.5t-84 201.5q0 58 17 106.5t45 84.5t72.5 65.5t89 49t107 34.5t114.5 23.5t122 14t119.5 7.5t116.5 4q20 100 20 137q0 91 -58.5 143t-172.5 52t-202 -59t-118 -166h-127q46 162 169.5 243.5
t306.5 81.5q157 0 239 -77t82 -213q0 -54 -16 -129l-101 -404q-37 -147 -47 -258h-123zM819 549q-58 0 -95.5 -0.5t-113 -6t-127 -15.5t-116.5 -31.5t-105 -51t-68 -76.5t-28 -106q0 -83 55 -133.5t152 -50.5q101 0 197 51t155 141q48 75 94 279zM713 1163q-85 0 -138 52
t-53 126q0 89 69 156.5t173 67.5q84 0 136 -50.5t52 -125.5q0 -93 -68.5 -159.5t-170.5 -66.5zM723 1239q61 0 102 41.5t41 101.5q0 52 -31 79.5t-81 27.5q-62 0 -104 -41.5t-42 -99.5q0 -52 32.5 -80.5t82.5 -28.5z" />
    <glyph glyph-name="ae" unicode="&#xe6;" horiz-adv-x="1787" 
d="M623 1081q132 0 215 -64t100 -175q79 125 191.5 182t234.5 57q98 0 175.5 -39t126 -125t48.5 -208q0 -87 -24 -201h-766q-13 -80 -13 -139q0 -142 67.5 -219.5t199.5 -77.5q118 0 197 62.5t136 178.5h121q-142 -340 -465 -340q-79 0 -145.5 23.5t-123 84.5t-79.5 155
q-39 -88 -110.5 -147.5t-151.5 -84t-168 -24.5q-70 0 -130 16t-109 48.5t-77 89t-28 130.5q0 71 27.5 127t67 91.5t105.5 61t118.5 37.5t132.5 18.5t121 7.5t110 1h102q15 77 15 127q0 248 -230 248q-118 0 -200 -61t-117 -177h-121q19 68 55.5 127t91 106.5t132 75
t168.5 27.5zM725 514q-47 0 -73.5 -0.5t-78 -2.5t-83.5 -6t-78.5 -12.5t-76 -21t-63.5 -31.5t-53 -43t-32 -57.5t-13 -73.5q0 -188 227 -188q165 0 269 112t141 324h-86zM1589 602q8 47 8 98q0 137 -65 210t-174 73q-136 0 -246 -97.5t-164 -283.5h641z" />
    <glyph glyph-name="ccedilla" unicode="&#xe7;" horiz-adv-x="1091" 
d="M479 76q245 0 363 268h127q-66 -180 -193.5 -274.5t-306.5 -94.5q-176 0 -278.5 111.5t-102.5 296.5q0 104 24.5 204t75 189.5t121 157.5t169 107.5t212.5 39.5q165 0 262 -92t97 -244q0 -10 -2 -35.5t-3 -35.5h-126q4 62 4 67q0 110 -65 175t-181 65q-86 0 -162 -34.5
t-130.5 -93t-94 -134.5t-59 -160t-19.5 -168q0 -147 71.5 -231t196.5 -84zM365 -416q-47 0 -78 8l16 82q23 -10 59 -10q62 0 102 30.5t40 94.5q0 48 -40 71t-95 23l37 135h96l-21 -84q57 -8 92 -47.5t35 -99.5q0 -94 -71.5 -148.5t-171.5 -54.5z" />
    <glyph glyph-name="egrave" unicode="&#xe8;" horiz-adv-x="1110" 
d="M948 313q-69 -165 -188 -251.5t-303 -86.5q-183 0 -278 98.5t-95 278.5q0 199 71.5 364.5t205.5 265t303 99.5q182 0 277 -99t95 -273q0 -97 -20 -203h-799q-12 -94 -12 -144q0 -288 264 -288q125 0 221 66t135 173h123zM913 604q1 10 4 41.5t3 46.5q0 142 -68 216.5
t-197 74.5q-145 0 -252.5 -95.5t-160.5 -283.5h671zM481 1487h140l151 -252h-102z" />
    <glyph glyph-name="eacute" unicode="&#xe9;" horiz-adv-x="1110" 
d="M948 313q-69 -165 -188 -251.5t-303 -86.5q-183 0 -278 98.5t-95 278.5q0 199 71.5 364.5t205.5 265t303 99.5q182 0 277 -99t95 -273q0 -97 -20 -203h-799q-12 -94 -12 -144q0 -288 264 -288q125 0 221 66t135 173h123zM913 604q1 10 4 41.5t3 46.5q0 142 -68 216.5
t-197 74.5q-145 0 -252.5 -95.5t-160.5 -283.5h671zM852 1487h156l-279 -252h-111z" />
    <glyph glyph-name="ecircumflex" unicode="&#xea;" horiz-adv-x="1110" 
d="M948 313q-69 -165 -188 -251.5t-303 -86.5q-183 0 -278 98.5t-95 278.5q0 199 71.5 364.5t205.5 265t303 99.5q182 0 277 -99t95 -273q0 -97 -20 -203h-799q-12 -94 -12 -144q0 -288 264 -288q125 0 221 66t135 173h123zM913 604q1 10 4 41.5t3 46.5q0 142 -68 216.5
t-197 74.5q-145 0 -252.5 -95.5t-160.5 -283.5h671zM692 1487h148l133 -252h-107l-104 197l-195 -197h-114z" />
    <glyph glyph-name="edieresis" unicode="&#xeb;" horiz-adv-x="1110" 
d="M948 313q-69 -165 -188 -251.5t-303 -86.5q-183 0 -278 98.5t-95 278.5q0 199 71.5 364.5t205.5 265t303 99.5q182 0 277 -99t95 -273q0 -97 -20 -203h-799q-12 -94 -12 -144q0 -288 264 -288q125 0 221 66t135 173h123zM913 604q1 10 4 41.5t3 46.5q0 142 -68 216.5
t-197 74.5q-145 0 -252.5 -95.5t-160.5 -283.5h671zM479 1315l43 172h133l-43 -172h-133zM854 1315l43 172h133l-43 -172h-133z" />
    <glyph glyph-name="igrave" unicode="&#xec;" horiz-adv-x="460" 
d="M41 0l262 1057h117l-262 -1057h-117zM240 1487h125l108 -252h-94z" />
    <glyph glyph-name="iacute" unicode="&#xed;" horiz-adv-x="460" 
d="M41 0l262 1057h117l-262 -1057h-117zM514 1487h139l-239 -252h-101z" />
    <glyph glyph-name="icircumflex" unicode="&#xee;" horiz-adv-x="460" 
d="M41 0l262 1057h117l-262 -1057h-117zM389 1487h139l115 -252h-100l-92 195l-179 -195h-110z" />
    <glyph glyph-name="idieresis" unicode="&#xef;" horiz-adv-x="460" 
d="M41 0l262 1057h117l-262 -1057h-117zM213 1315l43 172h133l-43 -172h-133zM500 1315l43 172h133l-43 -172h-133z" />
    <glyph glyph-name="eth" unicode="&#xf0;" horiz-adv-x="1136" 
d="M446 -27q-181 0 -274.5 112t-93.5 284q0 169 78.5 324t213 251t285.5 96q186 0 275 -149h8q-41 189 -199 385l-233 -131l-37 74l217 118q-57 66 -154 150h142q63 -54 102 -98l213 116l41 -69l-201 -111q230 -305 230 -596q0 -141 -43.5 -276t-120.5 -242t-194.5 -172.5
t-254.5 -65.5zM459 72q83 0 158.5 34.5t131 93t96.5 133t62 156t21 160.5q0 129 -67.5 212t-196.5 83q-83 0 -157.5 -35.5t-129 -95t-95 -135t-61 -158t-20.5 -162.5q0 -123 66 -204.5t192 -81.5z" />
    <glyph glyph-name="ntilde" unicode="&#xf1;" horiz-adv-x="1153" 
d="M369 895q55 86 156.5 134t209.5 48q133 0 219 -70t86 -206q0 -95 -30 -221l-146 -580h-119l140 547q35 134 35 235q0 90 -52 143.5t-153 53.5q-134 0 -249.5 -104t-158.5 -277l-149 -598h-117l262 1057h109zM457 1284q69 191 188 191q32 0 67 -15.5t60.5 -34t55.5 -34
t53 -15.5q30 0 53.5 22t46.5 75h84q-31 -97 -82 -144t-109 -47q-41 0 -84 24t-81.5 48t-67.5 24q-59 0 -102 -94h-82z" />
    <glyph glyph-name="ograve" unicode="&#xf2;" horiz-adv-x="1169" 
d="M698 1081q186 0 284.5 -111.5t98.5 -301.5q0 -193 -77.5 -351t-217 -250t-313.5 -92q-181 0 -283 114t-102 302q0 143 47.5 271t128.5 219.5t194 145.5t240 54zM690 981q-98 0 -185.5 -45t-152.5 -124t-103 -193.5t-38 -247.5q0 -137 72 -216t202 -79q132 0 240 78.5
t170.5 218t62.5 311.5q0 141 -69.5 219t-198.5 78zM504 1487h139l152 -252h-103z" />
    <glyph glyph-name="oacute" unicode="&#xf3;" horiz-adv-x="1169" 
d="M698 1081q186 0 284.5 -111.5t98.5 -301.5q0 -193 -77.5 -351t-217 -250t-313.5 -92q-181 0 -283 114t-102 302q0 143 47.5 271t128.5 219.5t194 145.5t240 54zM690 981q-98 0 -185.5 -45t-152.5 -124t-103 -193.5t-38 -247.5q0 -137 72 -216t202 -79q132 0 240 78.5
t170.5 218t62.5 311.5q0 141 -69.5 219t-198.5 78zM874 1487h156l-278 -252h-111z" />
    <glyph glyph-name="ocircumflex" unicode="&#xf4;" horiz-adv-x="1169" 
d="M698 1081q186 0 284.5 -111.5t98.5 -301.5q0 -193 -77.5 -351t-217 -250t-313.5 -92q-181 0 -283 114t-102 302q0 143 47.5 271t128.5 219.5t194 145.5t240 54zM690 981q-98 0 -185.5 -45t-152.5 -124t-103 -193.5t-38 -247.5q0 -137 72 -216t202 -79q132 0 240 78.5
t170.5 218t62.5 311.5q0 141 -69.5 219t-198.5 78zM715 1487h147l133 -252h-106l-105 197l-194 -197h-115z" />
    <glyph glyph-name="otilde" unicode="&#xf5;" horiz-adv-x="1169" 
d="M698 1081q186 0 284.5 -111.5t98.5 -301.5q0 -193 -77.5 -351t-217 -250t-313.5 -92q-181 0 -283 114t-102 302q0 143 47.5 271t128.5 219.5t194 145.5t240 54zM690 981q-98 0 -185.5 -45t-152.5 -124t-103 -193.5t-38 -247.5q0 -137 72 -216t202 -79q132 0 240 78.5
t170.5 218t62.5 311.5q0 141 -69.5 219t-198.5 78zM455 1284q69 191 188 191q32 0 67 -15.5t60.5 -34t55.5 -34t53 -15.5q30 0 53.5 22t46.5 75h84q-31 -97 -82 -144t-109 -47q-41 0 -84 24t-81.5 48t-67.5 24q-59 0 -102 -94h-82z" />
    <glyph glyph-name="odieresis" unicode="&#xf6;" horiz-adv-x="1169" 
d="M698 1081q186 0 284.5 -111.5t98.5 -301.5q0 -193 -77.5 -351t-217 -250t-313.5 -92q-181 0 -283 114t-102 302q0 143 47.5 271t128.5 219.5t194 145.5t240 54zM690 981q-98 0 -185.5 -45t-152.5 -124t-103 -193.5t-38 -247.5q0 -137 72 -216t202 -79q132 0 240 78.5
t170.5 218t62.5 311.5q0 141 -69.5 219t-198.5 78zM502 1315l43 172h133l-43 -172h-133zM877 1315l43 172h133l-43 -172h-133z" />
    <glyph glyph-name="divide" unicode="&#xf7;" 
d="M743 969v-178h-174v178h174zM743 317v-178h-174v178h174zM227 631h860v-103h-860v103z" />
    <glyph glyph-name="oslash" unicode="&#xf8;" horiz-adv-x="1173" 
d="M1024 915q59 -103 59 -247q0 -193 -77.5 -351t-217 -250t-313.5 -92q-150 0 -260 95l-156 -164l-65 65l162 170q-66 109 -66 250q0 143 47.5 271t128.5 219.5t194 145.5t240 54q159 0 263 -94l155 162l64 -66zM213 371q0 -80 25 -144l649 678q-70 76 -195 76
q-98 0 -185.5 -45t-152.5 -124t-103 -193.5t-38 -247.5zM487 76q132 0 240.5 78.5t171 218t62.5 311.5q0 77 -25 141l-645 -678q71 -71 196 -71z" />
    <glyph glyph-name="ugrave" unicode="&#xf9;" horiz-adv-x="1150" 
d="M780 160q-55 -85 -154.5 -132.5t-207.5 -47.5q-133 0 -219 70t-86 206q0 95 30 221l146 580h117l-138 -549q-37 -154 -37 -234q0 -89 52.5 -142.5t152.5 -53.5q134 0 250.5 104t159.5 275l149 600h117l-264 -1057h-111zM494 1487h139l151 -252h-102z" />
    <glyph glyph-name="uacute" unicode="&#xfa;" horiz-adv-x="1150" 
d="M780 160q-55 -85 -154.5 -132.5t-207.5 -47.5q-133 0 -219 70t-86 206q0 95 30 221l146 580h117l-138 -549q-37 -154 -37 -234q0 -89 52.5 -142.5t152.5 -53.5q134 0 250.5 104t159.5 275l149 600h117l-264 -1057h-111zM864 1487h156l-279 -252h-110z" />
    <glyph glyph-name="ucircumflex" unicode="&#xfb;" horiz-adv-x="1150" 
d="M780 160q-55 -85 -154.5 -132.5t-207.5 -47.5q-133 0 -219 70t-86 206q0 95 30 221l146 580h117l-138 -549q-37 -154 -37 -234q0 -89 52.5 -142.5t152.5 -53.5q134 0 250.5 104t159.5 275l149 600h117l-264 -1057h-111zM705 1487h147l133 -252h-106l-105 197l-194 -197
h-115z" />
    <glyph glyph-name="udieresis" unicode="&#xfc;" horiz-adv-x="1150" 
d="M780 160q-55 -85 -154.5 -132.5t-207.5 -47.5q-133 0 -219 70t-86 206q0 95 30 221l146 580h117l-138 -549q-37 -154 -37 -234q0 -89 52.5 -142.5t152.5 -53.5q134 0 250.5 104t159.5 275l149 600h117l-264 -1057h-111zM492 1315l43 172h133l-43 -172h-133zM866 1315
l43 172h133l-43 -172h-133z" />
    <glyph glyph-name="yacute" unicode="&#xfd;" horiz-adv-x="1013" 
d="M461 0q-18 -30 -44.5 -75.5t-44 -75.5t-43.5 -69.5t-48 -65.5t-52.5 -53.5t-61.5 -43.5t-70.5 -26.5t-84.5 -10.5q-64 0 -121 17l29 104q46 -14 94 -14q40 0 73.5 12.5t57 29t50 51t42.5 60.5t46 77.5t49 82.5l-166 1057h127l131 -930l553 930h131zM805 1487h156
l-279 -252h-111z" />
    <glyph glyph-name="thorn" unicode="&#xfe;" horiz-adv-x="1181" 
d="M387 918q150 159 348 159q92 0 163 -36t112 -98t61.5 -136.5t20.5 -159.5q0 -177 -73 -330.5t-201 -245t-279 -91.5q-260 0 -332 206l-150 -596h-116l471 1897h114zM717 979q-124 0 -226.5 -80.5t-160.5 -217.5t-58 -300q0 -141 64 -222t188 -81q122 0 224 77.5
t160.5 210.5t58.5 289q0 65 -13 120.5t-40.5 102.5t-78 74t-118.5 27z" />
    <glyph glyph-name="ydieresis" unicode="&#xff;" horiz-adv-x="1013" 
d="M461 0q-18 -30 -44.5 -75.5t-44 -75.5t-43.5 -69.5t-48 -65.5t-52.5 -53.5t-61.5 -43.5t-70.5 -26.5t-84.5 -10.5q-64 0 -121 17l29 104q46 -14 94 -14q40 0 73.5 12.5t57 29t50 51t42.5 60.5t46 77.5t49 82.5l-166 1057h127l131 -930l553 930h131zM432 1315l43 172h133
l-43 -172h-133zM807 1315l43 172h133l-43 -172h-133z" />
    <glyph glyph-name="Amacron" unicode="&#x100;" horiz-adv-x="1368" 
d="M1087 0l-61 487h-700l-310 -487h-135l967 1487h162l202 -1487h-125zM893 1384l-496 -796h615l-111 796h-8zM735 1790h506l-24 -96h-506z" />
    <glyph glyph-name="amacron" unicode="&#x101;" horiz-adv-x="1083" 
d="M696 0q16 118 27 156q-72 -92 -162.5 -134t-212.5 -42q-139 0 -223 78.5t-84 201.5q0 58 17 106.5t45 84.5t72.5 65.5t89 49t107 34.5t114.5 23.5t122 14t119.5 7.5t116.5 4q20 100 20 137q0 91 -58.5 143t-172.5 52t-202 -59t-118 -166h-127q46 162 169.5 243.5
t306.5 81.5q157 0 239 -77t82 -213q0 -54 -16 -129l-101 -404q-37 -147 -47 -258h-123zM819 549q-58 0 -95.5 -0.5t-113 -6t-127 -15.5t-116.5 -31.5t-105 -51t-68 -76.5t-28 -106q0 -83 55 -133.5t152 -50.5q101 0 197 51t155 141q48 75 94 279zM494 1436h501l-24 -97h-502
z" />
    <glyph glyph-name="Abreve" unicode="&#x102;" horiz-adv-x="1368" 
d="M1087 0l-61 487h-700l-310 -487h-135l967 1487h162l202 -1487h-125zM893 1384l-496 -796h615l-111 796h-8zM956 1622q-99 0 -157 49.5t-58 140.5q0 15 4 43h103q-2 -10 -2 -32q0 -59 33 -90t90 -31q62 0 109 38.5t71 114.5h106q-74 -233 -299 -233z" />
    <glyph glyph-name="abreve" unicode="&#x103;" horiz-adv-x="1083" 
d="M696 0q16 118 27 156q-72 -92 -162.5 -134t-212.5 -42q-139 0 -223 78.5t-84 201.5q0 58 17 106.5t45 84.5t72.5 65.5t89 49t107 34.5t114.5 23.5t122 14t119.5 7.5t116.5 4q20 100 20 137q0 91 -58.5 143t-172.5 52t-202 -59t-118 -166h-127q46 162 169.5 243.5
t306.5 81.5q157 0 239 -77t82 -213q0 -54 -16 -129l-101 -404q-37 -147 -47 -258h-123zM819 549q-58 0 -95.5 -0.5t-113 -6t-127 -15.5t-116.5 -31.5t-105 -51t-68 -76.5t-28 -106q0 -83 55 -133.5t152 -50.5q101 0 197 51t155 141q48 75 94 279zM719 1231q-103 0 -162 51
t-59 139q0 39 8 66h98q-6 -30 -6 -55q0 -61 34 -92t91 -31q66 0 116 44.5t74 133.5h101q-26 -122 -104.5 -189t-190.5 -67z" />
    <glyph glyph-name="Aogonek" unicode="&#x104;" horiz-adv-x="1368" 
d="M1087 0l-61 487h-700l-310 -487h-135l967 1487h162l202 -1487h-125zM893 1384l-496 -796h615l-111 796h-8zM1034 -418q-77 0 -125.5 45.5t-48.5 112.5q0 162 277 299l73 -39q-241 -117 -241 -240q0 -41 26 -65.5t70 -24.5q35 0 70 13l-23 -93q-36 -8 -78 -8z" />
    <glyph glyph-name="aogonek" unicode="&#x105;" horiz-adv-x="1083" 
d="M696 0q16 118 27 156q-72 -92 -162.5 -134t-212.5 -42q-139 0 -223 78.5t-84 201.5q0 58 17 106.5t45 84.5t72.5 65.5t89 49t107 34.5t114.5 23.5t122 14t119.5 7.5t116.5 4q20 100 20 137q0 91 -58.5 143t-172.5 52t-202 -59t-118 -166h-127q46 162 169.5 243.5
t306.5 81.5q157 0 239 -77t82 -213q0 -54 -16 -129l-101 -404q-37 -147 -47 -258h-123zM819 549q-58 0 -95.5 -0.5t-113 -6t-127 -15.5t-116.5 -31.5t-105 -51t-68 -76.5t-28 -106q0 -83 55 -133.5t152 -50.5q101 0 197 51t155 141q48 75 94 279zM643 -418
q-77 0 -124.5 45.5t-47.5 112.5q0 164 274 299l74 -39q-241 -117 -241 -240q0 -41 26 -65.5t70 -24.5q34 0 69 13l-22 -93q-36 -8 -78 -8z" />
    <glyph glyph-name="Cacute" unicode="&#x106;" horiz-adv-x="1400" 
d="M1307 477q-80 -247 -254.5 -374.5t-413.5 -127.5q-241 0 -366.5 146.5t-125.5 402.5q0 203 60 385t165 314t253.5 209t318.5 77q220 0 350.5 -116t130.5 -330q0 -70 -4 -92h-125q4 17 4 73q0 176 -101 270.5t-271 94.5q-125 0 -233 -53t-183.5 -141t-129.5 -201.5
t-80 -235.5t-26 -243q0 -208 96 -333.5t277 -125.5q191 0 322 96t207 305h129zM1137 1855h153l-254 -225h-110z" />
    <glyph glyph-name="cacute" unicode="&#x107;" horiz-adv-x="1091" 
d="M479 76q245 0 363 268h127q-66 -180 -193.5 -274.5t-306.5 -94.5q-176 0 -278.5 111.5t-102.5 296.5q0 104 24.5 204t75 189.5t121 157.5t169 107.5t212.5 39.5q165 0 262 -92t97 -244q0 -10 -2 -35.5t-3 -35.5h-126q4 62 4 67q0 110 -65 175t-181 65q-86 0 -162 -34.5
t-130.5 -93t-94 -134.5t-59 -160t-19.5 -168q0 -147 71.5 -231t196.5 -84zM862 1487h156l-279 -252h-110z" />
    <glyph glyph-name="Ccircumflex" unicode="&#x108;" horiz-adv-x="1400" 
d="M1307 477q-80 -247 -254.5 -374.5t-413.5 -127.5q-241 0 -366.5 146.5t-125.5 402.5q0 203 60 385t165 314t253.5 209t318.5 77q220 0 350.5 -116t130.5 -330q0 -70 -4 -92h-125q4 17 4 73q0 176 -101 270.5t-271 94.5q-125 0 -233 -53t-183.5 -141t-129.5 -201.5
t-80 -235.5t-26 -243q0 -208 96 -333.5t277 -125.5q191 0 322 96t207 305h129zM985 1855h152l137 -225h-111l-108 168l-187 -168h-118z" />
    <glyph glyph-name="ccircumflex" unicode="&#x109;" horiz-adv-x="1091" 
d="M479 76q245 0 363 268h127q-66 -180 -193.5 -274.5t-306.5 -94.5q-176 0 -278.5 111.5t-102.5 296.5q0 104 24.5 204t75 189.5t121 157.5t169 107.5t212.5 39.5q165 0 262 -92t97 -244q0 -10 -2 -35.5t-3 -35.5h-126q4 62 4 67q0 110 -65 175t-181 65q-86 0 -162 -34.5
t-130.5 -93t-94 -134.5t-59 -160t-19.5 -168q0 -147 71.5 -231t196.5 -84zM702 1487h148l133 -252h-106l-105 197l-194 -197h-115z" />
    <glyph glyph-name="Cdotaccent" unicode="&#x10a;" horiz-adv-x="1400" 
d="M1307 477q-80 -247 -254.5 -374.5t-413.5 -127.5q-241 0 -366.5 146.5t-125.5 402.5q0 203 60 385t165 314t253.5 209t318.5 77q220 0 350.5 -116t130.5 -330q0 -70 -4 -92h-125q4 17 4 73q0 176 -101 270.5t-271 94.5q-125 0 -233 -53t-183.5 -141t-129.5 -201.5
t-80 -235.5t-26 -243q0 -208 96 -333.5t277 -125.5q191 0 322 96t207 305h129zM948 1663l43 172h135l-43 -172h-135z" />
    <glyph glyph-name="cdotaccent" unicode="&#x10b;" horiz-adv-x="1091" 
d="M479 76q245 0 363 268h127q-66 -180 -193.5 -274.5t-306.5 -94.5q-176 0 -278.5 111.5t-102.5 296.5q0 104 24.5 204t75 189.5t121 157.5t169 107.5t212.5 39.5q165 0 262 -92t97 -244q0 -10 -2 -35.5t-3 -35.5h-126q4 62 4 67q0 110 -65 175t-181 65q-86 0 -162 -34.5
t-130.5 -93t-94 -134.5t-59 -160t-19.5 -168q0 -147 71.5 -231t196.5 -84zM674 1315l43 172h135l-43 -172h-135z" />
    <glyph glyph-name="Ccaron" unicode="&#x10c;" horiz-adv-x="1400" 
d="M1307 477q-80 -247 -254.5 -374.5t-413.5 -127.5q-241 0 -366.5 146.5t-125.5 402.5q0 203 60 385t165 314t253.5 209t318.5 77q220 0 350.5 -116t130.5 -330q0 -70 -4 -92h-125q4 17 4 73q0 176 -101 270.5t-271 94.5q-125 0 -233 -53t-183.5 -141t-129.5 -201.5
t-80 -235.5t-26 -243q0 -208 96 -333.5t277 -125.5q191 0 322 96t207 305h129zM1069 1630h-151l-138 225h111l110 -169l185 169h119z" />
    <glyph glyph-name="ccaron" unicode="&#x10d;" horiz-adv-x="1091" 
d="M479 76q245 0 363 268h127q-66 -180 -193.5 -274.5t-306.5 -94.5q-176 0 -278.5 111.5t-102.5 296.5q0 104 24.5 204t75 189.5t121 157.5t169 107.5t212.5 39.5q165 0 262 -92t97 -244q0 -10 -2 -35.5t-3 -35.5h-126q4 62 4 67q0 110 -65 175t-181 65q-86 0 -162 -34.5
t-130.5 -93t-94 -134.5t-59 -160t-19.5 -168q0 -147 71.5 -231t196.5 -84zM786 1235h-147l-133 252h106l107 -197l192 197h115z" />
    <glyph glyph-name="Dcaron" unicode="&#x10e;" horiz-adv-x="1474" 
d="M805 1487q259 0 387 -80q115 -67 177.5 -200.5t62.5 -307.5q0 -255 -114.5 -459t-303.5 -325q-176 -115 -594 -115h-348l368 1487h365zM547 102q271 0 434 123q143 107 232.5 288t89.5 392q0 368 -263 453q-71 26 -229 26h-272l-318 -1282h326zM991 1630h-151l-138 225
h111l111 -169l184 169h119z" />
    <glyph glyph-name="dcaron" unicode="&#x10f;" horiz-adv-x="1210" 
d="M793 139q-147 -159 -349 -159q-93 0 -163 34.5t-110 95.5t-59.5 136t-19.5 164q0 175 71 327t202 246t292 94q117 0 197 -47.5t119 -159.5l157 617h117l-373 -1487h-116zM463 78q124 0 226.5 80.5t161 222.5t58.5 315q0 133 -64.5 208t-187.5 75q-190 0 -316 -163.5
t-126 -414.5q0 -65 13 -120t40.5 -102t77 -74t117.5 -27zM1391 1487h114l-6 -27l-119 -280h-86z" />
    <glyph glyph-name="Dcroat" unicode="&#x110;" horiz-adv-x="1507" 
d="M838 1487q250 0 387 -80q115 -67 177 -200.5t62 -307.5q0 -256 -114 -459.5t-303 -324.5q-175 -115 -594 -115h-349l179 721h-197l25 100h196l166 666h365zM580 102q271 0 434 123q142 107 231.5 288t89.5 392q0 368 -262 453q-71 26 -229 26h-273l-139 -563h295
l-25 -100h-294l-154 -619h326z" />
    <glyph glyph-name="dslash" unicode="&#x111;" horiz-adv-x="1177" 
d="M444 -20q-93 0 -163 34.5t-110 95.5t-59.5 136t-19.5 164q0 175 71 327t202 246t292 94q117 0 197 -47.5t119 -159.5l96 377h-242l25 94h242l36 146h117l-37 -146h166l-24 -94h-164l-314 -1247h-116l35 139q-147 -159 -349 -159zM463 78q124 0 226.5 80.5t161 222.5
t58.5 315q0 133 -64.5 208t-187.5 75q-190 0 -316 -163.5t-126 -414.5q0 -65 13 -120t40.5 -102t77 -74t117.5 -27z" />
    <glyph glyph-name="Emacron" unicode="&#x112;" horiz-adv-x="1200" 
d="M1315 1487l-25 -103h-751l-142 -565h727l-26 -102h-725l-154 -615h793l-25 -102h-915l368 1487h875zM682 1790h506l-25 -96h-506z" />
    <glyph glyph-name="emacron" unicode="&#x113;" horiz-adv-x="1110" 
d="M948 313q-69 -165 -188 -251.5t-303 -86.5q-183 0 -278 98.5t-95 278.5q0 199 71.5 364.5t205.5 265t303 99.5q182 0 277 -99t95 -273q0 -97 -20 -203h-799q-12 -94 -12 -144q0 -288 264 -288q125 0 221 66t135 173h123zM913 604q1 10 4 41.5t3 46.5q0 142 -68 216.5
t-197 74.5q-145 0 -252.5 -95.5t-160.5 -283.5h671zM504 1436h502l-25 -97h-502z" />
    <glyph glyph-name="Ebreve" unicode="&#x114;" horiz-adv-x="1200" 
d="M1315 1487l-25 -103h-751l-142 -565h727l-26 -102h-725l-154 -615h793l-25 -102h-915l368 1487h875zM903 1622q-99 0 -157 49.5t-58 140.5q0 15 4 43h103q-2 -10 -2 -32q0 -59 32.5 -90t89.5 -31q62 0 109.5 38.5t71.5 114.5h106q-74 -233 -299 -233z" />
    <glyph glyph-name="ebreve" unicode="&#x115;" horiz-adv-x="1110" 
d="M948 313q-69 -165 -188 -251.5t-303 -86.5q-183 0 -278 98.5t-95 278.5q0 199 71.5 364.5t205.5 265t303 99.5q182 0 277 -99t95 -273q0 -97 -20 -203h-799q-12 -94 -12 -144q0 -288 264 -288q125 0 221 66t135 173h123zM913 604q1 10 4 41.5t3 46.5q0 142 -68 216.5
t-197 74.5q-145 0 -252.5 -95.5t-160.5 -283.5h671zM729 1231q-103 0 -162 51t-59 139q0 39 8 66h98q-6 -30 -6 -55q0 -61 34 -92t91 -31q66 0 116.5 44.5t74.5 133.5h100q-26 -122 -104.5 -189t-190.5 -67z" />
    <glyph glyph-name="Edotaccent" unicode="&#x116;" horiz-adv-x="1200" 
d="M1315 1487l-25 -103h-751l-142 -565h727l-26 -102h-725l-154 -615h793l-25 -102h-915l368 1487h875zM836 1663l43 172h135l-43 -172h-135z" />
    <glyph glyph-name="edotaccent" unicode="&#x117;" horiz-adv-x="1110" 
d="M948 313q-69 -165 -188 -251.5t-303 -86.5q-183 0 -278 98.5t-95 278.5q0 199 71.5 364.5t205.5 265t303 99.5q182 0 277 -99t95 -273q0 -97 -20 -203h-799q-12 -94 -12 -144q0 -288 264 -288q125 0 221 66t135 173h123zM913 604q1 10 4 41.5t3 46.5q0 142 -68 216.5
t-197 74.5q-145 0 -252.5 -95.5t-160.5 -283.5h671zM664 1315l43 172h135l-43 -172h-135z" />
    <glyph glyph-name="Eogonek" unicode="&#x118;" horiz-adv-x="1200" 
d="M1315 1487l-25 -103h-751l-142 -565h727l-26 -102h-725l-154 -615h793l-25 -102h-915l368 1487h875zM809 -418q-77 0 -125.5 45.5t-48.5 112.5q0 163 276 299l74 -39q-242 -118 -242 -240q0 -41 26.5 -65.5t70.5 -24.5q34 0 69 13l-22 -93q-36 -8 -78 -8z" />
    <glyph glyph-name="eogonek" unicode="&#x119;" horiz-adv-x="1110" 
d="M217 506q-12 -94 -12 -144q0 -288 264 -288q125 0 221 66t135 173h123q-73 -181 -215 -268t-209 -155.5t-67 -129.5q0 -41 26 -65.5t70 -24.5q35 0 70 13l-23 -93q-36 -8 -78 -8q-77 0 -124.5 45.5t-47.5 112.5q0 118 162 237q-16 -2 -55 -2q-183 0 -278 98.5t-95 278.5
q0 199 71.5 364.5t205.5 265t303 99.5q182 0 277 -99t95 -273q0 -97 -20 -203h-799zM655 983q-145 0 -252.5 -95.5t-160.5 -283.5h671q1 10 4 41.5t3 46.5q0 142 -68 216.5t-197 74.5z" />
    <glyph glyph-name="Ecaron" unicode="&#x11a;" horiz-adv-x="1200" 
d="M1315 1487l-25 -103h-751l-142 -565h727l-26 -102h-725l-154 -615h793l-25 -102h-915l368 1487h875zM956 1630h-151l-137 225h110l111 -169l184 169h119z" />
    <glyph glyph-name="ecaron" unicode="&#x11b;" horiz-adv-x="1110" 
d="M948 313q-69 -165 -188 -251.5t-303 -86.5q-183 0 -278 98.5t-95 278.5q0 199 71.5 364.5t205.5 265t303 99.5q182 0 277 -99t95 -273q0 -97 -20 -203h-799q-12 -94 -12 -144q0 -288 264 -288q125 0 221 66t135 173h123zM913 604q1 10 4 41.5t3 46.5q0 142 -68 216.5
t-197 74.5q-145 0 -252.5 -95.5t-160.5 -283.5h671zM776 1235h-147l-133 252h106l107 -197l192 197h115z" />
    <glyph glyph-name="Gcircumflex" unicode="&#x11c;" horiz-adv-x="1449" 
d="M1298 1057q0 175 -94.5 264.5t-263.5 89.5q-125 0 -234.5 -53t-187 -141.5t-134 -202.5t-83.5 -237.5t-27 -244.5q0 -208 93.5 -330t275.5 -122q139 0 263.5 65t201.5 189q43 68 72.5 143t60.5 199h-432l27 102h548l-194 -778h-113l56 209l-9 2q-93 -127 -214 -179
t-279 -52q-234 0 -360 144.5t-126 399.5q0 204 62.5 386.5t169.5 314.5t257.5 209t319.5 77q220 0 343.5 -113t123.5 -327v-14h-123zM991 1855h152l137 -225h-111l-108 168l-187 -168h-118z" />
    <glyph glyph-name="gcircumflex" unicode="&#x11d;" horiz-adv-x="1173" 
d="M887 57q-40 -162 -99.5 -263.5t-162 -157.5t-252.5 -56q-79 0 -144.5 19t-117.5 57.5t-81.5 104.5t-29.5 153h115q0 -112 67 -174t189 -62q160 0 255 89t142 282l37 156q-78 -91 -159 -129.5t-191 -38.5q-165 0 -260 111t-95 294q0 129 42.5 246.5t115.5 202.5
t174.5 135.5t214.5 50.5q121 0 204 -55.5t120 -155.5l47 191h117zM643 979q-125 0 -221.5 -72.5t-147.5 -192.5t-51 -265q0 -152 71 -233t185 -81q77 0 153 37t139 104t101.5 173t38.5 233q0 297 -268 297zM688 1487h148l133 -252h-107l-104 197l-195 -197h-114z" />
    <glyph glyph-name="Gbreve" unicode="&#x11e;" horiz-adv-x="1449" 
d="M1298 1057q0 175 -94.5 264.5t-263.5 89.5q-125 0 -234.5 -53t-187 -141.5t-134 -202.5t-83.5 -237.5t-27 -244.5q0 -208 93.5 -330t275.5 -122q139 0 263.5 65t201.5 189q43 68 72.5 143t60.5 199h-432l27 102h548l-194 -778h-113l56 209l-9 2q-93 -127 -214 -179
t-279 -52q-234 0 -360 144.5t-126 399.5q0 204 62.5 386.5t169.5 314.5t257.5 209t319.5 77q220 0 343.5 -113t123.5 -327v-14h-123zM1022 1622q-99 0 -157 49.5t-58 140.5q0 15 4 43h102q-2 -10 -2 -32q0 -59 33 -90t90 -31q62 0 109 38.5t71 114.5h107q-74 -233 -299 -233
z" />
    <glyph glyph-name="gbreve" unicode="&#x11f;" horiz-adv-x="1173" 
d="M887 57q-40 -162 -99.5 -263.5t-162 -157.5t-252.5 -56q-79 0 -144.5 19t-117.5 57.5t-81.5 104.5t-29.5 153h115q0 -112 67 -174t189 -62q160 0 255 89t142 282l37 156q-78 -91 -159 -129.5t-191 -38.5q-165 0 -260 111t-95 294q0 129 42.5 246.5t115.5 202.5
t174.5 135.5t214.5 50.5q121 0 204 -55.5t120 -155.5l47 191h117zM643 979q-125 0 -221.5 -72.5t-147.5 -192.5t-51 -265q0 -152 71 -233t185 -81q77 0 153 37t139 104t101.5 173t38.5 233q0 297 -268 297zM725 1231q-103 0 -162 51t-59 139q0 39 8 66h98q-6 -30 -6 -55
q0 -61 34 -92t91 -31q66 0 116.5 44.5t74.5 133.5h100q-26 -122 -104.5 -189t-190.5 -67z" />
    <glyph glyph-name="Gdotaccent" unicode="&#x120;" horiz-adv-x="1449" 
d="M1298 1057q0 175 -94.5 264.5t-263.5 89.5q-125 0 -234.5 -53t-187 -141.5t-134 -202.5t-83.5 -237.5t-27 -244.5q0 -208 93.5 -330t275.5 -122q139 0 263.5 65t201.5 189q43 68 72.5 143t60.5 199h-432l27 102h548l-194 -778h-113l56 209l-9 2q-93 -127 -214 -179
t-279 -52q-234 0 -360 144.5t-126 399.5q0 204 62.5 386.5t169.5 314.5t257.5 209t319.5 77q220 0 343.5 -113t123.5 -327v-14h-123zM954 1663l43 172h136l-43 -172h-136z" />
    <glyph glyph-name="gdotaccent" unicode="&#x121;" horiz-adv-x="1173" 
d="M887 57q-40 -162 -99.5 -263.5t-162 -157.5t-252.5 -56q-79 0 -144.5 19t-117.5 57.5t-81.5 104.5t-29.5 153h115q0 -112 67 -174t189 -62q160 0 255 89t142 282l37 156q-78 -91 -159 -129.5t-191 -38.5q-165 0 -260 111t-95 294q0 129 42.5 246.5t115.5 202.5
t174.5 135.5t214.5 50.5q121 0 204 -55.5t120 -155.5l47 191h117zM643 979q-125 0 -221.5 -72.5t-147.5 -192.5t-51 -265q0 -152 71 -233t185 -81q77 0 153 37t139 104t101.5 173t38.5 233q0 297 -268 297zM659 1315l43 172h136l-43 -172h-136z" />
    <glyph glyph-name="uni0122" unicode="&#x122;" horiz-adv-x="1449" 
d="M1298 1057q0 175 -94.5 264.5t-263.5 89.5q-125 0 -234.5 -53t-187 -141.5t-134 -202.5t-83.5 -237.5t-27 -244.5q0 -208 93.5 -330t275.5 -122q139 0 263.5 65t201.5 189q43 68 72.5 143t60.5 199h-432l27 102h548l-194 -778h-113l56 209l-9 2q-93 -127 -214 -179
t-279 -52q-234 0 -360 144.5t-126 399.5q0 204 62.5 386.5t169.5 314.5t257.5 209t319.5 77q220 0 343.5 -113t123.5 -327v-14h-123zM573 -299h-57l39 156h143l-39 -162l-127 -187h-67z" />
    <glyph glyph-name="uni0123" unicode="&#x123;" horiz-adv-x="1173" 
d="M887 57q-40 -162 -99.5 -263.5t-162 -157.5t-252.5 -56q-79 0 -144.5 19t-117.5 57.5t-81.5 104.5t-29.5 153h115q0 -112 67 -174t189 -62q160 0 255 89t142 282l37 156q-78 -91 -159 -129.5t-191 -38.5q-165 0 -260 111t-95 294q0 129 42.5 246.5t115.5 202.5
t174.5 135.5t214.5 50.5q121 0 204 -55.5t120 -155.5l47 191h117zM643 979q-125 0 -221.5 -72.5t-147.5 -192.5t-51 -265q0 -152 71 -233t185 -81q77 0 153 37t139 104t101.5 173t38.5 233q0 297 -268 297zM772 1382h55l-39 -155h-141l39 157l129 191h66z" />
    <glyph glyph-name="Hcircumflex" unicode="&#x124;" horiz-adv-x="1490" 
d="M565 1487l-166 -672h842l166 672h123l-373 -1487h-123l180 715h-839l-180 -715h-123l370 1487h123zM981 1855h152l137 -225h-111l-108 168l-187 -168h-119z" />
    <glyph glyph-name="hcircumflex" unicode="&#x125;" horiz-adv-x="1153" 
d="M385 903q58 87 150.5 130.5t201.5 43.5q133 0 219 -70t86 -206q0 -104 -32 -221l-144 -580h-118l137 547q37 142 37 235q0 90 -52 143.5t-153 53.5q-134 0 -250.5 -104t-159.5 -277l-149 -598h-117l371 1487h116zM467 1855h139l123 -225h-102l-97 170l-172 -170h-112z
" />
    <glyph glyph-name="Hbar" unicode="&#x126;" horiz-adv-x="1501" 
d="M1589 1149h-141l-287 -1149h-123l181 715h-840l-180 -715h-123l286 1149h-135l25 98h135l59 240h123l-59 -240h842l59 240h123l-61 -240h141zM1245 815l82 334h-842l-82 -334h842z" />
    <glyph glyph-name="hbar" unicode="&#x127;" horiz-adv-x="1153" 
d="M211 1341h164l37 146h116l-36 -146h243l-24 -94h-242l-84 -344q58 87 150.5 130.5t201.5 43.5q133 0 219 -70t86 -206q0 -104 -32 -221l-144 -580h-118l137 547q37 142 37 235q0 90 -52 143.5t-153 53.5q-134 0 -250.5 -104t-159.5 -277l-149 -598h-117l311 1247h-166z
" />
    <glyph glyph-name="Itilde" unicode="&#x128;" horiz-adv-x="528" 
d="M72 0l372 1487h123l-372 -1487h-123zM258 1653q31 99 82 146.5t109 47.5q43 0 86.5 -25t80.5 -50t62 -25q66 0 102 98h78q-29 -98 -79 -145t-109 -47q-40 0 -83.5 25.5t-82 51t-66.5 25.5q-59 0 -102 -102h-78z" />
    <glyph glyph-name="itilde" unicode="&#x129;" horiz-adv-x="460" 
d="M41 0l262 1057h117l-262 -1057h-117zM145 1284q28 96 75.5 145.5t101.5 49.5q37 0 75 -25.5t72 -51.5t61 -26q55 0 97 101h73q-29 -99 -76 -147t-100 -48q-37 0 -75.5 25.5t-73 51t-62.5 25.5q-52 0 -94 -100h-74z" />
    <glyph glyph-name="Imacron" unicode="&#x12a;" horiz-adv-x="528" 
d="M72 0l372 1487h123l-372 -1487h-123zM324 1790h505l-24 -96h-506z" />
    <glyph glyph-name="imacron" unicode="&#x12b;" horiz-adv-x="460" 
d="M41 0l262 1057h117l-262 -1057h-117zM225 1436h439l-25 -97h-438z" />
    <glyph glyph-name="Ibreve" unicode="&#x12c;" horiz-adv-x="528" 
d="M72 0l372 1487h123l-372 -1487h-123zM545 1622q-99 0 -157 49.5t-58 140.5q0 15 4 43h102q-2 -10 -2 -32q0 -59 33 -90t90 -31q62 0 109 38.5t71 114.5h107q-74 -233 -299 -233z" />
    <glyph glyph-name="ibreve" unicode="&#x12d;" horiz-adv-x="460" 
d="M41 0l262 1057h117l-262 -1057h-117zM414 1231q-92 0 -143.5 49.5t-51.5 136.5q0 37 8 70h97q-9 -35 -9 -66q0 -112 105 -112q128 0 174 178h96q-25 -121 -98.5 -188.5t-177.5 -67.5z" />
    <glyph glyph-name="Iogonek" unicode="&#x12e;" horiz-adv-x="528" 
d="M72 0l372 1487h123l-372 -1487h-123zM18 -418q-77 0 -125.5 45.5t-48.5 112.5q0 162 277 299l74 -39q-242 -118 -242 -240q0 -41 26 -65.5t70 -24.5q35 0 70 13l-23 -93q-36 -8 -78 -8z" />
    <glyph glyph-name="iogonek" unicode="&#x12f;" horiz-adv-x="462" 
d="M43 0l262 1057h117l-262 -1057h-117zM352 1315l43 172h135l-43 -172h-135zM-16 -418q-77 0 -124.5 45.5t-47.5 112.5q0 164 274 299l74 -39q-242 -118 -242 -240q0 -41 26 -65.5t70 -24.5q35 0 70 13l-23 -93q-36 -8 -77 -8z" />
    <glyph glyph-name="Idot" unicode="&#x130;" horiz-adv-x="528" 
d="M72 0l372 1487h123l-372 -1487h-123zM477 1663l43 172h135l-43 -172h-135z" />
    <glyph glyph-name="dotlessi" unicode="&#x131;" horiz-adv-x="460" 
d="M41 0l262 1057h117l-262 -1057h-117z" />
    <glyph glyph-name="IJ" unicode="&#x132;" horiz-adv-x="1202" 
d="M72 0l372 1487h123l-372 -1487h-123zM995 451q-28 -116 -61 -196t-84 -143.5t-124 -94.5t-171 -31q-59 0 -129 12l29 111q60 -13 102 -13q71 0 125 29t91 86.5t61 119.5t47 152l252 1004h122z" />
    <glyph glyph-name="ij" unicode="&#x133;" horiz-adv-x="907" 
d="M41 0l262 1057h117l-262 -1057h-117zM350 1315l43 172h135l-43 -172h-135zM569 -135q-33 -133 -115.5 -209t-201.5 -76q-44 0 -94 12l24 107q31 -8 70 -8q84 0 134.5 58t78.5 169l287 1139h116zM799 1315l43 172h135l-43 -172h-135z" />
    <glyph glyph-name="Jcircumflex" unicode="&#x134;" horiz-adv-x="684" 
d="M477 451q-28 -116 -61 -196t-84 -143.5t-124 -94.5t-171 -31q-59 0 -129 12l29 111q60 -13 102 -13q57 0 104 20.5t79 53.5t59.5 86t45 104.5t35.5 122.5l252 1004h123zM680 1855h151l138 -225h-111l-108 168l-187 -168h-119z" />
    <glyph glyph-name="jcircumflex" unicode="&#x135;" horiz-adv-x="460" 
d="M391 1487h139l115 -252h-100l-92 195l-179 -195h-110zM123 -135q-33 -133 -115.5 -209t-202.5 -76q-45 0 -94 12l25 107q31 -8 69 -8q84 0 134.5 58t78.5 169l287 1139h117z" />
    <glyph glyph-name="uni0136" unicode="&#x136;" horiz-adv-x="1187" 
d="M1090 0h-146l-553 780l-196 -780h-123l370 1487h123l-164 -658l783 658h164l-824 -686zM467 -299h-57l39 156h143l-39 -162l-127 -187h-68z" />
    <glyph glyph-name="uni0137" unicode="&#x137;" horiz-adv-x="962" 
d="M844 0h-137l-402 580l-147 -580h-117l371 1487h116l-215 -862l574 432h166l-619 -471zM338 -299h-55l39 156h141l-39 -162l-127 -187h-68z" />
    <glyph glyph-name="kgreenlandic" unicode="&#x138;" horiz-adv-x="962" 
d="M844 0h-137l-402 580l-147 -580h-117l264 1057h117l-109 -432l574 432h166l-619 -471z" />
    <glyph glyph-name="Lacute" unicode="&#x139;" horiz-adv-x="1120" 
d="M565 1487l-346 -1385h776l-24 -102h-899l370 1487h123zM662 1855h153l-254 -225h-110z" />
    <glyph glyph-name="lacute" unicode="&#x13a;" horiz-adv-x="460" 
d="M410 1487h116l-368 -1487h-117zM629 1855h153l-254 -225h-110z" />
    <glyph glyph-name="uni013B" unicode="&#x13b;" horiz-adv-x="1120" 
d="M565 1487l-346 -1385h776l-24 -102h-899l370 1487h123zM473 -299h-57l39 156h143l-39 -162l-127 -187h-67z" />
    <glyph glyph-name="uni013C" unicode="&#x13c;" horiz-adv-x="460" 
d="M410 1487h116l-368 -1487h-117zM18 -299h-55l39 156h141l-39 -162l-127 -187h-67z" />
    <glyph glyph-name="Lcaron" unicode="&#x13d;" horiz-adv-x="1120" 
d="M926 1487h116l-6 -27l-118 -280h-89zM565 1487l-346 -1385h776l-24 -102h-899l370 1487h123z" />
    <glyph glyph-name="lcaron" unicode="&#x13e;" horiz-adv-x="491" 
d="M672 1487h114l-6 -27l-118 -280h-87zM410 1487h116l-368 -1487h-117z" />
    <glyph glyph-name="Ldot" unicode="&#x13f;" horiz-adv-x="1122" 
d="M565 1487l-346 -1385h776l-24 -102h-899l370 1487h123zM975 889l-43 -172h-139l43 172h139z" />
    <glyph glyph-name="ldot" unicode="&#x140;" horiz-adv-x="548" 
d="M664 887l-41 -172h-140l41 172h140zM410 1487h116l-368 -1487h-117z" />
    <glyph glyph-name="Lslash" unicode="&#x141;" horiz-adv-x="1183" 
d="M92 578l217 122l197 787h123l-178 -713l491 285l-31 -129l-491 -281l-137 -547h776l-25 -102h-899l146 582l-218 -125z" />
    <glyph glyph-name="lslash" unicode="&#x142;" horiz-adv-x="595" 
d="M113 680l209 145l163 662h117l-143 -576l211 150l-31 -121l-209 -145l-197 -795h-116l174 709l-209 -148z" />
    <glyph glyph-name="Nacute" unicode="&#x143;" horiz-adv-x="1495" 
d="M627 1487l434 -1370h12l344 1370h117l-373 -1487h-196l-422 1366h-13l-342 -1366h-116l370 1487h185zM1139 1855h153l-254 -225h-110z" />
    <glyph glyph-name="nacute" unicode="&#x144;" horiz-adv-x="1153" 
d="M369 895q55 86 156.5 134t209.5 48q133 0 219 -70t86 -206q0 -95 -30 -221l-146 -580h-119l140 547q35 134 35 235q0 90 -52 143.5t-153 53.5q-134 0 -249.5 -104t-158.5 -277l-149 -598h-117l262 1057h109zM877 1487h155l-278 -252h-111z" />
    <glyph glyph-name="uni0145" unicode="&#x145;" horiz-adv-x="1495" 
d="M627 1487l434 -1370h12l344 1370h117l-373 -1487h-196l-422 1366h-13l-342 -1366h-116l370 1487h185zM537 -299h-58l39 156h144l-39 -162l-127 -187h-68z" />
    <glyph glyph-name="uni0146" unicode="&#x146;" horiz-adv-x="1153" 
d="M369 895q55 86 156.5 134t209.5 48q133 0 219 -70t86 -206q0 -95 -30 -221l-146 -580h-119l140 547q35 134 35 235q0 90 -52 143.5t-153 53.5q-134 0 -249.5 -104t-158.5 -277l-149 -598h-117l262 1057h109zM389 -299h-55l39 156h141l-39 -162l-127 -187h-67z" />
    <glyph glyph-name="Ncaron" unicode="&#x147;" horiz-adv-x="1495" 
d="M627 1487l434 -1370h12l344 1370h117l-373 -1487h-196l-422 1366h-13l-342 -1366h-116l370 1487h185zM1071 1630h-151l-138 225h111l111 -169l184 169h119z" />
    <glyph glyph-name="ncaron" unicode="&#x148;" horiz-adv-x="1153" 
d="M369 895q55 86 156.5 134t209.5 48q133 0 219 -70t86 -206q0 -95 -30 -221l-146 -580h-119l140 547q35 134 35 235q0 90 -52 143.5t-153 53.5q-134 0 -249.5 -104t-158.5 -277l-149 -598h-117l262 1057h109zM801 1235h-148l-133 252h107l106 -197l193 197h114z" />
    <glyph glyph-name="napostrophe" unicode="&#x149;" horiz-adv-x="1314" 
d="M530 895q55 86 157 134t210 48q133 0 219 -70t86 -206q0 -91 -31 -221l-145 -580h-119l140 547q34 131 34 235q0 90 -51.5 143.5t-152.5 53.5q-134 0 -249.5 -104t-158.5 -277l-150 -598h-116l262 1057h108zM338 1343h-68l37 144h154l-41 -164l-141 -219h-80z" />
    <glyph glyph-name="Eng" unicode="&#x14a;" horiz-adv-x="1497" 
d="M737 -420q-67 0 -116 10l24 101q49 -10 103 -10q110 0 182 71.5t114 247.5l-516 1346h-10l-14 -66q-11 -46 -49 -199t-49 -211l-218 -870h-116l370 1487h156l492 -1292h10q79 342 110 456l209 836h117l-367 -1464q-22 -88 -46.5 -153t-60 -122t-80.5 -92.5t-106.5 -55.5
t-138.5 -20z" />
    <glyph glyph-name="eng" unicode="&#x14b;" horiz-adv-x="1153" 
d="M379 887q133 190 369 190q134 0 214 -76t80 -200q0 -104 -32 -221l-183 -730q-32 -127 -107.5 -198.5t-189.5 -71.5q-40 0 -106 17l25 102q52 -10 73 -10q86 0 132 59.5t75 175.5l156 623q39 163 39 235q0 88 -61 145.5t-163 57.5q-130 0 -240.5 -110t-152.5 -277
l-149 -598h-117l264 1057h115z" />
    <glyph glyph-name="Omacron" unicode="&#x14c;" horiz-adv-x="1529" 
d="M969 1511q245 0 383.5 -158.5t138.5 -424.5q0 -195 -68 -372.5t-181 -304t-264 -201.5t-312 -75q-241 0 -381 155t-140 409q0 204 67 386t179.5 309.5t263.5 202t314 74.5zM958 1411q-127 0 -238.5 -52t-192 -139t-138.5 -200.5t-86.5 -239t-28.5 -250.5
q0 -211 110 -332.5t294 -121.5q106 0 209 43t188 122t150 184t101 237t36 272q0 227 -104.5 352t-299.5 125zM811 1790h506l-25 -96h-506z" />
    <glyph glyph-name="omacron" unicode="&#x14d;" horiz-adv-x="1169" 
d="M698 1081q186 0 284.5 -111.5t98.5 -301.5q0 -193 -77.5 -351t-217 -250t-313.5 -92q-181 0 -283 114t-102 302q0 143 47.5 271t128.5 219.5t194 145.5t240 54zM690 981q-98 0 -185.5 -45t-152.5 -124t-103 -193.5t-38 -247.5q0 -137 72 -216t202 -79q132 0 240 78.5
t170.5 218t62.5 311.5q0 141 -69.5 219t-198.5 78zM526 1436h502l-24 -97h-502z" />
    <glyph glyph-name="Obreve" unicode="&#x14e;" horiz-adv-x="1529" 
d="M969 1511q245 0 383.5 -158.5t138.5 -424.5q0 -195 -68 -372.5t-181 -304t-264 -201.5t-312 -75q-241 0 -381 155t-140 409q0 204 67 386t179.5 309.5t263.5 202t314 74.5zM958 1411q-127 0 -238.5 -52t-192 -139t-138.5 -200.5t-86.5 -239t-28.5 -250.5
q0 -211 110 -332.5t294 -121.5q106 0 209 43t188 122t150 184t101 237t36 272q0 227 -104.5 352t-299.5 125zM1032 1622q-99 0 -157 49.5t-58 140.5q0 15 4 43h103q-2 -10 -2 -32q0 -59 32.5 -90t89.5 -31q62 0 109.5 38.5t71.5 114.5h106q-74 -233 -299 -233z" />
    <glyph glyph-name="obreve" unicode="&#x14f;" horiz-adv-x="1169" 
d="M698 1081q186 0 284.5 -111.5t98.5 -301.5q0 -193 -77.5 -351t-217 -250t-313.5 -92q-181 0 -283 114t-102 302q0 143 47.5 271t128.5 219.5t194 145.5t240 54zM690 981q-98 0 -185.5 -45t-152.5 -124t-103 -193.5t-38 -247.5q0 -137 72 -216t202 -79q132 0 240 78.5
t170.5 218t62.5 311.5q0 141 -69.5 219t-198.5 78zM752 1231q-103 0 -162.5 51t-59.5 139q0 36 9 66h98q-6 -30 -6 -55q0 -61 34 -92t91 -31q66 0 116 44.5t74 133.5h101q-26 -122 -104.5 -189t-190.5 -67z" />
    <glyph glyph-name="Ohungarumlaut" unicode="&#x150;" horiz-adv-x="1529" 
d="M969 1511q245 0 383.5 -158.5t138.5 -424.5q0 -195 -68 -372.5t-181 -304t-264 -201.5t-312 -75q-241 0 -381 155t-140 409q0 204 67 386t179.5 309.5t263.5 202t314 74.5zM958 1411q-127 0 -238.5 -52t-192 -139t-138.5 -200.5t-86.5 -239t-28.5 -250.5
q0 -211 110 -332.5t294 -121.5q106 0 209 43t188 122t150 184t101 237t36 272q0 227 -104.5 352t-299.5 125zM1354 1855h147l-256 -225h-108zM981 1855h141l-248 -225h-106z" />
    <glyph glyph-name="ohungarumlaut" unicode="&#x151;" horiz-adv-x="1169" 
d="M698 1081q186 0 284.5 -111.5t98.5 -301.5q0 -193 -77.5 -351t-217 -250t-313.5 -92q-181 0 -283 114t-102 302q0 143 47.5 271t128.5 219.5t194 145.5t240 54zM690 981q-98 0 -185.5 -45t-152.5 -124t-103 -193.5t-38 -247.5q0 -137 72 -216t202 -79q132 0 240 78.5
t170.5 218t62.5 311.5q0 141 -69.5 219t-198.5 78zM1059 1487h143l-264 -252h-104zM700 1487h140l-258 -252h-103z" />
    <glyph glyph-name="OE" unicode="&#x152;" horiz-adv-x="1976" 
d="M750 0q-274 0 -439.5 150t-165.5 413q0 145 39.5 281.5t119 253t190 203.5t261.5 136.5t324 49.5h1018l-26 -107h-680l-142 -561h643l-26 -106h-643l-150 -607h713l-27 -106h-1009zM950 106l318 1274h-211q-173 0 -321 -64t-249 -173.5t-158 -257t-57 -312.5
q0 -214 127.5 -340.5t343.5 -126.5h207z" />
    <glyph glyph-name="oe" unicode="&#x153;" horiz-adv-x="1918" 
d="M1042 508q-12 -73 -12 -139q0 -142 70 -219.5t209 -77.5q119 0 196 62.5t137 178.5h121q-142 -340 -465 -340q-61 0 -115 13.5t-105 43.5t-89 85t-57 131q-75 -122 -193.5 -196.5t-259.5 -74.5q-182 0 -287.5 112.5t-105.5 289.5q0 190 77 351t215.5 257t307.5 96
q135 0 229.5 -73.5t124.5 -196.5q55 98 132.5 160.5t154.5 86t164 23.5q156 0 255 -95t99 -277q0 -87 -24 -201h-779zM494 74q83 0 157 37t127.5 98.5t93 140t59 163.5t19.5 167q0 141 -73 221t-197 80q-135 0 -244 -87t-167 -224.5t-58 -292.5q0 -143 72.5 -223t210.5 -80z
M1485 983q-141 0 -252.5 -97t-165.5 -284h653q9 53 9 98q0 138 -65.5 210.5t-178.5 72.5z" />
    <glyph glyph-name="Racute" unicode="&#x154;" horiz-adv-x="1284" 
d="M829 1487q441 0 441 -338q0 -186 -118 -297t-310 -137v-8q38 -12 67.5 -30.5t50 -37.5t35.5 -49.5t23.5 -54t15.5 -65.5t10 -69t7 -79l32 -322h-122l-37 319q-5 40 -8.5 63.5t-9.5 57t-12.5 53t-16 45.5t-22 41t-29.5 32.5t-39 27.5t-49 19t-60.5 12.5t-73.5 3.5h-237
l-172 -674h-123l370 1487h387zM668 778q227 0 352 95.5t125 267.5q0 124 -80.5 181.5t-253.5 57.5h-270l-148 -602h275zM995 1855h154l-254 -225h-111z" />
    <glyph glyph-name="racute" unicode="&#x155;" horiz-adv-x="708" 
d="M788 958q-57 11 -88 11q-78 0 -145.5 -32.5t-117.5 -90.5t-85.5 -131t-56.5 -160l-137 -555h-117l262 1057h115l-33 -137q132 147 324 147q54 0 106 -8zM723 1487h156l-279 -252h-111z" />
    <glyph glyph-name="uni0156" unicode="&#x156;" horiz-adv-x="1284" 
d="M829 1487q441 0 441 -338q0 -186 -118 -297t-310 -137v-8q38 -12 67.5 -30.5t50 -37.5t35.5 -49.5t23.5 -54t15.5 -65.5t10 -69t7 -79l32 -322h-122l-37 319q-5 40 -8.5 63.5t-9.5 57t-12.5 53t-16 45.5t-22 41t-29.5 32.5t-39 27.5t-49 19t-60.5 12.5t-73.5 3.5h-237
l-172 -674h-123l370 1487h387zM668 778q227 0 352 95.5t125 267.5q0 124 -80.5 181.5t-253.5 57.5h-270l-148 -602h275zM492 -299h-58l39 156h143l-38 -162l-127 -187h-68z" />
    <glyph glyph-name="uni0157" unicode="&#x157;" horiz-adv-x="708" 
d="M788 958q-57 11 -88 11q-78 0 -145.5 -32.5t-117.5 -90.5t-85.5 -131t-56.5 -160l-137 -555h-117l262 1057h115l-33 -137q132 147 324 147q54 0 106 -8zM18 -299h-55l39 156h141l-39 -162l-127 -187h-67z" />
    <glyph glyph-name="Rcaron" unicode="&#x158;" horiz-adv-x="1284" 
d="M829 1487q441 0 441 -338q0 -186 -118 -297t-310 -137v-8q38 -12 67.5 -30.5t50 -37.5t35.5 -49.5t23.5 -54t15.5 -65.5t10 -69t7 -79l32 -322h-122l-37 319q-5 40 -8.5 63.5t-9.5 57t-12.5 53t-16 45.5t-22 41t-29.5 32.5t-39 27.5t-49 19t-60.5 12.5t-73.5 3.5h-237
l-172 -674h-123l370 1487h387zM668 778q227 0 352 95.5t125 267.5q0 124 -80.5 181.5t-253.5 57.5h-270l-148 -602h275zM928 1630h-152l-137 225h111l110 -169l184 169h119z" />
    <glyph glyph-name="rcaron" unicode="&#x159;" horiz-adv-x="708" 
d="M788 958q-57 11 -88 11q-78 0 -145.5 -32.5t-117.5 -90.5t-85.5 -131t-56.5 -160l-137 -555h-117l262 1057h115l-33 -137q132 147 324 147q54 0 106 -8zM387 1487h107l110 -199l193 199h118l-245 -252h-148z" />
    <glyph glyph-name="Sacute" unicode="&#x15a;" horiz-adv-x="1204" 
d="M1073 1057q4 50 4 71q0 131 -84.5 207t-236.5 76q-157 0 -261 -86.5t-104 -224.5q0 -38 10 -71t24.5 -57t42 -46.5t50.5 -37t62.5 -31.5t65.5 -26t71 -24q5 -2 16 -6q149 -55 211 -96q140 -96 141 -267q0 -134 -70 -240t-192.5 -164.5t-273.5 -58.5q-212 0 -341.5 105
t-129.5 293q0 53 12 112h129q-10 -65 -10 -102q0 -143 83 -225t255 -82q173 0 291 99.5t118 250.5q0 42 -11 76.5t-34 62t-48 47.5t-65 39t-72 31.5t-81 28.5q-42 14 -65.5 22.5t-62 23.5t-61 26.5t-53.5 30.5t-49 37t-39 43t-31.5 52t-18 61.5t-7.5 73.5q0 184 145.5 307
t362.5 123q191 0 315.5 -96t124.5 -268q0 -43 -6 -90h-127zM956 1855h154l-254 -225h-111z" />
    <glyph glyph-name="sacute" unicode="&#x15b;" horiz-adv-x="993" 
d="M823 719q4 46 4 55q0 209 -245 209q-118 0 -196.5 -56t-78.5 -141q0 -33 13.5 -60t33.5 -45.5t54.5 -36t63 -28t73.5 -24.5q135 -46 185 -75q120 -70 120 -198q0 -151 -122.5 -247.5t-309.5 -96.5q-107 0 -192 30.5t-140 101t-55 172.5q0 38 8 65h123q-8 -24 -8 -57
q0 -213 262 -213q132 0 219.5 62t87.5 159q0 19 -5 36.5t-10.5 30.5t-19.5 26.5t-23 22.5t-31 20t-32.5 16.5t-38.5 16t-38 14t-42 14.5q-137 46 -187 76q-116 69 -116 194q0 141 113 230t297 89q165 0 260.5 -76t95.5 -225q0 -15 -4 -61h-119zM780 1487h156l-279 -252h-110
z" />
    <glyph glyph-name="Scircumflex" unicode="&#x15c;" horiz-adv-x="1204" 
d="M1073 1057q4 50 4 71q0 131 -84.5 207t-236.5 76q-157 0 -261 -86.5t-104 -224.5q0 -38 10 -71t24.5 -57t42 -46.5t50.5 -37t62.5 -31.5t65.5 -26t71 -24q5 -2 16 -6q149 -55 211 -96q140 -96 141 -267q0 -134 -70 -240t-192.5 -164.5t-273.5 -58.5q-212 0 -341.5 105
t-129.5 293q0 53 12 112h129q-10 -65 -10 -102q0 -143 83 -225t255 -82q173 0 291 99.5t118 250.5q0 42 -11 76.5t-34 62t-48 47.5t-65 39t-72 31.5t-81 28.5q-42 14 -65.5 22.5t-62 23.5t-61 26.5t-53.5 30.5t-49 37t-39 43t-31.5 52t-18 61.5t-7.5 73.5q0 184 145.5 307
t362.5 123q191 0 315.5 -96t124.5 -268q0 -43 -6 -90h-127zM805 1855h151l138 -225h-111l-109 168l-186 -168h-119z" />
    <glyph glyph-name="scircumflex" unicode="&#x15d;" horiz-adv-x="993" 
d="M823 719q4 46 4 55q0 209 -245 209q-118 0 -196.5 -56t-78.5 -141q0 -33 13.5 -60t33.5 -45.5t54.5 -36t63 -28t73.5 -24.5q135 -46 185 -75q120 -70 120 -198q0 -151 -122.5 -247.5t-309.5 -96.5q-107 0 -192 30.5t-140 101t-55 172.5q0 38 8 65h123q-8 -24 -8 -57
q0 -213 262 -213q132 0 219.5 62t87.5 159q0 19 -5 36.5t-10.5 30.5t-19.5 26.5t-23 22.5t-31 20t-32.5 16.5t-38.5 16t-38 14t-42 14.5q-137 46 -187 76q-116 69 -116 194q0 141 113 230t297 89q165 0 260.5 -76t95.5 -225q0 -15 -4 -61h-119zM621 1487h147l133 -252h-106
l-105 197l-194 -197h-115z" />
    <glyph glyph-name="Scedilla" unicode="&#x15e;" horiz-adv-x="1204" 
d="M1073 1057q4 50 4 71q0 131 -84.5 207t-236.5 76q-157 0 -261 -86.5t-104 -224.5q0 -38 10 -71t24.5 -57t42 -46.5t50.5 -37t62.5 -31.5t65.5 -26t71 -24q5 -2 16 -6q149 -55 211 -96q140 -96 141 -267q0 -134 -70 -240t-192.5 -164.5t-273.5 -58.5q-212 0 -341.5 105
t-129.5 293q0 53 12 112h129q-10 -65 -10 -102q0 -143 83 -225t255 -82q173 0 291 99.5t118 250.5q0 42 -11 76.5t-34 62t-48 47.5t-65 39t-72 31.5t-81 28.5q-42 14 -65.5 22.5t-62 23.5t-61 26.5t-53.5 30.5t-49 37t-39 43t-31.5 52t-18 61.5t-7.5 73.5q0 184 145.5 307
t362.5 123q191 0 315.5 -96t124.5 -268q0 -43 -6 -90h-127zM422 -418q-47 0 -78 8l18 80q19 -8 60 -8q61 0 101 30t40 97q0 49 -40.5 71.5t-94.5 22.5l35 137h96l-20 -83q58 -8 93.5 -47.5t35.5 -100.5q0 -98 -72 -152.5t-174 -54.5z" />
    <glyph glyph-name="scedilla" unicode="&#x15f;" horiz-adv-x="993" 
d="M823 719q4 46 4 55q0 209 -245 209q-118 0 -196.5 -56t-78.5 -141q0 -33 13.5 -60t33.5 -45.5t54.5 -36t63 -28t73.5 -24.5q135 -46 185 -75q120 -70 120 -198q0 -151 -122.5 -247.5t-309.5 -96.5q-107 0 -192 30.5t-140 101t-55 172.5q0 38 8 65h123q-8 -24 -8 -57
q0 -213 262 -213q132 0 219.5 62t87.5 159q0 19 -5 36.5t-10.5 30.5t-19.5 26.5t-23 22.5t-31 20t-32.5 16.5t-38.5 16t-38 14t-42 14.5q-137 46 -187 76q-116 69 -116 194q0 141 113 230t297 89q165 0 260.5 -76t95.5 -225q0 -15 -4 -61h-119zM303 -416q-47 0 -78 8l17 82
q22 -10 59 -10q61 0 101 30t40 95q0 48 -40 71t-95 23l37 135h96l-20 -84q57 -8 92 -47.5t35 -99.5q0 -94 -72 -148.5t-172 -54.5z" />
    <glyph glyph-name="Scaron" unicode="&#x160;" horiz-adv-x="1204" 
d="M1073 1057q4 50 4 71q0 131 -84.5 207t-236.5 76q-157 0 -261 -86.5t-104 -224.5q0 -38 10 -71t24.5 -57t42 -46.5t50.5 -37t62.5 -31.5t65.5 -26t71 -24q5 -2 16 -6q149 -55 211 -96q140 -96 141 -267q0 -134 -70 -240t-192.5 -164.5t-273.5 -58.5q-212 0 -341.5 105
t-129.5 293q0 53 12 112h129q-10 -65 -10 -102q0 -143 83 -225t255 -82q173 0 291 99.5t118 250.5q0 42 -11 76.5t-34 62t-48 47.5t-65 39t-72 31.5t-81 28.5q-42 14 -65.5 22.5t-62 23.5t-61 26.5t-53.5 30.5t-49 37t-39 43t-31.5 52t-18 61.5t-7.5 73.5q0 184 145.5 307
t362.5 123q191 0 315.5 -96t124.5 -268q0 -43 -6 -90h-127zM889 1630h-152l-137 225h111l110 -169l185 169h118z" />
    <glyph glyph-name="scaron" unicode="&#x161;" horiz-adv-x="993" 
d="M823 719q4 46 4 55q0 209 -245 209q-118 0 -196.5 -56t-78.5 -141q0 -33 13.5 -60t33.5 -45.5t54.5 -36t63 -28t73.5 -24.5q135 -46 185 -75q120 -70 120 -198q0 -151 -122.5 -247.5t-309.5 -96.5q-107 0 -192 30.5t-140 101t-55 172.5q0 38 8 65h123q-8 -24 -8 -57
q0 -213 262 -213q132 0 219.5 62t87.5 159q0 19 -5 36.5t-10.5 30.5t-19.5 26.5t-23 22.5t-31 20t-32.5 16.5t-38.5 16t-38 14t-42 14.5q-137 46 -187 76q-116 69 -116 194q0 141 113 230t297 89q165 0 260.5 -76t95.5 -225q0 -15 -4 -61h-119zM705 1235h-148l-133 252h106
l107 -197l192 197h115z" />
    <glyph glyph-name="uni0162" unicode="&#x162;" horiz-adv-x="1157" 
d="M1372 1487l-24 -103h-496l-360 -1450q48 -12 77 -50t29 -93q0 -98 -72 -152.5t-174 -54.5q-47 0 -78 8l19 80q19 -8 59 -8q60 0 101 31.5t41 95.5q0 48 -41 71t-95 23l371 1499h-493l24 103h1112z" />
    <glyph glyph-name="uni0163" unicode="&#x163;" horiz-adv-x="600" 
d="M444 958l-174 -694q-12 -46 -12 -78q0 -51 27 -70.5t75 -19.5q27 0 103 13l-31 -109q-52 -10 -92 -10q-54 0 -97.5 13t-75.5 50.5t-32 96.5q0 50 25 141l168 667h-195l25 99h194l58 231h116l-57 -231h217l-22 -99h-220zM168 -416q-47 0 -78 8l16 82q22 -10 60 -10
q61 0 101 30t40 95q0 48 -40 71t-95 23l37 135h96l-20 -84q57 -8 92 -47.5t35 -99.5q0 -94 -72 -148.5t-172 -54.5z" />
    <glyph glyph-name="Tcaron" unicode="&#x164;" horiz-adv-x="1157" 
d="M236 1384l24 103h1112l-24 -103h-496l-344 -1384h-123l344 1384h-493zM911 1630h-151l-137 225h110l111 -169l184 169h119z" />
    <glyph glyph-name="tcaron" unicode="&#x165;" horiz-adv-x="600" 
d="M727 1487h115l-6 -27l-119 -280h-86zM444 958l-174 -694q-12 -46 -12 -78q0 -51 27 -70.5t75 -19.5q27 0 103 13l-31 -109q-52 -10 -92 -10q-54 0 -97.5 13t-75.5 50.5t-32 96.5q0 50 25 141l168 667h-195l25 99h194l58 231h116l-57 -231h217l-22 -99h-220z" />
    <glyph glyph-name="Tbar" unicode="&#x166;" horiz-adv-x="1183" 
d="M305 821h295l141 563h-493l24 103h1112l-24 -103h-496l-141 -563h301l-25 -100h-301l-178 -721h-123l178 721h-294z" />
    <glyph glyph-name="tbar" unicode="&#x167;" horiz-adv-x="632" 
d="M76 633h192l82 325h-194l24 99h195l57 231h117l-57 -231h217l-23 -99h-219l-82 -325h219l-24 -98h-220l-67 -271q-12 -50 -12 -78q0 -51 27 -70.5t75 -19.5q26 0 102 13l-30 -109q-52 -10 -93 -10q-40 0 -74 8t-64.5 25t-48 49.5t-17.5 77.5q0 54 24 141l62 244h-193z
" />
    <glyph glyph-name="Utilde" unicode="&#x168;" horiz-adv-x="1417" 
d="M1227 504q-71 -283 -220 -406t-389 -123q-220 0 -333 109t-113 299q0 82 31 213l223 891h123l-227 -922q-23 -97 -23 -166q0 -151 81 -237t253 -86q189 0 305 115.5t176 361.5l232 934h124zM684 1653q31 99 81.5 146.5t108.5 47.5q43 0 87 -25t81 -50t62 -25q66 0 102 98
h78q-29 -98 -79 -145t-109 -47q-40 0 -83.5 25.5t-82 51t-66.5 25.5q-59 0 -102 -102h-78z" />
    <glyph glyph-name="utilde" unicode="&#x169;" horiz-adv-x="1150" 
d="M780 160q-55 -85 -154.5 -132.5t-207.5 -47.5q-133 0 -219 70t-86 206q0 95 30 221l146 580h117l-138 -549q-37 -154 -37 -234q0 -89 52.5 -142.5t152.5 -53.5q134 0 250.5 104t159.5 275l149 600h117l-264 -1057h-111zM444 1284q34 96 83 143.5t106 47.5
q32 0 66.5 -15.5t60 -34t55.5 -34t53 -15.5q30 0 54 22.5t47 74.5h84q-31 -97 -82 -144t-109 -47q-41 0 -84 24t-81.5 48t-67.5 24q-60 0 -103 -94h-82z" />
    <glyph glyph-name="Umacron" unicode="&#x16a;" horiz-adv-x="1417" 
d="M1227 504q-71 -283 -220 -406t-389 -123q-220 0 -333 109t-113 299q0 82 31 213l223 891h123l-227 -922q-23 -97 -23 -166q0 -151 81 -237t253 -86q189 0 305 115.5t176 361.5l232 934h124zM750 1790h505l-24 -96h-506z" />
    <glyph glyph-name="umacron" unicode="&#x16b;" horiz-adv-x="1150" 
d="M780 160q-55 -85 -154.5 -132.5t-207.5 -47.5q-133 0 -219 70t-86 206q0 95 30 221l146 580h117l-138 -549q-37 -154 -37 -234q0 -89 52.5 -142.5t152.5 -53.5q134 0 250.5 104t159.5 275l149 600h117l-264 -1057h-111zM516 1436h502l-25 -97h-501z" />
    <glyph glyph-name="Ubreve" unicode="&#x16c;" horiz-adv-x="1417" 
d="M1227 504q-71 -283 -220 -406t-389 -123q-220 0 -333 109t-113 299q0 82 31 213l223 891h123l-227 -922q-23 -97 -23 -166q0 -151 81 -237t253 -86q189 0 305 115.5t176 361.5l232 934h124zM971 1622q-99 0 -157 49.5t-58 140.5q0 15 4 43h102q-2 -10 -2 -32
q0 -59 33 -90t90 -31q62 0 109 38.5t71 114.5h107q-74 -233 -299 -233z" />
    <glyph glyph-name="ubreve" unicode="&#x16d;" horiz-adv-x="1150" 
d="M780 160q-55 -85 -154.5 -132.5t-207.5 -47.5q-133 0 -219 70t-86 206q0 95 30 221l146 580h117l-138 -549q-37 -154 -37 -234q0 -89 52.5 -142.5t152.5 -53.5q134 0 250.5 104t159.5 275l149 600h117l-264 -1057h-111zM741 1231q-103 0 -162 51t-59 139q0 39 8 66h99
q-6 -30 -6 -55q0 -61 34 -92t90 -31q66 0 116.5 44.5t74.5 133.5h100q-26 -122 -104.5 -189t-190.5 -67z" />
    <glyph glyph-name="Uring" unicode="&#x16e;" horiz-adv-x="1417" 
d="M1227 504q-71 -283 -220 -406t-389 -123q-220 0 -333 109t-113 299q0 82 31 213l223 891h123l-227 -922q-23 -97 -23 -166q0 -151 81 -237t253 -86q189 0 305 115.5t176 361.5l232 934h124zM958 1516q-85 0 -137.5 52t-52.5 126q0 89 69 156t173 67q84 0 136 -50.5
t52 -125.5q0 -92 -68.5 -158.5t-171.5 -66.5zM969 1591q61 0 102 42t41 102q0 52 -31.5 79t-81.5 27q-62 0 -103.5 -41.5t-41.5 -99.5q0 -52 32.5 -80.5t82.5 -28.5z" />
    <glyph glyph-name="uring" unicode="&#x16f;" horiz-adv-x="1150" 
d="M780 160q-55 -85 -154.5 -132.5t-207.5 -47.5q-133 0 -219 70t-86 206q0 95 30 221l146 580h117l-138 -549q-37 -154 -37 -234q0 -89 52.5 -142.5t152.5 -53.5q134 0 250.5 104t159.5 275l149 600h117l-264 -1057h-111zM735 1163q-85 0 -137.5 52t-52.5 126
q0 89 68.5 156.5t172.5 67.5q85 0 137 -50.5t52 -125.5q0 -92 -69 -159t-171 -67zM745 1239q61 0 102.5 41.5t41.5 101.5q0 52 -31.5 79.5t-81.5 27.5q-62 0 -103.5 -41.5t-41.5 -99.5q0 -52 32 -80.5t82 -28.5z" />
    <glyph glyph-name="Uhungarumlaut" unicode="&#x170;" horiz-adv-x="1417" 
d="M1227 504q-71 -283 -220 -406t-389 -123q-220 0 -333 109t-113 299q0 82 31 213l223 891h123l-227 -922q-23 -97 -23 -166q0 -151 81 -237t253 -86q189 0 305 115.5t176 361.5l232 934h124zM1292 1855h148l-256 -225h-109zM920 1855h141l-248 -225h-106z" />
    <glyph glyph-name="uhungarumlaut" unicode="&#x171;" horiz-adv-x="1150" 
d="M780 160q-55 -85 -154.5 -132.5t-207.5 -47.5q-133 0 -219 70t-86 206q0 95 30 221l146 580h117l-138 -549q-37 -154 -37 -234q0 -89 52.5 -142.5t152.5 -53.5q134 0 250.5 104t159.5 275l149 600h117l-264 -1057h-111zM1049 1487h143l-264 -252h-105zM690 1487h139
l-258 -252h-102z" />
    <glyph glyph-name="Uogonek" unicode="&#x172;" horiz-adv-x="1417" 
d="M1470 1487l-243 -983q-46 -181 -121.5 -292t-190.5 -175q-276 -159 -276 -277q0 -41 26 -65.5t70 -24.5q35 0 70 13l-23 -93q-36 -8 -77 -8q-77 0 -126 45.5t-49 112.5q0 123 183 240q-77 -5 -95 -5q-220 0 -333 109t-113 299q0 82 31 213l223 891h123l-227 -922
q-23 -97 -23 -166q0 -151 81 -237t253 -86q189 0 305 115.5t176 361.5l232 934h124z" />
    <glyph glyph-name="uogonek" unicode="&#x173;" horiz-adv-x="1150" 
d="M780 160q-55 -85 -154.5 -132.5t-207.5 -47.5q-133 0 -219 70t-86 206q0 95 30 221l146 580h117l-138 -549q-37 -154 -37 -234q0 -89 52.5 -142.5t152.5 -53.5q134 0 250.5 104t159.5 275l149 600h117l-264 -1057h-111zM672 -418q-77 0 -124.5 45.5t-47.5 112.5
q0 164 274 299l74 -39q-242 -118 -242 -240q0 -41 26 -65.5t70 -24.5q35 0 70 13l-22 -93q-36 -8 -78 -8z" />
    <glyph glyph-name="Wcircumflex" unicode="&#x174;" horiz-adv-x="1886" 
d="M408 1487l-7 -959q0 -69 -2 -211t-2 -208h13l671 1378h203l-12 -957q-2 -137 -2 -421h10l676 1378h125l-733 -1487h-195l4 930q0 174 12 456h-14l-672 -1386h-198l-6 1487h129zM1190 1855h151l138 -225h-111l-108 168l-187 -168h-119z" />
    <glyph glyph-name="wcircumflex" unicode="&#x175;" horiz-adv-x="1611" 
d="M961 0l-35 965l-535 -965h-170l-43 1057h121l29 -961l528 961h172l39 -951l516 951h123l-584 -1057h-161zM954 1487h148l133 -252h-107l-104 197l-195 -197h-114z" />
    <glyph glyph-name="Ycircumflex" unicode="&#x176;" horiz-adv-x="1239" 
d="M254 1487h139l277 -737l633 737h153l-745 -854l-160 -633h-123l160 633zM848 1855h151l138 -225h-111l-108 168l-187 -168h-119z" />
    <glyph glyph-name="ycircumflex" unicode="&#x177;" horiz-adv-x="1013" 
d="M461 0q-18 -30 -44.5 -75.5t-44 -75.5t-43.5 -69.5t-48 -65.5t-52.5 -53.5t-61.5 -43.5t-70.5 -26.5t-84.5 -10.5q-64 0 -121 17l29 104q46 -14 94 -14q40 0 73.5 12.5t57 29t50 51t42.5 60.5t46 77.5t49 82.5l-166 1057h127l131 -930l553 930h131zM645 1487h148
l133 -252h-107l-104 197l-195 -197h-114z" />
    <glyph glyph-name="Ydieresis" unicode="&#x178;" horiz-adv-x="1239" 
d="M254 1487h139l277 -737l633 737h153l-745 -854l-160 -633h-123l160 633zM621 1661l43 174h133l-43 -174h-133zM1004 1661l43 174h133l-43 -174h-133z" />
    <glyph glyph-name="Zacute" unicode="&#x179;" horiz-adv-x="1169" 
d="M1155 1384h-862l26 103h1008l-27 -107l-1191 -1278h911l-27 -102h-1059l25 106zM977 1855h153l-253 -225h-111z" />
    <glyph glyph-name="zacute" unicode="&#x17a;" horiz-adv-x="956" 
d="M113 98h673l-24 -98h-825l24 96l879 862h-652l23 99h803l-29 -101zM793 1487h155l-278 -252h-111z" />
    <glyph glyph-name="Zdotaccent" unicode="&#x17b;" horiz-adv-x="1169" 
d="M1155 1384h-862l26 103h1008l-27 -107l-1191 -1278h911l-27 -102h-1059l25 106zM788 1663l43 172h136l-43 -172h-136z" />
    <glyph glyph-name="zdotaccent" unicode="&#x17c;" horiz-adv-x="956" 
d="M113 98h673l-24 -98h-825l24 96l879 862h-652l23 99h803l-29 -101zM604 1315l43 172h135l-43 -172h-135z" />
    <glyph glyph-name="Zcaron" unicode="&#x17d;" horiz-adv-x="1169" 
d="M1155 1384h-862l26 103h1008l-27 -107l-1191 -1278h911l-27 -102h-1059l25 106zM909 1630h-151l-137 225h110l111 -169l184 169h119z" />
    <glyph glyph-name="zcaron" unicode="&#x17e;" horiz-adv-x="956" 
d="M113 98h673l-24 -98h-825l24 96l879 862h-652l23 99h803l-29 -101zM717 1235h-148l-133 252h107l106 -197l193 197h114z" />
    <glyph glyph-name="longs" unicode="&#x17f;" horiz-adv-x="458" 
d="M39 0l303 1200q37 149 102.5 220t184.5 71q59 0 114 -14l-26 -99q-59 17 -86 17q-74 0 -112.5 -49.5t-61.5 -145.5l-301 -1200h-117z" />
    <glyph glyph-name="uni018F" unicode="&#x18f;" horiz-adv-x="1441" 
d="M586 -27q-218 0 -341.5 133t-123.5 359q0 126 43 299h1098q28 131 28 231q0 197 -98 306.5t-281 109.5q-159 0 -291.5 -88.5t-222.5 -269.5h-133q102 223 277.5 340.5t388.5 117.5q230 0 359.5 -134.5t129.5 -379.5q0 -130 -35 -270.5t-106.5 -275t-168.5 -241
t-233.5 -172t-289.5 -65.5zM602 74q113 0 215.5 48t181 131.5t137.5 186.5t97 222h-973q-16 -106 -16 -185q0 -193 91.5 -298t266.5 -105z" />
    <glyph glyph-name="uni0190" unicode="&#x190;" horiz-adv-x="1214" 
d="M1114 395q-52 -193 -194 -305.5t-369 -112.5q-206 0 -330.5 92.5t-124.5 266.5q0 171 104 276.5t283 149.5v6q-215 71 -215 303q0 192 145.5 315t377.5 123q210 0 324 -92.5t114 -263.5q0 -2 -0.5 -4.5t-1.5 -9.5t-2 -19h-129q2 4 2 27v29q0 112 -89.5 173.5t-230.5 61.5
q-167 0 -279 -97t-112 -243q0 -128 87.5 -194t225.5 -66h99l-27 -106h-100q-59 0 -118.5 -11.5t-120.5 -39t-107 -67.5t-75.5 -103t-29.5 -140q0 -132 88.5 -201t241.5 -69q165 0 278.5 81.5t153.5 239.5h131z" />
    <glyph glyph-name="florin" unicode="&#x192;" 
d="M57 -160q38 -14 76 -14q43 0 82 17.5t67.5 45t54.5 69t43.5 80.5t35.5 87l184 506h-244l35 96h246l106 281q64 165 105 231q90 146 238 174q42 8 88 8q70 0 110 -18l-33 -103q-42 17 -104 17q-33 0 -62 -9t-50.5 -21.5t-42 -36t-33.5 -42t-28.5 -51t-23 -51.5t-21.5 -54
q-1 -4 -2 -6t-2.5 -5.5t-2.5 -6.5l-115 -307h260l-33 -96h-264l-164 -451q-27 -75 -47.5 -125.5t-49.5 -108.5t-60.5 -95t-72.5 -69.5t-92.5 -47.5t-113.5 -15q-22 0 -98 13z" />
    <glyph glyph-name="uni0194" unicode="&#x194;" horiz-adv-x="1218" 
d="M270 1487h123l221 -918l684 918h123l-774 -1053q8 -31 24 -91t22.5 -87t18 -73t16.5 -71.5t11.5 -59t8.5 -59.5t2 -50q0 -166 -98.5 -264.5t-262.5 -98.5q-114 0 -182 64t-68 159q0 41 10 82.5t32.5 88t44.5 84t63 92.5t68.5 90.5t80 100.5t80.5 101zM406 -322
q69 0 119.5 38t73 92.5t22.5 115.5q0 130 -70 381q-12 -15 -57 -74t-60 -79.5t-50.5 -70t-49.5 -76t-34 -65.5t-27 -70t-7 -60q0 -60 39.5 -96t100.5 -36z" />
    <glyph glyph-name="uni0197" unicode="&#x197;" horiz-adv-x="618" 
d="M117 0l178 717h-240l25 98h239l170 672h123l-168 -672h234l-25 -98h-233l-180 -717h-123z" />
    <glyph glyph-name="uni019D" unicode="&#x19d;" horiz-adv-x="1495" 
d="M1534 1487l-373 -1487h-196l-422 1366h-13l-374 -1501q-33 -133 -115.5 -209t-202.5 -76q-44 0 -94 12l25 107q31 -8 69 -8q84 0 134.5 58t78.5 169l391 1569h185l434 -1370h12l344 1370h117z" />
    <glyph glyph-name="uni01B5" unicode="&#x1b5;" horiz-adv-x="1208" 
d="M612 786l562 598h-863l27 103h1008l-27 -107l-555 -594h393l-27 -100h-462l-541 -584h911l-26 -102h-1059l24 106l539 580h-334l27 100h403z" />
    <glyph glyph-name="uni01B6" unicode="&#x1b6;" horiz-adv-x="980" 
d="M606 573h268l-22 -94h-342l-387 -381h674l-25 -98h-825l24 96l389 383h-237l22 94h312l393 385h-651l22 99h803l-29 -101z" />
    <glyph glyph-name="uni01CD" unicode="&#x1cd;" horiz-adv-x="1368" 
d="M1087 0l-61 487h-700l-310 -487h-135l967 1487h162l202 -1487h-125zM893 1384l-496 -796h615l-111 796h-8zM1018 1630h-152l-137 225h111l110 -169l185 169h118z" />
    <glyph glyph-name="uni01CE" unicode="&#x1ce;" horiz-adv-x="1083" 
d="M696 0q16 118 27 156q-72 -92 -162.5 -134t-212.5 -42q-139 0 -223 78.5t-84 201.5q0 58 17 106.5t45 84.5t72.5 65.5t89 49t107 34.5t114.5 23.5t122 14t119.5 7.5t116.5 4q20 100 20 137q0 91 -58.5 143t-172.5 52t-202 -59t-118 -166h-127q46 162 169.5 243.5
t306.5 81.5q157 0 239 -77t82 -213q0 -54 -16 -129l-101 -404q-37 -147 -47 -258h-123zM819 549q-58 0 -95.5 -0.5t-113 -6t-127 -15.5t-116.5 -31.5t-105 -51t-68 -76.5t-28 -106q0 -83 55 -133.5t152 -50.5q101 0 197 51t155 141q48 75 94 279zM768 1235h-147l-134 252
h107l106 -197l193 197h115z" />
    <glyph glyph-name="uni01CF" unicode="&#x1cf;" horiz-adv-x="528" 
d="M72 0l372 1487h123l-372 -1487h-123zM602 1630h-151l-138 225h111l111 -169l184 169h119z" />
    <glyph glyph-name="uni01D0" unicode="&#x1d0;" horiz-adv-x="460" 
d="M41 0l262 1057h117l-262 -1057h-117zM469 1235h-139l-115 252h100l93 -197l178 197h110z" />
    <glyph glyph-name="uni01D1" unicode="&#x1d1;" horiz-adv-x="1529" 
d="M969 1511q245 0 383.5 -158.5t138.5 -424.5q0 -195 -68 -372.5t-181 -304t-264 -201.5t-312 -75q-241 0 -381 155t-140 409q0 204 67 386t179.5 309.5t263.5 202t314 74.5zM958 1411q-127 0 -238.5 -52t-192 -139t-138.5 -200.5t-86.5 -239t-28.5 -250.5
q0 -211 110 -332.5t294 -121.5q106 0 209 43t188 122t150 184t101 237t36 272q0 227 -104.5 352t-299.5 125zM1059 1630h-152l-137 225h111l110 -169l185 169h118z" />
    <glyph glyph-name="uni01D2" unicode="&#x1d2;" horiz-adv-x="1169" 
d="M698 1081q186 0 284.5 -111.5t98.5 -301.5q0 -193 -77.5 -351t-217 -250t-313.5 -92q-181 0 -283 114t-102 302q0 143 47.5 271t128.5 219.5t194 145.5t240 54zM690 981q-98 0 -185.5 -45t-152.5 -124t-103 -193.5t-38 -247.5q0 -137 72 -216t202 -79q132 0 240 78.5
t170.5 218t62.5 311.5q0 141 -69.5 219t-198.5 78zM801 1235h-148l-133 252h107l106 -197l193 197h114z" />
    <glyph glyph-name="uni01D3" unicode="&#x1d3;" horiz-adv-x="1417" 
d="M1227 504q-71 -283 -220 -406t-389 -123q-220 0 -333 109t-113 299q0 82 31 213l223 891h123l-227 -922q-23 -97 -23 -166q0 -151 81 -237t253 -86q189 0 305 115.5t176 361.5l232 934h124zM1049 1630h-152l-137 225h110l111 -169l184 169h119z" />
    <glyph glyph-name="uni01D4" unicode="&#x1d4;" horiz-adv-x="1150" 
d="M780 160q-55 -85 -154.5 -132.5t-207.5 -47.5q-133 0 -219 70t-86 206q0 95 30 221l146 580h117l-138 -549q-37 -154 -37 -234q0 -89 52.5 -142.5t152.5 -53.5q134 0 250.5 104t159.5 275l149 600h117l-264 -1057h-111zM791 1235h-148l-133 252h106l107 -197l192 197h115
z" />
    <glyph glyph-name="Gcaron" unicode="&#x1e6;" horiz-adv-x="1449" 
d="M1298 1057q0 175 -94.5 264.5t-263.5 89.5q-125 0 -234.5 -53t-187 -141.5t-134 -202.5t-83.5 -237.5t-27 -244.5q0 -208 93.5 -330t275.5 -122q139 0 263.5 65t201.5 189q43 68 72.5 143t60.5 199h-432l27 102h548l-194 -778h-113l56 209l-9 2q-93 -127 -214 -179
t-279 -52q-234 0 -360 144.5t-126 399.5q0 204 62.5 386.5t169.5 314.5t257.5 209t319.5 77q220 0 343.5 -113t123.5 -327v-14h-123zM1047 1630h-152l-137 225h110l111 -169l184 169h119z" />
    <glyph glyph-name="gcaron" unicode="&#x1e7;" horiz-adv-x="1173" 
d="M887 57q-40 -162 -99.5 -263.5t-162 -157.5t-252.5 -56q-79 0 -144.5 19t-117.5 57.5t-81.5 104.5t-29.5 153h115q0 -112 67 -174t189 -62q160 0 255 89t142 282l37 156q-78 -91 -159 -129.5t-191 -38.5q-165 0 -260 111t-95 294q0 129 42.5 246.5t115.5 202.5
t174.5 135.5t214.5 50.5q121 0 204 -55.5t120 -155.5l47 191h117zM643 979q-125 0 -221.5 -72.5t-147.5 -192.5t-51 -265q0 -152 71 -233t185 -81q77 0 153 37t139 104t101.5 173t38.5 233q0 297 -268 297zM836 1235h-148l-133 252h107l106 -197l193 197h114z" />
    <glyph glyph-name="uni01E8" unicode="&#x1e8;" horiz-adv-x="1187" 
d="M1090 0h-146l-553 780l-196 -780h-123l370 1487h123l-164 -658l783 658h164l-824 -686zM909 1630h-151l-137 225h110l111 -169l184 169h119z" />
    <glyph glyph-name="uni01E9" unicode="&#x1e9;" horiz-adv-x="962" 
d="M844 0h-137l-402 580l-147 -580h-117l371 1487h116l-215 -862l574 432h166l-619 -471zM563 1630h-139l-123 225h102l97 -169l172 169h112z" />
    <glyph glyph-name="uni01EA" unicode="&#x1ea;" horiz-adv-x="1529" 
d="M965 43q-142 -70 -218.5 -142.5t-76.5 -140.5q0 -42 27 -66t77 -24q35 0 70 13l-23 -93q-36 -8 -78 -8q-84 0 -133 45t-49 113q0 118 158 237q-18 -2 -53 -2q-241 0 -381 155t-140 409q0 204 67 386t179.5 309.5t263.5 202t314 74.5q245 0 383.5 -158.5t138.5 -424.5
q0 -299 -147.5 -534.5t-378.5 -350.5zM274 530q0 -211 110 -332.5t294 -121.5q106 0 209 43t188 122t150 184t101 237t36 272q0 227 -104.5 352t-299.5 125q-127 0 -238.5 -52t-192 -139t-138.5 -200.5t-86.5 -239t-28.5 -250.5z" />
    <glyph glyph-name="uni01EB" unicode="&#x1eb;" horiz-adv-x="1169" 
d="M715 27q-139 -75 -199 -129q-78 -71 -78 -138q0 -41 26.5 -65.5t70.5 -24.5q34 0 69 13l-22 -93q-36 -8 -78 -8q-77 0 -124.5 45.5t-47.5 112.5q0 122 166 235h-25q-181 0 -283 114t-102 302q0 143 47.5 271t128.5 219.5t194 145.5t240 54q186 0 284.5 -111.5
t98.5 -301.5q0 -436 -366 -641zM211 371q0 -137 72 -216t202 -79q132 0 240 78.5t170.5 218t62.5 311.5q0 141 -69.5 219t-198.5 78q-98 0 -185.5 -45t-152.5 -124t-103 -193.5t-38 -247.5z" />
    <glyph glyph-name="uni01F8" unicode="&#x1f8;" horiz-adv-x="1495" 
d="M627 1487l434 -1370h12l344 1370h117l-373 -1487h-196l-422 1366h-13l-342 -1366h-116l370 1487h185zM793 1855h137l141 -225h-100z" />
    <glyph glyph-name="uni01F9" unicode="&#x1f9;" horiz-adv-x="1153" 
d="M369 895q55 86 156.5 134t209.5 48q133 0 219 -70t86 -206q0 -95 -30 -221l-146 -580h-119l140 547q35 134 35 235q0 90 -52 143.5t-153 53.5q-134 0 -249.5 -104t-158.5 -277l-149 -598h-117l262 1057h109zM520 1487h139l152 -252h-102z" />
    <glyph glyph-name="Aringacute" unicode="&#x1fa;" horiz-adv-x="1368" 
d="M1087 0l-61 487h-700l-310 -487h-135l959 1473q-101 50 -101 159q0 77 52 138.5t137 78.5l209 224h149l-252 -224q62 -17 98.5 -63t36.5 -107q0 -72 -42.5 -130t-114.5 -83l200 -1466h-125zM893 1384l-496 -796h615l-111 796h-8zM940 1530q61 0 102 41.5t41 101.5
q0 52 -31 79.5t-81 27.5q-62 0 -104 -42t-42 -100q0 -52 32.5 -80t82.5 -28z" />
    <glyph glyph-name="aringacute" unicode="&#x1fb;" horiz-adv-x="1083" 
d="M696 0q16 118 27 156q-72 -92 -162.5 -134t-212.5 -42q-139 0 -223 78.5t-84 201.5q0 58 17 106.5t45 84.5t72.5 65.5t89 49t107 34.5t114.5 23.5t122 14t119.5 7.5t116.5 4q20 100 20 137q0 91 -58.5 143t-172.5 52t-202 -59t-118 -166h-127q46 162 169.5 243.5
t306.5 81.5q157 0 239 -77t82 -213q0 -54 -16 -129l-101 -404q-37 -147 -47 -258h-123zM819 549q-58 0 -95.5 -0.5t-113 -6t-127 -15.5t-116.5 -31.5t-105 -51t-68 -76.5t-28 -106q0 -83 55 -133.5t152 -50.5q101 0 197 51t155 141q48 75 94 279zM713 1163q-85 0 -138 52
t-53 126q0 73 46.5 131.5t123.5 81.5l226 244h151l-262 -237q66 -13 105.5 -61t39.5 -111q0 -93 -68.5 -159.5t-170.5 -66.5zM723 1239q61 0 102 41.5t41 101.5q0 52 -31 79.5t-81 27.5q-62 0 -104 -41.5t-42 -99.5q0 -52 32.5 -80.5t82.5 -28.5z" />
    <glyph glyph-name="AEacute" unicode="&#x1fc;" horiz-adv-x="1916" 
d="M1026 1487h1012l-27 -103h-809l-51 -563h682l-27 -102h-663l-56 -617h644l-25 -102h-750l48 530h-572l-399 -530h-139zM508 631h506l65 737h-16zM1425 1855h154l-254 -225h-111z" />
    <glyph glyph-name="aeacute" unicode="&#x1fd;" horiz-adv-x="1787" 
d="M623 1081q132 0 215 -64t100 -175q79 125 191.5 182t234.5 57q98 0 175.5 -39t126 -125t48.5 -208q0 -87 -24 -201h-766q-13 -80 -13 -139q0 -142 67.5 -219.5t199.5 -77.5q118 0 197 62.5t136 178.5h121q-142 -340 -465 -340q-79 0 -145.5 23.5t-123 84.5t-79.5 155
q-39 -88 -110.5 -147.5t-151.5 -84t-168 -24.5q-70 0 -130 16t-109 48.5t-77 89t-28 130.5q0 71 27.5 127t67 91.5t105.5 61t118.5 37.5t132.5 18.5t121 7.5t110 1h102q15 77 15 127q0 248 -230 248q-118 0 -200 -61t-117 -177h-121q19 68 55.5 127t91 106.5t132 75
t168.5 27.5zM725 514q-47 0 -73.5 -0.5t-78 -2.5t-83.5 -6t-78.5 -12.5t-76 -21t-63.5 -31.5t-53 -43t-32 -57.5t-13 -73.5q0 -188 227 -188q165 0 269 112t141 324h-86zM1589 602q8 47 8 98q0 137 -65 210t-174 73q-136 0 -246 -97.5t-164 -283.5h641zM1200 1487h156
l-279 -252h-110z" />
    <glyph glyph-name="Oslashacute" unicode="&#x1fe;" horiz-adv-x="1533" 
d="M1415 1268q80 -142 80 -340q0 -195 -68 -372.5t-181 -304t-264 -201.5t-312 -75q-247 0 -389 164l-187 -184l-65 68l196 196q-75 132 -75 320q0 204 67 386t179 309.5t263 202t314 74.5q247 0 387 -165l170 167l65 -63l-180 -180v-2zM279 530q0 -125 38 -221l959 955
q-104 147 -313 147q-127 0 -238.5 -52t-192 -139t-138.5 -200.5t-86.5 -239t-28.5 -250.5zM682 76q106 0 209 43t188 122t150 184t101 237t36 272q0 136 -41 242l-958 -953q111 -147 315 -147zM1143 1855h153l-254 -225h-110z" />
    <glyph glyph-name="oslashacute" unicode="&#x1ff;" horiz-adv-x="1173" 
d="M1024 915q59 -103 59 -247q0 -193 -77.5 -351t-217 -250t-313.5 -92q-150 0 -260 95l-156 -164l-65 65l162 170q-66 109 -66 250q0 143 47.5 271t128.5 219.5t194 145.5t240 54q159 0 263 -94l155 162l64 -66zM213 371q0 -80 25 -144l649 678q-70 76 -195 76
q-98 0 -185.5 -45t-152.5 -124t-103 -193.5t-38 -247.5zM487 76q132 0 240.5 78.5t171 218t62.5 311.5q0 77 -25 141l-645 -678q71 -71 196 -71zM877 1487h155l-278 -252h-111z" />
    <glyph glyph-name="uni0218" unicode="&#x218;" horiz-adv-x="1204" 
d="M1073 1057q4 50 4 71q0 131 -84.5 207t-236.5 76q-157 0 -261 -86.5t-104 -224.5q0 -38 10 -71t24.5 -57t42 -46.5t50.5 -37t62.5 -31.5t65.5 -26t71 -24q5 -2 16 -6q149 -55 211 -96q140 -96 141 -267q0 -134 -70 -240t-192.5 -164.5t-273.5 -58.5q-212 0 -341.5 105
t-129.5 293q0 53 12 112h129q-10 -65 -10 -102q0 -143 83 -225t255 -82q173 0 291 99.5t118 250.5q0 42 -11 76.5t-34 62t-48 47.5t-65 39t-72 31.5t-81 28.5q-42 14 -65.5 22.5t-62 23.5t-61 26.5t-53.5 30.5t-49 37t-39 43t-31.5 52t-18 61.5t-7.5 73.5q0 184 145.5 307
t362.5 123q191 0 315.5 -96t124.5 -268q0 -43 -6 -90h-127zM438 -299h-57l39 156h143l-39 -162l-127 -187h-67z" />
    <glyph glyph-name="uni0219" unicode="&#x219;" horiz-adv-x="993" 
d="M823 719q4 46 4 55q0 209 -245 209q-118 0 -196.5 -56t-78.5 -141q0 -33 13.5 -60t33.5 -45.5t54.5 -36t63 -28t73.5 -24.5q135 -46 185 -75q120 -70 120 -198q0 -151 -122.5 -247.5t-309.5 -96.5q-107 0 -192 30.5t-140 101t-55 172.5q0 38 8 65h123q-8 -24 -8 -57
q0 -213 262 -213q132 0 219.5 62t87.5 159q0 19 -5 36.5t-10.5 30.5t-19.5 26.5t-23 22.5t-31 20t-32.5 16.5t-38.5 16t-38 14t-42 14.5q-137 46 -187 76q-116 69 -116 194q0 141 113 230t297 89q165 0 260.5 -76t95.5 -225q0 -15 -4 -61h-119zM340 -299h-55l39 156h141
l-39 -162l-127 -187h-68z" />
    <glyph glyph-name="uni021A" unicode="&#x21a;" horiz-adv-x="1157" 
d="M236 1384l24 103h1112l-24 -103h-496l-344 -1384h-123l344 1384h-493zM365 -299h-58l39 156h143l-38 -162l-127 -187h-68z" />
    <glyph glyph-name="uni021B" unicode="&#x21b;" horiz-adv-x="600" 
d="M444 958l-174 -694q-12 -46 -12 -78q0 -51 27 -70.5t75 -19.5q27 0 103 13l-31 -109q-52 -10 -92 -10q-54 0 -97.5 13t-75.5 50.5t-32 96.5q0 50 25 141l168 667h-195l25 99h194l58 231h116l-57 -231h217l-22 -99h-220zM209 -299h-55l39 156h141l-39 -162l-127 -187h-68z
" />
    <glyph glyph-name="uni021E" unicode="&#x21e;" horiz-adv-x="1490" 
d="M565 1487l-166 -672h842l166 672h123l-373 -1487h-123l180 715h-839l-180 -715h-123l370 1487h123zM1069 1630h-151l-138 225h111l110 -169l185 169h119z" />
    <glyph glyph-name="uni021F" unicode="&#x21f;" horiz-adv-x="1153" 
d="M385 903q58 87 150.5 130.5t201.5 43.5q133 0 219 -70t86 -206q0 -104 -32 -221l-144 -580h-118l137 547q37 142 37 235q0 90 -52 143.5t-153 53.5q-134 0 -250.5 -104t-159.5 -277l-149 -598h-117l371 1487h116zM563 1630h-139l-123 225h102l97 -169l172 169h112z" />
    <glyph glyph-name="uni022E" unicode="&#x22e;" horiz-adv-x="1529" 
d="M969 1511q245 0 383.5 -158.5t138.5 -424.5q0 -195 -68 -372.5t-181 -304t-264 -201.5t-312 -75q-241 0 -381 155t-140 409q0 204 67 386t179.5 309.5t263.5 202t314 74.5zM958 1411q-127 0 -238.5 -52t-192 -139t-138.5 -200.5t-86.5 -239t-28.5 -250.5
q0 -211 110 -332.5t294 -121.5q106 0 209 43t188 122t150 184t101 237t36 272q0 227 -104.5 352t-299.5 125zM936 1663l43 172h135l-43 -172h-135z" />
    <glyph glyph-name="uni022F" unicode="&#x22f;" horiz-adv-x="1169" 
d="M698 1081q186 0 284.5 -111.5t98.5 -301.5q0 -193 -77.5 -351t-217 -250t-313.5 -92q-181 0 -283 114t-102 302q0 143 47.5 271t128.5 219.5t194 145.5t240 54zM690 981q-98 0 -185.5 -45t-152.5 -124t-103 -193.5t-38 -247.5q0 -137 72 -216t202 -79q132 0 240 78.5
t170.5 218t62.5 311.5q0 141 -69.5 219t-198.5 78zM684 1315l43 172h135l-43 -172h-135z" />
    <glyph glyph-name="uni0232" unicode="&#x232;" horiz-adv-x="1239" 
d="M254 1487h139l277 -737l633 737h153l-745 -854l-160 -633h-123l160 633zM678 1790h506l-25 -96h-506z" />
    <glyph glyph-name="uni0233" unicode="&#x233;" horiz-adv-x="1013" 
d="M461 0q-18 -30 -44.5 -75.5t-44 -75.5t-43.5 -69.5t-48 -65.5t-52.5 -53.5t-61.5 -43.5t-70.5 -26.5t-84.5 -10.5q-64 0 -121 17l29 104q46 -14 94 -14q40 0 73.5 12.5t57 29t50 51t42.5 60.5t46 77.5t49 82.5l-166 1057h127l131 -930l553 930h131zM485 1436h502l-24 -97
h-502z" />
    <glyph glyph-name="uni0237" unicode="&#x237;" horiz-adv-x="460" 
d="M123 -135q-33 -133 -115.5 -209t-202.5 -76q-45 0 -94 12l25 107q31 -8 69 -8q84 0 134.5 58t78.5 169l287 1139h117z" />
    <glyph glyph-name="uni0244" unicode="&#x244;" horiz-adv-x="1437" 
d="M1235 504q-71 -283 -219.5 -406t-388.5 -123q-220 0 -333.5 109t-113.5 299q0 82 31 213l31 121h-140l25 98h139l168 672h123l-166 -672h797l166 672h125l-166 -672h137l-25 -98h-137zM641 76q189 0 305 115.5t176 361.5l41 164h-796l-37 -152q-23 -97 -23 -166
q0 -151 81 -237t253 -86z" />
    <glyph glyph-name="uni0259" unicode="&#x259;" horiz-adv-x="1116" 
d="M168 743q69 165 188 251.5t303 86.5q183 0 278 -98t95 -278q0 -199 -71 -364.5t-205 -265.5t-303 -100q-182 0 -277.5 99.5t-95.5 273.5q0 97 20 203h799q12 94 12 143q0 289 -264 289q-125 0 -221 -66.5t-135 -173.5h-123zM203 453q-6 -47 -6 -88q0 -142 67.5 -216.5
t196.5 -74.5q145 0 252.5 95.5t160.5 283.5h-671z" />
    <glyph glyph-name="uni025B" unicode="&#x25b;" horiz-adv-x="1030" 
d="M416 -23q-162 0 -262.5 67t-100.5 192q0 109 73.5 194t186.5 105v8q-77 30 -113 74.5t-36 115.5q0 104 63 183.5t166.5 121t229.5 41.5q166 0 265 -79t99 -214q0 -29 -2 -45h-119q2 10 2 33q0 95 -74.5 151t-187.5 56q-139 0 -229 -66.5t-90 -169.5q0 -46 20 -79
t54.5 -49.5t71 -23.5t79.5 -7h109l-25 -99h-109q-142 0 -225.5 -61t-83.5 -166q0 -186 264 -186q132 0 223.5 71t122.5 191h119q-38 -162 -169 -260.5t-322 -98.5z" />
    <glyph glyph-name="uni0263" unicode="&#x263;" horiz-adv-x="946" 
d="M244 1057l190 -641l510 641h131l-608 -754l27 -86q5 -16 19 -58.5t19 -59.5t14.5 -51t13.5 -53t7.5 -44t3.5 -45q0 -147 -89.5 -236.5t-225.5 -89.5q-104 0 -163.5 56t-59.5 149q0 39 13 82.5t28 76t47 78.5t49.5 68t57 68.5t48.5 58.5l74 92l-229 748h123zM262 -338
q63 0 110.5 39.5t69 95.5t21.5 115q0 36 -9 73.5t-29.5 95.5t-27.5 79l-12 41l-33 -41q-14 -17 -49 -60.5t-50.5 -64t-41.5 -58.5t-38 -64.5t-22 -61t-10 -66.5q0 -49 34.5 -86t86.5 -37z" />
    <glyph glyph-name="uni0268" unicode="&#x268;" horiz-adv-x="655" 
d="M139 0l133 541h-221l25 94h221l104 422h117l-104 -422h221l-25 -94h-221l-133 -541h-117zM449 1315l43 172h135l-43 -172h-135z" />
    <glyph glyph-name="uni0272" unicode="&#x272;" horiz-adv-x="1155" 
d="M737 1077q133 0 219 -70t86 -206q0 -95 -30 -221l-146 -580h-118l139 547q35 134 35 235q0 90 -52 143.5t-153 53.5q-134 0 -249.5 -104t-158.5 -277l-186 -733q-35 -135 -118 -210t-200 -75q-45 0 -94 12l25 107q31 -8 69 -8q84 0 134.5 58t78.5 169l287 1139h109
l-43 -162q55 86 156.5 134t209.5 48z" />
    <glyph glyph-name="uni0289" unicode="&#x289;" horiz-adv-x="1232" 
d="M1202 541h-168l-135 -541h-111l43 160q-55 -85 -154.5 -132.5t-207.5 -47.5q-133 0 -219 70t-86 206q0 108 31 221l16 64h-176l24 94h174l107 422h117l-107 -422h590l107 422h116l-106 -422h170zM487 78q133 0 250 104.5t160 274.5l21 84h-590l-9 -33q-36 -141 -36 -234
q0 -89 52 -142.5t152 -53.5z" />
    <glyph glyph-name="uni02BC" unicode="&#x2bc;" horiz-adv-x="374" 
d="M391 1343h-67l36 144h154l-41 -164l-141 -219h-80z" />
    <glyph glyph-name="circumflex" unicode="&#x2c6;" horiz-adv-x="1148" 
d="M723 1487h147l134 -252h-107l-104 197l-195 -197h-115z" />
    <glyph glyph-name="caron" unicode="&#x2c7;" horiz-adv-x="1148" 
d="M836 1235h-148l-133 252h107l106 -197l193 197h114z" />
    <glyph glyph-name="uni02C9" unicode="&#x2c9;" horiz-adv-x="1138" 
d="M545 1436h502l-25 -97h-502z" />
    <glyph glyph-name="breve" unicode="&#x2d8;" horiz-adv-x="1064" 
d="M731 1231q-103 0 -162 51t-59 139q0 39 8 66h98q-6 -30 -6 -55q0 -61 34 -92t91 -31q66 0 116.5 44.5t74.5 133.5h100q-26 -122 -104.5 -189t-190.5 -67z" />
    <glyph glyph-name="dotaccent" unicode="&#x2d9;" horiz-adv-x="1165" 
d="M713 1315l43 172h135l-43 -172h-135z" />
    <glyph glyph-name="ring" unicode="&#x2da;" horiz-adv-x="1157" 
d="M764 1163q-85 0 -138 52t-53 126q0 89 69 156.5t173 67.5q85 0 137 -50.5t52 -125.5q0 -92 -69 -159t-171 -67zM774 1239q61 0 102.5 41.5t41.5 101.5q0 52 -31.5 79.5t-81.5 27.5q-62 0 -104 -41.5t-42 -99.5q0 -52 32.5 -80.5t82.5 -28.5z" />
    <glyph glyph-name="ogonek" unicode="&#x2db;" horiz-adv-x="1087" 
d="M379 -418q-77 0 -124.5 45.5t-47.5 112.5q0 164 274 299l74 -39q-242 -118 -242 -240q0 -41 26.5 -65.5t70.5 -24.5q34 0 69 13l-22 -93q-36 -8 -78 -8z" />
    <glyph glyph-name="tilde" unicode="&#x2dc;" horiz-adv-x="1208" 
d="M512 1284q69 191 188 191q32 0 67 -15.5t60.5 -34t55.5 -34t53 -15.5q30 0 53.5 22t46.5 75h84q-31 -97 -81.5 -144t-108.5 -47q-41 0 -84 24t-82 48t-68 24q-59 0 -102 -94h-82z" />
    <glyph glyph-name="hungarumlaut" unicode="&#x2dd;" horiz-adv-x="1222" 
d="M1038 1487h144l-264 -252h-105zM680 1487h139l-258 -252h-102z" />
    <glyph glyph-name="gravecomb" unicode="&#x300;" horiz-adv-x="0" 
d="M-655 1487h139l151 -252h-102z" />
    <glyph glyph-name="acutecomb" unicode="&#x301;" horiz-adv-x="0" 
d="M-481 1487h155l-278 -252h-111z" />
    <glyph glyph-name="uni0302" unicode="&#x302;" horiz-adv-x="0" 
d="M-543 1487h148l133 -252h-107l-104 197l-195 -197h-114z" />
    <glyph glyph-name="tildecomb" unicode="&#x303;" horiz-adv-x="0" 
d="M-821 1284q69 191 188 191q32 0 67 -15.5t60.5 -34t55.5 -34t53 -15.5q30 0 53.5 22t46.5 75h84q-31 -97 -81.5 -144t-108.5 -47q-41 0 -84 24t-82 48t-68 24q-59 0 -102 -94h-82z" />
    <glyph glyph-name="uni0304" unicode="&#x304;" horiz-adv-x="0" 
d="M-748 1436h502l-24 -97h-502z" />
    <glyph glyph-name="uni0306" unicode="&#x306;" horiz-adv-x="0" 
d="M-545 1231q-103 0 -162 51t-59 139q0 39 8 66h99q-7 -35 -7 -55q0 -61 34 -92t91 -31q66 0 116.5 44.5t74.5 133.5h100q-26 -122 -104.5 -189t-190.5 -67z" />
    <glyph glyph-name="uni0307" unicode="&#x307;" horiz-adv-x="0" 
d="M-600 1315l43 172h135l-43 -172h-135z" />
    <glyph glyph-name="uni0308" unicode="&#x308;" horiz-adv-x="0" 
d="M-786 1315l43 172h133l-43 -172h-133zM-412 1315l43 172h133l-43 -172h-133z" />
    <glyph glyph-name="uni030A" unicode="&#x30a;" horiz-adv-x="0" 
d="M-532 1163q-85 0 -138 52t-53 126q0 89 69 156.5t173 67.5q84 0 136 -50.5t52 -125.5q0 -93 -68.5 -159.5t-170.5 -66.5zM-522 1239q61 0 102 41.5t41 101.5q0 52 -31.5 79.5t-81.5 27.5q-62 0 -103.5 -41.5t-41.5 -99.5q0 -52 32.5 -80.5t82.5 -28.5z" />
    <glyph glyph-name="uni030B" unicode="&#x30b;" horiz-adv-x="0" 
d="M-299 1487h143l-264 -252h-104zM-657 1487h139l-258 -252h-103z" />
    <glyph glyph-name="uni030C" unicode="&#x30c;" horiz-adv-x="0" 
d="M-496 1235h-147l-133 252h106l107 -197l192 197h115z" />
    <glyph glyph-name="uni0312" unicode="&#x312;" horiz-adv-x="0" 
d="M-506 1382h55l-38 -155h-142l39 157l129 191h66z" />
    <glyph glyph-name="uni0313" unicode="&#x313;" horiz-adv-x="0" 
d="M-541 1343h-67l37 144h153l-41 -164l-141 -219h-80z" />
    <glyph glyph-name="dotbelowcomb" unicode="&#x323;" horiz-adv-x="0" 
d="M-610 -348l43 172h135l-43 -172h-135z" />
    <glyph glyph-name="uni0326" unicode="&#x326;" horiz-adv-x="0" 
d="M-514 -299h-55l39 156h141l-39 -162l-127 -187h-68z" />
    <glyph glyph-name="uni0327" unicode="&#x327;" horiz-adv-x="0" 
d="M-653 -416q-47 0 -78 8l16 82q22 -10 60 -10q61 0 101 30t40 95q0 48 -40 71t-95 23l37 135h96l-21 -84q57 -8 92 -47.5t35 -99.5q0 -94 -71.5 -148.5t-171.5 -54.5z" />
    <glyph glyph-name="uni0328" unicode="&#x328;" horiz-adv-x="0" 
d="M-739 -418q-77 0 -124.5 45.5t-47.5 112.5q0 164 274 299l74 -39q-242 -118 -242 -240q0 -41 26 -65.5t70 -24.5q35 0 70 13l-23 -93q-36 -8 -77 -8z" />
    <glyph glyph-name="uni032E" unicode="&#x32e;" horiz-adv-x="0" 
d="M-551 -397q-103 0 -162 51t-59 139q0 39 8 66h98q-6 -30 -6 -56q0 -61 34 -91.5t91 -30.5q66 0 116.5 44.5t74.5 133.5h100q-26 -122 -104.5 -189t-190.5 -67z" />
    <glyph glyph-name="uni0331" unicode="&#x331;" horiz-adv-x="0" 
d="M-766 -215h502l-25 -96h-502z" />
    <glyph glyph-name="uni037E" unicode="&#x37e;" horiz-adv-x="446" 
d="M16 14l41 162h160l-43 -176l-149 -276h-82l139 290h-66zM434 1057l-43 -176h-160l43 176h160z" />
    <glyph glyph-name="dieresistonos" unicode="&#x385;" horiz-adv-x="1230" 
d="M487 1253l43 172h134l-43 -172h-134zM946 1253l43 172h133l-43 -172h-133zM961 1507l-160 -272h-99l109 272h150z" />
    <glyph glyph-name="anoteleia" unicode="&#x387;" horiz-adv-x="411" 
d="M414 1057l-45 -176h-160l45 176h160z" />
    <glyph glyph-name="uni0394" unicode="&#x394;" horiz-adv-x="1339" 
d="M836 1487h159l193 -1401l-23 -86h-1257l22 86zM948 948l-59 447h-4q-181 -292 -275 -439l-540 -856h993z" />
    <glyph glyph-name="Sigma" unicode="&#x3a3;" horiz-adv-x="1189" 
d="M-39 117l815 641l-483 645l22 84h1045l-27 -107h-753q-82 0 -129 2l460 -616l-10 -39l-797 -625q64 7 222 7h696l-29 -109h-1061z" />
    <glyph glyph-name="uni03A9" unicode="&#x3a9;" horiz-adv-x="1576" 
d="M926 1407q-118 0 -220 -42t-175 -114t-125 -168t-77.5 -205t-25.5 -223q0 -368 256 -551l-27 -104h-514l27 106h354q-225 222 -225 545q0 129 33 253.5t99 233.5t157 192t215.5 131t265.5 48q263 0 414 -156t151 -423q0 -239 -120 -447.5t-342 -376.5h313l-27 -106h-473
l27 104q215 126 353 352t138 472q0 227 -120 353t-332 126z" />
    <glyph glyph-name="uni03BC" unicode="&#x3bc;" horiz-adv-x="1208" 
d="M807 172q-39 -48 -66.5 -76t-71 -59t-98.5 -45.5t-125 -14.5q-105 0 -168 43t-88 115l-135 -547h-116l364 1469h117l-152 -608q-22 -93 -22 -156q0 -219 227 -219q129 0 236 105t159 308l142 570h118l-200 -813q-13 -50 -13 -82q0 -37 20 -56.5t69 -19.5q48 0 81 10
l-24 -96q-47 -12 -100 -12q-158 0 -158 125q0 41 4 59z" />
    <glyph glyph-name="pi" unicode="&#x3c0;" horiz-adv-x="1228" 
d="M872 262q-14 -58 -14 -90q0 -45 22 -68.5t78 -23.5q45 0 82 12l-22 -92q-49 -14 -103 -14q-93 0 -136.5 35t-43.5 112q0 33 17 113l178 708h-477l-238 -954h-117l238 954h-195l25 103h1124l-24 -103h-219z" />
    <glyph glyph-name="uni1E02" unicode="&#x1e02;" horiz-adv-x="1286" 
d="M834 1487q203 0 303 -62q70 -40 110.5 -115t40.5 -155q0 -151 -107 -256t-268 -131l-2 -8q109 -29 174.5 -105.5t65.5 -171.5q0 -173 -82.5 -283.5t-230.5 -162.5q-108 -37 -328 -37h-438l368 1487h394zM692 815q216 0 342.5 90.5t126.5 245.5q0 123 -84.5 178t-269.5 55
h-268l-140 -569h293zM539 102q202 0 299 52q85 44 134.5 122t49.5 189q0 130 -81.5 190t-260.5 60h-309l-150 -613h318zM795 1663l43 172h135l-43 -172h-135z" />
    <glyph glyph-name="uni1E03" unicode="&#x1e03;" horiz-adv-x="1179" 
d="M387 918q150 159 348 159q92 0 162.5 -36t111.5 -98t61 -136.5t20 -159.5q0 -131 -43.5 -253t-117.5 -213.5t-179 -146t-222 -54.5q-247 0 -319 213l-49 -193h-119l371 1487h116zM270 391q0 -65 13 -119t41 -98.5t78.5 -70t119.5 -25.5q123 0 225.5 79.5t160 212
t57.5 285.5q0 65 -13 120.5t-40.5 102.5t-77 74t-117.5 27q-123 0 -226.5 -80t-162 -215t-58.5 -293zM758 1315l43 172h135l-43 -172h-135z" />
    <glyph glyph-name="uni1E0A" unicode="&#x1e0a;" horiz-adv-x="1474" 
d="M805 1487q259 0 387 -80q115 -67 177.5 -200.5t62.5 -307.5q0 -255 -114.5 -459t-303.5 -325q-176 -115 -594 -115h-348l368 1487h365zM547 102q271 0 434 123q143 107 232.5 288t89.5 392q0 368 -263 453q-71 26 -229 26h-272l-318 -1282h326zM893 1663l43 172h135
l-43 -172h-135z" />
    <glyph glyph-name="uni1E0B" unicode="&#x1e0b;" horiz-adv-x="1177" 
d="M793 139q-147 -159 -349 -159q-93 0 -163 34.5t-110 95.5t-59.5 136t-19.5 164q0 175 71 327t202 246t292 94q117 0 197 -47.5t119 -159.5l157 617h117l-373 -1487h-116zM463 78q124 0 226.5 80.5t161 222.5t58.5 315q0 133 -64.5 208t-187.5 75q-190 0 -316 -163.5
t-126 -414.5q0 -65 13 -120t40.5 -102t77 -74t117.5 -27zM680 1315l43 172h135l-43 -172h-135z" />
    <glyph glyph-name="uni1E0C" unicode="&#x1e0c;" horiz-adv-x="1474" 
d="M805 1487q259 0 387 -80q115 -67 177.5 -200.5t62.5 -307.5q0 -255 -114.5 -459t-303.5 -325q-176 -115 -594 -115h-348l368 1487h365zM547 102q271 0 434 123q143 107 232.5 288t89.5 392q0 368 -263 453q-71 26 -229 26h-272l-318 -1282h326zM385 -348l43 172h135
l-43 -172h-135z" />
    <glyph glyph-name="uni1E0D" unicode="&#x1e0d;" horiz-adv-x="1177" 
d="M793 139q-147 -159 -349 -159q-93 0 -163 34.5t-110 95.5t-59.5 136t-19.5 164q0 175 71 327t202 246t292 94q117 0 197 -47.5t119 -159.5l157 617h117l-373 -1487h-116zM463 78q124 0 226.5 80.5t161 222.5t58.5 315q0 133 -64.5 208t-187.5 75q-190 0 -316 -163.5
t-126 -414.5q0 -65 13 -120t40.5 -102t77 -74t117.5 -27zM326 -348l43 172h135l-43 -172h-135z" />
    <glyph glyph-name="uni1E0E" unicode="&#x1e0e;" horiz-adv-x="1474" 
d="M805 1487q259 0 387 -80q115 -67 177.5 -200.5t62.5 -307.5q0 -255 -114.5 -459t-303.5 -325q-176 -115 -594 -115h-348l368 1487h365zM547 102q271 0 434 123q143 107 232.5 288t89.5 392q0 368 -263 453q-71 26 -229 26h-272l-318 -1282h326zM236 -215h505l-24 -96
h-506z" />
    <glyph glyph-name="uni1E0F" unicode="&#x1e0f;" horiz-adv-x="1177" 
d="M793 139q-147 -159 -349 -159q-93 0 -163 34.5t-110 95.5t-59.5 136t-19.5 164q0 175 71 327t202 246t292 94q117 0 197 -47.5t119 -159.5l157 617h117l-373 -1487h-116zM463 78q124 0 226.5 80.5t161 222.5t58.5 315q0 133 -64.5 208t-187.5 75q-190 0 -316 -163.5
t-126 -414.5q0 -65 13 -120t40.5 -102t77 -74t117.5 -27zM174 -215h502l-25 -96h-501z" />
    <glyph glyph-name="uni1E10" unicode="&#x1e10;" horiz-adv-x="1474" 
d="M805 1487q259 0 387 -80q115 -67 177.5 -200.5t62.5 -307.5q0 -255 -114.5 -459t-303.5 -325q-176 -115 -594 -115h-348l368 1487h365zM547 102q271 0 434 123q143 107 232.5 288t89.5 392q0 368 -263 453q-71 26 -229 26h-272l-318 -1282h326zM451 -299h-58l39 156h143
l-38 -162l-127 -187h-68z" />
    <glyph glyph-name="uni1E11" unicode="&#x1e11;" horiz-adv-x="1177" 
d="M793 139q-147 -159 -349 -159q-93 0 -163 34.5t-110 95.5t-59.5 136t-19.5 164q0 175 71 327t202 246t292 94q117 0 197 -47.5t119 -159.5l157 617h117l-373 -1487h-116zM463 78q124 0 226.5 80.5t161 222.5t58.5 315q0 133 -64.5 208t-187.5 75q-190 0 -316 -163.5
t-126 -414.5q0 -65 13 -120t40.5 -102t77 -74t117.5 -27zM385 -299h-55l39 156h141l-39 -162l-127 -187h-68z" />
    <glyph glyph-name="uni1E1E" unicode="&#x1e1e;" horiz-adv-x="1148" 
d="M1315 1487l-25 -103h-751l-148 -585h715l-25 -103h-712l-174 -696h-123l368 1487h875zM850 1663l43 172h135l-43 -172h-135z" />
    <glyph glyph-name="uni1E1F" unicode="&#x1e1f;" horiz-adv-x="585" 
d="M449 958l-240 -958h-117l242 958h-193l25 99h190l39 143q41 150 104.5 220.5t182.5 70.5q60 0 115 -14l-27 -99q-60 17 -86 17q-39 0 -67.5 -13.5t-48 -41.5t-32.5 -60t-26 -80l-37 -143h215l-22 -99h-217zM616 1663l43 172h136l-43 -172h-136z" />
    <glyph glyph-name="uni1E20" unicode="&#x1e20;" horiz-adv-x="1449" 
d="M1298 1057q0 175 -94.5 264.5t-263.5 89.5q-125 0 -234.5 -53t-187 -141.5t-134 -202.5t-83.5 -237.5t-27 -244.5q0 -208 93.5 -330t275.5 -122q139 0 263.5 65t201.5 189q43 68 72.5 143t60.5 199h-432l27 102h548l-194 -778h-113l56 209l-9 2q-93 -127 -214 -179
t-279 -52q-234 0 -360 144.5t-126 399.5q0 204 62.5 386.5t169.5 314.5t257.5 209t319.5 77q220 0 343.5 -113t123.5 -327v-14h-123zM772 1790h506l-25 -96h-505z" />
    <glyph glyph-name="uni1E21" unicode="&#x1e21;" horiz-adv-x="1173" 
d="M887 57q-40 -162 -99.5 -263.5t-162 -157.5t-252.5 -56q-79 0 -144.5 19t-117.5 57.5t-81.5 104.5t-29.5 153h115q0 -112 67 -174t189 -62q160 0 255 89t142 282l37 156q-78 -91 -159 -129.5t-191 -38.5q-165 0 -260 111t-95 294q0 129 42.5 246.5t115.5 202.5
t174.5 135.5t214.5 50.5q121 0 204 -55.5t120 -155.5l47 191h117zM643 979q-125 0 -221.5 -72.5t-147.5 -192.5t-51 -265q0 -152 71 -233t185 -81q77 0 153 37t139 104t101.5 173t38.5 233q0 297 -268 297zM551 1436h502l-25 -97h-502z" />
    <glyph glyph-name="uni1E22" unicode="&#x1e22;" horiz-adv-x="1490" 
d="M565 1487l-166 -672h842l166 672h123l-373 -1487h-123l180 715h-839l-180 -715h-123l370 1487h123zM946 1663l43 172h135l-43 -172h-135z" />
    <glyph glyph-name="uni1E23" unicode="&#x1e23;" horiz-adv-x="1153" 
d="M385 903q58 87 150.5 130.5t201.5 43.5q133 0 219 -70t86 -206q0 -104 -32 -221l-144 -580h-118l137 547q37 142 37 235q0 90 -52 143.5t-153 53.5q-134 0 -250.5 -104t-159.5 -277l-149 -598h-117l371 1487h116zM743 1315l43 172h136l-43 -172h-136z" />
    <glyph glyph-name="uni1E24" unicode="&#x1e24;" horiz-adv-x="1490" 
d="M565 1487l-166 -672h842l166 672h123l-373 -1487h-123l180 715h-839l-180 -715h-123l370 1487h123zM487 -348l43 172h136l-43 -172h-136z" />
    <glyph glyph-name="uni1E25" unicode="&#x1e25;" horiz-adv-x="1153" 
d="M385 903q58 87 150.5 130.5t201.5 43.5q133 0 219 -70t86 -206q0 -104 -32 -221l-144 -580h-118l137 547q37 142 37 235q0 90 -52 143.5t-153 53.5q-134 0 -250.5 -104t-159.5 -277l-149 -598h-117l371 1487h116zM334 -348l43 172h135l-43 -172h-135z" />
    <glyph glyph-name="uni1E2A" unicode="&#x1e2a;" horiz-adv-x="1490" 
d="M565 1487l-166 -672h842l166 672h123l-373 -1487h-123l180 715h-839l-180 -715h-123l370 1487h123zM545 -387q-103 0 -163 51t-60 139q0 39 8 66h100q-6 -30 -6 -55q0 -59 34.5 -90t90.5 -31q66 0 116 43.5t74 132.5h103q-26 -122 -105 -189t-192 -67z" />
    <glyph glyph-name="uni1E2B" unicode="&#x1e2b;" horiz-adv-x="1153" 
d="M385 903q58 87 150.5 130.5t201.5 43.5q133 0 219 -70t86 -206q0 -104 -32 -221l-144 -580h-118l137 547q37 142 37 235q0 90 -52 143.5t-153 53.5q-134 0 -250.5 -104t-159.5 -277l-149 -598h-117l371 1487h116zM383 -397q-103 0 -162 51t-59 139q0 39 8 66h98
q-6 -30 -6 -56q0 -61 34 -91.5t91 -30.5q66 0 116.5 44.5t74.5 133.5h100q-26 -122 -104.5 -189t-190.5 -67z" />
    <glyph glyph-name="uni1E36" unicode="&#x1e36;" horiz-adv-x="1120" 
d="M565 1487l-346 -1385h776l-24 -102h-899l370 1487h123zM408 -348l43 172h135l-43 -172h-135z" />
    <glyph glyph-name="uni1E37" unicode="&#x1e37;" horiz-adv-x="460" 
d="M410 1487h116l-368 -1487h-117zM-43 -348l43 172h135l-43 -172h-135z" />
    <glyph glyph-name="uni1E38" unicode="&#x1e38;" horiz-adv-x="1120" 
d="M565 1487l-346 -1385h776l-24 -102h-899l370 1487h123zM408 -348l43 172h135l-43 -172h-135zM326 1790h505l-24 -96h-506z" />
    <glyph glyph-name="uni1E39" unicode="&#x1e39;" horiz-adv-x="460" 
d="M303 1790h438l-24 -96h-438zM410 1487h116l-368 -1487h-117zM-43 -348l43 172h135l-43 -172h-135z" />
    <glyph glyph-name="uni1E3A" unicode="&#x1e3a;" horiz-adv-x="1120" 
d="M565 1487l-346 -1385h776l-24 -102h-899l370 1487h123zM258 -215h506l-25 -96h-506z" />
    <glyph glyph-name="uni1E3B" unicode="&#x1e3b;" horiz-adv-x="460" 
d="M410 1487h116l-368 -1487h-117zM-174 -215h438l-24 -96h-439z" />
    <glyph glyph-name="uni1E3E" unicode="&#x1e3e;" horiz-adv-x="1859" 
d="M643 1487l135 -961q38 -277 43 -385h8q34 61 73 123.5t92 142.5t81 125l621 955h202l-372 -1487h-123l346 1366h-4l-881 -1366h-133l-192 1366h-9l-342 -1366h-116l370 1487h201zM1354 1855h153l-254 -225h-110z" />
    <glyph glyph-name="uni1E3F" unicode="&#x1e3f;" horiz-adv-x="1736" 
d="M379 905q62 81 153.5 126.5t184.5 45.5q104 0 176.5 -55.5t85.5 -163.5q73 105 171 162t210 57q278 0 278 -256q0 -64 -20 -137l-170 -684h-117l133 530q56 221 56 283q0 166 -177 166q-141 0 -245 -111.5t-158 -320.5l-137 -547h-117l152 616q28 118 28 191
q0 80 -46.5 126t-127.5 46q-79 0 -146 -36.5t-115 -100t-81 -136.5t-55 -159l-137 -547h-117l264 1057h115zM1208 1487h156l-279 -252h-110z" />
    <glyph glyph-name="uni1E40" unicode="&#x1e40;" horiz-adv-x="1859" 
d="M643 1487l135 -961q38 -277 43 -385h8q34 61 73 123.5t92 142.5t81 125l621 955h202l-372 -1487h-123l346 1366h-4l-881 -1366h-133l-192 1366h-9l-342 -1366h-116l370 1487h201zM1143 1663l43 172h135l-43 -172h-135z" />
    <glyph glyph-name="uni1E41" unicode="&#x1e41;" horiz-adv-x="1736" 
d="M379 905q62 81 153.5 126.5t184.5 45.5q104 0 176.5 -55.5t85.5 -163.5q73 105 171 162t210 57q278 0 278 -256q0 -64 -20 -137l-170 -684h-117l133 530q56 221 56 283q0 166 -177 166q-141 0 -245 -111.5t-158 -320.5l-137 -547h-117l152 616q28 118 28 191
q0 80 -46.5 126t-127.5 46q-79 0 -146 -36.5t-115 -100t-81 -136.5t-55 -159l-137 -547h-117l264 1057h115zM995 1315l43 172h136l-44 -172h-135z" />
    <glyph glyph-name="uni1E42" unicode="&#x1e42;" horiz-adv-x="1859" 
d="M643 1487l135 -961q38 -277 43 -385h8q34 61 73 123.5t92 142.5t81 125l621 955h202l-372 -1487h-123l346 1366h-4l-881 -1366h-133l-192 1366h-9l-342 -1366h-116l370 1487h201zM645 -348l43 172h135l-43 -172h-135z" />
    <glyph glyph-name="uni1E43" unicode="&#x1e43;" horiz-adv-x="1736" 
d="M379 905q62 81 153.5 126.5t184.5 45.5q104 0 176.5 -55.5t85.5 -163.5q73 105 171 162t210 57q278 0 278 -256q0 -64 -20 -137l-170 -684h-117l133 530q56 221 56 283q0 166 -177 166q-141 0 -245 -111.5t-158 -320.5l-137 -547h-117l152 616q28 118 28 191
q0 80 -46.5 126t-127.5 46q-79 0 -146 -36.5t-115 -100t-81 -136.5t-55 -159l-137 -547h-117l264 1057h115zM604 -348l43 172h135l-43 -172h-135z" />
    <glyph glyph-name="uni1E44" unicode="&#x1e44;" horiz-adv-x="1495" 
d="M627 1487l434 -1370h12l344 1370h117l-373 -1487h-196l-422 1366h-13l-342 -1366h-116l370 1487h185zM952 1663l43 172h135l-43 -172h-135z" />
    <glyph glyph-name="uni1E45" unicode="&#x1e45;" horiz-adv-x="1153" 
d="M369 895q55 86 156.5 134t209.5 48q133 0 219 -70t86 -206q0 -95 -30 -221l-146 -580h-119l140 547q35 134 35 235q0 90 -52 143.5t-153 53.5q-134 0 -249.5 -104t-158.5 -277l-149 -598h-117l262 1057h109zM707 1315l43 172h135l-43 -172h-135z" />
    <glyph glyph-name="uni1E46" unicode="&#x1e46;" horiz-adv-x="1495" 
d="M627 1487l434 -1370h12l344 1370h117l-373 -1487h-196l-422 1366h-13l-342 -1366h-116l370 1487h185zM471 -348l43 172h135l-43 -172h-135z" />
    <glyph glyph-name="uni1E47" unicode="&#x1e47;" horiz-adv-x="1153" 
d="M369 895q55 86 156.5 134t209.5 48q133 0 219 -70t86 -206q0 -95 -30 -221l-146 -580h-119l140 547q35 134 35 235q0 90 -52 143.5t-153 53.5q-134 0 -249.5 -104t-158.5 -277l-149 -598h-117l262 1057h109zM315 -348l43 172h136l-43 -172h-136z" />
    <glyph glyph-name="uni1E48" unicode="&#x1e48;" horiz-adv-x="1495" 
d="M627 1487l434 -1370h12l344 1370h117l-373 -1487h-196l-422 1366h-13l-342 -1366h-116l370 1487h185zM322 -215h505l-24 -96h-506z" />
    <glyph glyph-name="uni1E49" unicode="&#x1e49;" horiz-adv-x="1153" 
d="M369 895q55 86 156.5 134t209.5 48q133 0 219 -70t86 -206q0 -95 -30 -221l-146 -580h-119l140 547q35 134 35 235q0 90 -52 143.5t-153 53.5q-134 0 -249.5 -104t-158.5 -277l-149 -598h-117l262 1057h109zM164 -215h502l-25 -96h-502z" />
    <glyph glyph-name="uni1E56" unicode="&#x1e56;" horiz-adv-x="1239" 
d="M440 1487h404q130 0 209 -21.5t141 -70.5q117 -100 117 -258q0 -105 -42.5 -203t-117.5 -164q-73 -66 -166 -94.5t-233 -28.5h-396l-161 -647h-123zM688 750q138 0 206.5 11.5t123.5 47.5q77 47 122.5 131.5t45.5 179.5q0 264 -342 264h-305l-154 -634h303zM840 1663
l43 172h135l-43 -172h-135z" />
    <glyph glyph-name="uni1E57" unicode="&#x1e57;" horiz-adv-x="1179" 
d="M385 918q150 159 348 159q92 0 163 -36t112 -98t61.5 -136.5t20.5 -159.5q0 -177 -73 -330.5t-201 -245t-279 -91.5q-260 0 -332 206l-150 -596h-116l366 1467h115zM715 979q-124 0 -226.5 -80.5t-160.5 -217.5t-58 -300q0 -141 64 -222t188 -81q122 0 224 77.5
t160.5 210.5t58.5 289q0 65 -13 120.5t-40.5 102.5t-78 74t-118.5 27zM707 1315l43 172h135l-43 -172h-135z" />
    <glyph glyph-name="uni1E5A" unicode="&#x1e5a;" horiz-adv-x="1284" 
d="M829 1487q441 0 441 -338q0 -186 -118 -297t-310 -137v-8q38 -12 67.5 -30.5t50 -37.5t35.5 -49.5t23.5 -54t15.5 -65.5t10 -69t7 -79l32 -322h-122l-37 319q-5 40 -8.5 63.5t-9.5 57t-12.5 53t-16 45.5t-22 41t-29.5 32.5t-39 27.5t-49 19t-60.5 12.5t-73.5 3.5h-237
l-172 -674h-123l370 1487h387zM668 778q227 0 352 95.5t125 267.5q0 124 -80.5 181.5t-253.5 57.5h-270l-148 -602h275zM426 -348l43 172h135l-43 -172h-135z" />
    <glyph glyph-name="uni1E5B" unicode="&#x1e5b;" horiz-adv-x="708" 
d="M788 958q-57 11 -88 11q-78 0 -145.5 -32.5t-117.5 -90.5t-85.5 -131t-56.5 -160l-137 -555h-117l262 1057h115l-33 -137q132 147 324 147q54 0 106 -8zM-43 -348l43 172h135l-43 -172h-135z" />
    <glyph glyph-name="uni1E5C" unicode="&#x1e5c;" horiz-adv-x="1284" 
d="M829 1487q441 0 441 -338q0 -186 -118 -297t-310 -137v-8q38 -12 67.5 -30.5t50 -37.5t35.5 -49.5t23.5 -54t15.5 -65.5t10 -69t7 -79l32 -322h-122l-37 319q-5 40 -8.5 63.5t-9.5 57t-12.5 53t-16 45.5t-22 41t-29.5 32.5t-39 27.5t-49 19t-60.5 12.5t-73.5 3.5h-237
l-172 -674h-123l370 1487h387zM668 778q227 0 352 95.5t125 267.5q0 124 -80.5 181.5t-253.5 57.5h-270l-148 -602h275zM426 -348l43 172h135l-43 -172h-135zM657 1790h506l-24 -96h-506z" />
    <glyph glyph-name="uni1E5D" unicode="&#x1e5d;" horiz-adv-x="708" 
d="M788 958q-57 11 -88 11q-78 0 -145.5 -32.5t-117.5 -90.5t-85.5 -131t-56.5 -160l-137 -555h-117l262 1057h115l-33 -137q132 147 324 147q54 0 106 -8zM-43 -348l43 172h135l-43 -172h-135zM365 1436h501l-24 -97h-502z" />
    <glyph glyph-name="uni1E5E" unicode="&#x1e5e;" horiz-adv-x="1284" 
d="M829 1487q441 0 441 -338q0 -186 -118 -297t-310 -137v-8q38 -12 67.5 -30.5t50 -37.5t35.5 -49.5t23.5 -54t15.5 -65.5t10 -69t7 -79l32 -322h-122l-37 319q-5 40 -8.5 63.5t-9.5 57t-12.5 53t-16 45.5t-22 41t-29.5 32.5t-39 27.5t-49 19t-60.5 12.5t-73.5 3.5h-237
l-172 -674h-123l370 1487h387zM668 778q227 0 352 95.5t125 267.5q0 124 -80.5 181.5t-253.5 57.5h-270l-148 -602h275zM276 -215h506l-24 -96h-506z" />
    <glyph glyph-name="uni1E5F" unicode="&#x1e5f;" horiz-adv-x="708" 
d="M788 958q-57 11 -88 11q-78 0 -145.5 -32.5t-117.5 -90.5t-85.5 -131t-56.5 -160l-137 -555h-117l262 1057h115l-33 -137q132 147 324 147q54 0 106 -8zM-174 -215h438l-24 -96h-439z" />
    <glyph glyph-name="uni1E60" unicode="&#x1e60;" horiz-adv-x="1204" 
d="M1073 1057q4 50 4 71q0 131 -84.5 207t-236.5 76q-157 0 -261 -86.5t-104 -224.5q0 -38 10 -71t24.5 -57t42 -46.5t50.5 -37t62.5 -31.5t65.5 -26t71 -24q5 -2 16 -6q149 -55 211 -96q140 -96 141 -267q0 -134 -70 -240t-192.5 -164.5t-273.5 -58.5q-212 0 -341.5 105
t-129.5 293q0 53 12 112h129q-10 -65 -10 -102q0 -143 83 -225t255 -82q173 0 291 99.5t118 250.5q0 42 -11 76.5t-34 62t-48 47.5t-65 39t-72 31.5t-81 28.5q-42 14 -65.5 22.5t-62 23.5t-61 26.5t-53.5 30.5t-49 37t-39 43t-31.5 52t-18 61.5t-7.5 73.5q0 184 145.5 307
t362.5 123q191 0 315.5 -96t124.5 -268q0 -43 -6 -90h-127zM735 1663l43 172h135l-43 -172h-135z" />
    <glyph glyph-name="uni1E61" unicode="&#x1e61;" horiz-adv-x="993" 
d="M823 719q4 46 4 55q0 209 -245 209q-118 0 -196.5 -56t-78.5 -141q0 -33 13.5 -60t33.5 -45.5t54.5 -36t63 -28t73.5 -24.5q135 -46 185 -75q120 -70 120 -198q0 -151 -122.5 -247.5t-309.5 -96.5q-107 0 -192 30.5t-140 101t-55 172.5q0 38 8 65h123q-8 -24 -8 -57
q0 -213 262 -213q132 0 219.5 62t87.5 159q0 19 -5 36.5t-10.5 30.5t-19.5 26.5t-23 22.5t-31 20t-32.5 16.5t-38.5 16t-38 14t-42 14.5q-137 46 -187 76q-116 69 -116 194q0 141 113 230t297 89q165 0 260.5 -76t95.5 -225q0 -15 -4 -61h-119zM582 1315l43 172h135
l-43 -172h-135z" />
    <glyph glyph-name="uni1E62" unicode="&#x1e62;" horiz-adv-x="1204" 
d="M1073 1057q4 50 4 71q0 131 -84.5 207t-236.5 76q-157 0 -261 -86.5t-104 -224.5q0 -38 10 -71t24.5 -57t42 -46.5t50.5 -37t62.5 -31.5t65.5 -26t71 -24q5 -2 16 -6q149 -55 211 -96q140 -96 141 -267q0 -134 -70 -240t-192.5 -164.5t-273.5 -58.5q-212 0 -341.5 105
t-129.5 293q0 53 12 112h129q-10 -65 -10 -102q0 -143 83 -225t255 -82q173 0 291 99.5t118 250.5q0 42 -11 76.5t-34 62t-48 47.5t-65 39t-72 31.5t-81 28.5q-42 14 -65.5 22.5t-62 23.5t-61 26.5t-53.5 30.5t-49 37t-39 43t-31.5 52t-18 61.5t-7.5 73.5q0 184 145.5 307
t362.5 123q191 0 315.5 -96t124.5 -268q0 -43 -6 -90h-127zM389 -348l43 172h135l-43 -172h-135z" />
    <glyph glyph-name="uni1E63" unicode="&#x1e63;" horiz-adv-x="993" 
d="M823 719q4 46 4 55q0 209 -245 209q-118 0 -196.5 -56t-78.5 -141q0 -33 13.5 -60t33.5 -45.5t54.5 -36t63 -28t73.5 -24.5q135 -46 185 -75q120 -70 120 -198q0 -151 -122.5 -247.5t-309.5 -96.5q-107 0 -192 30.5t-140 101t-55 172.5q0 38 8 65h123q-8 -24 -8 -57
q0 -213 262 -213q132 0 219.5 62t87.5 159q0 19 -5 36.5t-10.5 30.5t-19.5 26.5t-23 22.5t-31 20t-32.5 16.5t-38.5 16t-38 14t-42 14.5q-137 46 -187 76q-116 69 -116 194q0 141 113 230t297 89q165 0 260.5 -76t95.5 -225q0 -15 -4 -61h-119zM279 -348l43 172h135
l-43 -172h-135z" />
    <glyph glyph-name="uni1E6A" unicode="&#x1e6a;" horiz-adv-x="1157" 
d="M236 1384l24 103h1112l-24 -103h-496l-344 -1384h-123l344 1384h-493zM788 1663l43 172h136l-43 -172h-136z" />
    <glyph glyph-name="uni1E6B" unicode="&#x1e6b;" horiz-adv-x="600" 
d="M444 958l-174 -694q-12 -46 -12 -78q0 -51 27 -70.5t75 -19.5q27 0 103 13l-31 -109q-52 -10 -92 -10q-54 0 -97.5 13t-75.5 50.5t-32 96.5q0 50 25 141l168 667h-195l25 99h194l58 231h116l-57 -231h217l-22 -99h-220zM449 1473l43 172h135l-43 -172h-135z" />
    <glyph glyph-name="uni1E6C" unicode="&#x1e6c;" horiz-adv-x="1157" 
d="M236 1384l24 103h1112l-24 -103h-496l-344 -1384h-123l344 1384h-493zM299 -348l43 172h135l-43 -172h-135z" />
    <glyph glyph-name="uni1E6D" unicode="&#x1e6d;" horiz-adv-x="600" 
d="M444 958l-174 -694q-12 -46 -12 -78q0 -51 27 -70.5t75 -19.5q27 0 103 13l-31 -109q-52 -10 -92 -10q-54 0 -97.5 13t-75.5 50.5t-32 96.5q0 50 25 141l168 667h-195l25 99h194l58 231h116l-57 -231h217l-22 -99h-220zM106 -348l44 172h135l-43 -172h-136z" />
    <glyph glyph-name="uni1E6E" unicode="&#x1e6e;" horiz-adv-x="1157" 
d="M236 1384l24 103h1112l-24 -103h-496l-344 -1384h-123l344 1384h-493zM150 -215h505l-24 -96h-506z" />
    <glyph glyph-name="uni1E6F" unicode="&#x1e6f;" horiz-adv-x="600" 
d="M444 958l-174 -694q-12 -46 -12 -78q0 -51 27 -70.5t75 -19.5q27 0 103 13l-31 -109q-52 -10 -92 -10q-54 0 -97.5 13t-75.5 50.5t-32 96.5q0 50 25 141l168 667h-195l25 99h194l58 231h116l-57 -231h217l-22 -99h-220zM-16 -215h438l-25 -96h-438z" />
    <glyph glyph-name="uni1E7C" unicode="&#x1e7c;" horiz-adv-x="1286" 
d="M424 0l-156 1487h127l137 -1376h7l833 1376h135l-915 -1487h-168zM645 1653q31 99 82 146.5t109 47.5q43 0 86.5 -25t80.5 -50t62 -25q66 0 102 98h78q-29 -98 -79 -145t-109 -47q-40 0 -83.5 25.5t-82 51t-66.5 25.5q-59 0 -102 -102h-78z" />
    <glyph glyph-name="uni1E7D" unicode="&#x1e7d;" horiz-adv-x="1009" 
d="M307 0l-139 1057h125l106 -948l580 948h127l-664 -1057h-135zM403 1284q34 96 83 143.5t106 47.5q32 0 66.5 -15.5t60 -34t55.5 -34t53 -15.5q30 0 54 22.5t47 74.5h84q-31 -97 -82 -144t-109 -47q-41 0 -84 24t-81.5 48t-67.5 24q-60 0 -103 -94h-82z" />
    <glyph glyph-name="Wgrave" unicode="&#x1e80;" horiz-adv-x="1886" 
d="M408 1487l-7 -959q0 -69 -2 -211t-2 -208h13l671 1378h203l-12 -957q-2 -137 -2 -421h10l676 1378h125l-733 -1487h-195l4 930q0 174 12 456h-14l-672 -1386h-198l-6 1487h129zM999 1855h138l141 -225h-100z" />
    <glyph glyph-name="wgrave" unicode="&#x1e81;" horiz-adv-x="1611" 
d="M961 0l-35 965l-535 -965h-170l-43 1057h121l29 -961l528 961h172l39 -951l516 951h123l-584 -1057h-161zM743 1487h140l151 -252h-102z" />
    <glyph glyph-name="Wacute" unicode="&#x1e82;" horiz-adv-x="1886" 
d="M408 1487l-7 -959q0 -69 -2 -211t-2 -208h13l671 1378h203l-12 -957q-2 -137 -2 -421h10l676 1378h125l-733 -1487h-195l4 930q0 174 12 456h-14l-672 -1386h-198l-6 1487h129zM1341 1855h154l-254 -225h-111z" />
    <glyph glyph-name="wacute" unicode="&#x1e83;" horiz-adv-x="1611" 
d="M961 0l-35 965l-535 -965h-170l-43 1057h121l29 -961l528 961h172l39 -951l516 951h123l-584 -1057h-161zM1114 1487h156l-279 -252h-110z" />
    <glyph glyph-name="Wdieresis" unicode="&#x1e84;" horiz-adv-x="1886" 
d="M408 1487l-7 -959q0 -69 -2 -211t-2 -208h13l671 1378h203l-12 -957q-2 -137 -2 -421h10l676 1378h125l-733 -1487h-195l4 930q0 174 12 456h-14l-672 -1386h-198l-6 1487h129zM963 1661l43 174h133l-43 -174h-133zM1346 1661l43 174h133l-43 -174h-133z" />
    <glyph glyph-name="wdieresis" unicode="&#x1e85;" horiz-adv-x="1611" 
d="M961 0l-35 965l-535 -965h-170l-43 1057h121l29 -961l528 961h172l39 -951l516 951h123l-584 -1057h-161zM741 1315l43 172h134l-44 -172h-133zM1116 1315l43 172h133l-43 -172h-133z" />
    <glyph glyph-name="uni1E8A" unicode="&#x1e8a;" horiz-adv-x="1234" 
d="M281 1487h147l270 -625l562 625h153l-651 -721l344 -766h-150l-292 672l-629 -672h-152l723 766zM821 1663l43 172h135l-43 -172h-135z" />
    <glyph glyph-name="uni1E8B" unicode="&#x1e8b;" horiz-adv-x="995" 
d="M858 0h-133l-236 473l-448 -473h-150l539 563l-248 494h133l203 -420l400 420h149l-494 -504zM602 1315l43 172h135l-43 -172h-135z" />
    <glyph glyph-name="uni1E92" unicode="&#x1e92;" horiz-adv-x="1169" 
d="M1155 1384h-862l26 103h1008l-27 -107l-1191 -1278h911l-27 -102h-1059l25 106zM315 -348l43 172h136l-43 -172h-136z" />
    <glyph glyph-name="uni1E93" unicode="&#x1e93;" horiz-adv-x="956" 
d="M113 98h673l-24 -98h-825l24 96l879 862h-652l23 99h803l-29 -101zM209 -348l43 172h135l-43 -172h-135z" />
    <glyph glyph-name="uni1E97" unicode="&#x1e97;" horiz-adv-x="600" 
d="M444 958l-174 -694q-12 -46 -12 -78q0 -51 27 -70.5t75 -19.5q27 0 103 13l-31 -109q-52 -10 -92 -10q-54 0 -97.5 13t-75.5 50.5t-32 96.5q0 50 25 141l168 667h-195l25 99h194l58 231h116l-57 -231h217l-22 -99h-220zM299 1473l43 172h133l-43 -172h-133zM586 1473
l43 172h133l-43 -172h-133z" />
    <glyph glyph-name="Germandbls" unicode="&#x1e9e;" horiz-adv-x="1460" 
d="M621 365q-3 -24 -3 -48q0 -113 72.5 -177t204.5 -64q150 0 242 92t92 235q0 18 -3.5 35.5t-7 31.5t-14.5 31t-16.5 27t-22 27t-22.5 23.5t-27.5 24t-26.5 21.5t-30 23.5t-29 22.5q-42 32 -56.5 43.5t-49.5 41.5t-49.5 50.5t-34.5 52.5t-27.5 66.5t-7.5 74.5q0 138 93 235
t235 142l2 8h-594l-346 -1384h-123l370 1487h973l-22 -94q-243 -68 -353 -157t-110 -224q0 -41 15.5 -78.5t48.5 -73.5t60 -59t74 -60q40 -30 66 -51t59 -55t52.5 -64.5t33 -71.5t13.5 -85q0 -197 -126 -317t-335 -120q-196 0 -291.5 91t-95.5 251q0 30 2 46h115z" />
    <glyph glyph-name="uni1EA0" unicode="&#x1ea0;" horiz-adv-x="1368" 
d="M1087 0l-61 487h-700l-310 -487h-135l967 1487h162l202 -1487h-125zM893 1384l-496 -796h615l-111 796h-8zM406 -348l43 172h135l-43 -172h-135z" />
    <glyph glyph-name="uni1EA1" unicode="&#x1ea1;" horiz-adv-x="1083" 
d="M696 0q16 118 27 156q-72 -92 -162.5 -134t-212.5 -42q-139 0 -223 78.5t-84 201.5q0 58 17 106.5t45 84.5t72.5 65.5t89 49t107 34.5t114.5 23.5t122 14t119.5 7.5t116.5 4q20 100 20 137q0 91 -58.5 143t-172.5 52t-202 -59t-118 -166h-127q46 162 169.5 243.5
t306.5 81.5q157 0 239 -77t82 -213q0 -54 -16 -129l-101 -404q-37 -147 -47 -258h-123zM819 549q-58 0 -95.5 -0.5t-113 -6t-127 -15.5t-116.5 -31.5t-105 -51t-68 -76.5t-28 -106q0 -83 55 -133.5t152 -50.5q101 0 197 51t155 141q48 75 94 279zM256 -348l43 172h135
l-43 -172h-135z" />
    <glyph glyph-name="uni1EB8" unicode="&#x1eb8;" horiz-adv-x="1200" 
d="M1315 1487l-25 -103h-751l-142 -565h727l-26 -102h-725l-154 -615h793l-25 -102h-915l368 1487h875zM397 -348l43 172h135l-43 -172h-135z" />
    <glyph glyph-name="uni1EB9" unicode="&#x1eb9;" horiz-adv-x="1110" 
d="M948 313q-69 -165 -188 -251.5t-303 -86.5q-183 0 -278 98.5t-95 278.5q0 199 71.5 364.5t205.5 265t303 99.5q182 0 277 -99t95 -273q0 -97 -20 -203h-799q-12 -94 -12 -144q0 -288 264 -288q125 0 221 66t135 173h123zM913 604q1 10 4 41.5t3 46.5q0 142 -68 216.5
t-197 74.5q-145 0 -252.5 -95.5t-160.5 -283.5h671zM322 -348l43 172h135l-43 -172h-135z" />
    <glyph glyph-name="uni1EBC" unicode="&#x1ebc;" horiz-adv-x="1200" 
d="M1315 1487l-25 -103h-751l-142 -565h727l-26 -102h-725l-154 -615h793l-25 -102h-915l368 1487h875zM623 1653q31 99 81.5 146.5t108.5 47.5q43 0 86.5 -25t80.5 -50t62 -25q28 0 56 23.5t47 74.5h78q-29 -98 -79.5 -145t-109.5 -47q-40 0 -83.5 25.5t-81.5 51t-66 25.5
q-60 0 -103 -102h-77z" />
    <glyph glyph-name="uni1EBD" unicode="&#x1ebd;" horiz-adv-x="1110" 
d="M948 313q-69 -165 -188 -251.5t-303 -86.5q-183 0 -278 98.5t-95 278.5q0 199 71.5 364.5t205.5 265t303 99.5q182 0 277 -99t95 -273q0 -97 -20 -203h-799q-12 -94 -12 -144q0 -288 264 -288q125 0 221 66t135 173h123zM913 604q1 10 4 41.5t3 46.5q0 142 -68 216.5
t-197 74.5q-145 0 -252.5 -95.5t-160.5 -283.5h671zM428 1284q69 191 188 191q32 0 67 -15.5t60.5 -34t55.5 -34t53 -15.5q30 0 53.5 22t46.5 75h84q-31 -97 -81.5 -144t-108.5 -47q-41 0 -84 24t-82 48t-68 24q-59 0 -102 -94h-82z" />
    <glyph glyph-name="uni1ECA" unicode="&#x1eca;" horiz-adv-x="528" 
d="M72 0l372 1487h123l-372 -1487h-123zM-14 -348l43 172h135l-43 -172h-135z" />
    <glyph glyph-name="uni1ECB" unicode="&#x1ecb;" horiz-adv-x="460" 
d="M41 0l262 1057h117l-262 -1057h-117zM350 1315l43 172h135l-43 -172h-135zM-51 -348l43 172h135l-43 -172h-135z" />
    <glyph glyph-name="uni1ECC" unicode="&#x1ecc;" horiz-adv-x="1529" 
d="M969 1511q245 0 383.5 -158.5t138.5 -424.5q0 -195 -68 -372.5t-181 -304t-264 -201.5t-312 -75q-241 0 -381 155t-140 409q0 204 67 386t179.5 309.5t263.5 202t314 74.5zM958 1411q-127 0 -238.5 -52t-192 -139t-138.5 -200.5t-86.5 -239t-28.5 -250.5
q0 -211 110 -332.5t294 -121.5q106 0 209 43t188 122t150 184t101 237t36 272q0 227 -104.5 352t-299.5 125zM518 -348l43 172h135l-43 -172h-135z" />
    <glyph glyph-name="uni1ECD" unicode="&#x1ecd;" horiz-adv-x="1169" 
d="M698 1081q186 0 284.5 -111.5t98.5 -301.5q0 -193 -77.5 -351t-217 -250t-313.5 -92q-181 0 -283 114t-102 302q0 143 47.5 271t128.5 219.5t194 145.5t240 54zM690 981q-98 0 -185.5 -45t-152.5 -124t-103 -193.5t-38 -247.5q0 -137 72 -216t202 -79q132 0 240 78.5
t170.5 218t62.5 311.5q0 141 -69.5 219t-198.5 78zM334 -348l43 172h135l-43 -172h-135z" />
    <glyph glyph-name="uni1EE4" unicode="&#x1ee4;" horiz-adv-x="1417" 
d="M1227 504q-71 -283 -220 -406t-389 -123q-220 0 -333 109t-113 299q0 82 31 213l223 891h123l-227 -922q-23 -97 -23 -166q0 -151 81 -237t253 -86q189 0 305 115.5t176 361.5l232 934h124zM471 -348l43 172h135l-43 -172h-135z" />
    <glyph glyph-name="uni1EE5" unicode="&#x1ee5;" horiz-adv-x="1150" 
d="M780 160q-55 -85 -154.5 -132.5t-207.5 -47.5q-133 0 -219 70t-86 206q0 95 30 221l146 580h117l-138 -549q-37 -154 -37 -234q0 -89 52.5 -142.5t152.5 -53.5q134 0 250.5 104t159.5 275l149 600h117l-264 -1057h-111zM276 -348l43 172h136l-43 -172h-136z" />
    <glyph glyph-name="Ygrave" unicode="&#x1ef2;" horiz-adv-x="1239" 
d="M254 1487h139l277 -737l633 737h153l-745 -854l-160 -633h-123l160 633zM657 1855h138l141 -225h-100z" />
    <glyph glyph-name="ygrave" unicode="&#x1ef3;" horiz-adv-x="1013" 
d="M461 0q-18 -30 -44.5 -75.5t-44 -75.5t-43.5 -69.5t-48 -65.5t-52.5 -53.5t-61.5 -43.5t-70.5 -26.5t-84.5 -10.5q-64 0 -121 17l29 104q46 -14 94 -14q40 0 73.5 12.5t57 29t50 51t42.5 60.5t46 77.5t49 82.5l-166 1057h127l131 -930l553 930h131zM434 1487h139
l152 -252h-102z" />
    <glyph glyph-name="uni1EF8" unicode="&#x1ef8;" horiz-adv-x="1239" 
d="M254 1487h139l277 -737l633 737h153l-745 -854l-160 -633h-123l160 633zM614 1653q31 99 82 146.5t109 47.5q43 0 86.5 -25t80.5 -50t62 -25q28 0 56 23.5t47 74.5h77q-29 -98 -79 -145t-109 -47q-40 0 -83.5 25.5t-81.5 51t-66 25.5q-60 0 -103 -102h-78z" />
    <glyph glyph-name="uni1EF9" unicode="&#x1ef9;" horiz-adv-x="1013" 
d="M461 0q-18 -30 -44.5 -75.5t-44 -75.5t-43.5 -69.5t-48 -65.5t-52.5 -53.5t-61.5 -43.5t-70.5 -26.5t-84.5 -10.5q-64 0 -121 17l29 104q46 -14 94 -14q40 0 73.5 12.5t57 29t50 51t42.5 60.5t46 77.5t49 82.5l-166 1057h127l131 -930l553 930h131zM426 1284
q69 191 188 191q32 0 67 -15.5t60.5 -34t55.5 -34t53 -15.5q30 0 53.5 22t46.5 75h84q-31 -97 -81.5 -144t-108.5 -47q-41 0 -84 24t-82 48t-68 24q-59 0 -102 -94h-82z" />
    <glyph glyph-name="uni2000" unicode="&#x2000;" horiz-adv-x="1024" 
 />
    <glyph glyph-name="uni2001" unicode="&#x2001;" horiz-adv-x="2048" 
 />
    <glyph glyph-name="uni2002" unicode="&#x2002;" horiz-adv-x="1024" 
 />
    <glyph glyph-name="uni2003" unicode="&#x2003;" horiz-adv-x="2048" 
 />
    <glyph glyph-name="uni2004" unicode="&#x2004;" horiz-adv-x="681" 
 />
    <glyph glyph-name="uni2005" unicode="&#x2005;" horiz-adv-x="512" 
 />
    <glyph glyph-name="uni2006" unicode="&#x2006;" horiz-adv-x="342" 
 />
    <glyph glyph-name="uni2007" unicode="&#x2007;" 
 />
    <glyph glyph-name="uni2008" unicode="&#x2008;" horiz-adv-x="411" 
 />
    <glyph glyph-name="uni2009" unicode="&#x2009;" horiz-adv-x="256" 
 />
    <glyph glyph-name="uni200A" unicode="&#x200a;" horiz-adv-x="86" 
 />
    <glyph glyph-name="uni200B" unicode="&#x200b;" horiz-adv-x="0" 
 />
    <glyph glyph-name="figuredash" unicode="&#x2012;" 
d="M1120 631l-24 -103h-899l24 103h899z" />
    <glyph glyph-name="endash" unicode="&#x2013;" horiz-adv-x="1183" 
d="M1067 631l-25 -103h-899l25 103h899z" />
    <glyph glyph-name="emdash" unicode="&#x2014;" horiz-adv-x="1699" 
d="M1583 631l-24 -103h-1416l25 103h1415z" />
    <glyph glyph-name="uni2015" unicode="&#x2015;" horiz-adv-x="1699" 
d="M1583 631l-24 -103h-1416l25 103h1415z" />
    <glyph glyph-name="quoteleft" unicode="&#x2018;" horiz-adv-x="391" 
d="M285 1210l141 277h80l-139 -301h67l-39 -152h-155z" />
    <glyph glyph-name="quoteright" unicode="&#x2019;" horiz-adv-x="380" 
d="M467 1311l-141 -277h-80l137 301h-66l39 152h156z" />
    <glyph glyph-name="quotesinglbase" unicode="&#x201a;" horiz-adv-x="407" 
d="M166 0l-141 -276h-80l137 301h-66l39 151h156z" />
    <glyph glyph-name="quotereversed" unicode="&#x201b;" horiz-adv-x="374" 
d="M494 1487l-39 -152h-66l-14 -301h-80l-2 277l45 176h156z" />
    <glyph glyph-name="quotedblleft" unicode="&#x201c;" horiz-adv-x="686" 
d="M285 1210l141 277h80l-139 -301h67l-39 -152h-155zM578 1202l143 285h80l-139 -301h67l-39 -152h-155z" />
    <glyph glyph-name="quotedblright" unicode="&#x201d;" horiz-adv-x="675" 
d="M762 1311l-141 -277h-80l137 301h-66l39 152h156zM469 1319l-143 -285h-80l137 301h-66l39 152h156z" />
    <glyph glyph-name="quotedblbase" unicode="&#x201e;" horiz-adv-x="702" 
d="M461 0l-142 -276h-79l137 301h-66l39 151h156zM168 8l-143 -284h-80l137 301h-66l39 151h156z" />
    <glyph glyph-name="uni201F" unicode="&#x201f;" horiz-adv-x="669" 
d="M494 1487l-39 -152h-66l-14 -301h-80l-2 277l45 176h156zM788 1487l-38 -152h-66l-14 -301h-80v285l43 168h155z" />
    <glyph glyph-name="dagger" unicode="&#x2020;" horiz-adv-x="970" 
d="M166 965l24 102h373l105 420h116l-104 -420h369l-25 -102h-369l-241 -967h-117l242 967h-373z" />
    <glyph glyph-name="daggerdbl" unicode="&#x2021;" horiz-adv-x="1030" 
d="M401 297l168 668h-372l24 102h373l104 420h117l-104 -420h368l-24 -102h-369l-168 -668h369l-25 -104h-368l-107 -429h-117l107 429h-373l25 104h372z" />
    <glyph glyph-name="bullet" unicode="&#x2022;" horiz-adv-x="720" 
d="M600 725q0 -87 -54 -143t-140 -56t-142.5 56.5t-56.5 142.5t56.5 141.5t142.5 55.5t140 -55t54 -142z" />
    <glyph glyph-name="ellipsis" unicode="&#x2026;" horiz-adv-x="1165" 
d="M215 176l-45 -176h-160l45 176h160zM592 176l-45 -176h-160l45 176h160zM969 176l-45 -176h-160l45 176h160z" />
    <glyph glyph-name="perthousand" unicode="&#x2030;" horiz-adv-x="2525" 
d="M582 1413q111 0 169 -67t58 -197q0 -71 -14.5 -148t-47.5 -155.5t-79.5 -140.5t-117 -101t-153.5 -39q-109 0 -166 66t-57 194q0 70 14.5 147t47 156t78.5 142t116 103t152 40zM563 1329q-72 0 -128 -55t-85.5 -138.5t-44 -165t-14.5 -151.5q0 -168 125 -168
q72 0 128.5 55t87 138t45.5 164t15 149q0 172 -129 172zM1532 1427l-1110 -1456h-109l1110 1456h109zM1454 825q111 0 169 -67t58 -197q0 -71 -14.5 -148t-47.5 -155.5t-79 -140.5t-116.5 -101t-153.5 -39q-109 0 -166 66t-57 195q0 70 14.5 147t46.5 156t78 141.5
t116 102.5t152 40zM1436 741q-72 0 -128 -55t-86 -138.5t-44.5 -165t-14.5 -151.5q0 -168 125 -168q58 0 107 37t79.5 93.5t51.5 126.5t30 133t9 116q0 172 -129 172zM2208 825q111 0 169 -67t58 -197q0 -71 -14.5 -148t-47.5 -155.5t-79.5 -140.5t-117 -101t-153.5 -39
q-109 0 -166 66t-57 195q0 70 14.5 147t47 156t78.5 141.5t116 102.5t152 40zM2189 741q-72 0 -128 -55t-85.5 -138.5t-44 -165t-14.5 -151.5q0 -168 125 -168q72 0 128.5 55t87 138t45.5 164t15 149q0 172 -129 172z" />
    <glyph glyph-name="minute" unicode="&#x2032;" horiz-adv-x="372" 
d="M471 1399l-154 -451h-61l63 451h152z" />
    <glyph glyph-name="second" unicode="&#x2033;" horiz-adv-x="632" 
d="M471 1399l-154 -451h-61l63 451h152zM731 1399l-153 -451h-62l64 451h151z" />
    <glyph glyph-name="guilsinglleft" unicode="&#x2039;" horiz-adv-x="528" 
d="M326 143h-107l-121 422l318 404h114l-305 -414z" />
    <glyph glyph-name="guilsinglright" unicode="&#x203a;" horiz-adv-x="528" 
d="M217 969h107l120 -422l-317 -404h-115l305 414z" />
    <glyph glyph-name="fraction" unicode="&#x2044;" horiz-adv-x="264" 
d="M778 1427l-1110 -1456h-108l1110 1456h108z" />
    <glyph glyph-name="uni2070" unicode="&#x2070;" horiz-adv-x="753" 
d="M680 1804q111 0 169 -67t58 -197q0 -71 -14.5 -148t-47.5 -155.5t-79 -140.5t-116.5 -101t-153.5 -39q-109 0 -166.5 66.5t-57.5 194.5q0 70 14.5 147t47 156t78.5 141.5t116 102.5t152 40zM662 1720q-72 0 -128 -55t-86 -138.5t-44.5 -165t-14.5 -151.5q0 -168 125 -168
q58 0 107 37t79.5 93.5t51.5 126.5t30 133t9 116q0 172 -129 172z" />
    <glyph glyph-name="uni2074" unicode="&#x2074;" horiz-adv-x="724" 
d="M692 1192l-53 -213h-107l54 213h-373l18 82l453 516h160l-127 -510h151l-22 -88h-154zM608 1280q73 276 113 410h-14l-363 -410h264z" />
    <glyph glyph-name="uni2075" unicode="&#x2075;" horiz-adv-x="692" 
d="M864 1790l-22 -88h-344l-74 -246q66 66 168 66q91 0 156 -61.5t65 -166.5q0 -146 -96 -241t-238 -95q-116 0 -174.5 61.5t-58.5 174.5h110q0 -69 35.5 -109.5t102.5 -40.5q88 0 146 67t58 171q0 67 -38.5 106t-104.5 39q-123 0 -176 -114l-100 16l145 461h440z" />
    <glyph glyph-name="uni2076" unicode="&#x2076;" horiz-adv-x="718" 
d="M766 1581q0 70 -26 104.5t-89 34.5q-90 0 -154 -80.5t-87 -220.5q97 90 215 90q90 0 150.5 -61.5t60.5 -161.5q0 -142 -92 -236t-228 -94q-115 0 -175 76t-60 215q0 55 9 115t27.5 123.5t50 120t71.5 101t97 71t123 26.5q220 0 220 -223h-113zM582 1423q-78 0 -134.5 -64
t-56.5 -153q0 -72 42 -118t108 -46q74 0 128 69.5t54 164.5q0 66 -39 106.5t-102 40.5z" />
    <glyph glyph-name="uni2077" unicode="&#x2077;" horiz-adv-x="612" 
d="M297 979q136 332 440 723h-411l20 88h539l-21 -76q-297 -381 -444 -735h-123z" />
    <glyph glyph-name="uni2078" unicode="&#x2078;" horiz-adv-x="727" 
d="M496 956q-116 0 -183 54t-67 143q0 93 56.5 154t164.5 84l2 6q-123 35 -123 151q0 114 88 185t219 71q105 0 166.5 -47.5t61.5 -128.5q0 -88 -50 -150t-135 -81v-6q62 -17 95.5 -57t33.5 -97q0 -121 -94.5 -201t-234.5 -80zM510 1042q86 0 142.5 53t56.5 132q0 55 -39 89
t-107 34q-86 0 -143.5 -52.5t-57.5 -128.5q0 -56 40 -91.5t108 -35.5zM590 1436q77 0 127.5 48.5t50.5 121.5q0 54 -34 84t-95 30q-80 0 -132 -48.5t-52 -121.5q0 -54 34.5 -84t100.5 -30z" />
    <glyph glyph-name="uni2079" unicode="&#x2079;" horiz-adv-x="716" 
d="M356 1180q0 -62 39 -100t101 -38q96 0 155.5 83.5t91.5 248.5q-80 -92 -196 -92q-96 0 -162 58.5t-66 160.5q0 131 87 217t219 86q66 0 113 -24t73 -66.5t37.5 -92t11.5 -110.5q0 -73 -12.5 -147.5t-41.5 -148.5t-71 -131t-107 -92.5t-143 -35.5q-106 0 -168.5 54
t-68.5 151q0 15 2 19h106zM610 1720q-81 0 -131.5 -58t-50.5 -149q0 -63 36 -104t95 -41q89 0 139 59t50 144q0 65 -35 107t-103 42z" />
    <glyph glyph-name="uni2080" unicode="&#x2080;" horiz-adv-x="753" 
d="M362 524q111 0 169.5 -67t58.5 -197q0 -71 -14.5 -148t-47.5 -155.5t-79.5 -140.5t-117 -101t-153.5 -39q-109 0 -166 66t-57 195q0 70 14.5 147t46.5 156t78 141.5t116 102.5t152 40zM344 440q-72 0 -128 -55t-85.5 -138.5t-44 -165t-14.5 -151.5q0 -168 125 -168
q72 0 128.5 55t87 138t45.5 164t15 149q0 172 -129 172z" />
    <glyph glyph-name="uni2081" unicode="&#x2081;" horiz-adv-x="452" 
d="M-14 295l16 72q105 4 155.5 35.5t80.5 107.5h92l-205 -811h-109l148 596h-178z" />
    <glyph glyph-name="uni2082" unicode="&#x2082;" horiz-adv-x="692" 
d="M-123 -301q24 156 103 246q45 49 113 88.5t141.5 77.5t117.5 75q43 36 61.5 69t18.5 77q0 45 -32 75.5t-89 30.5q-76 0 -118.5 -42.5t-67.5 -137.5h-111q35 141 110.5 203.5t209.5 62.5q101 0 160 -52t59 -128q0 -57 -23 -106t-58 -82.5t-85 -66.5t-95.5 -55.5t-98 -51
t-84.5 -52.5q-41 -30 -60.5 -63t-25.5 -78h428l-25 -90h-549z" />
    <glyph glyph-name="uni2083" unicode="&#x2083;" horiz-adv-x="720" 
d="M41 -49q-4 -9 -4 -45q0 -66 44 -105t116 -39q80 0 134 57t54 136q0 54 -40 84.5t-112 30.5h-36l24 88h23q93 0 147.5 44.5t54.5 121.5q0 55 -35 85.5t-100 30.5q-150 0 -180 -164h-117q26 123 107 185.5t211 62.5q108 0 171.5 -49t63.5 -131q0 -76 -54 -138t-134 -83
l-2 -10q125 -34 125 -150q0 -121 -95 -204t-231 -83q-106 0 -179 62.5t-73 167.5q0 17 4 45h113z" />
    <glyph glyph-name="uni2084" unicode="&#x2084;" horiz-adv-x="724" 
d="M375 -88l-53 -213h-107l53 213h-372l18 82l453 516h159l-127 -510h152l-23 -88h-153zM291 0q80 302 112 410h-14l-362 -410h264z" />
    <glyph glyph-name="uni2085" unicode="&#x2085;" horiz-adv-x="692" 
d="M547 510l-23 -88h-344l-74 -246q66 66 168 66q91 0 156.5 -61.5t65.5 -166.5q0 -146 -96 -241t-238 -95q-116 0 -175 61.5t-59 174.5h111q0 -70 35 -110t102 -40q88 0 146.5 67t58.5 171q0 67 -38.5 106t-104.5 39q-124 0 -177 -114l-100 16l145 461h441z" />
    <glyph glyph-name="uni2086" unicode="&#x2086;" horiz-adv-x="718" 
d="M449 301q0 70 -26 104.5t-89 34.5q-90 0 -154.5 -80.5t-87.5 -220.5q97 90 215 90q90 0 150.5 -61.5t60.5 -161.5q0 -142 -91.5 -236t-227.5 -94q-115 0 -175.5 76.5t-60.5 214.5q0 55 9.5 115.5t28 123.5t49.5 119.5t71.5 101t97.5 71t123 26.5q219 0 219 -223h-112z
M264 143q-78 0 -134 -64t-56 -153q0 -72 41.5 -118t107.5 -46q74 0 128.5 69.5t54.5 164.5q0 66 -39.5 106.5t-102.5 40.5z" />
    <glyph glyph-name="uni2087" unicode="&#x2087;" horiz-adv-x="612" 
d="M-20 -301q136 332 440 723h-412l21 88h538l-20 -76q-299 -384 -445 -735h-122z" />
    <glyph glyph-name="uni2088" unicode="&#x2088;" horiz-adv-x="727" 
d="M178 -324q-116 0 -183 54t-67 143q0 93 57 154t165 84l2 6q-123 35 -123 151q0 114 88 185t219 71q105 0 166 -47t61 -129q0 -88 -49.5 -150t-134.5 -81v-6q62 -17 95.5 -57t33.5 -97q0 -121 -95 -201t-235 -80zM193 -238q86 0 142 53t56 132q0 55 -38.5 89t-106.5 34
q-86 0 -143.5 -52.5t-57.5 -128.5q0 -56 40 -91.5t108 -35.5zM272 156q77 0 128 49t51 121q0 54 -34 84t-95 30q-80 0 -132.5 -48.5t-52.5 -121.5q0 -54 34.5 -84t100.5 -30z" />
    <glyph glyph-name="uni2089" unicode="&#x2089;" horiz-adv-x="716" 
d="M39 -100q0 -63 38.5 -100.5t100.5 -37.5q96 0 156 84t92 248q-80 -92 -197 -92q-95 0 -161 58.5t-66 160.5q0 131 86.5 217t218.5 86q66 0 113.5 -24t73.5 -66.5t37.5 -92t11.5 -110.5q0 -73 -12.5 -147.5t-41.5 -148.5t-71 -131t-107 -92.5t-143 -35.5q-106 0 -169 54
t-69 151q0 15 2 19h107zM293 440q-81 0 -131.5 -58t-50.5 -149q0 -63 36 -104t95 -41q89 0 138.5 59t49.5 144q0 65 -34.5 107t-102.5 42z" />
    <glyph glyph-name="colonmonetary" unicode="&#x20a1;" horiz-adv-x="1245" 
d="M1145 948q6 41 6 80q0 143 -80 223l-418 -1163q123 25 212.5 116t174.5 253h119q-102 -218 -231.5 -337t-313.5 -138l-65 -187h-94l65 182q-84 3 -172 35l-78 -217h-94l94 262q-77 58 -116 151.5t-39 207.5q0 237 77.5 448.5t225.5 358.5t338 184l61 174h94l-59 -164
q3 0 10 1t10 1q81 0 158 -22l66 184h94l-80 -219q160 -97 160 -313q0 -49 -6 -101h-119zM385 115q67 -37 170 -37l438 1220q-52 21 -125 21q-17 0 -53 -4zM240 424q0 -165 71 -250l404 1120q-148 -47 -258 -185t-163.5 -315.5t-53.5 -369.5z" />
    <glyph glyph-name="uni20A6" unicode="&#x20a6;" horiz-adv-x="1394" 
d="M1374 1399l-127 -506h135l-22 -94h-137l-54 -217h136l-23 -95h-137l-121 -487h-123l-156 487h-403l-121 -487h-115l121 487h-133l23 95h135l53 217h-133l23 94h135l127 506h123l165 -506h388l127 506h114zM367 582h348l-70 217h-225l-43 -176zM1057 582q18 81 51 213v4
h-332l70 -217h211zM442 893h174l-96 301h-8zM1034 487h-157l88 -266h8z" />
    <glyph glyph-name="Euro" unicode="&#x20ac;" horiz-adv-x="1349" 
d="M293 868q46 117 112.5 215t151.5 174t191.5 119t222.5 43q191 0 293 -96t102 -276q0 -39 -2 -62h-119q2 16 2 45q0 135 -69 212t-205 77q-186 0 -329.5 -123.5t-225.5 -327.5h579l-32 -92h-580q-26 -90 -37 -170h549l-35 -92h-524q-2 -31 -2 -84q0 -166 79.5 -259
t239.5 -93q149 0 259 78.5t192 242.5h123q-100 -212 -241 -317t-339 -105q-211 0 -324.5 122t-113.5 325q0 59 2 90h-141l34 92h117q10 69 39 170h-125l33 92h123z" />
    <glyph glyph-name="uni20B2" unicode="&#x20b2;" horiz-adv-x="1255" 
d="M455 -16q-159 24 -246.5 156t-87.5 323q0 120 26.5 246.5t83 249.5t136 221.5t195.5 163.5t251 75l41 160h98l-41 -160q160 -17 251 -116t91 -263v-24h-118q0 139 -65.5 218t-182.5 87l-148 -592h439l-181 -729h-82l21 180q-144 -184 -383 -200l-45 -183h-98zM250 467
q0 -157 59 -259.5t170 -125.5l309 1235q-103 -16 -192.5 -77.5t-152 -150t-107 -196t-65.5 -216t-21 -210.5zM715 631l-137 -553q154 12 274 129t172 325l25 99h-334z" />
    <glyph glyph-name="uni20B4" unicode="&#x20b4;" horiz-adv-x="1243" 
d="M629 655l-111 -49h647l-22 -92h-756q-137 -110 -137 -242q0 -101 76.5 -150.5t199.5 -49.5q157 0 271 73.5t168 219.5h129q-68 -186 -219.5 -288t-362.5 -102q-170 0 -275.5 73t-105.5 206q0 139 121 260h-156l23 92h239q109 65 269 133l78 33q40 15 79 35h-622l20 92
h736q149 112 149 242q0 86 -75 136t-199 50q-136 0 -239 -70t-157 -213h-121q34 99 90.5 173.5t128 118.5t151 65.5t167.5 21.5q173 0 273 -77.5t100 -188.5q0 -130 -131 -258h174l-23 -92h-262q-81 -49 -233 -119z" />
    <glyph glyph-name="uni20B5" unicode="&#x20b5;" horiz-adv-x="1253" 
d="M1145 948q6 41 6 80q0 130 -63.5 207t-198.5 84l-309 -1241q81 4 148 31t122 80.5t98 115.5t92 152h119q-55 -116 -113.5 -199.5t-131 -148t-162 -97.5t-197.5 -35l-45 -180h-98l45 187q-170 24 -256 142t-86 290q0 184 50.5 358t140 311.5t222 226.5t287.5 103l41 164
h98l-41 -162q172 -10 264.5 -106t92.5 -262q0 -49 -6 -101h-119zM240 424q0 -304 241 -342l307 1231q-127 -19 -233 -104t-173.5 -209.5t-104.5 -273.5t-37 -302z" />
    <glyph glyph-name="uni20B8" unicode="&#x20b8;" horiz-adv-x="1271" 
d="M195 1001l26 103h1118l-24 -103h-498l-250 -1001h-123l250 1001h-499zM1413 1399l-24 -103h-1121l25 103h1120z" />
    <glyph glyph-name="uni20B9" unicode="&#x20b9;" horiz-adv-x="1177" 
d="M922 1053v14q0 114 -90 171.5t-254 57.5h-316l27 103h1011l-24 -103l-334 2q49 -32 79 -95t30 -120q0 -24 -2 -30h163l-24 -99h-158q-41 -121 -148 -198t-268 -107l-2 -6q93 -16 147.5 -74t65.5 -135l56 -434h-123l-53 410q-13 99 -98.5 146.5t-217.5 47.5h-184l26 101
h191q105 0 199 25t171 83t109 141h-715l25 99h711z" />
    <glyph glyph-name="uni20BA" unicode="&#x20ba;" horiz-adv-x="1196" 
d="M186 856l187 96l112 447h115l-96 -379l440 225l-26 -104l-439 -226l-49 -190l440 225l-26 -104l-438 -225l-132 -523h134q76 0 152.5 20.5t154 65.5t142.5 109.5t118.5 160t81.5 210.5h110q-49 -198 -156.5 -346.5t-269 -233t-358.5 -84.5h-248l139 555l-188 -96l27 102
l186 96l49 193l-188 -96z" />
    <glyph glyph-name="uni20BD" unicode="&#x20bd;" horiz-adv-x="1247" 
d="M295 711l172 688h377q211 0 335 -86t124 -246q0 -119 -48.5 -209.5t-133 -143.5t-189 -79.5t-225.5 -26.5h-316l-47 -190h547l-27 -103h-547l-77 -315h-123l78 315h-142l25 103h143l47 190h-143l27 103h143zM725 711q71 0 134 10.5t122.5 36.5t102 65t68.5 100t26 138
q0 117 -98.5 176t-260.5 59h-256l-145 -585h307z" />
    <glyph glyph-name="uni20BF" unicode="&#x20bf;" horiz-adv-x="1222" 
d="M616 1399l46 180h90l-45 -180h114q73 0 135 -15l50 195h90l-56 -225q158 -77 158 -246q0 -147 -82.5 -244.5t-236.5 -140.5l-2 -8q106 -18 162.5 -90.5t56.5 -171.5q0 -181 -105.5 -287t-283.5 -146l-56 -227h-90l51 211q-23 -4 -106 -4h-148l-51 -207h-90l51 207h-196
l348 1399h196zM528 90q199 0 319 100t120 246q0 232 -271 232h-344l-143 -578h319zM664 766q83 0 155 18t131.5 55.5t94 103.5t34.5 153q0 100 -67 152t-215 52h-287l-133 -534h287z" />
    <glyph glyph-name="uni2113" unicode="&#x2113;" horiz-adv-x="872" 
d="M723 109q-162 -127 -317 -127q-228 0 -228 254q0 111 37 253l-164 -92l-18 84l209 105l108 436q102 395 381 395q93 0 147 -48.5t54 -127.5q0 -54 -17 -108.5t-42 -100.5t-69.5 -97t-82 -88.5t-97.5 -86t-99 -77.5t-103 -75l-76 -55l-12 -43q-41 -155 -41 -256
q0 -184 141 -184q120 0 258 114zM371 659q13 10 59 44.5t67.5 51.5t66 53t68.5 61l60 62.5t56.5 70.5t41.5 72t30 79.5t9 81.5q0 104 -120 104q-170 0 -244 -301z" />
    <glyph glyph-name="uni2116" unicode="&#x2116;" horiz-adv-x="2400" 
d="M2288 539l-17 -72h-669l16 72h670zM1968 664q-137 0 -214 73t-77 207q0 82 20 163t61.5 154t98.5 128.5t137.5 88.5t172.5 33q137 0 214 -73t77 -207q0 -82 -20 -163t-61.5 -154t-98.5 -128.5t-137.5 -88.5t-172.5 -33zM1980 737q67 0 127.5 29.5t104.5 79t77 112
t49.5 130.5t16.5 133q0 107 -53.5 162t-147.5 55q-109 0 -197.5 -78t-133.5 -187.5t-45 -218.5q0 -106 54 -161.5t148 -55.5zM627 1487l434 -1370h12l344 1370h117l-373 -1487h-196l-422 1366h-13l-342 -1366h-116l370 1487h185z" />
    <glyph glyph-name="uni2117" unicode="&#x2117;" horiz-adv-x="1781" 
d="M793 297h-119v877h305q139 0 220 -70.5t81 -192.5q0 -133 -94 -206.5t-232 -73.5h-161v-334zM954 727q98 0 151.5 46t53.5 136q0 168 -205 168h-161v-350h161zM283 748q0 -189 90 -345t242 -243.5t331 -87.5q134 0 256 51.5t212 140.5t143 215.5t53 268.5q0 141 -53 267
t-143 214.5t-212 140t-256 51.5q-179 0 -331 -87t-242 -242.5t-90 -343.5zM180 748q0 215 100.5 391t276 276.5t389.5 100.5t389.5 -100.5t276 -276.5t100.5 -391q0 -162 -59 -305t-161 -245t-244 -161.5t-302 -59.5t-302 59.5t-244 161.5t-161 245t-59 305z" />
    <glyph glyph-name="trademark" unicode="&#x2122;" horiz-adv-x="1814" 
d="M272 1397l23 90h627l-23 -90h-260l-176 -713h-105l177 713h-263zM1755 1391h-10l-420 -707h-127l-88 707h-10l-176 -707h-97l199 803h170l84 -713l414 713h186l-199 -803h-102z" />
    <glyph glyph-name="estimated" unicode="&#x212e;" horiz-adv-x="1255" 
d="M326 186q141 -153 338 -153q223 0 352 166l49 -45q-73 -96 -170.5 -137.5t-232.5 -41.5q-155 0 -280 74t-194 200t-69 277q0 152 69 278.5t194 200.5t280 74q148 0 266 -74.5t183 -204t65 -290.5h-850v-324zM973 870q-126 150 -324 150q-185 0 -323 -150v-301h647v301z
" />
    <glyph glyph-name="uni2150" unicode="&#x2150;" horiz-adv-x="1347" 
d="M205 1184l16 71q104 4 155 36t81 108h92l-205 -811h-108l147 596h-178zM1231 1427l-1110 -1456h-109l1110 1456h109zM788 0q135 329 441 723h-412l21 88h538l-20 -76q-299 -384 -445 -735h-123z" />
    <glyph glyph-name="uni2151" unicode="&#x2151;" horiz-adv-x="1433" 
d="M205 1184l16 71q104 4 155 36t81 108h92l-205 -811h-108l147 596h-178zM1231 1427l-1110 -1456h-109l1110 1456h109zM829 201q0 -62 39 -100t101 -38q96 0 156 84t92 248q-80 -92 -197 -92q-95 0 -161 58.5t-66 160.5q0 131 86.5 217t218.5 86q66 0 113 -24t73 -66.5
t37.5 -92t11.5 -110.5q0 -73 -12.5 -147.5t-41.5 -148.5t-71 -131t-107 -92.5t-143 -35.5q-106 0 -168.5 54t-68.5 151q0 15 2 19h106zM1083 741q-81 0 -131.5 -57.5t-50.5 -148.5q0 -63 36 -104.5t95 -41.5q89 0 139 59t50 144q0 65 -35 107t-103 42z" />
    <glyph glyph-name="uni2152" unicode="&#x2152;" horiz-adv-x="1923" 
d="M205 1184l16 71q104 4 155 36t81 108h92l-205 -811h-108l147 596h-178zM1231 1427l-1110 -1456h-109l1110 1456h109zM776 596l17 72q105 4 155 35.5t80 107.5h92l-205 -811h-108l147 596h-178zM1606 825q111 0 169 -67t58 -197q0 -71 -14.5 -148t-47.5 -155.5
t-79.5 -140.5t-117 -101t-153.5 -39q-109 0 -166 66t-57 195q0 70 14.5 147t47 156t78.5 141.5t116 102.5t152 40zM1587 741q-72 0 -128 -55t-85.5 -138.5t-44 -165t-14.5 -151.5q0 -168 125 -168q72 0 128.5 55t87 138t45.5 164t15 149q0 172 -129 172z" />
    <glyph glyph-name="onethird" unicode="&#x2153;" horiz-adv-x="1437" 
d="M205 1184l16 71q104 4 155 36t81 108h92l-205 -811h-108l147 596h-178zM1231 1427l-1110 -1456h-109l1110 1456h109zM831 252q-4 -9 -4 -45q0 -66 44 -105t116 -39q81 0 135 57t54 136q0 54 -40 84.5t-112 30.5h-37l25 88h22q93 0 148 44.5t55 121.5q0 55 -35 85.5
t-100 30.5q-150 0 -180 -163h-117q52 247 317 247q108 0 172 -49t64 -131q0 -76 -54.5 -138t-134.5 -83l-2 -10q125 -34 125 -150q0 -121 -94.5 -204t-230.5 -83q-106 0 -179 62.5t-73 167.5q0 17 4 45h112z" />
    <glyph glyph-name="twothirds" unicode="&#x2154;" horiz-adv-x="1677" 
d="M98 588q24 156 103 246q45 49 113 88.5t141.5 77.5t117.5 75q43 36 61.5 69t18.5 77q0 45 -32 75.5t-89 30.5q-76 0 -118.5 -42.5t-67.5 -137.5h-110q35 141 110 203.5t209 62.5q101 0 160 -52t59 -128q0 -57 -23 -106t-58 -82.5t-85 -66.5t-95.5 -55.5t-98 -51
t-84.5 -52.5q-41 -30 -60.5 -63t-25.5 -78h428l-25 -90h-549zM1470 1427l-1110 -1456h-108l1110 1456h108zM1071 252q-4 -9 -4 -45q0 -66 44 -105t116 -39q80 0 134 57t54 136q0 54 -39.5 84.5t-111.5 30.5h-37l24 88h23q93 0 148 44.5t55 121.5q0 55 -35.5 85.5
t-100.5 30.5q-150 0 -180 -163h-117q52 247 318 247q108 0 171.5 -49t63.5 -131q0 -76 -54 -138t-134 -83l-2 -10q125 -34 125 -150q0 -121 -95 -204t-231 -83q-106 0 -179 62.5t-73 167.5q0 17 4 45h113z" />
    <glyph glyph-name="uni2155" unicode="&#x2155;" horiz-adv-x="1409" 
d="M205 1184l16 71q104 4 155 36t81 108h92l-205 -811h-108l147 596h-178zM1231 1427l-1110 -1456h-109l1110 1456h109zM1337 811l-22 -88h-344l-74 -246q66 66 168 66q91 0 156 -61.5t65 -166.5q0 -146 -96 -240.5t-238 -94.5q-116 0 -174.5 61t-58.5 174h110
q0 -69 35.5 -109t102.5 -40q88 0 146 66.5t58 170.5q0 67 -38.5 106.5t-104.5 39.5q-123 0 -176 -115l-100 16l145 461h440z" />
    <glyph glyph-name="uni2156" unicode="&#x2156;" horiz-adv-x="1648" 
d="M98 588q24 156 103 246q45 49 113 88.5t141.5 77.5t117.5 75q43 36 61.5 69t18.5 77q0 45 -32 75.5t-89 30.5q-76 0 -118.5 -42.5t-67.5 -137.5h-110q35 141 110 203.5t209 62.5q101 0 160 -52t59 -128q0 -57 -23 -106t-58 -82.5t-85 -66.5t-95.5 -55.5t-98 -51
t-84.5 -52.5q-41 -30 -60.5 -63t-25.5 -78h428l-25 -90h-549zM1470 1427l-1110 -1456h-108l1110 1456h108zM1577 811l-23 -88h-344l-73 -246q66 66 168 66q91 0 156 -61.5t65 -166.5q0 -146 -96 -240.5t-238 -94.5q-116 0 -175 61.5t-59 173.5h111q0 -69 35 -109t102 -40
q88 0 146.5 66.5t58.5 170.5q0 67 -38.5 106.5t-104.5 39.5q-123 0 -176 -115l-101 16l146 461h440z" />
    <glyph glyph-name="uni2157" unicode="&#x2157;" horiz-adv-x="1677" 
d="M260 840q-4 -9 -4 -45q0 -66 44 -105t116 -39q80 0 134 57t54 136q0 54 -39.5 84t-111.5 30h-37l24 89h23q93 0 148 44t55 121q0 55 -35.5 86t-100.5 31q-150 0 -180 -164h-117q26 123 107 185.5t211 62.5q108 0 171.5 -49t63.5 -131q0 -76 -54 -138t-134 -83l-2 -11
q125 -34 125 -149q0 -121 -95 -204t-231 -83q-106 0 -179 62.5t-73 167.5q0 17 4 45h113zM1499 1427l-1110 -1456h-108l1110 1456h108zM1606 811l-23 -88h-344l-74 -246q66 66 168 66q91 0 156 -61.5t65 -166.5q0 -146 -95.5 -240.5t-237.5 -94.5q-116 0 -175 61.5
t-59 173.5h111q0 -69 35 -109t102 -40q88 0 146.5 66.5t58.5 170.5q0 67 -39 106.5t-105 39.5q-123 0 -176 -115l-100 16l145 461h441z" />
    <glyph glyph-name="uni2158" unicode="&#x2158;" horiz-adv-x="1681" 
d="M594 801l-53 -213h-107l53 213h-372l18 82l453 516h159l-127 -510h152l-22 -88h-154zM510 889q71 268 113 409h-15l-362 -409h264zM1503 1427l-1110 -1456h-108l1110 1456h108zM1610 811l-23 -88h-344l-74 -246q66 66 168 66q91 0 156.5 -61.5t65.5 -166.5
q0 -146 -96 -240.5t-238 -94.5q-116 0 -175 61.5t-59 173.5h111q0 -69 35 -109t102 -40q88 0 146.5 66.5t58.5 170.5q0 67 -39 106.5t-105 39.5q-123 0 -176 -115l-100 16l145 461h441z" />
    <glyph glyph-name="uni2159" unicode="&#x2159;" horiz-adv-x="1435" 
d="M205 1184l16 71q104 4 155 36t81 108h92l-205 -811h-108l147 596h-178zM1231 1427l-1110 -1456h-109l1110 1456h109zM1239 602q0 70 -26 104.5t-89 34.5q-90 0 -154 -80.5t-87 -220.5q97 90 215 90q90 0 150.5 -61.5t60.5 -161.5q0 -142 -92 -236t-228 -94
q-115 0 -175 76t-60 215q0 55 9.5 115.5t28 123.5t49.5 119.5t71.5 101t97.5 71t123 26.5q219 0 219 -223h-113zM1055 444q-78 0 -134.5 -64t-56.5 -153q0 -72 42 -118t108 -46q74 0 128 69.5t54 164.5q0 66 -39 106.5t-102 40.5z" />
    <glyph glyph-name="uni215A" unicode="&#x215a;" horiz-adv-x="1675" 
d="M766 1399l-23 -88h-344l-73 -246q65 65 168 65q91 0 156 -61t65 -166q0 -146 -96 -241t-238 -95q-116 0 -175 61.5t-59 174.5h111q0 -70 35 -110t102 -40q88 0 146.5 67t58.5 171q0 67 -38.5 106t-104.5 39q-123 0 -176 -114l-101 16l146 461h440zM1470 1427l-1110 -1456
h-108l1110 1456h108zM1479 602q0 70 -26 104.5t-89 34.5q-90 0 -154.5 -80.5t-87.5 -220.5q97 90 215 90q90 0 150.5 -61.5t60.5 -161.5q0 -142 -91.5 -236t-227.5 -94q-115 0 -175.5 76.5t-60.5 214.5q0 55 9.5 115.5t28 123.5t49.5 119.5t71.5 101t97.5 71t123 26.5
q219 0 219 -223h-112zM1294 444q-78 0 -134 -64t-56 -153q0 -72 41.5 -118t107.5 -46q74 0 128.5 69.5t54.5 164.5q0 66 -39.5 106.5t-102.5 40.5z" />
    <glyph glyph-name="oneeighth" unicode="&#x215b;" horiz-adv-x="1443" 
d="M205 1184l16 71q104 4 155 36t81 108h92l-205 -811h-108l147 596h-178zM1231 1427l-1110 -1456h-109l1110 1456h109zM969 -23q-116 0 -183 54t-67 143q0 93 56.5 154t164.5 84l2 6q-123 35 -123 151q0 114 88 185t219 71q105 0 166.5 -47.5t61.5 -128.5q0 -88 -50 -150
t-135 -81v-6q62 -17 95.5 -57t33.5 -97q0 -121 -94.5 -201t-234.5 -80zM983 63q86 0 142.5 53t56.5 132q0 55 -39 89t-107 34q-85 0 -142.5 -52.5t-57.5 -128.5q0 -56 39.5 -91.5t107.5 -35.5zM1063 457q77 0 127.5 48.5t50.5 121.5q0 54 -34 84t-95 30q-80 0 -132 -48.5
t-52 -121.5q0 -54 35 -84t100 -30z" />
    <glyph glyph-name="threeeighths" unicode="&#x215c;" horiz-adv-x="1712" 
d="M260 840q-4 -9 -4 -45q0 -66 44 -105t116 -39q80 0 134 57t54 136q0 54 -39.5 84t-111.5 30h-37l24 89h23q93 0 148 44t55 121q0 55 -35.5 86t-100.5 31q-150 0 -180 -164h-117q26 123 107 185.5t211 62.5q108 0 171.5 -49t63.5 -131q0 -76 -54 -138t-134 -83l-2 -11
q125 -34 125 -149q0 -121 -95 -204t-231 -83q-106 0 -179 62.5t-73 167.5q0 17 4 45h113zM1499 1427l-1110 -1456h-108l1110 1456h108zM1237 -23q-116 0 -183 54t-67 143q0 93 56.5 154t164.5 84l2 6q-123 35 -123 151q0 114 88.5 185t219.5 71q105 0 166 -47t61 -129
q0 -88 -49.5 -150t-134.5 -81v-6q62 -17 95.5 -57t33.5 -97q0 -121 -95 -201t-235 -80zM1251 63q86 0 142.5 53t56.5 132q0 55 -38.5 89t-106.5 34q-86 0 -143.5 -52.5t-57.5 -128.5q0 -56 39.5 -91.5t107.5 -35.5zM1331 457q77 0 127.5 48.5t50.5 121.5q0 54 -34 84t-95 30
q-80 0 -132 -48.5t-52 -121.5q0 -54 34.5 -84t100.5 -30z" />
    <glyph glyph-name="fiveeighths" unicode="&#x215d;" horiz-adv-x="1683" 
d="M766 1399l-23 -88h-344l-73 -246q65 65 168 65q91 0 156 -61t65 -166q0 -146 -96 -241t-238 -95q-116 0 -175 61.5t-59 174.5h111q0 -70 35 -110t102 -40q88 0 146.5 67t58.5 171q0 67 -38.5 106t-104.5 39q-123 0 -176 -114l-101 16l146 461h440zM1470 1427l-1110 -1456
h-108l1110 1456h108zM1208 -23q-116 0 -183 54t-67 143q0 93 57 154t165 84l2 6q-123 35 -123 151q0 114 88 185t219 71q105 0 166 -47t61 -129q0 -88 -49.5 -150t-134.5 -81v-6q62 -17 95.5 -57t33.5 -97q0 -121 -95 -201t-235 -80zM1223 63q86 0 142 53t56 132
q0 55 -38.5 89t-106.5 34q-86 0 -143.5 -52.5t-57.5 -128.5q0 -56 40 -91.5t108 -35.5zM1303 457q77 0 127.5 48.5t50.5 121.5q0 54 -34 84t-95 30q-80 0 -132.5 -48.5t-52.5 -121.5q0 -54 35 -84t101 -30z" />
    <glyph glyph-name="seveneighths" unicode="&#x215e;" horiz-adv-x="1556" 
d="M201 588q136 332 440 723h-412l21 88h538l-20 -76q-297 -381 -444 -735h-123zM1343 1427l-1110 -1456h-108l1110 1456h108zM1081 -23q-116 0 -183 54t-67 143q0 93 57 154t165 84l2 6q-123 35 -123 151q0 114 88 185t219 71q105 0 166 -47t61 -129q0 -88 -49.5 -150
t-134.5 -81v-6q62 -17 95.5 -57t33.5 -97q0 -121 -95 -201t-235 -80zM1096 63q86 0 142 53t56 132q0 55 -38.5 89t-106.5 34q-86 0 -143.5 -52.5t-57.5 -128.5q0 -56 40 -91.5t108 -35.5zM1176 457q77 0 127.5 48.5t50.5 121.5q0 54 -34 84t-95 30q-80 0 -132.5 -48.5
t-52.5 -121.5q0 -54 35 -84t101 -30z" />
    <glyph glyph-name="uni215F" unicode="&#x215f;" horiz-adv-x="716" 
d="M205 1184l16 71q104 4 155 36t81 108h92l-205 -811h-108l147 596h-178zM1231 1427l-1110 -1456h-109l1110 1456h109z" />
    <glyph glyph-name="uni2160" unicode="&#x2160;" horiz-adv-x="528" 
d="M72 0l372 1487h123l-372 -1487h-123z" />
    <glyph glyph-name="uni2161" unicode="&#x2161;" horiz-adv-x="1048" 
d="M72 0l372 1487h123l-372 -1487h-123zM592 0l373 1487h122l-372 -1487h-123z" />
    <glyph glyph-name="uni2162" unicode="&#x2162;" horiz-adv-x="1568" 
d="M72 0l372 1487h123l-372 -1487h-123zM592 0l373 1487h122l-372 -1487h-123zM1112 0l373 1487h123l-373 -1487h-123z" />
    <glyph glyph-name="uni2163" unicode="&#x2163;" horiz-adv-x="1789" 
d="M72 0l372 1487h123l-372 -1487h-123zM928 0l-156 1487h127l137 -1376h6l834 1376h135l-915 -1487h-168z" />
    <glyph glyph-name="uni2164" unicode="&#x2164;" horiz-adv-x="1286" 
d="M424 0l-156 1487h127l137 -1376h7l833 1376h135l-915 -1487h-168z" />
    <glyph glyph-name="uni2165" unicode="&#x2165;" horiz-adv-x="1792" 
d="M424 0l-156 1487h127l137 -1376h7l833 1376h135l-915 -1487h-168zM1335 0l373 1487h123l-373 -1487h-123z" />
    <glyph glyph-name="uni2166" unicode="&#x2166;" horiz-adv-x="2312" 
d="M424 0l-156 1487h127l137 -1376h7l833 1376h135l-915 -1487h-168zM1335 0l373 1487h123l-373 -1487h-123zM1855 0l373 1487h123l-373 -1487h-123z" />
    <glyph glyph-name="uni2167" unicode="&#x2167;" horiz-adv-x="2832" 
d="M424 0l-156 1487h127l137 -1376h7l833 1376h135l-915 -1487h-168zM1335 0l373 1487h123l-373 -1487h-123zM1855 0l373 1487h123l-373 -1487h-123zM2376 0l372 1487h123l-372 -1487h-123z" />
    <glyph glyph-name="uni2168" unicode="&#x2168;" horiz-adv-x="1746" 
d="M72 0l372 1487h123l-372 -1487h-123zM793 1487h147l270 -625l562 625h153l-651 -721l344 -766h-150l-292 672l-629 -672h-152l723 766z" />
    <glyph glyph-name="uni2169" unicode="&#x2169;" horiz-adv-x="1234" 
d="M281 1487h147l270 -625l562 625h153l-651 -721l344 -766h-150l-292 672l-629 -672h-152l723 766z" />
    <glyph glyph-name="uni216A" unicode="&#x216a;" horiz-adv-x="1769" 
d="M281 1487h147l270 -625l562 625h153l-651 -721l344 -766h-150l-292 672l-629 -672h-152l723 766zM1313 0l373 1487h122l-372 -1487h-123z" />
    <glyph glyph-name="uni216B" unicode="&#x216b;" horiz-adv-x="2289" 
d="M281 1487h147l270 -625l562 625h153l-651 -721l344 -766h-150l-292 672l-629 -672h-152l723 766zM1313 0l373 1487h122l-372 -1487h-123zM1833 0l373 1487h123l-373 -1487h-123z" />
    <glyph glyph-name="uni216C" unicode="&#x216c;" horiz-adv-x="1120" 
d="M565 1487l-346 -1385h776l-24 -102h-899l370 1487h123z" />
    <glyph glyph-name="uni216D" unicode="&#x216d;" horiz-adv-x="1400" 
d="M1307 477q-80 -247 -254.5 -374.5t-413.5 -127.5q-241 0 -366.5 146.5t-125.5 402.5q0 203 60 385t165 314t253.5 209t318.5 77q220 0 350.5 -116t130.5 -330q0 -70 -4 -92h-125q4 17 4 73q0 176 -101 270.5t-271 94.5q-125 0 -233 -53t-183.5 -141t-129.5 -201.5
t-80 -235.5t-26 -243q0 -208 96 -333.5t277 -125.5q191 0 322 96t207 305h129z" />
    <glyph glyph-name="uni216E" unicode="&#x216e;" horiz-adv-x="1474" 
d="M805 1487q259 0 387 -80q115 -67 177.5 -200.5t62.5 -307.5q0 -255 -114.5 -459t-303.5 -325q-176 -115 -594 -115h-348l368 1487h365zM547 102q271 0 434 123q143 107 232.5 288t89.5 392q0 368 -263 453q-71 26 -229 26h-272l-318 -1282h326z" />
    <glyph glyph-name="uni216F" unicode="&#x216f;" horiz-adv-x="1859" 
d="M643 1487l135 -961q38 -277 43 -385h8q34 61 73 123.5t92 142.5t81 125l621 955h202l-372 -1487h-123l346 1366h-4l-881 -1366h-133l-192 1366h-9l-342 -1366h-116l370 1487h201z" />
    <glyph glyph-name="uni2170" unicode="&#x2170;" horiz-adv-x="460" 
d="M41 0l262 1057h117l-262 -1057h-117zM350 1315l43 172h135l-43 -172h-135z" />
    <glyph glyph-name="uni2171" unicode="&#x2171;" horiz-adv-x="909" 
d="M41 0l262 1057h117l-262 -1057h-117zM350 1315l43 172h135l-43 -172h-135zM489 0l263 1057h116l-262 -1057h-117zM799 1315l43 172h135l-43 -172h-135z" />
    <glyph glyph-name="uni2172" unicode="&#x2172;" horiz-adv-x="1357" 
d="M41 0l262 1057h117l-262 -1057h-117zM350 1315l43 172h135l-43 -172h-135zM489 0l263 1057h116l-262 -1057h-117zM799 1315l43 172h135l-43 -172h-135zM938 0l262 1057h117l-262 -1057h-117zM1247 1315l43 172h135l-43 -172h-135z" />
    <glyph glyph-name="uni2173" unicode="&#x2173;" horiz-adv-x="1433" 
d="M41 0l262 1057h117l-262 -1057h-117zM350 1315l43 172h135l-43 -172h-135zM731 0l-139 1057h125l106 -948l580 948h127l-664 -1057h-135z" />
    <glyph glyph-name="uni2174" unicode="&#x2174;" horiz-adv-x="1009" 
d="M307 0l-139 1057h125l106 -948l580 948h127l-664 -1057h-135z" />
    <glyph glyph-name="uni2175" unicode="&#x2175;" horiz-adv-x="1439" 
d="M307 0l-139 1057h125l106 -948l580 948h127l-664 -1057h-135zM1020 0l262 1057h117l-262 -1057h-117zM1329 1315l43 172h135l-43 -172h-135z" />
    <glyph glyph-name="uni2176" unicode="&#x2176;" horiz-adv-x="1888" 
d="M307 0l-139 1057h125l106 -948l580 948h127l-664 -1057h-135zM1020 0l262 1057h117l-262 -1057h-117zM1329 1315l43 172h135l-43 -172h-135zM1468 0l263 1057h116l-262 -1057h-117zM1778 1315l43 172h135l-43 -172h-135z" />
    <glyph glyph-name="uni2177" unicode="&#x2177;" horiz-adv-x="2336" 
d="M307 0l-139 1057h125l106 -948l580 948h127l-664 -1057h-135zM1020 0l262 1057h117l-262 -1057h-117zM1329 1315l43 172h135l-43 -172h-135zM1468 0l263 1057h116l-262 -1057h-117zM1778 1315l43 172h135l-43 -172h-135zM1917 0l262 1057h117l-262 -1057h-117zM2226 1315
l43 172h135l-43 -172h-135z" />
    <glyph glyph-name="uni2178" unicode="&#x2178;" horiz-adv-x="1429" 
d="M41 0l262 1057h117l-262 -1057h-117zM350 1315l43 172h135l-43 -172h-135zM1292 0h-133l-235 473l-449 -473h-149l538 563l-248 494h134l202 -420l400 420h149l-493 -504z" />
    <glyph glyph-name="uni2179" unicode="&#x2179;" horiz-adv-x="995" 
d="M858 0h-133l-236 473l-448 -473h-150l539 563l-248 494h133l203 -420l400 420h149l-494 -504z" />
    <glyph glyph-name="uni217A" unicode="&#x217a;" horiz-adv-x="1449" 
d="M858 0h-133l-236 473l-448 -473h-150l539 563l-248 494h133l203 -420l400 420h149l-494 -504zM1030 0l262 1057h117l-262 -1057h-117zM1339 1315l43 172h136l-43 -172h-136z" />
    <glyph glyph-name="uni217B" unicode="&#x217b;" horiz-adv-x="1898" 
d="M858 0h-133l-236 473l-448 -473h-150l539 563l-248 494h133l203 -420l400 420h149l-494 -504zM1030 0l262 1057h117l-262 -1057h-117zM1339 1315l43 172h136l-43 -172h-136zM1479 0l262 1057h117l-263 -1057h-116zM1788 1315l43 172h135l-43 -172h-135z" />
    <glyph glyph-name="uni217C" unicode="&#x217c;" horiz-adv-x="460" 
d="M410 1487h116l-368 -1487h-117z" />
    <glyph glyph-name="uni217D" unicode="&#x217d;" horiz-adv-x="1091" 
d="M479 76q245 0 363 268h127q-66 -180 -193.5 -274.5t-306.5 -94.5q-176 0 -278.5 111.5t-102.5 296.5q0 104 24.5 204t75 189.5t121 157.5t169 107.5t212.5 39.5q165 0 262 -92t97 -244q0 -10 -2 -35.5t-3 -35.5h-126q4 62 4 67q0 110 -65 175t-181 65q-86 0 -162 -34.5
t-130.5 -93t-94 -134.5t-59 -160t-19.5 -168q0 -147 71.5 -231t196.5 -84z" />
    <glyph glyph-name="uni217E" unicode="&#x217e;" horiz-adv-x="1177" 
d="M793 139q-147 -159 -349 -159q-93 0 -163 34.5t-110 95.5t-59.5 136t-19.5 164q0 175 71 327t202 246t292 94q117 0 197 -47.5t119 -159.5l157 617h117l-373 -1487h-116zM463 78q124 0 226.5 80.5t161 222.5t58.5 315q0 133 -64.5 208t-187.5 75q-190 0 -316 -163.5
t-126 -414.5q0 -65 13 -120t40.5 -102t77 -74t117.5 -27z" />
    <glyph glyph-name="uni217F" unicode="&#x217f;" horiz-adv-x="1736" 
d="M379 905q62 81 153.5 126.5t184.5 45.5q104 0 176.5 -55.5t85.5 -163.5q73 105 171 162t210 57q278 0 278 -256q0 -64 -20 -137l-170 -684h-117l133 530q56 221 56 283q0 166 -177 166q-141 0 -245 -111.5t-158 -320.5l-137 -547h-117l152 616q28 118 28 191
q0 80 -46.5 126t-127.5 46q-79 0 -146 -36.5t-115 -100t-81 -136.5t-55 -159l-137 -547h-117l264 1057h115z" />
    <glyph glyph-name="uni2189" unicode="&#x2189;" horiz-adv-x="1738" 
d="M582 1413q111 0 169 -67t58 -197q0 -71 -14.5 -148t-47.5 -155.5t-79.5 -140.5t-117 -101t-153.5 -39q-109 0 -166 66t-57 194q0 70 14.5 147t47 156t78.5 142t116 103t152 40zM563 1329q-72 0 -128 -55t-85.5 -138.5t-44 -165t-14.5 -151.5q0 -168 125 -168
q72 0 128.5 55t87 138t45.5 164t15 149q0 172 -129 172zM1532 1427l-1110 -1456h-109l1110 1456h109zM1133 252q-5 -12 -5 -45q0 -66 44 -105t116 -39q81 0 135 57t54 136q0 54 -40 84.5t-112 30.5h-37l25 88h22q93 0 148 44.5t55 121.5q0 55 -35 85.5t-100 30.5
q-150 0 -180 -163h-117q52 247 317 247q108 0 172 -49t64 -131q0 -76 -54.5 -138t-134.5 -83l-2 -10q125 -34 125 -150q0 -121 -94.5 -204t-230.5 -83q-106 0 -179 62.5t-73 167.5q0 17 4 45h113z" />
    <glyph glyph-name="arrowleft" unicode="&#x2190;" horiz-adv-x="1230" 
d="M1174 633v-94h-928l391 -375l-66 -66l-487 488l487 487l66 -65l-391 -375h928z" />
    <glyph glyph-name="arrowup" unicode="&#x2191;" horiz-adv-x="1077" 
d="M70 602l487 488l487 -488l-65 -65l-375 391v-928h-94v928l-375 -391z" />
    <glyph glyph-name="arrowright" unicode="&#x2192;" horiz-adv-x="1228" 
d="M690 1073l488 -487l-488 -488l-65 66l391 375h-928v94h928l-391 375z" />
    <glyph glyph-name="arrowdown" unicode="&#x2193;" horiz-adv-x="1075" 
d="M473 1057h94v-928l375 391l66 -65l-488 -488l-487 488l65 65l375 -391v928z" />
    <glyph glyph-name="uni2196" unicode="&#x2196;" horiz-adv-x="1140" 
d="M190 240v688h689v-92l-541 10l655 -656l-65 -65l-656 655l11 -540h-93z" />
    <glyph glyph-name="uni2197" unicode="&#x2197;" horiz-adv-x="1036" 
d="M137 125l-65 65l655 656l-541 -10v92h688v-688h-92l11 540z" />
    <glyph glyph-name="uni2198" unicode="&#x2198;" horiz-adv-x="1040" 
d="M903 930l66 -66l-656 -655l541 10v-92h-688v688h92l-10 -541z" />
    <glyph glyph-name="uni2199" unicode="&#x2199;" horiz-adv-x="1138" 
d="M950 815v-688h-688v92l541 -10l-656 655l66 66l655 -656l-10 541h92z" />
    <glyph glyph-name="partialdiff" unicode="&#x2202;" horiz-adv-x="1009" 
d="M492 1427q225 0 336.5 -142t111.5 -384q0 -78 -8 -160.5t-27.5 -174.5t-48.5 -176.5t-75 -162t-103.5 -134t-137.5 -90.5t-173 -34q-157 0 -243.5 96t-86.5 257q0 114 42.5 217.5t112 175.5t160.5 114.5t187 42.5q93 0 163.5 -42t98.5 -128l8 5q12 79 12 165
q0 71 -9.5 134t-33.5 123t-61 103t-96 69t-134 26h-16zM383 63q64 0 128.5 36.5t115 97t82.5 146.5t32 177q0 114 -56.5 186t-164.5 72q-95 0 -179.5 -65.5t-132.5 -168.5t-48 -212q0 -119 58.5 -194t164.5 -75z" />
    <glyph glyph-name="increment" unicode="&#x2206;" horiz-adv-x="1378" 
d="M856 1487h160l192 -1401l-22 -86h-1258l23 86zM969 948l-60 447h-4q-214 -345 -274 -439l-541 -856h993z" />
    <glyph glyph-name="product" unicode="&#x220f;" horiz-adv-x="1431" 
d="M1556 1296h-204l-383 -1548h-123l383 1548h-639l-383 -1548h-125l387 1548h-215l27 103h1302z" />
    <glyph glyph-name="summation" unicode="&#x2211;" horiz-adv-x="1148" 
d="M745 586l-479 694l29 119h962l-24 -103h-821l487 -723l-848 -712h871l-27 -113h-1014l31 129z" />
    <glyph glyph-name="minus" unicode="&#x2212;" 
d="M229 631h861v-103h-861v103z" />
    <glyph glyph-name="uni2215" unicode="&#x2215;" horiz-adv-x="264" 
d="M778 1427l-1110 -1456h-108l1110 1456h108z" />
    <glyph glyph-name="uni2219" unicode="&#x2219;" 
d="M791 793l-46 -177h-159l45 177h160z" />
    <glyph glyph-name="radical" unicode="&#x221a;" horiz-adv-x="1067" 
d="M293 848l-209 -86l-23 76l318 129l78 -752l807 1544h96l-926 -1759h-47z" />
    <glyph glyph-name="infinity" unicode="&#x221e;" 
d="M895 272q-63 0 -111.5 41t-136.5 150q-53 -80 -120.5 -135.5t-139.5 -55.5q-94 0 -156.5 76.5t-62.5 198.5q0 114 70.5 196t167.5 82q37 0 72 -16.5t67 -48.5t53 -59t49 -68q147 192 262 192q96 0 158.5 -75.5t62.5 -200.5q0 -110 -69.5 -193.5t-165.5 -83.5zM905 719
q-54 0 -98.5 -40.5t-101.5 -117.5q99 -168 202 -168q55 0 93 45t38 111q0 73 -37 121.5t-96 48.5zM393 377q29 0 55.5 12t54.5 39.5t45 47t48 59.5q-31 43 -43.5 60t-37 45.5t-40.5 39t-38.5 20t-47.5 9.5q-53 0 -90 -47.5t-37 -114.5q0 -71 36.5 -120.5t94.5 -49.5z" />
    <glyph glyph-name="integral" unicode="&#x222b;" horiz-adv-x="700" 
d="M299 102q-68 -260 -148 -364.5t-225 -104.5q-64 0 -123 27l39 92q53 -16 90 -16q79 0 134.5 75.5t103.5 260.5l227 886q64 250 147.5 361t225.5 111q64 0 123 -27l-39 -92q-53 16 -90 16q-80 0 -135 -75t-103 -261z" />
    </font>
</defs>
</svg>
