<?xml version="1.0" standalone="no"?>
<!DOCTYPE svg PUBLIC "-//W3C//DTD SVG 1.1//EN" "http://www.w3.org/Graphics/SVG/1.1/DTD/svg11.dtd" >
<svg xmlns="http://www.w3.org/2000/svg" xmlns:xlink="http://www.w3.org/1999/xlink" version="1.1">
<metadata>
Created by FontForge 20170731 at Sat Jul 18 17:22:36 2020
 By Aleksey,,,
(c) 2012-2019, Copyright by Lineto GmbH. All rights reserved.
</metadata>
<defs>
<font id="Unica77LL-ThinItalic" horiz-adv-x="1290" >
  <font-face 
    font-family="Unica77 LL Thin"
    font-weight="250"
    font-style="italic"
    font-stretch="normal"
    units-per-em="2048"
    panose-1="2 11 3 4 2 1 1 1 1 2"
    ascent="1536"
    descent="-512"
    x-height="1057"
    cap-height="1487"
    bbox="-909 -467 2693 2015"
    underline-thickness="102"
    underline-position="-409"
    slope="-14"
    unicode-range="U+000D-FEFF"
  />
<missing-glyph horiz-adv-x="1490" 
d="M311 0v1487h977v-1487h-977zM1171 109v1269h-743v-1269h743z" />
    <glyph glyph-name="f_f" unicode="ff" horiz-adv-x="1083" 
d="M408 1004l-250 -1004h-62l250 1004h-203l15 53h200l41 162q34 139 100 207.5t189 68.5q62 0 103 -8l-15 -51q-44 8 -96 8q-82 0 -135 -52.5t-82 -164.5l-43 -170h465l41 162q34 139 99.5 207.5t188.5 68.5q62 0 103 -8l-14 -51q-44 8 -97 8q-82 0 -135 -52.5t-82 -164.5
l-43 -170h250l-14 -53h-248l-250 -1004h-61l249 1004h-464z" />
    <glyph glyph-name="f_f_i" unicode="ffi" horiz-adv-x="1488" 
d="M1446 1057l-264 -1057h-62l264 1057h62zM1550 1475l-37 -148h-77l37 148h77zM408 1004l-250 -1004h-62l250 1004h-203l15 53h200l41 162q34 139 100 207.5t189 68.5q62 0 103 -8l-15 -51q-44 8 -96 8q-82 0 -135 -52.5t-82 -164.5l-43 -170h465l41 162q34 139 99.5 207.5
t188.5 68.5q62 0 103 -8l-14 -51q-44 8 -97 8q-82 0 -135 -52.5t-82 -164.5l-43 -170h250l-14 -53h-248l-250 -1004h-61l249 1004h-464z" />
    <glyph glyph-name="f_f_l" unicode="ffl" horiz-adv-x="1488" 
d="M1552 1487l-370 -1487h-62l371 1487h61zM408 1004l-250 -1004h-62l250 1004h-203l15 53h200l41 162q34 139 100 207.5t189 68.5q62 0 103 -8l-15 -51q-44 8 -96 8q-82 0 -135 -52.5t-82 -164.5l-43 -170h465l41 162q34 139 99.5 207.5t188.5 68.5q62 0 103 -8l-14 -51
q-44 8 -97 8q-82 0 -135 -52.5t-82 -164.5l-43 -170h250l-14 -53h-248l-250 -1004h-61l249 1004h-464z" />
    <glyph glyph-name="f_i" unicode="fi" horiz-adv-x="946" 
d="M399 1219q34 139 100 207.5t189 68.5q62 0 103 -8l-15 -51q-44 8 -96 8q-82 0 -135 -52.5t-82 -164.5l-43 -170h250l-15 -53h-247l-250 -1004h-62l250 1004h-203l15 53h200zM903 1057l-264 -1057h-61l264 1057h61zM1008 1475l-37 -148h-78l37 148h78z" />
    <glyph glyph-name="f_l" unicode="fl" horiz-adv-x="962" 
d="M399 1219q34 139 100 207.5t189 68.5q62 0 103 -8l-15 -51q-44 8 -96 8q-82 0 -135 -52.5t-82 -164.5l-43 -170h250l-15 -53h-247l-250 -1004h-62l250 1004h-203l15 53h200zM1026 1487l-371 -1487h-61l371 1487h61z" />
    <glyph glyph-name=".notdef" horiz-adv-x="1490" 
d="M311 0v1487h977v-1487h-977zM1171 109v1269h-743v-1269h743z" />
    <glyph glyph-name=".null" horiz-adv-x="0" 
 />
    <glyph glyph-name="nonmarkingreturn" horiz-adv-x="682" 
 />
    <glyph glyph-name="NULL" horiz-adv-x="0" 
 />
    <glyph glyph-name="NULL" horiz-adv-x="0" 
 />
    <glyph glyph-name="CR" unicode="&#xd;" horiz-adv-x="409" 
 />
    <glyph glyph-name="space" unicode=" " horiz-adv-x="409" 
 />
    <glyph glyph-name="exclam" unicode="!" horiz-adv-x="456" 
d="M434 1487h70l-309 -1178h-45zM78 123h102l-30 -123h-103z" />
    <glyph glyph-name="quotedbl" unicode="&#x22;" horiz-adv-x="555" 
d="M563 1399h70l-127 -451h-33zM342 1399h70l-127 -451h-33z" />
    <glyph glyph-name="numbersign" unicode="#" horiz-adv-x="1179" 
d="M289 453h-242l29 45h233l197 424h-238l27 45h231l201 432h59l-202 -432h336l200 432h60l-203 -432h246l-25 -45h-244l-196 -424h243l-26 -45h-240l-211 -453h-51l209 453h-340l-211 -453h-51zM702 498l197 424h-338l-196 -424h337z" />
    <glyph glyph-name="dollar" unicode="$" horiz-adv-x="1140" 
d="M410 -16q-178 19 -262.5 110.5t-84.5 257.5q0 51 9 109h61q-10 -65 -10 -105q0 -286 299 -321l166 665l-23 9q-67 23 -118 48.5t-96 63t-69 88.5t-24 115q0 126 67 218.5t170 136.5t224 44q8 0 24 -1t23 -1l41 160h53l-41 -166q150 -23 228.5 -112t78.5 -242
q0 -57 -6 -88h-61q6 31 6 80q0 134 -67.5 211t-192.5 98l-154 -625l23 -6q59 -20 104 -38.5t90.5 -46.5t75 -59t48 -74.5t18.5 -94.5q0 -131 -72 -233t-186.5 -155t-247.5 -53q-22 0 -43 3l-45 -189h-54zM475 31h35q117 0 218.5 53t160.5 142t59 190q0 53 -24.5 96.5t-71 75
t-96 54t-115.5 42.5h-4zM319 1030q0 -54 22.5 -98.5t64 -77t87 -55.5t105.5 -43l2 -2l154 614q-7 0 -20.5 1t-20.5 1q-163 0 -278.5 -93.5t-115.5 -246.5z" />
    <glyph glyph-name="percent" unicode="%" horiz-adv-x="1757" 
d="M406 621q65 0 122.5 38t97.5 98.5t69 135t43 147.5t14 136q0 96 -46.5 147t-121.5 51q-65 0 -122.5 -38t-97.5 -98.5t-69 -135t-43 -147.5t-14 -136q0 -96 46.5 -147t121.5 -51zM399 573q-105 0 -164 65t-59 183q0 72 15.5 151t49 159.5t80.5 144.5t117 104.5t152 40.5
q105 0 164 -64.5t59 -182.5q0 -72 -15.5 -151.5t-49 -160t-80.5 -144.5t-117 -104.5t-152 -40.5zM1503 1425l-1118 -1458h-57l1118 1458h57zM1260 25q65 0 122.5 38t97.5 98.5t69 135t43 147.5t14 136q0 96 -46.5 147t-121.5 51q-65 0 -122.5 -38t-97.5 -98.5t-69 -135
t-43 -147.5t-14 -136q0 -96 46.5 -147t121.5 -51zM1253 -23q-105 0 -164 65t-59 183q0 72 15.5 151t49 159.5t80.5 144.5t117 104.5t152 40.5q105 0 164 -64.5t59 -182.5q0 -72 -15.5 -151.5t-49 -160t-80.5 -144.5t-117 -104.5t-152 -40.5z" />
    <glyph glyph-name="ampersand" unicode="&#x26;" horiz-adv-x="1286" 
d="M1028 1266q0 -45 -9.5 -86t-31 -76t-44 -64.5t-59.5 -58t-67 -49.5t-77 -46t-78 -40t-82 -39l354 -518q187 215 254 481h55q-80 -305 -276 -526l166 -244h-66l-137 203q-228 -228 -500 -228q-182 0 -279.5 89t-97.5 229q0 90 36 170.5t102.5 145.5t143 115t173.5 97
q-119 180 -119 314q0 154 103 259t262 105q126 0 200 -68t74 -165zM119 297q0 -125 91 -196.5t234 -71.5q235 0 453 221l-365 536q-61 -30 -114.5 -63t-110.5 -80t-97 -97.5t-65.5 -115t-25.5 -133.5zM444 1139q0 -132 111 -295q159 76 218 113q195 131 198 300
q0 83 -61.5 140t-159.5 57q-129 0 -217.5 -89.5t-88.5 -225.5z" />
    <glyph glyph-name="quotesingle" unicode="'" horiz-adv-x="333" 
d="M342 1399h70l-127 -451h-33z" />
    <glyph glyph-name="parenleft" unicode="(" horiz-adv-x="487" 
d="M170 -217q-74 310 -74 518q0 581 506 1215h53q-109 -148 -191 -281t-154.5 -287.5t-111 -318.5t-38.5 -328q0 -211 59 -518h-49z" />
    <glyph glyph-name="parenright" unicode=")" horiz-adv-x="485" 
d="M-109 -217q110 148 191.5 280.5t154.5 287.5t111.5 318.5t38.5 327.5q0 212 -59 519h49q74 -310 74 -519q0 -580 -506 -1214h-54z" />
    <glyph glyph-name="asterisk" unicode="*" horiz-adv-x="782" 
d="M545 1149l-197 -199l-37 39l215 197l-245 135l26 45l232 -145l49 278l61 -12l-69 -273l272 37l6 -53l-280 -22l114 -269l-47 -20z" />
    <glyph glyph-name="plus" unicode="+" 
d="M260 606h377v385h49v-385h369v-49h-369v-385h-49v385h-377v49z" />
    <glyph glyph-name="comma" unicode="," horiz-adv-x="331" 
d="M55 8h-51l29 115h102l-31 -123l-116 -270h-51z" />
    <glyph glyph-name="hyphen" unicode="-" horiz-adv-x="706" 
d="M156 623h442l-14 -54h-443z" />
    <glyph glyph-name="period" unicode="." horiz-adv-x="372" 
d="M55 123h103l-31 -123h-102z" />
    <glyph glyph-name="slash" unicode="/" horiz-adv-x="768" 
d="M862 1487h64l-908 -1487h-63z" />
    <glyph glyph-name="zero" unicode="0" horiz-adv-x="1191" 
d="M819 1417q164 0 248 -105t84 -300q0 -104 -19 -218t-55.5 -231t-96 -222t-133.5 -187t-174.5 -130.5t-213.5 -48.5q-164 0 -248 105.5t-84 300.5q0 88 13.5 185t42 198t69 195.5t98.5 178t126.5 145.5t157 98t185.5 36zM811 1362q-100 0 -190 -47t-156.5 -126
t-120 -179.5t-86.5 -211t-50.5 -217.5t-17.5 -202q0 -177 74.5 -262.5t202.5 -85.5q86 0 164.5 35t139.5 95t113.5 140t89 170.5t62.5 185.5t38.5 185.5t12.5 171.5q0 177 -74 262.5t-202 85.5z" />
    <glyph glyph-name="one" unicode="1" horiz-adv-x="620" 
d="M504 1147q-33 -33 -101.5 -50.5t-113 -19.5t-109.5 -2l15 53q73 2 124.5 8t90.5 20.5t63.5 32.5t43.5 51.5t30.5 68t25.5 90.5h54l-348 -1399h-62z" />
    <glyph glyph-name="two" unicode="2" horiz-adv-x="1046" 
d="M498 549q-83 -44 -149 -90.5t-128.5 -106.5t-106 -135t-63.5 -160h791l-15 -57h-858l6 25q46 185 159.5 319.5t342.5 253.5l94 49q60 31 99 53.5t97 60t95.5 74t74.5 83.5t55 102.5t18 116.5q0 102 -69.5 164.5t-190.5 62.5q-141 0 -262 -92t-166 -240h-62
q51 170 185.5 277.5t310.5 107.5q147 0 234 -74t87 -198q0 -46 -9.5 -89.5t-24 -79t-40.5 -71.5t-49.5 -62.5t-62.5 -57.5t-67.5 -51.5t-76 -48.5t-76.5 -44t-79 -43z" />
    <glyph glyph-name="three" unicode="3" horiz-adv-x="1060" 
d="M129 360q-4 -28 -4 -53q0 -127 85.5 -202.5t219.5 -75.5q77 0 151.5 27.5t133.5 76t95 123t36 162.5q0 129 -96.5 200.5t-249.5 71.5q-32 0 -82 -4l16 62q58 -5 76 -5q80 0 158.5 27.5t142.5 76.5t103.5 126t39.5 168q0 104 -74 163.5t-180 59.5q-85 0 -166.5 -34
t-143.5 -101.5t-81 -155.5h-61q24 106 95.5 186t164.5 119t194 39q131 0 223.5 -73t92.5 -203q0 -159 -93 -262.5t-257 -153.5l-2 -8q107 -20 175 -105t68 -192q0 -194 -140 -319.5t-345 -125.5q-171 0 -267 85.5t-96 228.5q0 27 7 71h61z" />
    <glyph glyph-name="four" unicode="4" horiz-adv-x="1044" 
d="M985 1399l-233 -936h225l-16 -57h-224l-100 -406h-62l101 406h-662l15 49l878 944h78zM690 463l115 455q64 265 110 409h-8l-803 -864h586z" />
    <glyph glyph-name="five" unicode="5" horiz-adv-x="1062" 
d="M129 293q0 -125 73.5 -194.5t194.5 -69.5q136 0 248.5 77t174 200.5t61.5 262.5q0 122 -65 196.5t-185 74.5q-125 0 -229 -61.5t-203 -196.5h-58l285 817h688l-14 -58h-631l-221 -628q64 81 170.5 130.5t226.5 49.5q140 0 220.5 -84t80.5 -231q0 -157 -67 -293.5
t-196 -223t-292 -86.5q-152 0 -236.5 79.5t-84.5 217.5q0 36 6 80h57q-4 -46 -4 -59z" />
    <glyph glyph-name="six" unicode="6" horiz-adv-x="1075" 
d="M999 1090q2 16 2 47q0 102 -62.5 163.5t-182.5 61.5q-97 0 -188.5 -65.5t-162 -175t-123 -245.5t-79.5 -282q62 134 180 208.5t260 74.5q146 0 230.5 -93.5t84.5 -248.5q0 -99 -36.5 -198.5t-99.5 -180t-158 -131t-203 -50.5q-91 0 -159.5 30.5t-106.5 82t-56 110.5
t-18 124q0 141 28 293t84.5 294.5t132 256t179.5 182.5t219 69q134 0 216.5 -69t82.5 -195q0 -35 -4 -63h-60zM895 522q0 135 -72 218t-194 83q-120 0 -224 -70.5t-163.5 -184t-59.5 -238.5q0 -131 79 -216t206 -85q116 0 216 73t156 186t56 234z" />
    <glyph glyph-name="seven" unicode="7" horiz-adv-x="878" 
d="M162 0q79 188 152 341.5t171 331t218.5 346.5t259.5 322h-727l14 58h794l-14 -58q-469 -533 -801 -1341h-67z" />
    <glyph glyph-name="eight" unicode="8" horiz-adv-x="1107" 
d="M141 291q0 -123 90.5 -192.5t221.5 -69.5q111 0 212 49.5t165.5 142.5t64.5 207t-94 192t-215 78q-106 0 -207.5 -51t-169.5 -146.5t-68 -209.5zM332 983q0 -103 75 -167t193 -64q101 0 196.5 45.5t159.5 132.5t64 194q0 104 -81.5 171t-197.5 67q-101 0 -194 -45.5
t-154 -134t-61 -199.5zM958 434q0 -100 -43 -187t-114.5 -146t-164 -92.5t-190.5 -33.5t-180 34t-135 106.5t-53 171.5q0 161 100 272t262 164v8q-78 25 -125 93.5t-47 156.5q0 128 68 229t177.5 154t236.5 53q137 0 234 -77t97 -210q0 -144 -95 -250t-243 -153v-8
q88 -35 151.5 -113t63.5 -172z" />
    <glyph glyph-name="nine" unicode="9" horiz-adv-x="1093" 
d="M147 303q-2 -14 -2 -33q0 -114 80.5 -176.5t202.5 -62.5q103 0 193.5 63t157.5 172t116 246t78 295q-62 -127 -175.5 -195.5t-254.5 -68.5q-146 0 -239 98t-93 252q0 96 36.5 189.5t100 168t159 120.5t204.5 46q91 0 159.5 -30.5t106.5 -81.5t56 -110t18 -124
q0 -149 -25 -301.5t-78 -295.5t-126 -254t-177.5 -178t-224.5 -67q-147 0 -240.5 75t-93.5 210q0 29 2 43h59zM274 905q0 -133 80 -221t203 -88q118 0 219.5 71t157 178t55.5 218q0 131 -78.5 216t-205.5 85q-115 0 -216 -67.5t-158 -173t-57 -218.5z" />
    <glyph glyph-name="colon" unicode=":" horiz-adv-x="403" 
d="M279 1057h102l-31 -123h-102zM53 123h103l-31 -123h-102z" />
    <glyph glyph-name="semicolon" unicode=";" horiz-adv-x="403" 
d="M76 8h-51l28 115h103l-31 -123l-117 -270h-51zM279 1057h102l-31 -123h-102z" />
    <glyph glyph-name="less" unicode="&#x3c;" 
d="M999 172v-57l-794 417v50l794 417v-57l-737 -385z" />
    <glyph glyph-name="equal" unicode="=" 
d="M256 426h795v-49h-795v49zM256 754h795v-49h-795v49z" />
    <glyph glyph-name="greater" unicode="&#x3e;" 
d="M305 999l795 -417v-50l-795 -417v57l737 385l-737 385v57z" />
    <glyph glyph-name="question" unicode="?" horiz-adv-x="942" 
d="M356 365q21 98 67 181.5t102 141.5t118.5 110.5t120.5 99t105 95.5t75.5 112t28.5 136q0 99 -72 157t-196 58q-146 0 -266.5 -88t-168.5 -244h-57q51 170 185.5 277.5t312.5 107.5q145 0 235 -69t90 -189q0 -79 -28.5 -147.5t-76.5 -120.5t-106.5 -100.5t-121.5 -100
t-119 -107t-102.5 -133.5t-67.5 -167l-17 -66h-53zM281 123h102l-31 -123h-102z" />
    <glyph glyph-name="at" unicode="@" horiz-adv-x="1757" 
d="M1319 -74q-165 -86 -312 -125t-302 -39q-167 0 -305 70.5t-223 209.5t-85 323q0 132 36.5 266.5t102 256t161.5 227.5t209.5 184t252.5 122.5t285 44.5q282 0 452 -142.5t170 -375.5q0 -70 -14 -150.5t-41.5 -165t-71.5 -162t-98.5 -139t-129 -98t-157.5 -36.5
q-31 0 -62 8.5t-62 27t-50.5 54t-19.5 82.5q0 26 6 53q-71 -113 -166 -169t-180 -56q-97 0 -154 67t-57 174q0 77 26 164.5t76 170.5t114 150.5t148.5 108.5t171.5 41t139.5 -51.5t59.5 -153.5l92 189h53q-213 -411 -268 -615q-8 -27 -8 -61q0 -72 45 -103.5t107 -31.5
q81 0 154.5 48.5t125 125.5t90.5 170t57.5 184t18.5 166q0 112 -45.5 204t-123.5 152t-181.5 92.5t-220.5 32.5q-194 0 -377.5 -89.5t-315.5 -234.5t-212 -335.5t-80 -386.5q0 -129 44.5 -237t121 -179.5t179.5 -111.5t220 -40q293 0 590 162zM1178 852q0 74 -36 123
t-116 49q-87 0 -174 -58t-148.5 -145t-100 -188t-38.5 -187q0 -99 46.5 -149.5t115.5 -50.5q98 0 191 79t155.5 194.5t93.5 242.5q11 57 11 90z" />
    <glyph glyph-name="A" unicode="A" horiz-adv-x="1333" 
d="M283 489l-320 -489h-74l985 1487h64l244 -1487h-72l-76 489h-751zM883 1401l-383 -582l-178 -272h702l-41 272q-9 56 -42.5 264.5t-49.5 317.5h-8z" />
    <glyph glyph-name="B" unicode="B" horiz-adv-x="1232" 
d="M864 1487q182 0 274.5 -78.5t92.5 -204.5q0 -163 -97.5 -280t-261.5 -160v-4q87 -13 154.5 -89.5t67.5 -185.5q0 -120 -48.5 -214.5t-131.5 -152.5t-188 -88t-224 -30h-424l371 1487h415zM154 57h362q78 0 151.5 16t139 50.5t115 84t78 119.5t28.5 154q0 116 -85 183
t-226 67h-395zM336 793h397q82 0 160 30.5t138 83t97 129.5t37 164q0 105 -84 167.5t-231 62.5h-354z" />
    <glyph glyph-name="C" unicode="C" horiz-adv-x="1384" 
d="M946 1444q-131 0 -249.5 -57.5t-206 -153.5t-152.5 -218t-98 -254t-33 -259q0 -217 110.5 -342t305.5 -125q197 0 363 128t235 331h69q-39 -127 -115.5 -228.5t-170 -163t-193.5 -93.5t-197 -32q-223 0 -349 143.5t-126 381.5q0 110 25.5 226t72 227.5t119 210.5
t160 173.5t201 118t237.5 43.5q215 0 335 -113.5t120 -330.5q0 -14 -4 -60h-64q2 18 2 47q0 193 -99 296.5t-298 103.5z" />
    <glyph glyph-name="D" unicode="D" horiz-adv-x="1474" 
d="M791 1487q172 0 299 -36.5t203 -105t112.5 -159.5t36.5 -207q0 -156 -42 -300.5t-126 -268t-200.5 -215t-274.5 -143.5t-340 -52h-381l371 1487h342zM154 61h323q200 0 370 73t284.5 197.5t178.5 291.5t64 354q0 448 -592 448h-288z" />
    <glyph glyph-name="E" unicode="E" horiz-adv-x="1183" 
d="M1315 1487l-15 -57h-804l-158 -629h766l-17 -58h-763l-170 -686h829l-14 -57h-891l371 1487h866z" />
    <glyph glyph-name="F" unicode="F" horiz-adv-x="1110" 
d="M1282 1487l-14 -57h-772l-162 -646h733l-16 -57h-732l-180 -727h-61l371 1487h833z" />
    <glyph glyph-name="G" unicode="G" horiz-adv-x="1417" 
d="M598 -23q-216 0 -337.5 143.5t-121.5 381.5q0 110 25.5 226t72 227.5t119 210.5t160 173.5t201 118t237.5 43.5q207 0 331 -96t124 -266q0 -14 -4 -60h-64q2 18 2 47q0 149 -105.5 233.5t-291.5 84.5q-131 0 -249.5 -57.5t-206 -153.5t-152.5 -218t-98 -254t-33 -259
q0 -218 105.5 -342.5t293.5 -124.5q129 0 236.5 45.5t186 130t133.5 195t91 249.5l17 68h-486l15 53h547l-195 -776h-55q21 114 61 274h-8q-113 -151 -244.5 -224t-306.5 -73z" />
    <glyph glyph-name="H" unicode="H" horiz-adv-x="1445" 
d="M322 735l-183 -735h-61l371 1487h61l-174 -694h905l174 694h62l-371 -1487h-62l183 735h-905z" />
    <glyph glyph-name="I" unicode="I" horiz-adv-x="479" 
d="M510 1487l-371 -1487h-61l371 1487h61z" />
    <glyph glyph-name="J" unicode="J" horiz-adv-x="624" 
d="M-80 53q44 -8 96 -8q117 0 193.5 80.5t128.5 284.5l268 1077h62l-269 -1077q-21 -80 -40 -135t-51 -113t-71 -92t-98.5 -56t-134.5 -22q-57 0 -98 8z" />
    <glyph glyph-name="K" unicode="K" horiz-adv-x="1110" 
d="M510 1487l-168 -674l866 674h86l-891 -692l594 -795h-73l-590 784l-195 -784h-61l371 1487h61z" />
    <glyph glyph-name="L" unicode="L" horiz-adv-x="1097" 
d="M510 1487l-356 -1430h813l-15 -57h-874l371 1487h61z" />
    <glyph glyph-name="M" unicode="M" horiz-adv-x="1789" 
d="M494 1384h-9l-346 -1384h-61l371 1487h94l248 -1403l929 1403h101l-371 -1487h-61l346 1384h-9l-923 -1384h-60z" />
    <glyph glyph-name="N" unicode="N" horiz-adv-x="1445" 
d="M485 1384l-346 -1384h-61l371 1487h73l539 -1385h8l346 1385h62l-371 -1487h-74l-538 1384h-9z" />
    <glyph glyph-name="O" unicode="O" horiz-adv-x="1509" 
d="M641 35q136 0 259 55.5t214 149t158.5 213.5t102 253t34.5 263q0 227 -115 353t-317 126q-136 0 -259 -55.5t-214 -149t-158.5 -213.5t-102 -253t-34.5 -263q0 -227 115 -353t317 -126zM635 -23q-232 0 -363 141t-131 394q0 112 26.5 228.5t75 227t123.5 208t165.5 171
t207.5 116t244 42.5q232 0 363 -140.5t131 -393.5q0 -136 -36.5 -276t-109.5 -268.5t-172.5 -229t-235.5 -160.5t-288 -60z" />
    <glyph glyph-name="P" unicode="P" horiz-adv-x="1210" 
d="M881 1487q207 0 307 -80t100 -225q0 -221 -160.5 -357.5t-420.5 -136.5h-396l-172 -688h-61l371 1487h432zM326 750h397q137 0 249 49.5t180.5 148t68.5 230.5q0 126 -95 186.5t-262 60.5h-370z" />
    <glyph glyph-name="Q" unicode="Q" horiz-adv-x="1509" 
d="M635 -23q-232 0 -363 141t-131 394q0 112 26.5 228.5t75 227t123.5 208t165.5 171t207.5 116t244 42.5q232 0 363 -140.5t131 -393.5q0 -233 -105.5 -463.5t-290.5 -374.5l117 -172l-53 -35l-115 170q-185 -119 -395 -119zM641 35q191 0 356 108l-166 246l52 35l164 -242
q167 131 264.5 349t97.5 438q0 227 -115 353t-317 126q-136 0 -259 -55.5t-214 -149t-158.5 -213.5t-102 -253t-34.5 -263q0 -227 115 -353t317 -126z" />
    <glyph glyph-name="R" unicode="R" horiz-adv-x="1249" 
d="M840 1487q393 0 393 -287q0 -191 -103 -309t-292 -164v-8q133 -48 153 -244l53 -475h-65l-53 475q-13 118 -76.5 172.5t-185.5 54.5h-351l-174 -702h-61l371 1487h391zM328 760h360q93 0 178.5 29t152 82t106.5 136.5t40 184.5q0 124 -85.5 178.5t-245.5 54.5h-340z" />
    <glyph glyph-name="S" unicode="S" horiz-adv-x="1175" 
d="M1104 1135q0 147 -94 232t-254 85q-81 0 -153 -19t-131.5 -57t-94.5 -102.5t-35 -147.5q0 -46 12 -85t39 -71t53.5 -55.5t72.5 -47.5t78 -38.5t87 -37.5q54 -23 77.5 -33.5t71 -34.5t70.5 -41.5t56 -47.5t48.5 -59.5t27.5 -70t12 -86.5q0 -112 -43.5 -198.5
t-118.5 -138.5t-166 -78t-193 -26q-222 0 -335 101t-113 274q0 57 8 109h61q-10 -65 -10 -105q0 -154 104.5 -239.5t290.5 -85.5q122 0 222 42.5t163.5 132t63.5 210.5q0 38 -10.5 71.5t-24.5 58.5t-42.5 50.5t-50 41t-63.5 36.5t-66 31.5t-73 31.5q-52 21 -80 33.5t-74 36
t-72 42.5t-58.5 49t-49.5 60.5t-29 72.5t-12 89q0 97 41.5 173t112 121t155 68t177.5 23q194 0 298.5 -98.5t104.5 -263.5q0 -57 -8 -88h-61q8 36 8 80z" />
    <glyph glyph-name="T" unicode="T" horiz-adv-x="1105" 
d="M1323 1487l-14 -57h-502l-356 -1430h-62l356 1430h-501l14 57h1065z" />
    <glyph glyph-name="U" unicode="U" horiz-adv-x="1396" 
d="M250 508q-23 -104 -23 -164q0 -303 375 -303q210 0 347.5 126.5t189.5 340.5l243 979h62l-244 -979q-129 -524 -604 -524q-213 0 -321.5 89.5t-108.5 262.5q0 85 22 172l244 979h62z" />
    <glyph glyph-name="V" unicode="V" horiz-adv-x="1253" 
d="M518 86q75 112 156 242l717 1159h75l-931 -1487h-78l-191 1487h70l141 -1159q21 -171 33 -242h8z" />
    <glyph glyph-name="W" unicode="W" horiz-adv-x="1824" 
d="M2025 1487l-786 -1487h-78l-33 1386h-8l-723 -1386h-78l-38 1487h69l27 -1385h8l723 1385h78l35 -1385h8l729 1385h67z" />
    <glyph glyph-name="X" unicode="X" horiz-adv-x="1202" 
d="M625 766l-340 721h67l318 -674l647 674h82l-703 -731l357 -756h-68l-334 709l-680 -709h-82z" />
    <glyph glyph-name="Y" unicode="Y" horiz-adv-x="1155" 
d="M268 1487h66l291 -764l669 764h72l-723 -817l-166 -670h-61l166 674z" />
    <glyph glyph-name="Z" unicode="Z" horiz-adv-x="1085" 
d="M1153 1427h-862l16 60h936l-16 -64l-1204 -1366h919l-14 -57h-1000l15 61z" />
    <glyph glyph-name="bracketleft" unicode="[" horiz-adv-x="548" 
d="M438 1487h303l-12 -45h-244l-403 -1612h248l-13 -45h-303z" />
    <glyph glyph-name="backslash" unicode="\" horiz-adv-x="722" 
d="M301 1487h57l170 -1487h-57z" />
    <glyph glyph-name="bracketright" unicode="]" horiz-adv-x="548" 
d="M-127 -170h244l403 1612h-248l13 45h303l-424 -1702h-303z" />
    <glyph glyph-name="asciicircum" unicode="^" 
d="M362 688h-57l369 799h49l369 -799h-58l-336 742z" />
    <glyph glyph-name="underscore" unicode="_" horiz-adv-x="978" 
d="M-178 -195h977l-15 -53h-977z" />
    <glyph glyph-name="grave" unicode="`" horiz-adv-x="1144" 
d="M662 1487h88l151 -250h-59z" />
    <glyph glyph-name="a" unicode="a" horiz-adv-x="1048" 
d="M870 690q19 74 19 129q0 209 -244 209q-139 0 -246 -78.5t-135 -197.5h-65q38 143 161 236t291 93q299 0 299 -250q0 -59 -18 -135q-99 -394 -127 -518t-33 -178h-67q22 120 40 199q-174 -222 -428 -222q-130 0 -205 61.5t-75 166.5q0 83 29.5 148t87.5 109.5t128.5 75.5
t169.5 50t191.5 29t212.5 16zM104 205q0 -47 20 -82t53.5 -54.5t70.5 -28.5t76 -9q153 0 292.5 107t182.5 270l43 172q-82 -4 -141 -8.5t-141.5 -16.5t-140.5 -28t-121.5 -44.5t-103 -65t-65 -91t-25.5 -121.5z" />
    <glyph glyph-name="b" unicode="b" horiz-adv-x="1155" 
d="M305 801q66 123 185 200.5t243 77.5q149 0 243.5 -96.5t94.5 -280.5q0 -93 -22.5 -191.5t-70 -194.5t-113.5 -171t-162 -121.5t-207 -46.5q-137 0 -225 68.5t-107 183.5l-58 -229h-61l371 1487h61zM733 1026q-90 0 -173 -44t-145 -116.5t-108.5 -163t-70 -187
t-23.5 -185.5q0 -136 77.5 -217.5t211.5 -81.5q92 0 173.5 41t140.5 109t102 155t64.5 181t21.5 185q0 141 -71.5 232.5t-199.5 91.5z" />
    <glyph glyph-name="c" unicode="c" horiz-adv-x="1058" 
d="M446 -23q-169 0 -265.5 97t-96.5 280q0 94 24 193.5t74 194.5t119 170t167.5 121t211.5 46q153 0 246.5 -83.5t93.5 -241.5v-43h-66v43q0 122 -72 197t-208 75q-115 0 -215.5 -63.5t-166 -162.5t-103 -216.5t-37.5 -229.5q0 -147 81 -235t220 -88q135 0 254 92t163 231
h62q-50 -166 -183 -271.5t-303 -105.5z" />
    <glyph glyph-name="d" unicode="d" horiz-adv-x="1159" 
d="M854 252q-64 -121 -184 -198t-242 -77q-150 0 -247 97t-97 280q0 93 23.5 192t73 194.5t117.5 170.5t165.5 121.5t208.5 46.5q133 0 218.5 -68.5t106.5 -181.5l164 658h62l-371 -1487h-61zM428 31q90 0 173 44t145 116.5t108.5 163t70 187t23.5 185.5q0 137 -74.5 218
t-207.5 81q-114 0 -213 -62.5t-163.5 -161t-101 -216.5t-36.5 -232q0 -140 74 -231.5t202 -91.5z" />
    <glyph glyph-name="e" unicode="e" horiz-adv-x="1064" 
d="M422 -23q-158 0 -248 97t-90 280q0 94 23.5 193.5t73 194.5t117.5 170t165.5 121t208.5 46q87 0 151 -26.5t101 -74.5t54 -108.5t17 -134.5q0 -96 -28 -211h-797q-18 -86 -18 -170q0 -147 74 -235t202 -88q120 0 234 76.5t172 189.5h61q-73 -151 -195.5 -235.5
t-277.5 -84.5zM666 1026q-87 0 -166.5 -37.5t-139 -101.5t-104 -142t-72.5 -167h727q19 97 19 157q0 291 -264 291z" />
    <glyph glyph-name="f" unicode="f" horiz-adv-x="557" 
d="M399 1219q34 139 100 207.5t189 68.5q62 0 103 -8l-15 -51q-44 8 -96 8q-82 0 -135 -52.5t-82 -164.5l-43 -170h250l-15 -53h-247l-250 -1004h-62l250 1004h-203l15 53h200z" />
    <glyph glyph-name="g" unicode="g" horiz-adv-x="1146" 
d="M854 299q-69 -122 -185.5 -198t-234.5 -76q-150 0 -247 92.5t-97 267.5q0 88 23.5 183t73 186.5t117.5 163.5t165.5 116.5t208.5 44.5q127 0 207 -62.5t104 -174.5l55 215h62l-232 -922q-25 -99 -54 -175.5t-75 -150t-104 -121.5t-141.5 -77t-186.5 -29q-157 0 -238 75
t-81 187q0 30 10 82h57q-6 -30 -6 -61q0 -103 68.5 -166.5t195.5 -63.5q94 0 172 32t128.5 79.5t91 118t62.5 133t40 137.5zM434 78q90 0 172 42t142 111t104.5 155.5t67 178.5t22.5 176q0 132 -69 208.5t-201 76.5q-92 0 -175 -39t-143.5 -104.5t-105.5 -148.5t-67.5 -173
t-22.5 -176q0 -133 74 -220t202 -87z" />
    <glyph glyph-name="h" unicode="h" horiz-adv-x="1122" 
d="M477 1487l-160 -635q161 227 410 227q146 0 218.5 -62t72.5 -181q0 -74 -25 -172l-166 -664h-61l164 655q24 108 24 162q0 107 -60 157t-179 50q-46 0 -94.5 -12.5t-105.5 -44.5t-105.5 -81.5t-92.5 -131.5t-69 -185l-142 -569h-61l371 1487h61z" />
    <glyph glyph-name="i" unicode="i" horiz-adv-x="413" 
d="M371 1057l-265 -1057h-61l264 1057h62zM475 1475l-37 -148h-78l37 148h78z" />
    <glyph glyph-name="j" unicode="j" horiz-adv-x="413" 
d="M371 1057l-277 -1106q-12 -47 -20.5 -76.5t-24 -73t-31 -71t-40 -59t-52.5 -49.5t-66.5 -30t-84.5 -12q-35 0 -72 6l14 58q30 -9 64 -9t63.5 10t51.5 25t41 41t32 50.5t26 60t20.5 63t17.5 66.5l276 1106h62zM475 1475l-37 -148h-78l37 148h78z" />
    <glyph glyph-name="k" unicode="k" horiz-adv-x="899" 
d="M477 1487l-221 -881l625 451h90l-645 -465l458 -592h-77l-455 588l-146 -588h-61l371 1487h61z" />
    <glyph glyph-name="l" unicode="l" horiz-adv-x="413" 
d="M477 1487l-371 -1487h-61l371 1487h61z" />
    <glyph glyph-name="m" unicode="m" horiz-adv-x="1679" 
d="M371 1057l-52 -205q60 96 159.5 161.5t221.5 65.5q123 0 178.5 -60t57.5 -177q57 99 167.5 168t233.5 69q125 0 181.5 -61t56.5 -182q0 -79 -29 -193l-162 -643h-61l160 635q28 118 28 182q0 109 -44 158t-142 49q-39 0 -81.5 -11t-93.5 -39.5t-96 -72t-86.5 -114.5
t-66.5 -160l-156 -627h-61l164 655q24 101 24 162q0 109 -43 158t-141 49q-39 0 -82.5 -12t-95 -42t-97 -74t-87 -115.5t-66.5 -159.5l-154 -621h-61l264 1057h62z" />
    <glyph glyph-name="n" unicode="n" horiz-adv-x="1122" 
d="M371 1057l-52 -203q159 225 408 225q146 0 218.5 -62t72.5 -181q0 -74 -25 -172l-166 -664h-61l164 655q24 108 24 162q0 107 -60 157t-179 50q-47 0 -94.5 -11.5t-104 -43t-105 -80.5t-92.5 -131.5t-71 -188.5l-142 -569h-61l264 1057h62z" />
    <glyph glyph-name="o" unicode="o" horiz-adv-x="1116" 
d="M444 31q115 0 215.5 62.5t166.5 160.5t103.5 216t37.5 232q0 147 -79 235.5t-214 88.5q-92 0 -176 -41t-146 -109t-108 -155t-69 -181.5t-23 -185.5q0 -147 78.5 -235t213.5 -88zM438 -23q-165 0 -259.5 97t-94.5 280q0 94 24 193.5t74 194.5t119 170t167.5 121t211.5 46
q165 0 259.5 -97t94.5 -280q0 -94 -24 -193.5t-74 -194.5t-119 -170t-167.5 -121t-211.5 -46z" />
    <glyph glyph-name="p" unicode="p" horiz-adv-x="1155" 
d="M307 803q66 123 184.5 199.5t241.5 76.5q149 0 243.5 -96.5t94.5 -280.5q0 -93 -22 -191.5t-69 -194.5t-112.5 -171t-161 -121.5t-206.5 -46.5q-138 0 -226.5 70t-107.5 189l-162 -648h-61l366 1469h62zM733 1026q-90 0 -173 -44t-145 -116.5t-108.5 -163t-70 -187
t-23.5 -185.5q0 -136 79.5 -217.5t213.5 -81.5q92 0 173.5 41t140 109t101 155t63 181t20.5 185q0 141 -71.5 232.5t-199.5 91.5z" />
    <glyph glyph-name="q" unicode="q" horiz-adv-x="1159" 
d="M854 254q-66 -123 -184.5 -200t-241.5 -77q-150 0 -247 97t-97 280q0 93 23.5 192t73 194.5t117.5 170.5t165.5 121.5t208.5 46.5q136 0 221 -68.5t104 -183.5l58 230h61l-366 -1469h-62zM428 31q90 0 173 44t145 116.5t108.5 163t70 187t23.5 185.5q0 137 -74.5 218
t-207.5 81q-114 0 -213 -62.5t-163.5 -161t-101 -216.5t-36.5 -232q0 -140 74 -231.5t202 -91.5z" />
    <glyph glyph-name="r" unicode="r" horiz-adv-x="679" 
d="M371 1057l-52 -205q69 106 170 158.5t216 52.5q43 0 86 -6l-17 -60q-51 7 -80 7q-159 0 -275 -108.5t-161 -289.5l-152 -606h-61l264 1057h62z" />
    <glyph glyph-name="s" unicode="s" horiz-adv-x="964" 
d="M745 295q0 55 -24.5 95t-64 61t-90.5 39t-103.5 29t-103.5 31t-90.5 44t-64 69.5t-24.5 106.5q0 137 114.5 223t270.5 86q161 0 253.5 -62.5t92.5 -193.5q0 -44 -8 -80h-65q8 31 8 72q0 113 -70.5 162t-222.5 49q-39 0 -80 -9t-81.5 -29t-72 -48.5t-51.5 -71t-20 -92.5
q0 -52 24.5 -89.5t64 -57t90.5 -37t103.5 -28.5t103.5 -31.5t90.5 -47t64 -74.5t24.5 -114q0 -104 -62.5 -178.5t-156 -108t-205.5 -33.5q-346 0 -346 263q0 44 12 96h62q-13 -54 -13 -88q0 -217 297 -217q63 0 123 16.5t110 47.5t80.5 83t30.5 117z" />
    <glyph glyph-name="t" unicode="t" horiz-adv-x="559" 
d="M408 1270h61l-53 -213h248l-15 -53h-248l-184 -738q-18 -74 -18 -112q0 -111 123 -111q38 0 106 14l-12 -51q-56 -12 -109 -12q-94 1 -133 37t-39 106q0 59 21 129l184 738h-203l15 53h202z" />
    <glyph glyph-name="u" unicode="u" horiz-adv-x="1122" 
d="M754 0l51 203q-160 -226 -408 -226q-146 0 -218.5 62.5t-72.5 181.5q0 74 25 172l166 664h61l-163 -656q-25 -113 -25 -161q0 -107 60.5 -157t179.5 -50q47 0 96.5 12.5t105.5 45t104 81.5t90.5 129.5t67.5 181.5l144 574h61l-264 -1057h-61z" />
    <glyph glyph-name="v" unicode="v" horiz-adv-x="954" 
d="M174 1057h66l114 -1000h8l615 1000h67l-657 -1057h-84z" />
    <glyph glyph-name="w" unicode="w" horiz-adv-x="1484" 
d="M182 1057h62l28 -1000h4l562 1000h69l62 -1000h8l530 1000h62l-570 -1057h-81l-62 969h-8l-545 -969h-82z" />
    <glyph glyph-name="x" unicode="x" horiz-adv-x="935" 
d="M782 0h-69l-252 506l-481 -506h-82l536 557l-248 500h70l225 -453l451 453h82l-508 -504z" />
    <glyph glyph-name="y" unicode="y" horiz-adv-x="950" 
d="M238 1057l143 -959h8l586 959h65l-739 -1207q-48 -76 -78.5 -117t-72 -81.5t-87.5 -57t-104 -16.5q-50 0 -109 12l15 56q50 -13 86 -13q37 0 69.5 9.5t63 32.5t54 46t53 66t49 75t53.5 89l35 57l-156 1049h66z" />
    <glyph glyph-name="z" unicode="z" horiz-adv-x="907" 
d="M193 1004l14 53h754l-15 -58l-923 -946h720l-14 -53h-795l15 57l923 947h-679z" />
    <glyph glyph-name="braceleft" unicode="{" horiz-adv-x="557" 
d="M274 -221q-147 0 -147 176q0 66 31 197l39 151q28 110 28 168q0 137 -137 160l10 45q191 9 269 323l34 144q10 42 18.5 71.5t23.5 71t30.5 71t39.5 62t51 52t64.5 32.5t80.5 13q21 0 45 -3l-11 -43q-21 3 -32 3q-174 0 -252 -330l-35 -144q-39 -158 -99.5 -245
t-160.5 -103q117 -40 117 -186q0 -67 -27 -162l-39 -151q-31 -122 -31 -191q0 -67 25.5 -103t89.5 -36q21 0 35 2l-12 -43q-18 -2 -48 -2z" />
    <glyph glyph-name="bar" unicode="|" horiz-adv-x="522" 
d="M344 1487v-1487h-57v1487h57z" />
    <glyph glyph-name="braceright" unicode="}" horiz-adv-x="557" 
d="M-92 -221q-29 0 -45 2l10 43q14 -2 33 -2q174 0 252 330l39 151q39 158 99.5 245t160.5 103q-117 40 -117 187q0 66 27 161l34 144q31 139 31 190q0 67 -25.5 103.5t-89.5 36.5q-13 0 -34 -3l12 43q27 3 47 3q147 0 147 -177q0 -70 -30 -196l-35 -144q-29 -114 -29 -168
q0 -136 137 -159l-10 -45q-190 -9 -268 -324l-39 -151q-42 -156 -78 -222q-80 -151 -229 -151z" />
    <glyph glyph-name="asciitilde" unicode="~" 
d="M838 451q-45 0 -98.5 25.5t-94.5 56t-91 56t-89 25.5q-46 0 -86.5 -35t-89.5 -112l-41 25q100 172 221 172q45 0 98.5 -25.5t94.5 -56.5t91 -56.5t89 -25.5q46 0 86.5 35t89.5 112l41 -24q-100 -172 -221 -172z" />
    <glyph glyph-name="uni00A0" unicode="&#xa0;" horiz-adv-x="409" 
 />
    <glyph glyph-name="exclamdown" unicode="&#xa1;" horiz-adv-x="430" 
d="M254 760h45l-285 -1178h-69zM299 1069h102l-30 -123h-103z" />
    <glyph glyph-name="cent" unicode="&#xa2;" horiz-adv-x="1062" 
d="M453 201q-146 14 -229 110t-83 264q0 93 23 191.5t72 193.5t117 170t165 121.5t209 48.5l55 218h54l-56 -220q136 -13 216.5 -94.5t80.5 -228.5v-43h-65v43q0 113 -62.5 186.5t-181.5 83.5l-250 -993q135 5 249.5 95t160.5 228h61q-50 -166 -182 -271t-301 -105l-57 -230
h-54zM209 575q0 -136 68.5 -222t189.5 -99l248 991q-90 -3 -171.5 -45.5t-141.5 -111.5t-104 -155t-66.5 -178.5t-22.5 -179.5z" />
    <glyph glyph-name="sterling" unicode="&#xa3;" horiz-adv-x="1118" 
d="M350 772l53 211q110 438 459 438q139 0 227.5 -66.5t88.5 -187.5q0 -42 -19 -135h-59q16 94 16 121q0 104 -68.5 159.5t-191.5 55.5q-144 0 -244 -97.5t-147 -287.5l-53 -211h280l-12 -49h-281l-86 -346q-65 -259 -182 -316l-2 -8h786l-14 -53h-942l12 45q203 8 279 324
l88 354h-207l12 49h207z" />
    <glyph glyph-name="currency" unicode="&#xa4;" horiz-adv-x="1187" 
d="M244 625q0 144 90 258l-154 133l49 45l140 -143q100 94 247 94q146 0 246 -94l142 143l49 -45l-156 -133q92 -109 92 -258t-92 -258l156 -134l-49 -45l-142 142q-102 -92 -246 -92q-145 0 -247 92l-140 -142l-49 45l154 134q-90 110 -90 258zM305 625q0 -139 91 -235.5
t220 -96.5t220.5 96.5t91.5 235.5t-91 235t-221 96q-129 0 -220 -96t-91 -235z" />
    <glyph glyph-name="yen" unicode="&#xa5;" horiz-adv-x="1169" 
d="M573 711l-290 688h65l281 -678l622 678h72l-637 -688h358l-14 -49h-383l-51 -211h383l-12 -50h-383l-101 -401h-61l100 401h-387l12 50h388l51 211h-387l14 49h360z" />
    <glyph glyph-name="brokenbar" unicode="&#xa6;" horiz-adv-x="522" 
d="M338 1427v-555h-57v555h57zM338 555v-555h-57v555h57z" />
    <glyph glyph-name="section" unicode="&#xa7;" horiz-adv-x="956" 
d="M281 375q-81 43 -122.5 93.5t-41.5 117.5q0 108 74.5 200.5t187.5 155.5q-62 71 -62 158q0 136 102 233t249 97q131 0 203.5 -54t72.5 -162q0 -49 -10 -90h-57q10 39 10 78q0 82 -58.5 128t-166.5 46q-67 0 -130.5 -33t-107 -96.5t-43.5 -140.5q0 -120 143 -197l185 -100
q81 -43 122 -93.5t41 -117.5q0 -109 -74 -200t-190 -156q64 -70 64 -158q0 -136 -101.5 -233t-248.5 -97q-131 0 -204 53.5t-73 161.5q0 49 10 90h58q-11 -43 -11 -77q0 -82 59 -128.5t167 -46.5q67 0 130.5 33t106.5 97t43 141q0 119 -143 196zM483 864q-31 14 -73 47
q-234 -161 -234 -311q0 -58 35 -99.5t108 -80.5l187 -101q35 -18 72 -47q97 62 166 141.5t69 170.5q0 58 -35 99.5t-108 80.5z" />
    <glyph glyph-name="dieresis" unicode="&#xa8;" horiz-adv-x="1146" 
d="M950 1475h78l-37 -148h-78zM590 1475h78l-37 -148h-78z" />
    <glyph glyph-name="copyright" unicode="&#xa9;" horiz-adv-x="1794" 
d="M1665 748q0 158 -57.5 294.5t-154.5 229.5t-227 145.5t-274 52.5t-273.5 -52.5t-227 -145.5t-154.5 -229.5t-57 -294.5q0 -210 98 -377t259.5 -256.5t354.5 -89.5q144 0 274 53t227 146t154.5 229.5t57.5 294.5zM1718 748q0 -216 -100.5 -392t-276 -276t-389.5 -100
t-389.5 100t-276 276t-100.5 392q0 215 100.5 391t276 276.5t389.5 100.5t389.5 -100.5t276 -276.5t100.5 -391zM621 739q0 -186 98 -301.5t242 -115.5q118 0 191.5 68t96.5 175h56q-25 -136 -117 -213.5t-227 -77.5q-173 0 -285.5 132t-112.5 333t112 329t286 128
q135 0 227 -77.5t117 -213.5h-56q-23 107 -96.5 175.5t-191.5 68.5q-145 0 -242.5 -112t-97.5 -298z" />
    <glyph glyph-name="ordfeminine" unicode="&#xaa;" horiz-adv-x="864" 
d="M307 1251q31 121 126.5 190.5t230.5 69.5q105 0 168 -59.5t63 -161.5q0 -44 -12 -96l-80 -320q-23 -101 -29 -188h-57q0 56 24 150q-55 -83 -146 -127.5t-192 -44.5q-102 0 -156 45t-54 122q0 65 28 117.5t77.5 88t109.5 61t134 40.5t139 22.5t136 10.5l8 39q9 34 9 68
q0 82 -46.5 132t-136.5 50q-95 0 -176.5 -55.5t-105.5 -153.5h-62zM805 1122q-47 -3 -83 -6t-96.5 -12t-106 -21t-98 -33.5t-86.5 -49t-56.5 -68.5t-22.5 -90q0 -64 45.5 -97.5t122.5 -33.5q112 0 215.5 86t138.5 225z" />
    <glyph glyph-name="guillemotleft" unicode="&#xab;" horiz-adv-x="776" 
d="M395 561l316 408h57l-305 -408l98 -418h-57zM109 561l315 408h57l-305 -408l98 -418h-57z" />
    <glyph glyph-name="logicalnot" unicode="&#xac;" 
d="M240 729h802v-434h-49v385h-753v49z" />
    <glyph glyph-name="uni00AD" unicode="&#xad;" horiz-adv-x="706" 
d="M156 623h442l-14 -54h-443z" />
    <glyph glyph-name="registered" unicode="&#xae;" horiz-adv-x="1794" 
d="M987 1174q127 0 195.5 -62t68.5 -178q0 -174 -196 -215q46 -6 77.5 -24t51 -50.5t29 -60.5t20.5 -74l43 -213h-62l-32 170q-13 71 -26.5 110.5t-38 67.5t-60 37.5t-94.5 9.5h-220v-395h-61v877h305zM971 743q108 0 164.5 51t56.5 140q0 92 -57.5 142t-171.5 50h-220v-383
h228zM1665 748q0 158 -57.5 294.5t-154.5 229.5t-227 145.5t-274 52.5t-273.5 -52.5t-227 -145.5t-154.5 -229.5t-57 -294.5q0 -210 98 -377t259.5 -256.5t354.5 -89.5q144 0 274 53t227 146t154.5 229.5t57.5 294.5zM1718 748q0 -216 -100.5 -392t-276 -276t-389.5 -100
t-389.5 100t-276 276t-100.5 392q0 215 100.5 391t276 276.5t389.5 100.5t389.5 -100.5t276 -276.5t100.5 -391z" />
    <glyph glyph-name="overscore" unicode="&#xaf;" horiz-adv-x="1134" 
d="M551 1421h479l-14 -55h-479z" />
    <glyph glyph-name="degree" unicode="&#xb0;" horiz-adv-x="776" 
d="M248 1126q0 128 80.5 212.5t201.5 84.5t202 -84.5t81 -212.5t-81 -212.5t-202 -84.5t-201.5 84.5t-80.5 212.5zM299 1126q0 -98 65.5 -173.5t165.5 -75.5t166 75.5t66 173.5t-66 174t-166 76t-165.5 -76t-65.5 -174z" />
    <glyph glyph-name="plusminus" unicode="&#xb1;" 
d="M209 696h377v385h49v-385h369v-49h-369v-385h-49v385h-377v49zM1004 0h-795v49h795v-49z" />
    <glyph glyph-name="twosuperior" unicode="&#xb2;" horiz-adv-x="675" 
d="M518 1294q-91 -39 -160.5 -107t-97.5 -157h483l-12 -51h-541l7 25q27 108 95 189.5t200 139.5q44 20 68.5 31.5t62.5 31t59.5 34.5t47.5 37t40 43t23.5 48t9.5 56q0 60 -41.5 100.5t-116.5 40.5q-86 0 -154.5 -55.5t-95.5 -143.5h-53q30 106 114 176t193 70q97 0 153 -51
t56 -131q0 -58 -25 -106.5t-76.5 -88t-104 -67.5t-134.5 -64z" />
    <glyph glyph-name="threesuperior" unicode="&#xb3;" horiz-adv-x="700" 
d="M291 1202q-2 -14 -2 -33q0 -80 57 -122.5t141 -42.5q95 0 169.5 55.5t74.5 154.5q0 72 -54.5 112t-152.5 40q-49 0 -67 -4l14 53q12 -4 57 -4q102 0 181 55.5t79 157.5q0 61 -40 96t-117 35q-79 0 -144 -46.5t-94 -127.5h-53q40 106 121 163.5t180 57.5q90 0 146.5 -46
t56.5 -130q0 -97 -51 -150t-150 -85q69 -11 108.5 -62t39.5 -110q0 -120 -91.5 -191.5t-220.5 -71.5q-110 0 -176.5 53t-66.5 144q0 17 4 49h51z" />
    <glyph glyph-name="acute" unicode="&#xb4;" horiz-adv-x="1144" 
d="M842 1487h94l-270 -250h-66z" />
    <glyph glyph-name="mu" unicode="&#xb5;" horiz-adv-x="1224" 
d="M391 1057l-164 -656q-14 -51 -14 -137q0 -107 56 -158t188 -51q44 0 92.5 13t102 44t100.5 76.5t87 116.5t62 158l150 594h61l-203 -813q-22 -86 -22 -127q0 -38 19.5 -56t62.5 -18q38 0 75 12l-10 -47q-32 -14 -78 -14q-69 0 -98 30.5t-29 88.5q0 32 19 114
q-162 -227 -404 -227q-223 0 -278 154l-139 -566h-62l365 1469h61z" />
    <glyph glyph-name="paragraph" unicode="&#xb6;" horiz-adv-x="1126" 
d="M485 610q-136 11 -219.5 99.5t-83.5 228.5q0 127 48 232t129.5 173.5t186 106t218.5 37.5h536l-12 -49h-205l-424 -1702h-59l424 1702h-276l-424 -1702h-56z" />
    <glyph glyph-name="middot" unicode="&#xb7;" horiz-adv-x="403" 
d="M207 762h102l-30 -123h-103z" />
    <glyph glyph-name="cedilla" unicode="&#xb8;" horiz-adv-x="1093" 
d="M260 -418q-39 0 -70 8l15 54q21 -9 55 -9q67 0 111.5 41.5t44.5 106.5q0 52 -28.5 77t-78.5 25q-10 0 -24 -2l32 133h62l-21 -86q54 -5 87.5 -45.5t33.5 -101.5q0 -86 -63.5 -143.5t-155.5 -57.5z" />
    <glyph glyph-name="onesuperior" unicode="&#xb9;" horiz-adv-x="411" 
d="M502 1618q-62 -37 -174 -37h-25l12 45q88 3 133 19t65 45t38 92h45l-201 -803h-53z" />
    <glyph glyph-name="ordmasculine" unicode="&#xba;" horiz-adv-x="925" 
d="M508 711q88 0 166.5 48.5t130.5 123.5t82.5 165.5t30.5 176.5q0 119 -63 179t-161 60q-71 0 -136 -31.5t-113.5 -84t-85 -119t-55.5 -139t-19 -140.5q0 -119 62.5 -179t160.5 -60zM500 664q-132 0 -204.5 75t-72.5 207q0 80 20 160.5t61 153.5t97 129t134 89t167 33
q132 0 204.5 -75t72.5 -207q0 -80 -20 -160.5t-61 -153.5t-97 -129t-134 -89t-167 -33z" />
    <glyph glyph-name="guillemotright" unicode="&#xbb;" horiz-adv-x="774" 
d="M616 559l-100 410h57l111 -410l-317 -416h-58zM330 559l-101 410h58l110 -410l-317 -416h-57z" />
    <glyph glyph-name="onequarter" unicode="&#xbc;" horiz-adv-x="1323" 
d="M408 1235q-62 -37 -175 -37h-24l12 45q88 3 133 19t65 45t38 92h45l-201 -803h-53zM1159 1425l-1118 -1458h-57l1118 1458h57zM1208 803l-131 -524h140l-13 -46h-139l-57 -233h-54l58 233h-402l11 37l526 533h61zM1024 279l113 450l-449 -450h336z" />
    <glyph glyph-name="onehalf" unicode="&#xbd;" horiz-adv-x="1333" 
d="M408 1235q-62 -37 -175 -37h-24l12 45q88 3 133 19t65 45t38 92h45l-201 -803h-53zM1159 1425l-1118 -1458h-57l1118 1458h57zM930 315q-91 -39 -160.5 -107t-97.5 -157h483l-12 -51h-541l6 25q27 108 95 189.5t200 139.5q44 20 68.5 31.5t62.5 31t59.5 34.5t47.5 37
t40 43t23.5 48t9.5 56q0 60 -41 100.5t-116 40.5q-87 0 -155 -55t-95 -143h-53q30 106 114 175.5t193 69.5q97 0 153 -51t56 -131q0 -58 -25 -106.5t-76.5 -88t-104 -67.5t-134.5 -64z" />
    <glyph glyph-name="threequarters" unicode="&#xbe;" horiz-adv-x="1611" 
d="M197 819q-2 -14 -2 -33q0 -80 57 -122.5t141 -42.5q95 0 169.5 55.5t74.5 154.5q0 72 -54.5 112t-152.5 40q-50 0 -68 -4l15 53q12 -4 57 -4q102 0 181 55.5t79 157.5q0 61 -40 96t-117 35q-79 0 -144 -46.5t-94 -127.5h-53q40 106 121 163.5t180 57.5q90 0 146.5 -46
t56.5 -130q0 -97 -51 -150t-150 -85q69 -11 108 -62t39 -110q0 -120 -91 -191.5t-220 -71.5q-110 0 -177 53t-67 144q0 17 4 49h52zM1448 1425l-1118 -1458h-58l1119 1458h57zM1497 803l-131 -524h139l-12 -46h-139l-58 -233h-53l57 233h-401l10 37l527 533h61zM1313 279
l112 450l-448 -450h336z" />
    <glyph glyph-name="questiondown" unicode="&#xbf;" horiz-adv-x="933" 
d="M238 -418q-145 0 -235.5 69.5t-90.5 188.5q0 79 28.5 147.5t76.5 120.5t106.5 101t122 100.5t119.5 107t102.5 133.5t67.5 167l16 65h53l-12 -55q-21 -98 -67 -182t-102 -142t-118.5 -110t-120.5 -98.5t-105 -95.5t-75.5 -112t-28.5 -137q0 -99 72.5 -157t196.5 -58
q146 0 266 87.5t168 244.5h57q-51 -169 -186.5 -277t-310.5 -108zM596 1092h102l-30 -123h-103z" />
    <glyph glyph-name="Agrave" unicode="&#xc0;" horiz-adv-x="1333" 
d="M283 489l-320 -489h-74l985 1487h64l244 -1487h-72l-76 489h-751zM883 1401l-383 -582l-178 -272h702l-41 272q-9 56 -42.5 264.5t-49.5 317.5h-8zM735 1855h84l137 -227h-55z" />
    <glyph glyph-name="Aacute" unicode="&#xc1;" horiz-adv-x="1333" 
d="M283 489l-320 -489h-74l985 1487h64l244 -1487h-72l-76 489h-751zM883 1401l-383 -582l-178 -272h702l-41 272q-9 56 -42.5 264.5t-49.5 317.5h-8zM1098 1855h92l-250 -227h-66z" />
    <glyph glyph-name="Acircumflex" unicode="&#xc2;" horiz-adv-x="1333" 
d="M283 489l-320 -489h-74l985 1487h64l244 -1487h-72l-76 489h-751zM883 1401l-383 -582l-178 -272h702l-41 272q-9 56 -42.5 264.5t-49.5 317.5h-8zM942 1855h86l137 -227h-63l-121 187l-211 -187h-72z" />
    <glyph glyph-name="Atilde" unicode="&#xc3;" horiz-adv-x="1333" 
d="M283 489l-320 -489h-74l985 1487h64l244 -1487h-72l-76 489h-751zM883 1401l-383 -582l-178 -272h702l-41 272q-9 56 -42.5 264.5t-49.5 317.5h-8zM668 1665q63 168 184 168q37 0 71.5 -17.5t56 -38t50.5 -38t57 -17.5q65 0 119 111h56q-17 -49 -41 -83.5t-49.5 -52
t-48.5 -25t-46 -7.5q-37 0 -70.5 17.5t-55 38t-51 38t-58.5 17.5q-35 0 -62.5 -25.5t-56.5 -85.5h-55z" />
    <glyph glyph-name="Adieresis" unicode="&#xc4;" horiz-adv-x="1333" 
d="M283 489l-320 -489h-74l985 1487h64l244 -1487h-72l-76 489h-751zM883 1401l-383 -582l-178 -272h702l-41 272q-9 56 -42.5 264.5t-49.5 317.5h-8zM1126 1829h78l-37 -148h-77zM766 1829h78l-37 -148h-78z" />
    <glyph glyph-name="Aring" unicode="&#xc5;" horiz-adv-x="1333" 
d="M283 489l-320 -489h-74l985 1487h64l244 -1487h-72l-76 489h-751zM883 1401l-383 -582l-178 -272h702l-41 272q-9 56 -42.5 264.5t-49.5 317.5h-8zM893 1444q-82 0 -126 47.5t-44 118.5q0 90 69 156.5t166 66.5q79 0 124.5 -47t45.5 -119q0 -92 -68.5 -157.5
t-166.5 -65.5zM901 1497q70 0 119 48.5t49 119.5q0 54 -34 84.5t-87 30.5q-68 0 -117 -49t-49 -117q0 -57 33.5 -87t85.5 -30z" />
    <glyph glyph-name="AE" unicode="&#xc6;" horiz-adv-x="1804" 
d="M1071 1487h836l-15 -57h-743l-66 -631h637l-16 -58h-627l-71 -680h622l-14 -61h-678l55 526h-606l-414 -526h-73zM430 584h567l86 819h-6z" />
    <glyph glyph-name="Ccedilla" unicode="&#xc7;" horiz-adv-x="1384" 
d="M946 1444q-131 0 -249.5 -57.5t-206 -153.5t-152.5 -218t-98 -254t-33 -259q0 -217 110.5 -342t305.5 -125q197 0 363 128t235 331h69q-39 -127 -115.5 -228.5t-170 -163t-193.5 -93.5t-197 -32q-223 0 -349 143.5t-126 381.5q0 110 25.5 226t72 227.5t119 210.5
t160 173.5t201 118t237.5 43.5q215 0 335 -113.5t120 -330.5q0 -14 -4 -60h-64q2 18 2 47q0 193 -99 296.5t-298 103.5zM467 -418q-39 0 -70 8l15 54q21 -9 55 -9q67 0 111.5 41.5t44.5 106.5q0 52 -28.5 77t-78.5 25q-10 0 -24 -2l32 133h62l-21 -86q54 -5 87.5 -45.5
t33.5 -101.5q0 -86 -63.5 -143.5t-155.5 -57.5z" />
    <glyph glyph-name="Egrave" unicode="&#xc8;" horiz-adv-x="1183" 
d="M1315 1487l-15 -57h-804l-158 -629h766l-17 -58h-763l-170 -686h829l-14 -57h-891l371 1487h866zM727 1855h84l137 -227h-55z" />
    <glyph glyph-name="Eacute" unicode="&#xc9;" horiz-adv-x="1183" 
d="M1315 1487l-15 -57h-804l-158 -629h766l-17 -58h-763l-170 -686h829l-14 -57h-891l371 1487h866zM1090 1855h92l-250 -227h-66z" />
    <glyph glyph-name="Ecircumflex" unicode="&#xca;" horiz-adv-x="1183" 
d="M1315 1487l-15 -57h-804l-158 -629h766l-17 -58h-763l-170 -686h829l-14 -57h-891l371 1487h866zM934 1855h86l137 -227h-63l-121 187l-211 -187h-72z" />
    <glyph glyph-name="Edieresis" unicode="&#xcb;" horiz-adv-x="1183" 
d="M1315 1487l-15 -57h-804l-158 -629h766l-17 -58h-763l-170 -686h829l-14 -57h-891l371 1487h866zM1118 1829h78l-37 -148h-78zM758 1829h78l-37 -148h-78z" />
    <glyph glyph-name="Igrave" unicode="&#xcc;" horiz-adv-x="479" 
d="M510 1487l-371 -1487h-61l371 1487h61zM307 1855h84l137 -227h-55z" />
    <glyph glyph-name="Iacute" unicode="&#xcd;" horiz-adv-x="479" 
d="M510 1487l-371 -1487h-61l371 1487h61zM690 1855h92l-250 -227h-65z" />
    <glyph glyph-name="Icircumflex" unicode="&#xce;" horiz-adv-x="479" 
d="M510 1487l-371 -1487h-61l371 1487h61zM514 1855h86l137 -227h-63l-121 187l-211 -187h-72z" />
    <glyph glyph-name="Idieresis" unicode="&#xcf;" horiz-adv-x="479" 
d="M510 1487l-371 -1487h-61l371 1487h61zM672 1829h78l-37 -148h-78zM373 1829h78l-37 -148h-78z" />
    <glyph glyph-name="Eth" unicode="&#xd0;" horiz-adv-x="1499" 
d="M297 780l176 707h342q172 0 299 -36.5t203 -105t112.5 -159.5t36.5 -207q0 -156 -42 -300.5t-126 -268t-200.5 -215t-274.5 -143.5t-340 -52h-381l181 723h-211l14 57h211zM178 61h324q200 0 370 73t284.5 197.5t178.5 291.5t64 354q0 448 -592 448h-289l-162 -645h287
l-14 -57h-285z" />
    <glyph glyph-name="Ntilde" unicode="&#xd1;" horiz-adv-x="1445" 
d="M485 1384l-346 -1384h-61l371 1487h73l539 -1385h8l346 1385h62l-371 -1487h-74l-538 1384h-9zM723 1665q63 168 184 168q37 0 71.5 -17.5t56.5 -38t51 -38t57 -17.5q65 0 119 111h55q-23 -64 -57.5 -103.5t-64.5 -52t-62 -12.5q-37 0 -70.5 17.5t-55.5 38t-51.5 38
t-58.5 17.5q-35 0 -62.5 -25.5t-56.5 -85.5h-55z" />
    <glyph glyph-name="Ograve" unicode="&#xd2;" horiz-adv-x="1509" 
d="M641 35q136 0 259 55.5t214 149t158.5 213.5t102 253t34.5 263q0 227 -115 353t-317 126q-136 0 -259 -55.5t-214 -149t-158.5 -213.5t-102 -253t-34.5 -263q0 -227 115 -353t317 -126zM635 -23q-232 0 -363 141t-131 394q0 112 26.5 228.5t75 227t123.5 208t165.5 171
t207.5 116t244 42.5q232 0 363 -140.5t131 -393.5q0 -136 -36.5 -276t-109.5 -268.5t-172.5 -229t-235.5 -160.5t-288 -60zM821 1855h84l137 -227h-55z" />
    <glyph glyph-name="Oacute" unicode="&#xd3;" horiz-adv-x="1509" 
d="M641 35q136 0 259 55.5t214 149t158.5 213.5t102 253t34.5 263q0 227 -115 353t-317 126q-136 0 -259 -55.5t-214 -149t-158.5 -213.5t-102 -253t-34.5 -263q0 -227 115 -353t317 -126zM635 -23q-232 0 -363 141t-131 394q0 112 26.5 228.5t75 227t123.5 208t165.5 171
t207.5 116t244 42.5q232 0 363 -140.5t131 -393.5q0 -136 -36.5 -276t-109.5 -268.5t-172.5 -229t-235.5 -160.5t-288 -60zM1184 1855h92l-250 -227h-65z" />
    <glyph glyph-name="Ocircumflex" unicode="&#xd4;" horiz-adv-x="1509" 
d="M641 35q136 0 259 55.5t214 149t158.5 213.5t102 253t34.5 263q0 227 -115 353t-317 126q-136 0 -259 -55.5t-214 -149t-158.5 -213.5t-102 -253t-34.5 -263q0 -227 115 -353t317 -126zM635 -23q-232 0 -363 141t-131 394q0 112 26.5 228.5t75 227t123.5 208t165.5 171
t207.5 116t244 42.5q232 0 363 -140.5t131 -393.5q0 -136 -36.5 -276t-109.5 -268.5t-172.5 -229t-235.5 -160.5t-288 -60zM1028 1855h86l137 -227h-63l-121 187l-211 -187h-72z" />
    <glyph glyph-name="Otilde" unicode="&#xd5;" horiz-adv-x="1509" 
d="M641 35q136 0 259 55.5t214 149t158.5 213.5t102 253t34.5 263q0 227 -115 353t-317 126q-136 0 -259 -55.5t-214 -149t-158.5 -213.5t-102 -253t-34.5 -263q0 -227 115 -353t317 -126zM635 -23q-232 0 -363 141t-131 394q0 112 26.5 228.5t75 227t123.5 208t165.5 171
t207.5 116t244 42.5q232 0 363 -140.5t131 -393.5q0 -136 -36.5 -276t-109.5 -268.5t-172.5 -229t-235.5 -160.5t-288 -60zM754 1665q63 168 184 168q37 0 71.5 -17.5t56.5 -38t51 -38t57 -17.5q64 0 118 111h56q-17 -49 -41 -83.5t-49.5 -52t-48.5 -25t-46 -7.5
q-37 0 -70.5 17.5t-55 38t-51 38t-58.5 17.5q-35 0 -62.5 -25.5t-56.5 -85.5h-55z" />
    <glyph glyph-name="Odieresis" unicode="&#xd6;" horiz-adv-x="1509" 
d="M641 35q136 0 259 55.5t214 149t158.5 213.5t102 253t34.5 263q0 227 -115 353t-317 126q-136 0 -259 -55.5t-214 -149t-158.5 -213.5t-102 -253t-34.5 -263q0 -227 115 -353t317 -126zM635 -23q-232 0 -363 141t-131 394q0 112 26.5 228.5t75 227t123.5 208t165.5 171
t207.5 116t244 42.5q232 0 363 -140.5t131 -393.5q0 -136 -36.5 -276t-109.5 -268.5t-172.5 -229t-235.5 -160.5t-288 -60zM1212 1829h78l-37 -148h-77zM852 1829h78l-37 -148h-78z" />
    <glyph glyph-name="multiply" unicode="&#xd7;" 
d="M623 582l-306 295l33 32l307 -295l308 295l32 -32l-307 -295l307 -295l-32 -33l-308 295l-307 -295l-33 33z" />
    <glyph glyph-name="Oslash" unicode="&#xd8;" horiz-adv-x="1515" 
d="M1403 1290q78 -134 78 -319q0 -136 -36.5 -276t-109.5 -268.5t-172.5 -229t-235.5 -160.5t-288 -60q-260 0 -389 173l-184 -179l-35 43l188 183q-74 127 -74 315q0 112 26.5 228.5t75 227t123.5 208t165.5 171t207.5 116t244 42.5q123 0 221 -43.5t162 -124.5l164 158
l37 -39zM981 1448q-136 0 -259 -55.5t-214 -149t-158.5 -213.5t-102 -253t-34.5 -263q0 -159 53 -268l1059 1042q-114 160 -344 160zM645 35q136 0 259 55.5t214 149t158.5 213.5t102 253t34.5 263q0 161 -57 272l-1059 -1042q114 -164 348 -164z" />
    <glyph glyph-name="Ugrave" unicode="&#xd9;" horiz-adv-x="1396" 
d="M250 508q-23 -104 -23 -164q0 -303 375 -303q210 0 347.5 126.5t189.5 340.5l243 979h62l-244 -979q-129 -524 -604 -524q-213 0 -321.5 89.5t-108.5 262.5q0 85 22 172l244 979h62zM766 1855h84l137 -227h-55z" />
    <glyph glyph-name="Uacute" unicode="&#xda;" horiz-adv-x="1396" 
d="M250 508q-23 -104 -23 -164q0 -303 375 -303q210 0 347.5 126.5t189.5 340.5l243 979h62l-244 -979q-129 -524 -604 -524q-213 0 -321.5 89.5t-108.5 262.5q0 85 22 172l244 979h62zM1128 1855h93l-250 -227h-66z" />
    <glyph glyph-name="Ucircumflex" unicode="&#xdb;" horiz-adv-x="1396" 
d="M250 508q-23 -104 -23 -164q0 -303 375 -303q210 0 347.5 126.5t189.5 340.5l243 979h62l-244 -979q-129 -524 -604 -524q-213 0 -321.5 89.5t-108.5 262.5q0 85 22 172l244 979h62zM973 1855h86l137 -227h-63l-121 187l-211 -187h-72z" />
    <glyph glyph-name="Udieresis" unicode="&#xdc;" horiz-adv-x="1396" 
d="M250 508q-23 -104 -23 -164q0 -303 375 -303q210 0 347.5 126.5t189.5 340.5l243 979h62l-244 -979q-129 -524 -604 -524q-213 0 -321.5 89.5t-108.5 262.5q0 85 22 172l244 979h62zM1157 1829h78l-37 -148h-78zM797 1829h77l-36 -148h-78z" />
    <glyph glyph-name="Yacute" unicode="&#xdd;" horiz-adv-x="1155" 
d="M268 1487h66l291 -764l669 764h72l-723 -817l-166 -670h-61l166 674zM1008 1855h92l-250 -227h-66z" />
    <glyph glyph-name="Thorn" unicode="&#xde;" horiz-adv-x="1234" 
d="M510 1487l-76 -299h371q207 0 307 -80t100 -225q0 -221 -160.5 -357.5t-420.5 -136.5h-395l-97 -389h-61l371 1487h61zM252 451h395q137 0 249 49.5t180.5 148t68.5 230.5q0 126 -95 186.5t-262 60.5h-368z" />
    <glyph glyph-name="germandbls" unicode="&#xdf;" horiz-adv-x="1091" 
d="M301 1024q60 238 175 361.5t304 123.5q143 0 222 -73.5t79 -190.5q0 -147 -107 -260t-265 -151l-2 -9q122 -30 193 -117t71 -225q0 -214 -161 -352.5t-413 -138.5q-70 0 -125 8l15 53q41 -8 112 -8q136 0 251 55t184 156t69 227q0 68 -22 124t-56.5 91.5t-80 60t-90 34.5
t-89.5 10h-20l16 57h21q100 0 198.5 48.5t166 138.5t67.5 196q0 95 -62.5 154t-177.5 59q-146 0 -251.5 -105.5t-160.5 -326.5l-256 -1024h-61z" />
    <glyph glyph-name="agrave" unicode="&#xe0;" horiz-adv-x="1048" 
d="M870 690q19 74 19 129q0 209 -244 209q-139 0 -246 -78.5t-135 -197.5h-65q38 143 161 236t291 93q299 0 299 -250q0 -59 -18 -135q-99 -394 -127 -518t-33 -178h-67q22 120 40 199q-174 -222 -428 -222q-130 0 -205 61.5t-75 166.5q0 83 29.5 148t87.5 109.5t128.5 75.5
t169.5 50t191.5 29t212.5 16zM104 205q0 -47 20 -82t53.5 -54.5t70.5 -28.5t76 -9q153 0 292.5 107t182.5 270l43 172q-82 -4 -141 -8.5t-141.5 -16.5t-140.5 -28t-121.5 -44.5t-103 -65t-65 -91t-25.5 -121.5zM494 1487h88l151 -250h-59z" />
    <glyph glyph-name="aacute" unicode="&#xe1;" horiz-adv-x="1048" 
d="M870 690q19 74 19 129q0 209 -244 209q-139 0 -246 -78.5t-135 -197.5h-65q38 143 161 236t291 93q299 0 299 -250q0 -59 -18 -135q-99 -394 -127 -518t-33 -178h-67q22 120 40 199q-174 -222 -428 -222q-130 0 -205 61.5t-75 166.5q0 83 29.5 148t87.5 109.5t128.5 75.5
t169.5 50t191.5 29t212.5 16zM104 205q0 -47 20 -82t53.5 -54.5t70.5 -28.5t76 -9q153 0 292.5 107t182.5 270l43 172q-82 -4 -141 -8.5t-141.5 -16.5t-140.5 -28t-121.5 -44.5t-103 -65t-65 -91t-25.5 -121.5zM872 1487h95l-271 -250h-65z" />
    <glyph glyph-name="acircumflex" unicode="&#xe2;" horiz-adv-x="1048" 
d="M870 690q19 74 19 129q0 209 -244 209q-139 0 -246 -78.5t-135 -197.5h-65q38 143 161 236t291 93q299 0 299 -250q0 -59 -18 -135q-99 -394 -127 -518t-33 -178h-67q22 120 40 199q-174 -222 -428 -222q-130 0 -205 61.5t-75 166.5q0 83 29.5 148t87.5 109.5t128.5 75.5
t169.5 50t191.5 29t212.5 16zM104 205q0 -47 20 -82t53.5 -54.5t70.5 -28.5t76 -9q153 0 292.5 107t182.5 270l43 172q-82 -4 -141 -8.5t-141.5 -16.5t-140.5 -28t-121.5 -44.5t-103 -65t-65 -91t-25.5 -121.5zM715 1487h76l141 -250h-62l-122 211l-218 -211h-69z" />
    <glyph glyph-name="atilde" unicode="&#xe3;" horiz-adv-x="1048" 
d="M870 690q19 74 19 129q0 209 -244 209q-139 0 -246 -78.5t-135 -197.5h-65q38 143 161 236t291 93q299 0 299 -250q0 -59 -18 -135q-99 -394 -127 -518t-33 -178h-67q22 120 40 199q-174 -222 -428 -222q-130 0 -205 61.5t-75 166.5q0 83 29.5 148t87.5 109.5t128.5 75.5
t169.5 50t191.5 29t212.5 16zM104 205q0 -47 20 -82t53.5 -54.5t70.5 -28.5t76 -9q153 0 292.5 107t182.5 270l43 172q-82 -4 -141 -8.5t-141.5 -16.5t-140.5 -28t-121.5 -44.5t-103 -65t-65 -91t-25.5 -121.5zM434 1282q67 168 180 168q36 0 69 -17.5t54 -38t49.5 -38
t55.5 -17.5q31 0 58 26t56 85h56q-67 -168 -181 -168q-34 0 -67 17.5t-54.5 38t-50 38t-55.5 17.5q-32 0 -58 -25.5t-57 -85.5h-55z" />
    <glyph glyph-name="adieresis" unicode="&#xe4;" horiz-adv-x="1048" 
d="M870 690q19 74 19 129q0 209 -244 209q-139 0 -246 -78.5t-135 -197.5h-65q38 143 161 236t291 93q299 0 299 -250q0 -59 -18 -135q-99 -394 -127 -518t-33 -178h-67q22 120 40 199q-174 -222 -428 -222q-130 0 -205 61.5t-75 166.5q0 83 29.5 148t87.5 109.5t128.5 75.5
t169.5 50t191.5 29t212.5 16zM104 205q0 -47 20 -82t53.5 -54.5t70.5 -28.5t76 -9q153 0 292.5 107t182.5 270l43 172q-82 -4 -141 -8.5t-141.5 -16.5t-140.5 -28t-121.5 -44.5t-103 -65t-65 -91t-25.5 -121.5zM893 1475h78l-37 -148h-78zM532 1475h78l-37 -148h-77z" />
    <glyph glyph-name="aring" unicode="&#xe5;" horiz-adv-x="1048" 
d="M870 690q19 74 19 129q0 209 -244 209q-139 0 -246 -78.5t-135 -197.5h-65q38 143 161 236t291 93q299 0 299 -250q0 -59 -18 -135q-99 -394 -127 -518t-33 -178h-67q22 120 40 199q-174 -222 -428 -222q-130 0 -205 61.5t-75 166.5q0 83 29.5 148t87.5 109.5t128.5 75.5
t169.5 50t191.5 29t212.5 16zM104 205q0 -47 20 -82t53.5 -54.5t70.5 -28.5t76 -9q153 0 292.5 107t182.5 270l43 172q-82 -4 -141 -8.5t-141.5 -16.5t-140.5 -28t-121.5 -44.5t-103 -65t-65 -91t-25.5 -121.5zM664 1171q-82 0 -126 47.5t-44 118.5q0 90 69 157t166 67
q79 0 124.5 -47t45.5 -119q0 -93 -68.5 -158.5t-166.5 -65.5zM672 1225q70 0 119 48.5t49 119.5q0 54 -34 84t-87 30q-68 0 -117 -49.5t-49 -120.5q0 -52 34 -82t85 -30z" />
    <glyph glyph-name="ae" unicode="&#xe6;" horiz-adv-x="1761" 
d="M1139 -23q-140 0 -226.5 80.5t-105.5 227.5q-66 -148 -194 -228t-271 -80q-141 0 -223 61t-82 181q0 114 74.5 198t203 126.5t293.5 42.5h228l24 104q17 59 17 119q0 219 -232 219q-144 0 -247 -75.5t-136 -200.5h-65q43 148 162 238.5t292 90.5q134 0 209.5 -62.5
t75.5 -187.5v-18q77 123 190.5 194.5t255.5 71.5q83 0 145 -26.5t97.5 -74.5t52.5 -108.5t17 -134.5q0 -87 -29 -203h-778q-21 -95 -21 -172q0 -153 73 -241t202 -88q117 0 224.5 76t166.5 190h61q-72 -149 -193 -234.5t-261 -85.5zM344 31q66 0 133.5 23.5t131.5 69
t115 123.5t75 177l26 108h-231q-224 0 -357 -88t-133 -227q0 -54 22 -92.5t59 -58t76 -27.5t83 -8zM1376 1026q-85 0 -164 -36.5t-139.5 -98t-104.5 -140.5t-65 -165h707q18 92 18 149q0 61 -13 111.5t-41.5 92t-78.5 64.5t-119 23z" />
    <glyph glyph-name="ccedilla" unicode="&#xe7;" horiz-adv-x="1058" 
d="M446 -23q-169 0 -265.5 97t-96.5 280q0 94 24 193.5t74 194.5t119 170t167.5 121t211.5 46q153 0 246.5 -83.5t93.5 -241.5v-43h-66v43q0 122 -72 197t-208 75q-115 0 -215.5 -63.5t-166 -162.5t-103 -216.5t-37.5 -229.5q0 -147 81 -235t220 -88q135 0 254 92t163 231
h62q-50 -166 -183 -271.5t-303 -105.5zM307 -418q-38 0 -69 8l14 54q21 -9 55 -9q67 0 111.5 41.5t44.5 106.5q0 52 -28.5 77t-78.5 25q-10 0 -24 -2l33 133h61l-20 -86q54 -4 87 -44.5t33 -102.5q0 -86 -63.5 -143.5t-155.5 -57.5z" />
    <glyph glyph-name="egrave" unicode="&#xe8;" horiz-adv-x="1064" 
d="M422 -23q-158 0 -248 97t-90 280q0 94 23.5 193.5t73 194.5t117.5 170t165.5 121t208.5 46q87 0 151 -26.5t101 -74.5t54 -108.5t17 -134.5q0 -96 -28 -211h-797q-18 -86 -18 -170q0 -147 74 -235t202 -88q120 0 234 76.5t172 189.5h61q-73 -151 -195.5 -235.5
t-277.5 -84.5zM666 1026q-87 0 -166.5 -37.5t-139 -101.5t-104 -142t-72.5 -167h727q19 97 19 157q0 291 -264 291zM516 1487h88l152 -250h-60z" />
    <glyph glyph-name="eacute" unicode="&#xe9;" horiz-adv-x="1064" 
d="M422 -23q-158 0 -248 97t-90 280q0 94 23.5 193.5t73 194.5t117.5 170t165.5 121t208.5 46q87 0 151 -26.5t101 -74.5t54 -108.5t17 -134.5q0 -96 -28 -211h-797q-18 -86 -18 -170q0 -147 74 -235t202 -88q120 0 234 76.5t172 189.5h61q-73 -151 -195.5 -235.5
t-277.5 -84.5zM666 1026q-87 0 -166.5 -37.5t-139 -101.5t-104 -142t-72.5 -167h727q19 97 19 157q0 291 -264 291zM895 1487h94l-270 -250h-66z" />
    <glyph glyph-name="ecircumflex" unicode="&#xea;" horiz-adv-x="1064" 
d="M422 -23q-158 0 -248 97t-90 280q0 94 23.5 193.5t73 194.5t117.5 170t165.5 121t208.5 46q87 0 151 -26.5t101 -74.5t54 -108.5t17 -134.5q0 -96 -28 -211h-797q-18 -86 -18 -170q0 -147 74 -235t202 -88q120 0 234 76.5t172 189.5h61q-73 -151 -195.5 -235.5
t-277.5 -84.5zM666 1026q-87 0 -166.5 -37.5t-139 -101.5t-104 -142t-72.5 -167h727q19 97 19 157q0 291 -264 291zM737 1487h76l141 -250h-61l-123 211l-217 -211h-70z" />
    <glyph glyph-name="edieresis" unicode="&#xeb;" horiz-adv-x="1064" 
d="M422 -23q-158 0 -248 97t-90 280q0 94 23.5 193.5t73 194.5t117.5 170t165.5 121t208.5 46q87 0 151 -26.5t101 -74.5t54 -108.5t17 -134.5q0 -96 -28 -211h-797q-18 -86 -18 -170q0 -147 74 -235t202 -88q120 0 234 76.5t172 189.5h61q-73 -151 -195.5 -235.5
t-277.5 -84.5zM666 1026q-87 0 -166.5 -37.5t-139 -101.5t-104 -142t-72.5 -167h727q19 97 19 157q0 291 -264 291zM915 1475h78l-37 -148h-77zM555 1475h78l-37 -148h-78z" />
    <glyph glyph-name="igrave" unicode="&#xec;" horiz-adv-x="413" 
d="M371 1057l-265 -1057h-61l264 1057h62zM221 1487h76l90 -250h-53z" />
    <glyph glyph-name="iacute" unicode="&#xed;" horiz-adv-x="413" 
d="M371 1057l-265 -1057h-61l264 1057h62zM555 1487h88l-240 -250h-59z" />
    <glyph glyph-name="icircumflex" unicode="&#xee;" horiz-adv-x="413" 
d="M371 1057l-265 -1057h-61l264 1057h62zM412 1487h75l109 -250h-57l-95 211l-204 -211h-66z" />
    <glyph glyph-name="idieresis" unicode="&#xef;" horiz-adv-x="413" 
d="M371 1057l-265 -1057h-61l264 1057h62zM530 1475h78l-37 -148h-77zM272 1475h78l-37 -148h-77z" />
    <glyph glyph-name="eth" unicode="&#xf0;" horiz-adv-x="1110" 
d="M821 1337q211 -265 211 -577q0 -112 -25 -223t-76.5 -212t-122 -178.5t-169.5 -123.5t-211 -46q-168 0 -259 105.5t-91 261.5q0 93 26.5 191t78.5 188t121.5 161t163 113.5t194.5 42.5q218 0 307 -180q-26 140 -73.5 246t-127.5 203l-233 -138l-25 48l221 131
q-55 60 -145 137h86q58 -46 112 -107l211 123l31 -45zM434 31q90 0 173 38.5t145.5 103.5t109 147t70.5 172.5t24 177.5q0 137 -75.5 227t-216.5 90q-90 0 -172.5 -39t-144 -105t-108 -149t-70.5 -174t-24 -178q0 -127 77.5 -219t211.5 -92z" />
    <glyph glyph-name="ntilde" unicode="&#xf1;" horiz-adv-x="1122" 
d="M371 1057l-52 -203q159 225 408 225q146 0 218.5 -62t72.5 -181q0 -74 -25 -172l-166 -664h-61l164 655q24 108 24 162q0 107 -60 157t-179 50q-47 0 -94.5 -11.5t-104 -43t-105 -80.5t-92.5 -131.5t-71 -188.5l-142 -569h-61l264 1057h62zM465 1282q67 168 180 168
q36 0 69 -17.5t54 -38t49 -38t55 -17.5q61 0 115 111h55q-67 -168 -180 -168q-34 0 -67 17.5t-54.5 38t-50 38t-55.5 17.5q-32 0 -58 -25.5t-57 -85.5h-55z" />
    <glyph glyph-name="ograve" unicode="&#xf2;" horiz-adv-x="1116" 
d="M444 31q115 0 215.5 62.5t166.5 160.5t103.5 216t37.5 232q0 147 -79 235.5t-214 88.5q-92 0 -176 -41t-146 -109t-108 -155t-69 -181.5t-23 -185.5q0 -147 78.5 -235t213.5 -88zM438 -23q-165 0 -259.5 97t-94.5 280q0 94 24 193.5t74 194.5t119 170t167.5 121t211.5 46
q165 0 259.5 -97t94.5 -280q0 -94 -24 -193.5t-74 -194.5t-119 -170t-167.5 -121t-211.5 -46zM530 1487h88l152 -250h-59z" />
    <glyph glyph-name="oacute" unicode="&#xf3;" horiz-adv-x="1116" 
d="M444 31q115 0 215.5 62.5t166.5 160.5t103.5 216t37.5 232q0 147 -79 235.5t-214 88.5q-92 0 -176 -41t-146 -109t-108 -155t-69 -181.5t-23 -185.5q0 -147 78.5 -235t213.5 -88zM438 -23q-165 0 -259.5 97t-94.5 280q0 94 24 193.5t74 194.5t119 170t167.5 121t211.5 46
q165 0 259.5 -97t94.5 -280q0 -94 -24 -193.5t-74 -194.5t-119 -170t-167.5 -121t-211.5 -46zM909 1487h95l-271 -250h-65z" />
    <glyph glyph-name="ocircumflex" unicode="&#xf4;" horiz-adv-x="1116" 
d="M444 31q115 0 215.5 62.5t166.5 160.5t103.5 216t37.5 232q0 147 -79 235.5t-214 88.5q-92 0 -176 -41t-146 -109t-108 -155t-69 -181.5t-23 -185.5q0 -147 78.5 -235t213.5 -88zM438 -23q-165 0 -259.5 97t-94.5 280q0 94 24 193.5t74 194.5t119 170t167.5 121t211.5 46
q165 0 259.5 -97t94.5 -280q0 -94 -24 -193.5t-74 -194.5t-119 -170t-167.5 -121t-211.5 -46zM752 1487h75l142 -250h-62l-123 211l-217 -211h-69z" />
    <glyph glyph-name="otilde" unicode="&#xf5;" horiz-adv-x="1116" 
d="M444 31q115 0 215.5 62.5t166.5 160.5t103.5 216t37.5 232q0 147 -79 235.5t-214 88.5q-92 0 -176 -41t-146 -109t-108 -155t-69 -181.5t-23 -185.5q0 -147 78.5 -235t213.5 -88zM438 -23q-165 0 -259.5 97t-94.5 280q0 94 24 193.5t74 194.5t119 170t167.5 121t211.5 46
q165 0 259.5 -97t94.5 -280q0 -94 -24 -193.5t-74 -194.5t-119 -170t-167.5 -121t-211.5 -46zM471 1282q67 168 180 168q36 0 69 -17.5t54 -38t49.5 -38t55.5 -17.5q31 0 58 26t56 85h56q-67 -168 -181 -168q-34 0 -67 17.5t-54.5 38t-50 38t-55.5 17.5q-32 0 -58 -25.5
t-57 -85.5h-55z" />
    <glyph glyph-name="odieresis" unicode="&#xf6;" horiz-adv-x="1116" 
d="M444 31q115 0 215.5 62.5t166.5 160.5t103.5 216t37.5 232q0 147 -79 235.5t-214 88.5q-92 0 -176 -41t-146 -109t-108 -155t-69 -181.5t-23 -185.5q0 -147 78.5 -235t213.5 -88zM438 -23q-165 0 -259.5 97t-94.5 280q0 94 24 193.5t74 194.5t119 170t167.5 121t211.5 46
q165 0 259.5 -97t94.5 -280q0 -94 -24 -193.5t-74 -194.5t-119 -170t-167.5 -121t-211.5 -46zM930 1475h78l-37 -148h-78zM569 1475h78l-37 -148h-78z" />
    <glyph glyph-name="divide" unicode="&#xf7;" 
d="M705 958v-131h-91v131h91zM705 336v-131h-91v131h91zM262 606h795v-49h-795v49z" />
    <glyph glyph-name="oslash" unicode="&#xf8;" horiz-adv-x="1122" 
d="M981 930q57 -89 57 -228q0 -94 -24 -193.5t-74 -194.5t-119 -170t-167.5 -121t-211.5 -46q-174 0 -268 111l-172 -182l-39 39l178 188q-53 89 -53 221q0 94 24 193.5t74 194.5t119 170t167.5 121t211.5 46q164 0 262 -104l174 184l39 -39zM678 1026q-92 0 -176 -41
t-146 -109t-108 -155t-69 -181.5t-23 -185.5q0 -107 32 -172l713 748q-81 96 -223 96zM449 31q92 0 176 40.5t146 109t108 155t69 181t23 185.5q0 107 -39 181l-713 -748q87 -104 230 -104z" />
    <glyph glyph-name="ugrave" unicode="&#xf9;" horiz-adv-x="1122" 
d="M754 0l51 203q-160 -226 -408 -226q-146 0 -218.5 62.5t-72.5 181.5q0 74 25 172l166 664h61l-163 -656q-25 -113 -25 -161q0 -107 60.5 -157t179.5 -50q47 0 96.5 12.5t105.5 45t104 81.5t90.5 129.5t67.5 181.5l144 574h61l-264 -1057h-61zM530 1487h88l152 -250h-59z
" />
    <glyph glyph-name="uacute" unicode="&#xfa;" horiz-adv-x="1122" 
d="M754 0l51 203q-160 -226 -408 -226q-146 0 -218.5 62.5t-72.5 181.5q0 74 25 172l166 664h61l-163 -656q-25 -113 -25 -161q0 -107 60.5 -157t179.5 -50q47 0 96.5 12.5t105.5 45t104 81.5t90.5 129.5t67.5 181.5l144 574h61l-264 -1057h-61zM909 1487h95l-271 -250h-65z
" />
    <glyph glyph-name="ucircumflex" unicode="&#xfb;" horiz-adv-x="1122" 
d="M754 0l51 203q-160 -226 -408 -226q-146 0 -218.5 62.5t-72.5 181.5q0 74 25 172l166 664h61l-163 -656q-25 -113 -25 -161q0 -107 60.5 -157t179.5 -50q47 0 96.5 12.5t105.5 45t104 81.5t90.5 129.5t67.5 181.5l144 574h61l-264 -1057h-61zM752 1487h75l142 -250h-62
l-123 211l-217 -211h-69z" />
    <glyph glyph-name="udieresis" unicode="&#xfc;" horiz-adv-x="1122" 
d="M754 0l51 203q-160 -226 -408 -226q-146 0 -218.5 62.5t-72.5 181.5q0 74 25 172l166 664h61l-163 -656q-25 -113 -25 -161q0 -107 60.5 -157t179.5 -50q47 0 96.5 12.5t105.5 45t104 81.5t90.5 129.5t67.5 181.5l144 574h61l-264 -1057h-61zM930 1475h78l-37 -148h-78z
M569 1475h78l-37 -148h-78z" />
    <glyph glyph-name="yacute" unicode="&#xfd;" horiz-adv-x="950" 
d="M238 1057l143 -959h8l586 959h65l-739 -1207q-48 -76 -78.5 -117t-72 -81.5t-87.5 -57t-104 -16.5q-50 0 -109 12l15 56q50 -13 86 -13q37 0 69.5 9.5t63 32.5t54 46t53 66t49 75t53.5 89l35 57l-156 1049h66zM823 1487h95l-271 -250h-65z" />
    <glyph glyph-name="thorn" unicode="&#xfe;" horiz-adv-x="1155" 
d="M305 801q66 123 185.5 200.5t242.5 77.5q149 0 243.5 -96.5t94.5 -280.5q0 -93 -22 -191.5t-69 -194.5t-112.5 -171t-161 -121.5t-206.5 -46.5q-137 0 -226 70.5t-108 188.5l-162 -648h-61l473 1899h61zM733 1026q-90 0 -173 -44t-145 -116.5t-108.5 -163t-70 -187
t-23.5 -185.5q0 -136 79.5 -217.5t213.5 -81.5q92 0 173.5 41t140 109t101 155t63 181t20.5 185q0 141 -71.5 232.5t-199.5 91.5z" />
    <glyph glyph-name="ydieresis" unicode="&#xff;" horiz-adv-x="950" 
d="M238 1057l143 -959h8l586 959h65l-739 -1207q-48 -76 -78.5 -117t-72 -81.5t-87.5 -57t-104 -16.5q-50 0 -109 12l15 56q50 -13 86 -13q37 0 69.5 9.5t63 32.5t54 46t53 66t49 75t53.5 89l35 57l-156 1049h66zM844 1475h78l-37 -148h-78zM483 1475h78l-37 -148h-78z" />
    <glyph glyph-name="Amacron" unicode="&#x100;" horiz-adv-x="1333" 
d="M283 489l-320 -489h-74l985 1487h64l244 -1487h-72l-76 489h-751zM883 1401l-383 -582l-178 -272h702l-41 272q-9 56 -42.5 264.5t-49.5 317.5h-8zM731 1776h475l-14 -56h-475z" />
    <glyph glyph-name="amacron" unicode="&#x101;" horiz-adv-x="1048" 
d="M870 690q19 74 19 129q0 209 -244 209q-139 0 -246 -78.5t-135 -197.5h-65q38 143 161 236t291 93q299 0 299 -250q0 -59 -18 -135q-99 -394 -127 -518t-33 -178h-67q22 120 40 199q-174 -222 -428 -222q-130 0 -205 61.5t-75 166.5q0 83 29.5 148t87.5 109.5t128.5 75.5
t169.5 50t191.5 29t212.5 16zM104 205q0 -47 20 -82t53.5 -54.5t70.5 -28.5t76 -9q153 0 292.5 107t182.5 270l43 172q-82 -4 -141 -8.5t-141.5 -16.5t-140.5 -28t-121.5 -44.5t-103 -65t-65 -91t-25.5 -121.5zM487 1421h480l-15 -55h-479z" />
    <glyph glyph-name="Abreve" unicode="&#x102;" horiz-adv-x="1333" 
d="M283 489l-320 -489h-74l985 1487h64l244 -1487h-72l-76 489h-751zM883 1401l-383 -582l-178 -272h702l-41 272q-9 56 -42.5 264.5t-49.5 317.5h-8zM944 1626q-84 0 -135 47t-51 131q0 39 4 51h57q-4 -28 -4 -43q0 -66 36.5 -101.5t98.5 -35.5q68 0 122 46t79 134h61
q-31 -110 -100.5 -169.5t-167.5 -59.5z" />
    <glyph glyph-name="abreve" unicode="&#x103;" horiz-adv-x="1048" 
d="M870 690q19 74 19 129q0 209 -244 209q-139 0 -246 -78.5t-135 -197.5h-65q38 143 161 236t291 93q299 0 299 -250q0 -59 -18 -135q-99 -394 -127 -518t-33 -178h-67q22 120 40 199q-174 -222 -428 -222q-130 0 -205 61.5t-75 166.5q0 83 29.5 148t87.5 109.5t128.5 75.5
t169.5 50t191.5 29t212.5 16zM104 205q0 -47 20 -82t53.5 -54.5t70.5 -28.5t76 -9q153 0 292.5 107t182.5 270l43 172q-82 -4 -141 -8.5t-141.5 -16.5t-140.5 -28t-121.5 -44.5t-103 -65t-65 -91t-25.5 -121.5zM725 1237q-88 0 -140.5 47.5t-52.5 132.5q0 33 9 70h57
q-8 -27 -8 -64q0 -66 37.5 -101.5t99.5 -35.5q71 0 128 52.5t81 148.5h59q-24 -119 -97 -184.5t-173 -65.5z" />
    <glyph glyph-name="Aogonek" unicode="&#x104;" horiz-adv-x="1333" 
d="M283 489l-320 -489h-74l985 1487h64l244 -1487h-72l-76 489h-751zM883 1401l-383 -582l-178 -272h702l-41 272q-9 56 -42.5 264.5t-49.5 317.5h-8zM1006 -418q-70 0 -112 42t-42 104q0 164 297 309l33 -37q-264 -132 -264 -262q0 -49 29 -74.5t73 -25.5q51 0 80 18
l-17 -62q-35 -12 -77 -12z" />
    <glyph glyph-name="aogonek" unicode="&#x105;" horiz-adv-x="1048" 
d="M870 690q19 74 19 129q0 209 -244 209q-139 0 -246 -78.5t-135 -197.5h-65q38 143 161 236t291 93q299 0 299 -250q0 -59 -18 -135q-99 -394 -127 -518t-33 -178h-67q22 120 40 199q-174 -222 -428 -222q-130 0 -205 61.5t-75 166.5q0 83 29.5 148t87.5 109.5t128.5 75.5
t169.5 50t191.5 29t212.5 16zM104 205q0 -47 20 -82t53.5 -54.5t70.5 -28.5t76 -9q153 0 292.5 107t182.5 270l43 172q-82 -4 -141 -8.5t-141.5 -16.5t-140.5 -28t-121.5 -44.5t-103 -65t-65 -91t-25.5 -121.5zM596 -418q-70 0 -112 40t-42 102q0 166 299 315l31 -39
q-264 -137 -264 -266q0 -47 29 -73t73 -26q50 0 80 19l-20 -62q-38 -10 -74 -10z" />
    <glyph glyph-name="Cacute" unicode="&#x106;" horiz-adv-x="1384" 
d="M946 1444q-131 0 -249.5 -57.5t-206 -153.5t-152.5 -218t-98 -254t-33 -259q0 -217 110.5 -342t305.5 -125q197 0 363 128t235 331h69q-39 -127 -115.5 -228.5t-170 -163t-193.5 -93.5t-197 -32q-223 0 -349 143.5t-126 381.5q0 110 25.5 226t72 227.5t119 210.5
t160 173.5t201 118t237.5 43.5q215 0 335 -113.5t120 -330.5q0 -14 -4 -60h-64q2 18 2 47q0 193 -99 296.5t-298 103.5zM1155 1855h92l-250 -227h-65z" />
    <glyph glyph-name="cacute" unicode="&#x107;" horiz-adv-x="1058" 
d="M446 -23q-169 0 -265.5 97t-96.5 280q0 94 24 193.5t74 194.5t119 170t167.5 121t211.5 46q153 0 246.5 -83.5t93.5 -241.5v-43h-66v43q0 122 -72 197t-208 75q-115 0 -215.5 -63.5t-166 -162.5t-103 -216.5t-37.5 -229.5q0 -147 81 -235t220 -88q135 0 254 92t163 231
h62q-50 -166 -183 -271.5t-303 -105.5zM909 1487h95l-271 -250h-65z" />
    <glyph glyph-name="Ccircumflex" unicode="&#x108;" horiz-adv-x="1384" 
d="M946 1444q-131 0 -249.5 -57.5t-206 -153.5t-152.5 -218t-98 -254t-33 -259q0 -217 110.5 -342t305.5 -125q197 0 363 128t235 331h69q-39 -127 -115.5 -228.5t-170 -163t-193.5 -93.5t-197 -32q-223 0 -349 143.5t-126 381.5q0 110 25.5 226t72 227.5t119 210.5
t160 173.5t201 118t237.5 43.5q215 0 335 -113.5t120 -330.5q0 -14 -4 -60h-64q2 18 2 47q0 193 -99 296.5t-298 103.5zM999 1855h86l138 -227h-64l-121 187l-211 -187h-71z" />
    <glyph glyph-name="ccircumflex" unicode="&#x109;" horiz-adv-x="1058" 
d="M446 -23q-169 0 -265.5 97t-96.5 280q0 94 24 193.5t74 194.5t119 170t167.5 121t211.5 46q153 0 246.5 -83.5t93.5 -241.5v-43h-66v43q0 122 -72 197t-208 75q-115 0 -215.5 -63.5t-166 -162.5t-103 -216.5t-37.5 -229.5q0 -147 81 -235t220 -88q135 0 254 92t163 231
h62q-50 -166 -183 -271.5t-303 -105.5zM752 1487h75l142 -250h-62l-123 211l-217 -211h-69z" />
    <glyph glyph-name="Cdotaccent" unicode="&#x10a;" horiz-adv-x="1384" 
d="M946 1444q-131 0 -249.5 -57.5t-206 -153.5t-152.5 -218t-98 -254t-33 -259q0 -217 110.5 -342t305.5 -125q197 0 363 128t235 331h69q-39 -127 -115.5 -228.5t-170 -163t-193.5 -93.5t-197 -32q-223 0 -349 143.5t-126 381.5q0 110 25.5 226t72 227.5t119 210.5
t160 173.5t201 118t237.5 43.5q215 0 335 -113.5t120 -330.5q0 -14 -4 -60h-64q2 18 2 47q0 193 -99 296.5t-298 103.5zM1004 1829h77l-37 -148h-77z" />
    <glyph glyph-name="cdotaccent" unicode="&#x10b;" horiz-adv-x="1058" 
d="M446 -23q-169 0 -265.5 97t-96.5 280q0 94 24 193.5t74 194.5t119 170t167.5 121t211.5 46q153 0 246.5 -83.5t93.5 -241.5v-43h-66v43q0 122 -72 197t-208 75q-115 0 -215.5 -63.5t-166 -162.5t-103 -216.5t-37.5 -229.5q0 -147 81 -235t220 -88q135 0 254 92t163 231
h62q-50 -166 -183 -271.5t-303 -105.5zM750 1475h77l-36 -148h-78z" />
    <glyph glyph-name="Ccaron" unicode="&#x10c;" horiz-adv-x="1384" 
d="M946 1444q-131 0 -249.5 -57.5t-206 -153.5t-152.5 -218t-98 -254t-33 -259q0 -217 110.5 -342t305.5 -125q197 0 363 128t235 331h69q-39 -127 -115.5 -228.5t-170 -163t-193.5 -93.5t-197 -32q-223 0 -349 143.5t-126 381.5q0 110 25.5 226t72 227.5t119 210.5
t160 173.5t201 118t237.5 43.5q215 0 335 -113.5t120 -330.5q0 -14 -4 -60h-64q2 18 2 47q0 193 -99 296.5t-298 103.5zM811 1855h63l123 -188l209 188h72l-244 -227h-86z" />
    <glyph glyph-name="ccaron" unicode="&#x10d;" horiz-adv-x="1058" 
d="M446 -23q-169 0 -265.5 97t-96.5 280q0 94 24 193.5t74 194.5t119 170t167.5 121t211.5 46q153 0 246.5 -83.5t93.5 -241.5v-43h-66v43q0 122 -72 197t-208 75q-115 0 -215.5 -63.5t-166 -162.5t-103 -216.5t-37.5 -229.5q0 -147 81 -235t220 -88q135 0 254 92t163 231
h62q-50 -166 -183 -271.5t-303 -105.5zM547 1487h61l123 -213l217 213h70l-254 -250h-76z" />
    <glyph glyph-name="Dcaron" unicode="&#x10e;" horiz-adv-x="1474" 
d="M791 1487q172 0 299 -36.5t203 -105t112.5 -159.5t36.5 -207q0 -156 -42 -300.5t-126 -268t-200.5 -215t-274.5 -143.5t-340 -52h-381l371 1487h342zM154 61h323q200 0 370 73t284.5 197.5t178.5 291.5t64 354q0 448 -592 448h-288zM762 1855h63l123 -188l209 188h72
l-244 -227h-86z" />
    <glyph glyph-name="dcaron" unicode="&#x10f;" horiz-adv-x="1191" 
d="M1407 1487h68l-2 -12l-115 -285h-49zM854 252q-64 -121 -184 -198t-242 -77q-150 0 -247 97t-97 280q0 93 23.5 192t73 194.5t117.5 170.5t165.5 121.5t208.5 46.5q133 0 218.5 -68.5t106.5 -181.5l164 658h62l-371 -1487h-61zM428 31q90 0 173 44t145 116.5t108.5 163
t70 187t23.5 185.5q0 137 -74.5 218t-207.5 81q-114 0 -213 -62.5t-163.5 -161t-101 -216.5t-36.5 -232q0 -140 74 -231.5t202 -91.5z" />
    <glyph glyph-name="Dcroat" unicode="&#x110;" horiz-adv-x="1499" 
d="M297 780l176 707h342q172 0 299 -36.5t203 -105t112.5 -159.5t36.5 -207q0 -156 -42 -300.5t-126 -268t-200.5 -215t-274.5 -143.5t-340 -52h-381l181 723h-211l14 57h211zM178 61h324q200 0 370 73t284.5 197.5t178.5 291.5t64 354q0 448 -592 448h-289l-162 -645h287
l-14 -57h-285z" />
    <glyph glyph-name="dslash" unicode="&#x111;" horiz-adv-x="1159" 
d="M428 -23q-150 0 -247 97t-97 280q0 93 23.5 192t73 194.5t117.5 170.5t165.5 121.5t208.5 46.5q133 0 218.5 -68.5t106.5 -181.5l109 437h-252l14 53h250l43 168h62l-43 -168h168l-15 -53h-166l-315 -1266h-61l63 252q-64 -121 -184 -198t-242 -77zM428 31q90 0 173 44
t145 116.5t108.5 163t70 187t23.5 185.5q0 137 -74.5 218t-207.5 81q-114 0 -213 -62.5t-163.5 -161t-101 -216.5t-36.5 -232q0 -140 74 -231.5t202 -91.5z" />
    <glyph glyph-name="Emacron" unicode="&#x112;" horiz-adv-x="1183" 
d="M1315 1487l-15 -57h-804l-158 -629h766l-17 -58h-763l-170 -686h829l-14 -57h-891l371 1487h866zM723 1776h475l-14 -56h-475z" />
    <glyph glyph-name="emacron" unicode="&#x113;" horiz-adv-x="1064" 
d="M422 -23q-158 0 -248 97t-90 280q0 94 23.5 193.5t73 194.5t117.5 170t165.5 121t208.5 46q87 0 151 -26.5t101 -74.5t54 -108.5t17 -134.5q0 -96 -28 -211h-797q-18 -86 -18 -170q0 -147 74 -235t202 -88q120 0 234 76.5t172 189.5h61q-73 -151 -195.5 -235.5
t-277.5 -84.5zM666 1026q-87 0 -166.5 -37.5t-139 -101.5t-104 -142t-72.5 -167h727q19 97 19 157q0 291 -264 291zM510 1421h479l-14 -55h-479z" />
    <glyph glyph-name="Ebreve" unicode="&#x114;" horiz-adv-x="1183" 
d="M1315 1487l-15 -57h-804l-158 -629h766l-17 -58h-763l-170 -686h829l-14 -57h-891l371 1487h866zM936 1626q-84 0 -135 47t-51 131q0 39 4 51h57q-4 -28 -4 -43q0 -66 36.5 -101.5t98.5 -35.5q68 0 122 46t79 134h61q-31 -110 -100.5 -169.5t-167.5 -59.5z" />
    <glyph glyph-name="ebreve" unicode="&#x115;" horiz-adv-x="1064" 
d="M422 -23q-158 0 -248 97t-90 280q0 94 23.5 193.5t73 194.5t117.5 170t165.5 121t208.5 46q87 0 151 -26.5t101 -74.5t54 -108.5t17 -134.5q0 -96 -28 -211h-797q-18 -86 -18 -170q0 -147 74 -235t202 -88q120 0 234 76.5t172 189.5h61q-73 -151 -195.5 -235.5
t-277.5 -84.5zM666 1026q-87 0 -166.5 -37.5t-139 -101.5t-104 -142t-72.5 -167h727q19 97 19 157q0 291 -264 291zM748 1237q-88 0 -140.5 47.5t-52.5 132.5q0 37 8 70h58q-9 -30 -9 -64q0 -66 38 -101.5t100 -35.5q71 0 127.5 52.5t80.5 148.5h60q-24 -119 -97 -184.5
t-173 -65.5z" />
    <glyph glyph-name="Edotaccent" unicode="&#x116;" horiz-adv-x="1183" 
d="M1315 1487l-15 -57h-804l-158 -629h766l-17 -58h-763l-170 -686h829l-14 -57h-891l371 1487h866zM938 1829h78l-37 -148h-78z" />
    <glyph glyph-name="edotaccent" unicode="&#x117;" horiz-adv-x="1064" 
d="M422 -23q-158 0 -248 97t-90 280q0 94 23.5 193.5t73 194.5t117.5 170t165.5 121t208.5 46q87 0 151 -26.5t101 -74.5t54 -108.5t17 -134.5q0 -96 -28 -211h-797q-18 -86 -18 -170q0 -147 74 -235t202 -88q120 0 234 76.5t172 189.5h61q-73 -151 -195.5 -235.5
t-277.5 -84.5zM666 1026q-87 0 -166.5 -37.5t-139 -101.5t-104 -142t-72.5 -167h727q19 97 19 157q0 291 -264 291zM735 1475h78l-37 -148h-78z" />
    <glyph glyph-name="Eogonek" unicode="&#x118;" horiz-adv-x="1183" 
d="M793 -418q-70 0 -112 42t-42 104q0 164 297 309l33 -37q-264 -132 -264 -262q0 -49 29 -74.5t73 -25.5q51 0 80 18l-17 -62q-35 -12 -77 -12zM1315 1487l-15 -57h-804l-158 -629h766l-17 -58h-763l-170 -686h829l-14 -57h-891l371 1487h866z" />
    <glyph glyph-name="eogonek" unicode="&#x119;" horiz-adv-x="1064" 
d="M170 524q-18 -86 -18 -170q0 -147 74 -235t202 -88q123 0 235 76t171 190h61q-74 -158 -203 -240q-163 -107 -233 -182t-70 -139q0 -47 28 -72.5t72 -25.5q51 0 76 18l-14 -62q-34 -12 -74 -12q-67 0 -110 43t-43 105q0 131 186 256q-40 -9 -88 -9q-158 0 -248 97
t-90 280q0 94 23.5 193.5t73 194.5t117.5 170t165.5 121t208.5 46q87 0 151 -26.5t101 -74.5t54 -108.5t17 -134.5q0 -96 -28 -211h-797zM666 1026q-87 0 -166.5 -37.5t-139 -101.5t-104 -142t-72.5 -167h727q19 97 19 157q0 291 -264 291z" />
    <glyph glyph-name="Ecaron" unicode="&#x11a;" horiz-adv-x="1183" 
d="M1315 1487l-15 -57h-804l-158 -629h766l-17 -58h-763l-170 -686h829l-14 -57h-891l371 1487h866zM745 1855h64l123 -188l209 188h71l-243 -227h-86z" />
    <glyph glyph-name="ecaron" unicode="&#x11b;" horiz-adv-x="1064" 
d="M422 -23q-158 0 -248 97t-90 280q0 94 23.5 193.5t73 194.5t117.5 170t165.5 121t208.5 46q87 0 151 -26.5t101 -74.5t54 -108.5t17 -134.5q0 -96 -28 -211h-797q-18 -86 -18 -170q0 -147 74 -235t202 -88q120 0 234 76.5t172 189.5h61q-73 -151 -195.5 -235.5
t-277.5 -84.5zM666 1026q-87 0 -166.5 -37.5t-139 -101.5t-104 -142t-72.5 -167h727q19 97 19 157q0 291 -264 291zM532 1487h62l123 -213l217 213h70l-254 -250h-76z" />
    <glyph glyph-name="Gcircumflex" unicode="&#x11c;" horiz-adv-x="1417" 
d="M598 -23q-216 0 -337.5 143.5t-121.5 381.5q0 110 25.5 226t72 227.5t119 210.5t160 173.5t201 118t237.5 43.5q207 0 331 -96t124 -266q0 -14 -4 -60h-64q2 18 2 47q0 149 -105.5 233.5t-291.5 84.5q-131 0 -249.5 -57.5t-206 -153.5t-152.5 -218t-98 -254t-33 -259
q0 -218 105.5 -342.5t293.5 -124.5q129 0 236.5 45.5t186 130t133.5 195t91 249.5l17 68h-486l15 53h547l-195 -776h-55q21 114 61 274h-8q-113 -151 -244.5 -224t-306.5 -73zM1014 1855h86l137 -227h-63l-121 187l-211 -187h-72z" />
    <glyph glyph-name="gcircumflex" unicode="&#x11d;" horiz-adv-x="1146" 
d="M854 299q-69 -122 -185.5 -198t-234.5 -76q-150 0 -247 92.5t-97 267.5q0 88 23.5 183t73 186.5t117.5 163.5t165.5 116.5t208.5 44.5q127 0 207 -62.5t104 -174.5l55 215h62l-232 -922q-25 -99 -54 -175.5t-75 -150t-104 -121.5t-141.5 -77t-186.5 -29q-157 0 -238 75
t-81 187q0 30 10 82h57q-6 -30 -6 -61q0 -103 68.5 -166.5t195.5 -63.5q94 0 172 32t128.5 79.5t91 118t62.5 133t40 137.5zM434 78q90 0 172 42t142 111t104.5 155.5t67 178.5t22.5 176q0 132 -69 208.5t-201 76.5q-92 0 -175 -39t-143.5 -104.5t-105.5 -148.5t-67.5 -173
t-22.5 -176q0 -133 74 -220t202 -87zM748 1487h75l142 -250h-62l-123 211l-217 -211h-69z" />
    <glyph glyph-name="Gbreve" unicode="&#x11e;" horiz-adv-x="1417" 
d="M598 -23q-216 0 -337.5 143.5t-121.5 381.5q0 110 25.5 226t72 227.5t119 210.5t160 173.5t201 118t237.5 43.5q207 0 331 -96t124 -266q0 -14 -4 -60h-64q2 18 2 47q0 149 -105.5 233.5t-291.5 84.5q-131 0 -249.5 -57.5t-206 -153.5t-152.5 -218t-98 -254t-33 -259
q0 -218 105.5 -342.5t293.5 -124.5q129 0 236.5 45.5t186 130t133.5 195t91 249.5l17 68h-486l15 53h547l-195 -776h-55q21 114 61 274h-8q-113 -151 -244.5 -224t-306.5 -73zM1016 1626q-84 0 -135.5 47t-51.5 131q0 36 5 51h57q-4 -28 -4 -43q0 -66 36.5 -101.5
t98.5 -35.5q68 0 122 46t79 134h61q-31 -110 -100.5 -169.5t-167.5 -59.5z" />
    <glyph glyph-name="gbreve" unicode="&#x11f;" horiz-adv-x="1146" 
d="M854 299q-69 -122 -185.5 -198t-234.5 -76q-150 0 -247 92.5t-97 267.5q0 88 23.5 183t73 186.5t117.5 163.5t165.5 116.5t208.5 44.5q127 0 207 -62.5t104 -174.5l55 215h62l-232 -922q-25 -99 -54 -175.5t-75 -150t-104 -121.5t-141.5 -77t-186.5 -29q-157 0 -238 75
t-81 187q0 30 10 82h57q-6 -30 -6 -61q0 -103 68.5 -166.5t195.5 -63.5q94 0 172 32t128.5 79.5t91 118t62.5 133t40 137.5zM434 78q90 0 172 42t142 111t104.5 155.5t67 178.5t22.5 176q0 132 -69 208.5t-201 76.5q-92 0 -175 -39t-143.5 -104.5t-105.5 -148.5t-67.5 -173
t-22.5 -176q0 -133 74 -220t202 -87zM758 1237q-88 0 -140.5 47.5t-52.5 132.5q0 37 8 70h58q-8 -27 -8 -64q0 -66 37.5 -101.5t99.5 -35.5q71 0 128 52.5t81 148.5h59q-24 -119 -97 -184.5t-173 -65.5z" />
    <glyph glyph-name="Gdotaccent" unicode="&#x120;" horiz-adv-x="1417" 
d="M598 -23q-216 0 -337.5 143.5t-121.5 381.5q0 110 25.5 226t72 227.5t119 210.5t160 173.5t201 118t237.5 43.5q207 0 331 -96t124 -266q0 -14 -4 -60h-64q2 18 2 47q0 149 -105.5 233.5t-291.5 84.5q-131 0 -249.5 -57.5t-206 -153.5t-152.5 -218t-98 -254t-33 -259
q0 -218 105.5 -342.5t293.5 -124.5q129 0 236.5 45.5t186 130t133.5 195t91 249.5l17 68h-486l15 53h547l-195 -776h-55q21 114 61 274h-8q-113 -151 -244.5 -224t-306.5 -73zM1018 1829h78l-37 -148h-78z" />
    <glyph glyph-name="gdotaccent" unicode="&#x121;" horiz-adv-x="1146" 
d="M854 299q-69 -122 -185.5 -198t-234.5 -76q-150 0 -247 92.5t-97 267.5q0 88 23.5 183t73 186.5t117.5 163.5t165.5 116.5t208.5 44.5q127 0 207 -62.5t104 -174.5l55 215h62l-232 -922q-25 -99 -54 -175.5t-75 -150t-104 -121.5t-141.5 -77t-186.5 -29q-157 0 -238 75
t-81 187q0 30 10 82h57q-6 -30 -6 -61q0 -103 68.5 -166.5t195.5 -63.5q94 0 172 32t128.5 79.5t91 118t62.5 133t40 137.5zM434 78q90 0 172 42t142 111t104.5 155.5t67 178.5t22.5 176q0 132 -69 208.5t-201 76.5q-92 0 -175 -39t-143.5 -104.5t-105.5 -148.5t-67.5 -173
t-22.5 -176q0 -133 74 -220t202 -87zM745 1475h78l-37 -148h-77z" />
    <glyph glyph-name="uni0122" unicode="&#x122;" horiz-adv-x="1417" 
d="M598 -23q-216 0 -337.5 143.5t-121.5 381.5q0 110 25.5 226t72 227.5t119 210.5t160 173.5t201 118t237.5 43.5q207 0 331 -96t124 -266q0 -14 -4 -60h-64q2 18 2 47q0 149 -105.5 233.5t-291.5 84.5q-131 0 -249.5 -57.5t-206 -153.5t-152.5 -218t-98 -254t-33 -259
q0 -218 105.5 -342.5t293.5 -124.5q129 0 236.5 45.5t186 130t133.5 195t91 249.5l17 68h-486l15 53h547l-195 -776h-55q21 114 61 274h-8q-113 -151 -244.5 -224t-306.5 -73zM522 -156h80l-31 -125l-100 -186h-43l94 184h-33z" />
    <glyph glyph-name="uni0123" unicode="&#x123;" horiz-adv-x="1146" 
d="M854 299q-69 -122 -185.5 -198t-234.5 -76q-150 0 -247 92.5t-97 267.5q0 88 23.5 183t73 186.5t117.5 163.5t165.5 116.5t208.5 44.5q127 0 207 -62.5t104 -174.5l55 215h62l-232 -922q-25 -99 -54 -175.5t-75 -150t-104 -121.5t-141.5 -77t-186.5 -29q-157 0 -238 75
t-81 187q0 30 10 82h57q-6 -30 -6 -61q0 -103 68.5 -166.5t195.5 -63.5q94 0 172 32t128.5 79.5t91 118t62.5 133t40 137.5zM434 78q90 0 172 42t142 111t104.5 155.5t67 178.5t22.5 176q0 132 -69 208.5t-201 76.5q-92 0 -175 -39t-143.5 -104.5t-105.5 -148.5t-67.5 -173
t-22.5 -176q0 -133 74 -220t202 -87zM774 1262h-80l31 124l100 187h43l-92 -184h31z" />
    <glyph glyph-name="Hcircumflex" unicode="&#x124;" horiz-adv-x="1445" 
d="M322 735l-183 -735h-61l371 1487h61l-174 -694h905l174 694h62l-371 -1487h-62l183 735h-905zM997 1855h86l138 -227h-64l-121 187l-211 -187h-71z" />
    <glyph glyph-name="hcircumflex" unicode="&#x125;" horiz-adv-x="1122" 
d="M477 1487l-160 -635q161 227 410 227q146 0 218.5 -62t72.5 -181q0 -74 -25 -172l-166 -664h-61l164 655q24 108 24 162q0 107 -60 157t-179 50q-46 0 -94.5 -12.5t-105.5 -44.5t-105.5 -81.5t-92.5 -131.5t-69 -185l-142 -569h-61l371 1487h61zM485 1855h80l121 -227
h-61l-103 191l-192 -191h-70z" />
    <glyph glyph-name="Hbar" unicode="&#x126;" horiz-adv-x="1474" 
d="M211 1171l14 58h172l66 258h61l-65 -258h905l66 258h61l-66 -258h177l-15 -58h-174l-293 -1171h-61l182 735h-905l-182 -735h-62l293 1171h-174zM1255 793l97 378h-906l-96 -378h905z" />
    <glyph glyph-name="hbar" unicode="&#x127;" horiz-adv-x="1122" 
d="M360 1266h-165l14 53h164l43 168h61l-43 -168h254l-14 -53h-252l-105 -414q161 227 410 227q146 0 218.5 -62t72.5 -181q0 -74 -25 -172l-166 -664h-61l164 655q24 108 24 162q0 107 -60 157t-179 50q-46 0 -94 -11.5t-104.5 -43t-104.5 -79t-91.5 -127t-68.5 -179.5
l-146 -584h-61z" />
    <glyph glyph-name="Itilde" unicode="&#x128;" horiz-adv-x="479" 
d="M510 1487l-371 -1487h-61l371 1487h61zM240 1665q63 168 184 168q37 0 71.5 -17.5t56 -38t50.5 -38t57 -17.5q65 0 119 111h56q-17 -49 -41 -83.5t-49.5 -52t-48.5 -25t-46 -7.5q-37 0 -70.5 17.5t-55 38t-51 38t-58.5 17.5q-35 0 -62.5 -25.5t-56.5 -85.5h-55z" />
    <glyph glyph-name="itilde" unicode="&#x129;" horiz-adv-x="413" 
d="M371 1057l-265 -1057h-61l264 1057h62zM156 1282q58 168 163 168q30 0 60 -17.5t49.5 -38t44.5 -38t47 -17.5q27 0 55.5 27t51.5 84h51q-32 -93 -75.5 -130.5t-88.5 -37.5q-31 0 -60.5 17.5t-48.5 38t-44.5 38t-49.5 17.5q-30 0 -55 -26t-51 -85h-49z" />
    <glyph glyph-name="Imacron" unicode="&#x12a;" horiz-adv-x="479" 
d="M510 1487l-371 -1487h-61l371 1487h61zM303 1776h475l-14 -56h-475z" />
    <glyph glyph-name="imacron" unicode="&#x12b;" horiz-adv-x="413" 
d="M371 1057l-265 -1057h-61l264 1057h62zM227 1421h394l-15 -55h-393z" />
    <glyph glyph-name="Ibreve" unicode="&#x12c;" horiz-adv-x="479" 
d="M510 1487l-371 -1487h-61l371 1487h61zM516 1626q-84 0 -135 47t-51 131q0 39 4 51h57q-4 -28 -4 -43q0 -66 36.5 -101.5t98.5 -35.5q68 0 122 46t79 134h61q-31 -110 -100.5 -169.5t-167.5 -59.5z" />
    <glyph glyph-name="ibreve" unicode="&#x12d;" horiz-adv-x="413" 
d="M371 1057l-265 -1057h-61l264 1057h62zM389 1237q-76 0 -122 45.5t-46 128.5q0 31 10 76h58q-10 -52 -10 -72q0 -61 30 -95t84 -34q72 0 122 53.5t69 147.5h59q-23 -117 -90.5 -183.5t-163.5 -66.5z" />
    <glyph glyph-name="Iogonek" unicode="&#x12e;" horiz-adv-x="479" 
d="M139 0q-235 -129 -235 -264q0 -48 26.5 -73t69.5 -25q51 0 76 18l-15 -62q-35 -12 -73 -12q-66 0 -108 42.5t-42 105.5q0 152 246 293l365 1464h61z" />
    <glyph glyph-name="iogonek" unicode="&#x12f;" horiz-adv-x="413" 
d="M475 1475l-37 -148h-78l37 148h78zM309 1057h62l-265 -1057q-235 -129 -235 -264q0 -48 26.5 -73t69.5 -25q51 0 76 18l-14 -62q-35 -12 -74 -12q-66 0 -108 42.5t-42 105.5q0 152 246 293z" />
    <glyph glyph-name="Idot" unicode="&#x130;" horiz-adv-x="479" 
d="M510 1487l-371 -1487h-61l371 1487h61zM518 1829h78l-37 -148h-78z" />
    <glyph glyph-name="dotlessi" unicode="&#x131;" horiz-adv-x="413" 
d="M371 1057l-265 -1057h-61l264 1057h62z" />
    <glyph glyph-name="IJ" unicode="&#x132;" horiz-adv-x="1105" 
d="M510 1487l-371 -1487h-61l371 1487h61zM401 53q44 -8 97 -8q117 0 193 80.5t128 284.5l268 1077h62l-268 -1077q-21 -80 -40 -135.5t-51 -112.5t-71.5 -91.5t-99 -56.5t-134.5 -22q-57 0 -98 8z" />
    <glyph glyph-name="ij" unicode="&#x133;" horiz-adv-x="823" 
d="M371 1057l-265 -1057h-61l264 1057h62zM475 1475l-37 -148h-78l37 148h78zM780 1057l-276 -1106q-12 -47 -20.5 -76.5t-24 -73t-31.5 -71t-40.5 -59t-52.5 -49.5t-66.5 -30t-84.5 -12q-34 0 -71 6l14 58q30 -9 63 -9q34 0 63.5 10t51.5 25t41 41t32 50.5t26 60t20.5 63
t17.5 66.5l277 1106h61zM885 1475l-37 -148h-78l37 148h78z" />
    <glyph glyph-name="Jcircumflex" unicode="&#x134;" horiz-adv-x="624" 
d="M-80 53q44 -8 96 -8q117 0 193.5 80.5t128.5 284.5l268 1077h62l-269 -1077q-21 -80 -40 -135t-51 -113t-71 -92t-98.5 -56t-134.5 -22q-57 0 -98 8zM668 1855h86l137 -227h-64l-120 187l-211 -187h-72z" />
    <glyph glyph-name="jcircumflex" unicode="&#x135;" horiz-adv-x="413" 
d="M412 1487h75l109 -250h-57l-95 211l-204 -211h-66zM371 1057l-277 -1106q-12 -47 -20.5 -76.5t-24 -73t-31 -71t-40 -59t-52.5 -49.5t-66.5 -30t-84.5 -12q-35 0 -72 6l14 58q30 -9 64 -9t63.5 10t51.5 25t41 41t32 50.5t26 60t20.5 63t17.5 66.5l276 1106h62z" />
    <glyph glyph-name="uni0136" unicode="&#x136;" horiz-adv-x="1110" 
d="M510 1487l-168 -674l866 674h86l-891 -692l594 -795h-73l-590 784l-195 -784h-61l371 1487h61zM403 -156h80l-30 -125l-101 -186h-43l94 184h-32z" />
    <glyph glyph-name="uni0137" unicode="&#x137;" horiz-adv-x="899" 
d="M477 1487l-221 -881l625 451h90l-645 -465l458 -592h-77l-455 588l-146 -588h-61l371 1487h61zM287 -156h80l-31 -125l-100 -186h-43l94 184h-33z" />
    <glyph glyph-name="kgreenlandic" unicode="&#x138;" horiz-adv-x="899" 
d="M371 1057l-113 -451l623 451h90l-645 -465l458 -592h-77l-453 588l-148 -588h-61l264 1057h62z" />
    <glyph glyph-name="Lacute" unicode="&#x139;" horiz-adv-x="1097" 
d="M510 1487l-356 -1430h813l-15 -57h-874l371 1487h61zM690 1855h92l-250 -227h-65z" />
    <glyph glyph-name="lacute" unicode="&#x13a;" horiz-adv-x="413" 
d="M477 1487l-371 -1487h-61l371 1487h61zM664 1855h92l-250 -227h-66z" />
    <glyph glyph-name="uni013B" unicode="&#x13b;" horiz-adv-x="1097" 
d="M510 1487l-356 -1430h813l-15 -57h-874l371 1487h61zM459 -156h80l-31 -125l-100 -186h-43l94 184h-33z" />
    <glyph glyph-name="uni013C" unicode="&#x13c;" horiz-adv-x="413" 
d="M477 1487l-371 -1487h-61l371 1487h61zM6 -156h80l-31 -125l-100 -186h-43l94 184h-33z" />
    <glyph glyph-name="Lcaron" unicode="&#x13d;" horiz-adv-x="1097" 
d="M946 1487h68l-2 -12l-115 -285h-49zM510 1487l-356 -1430h813l-15 -57h-874l371 1487h61z" />
    <glyph glyph-name="lcaron" unicode="&#x13e;" horiz-adv-x="446" 
d="M664 1487h67l-2 -12l-115 -285h-49zM477 1487l-371 -1487h-61l371 1487h61z" />
    <glyph glyph-name="Ldot" unicode="&#x13f;" horiz-adv-x="1099" 
d="M510 1487l-356 -1430h813l-15 -57h-874l371 1487h61zM920 883l-37 -148h-80l37 148h80z" />
    <glyph glyph-name="ldot" unicode="&#x140;" horiz-adv-x="485" 
d="M477 1487l-371 -1487h-61l371 1487h61zM578 883l-37 -148h-80l37 148h80z" />
    <glyph glyph-name="Lslash" unicode="&#x141;" horiz-adv-x="1159" 
d="M90 582l227 135l193 770h61l-182 -729l504 299l-19 -74l-503 -295l-156 -631h813l-14 -57h-875l160 645l-225 -133z" />
    <glyph glyph-name="lslash" unicode="&#x142;" horiz-adv-x="520" 
d="M98 686l215 162l160 639h62l-148 -588l217 164l-18 -78l-217 -162l-205 -823h-62l193 772l-215 -162z" />
    <glyph glyph-name="Nacute" unicode="&#x143;" horiz-adv-x="1445" 
d="M485 1384l-346 -1384h-61l371 1487h73l539 -1385h8l346 1385h62l-371 -1487h-74l-538 1384h-9zM1153 1855h92l-250 -227h-65z" />
    <glyph glyph-name="nacute" unicode="&#x144;" horiz-adv-x="1122" 
d="M371 1057l-52 -203q159 225 408 225q146 0 218.5 -62t72.5 -181q0 -74 -25 -172l-166 -664h-61l164 655q24 108 24 162q0 107 -60 157t-179 50q-47 0 -94.5 -11.5t-104 -43t-105 -80.5t-92.5 -131.5t-71 -188.5l-142 -569h-61l264 1057h62zM903 1487h94l-270 -250h-65z
" />
    <glyph glyph-name="uni0145" unicode="&#x145;" horiz-adv-x="1445" 
d="M485 1384l-346 -1384h-61l371 1487h73l539 -1385h8l346 1385h62l-371 -1487h-74l-538 1384h-9zM522 -156h80l-31 -125l-100 -186h-43l94 184h-33z" />
    <glyph glyph-name="uni0146" unicode="&#x146;" horiz-adv-x="1122" 
d="M371 1057l-52 -203q159 225 408 225q146 0 218.5 -62t72.5 -181q0 -74 -25 -172l-166 -664h-61l164 655q24 108 24 162q0 107 -60 157t-179 50q-47 0 -94.5 -11.5t-104 -43t-105 -80.5t-92.5 -131.5t-71 -188.5l-142 -569h-61l264 1057h62zM362 -156h80l-30 -125
l-101 -186h-43l94 184h-32z" />
    <glyph glyph-name="Ncaron" unicode="&#x147;" horiz-adv-x="1445" 
d="M485 1384l-346 -1384h-61l371 1487h73l539 -1385h8l346 1385h62l-371 -1487h-74l-538 1384h-9zM809 1855h63l123 -188l209 188h72l-244 -227h-86z" />
    <glyph glyph-name="ncaron" unicode="&#x148;" horiz-adv-x="1122" 
d="M371 1057l-52 -203q159 225 408 225q146 0 218.5 -62t72.5 -181q0 -74 -25 -172l-166 -664h-61l164 655q24 108 24 162q0 107 -60 157t-179 50q-47 0 -94.5 -11.5t-104 -43t-105 -80.5t-92.5 -131.5t-71 -188.5l-142 -569h-61l264 1057h62zM541 1487h61l123 -213l217 213
h70l-254 -250h-76z" />
    <glyph glyph-name="napostrophe" unicode="&#x149;" horiz-adv-x="1226" 
d="M475 1057l-51 -203q159 225 407 225q146 0 218.5 -62t72.5 -181q0 -78 -24 -172l-166 -664h-62l164 655q25 113 25 162q0 107 -60.5 157t-179.5 50q-47 0 -94.5 -11.5t-104 -43t-105 -80.5t-92.5 -131.5t-71 -188.5l-141 -569h-61l264 1057h61zM330 1372h-51l28 115h103
l-31 -125l-113 -186h-47z" />
    <glyph glyph-name="Eng" unicode="&#x14a;" horiz-adv-x="1445" 
d="M711 -420q-58 0 -99 8l15 54q49 -9 96 -9q57 0 102.5 17.5t86 59t73 113.5t59.5 177l-550 1384h-9l-16 -67l-86 -342l-244 -975h-61l371 1487h73l545 -1372h6l88 356l254 1016h62l-371 -1489q-21 -80 -40 -135t-51 -113t-71 -92t-98.5 -56t-134.5 -22z" />
    <glyph glyph-name="eng" unicode="&#x14b;" horiz-adv-x="1122" 
d="M930 655q24 108 24 162q0 107 -60 157t-179 50q-47 0 -96.5 -12.5t-105.5 -44.5t-104 -81t-91 -129.5t-68 -181.5l-144 -575h-61l264 1057h62l-52 -203q159 225 408 225q146 0 218.5 -62t72.5 -181q0 -74 -25 -172l-178 -713q-12 -47 -20.5 -76.5t-24 -73t-31 -71
t-40 -59t-52.5 -49.5t-66.5 -30t-84.5 -12q-34 0 -72 6l14 58q30 -9 64 -9t63.5 10t51.5 25t41 41t32 50.5t26 60t20.5 63t17.5 66.5z" />
    <glyph glyph-name="Omacron" unicode="&#x14c;" horiz-adv-x="1509" 
d="M641 35q136 0 259 55.5t214 149t158.5 213.5t102 253t34.5 263q0 227 -115 353t-317 126q-136 0 -259 -55.5t-214 -149t-158.5 -213.5t-102 -253t-34.5 -263q0 -227 115 -353t317 -126zM635 -23q-232 0 -363 141t-131 394q0 112 26.5 228.5t75 227t123.5 208t165.5 171
t207.5 116t244 42.5q232 0 363 -140.5t131 -393.5q0 -136 -36.5 -276t-109.5 -268.5t-172.5 -229t-235.5 -160.5t-288 -60zM817 1776h475l-14 -56h-475z" />
    <glyph glyph-name="omacron" unicode="&#x14d;" horiz-adv-x="1116" 
d="M444 31q115 0 215.5 62.5t166.5 160.5t103.5 216t37.5 232q0 147 -79 235.5t-214 88.5q-92 0 -176 -41t-146 -109t-108 -155t-69 -181.5t-23 -185.5q0 -147 78.5 -235t213.5 -88zM438 -23q-165 0 -259.5 97t-94.5 280q0 94 24 193.5t74 194.5t119 170t167.5 121t211.5 46
q165 0 259.5 -97t94.5 -280q0 -94 -24 -193.5t-74 -194.5t-119 -170t-167.5 -121t-211.5 -46zM524 1421h480l-15 -55h-479z" />
    <glyph glyph-name="Obreve" unicode="&#x14e;" horiz-adv-x="1509" 
d="M641 35q136 0 259 55.5t214 149t158.5 213.5t102 253t34.5 263q0 227 -115 353t-317 126q-136 0 -259 -55.5t-214 -149t-158.5 -213.5t-102 -253t-34.5 -263q0 -227 115 -353t317 -126zM635 -23q-232 0 -363 141t-131 394q0 112 26.5 228.5t75 227t123.5 208t165.5 171
t207.5 116t244 42.5q232 0 363 -140.5t131 -393.5q0 -136 -36.5 -276t-109.5 -268.5t-172.5 -229t-235.5 -160.5t-288 -60zM1030 1626q-84 0 -135 47t-51 131q0 39 4 51h57q-4 -28 -4 -43q0 -66 36.5 -101.5t98.5 -35.5q68 0 122 46t79 134h61q-31 -110 -100.5 -169.5
t-167.5 -59.5z" />
    <glyph glyph-name="obreve" unicode="&#x14f;" horiz-adv-x="1116" 
d="M444 31q115 0 215.5 62.5t166.5 160.5t103.5 216t37.5 232q0 147 -79 235.5t-214 88.5q-92 0 -176 -41t-146 -109t-108 -155t-69 -181.5t-23 -185.5q0 -147 78.5 -235t213.5 -88zM438 -23q-165 0 -259.5 97t-94.5 280q0 94 24 193.5t74 194.5t119 170t167.5 121t211.5 46
q165 0 259.5 -97t94.5 -280q0 -94 -24 -193.5t-74 -194.5t-119 -170t-167.5 -121t-211.5 -46zM762 1237q-88 0 -140.5 47.5t-52.5 132.5q0 33 9 70h57q-8 -27 -8 -64q0 -66 37.5 -101.5t99.5 -35.5q71 0 128 52.5t81 148.5h59q-24 -119 -97 -184.5t-173 -65.5z" />
    <glyph glyph-name="Ohungarumlaut" unicode="&#x150;" horiz-adv-x="1509" 
d="M641 35q136 0 259 55.5t214 149t158.5 213.5t102 253t34.5 263q0 227 -115 353t-317 126q-136 0 -259 -55.5t-214 -149t-158.5 -213.5t-102 -253t-34.5 -263q0 -227 115 -353t317 -126zM635 -23q-232 0 -363 141t-131 394q0 112 26.5 228.5t75 227t123.5 208t165.5 171
t207.5 116t244 42.5q232 0 363 -140.5t131 -393.5q0 -136 -36.5 -276t-109.5 -268.5t-172.5 -229t-235.5 -160.5t-288 -60zM1399 1851h92l-258 -231h-64zM1049 1851h92l-258 -231h-64z" />
    <glyph glyph-name="ohungarumlaut" unicode="&#x151;" horiz-adv-x="1116" 
d="M444 31q115 0 215.5 62.5t166.5 160.5t103.5 216t37.5 232q0 147 -79 235.5t-214 88.5q-92 0 -176 -41t-146 -109t-108 -155t-69 -181.5t-23 -185.5q0 -147 78.5 -235t213.5 -88zM438 -23q-165 0 -259.5 97t-94.5 280q0 94 24 193.5t74 194.5t119 170t167.5 121t211.5 46
q165 0 259.5 -97t94.5 -280q0 -94 -24 -193.5t-74 -194.5t-119 -170t-167.5 -121t-211.5 -46zM1081 1487h93l-261 -250h-63zM756 1487h92l-260 -250h-64z" />
    <glyph glyph-name="OE" unicode="&#x152;" horiz-adv-x="1972" 
d="M150 563q0 137 38 270t115 251t182.5 208t251 142.5t310.5 52.5h1056l-14 -57h-725l-158 -629h686l-16 -58h-684l-170 -686h750l-15 -57h-1079q-155 0 -276.5 75.5t-186.5 203.5t-65 284zM213 565q0 -218 135.5 -363t343.5 -145h269l342 1373h-271q-142 0 -271 -47
t-227.5 -130.5t-171.5 -192t-111 -236t-38 -259.5z" />
    <glyph glyph-name="oe" unicode="&#x153;" horiz-adv-x="1892" 
d="M1251 -23q-152 0 -238.5 88.5t-97.5 249.5q-73 -151 -199 -244.5t-286 -93.5q-159 0 -252.5 97.5t-93.5 279.5q0 94 24 193.5t73.5 194.5t117.5 170t165 121t208 46q149 0 237.5 -88t98.5 -252q77 153 200.5 246.5t290.5 93.5q87 0 151 -26.5t101 -74.5t54.5 -109
t17.5 -136q0 -90 -29 -209h-797q-18 -86 -18 -170q0 -149 71.5 -236t202.5 -87q120 0 235 76.5t173 189.5h61q-70 -148 -194.5 -234t-276.5 -86zM436 31q91 0 173.5 40.5t143 109t106 155t68.5 181t23 185.5q0 147 -77 235.5t-207 88.5q-91 0 -173.5 -41t-143 -109
t-106 -155t-68.5 -181.5t-23 -185.5q0 -147 77 -235t207 -88zM1493 1026q-87 0 -166 -35.5t-139 -97.5t-104.5 -142t-71.5 -173h727q18 92 18 157q0 130 -62.5 210.5t-201.5 80.5z" />
    <glyph glyph-name="Racute" unicode="&#x154;" horiz-adv-x="1249" 
d="M840 1487q393 0 393 -287q0 -191 -103 -309t-292 -164v-8q133 -48 153 -244l53 -475h-65l-53 475q-13 118 -76.5 172.5t-185.5 54.5h-351l-174 -702h-61l371 1487h391zM328 760h360q93 0 178.5 29t152 82t106.5 136.5t40 184.5q0 124 -85.5 178.5t-245.5 54.5h-340z
M1008 1855h92l-250 -227h-66z" />
    <glyph glyph-name="racute" unicode="&#x155;" horiz-adv-x="679" 
d="M371 1057l-52 -205q69 106 170 158.5t216 52.5q43 0 86 -6l-17 -60q-51 7 -80 7q-159 0 -275 -108.5t-161 -289.5l-152 -606h-61l264 1057h62zM717 1487h94l-270 -250h-66z" />
    <glyph glyph-name="uni0156" unicode="&#x156;" horiz-adv-x="1249" 
d="M840 1487q393 0 393 -287q0 -191 -103 -309t-292 -164v-8q133 -48 153 -244l53 -475h-65l-53 475q-13 118 -76.5 172.5t-185.5 54.5h-351l-174 -702h-61l371 1487h391zM328 760h360q93 0 178.5 29t152 82t106.5 136.5t40 184.5q0 124 -85.5 178.5t-245.5 54.5h-340z
M442 -156h80l-30 -125l-101 -186h-43l94 184h-32z" />
    <glyph glyph-name="uni0157" unicode="&#x157;" horiz-adv-x="679" 
d="M371 1057l-52 -205q69 106 170 158.5t216 52.5q43 0 86 -6l-17 -60q-51 7 -80 7q-159 0 -275 -108.5t-161 -289.5l-152 -606h-61l264 1057h62zM6 -156h80l-31 -125l-100 -186h-43l94 184h-33z" />
    <glyph glyph-name="Rcaron" unicode="&#x158;" horiz-adv-x="1249" 
d="M840 1487q393 0 393 -287q0 -191 -103 -309t-292 -164v-8q133 -48 153 -244l53 -475h-65l-53 475q-13 118 -76.5 172.5t-185.5 54.5h-351l-174 -702h-61l371 1487h391zM328 760h360q93 0 178.5 29t152 82t106.5 136.5t40 184.5q0 124 -85.5 178.5t-245.5 54.5h-340z
M664 1855h63l123 -188l209 188h71l-243 -227h-86z" />
    <glyph glyph-name="rcaron" unicode="&#x159;" horiz-adv-x="679" 
d="M371 1057l-52 -205q69 106 170 158.5t216 52.5q43 0 86 -6l-17 -60q-51 7 -80 7q-159 0 -275 -108.5t-161 -289.5l-152 -606h-61l264 1057h62zM373 1487h61l123 -211l217 211h72l-254 -250h-82z" />
    <glyph glyph-name="Sacute" unicode="&#x15a;" horiz-adv-x="1175" 
d="M1104 1135q0 147 -94 232t-254 85q-81 0 -153 -19t-131.5 -57t-94.5 -102.5t-35 -147.5q0 -46 12 -85t39 -71t53.5 -55.5t72.5 -47.5t78 -38.5t87 -37.5q54 -23 77.5 -33.5t71 -34.5t70.5 -41.5t56 -47.5t48.5 -59.5t27.5 -70t12 -86.5q0 -112 -43.5 -198.5
t-118.5 -138.5t-166 -78t-193 -26q-222 0 -335 101t-113 274q0 57 8 109h61q-10 -65 -10 -105q0 -154 104.5 -239.5t290.5 -85.5q122 0 222 42.5t163.5 132t63.5 210.5q0 38 -10.5 71.5t-24.5 58.5t-42.5 50.5t-50 41t-63.5 36.5t-66 31.5t-73 31.5q-52 21 -80 33.5t-74 36
t-72 42.5t-58.5 49t-49.5 60.5t-29 72.5t-12 89q0 97 41.5 173t112 121t155 68t177.5 23q194 0 298.5 -98.5t104.5 -263.5q0 -57 -8 -88h-61q8 36 8 80zM948 1855h92l-249 -227h-66z" />
    <glyph glyph-name="sacute" unicode="&#x15b;" horiz-adv-x="964" 
d="M745 295q0 55 -24.5 95t-64 61t-90.5 39t-103.5 29t-103.5 31t-90.5 44t-64 69.5t-24.5 106.5q0 137 114.5 223t270.5 86q161 0 253.5 -62.5t92.5 -193.5q0 -44 -8 -80h-65q8 31 8 72q0 113 -70.5 162t-222.5 49q-39 0 -80 -9t-81.5 -29t-72 -48.5t-51.5 -71t-20 -92.5
q0 -52 24.5 -89.5t64 -57t90.5 -37t103.5 -28.5t103.5 -31.5t90.5 -47t64 -74.5t24.5 -114q0 -104 -62.5 -178.5t-156 -108t-205.5 -33.5q-346 0 -346 263q0 44 12 96h62q-13 -54 -13 -88q0 -217 297 -217q63 0 123 16.5t110 47.5t80.5 83t30.5 117zM801 1487h94l-270 -250
h-66z" />
    <glyph glyph-name="Scircumflex" unicode="&#x15c;" horiz-adv-x="1175" 
d="M1104 1135q0 147 -94 232t-254 85q-81 0 -153 -19t-131.5 -57t-94.5 -102.5t-35 -147.5q0 -46 12 -85t39 -71t53.5 -55.5t72.5 -47.5t78 -38.5t87 -37.5q54 -23 77.5 -33.5t71 -34.5t70.5 -41.5t56 -47.5t48.5 -59.5t27.5 -70t12 -86.5q0 -112 -43.5 -198.5
t-118.5 -138.5t-166 -78t-193 -26q-222 0 -335 101t-113 274q0 57 8 109h61q-10 -65 -10 -105q0 -154 104.5 -239.5t290.5 -85.5q122 0 222 42.5t163.5 132t63.5 210.5q0 38 -10.5 71.5t-24.5 58.5t-42.5 50.5t-50 41t-63.5 36.5t-66 31.5t-73 31.5q-52 21 -80 33.5t-74 36
t-72 42.5t-58.5 49t-49.5 60.5t-29 72.5t-12 89q0 97 41.5 173t112 121t155 68t177.5 23q194 0 298.5 -98.5t104.5 -263.5q0 -57 -8 -88h-61q8 36 8 80zM821 1855h86l137 -227h-63l-121 187l-211 -187h-71z" />
    <glyph glyph-name="scircumflex" unicode="&#x15d;" horiz-adv-x="964" 
d="M745 295q0 55 -24.5 95t-64 61t-90.5 39t-103.5 29t-103.5 31t-90.5 44t-64 69.5t-24.5 106.5q0 137 114.5 223t270.5 86q161 0 253.5 -62.5t92.5 -193.5q0 -44 -8 -80h-65q8 31 8 72q0 113 -70.5 162t-222.5 49q-39 0 -80 -9t-81.5 -29t-72 -48.5t-51.5 -71t-20 -92.5
q0 -52 24.5 -89.5t64 -57t90.5 -37t103.5 -28.5t103.5 -31.5t90.5 -47t64 -74.5t24.5 -114q0 -104 -62.5 -178.5t-156 -108t-205.5 -33.5q-346 0 -346 263q0 44 12 96h62q-13 -54 -13 -88q0 -217 297 -217q63 0 123 16.5t110 47.5t80.5 83t30.5 117zM664 1487h75l142 -250
h-62l-123 211l-217 -211h-69z" />
    <glyph glyph-name="Scedilla" unicode="&#x15e;" horiz-adv-x="1175" 
d="M1104 1135q0 147 -94 232t-254 85q-81 0 -153 -19t-131.5 -57t-94.5 -102.5t-35 -147.5q0 -46 12 -85t39 -71t53.5 -55.5t72.5 -47.5t78 -38.5t87 -37.5q54 -23 77.5 -33.5t71 -34.5t70.5 -41.5t56 -47.5t48.5 -59.5t27.5 -70t12 -86.5q0 -112 -43.5 -198.5
t-118.5 -138.5t-166 -78t-193 -26q-222 0 -335 101t-113 274q0 57 8 109h61q-10 -65 -10 -105q0 -154 104.5 -239.5t290.5 -85.5q122 0 222 42.5t163.5 132t63.5 210.5q0 38 -10.5 71.5t-24.5 58.5t-42.5 50.5t-50 41t-63.5 36.5t-66 31.5t-73 31.5q-52 21 -80 33.5t-74 36
t-72 42.5t-58.5 49t-49.5 60.5t-29 72.5t-12 89q0 97 41.5 173t112 121t155 68t177.5 23q194 0 298.5 -98.5t104.5 -263.5q0 -57 -8 -88h-61q8 36 8 80zM375 -418q-39 0 -70 8l14 54q21 -9 56 -9q67 0 111 41.5t44 106.5q0 102 -106 102q-11 0 -25 -2l33 133h62l-21 -86
q54 -5 87.5 -45.5t33.5 -101.5q0 -86 -63.5 -143.5t-155.5 -57.5z" />
    <glyph glyph-name="scedilla" unicode="&#x15f;" horiz-adv-x="964" 
d="M745 295q0 55 -24.5 95t-64 61t-90.5 39t-103.5 29t-103.5 31t-90.5 44t-64 69.5t-24.5 106.5q0 137 114.5 223t270.5 86q161 0 253.5 -62.5t92.5 -193.5q0 -44 -8 -80h-65q8 31 8 72q0 113 -70.5 162t-222.5 49q-39 0 -80 -9t-81.5 -29t-72 -48.5t-51.5 -71t-20 -92.5
q0 -52 24.5 -89.5t64 -57t90.5 -37t103.5 -28.5t103.5 -31.5t90.5 -47t64 -74.5t24.5 -114q0 -104 -62.5 -178.5t-156 -108t-205.5 -33.5q-346 0 -346 263q0 44 12 96h62q-13 -54 -13 -88q0 -217 297 -217q63 0 123 16.5t110 47.5t80.5 83t30.5 117zM276 -418q-38 0 -69 8
l14 54q21 -9 55 -9q67 0 111.5 41.5t44.5 106.5q0 102 -106 102q-11 0 -25 -2l33 133h61l-20 -86q54 -5 87.5 -45.5t33.5 -101.5q0 -85 -64 -143t-156 -58z" />
    <glyph glyph-name="Scaron" unicode="&#x160;" horiz-adv-x="1175" 
d="M1104 1135q0 147 -94 232t-254 85q-81 0 -153 -19t-131.5 -57t-94.5 -102.5t-35 -147.5q0 -46 12 -85t39 -71t53.5 -55.5t72.5 -47.5t78 -38.5t87 -37.5q54 -23 77.5 -33.5t71 -34.5t70.5 -41.5t56 -47.5t48.5 -59.5t27.5 -70t12 -86.5q0 -112 -43.5 -198.5
t-118.5 -138.5t-166 -78t-193 -26q-222 0 -335 101t-113 274q0 57 8 109h61q-10 -65 -10 -105q0 -154 104.5 -239.5t290.5 -85.5q122 0 222 42.5t163.5 132t63.5 210.5q0 38 -10.5 71.5t-24.5 58.5t-42.5 50.5t-50 41t-63.5 36.5t-66 31.5t-73 31.5q-52 21 -80 33.5t-74 36
t-72 42.5t-58.5 49t-49.5 60.5t-29 72.5t-12 89q0 97 41.5 173t112 121t155 68t177.5 23q194 0 298.5 -98.5t104.5 -263.5q0 -57 -8 -88h-61q8 36 8 80zM666 1855h63l123 -188l209 188h72l-244 -227h-86z" />
    <glyph glyph-name="scaron" unicode="&#x161;" horiz-adv-x="964" 
d="M745 295q0 55 -24.5 95t-64 61t-90.5 39t-103.5 29t-103.5 31t-90.5 44t-64 69.5t-24.5 106.5q0 137 114.5 223t270.5 86q161 0 253.5 -62.5t92.5 -193.5q0 -44 -8 -80h-65q8 31 8 72q0 113 -70.5 162t-222.5 49q-39 0 -80 -9t-81.5 -29t-72 -48.5t-51.5 -71t-20 -92.5
q0 -52 24.5 -89.5t64 -57t90.5 -37t103.5 -28.5t103.5 -31.5t90.5 -47t64 -74.5t24.5 -114q0 -104 -62.5 -178.5t-156 -108t-205.5 -33.5q-346 0 -346 263q0 44 12 96h62q-13 -54 -13 -88q0 -217 297 -217q63 0 123 16.5t110 47.5t80.5 83t30.5 117zM459 1487h61l123 -213
l217 213h70l-254 -250h-76z" />
    <glyph glyph-name="uni0162" unicode="&#x162;" horiz-adv-x="1105" 
d="M1323 1487l-14 -57h-502l-356 -1430h-62l356 1430h-501l14 57h1065zM336 -418q-39 0 -70 8l15 54q21 -9 55 -9q67 0 111.5 41.5t44.5 106.5q0 52 -28.5 77t-78.5 25q-11 0 -25 -2l33 133h62l-21 -86q54 -5 87.5 -45.5t33.5 -101.5q0 -86 -63.5 -143.5t-155.5 -57.5z" />
    <glyph glyph-name="uni0163" unicode="&#x163;" horiz-adv-x="559" 
d="M408 1270h61l-53 -213h248l-15 -53h-248l-184 -738q-18 -74 -18 -112q0 -111 123 -111q38 0 106 14l-12 -51q-56 -12 -109 -12q-94 1 -133 37t-39 106q0 59 21 129l184 738h-203l15 53h202zM137 -418q-38 0 -69 8l14 54q21 -9 55 -9q67 0 111.5 41.5t44.5 106.5
q0 52 -28.5 77t-78.5 25q-10 0 -24 -2l33 133h61l-20 -86q54 -4 87 -44.5t33 -102.5q0 -86 -63.5 -143.5t-155.5 -57.5z" />
    <glyph glyph-name="Tcaron" unicode="&#x164;" horiz-adv-x="1105" 
d="M1323 1487l-14 -57h-502l-356 -1430h-62l356 1430h-501l14 57h1065zM637 1855h63l123 -188l209 188h72l-244 -227h-86z" />
    <glyph glyph-name="tcaron" unicode="&#x165;" horiz-adv-x="559" 
d="M707 1487h67l-2 -12l-115 -285h-49zM408 1270h61l-53 -213h248l-15 -53h-248l-184 -738q-18 -74 -18 -112q0 -111 123 -111q38 0 106 14l-12 -51q-56 -12 -109 -12q-94 1 -133 37t-39 106q0 59 21 129l184 738h-203l15 53h202z" />
    <glyph glyph-name="Tbar" unicode="&#x166;" horiz-adv-x="1130" 
d="M819 1430l-157 -629h307l-15 -58h-305l-186 -743h-62l187 743h-305l14 58h303l158 629h-502l14 57h1065l-14 -57h-502z" />
    <glyph glyph-name="tbar" unicode="&#x167;" horiz-adv-x="595" 
d="M428 1004l-96 -388h248l-15 -53h-248l-73 -297q-19 -78 -19 -112q0 -111 123 -111q39 0 107 14l-13 -51q-56 -12 -108 -12q-95 4 -133.5 39t-38.5 104q0 62 20 129l74 297h-203l15 53h202l97 388h-203l14 53h203l53 213h62l-54 -213h248l-14 -53h-248z" />
    <glyph glyph-name="Utilde" unicode="&#x168;" horiz-adv-x="1396" 
d="M250 508q-23 -104 -23 -164q0 -303 375 -303q210 0 347.5 126.5t189.5 340.5l243 979h62l-244 -979q-129 -524 -604 -524q-213 0 -321.5 89.5t-108.5 262.5q0 85 22 172l244 979h62zM698 1665q63 168 185 168q37 0 71.5 -17.5t56 -38t50.5 -38t57 -17.5q65 0 119 111h55
q-23 -64 -57.5 -103.5t-64.5 -52t-62 -12.5q-37 0 -70.5 17.5t-55.5 38t-51.5 38t-58.5 17.5q-35 0 -62 -25.5t-56 -85.5h-56z" />
    <glyph glyph-name="utilde" unicode="&#x169;" horiz-adv-x="1122" 
d="M754 0l51 203q-160 -226 -408 -226q-146 0 -218.5 62.5t-72.5 181.5q0 74 25 172l166 664h61l-163 -656q-25 -113 -25 -161q0 -107 60.5 -157t179.5 -50q47 0 96.5 12.5t105.5 45t104 81.5t90.5 129.5t67.5 181.5l144 574h61l-264 -1057h-61zM471 1282q67 168 180 168
q36 0 69 -17.5t54 -38t49.5 -38t55.5 -17.5q31 0 58 26t56 85h56q-67 -168 -181 -168q-34 0 -67 17.5t-54.5 38t-50 38t-55.5 17.5q-32 0 -58 -25.5t-57 -85.5h-55z" />
    <glyph glyph-name="Umacron" unicode="&#x16a;" horiz-adv-x="1396" 
d="M250 508q-23 -104 -23 -164q0 -303 375 -303q210 0 347.5 126.5t189.5 340.5l243 979h62l-244 -979q-129 -524 -604 -524q-213 0 -321.5 89.5t-108.5 262.5q0 85 22 172l244 979h62zM762 1776h475l-14 -56h-475z" />
    <glyph glyph-name="umacron" unicode="&#x16b;" horiz-adv-x="1122" 
d="M754 0l51 203q-160 -226 -408 -226q-146 0 -218.5 62.5t-72.5 181.5q0 74 25 172l166 664h61l-163 -656q-25 -113 -25 -161q0 -107 60.5 -157t179.5 -50q47 0 96.5 12.5t105.5 45t104 81.5t90.5 129.5t67.5 181.5l144 574h61l-264 -1057h-61zM524 1421h480l-15 -55h-479z
" />
    <glyph glyph-name="Ubreve" unicode="&#x16c;" horiz-adv-x="1396" 
d="M250 508q-23 -104 -23 -164q0 -303 375 -303q210 0 347.5 126.5t189.5 340.5l243 979h62l-244 -979q-129 -524 -604 -524q-213 0 -321.5 89.5t-108.5 262.5q0 85 22 172l244 979h62zM975 1626q-84 0 -135.5 47t-51.5 131q0 36 5 51h57q-4 -28 -4 -43q0 -66 36.5 -101.5
t98.5 -35.5q68 0 122 46t79 134h61q-31 -110 -100.5 -169.5t-167.5 -59.5z" />
    <glyph glyph-name="ubreve" unicode="&#x16d;" horiz-adv-x="1122" 
d="M754 0l51 203q-160 -226 -408 -226q-146 0 -218.5 62.5t-72.5 181.5q0 74 25 172l166 664h61l-163 -656q-25 -113 -25 -161q0 -107 60.5 -157t179.5 -50q47 0 96.5 12.5t105.5 45t104 81.5t90.5 129.5t67.5 181.5l144 574h61l-264 -1057h-61zM762 1237q-88 0 -140.5 47.5
t-52.5 132.5q0 33 9 70h57q-8 -27 -8 -64q0 -66 37.5 -101.5t99.5 -35.5q71 0 128 52.5t81 148.5h59q-24 -119 -97 -184.5t-173 -65.5z" />
    <glyph glyph-name="Uring" unicode="&#x16e;" horiz-adv-x="1396" 
d="M250 508q-23 -104 -23 -164q0 -303 375 -303q210 0 347.5 126.5t189.5 340.5l243 979h62l-244 -979q-129 -524 -604 -524q-213 0 -321.5 89.5t-108.5 262.5q0 85 22 172l244 979h62zM928 1520q-82 0 -126 47.5t-44 118.5q0 90 69 156.5t166 66.5q79 0 124.5 -47
t45.5 -119q0 -92 -68.5 -157.5t-166.5 -65.5zM936 1573q70 0 119 48.5t49 119.5q0 54 -34 84t-87 30q-68 0 -117 -49t-49 -116q0 -57 33.5 -87t85.5 -30z" />
    <glyph glyph-name="uring" unicode="&#x16f;" horiz-adv-x="1122" 
d="M754 0l51 203q-160 -226 -408 -226q-146 0 -218.5 62.5t-72.5 181.5q0 74 25 172l166 664h61l-163 -656q-25 -113 -25 -161q0 -107 60.5 -157t179.5 -50q47 0 96.5 12.5t105.5 45t104 81.5t90.5 129.5t67.5 181.5l144 574h61l-264 -1057h-61zM700 1171q-82 0 -126 47.5
t-44 118.5q0 90 69.5 157t166.5 67q79 0 124.5 -47t45.5 -119q0 -92 -69 -158t-167 -66zM709 1225q70 0 119 48.5t49 119.5q0 54 -34 84t-87 30q-68 0 -117 -49.5t-49 -120.5q0 -52 34 -82t85 -30z" />
    <glyph glyph-name="Uhungarumlaut" unicode="&#x170;" horiz-adv-x="1396" 
d="M250 508q-23 -104 -23 -164q0 -303 375 -303q210 0 347.5 126.5t189.5 340.5l243 979h62l-244 -979q-129 -524 -604 -524q-213 0 -321.5 89.5t-108.5 262.5q0 85 22 172l244 979h62zM1343 1851h93l-258 -231h-64zM993 1851h92l-258 -231h-63z" />
    <glyph glyph-name="uhungarumlaut" unicode="&#x171;" horiz-adv-x="1122" 
d="M754 0l51 203q-160 -226 -408 -226q-146 0 -218.5 62.5t-72.5 181.5q0 74 25 172l166 664h61l-163 -656q-25 -113 -25 -161q0 -107 60.5 -157t179.5 -50q47 0 96.5 12.5t105.5 45t104 81.5t90.5 129.5t67.5 181.5l144 574h61l-264 -1057h-61zM1081 1487h93l-261 -250h-63
zM756 1487h92l-260 -250h-64z" />
    <glyph glyph-name="Uogonek" unicode="&#x172;" horiz-adv-x="1396" 
d="M1444 1487l-244 -979q-78 -320 -309 -455q-115 -67 -191 -135q-114 -98 -114 -182q0 -47 28 -72.5t72 -25.5q51 0 76 18l-14 -62q-34 -12 -74 -12q-67 0 -110.5 43t-43.5 105q0 134 199 264q-58 -10 -123 -10q-430 9 -430 352q0 82 22 172l244 979h62l-244 -979
q-23 -97 -23 -164q0 -303 375 -303q207 0 346.5 127.5t190.5 339.5l243 979h62z" />
    <glyph glyph-name="uogonek" unicode="&#x173;" horiz-adv-x="1122" 
d="M639 -418q-70 0 -112 40t-42 102q0 166 299 315l31 -39q-264 -137 -264 -266q0 -47 29 -73t73 -26q50 0 80 19l-20 -62q-38 -10 -74 -10zM754 0l51 203q-160 -226 -408 -226q-146 0 -218.5 62.5t-72.5 181.5q0 74 25 172l166 664h61l-163 -656q-25 -113 -25 -161
q0 -107 60.5 -157t179.5 -50q47 0 96.5 12.5t105.5 45t104 81.5t90.5 129.5t67.5 181.5l144 574h61l-264 -1057h-61z" />
    <glyph glyph-name="Wcircumflex" unicode="&#x174;" horiz-adv-x="1824" 
d="M2025 1487l-786 -1487h-78l-33 1386h-8l-723 -1386h-78l-38 1487h69l27 -1385h8l723 1385h78l35 -1385h8l729 1385h67zM1184 1855h86l137 -227h-64l-120 187l-211 -187h-72z" />
    <glyph glyph-name="wcircumflex" unicode="&#x175;" horiz-adv-x="1484" 
d="M182 1057h62l28 -1000h4l562 1000h69l62 -1000h8l530 1000h62l-570 -1057h-81l-62 969h-8l-545 -969h-82zM934 1487h76l141 -250h-61l-123 211l-217 -211h-70z" />
    <glyph glyph-name="Ycircumflex" unicode="&#x176;" horiz-adv-x="1155" 
d="M268 1487h66l291 -764l669 764h72l-723 -817l-166 -670h-61l166 674zM852 1855h86l137 -227h-63l-121 187l-211 -187h-72z" />
    <glyph glyph-name="ycircumflex" unicode="&#x177;" horiz-adv-x="950" 
d="M238 1057l143 -959h8l586 959h65l-739 -1207q-48 -76 -78.5 -117t-72 -81.5t-87.5 -57t-104 -16.5q-50 0 -109 12l15 56q50 -13 86 -13q37 0 69.5 9.5t63 32.5t54 46t53 66t49 75t53.5 89l35 57l-156 1049h66zM666 1487h75l142 -250h-62l-123 211l-217 -211h-69z" />
    <glyph glyph-name="Ydieresis" unicode="&#x178;" horiz-adv-x="1155" 
d="M268 1487h66l291 -764l669 764h72l-723 -817l-166 -670h-61l166 674zM1036 1829h78l-37 -148h-78zM676 1829h78l-37 -148h-78z" />
    <glyph glyph-name="Zacute" unicode="&#x179;" horiz-adv-x="1085" 
d="M1153 1427h-862l16 60h936l-16 -64l-1204 -1366h919l-14 -57h-1000l15 61zM944 1855h92l-250 -227h-65z" />
    <glyph glyph-name="zacute" unicode="&#x17a;" horiz-adv-x="907" 
d="M193 1004l14 53h754l-15 -58l-923 -946h720l-14 -53h-795l15 57l923 947h-679zM805 1487h94l-270 -250h-66z" />
    <glyph glyph-name="Zdotaccent" unicode="&#x17b;" horiz-adv-x="1085" 
d="M1153 1427h-862l16 60h936l-16 -64l-1204 -1366h919l-14 -57h-1000l15 61zM811 1829h78l-37 -148h-78z" />
    <glyph glyph-name="zdotaccent" unicode="&#x17c;" horiz-adv-x="907" 
d="M193 1004l14 53h754l-15 -58l-923 -946h720l-14 -53h-795l15 57l923 947h-679zM645 1475h78l-37 -148h-78z" />
    <glyph glyph-name="Zcaron" unicode="&#x17d;" horiz-adv-x="1085" 
d="M1153 1427h-862l16 60h936l-16 -64l-1204 -1366h919l-14 -57h-1000l15 61zM618 1855h64l123 -188l209 188h71l-243 -227h-86z" />
    <glyph glyph-name="zcaron" unicode="&#x17e;" horiz-adv-x="907" 
d="M193 1004l14 53h754l-15 -58l-923 -946h720l-14 -53h-795l15 57l923 947h-679zM442 1487h62l123 -213l217 213h69l-254 -250h-75z" />
    <glyph glyph-name="longs" unicode="&#x17f;" horiz-adv-x="413" 
d="M348 1219q34 139 100 207.5t189 68.5q61 0 102 -8l-14 -51q-44 8 -96 8q-82 0 -135 -52.5t-82 -164.5l-306 -1227h-61z" />
    <glyph glyph-name="uni018F" unicode="&#x18f;" horiz-adv-x="1435" 
d="M1311 756q30 137 30 241q0 215 -110.5 333t-304.5 118q-173 0 -324 -96.5t-250 -290.5h-69q109 218 276 331t373 113q227 0 352 -132.5t125 -368.5q0 -93 -18.5 -193t-56 -199.5t-89.5 -193t-123 -173.5t-153 -140t-183.5 -94t-210.5 -34q-210 0 -329 136t-119 370
q0 128 37 273h1147zM592 35q124 0 239.5 55.5t204.5 149t156 211.5t104 249h-1081q-20 -103 -20 -208q0 -216 105 -336.5t292 -120.5z" />
    <glyph glyph-name="uni0190" unicode="&#x190;" horiz-adv-x="1167" 
d="M1061 360q-20 -65 -52 -121t-80 -105.5t-107.5 -84t-138.5 -54.5t-169 -20q-92 0 -168 20.5t-134 61t-90 107t-32 153.5q0 174 113.5 295t298.5 146l2 8q-110 35 -167.5 111.5t-57.5 185.5q0 79 30.5 155.5t89 142t158 106t225.5 40.5q185 0 287 -80.5t102 -232.5v-31
h-61v23q0 128 -85 198t-243 70q-91 0 -166 -25t-124.5 -65t-83.5 -93t-49 -106.5t-15 -107.5q0 -69 28.5 -123.5t75.5 -86t102.5 -47.5t115.5 -16h75l-14 -53h-80q-90 0 -175.5 -25t-157 -72.5t-115 -127.5t-43.5 -180q0 -80 27.5 -138.5t78 -92.5t113 -50t139.5 -16
q185 0 307.5 86.5t177.5 244.5h62z" />
    <glyph glyph-name="florin" unicode="&#x192;" 
d="M969 707l-6 -50h-248l-187 -542q-17 -49 -30 -83.5t-33.5 -79t-40.5 -75.5t-48.5 -63.5t-59.5 -52t-71.5 -32t-86.5 -12.5q-59 0 -123 19l12 49q45 -18 111 -18q60 0 107 25t83.5 76.5t63 109t55.5 143.5l182 536h-227l6 50h238l108 315q15 43 21.5 60t23 58.5t27 61.5
t31 55.5t38 53.5t44 42.5t53.5 36t62 20.5t73 9q65 0 125 -18l-15 -49q-50 18 -112 18q-59 0 -106 -25t-83.5 -77t-63 -108.5t-56.5 -143.5l-105 -309h238z" />
    <glyph glyph-name="uni0194" unicode="&#x194;" horiz-adv-x="1206" 
d="M385 -418q-91 0 -146 56.5t-55 150.5q0 64 38 142t81.5 133.5t109 132t87.5 106.5l22 31l-246 1153h68l225 -1088l764 1088h74l-821 -1159l6 -25q4 -17 14 -55.5t13.5 -53t11 -46t11 -45t9 -38.5t7.5 -38t5.5 -32.5t5 -32.5t2.5 -28t1 -28q0 -140 -81.5 -232t-205.5 -92z
M250 -209q0 -74 43 -115t102 -41q96 0 157.5 86.5t61.5 184.5q0 49 -13 110.5t-34 136t-28 109.5q-23 -30 -85 -104t-99.5 -122.5t-71 -118t-33.5 -126.5z" />
    <glyph glyph-name="uni0197" unicode="&#x197;" horiz-adv-x="550" 
d="M543 1487l-172 -690h243l-14 -58h-244l-184 -739h-61l184 739h-236l13 58h237l172 690h62z" />
    <glyph glyph-name="uni019D" unicode="&#x19d;" horiz-adv-x="1445" 
d="M1477 1487l-371 -1487h-74l-538 1384h-9l-356 -1433q-12 -48 -20.5 -77t-24 -73t-31 -71t-40.5 -58.5t-53.5 -49.5t-68 -30t-86.5 -12q-35 0 -73 6l14 58q30 -9 66 -9q41 0 75 12t59 37t43 50.5t33.5 67t24.5 71.5t21 78l381 1536h73l539 -1385h8l346 1385h62z" />
    <glyph glyph-name="uni01B5" unicode="&#x1b5;" horiz-adv-x="1140" 
d="M596 766l586 661h-863l17 60h936l-17 -64l-579 -657h424l-15 -57h-458l-576 -652h920l-15 -57h-999l14 61l576 648h-397l14 57h432z" />
    <glyph glyph-name="uni01B6" unicode="&#x1b6;" horiz-adv-x="942" 
d="M764 53l-14 -53h-795l14 57l439 449h-312l15 53h348l434 445h-680l14 53h754l-14 -58l-430 -440h303l-15 -53h-342l-440 -453h721z" />
    <glyph glyph-name="uni01CD" unicode="&#x1cd;" horiz-adv-x="1333" 
d="M283 489l-320 -489h-74l985 1487h64l244 -1487h-72l-76 489h-751zM883 1401l-383 -582l-178 -272h702l-41 272q-9 56 -42.5 264.5t-49.5 317.5h-8zM764 1855h63l123 -188l209 188h72l-244 -227h-86z" />
    <glyph glyph-name="uni01CE" unicode="&#x1ce;" horiz-adv-x="1048" 
d="M870 690q19 74 19 129q0 209 -244 209q-139 0 -246 -78.5t-135 -197.5h-65q38 143 161 236t291 93q299 0 299 -250q0 -59 -18 -135q-99 -394 -127 -518t-33 -178h-67q22 120 40 199q-174 -222 -428 -222q-130 0 -205 61.5t-75 166.5q0 83 29.5 148t87.5 109.5t128.5 75.5
t169.5 50t191.5 29t212.5 16zM104 205q0 -47 20 -82t53.5 -54.5t70.5 -28.5t76 -9q153 0 292.5 107t182.5 270l43 172q-82 -4 -141 -8.5t-141.5 -16.5t-140.5 -28t-121.5 -44.5t-103 -65t-65 -91t-25.5 -121.5zM510 1487h61l123 -213l217 213h70l-254 -250h-76z" />
    <glyph glyph-name="uni01CF" unicode="&#x1cf;" horiz-adv-x="479" 
d="M510 1487l-371 -1487h-61l371 1487h61zM334 1855h63l123 -188l209 188h72l-244 -227h-86z" />
    <glyph glyph-name="uni01D0" unicode="&#x1d0;" horiz-adv-x="413" 
d="M371 1057l-265 -1057h-61l264 1057h62zM233 1487h58l94 -211l205 211h65l-237 -250h-76z" />
    <glyph glyph-name="uni01D1" unicode="&#x1d1;" horiz-adv-x="1509" 
d="M641 35q136 0 259 55.5t214 149t158.5 213.5t102 253t34.5 263q0 227 -115 353t-317 126q-136 0 -259 -55.5t-214 -149t-158.5 -213.5t-102 -253t-34.5 -263q0 -227 115 -353t317 -126zM635 -23q-232 0 -363 141t-131 394q0 112 26.5 228.5t75 227t123.5 208t165.5 171
t207.5 116t244 42.5q232 0 363 -140.5t131 -393.5q0 -136 -36.5 -276t-109.5 -268.5t-172.5 -229t-235.5 -160.5t-288 -60zM829 1855h64l123 -188l209 188h71l-243 -227h-86z" />
    <glyph glyph-name="uni01D2" unicode="&#x1d2;" horiz-adv-x="1116" 
d="M444 31q115 0 215.5 62.5t166.5 160.5t103.5 216t37.5 232q0 147 -79 235.5t-214 88.5q-92 0 -176 -41t-146 -109t-108 -155t-69 -181.5t-23 -185.5q0 -147 78.5 -235t213.5 -88zM438 -23q-165 0 -259.5 97t-94.5 280q0 94 24 193.5t74 194.5t119 170t167.5 121t211.5 46
q165 0 259.5 -97t94.5 -280q0 -94 -24 -193.5t-74 -194.5t-119 -170t-167.5 -121t-211.5 -46zM541 1487h61l123 -213l217 213h70l-254 -250h-76z" />
    <glyph glyph-name="uni01D3" unicode="&#x1d3;" horiz-adv-x="1396" 
d="M250 508q-23 -104 -23 -164q0 -303 375 -303q210 0 347.5 126.5t189.5 340.5l243 979h62l-244 -979q-129 -524 -604 -524q-213 0 -321.5 89.5t-108.5 262.5q0 85 22 172l244 979h62zM795 1855h63l123 -188l209 188h72l-244 -227h-86z" />
    <glyph glyph-name="uni01D4" unicode="&#x1d4;" horiz-adv-x="1122" 
d="M754 0l51 203q-160 -226 -408 -226q-146 0 -218.5 62.5t-72.5 181.5q0 74 25 172l166 664h61l-163 -656q-25 -113 -25 -161q0 -107 60.5 -157t179.5 -50q47 0 96.5 12.5t105.5 45t104 81.5t90.5 129.5t67.5 181.5l144 574h61l-264 -1057h-61zM535 1487h61l123 -213
l217 213h70l-254 -250h-76z" />
    <glyph glyph-name="Gcaron" unicode="&#x1e6;" horiz-adv-x="1417" 
d="M598 -23q-216 0 -337.5 143.5t-121.5 381.5q0 110 25.5 226t72 227.5t119 210.5t160 173.5t201 118t237.5 43.5q207 0 331 -96t124 -266q0 -14 -4 -60h-64q2 18 2 47q0 149 -105.5 233.5t-291.5 84.5q-131 0 -249.5 -57.5t-206 -153.5t-152.5 -218t-98 -254t-33 -259
q0 -218 105.5 -342.5t293.5 -124.5q129 0 236.5 45.5t186 130t133.5 195t91 249.5l17 68h-486l15 53h547l-195 -776h-55q21 114 61 274h-8q-113 -151 -244.5 -224t-306.5 -73zM815 1855h64l122 -188l209 188h72l-244 -227h-86z" />
    <glyph glyph-name="gcaron" unicode="&#x1e7;" horiz-adv-x="1146" 
d="M854 299q-69 -122 -185.5 -198t-234.5 -76q-150 0 -247 92.5t-97 267.5q0 88 23.5 183t73 186.5t117.5 163.5t165.5 116.5t208.5 44.5q127 0 207 -62.5t104 -174.5l55 215h62l-232 -922q-25 -99 -54 -175.5t-75 -150t-104 -121.5t-141.5 -77t-186.5 -29q-157 0 -238 75
t-81 187q0 30 10 82h57q-6 -30 -6 -61q0 -103 68.5 -166.5t195.5 -63.5q94 0 172 32t128.5 79.5t91 118t62.5 133t40 137.5zM434 78q90 0 172 42t142 111t104.5 155.5t67 178.5t22.5 176q0 132 -69 208.5t-201 76.5q-92 0 -175 -39t-143.5 -104.5t-105.5 -148.5t-67.5 -173
t-22.5 -176q0 -133 74 -220t202 -87zM592 1487h61l123 -213l217 213h70l-254 -250h-76z" />
    <glyph glyph-name="uni01E8" unicode="&#x1e8;" horiz-adv-x="1110" 
d="M510 1487l-168 -674l866 674h86l-891 -692l594 -795h-73l-590 784l-195 -784h-61l371 1487h61zM664 1855h63l123 -188l209 188h71l-243 -227h-86z" />
    <glyph glyph-name="uni01E9" unicode="&#x1e9;" horiz-adv-x="899" 
d="M477 1487l-221 -881l625 451h90l-645 -465l458 -592h-77l-455 588l-146 -588h-61l371 1487h61zM319 1855h62l102 -190l193 190h69l-225 -227h-80z" />
    <glyph glyph-name="uni01EA" unicode="&#x1ea;" horiz-adv-x="1509" 
d="M983 1505q232 0 363 -140.5t131 -393.5q0 -180 -63 -362.5t-190 -338t-294 -229.5l-53 -27q-289 -146 -289 -280q0 -47 29 -73t73 -26q50 0 80 19l-20 -62q-38 -10 -74 -10q-70 0 -112 40t-42 102q0 130 197 256l4 4q-51 -7 -88 -7q-232 0 -363 141t-131 394
q0 112 26.5 228.5t75 227t123.5 208t165.5 171t207.5 116t244 42.5zM641 35q136 0 259 55.5t214 149t158.5 213.5t102 253t34.5 263q0 227 -115 353t-317 126q-136 0 -259 -55.5t-214 -149t-158.5 -213.5t-102 -253t-34.5 -263q0 -227 115 -353t317 -126z" />
    <glyph glyph-name="uni01EB" unicode="&#x1eb;" horiz-adv-x="1116" 
d="M1034 702q0 -124 -39 -250.5t-123 -241t-198 -175.5l-37 -21q-144 -79 -216.5 -145.5t-72.5 -134.5q0 -47 29.5 -73t73.5 -26q49 0 79 19l-20 -62q-38 -10 -74 -10q-70 0 -111.5 40t-41.5 102q0 130 196 256q-24 -3 -41 -3q-165 0 -259.5 97t-94.5 280q0 94 24 193.5
t74 194.5t119 170t167.5 121t211.5 46q165 0 259.5 -97t94.5 -280zM444 31q115 0 215.5 62.5t166.5 160.5t103.5 216t37.5 232q0 147 -79 235.5t-214 88.5q-92 0 -176 -41t-146 -109t-108 -155t-69 -181.5t-23 -185.5q0 -147 78.5 -235t213.5 -88z" />
    <glyph glyph-name="uni01F8" unicode="&#x1f8;" horiz-adv-x="1445" 
d="M485 1384l-346 -1384h-61l371 1487h73l539 -1385h8l346 1385h62l-371 -1487h-74l-538 1384h-9zM793 1855h84l137 -227h-56z" />
    <glyph glyph-name="uni01F9" unicode="&#x1f9;" horiz-adv-x="1122" 
d="M371 1057l-52 -203q159 225 408 225q146 0 218.5 -62t72.5 -181q0 -74 -25 -172l-166 -664h-61l164 655q24 108 24 162q0 107 -60 157t-179 50q-47 0 -94.5 -11.5t-104 -43t-105 -80.5t-92.5 -131.5t-71 -188.5l-142 -569h-61l264 1057h62zM541 1487h88l151 -250h-59z
" />
    <glyph glyph-name="Aringacute" unicode="&#x1fa;" horiz-adv-x="1333" 
d="M723 1608q0 86 62.5 150t154.5 71l182 186h92l-208 -190q59 -13 90.5 -56t31.5 -104q0 -78 -52 -140t-132 -79l238 -1446h-72l-76 489h-751l-320 -489h-74l959 1446q-60 11 -92.5 56.5t-32.5 105.5zM883 1401l-383 -582l-178 -272h702l-41 272q-9 56 -42.5 264.5
t-49.5 317.5h-8zM782 1612q0 -57 33.5 -87t85.5 -30q70 0 119 48.5t49 119.5q0 54 -34 84.5t-87 30.5q-68 0 -117 -49t-49 -117z" />
    <glyph glyph-name="aringacute" unicode="&#x1fb;" horiz-adv-x="1048" 
d="M870 690q19 74 19 129q0 209 -244 209q-139 0 -246 -78.5t-135 -197.5h-65q38 143 161 236t291 93q299 0 299 -250q0 -59 -18 -135q-99 -394 -127 -518t-33 -178h-67q22 120 40 199q-174 -222 -428 -222q-130 0 -205 61.5t-75 166.5q0 83 29.5 148t87.5 109.5t128.5 75.5
t169.5 50t191.5 29t212.5 16zM104 205q0 -47 20 -82t53.5 -54.5t70.5 -28.5t76 -9q153 0 292.5 107t182.5 270l43 172q-82 -4 -141 -8.5t-141.5 -16.5t-140.5 -28t-121.5 -44.5t-103 -65t-65 -91t-25.5 -121.5zM768 1556q61 -10 96 -54.5t35 -106.5q0 -93 -68.5 -158.5
t-166.5 -65.5q-82 0 -126 47.5t-44 118.5q0 83 58 146.5t146 75.5l203 208h94zM553 1337q0 -52 34 -82t85 -30q70 0 119 48.5t49 119.5q0 54 -34 84t-87 30q-68 0 -117 -49.5t-49 -120.5z" />
    <glyph glyph-name="AEacute" unicode="&#x1fc;" horiz-adv-x="1804" 
d="M1071 1487h836l-15 -57h-743l-66 -631h637l-16 -58h-627l-71 -680h622l-14 -61h-678l55 526h-606l-414 -526h-73zM430 584h567l86 819h-6zM1409 1855h92l-250 -227h-65z" />
    <glyph glyph-name="aeacute" unicode="&#x1fd;" horiz-adv-x="1761" 
d="M1139 -23q-140 0 -226.5 80.5t-105.5 227.5q-66 -148 -194 -228t-271 -80q-141 0 -223 61t-82 181q0 114 74.5 198t203 126.5t293.5 42.5h228l24 104q17 59 17 119q0 219 -232 219q-144 0 -247 -75.5t-136 -200.5h-65q43 148 162 238.5t292 90.5q134 0 209.5 -62.5
t75.5 -187.5v-18q77 123 190.5 194.5t255.5 71.5q83 0 145 -26.5t97.5 -74.5t52.5 -108.5t17 -134.5q0 -87 -29 -203h-778q-21 -95 -21 -172q0 -153 73 -241t202 -88q117 0 224.5 76t166.5 190h61q-72 -149 -193 -234.5t-261 -85.5zM344 31q66 0 133.5 23.5t131.5 69
t115 123.5t75 177l26 108h-231q-224 0 -357 -88t-133 -227q0 -54 22 -92.5t59 -58t76 -27.5t83 -8zM1376 1026q-85 0 -164 -36.5t-139.5 -98t-104.5 -140.5t-65 -165h707q18 92 18 149q0 61 -13 111.5t-41.5 92t-78.5 64.5t-119 23zM1251 1487h95l-271 -250h-65z" />
    <glyph glyph-name="Oslashacute" unicode="&#x1fe;" horiz-adv-x="1515" 
d="M1403 1290q78 -134 78 -319q0 -136 -36.5 -276t-109.5 -268.5t-172.5 -229t-235.5 -160.5t-288 -60q-260 0 -389 173l-184 -179l-35 43l188 183q-74 127 -74 315q0 112 26.5 228.5t75 227t123.5 208t165.5 171t207.5 116t244 42.5q123 0 221 -43.5t162 -124.5l164 158
l37 -39zM981 1448q-136 0 -259 -55.5t-214 -149t-158.5 -213.5t-102 -253t-34.5 -263q0 -159 53 -268l1059 1042q-114 160 -344 160zM645 35q136 0 259 55.5t214 149t158.5 213.5t102 253t34.5 263q0 161 -57 272l-1059 -1042q114 -164 348 -164zM1188 1855h92l-250 -227
h-65z" />
    <glyph glyph-name="oslashacute" unicode="&#x1ff;" horiz-adv-x="1122" 
d="M981 930q57 -89 57 -228q0 -94 -24 -193.5t-74 -194.5t-119 -170t-167.5 -121t-211.5 -46q-174 0 -268 111l-172 -182l-39 39l178 188q-53 89 -53 221q0 94 24 193.5t74 194.5t119 170t167.5 121t211.5 46q164 0 262 -104l174 184l39 -39zM678 1026q-92 0 -176 -41
t-146 -109t-108 -155t-69 -181.5t-23 -185.5q0 -107 32 -172l713 748q-81 96 -223 96zM449 31q92 0 176 40.5t146 109t108 155t69 181t23 185.5q0 107 -39 181l-713 -748q87 -104 230 -104zM913 1487h95l-271 -250h-65z" />
    <glyph glyph-name="uni0218" unicode="&#x218;" horiz-adv-x="1175" 
d="M1104 1135q0 147 -94 232t-254 85q-81 0 -153 -19t-131.5 -57t-94.5 -102.5t-35 -147.5q0 -46 12 -85t39 -71t53.5 -55.5t72.5 -47.5t78 -38.5t87 -37.5q54 -23 77.5 -33.5t71 -34.5t70.5 -41.5t56 -47.5t48.5 -59.5t27.5 -70t12 -86.5q0 -112 -43.5 -198.5
t-118.5 -138.5t-166 -78t-193 -26q-222 0 -335 101t-113 274q0 57 8 109h61q-10 -65 -10 -105q0 -154 104.5 -239.5t290.5 -85.5q122 0 222 42.5t163.5 132t63.5 210.5q0 38 -10.5 71.5t-24.5 58.5t-42.5 50.5t-50 41t-63.5 36.5t-66 31.5t-73 31.5q-52 21 -80 33.5t-74 36
t-72 42.5t-58.5 49t-49.5 60.5t-29 72.5t-12 89q0 97 41.5 173t112 121t155 68t177.5 23q194 0 298.5 -98.5t104.5 -263.5q0 -57 -8 -88h-61q8 36 8 80zM397 -156h80l-31 -125l-100 -186h-43l94 184h-32z" />
    <glyph glyph-name="uni0219" unicode="&#x219;" horiz-adv-x="964" 
d="M745 295q0 55 -24.5 95t-64 61t-90.5 39t-103.5 29t-103.5 31t-90.5 44t-64 69.5t-24.5 106.5q0 137 114.5 223t270.5 86q161 0 253.5 -62.5t92.5 -193.5q0 -44 -8 -80h-65q8 31 8 72q0 113 -70.5 162t-222.5 49q-39 0 -80 -9t-81.5 -29t-72 -48.5t-51.5 -71t-20 -92.5
q0 -52 24.5 -89.5t64 -57t90.5 -37t103.5 -28.5t103.5 -31.5t90.5 -47t64 -74.5t24.5 -114q0 -104 -62.5 -178.5t-156 -108t-205.5 -33.5q-346 0 -346 263q0 44 12 96h62q-13 -54 -13 -88q0 -217 297 -217q63 0 123 16.5t110 47.5t80.5 83t30.5 117zM317 -156h80l-30 -125
l-101 -186h-43l94 184h-32z" />
    <glyph glyph-name="uni021A" unicode="&#x21a;" horiz-adv-x="1105" 
d="M1323 1487l-14 -57h-502l-356 -1430h-62l356 1430h-501l14 57h1065zM350 -156h80l-31 -125l-100 -186h-43l94 184h-33z" />
    <glyph glyph-name="uni021B" unicode="&#x21b;" horiz-adv-x="559" 
d="M408 1270h61l-53 -213h248l-15 -53h-248l-184 -738q-18 -74 -18 -112q0 -111 123 -111q38 0 106 14l-12 -51q-56 -12 -109 -12q-94 1 -133 37t-39 106q0 59 21 129l184 738h-203l15 53h202zM219 -156h80l-31 -125l-100 -186h-43l94 184h-33z" />
    <glyph glyph-name="uni021E" unicode="&#x21e;" horiz-adv-x="1445" 
d="M322 735l-183 -735h-61l371 1487h61l-174 -694h905l174 694h62l-371 -1487h-62l183 735h-905zM819 1855h64l123 -188l208 188h72l-244 -227h-86z" />
    <glyph glyph-name="uni021F" unicode="&#x21f;" horiz-adv-x="1122" 
d="M477 1487l-160 -635q161 227 410 227q146 0 218.5 -62t72.5 -181q0 -74 -25 -172l-166 -664h-61l164 655q24 108 24 162q0 107 -60 157t-179 50q-46 0 -94.5 -12.5t-105.5 -44.5t-105.5 -81.5t-92.5 -131.5t-69 -185l-142 -569h-61l371 1487h61zM319 1855h62l102 -190
l193 190h69l-225 -227h-80z" />
    <glyph glyph-name="uni022E" unicode="&#x22e;" horiz-adv-x="1509" 
d="M641 35q136 0 259 55.5t214 149t158.5 213.5t102 253t34.5 263q0 227 -115 353t-317 126q-136 0 -259 -55.5t-214 -149t-158.5 -213.5t-102 -253t-34.5 -263q0 -227 115 -353t317 -126zM635 -23q-232 0 -363 141t-131 394q0 112 26.5 228.5t75 227t123.5 208t165.5 171
t207.5 116t244 42.5q232 0 363 -140.5t131 -393.5q0 -136 -36.5 -276t-109.5 -268.5t-172.5 -229t-235.5 -160.5t-288 -60zM1022 1829h78l-37 -148h-78z" />
    <glyph glyph-name="uni022F" unicode="&#x22f;" horiz-adv-x="1116" 
d="M444 31q115 0 215.5 62.5t166.5 160.5t103.5 216t37.5 232q0 147 -79 235.5t-214 88.5q-92 0 -176 -41t-146 -109t-108 -155t-69 -181.5t-23 -185.5q0 -147 78.5 -235t213.5 -88zM438 -23q-165 0 -259.5 97t-94.5 280q0 94 24 193.5t74 194.5t119 170t167.5 121t211.5 46
q165 0 259.5 -97t94.5 -280q0 -94 -24 -193.5t-74 -194.5t-119 -170t-167.5 -121t-211.5 -46zM741 1475h78l-37 -148h-77z" />
    <glyph glyph-name="uni0232" unicode="&#x232;" horiz-adv-x="1155" 
d="M268 1487h66l291 -764l669 764h72l-723 -817l-166 -670h-61l166 674zM645 1776h475l-14 -56h-475z" />
    <glyph glyph-name="uni0233" unicode="&#x233;" horiz-adv-x="950" 
d="M238 1057l143 -959h8l586 959h65l-739 -1207q-48 -76 -78.5 -117t-72 -81.5t-87.5 -57t-104 -16.5q-50 0 -109 12l15 56q50 -13 86 -13q37 0 69.5 9.5t63 32.5t54 46t53 66t49 75t53.5 89l35 57l-156 1049h66zM449 1421h479l-15 -55h-479z" />
    <glyph glyph-name="uni0237" unicode="&#x237;" horiz-adv-x="413" 
d="M371 1057l-277 -1106q-12 -47 -20.5 -76.5t-24 -73t-31 -71t-40 -59t-52.5 -49.5t-66.5 -30t-84.5 -12q-35 0 -72 6l14 58q30 -9 64 -9t63.5 10t51.5 25t41 41t32 50.5t26 60t20.5 63t17.5 66.5l276 1106h62z" />
    <glyph glyph-name="uni0244" unicode="&#x244;" horiz-adv-x="1431" 
d="M1442 739h-166l-57 -231q-63 -258 -215 -391t-390 -133q-213 0 -321.5 89.5t-108.5 262.5q0 81 23 172l57 231h-170l15 58h170l172 690h61l-172 -690h889l172 690h61l-172 -690h166zM268 508q-22 -99 -22 -164q0 -303 375 -303q210 0 347 126.5t189 340.5l57 231h-888z
" />
    <glyph glyph-name="uni0259" unicode="&#x259;" horiz-adv-x="1071" 
d="M649 1079q158 0 248 -97t90 -280q0 -94 -23.5 -193.5t-73 -194.5t-117.5 -170t-165.5 -121t-208.5 -46q-87 0 -151 26.5t-101 75t-54 109t-17 134.5q0 95 28 210h795q21 82 21 170q0 147 -74.5 235.5t-202.5 88.5q-120 0 -233 -76.5t-172 -189.5h-62q73 151 195 235
t278 84zM406 31q87 0 166 36.5t139 99.5t104.5 142.5t69.5 169.5h-725q-19 -97 -19 -157q0 -291 265 -291z" />
    <glyph glyph-name="uni025B" unicode="&#x25b;" horiz-adv-x="985" 
d="M788 319h64q-48 -164 -169.5 -257t-303.5 -93q-156 0 -250 66t-94 180q0 132 91 215.5t228 110.5l2 8q-76 20 -117.5 74.5t-41.5 128.5q0 66 26 122t68.5 94.5t97.5 66t112.5 40t114.5 12.5q146 0 240 -70t94 -194q0 -27 -6 -61h-63q6 30 6 57q0 106 -79 160.5t-198 54.5
q-85 0 -163.5 -32.5t-131.5 -98.5t-53 -151q0 -83 57.5 -136t165.5 -53h101l-15 -53h-98q-95 0 -177 -31.5t-137 -100t-55 -161.5q0 -91 78 -142.5t203 -51.5q151 0 260.5 84.5t142.5 211.5z" />
    <glyph glyph-name="uni0263" unicode="&#x263;" horiz-adv-x="905" 
d="M236 -418q-95 0 -147 51t-52 119q0 89 45.5 173t118.5 173l155 197l-229 762h66l210 -703l551 703h74l-606 -764l57 -195q33 -116 33 -204q0 -138 -67.5 -225t-208.5 -87zM102 -246q0 -48 37 -85.5t101 -37.5q108 0 158.5 74t50.5 189q0 82 -27 180l-47 159l-121 -151
q-70 -90 -111 -169.5t-41 -158.5z" />
    <glyph glyph-name="uni0268" unicode="&#x268;" horiz-adv-x="534" 
d="M430 1057l-111 -441h207l-14 -53h-207l-139 -563h-62l142 563h-207l14 53h205l111 441h61zM535 1475l-37 -148h-78l37 148h78z" />
    <glyph glyph-name="uni0272" unicode="&#x272;" horiz-adv-x="1122" 
d="M727 1079q146 0 218.5 -62t72.5 -181q0 -74 -25 -172l-166 -664h-61l164 655q24 108 24 162q0 107 -60 157t-179 50q-47 0 -96.5 -12.5t-105.5 -45t-104.5 -80.5t-90.5 -126t-66 -176l-158 -633q-10 -37 -16 -59.5t-17 -58t-21 -57.5t-25.5 -51.5t-31.5 -48t-38.5 -39
t-47.5 -31.5t-57 -18.5t-69 -7.5t-74 6l14 58q30 -9 66 -9q41 0 75 12t59 37t43 50.5t33.5 67t24.5 71.5t21 78l276 1106h62l-52 -203q159 225 408 225z" />
    <glyph glyph-name="uni0289" unicode="&#x289;" horiz-adv-x="1261" 
d="M831 0l52 203q-160 -226 -408 -226q-146 0 -218.5 62.5t-72.5 181.5q0 74 25 172l43 170h-209l14 53h207l111 441h61l-110 -441h659l111 441h61l-110 -441h206l-14 -53h-205l-141 -563h-62zM248 240q0 -107 60 -157t179 -50q45 0 93.5 12.5t105 44t105 79t91 125
t66.5 173.5l25 96h-660l-41 -162q-24 -91 -24 -161z" />
    <glyph glyph-name="uni02BC" unicode="&#x2bc;" horiz-adv-x="335" 
d="M387 1372h-51l29 115h102l-31 -125l-112 -186h-48z" />
    <glyph glyph-name="circumflex" unicode="&#x2c6;" horiz-adv-x="1116" 
d="M754 1487h75l142 -250h-62l-123 211l-217 -211h-69z" />
    <glyph glyph-name="caron" unicode="&#x2c7;" horiz-adv-x="1116" 
d="M563 1487h62l123 -213l217 213h69l-254 -250h-75z" />
    <glyph glyph-name="uni02C9" unicode="&#x2c9;" horiz-adv-x="1134" 
d="M551 1421h479l-14 -55h-479z" />
    <glyph glyph-name="breve" unicode="&#x2d8;" horiz-adv-x="1064" 
d="M729 1237q-88 0 -140 47.5t-52 132.5q0 37 8 70h57q-8 -27 -8 -64q0 -66 37.5 -101.5t99.5 -35.5q71 0 128 52.5t81 148.5h59q-24 -119 -97 -184.5t-173 -65.5z" />
    <glyph glyph-name="dotaccent" unicode="&#x2d9;" horiz-adv-x="1146" 
d="M770 1475h78l-37 -148h-78z" />
    <glyph glyph-name="ring" unicode="&#x2da;" horiz-adv-x="1150" 
d="M752 1171q-82 0 -126 47.5t-44 118.5q0 90 69 157t166 67q79 0 124.5 -47t45.5 -119q0 -93 -68.5 -158.5t-166.5 -65.5zM760 1225q70 0 119 48.5t49 119.5q0 54 -34 84t-87 30q-68 0 -117 -49.5t-49 -120.5q0 -52 34 -82t85 -30z" />
    <glyph glyph-name="ogonek" unicode="&#x2db;" horiz-adv-x="1095" 
d="M373 -418q-70 0 -112 40t-42 102q0 166 299 315l31 -39q-264 -137 -264 -266q0 -47 29 -73t73 -26q50 0 80 19l-21 -62q-38 -10 -73 -10z" />
    <glyph glyph-name="tilde" unicode="&#x2dc;" horiz-adv-x="1163" 
d="M502 1282q67 168 180 168q36 0 69 -17.5t54 -38t49 -38t55 -17.5q61 0 115 111h55q-67 -168 -180 -168q-34 0 -67 17.5t-54.5 38t-50 38t-55.5 17.5q-32 0 -58 -25.5t-57 -85.5h-55z" />
    <glyph glyph-name="hungarumlaut" unicode="&#x2dd;" horiz-adv-x="1212" 
d="M1047 1487h92l-260 -250h-64zM721 1487h92l-260 -250h-64z" />
    <glyph glyph-name="gravecomb" unicode="&#x300;" horiz-adv-x="0" 
d="M-631 1487h88l152 -250h-60z" />
    <glyph glyph-name="acutecomb" unicode="&#x301;" horiz-adv-x="0" 
d="M-457 1487h95l-271 -250h-65z" />
    <glyph glyph-name="uni0302" unicode="&#x302;" horiz-adv-x="0" 
d="M-489 1487h75l142 -250h-62l-123 211l-217 -211h-69z" />
    <glyph glyph-name="tildecomb" unicode="&#x303;" horiz-adv-x="0" 
d="M-801 1282q67 168 180 168q36 0 69 -17.5t54 -38t49.5 -38t55.5 -17.5q31 0 58 26t56 85h56q-67 -168 -180 -168q-34 0 -67 17.5t-54.5 38t-50.5 38t-56 17.5q-32 0 -57.5 -25t-56.5 -86h-56z" />
    <glyph glyph-name="uni0304" unicode="&#x304;" horiz-adv-x="0" 
d="M-743 1421h479l-15 -55h-479z" />
    <glyph glyph-name="uni0306" unicode="&#x306;" horiz-adv-x="0" 
d="M-532 1237q-88 0 -140.5 47.5t-52.5 132.5q0 37 8 70h58q-9 -30 -9 -64q0 -66 38 -101.5t100 -35.5q71 0 127.5 52.5t80.5 148.5h60q-24 -119 -97 -184.5t-173 -65.5z" />
    <glyph glyph-name="uni0307" unicode="&#x307;" horiz-adv-x="0" 
d="M-535 1475h78l-37 -148h-77z" />
    <glyph glyph-name="uni0308" unicode="&#x308;" horiz-adv-x="0" 
d="M-354 1475h78l-37 -148h-78zM-715 1475h78l-37 -148h-78z" />
    <glyph glyph-name="uni030A" unicode="&#x30a;" horiz-adv-x="0" 
d="M-545 1171q-82 0 -126 47.5t-44 118.5q0 90 69.5 157t166.5 67q79 0 124.5 -47t45.5 -119q0 -92 -69 -158t-167 -66zM-537 1225q70 0 119 48.5t49 119.5q0 54 -33.5 84t-86.5 30q-68 0 -117 -49.5t-49 -120.5q0 -52 33.5 -82t84.5 -30z" />
    <glyph glyph-name="uni030B" unicode="&#x30b;" horiz-adv-x="0" 
d="M-285 1487h92l-260 -250h-63zM-610 1487h92l-260 -250h-64z" />
    <glyph glyph-name="uni030C" unicode="&#x30c;" horiz-adv-x="0" 
d="M-758 1487h62l123 -213l217 213h69l-254 -250h-75z" />
    <glyph glyph-name="uni0312" unicode="&#x312;" horiz-adv-x="0" 
d="M-514 1262h-80l31 124l100 187h43l-92 -184h31z" />
    <glyph glyph-name="uni0313" unicode="&#x313;" horiz-adv-x="0" 
d="M-516 1372h-51l28 115h103l-31 -125l-113 -186h-47z" />
    <glyph glyph-name="dotbelowcomb" unicode="&#x323;" horiz-adv-x="0" 
d="M-541 -195h78l-37 -147h-78z" />
    <glyph glyph-name="uni0326" unicode="&#x326;" horiz-adv-x="0" 
d="M-512 -156h80l-31 -125l-100 -186h-43l94 184h-33z" />
    <glyph glyph-name="uni0327" unicode="&#x327;" horiz-adv-x="0" 
d="M-510 -418q-39 0 -70 8l15 54q21 -9 55 -9q67 0 111.5 41.5t44.5 106.5q0 52 -28.5 77t-78.5 25q-10 0 -24 -2l32 133h62l-21 -86q54 -5 87.5 -45.5t33.5 -101.5q0 -86 -63.5 -143.5t-155.5 -57.5z" />
    <glyph glyph-name="uni0328" unicode="&#x328;" horiz-adv-x="0" 
d="M-575 -418q-70 0 -112 40t-42 102q0 166 299 315l31 -39q-265 -137 -265 -266q0 -47 29.5 -73t73.5 -26q50 0 80 19l-21 -62q-38 -10 -73 -10z" />
    <glyph glyph-name="uni032E" unicode="&#x32e;" horiz-adv-x="0" 
d="M-559 -410q-88 0 -140.5 48t-52.5 133q0 31 9 69h57q-8 -27 -8 -63q0 -66 37.5 -101.5t99.5 -35.5q71 0 128 52t81 148h59q-29 -118 -100.5 -184t-169.5 -66z" />
    <glyph glyph-name="uni0331" unicode="&#x331;" horiz-adv-x="0" 
d="M-764 -233h479l-14 -56h-479z" />
    <glyph glyph-name="uni037E" unicode="&#x37e;" horiz-adv-x="403" 
d="M76 8h-51l28 115h103l-31 -123l-117 -270h-51zM279 1057h102l-31 -123h-102z" />
    <glyph glyph-name="dieresistonos" unicode="&#x385;" horiz-adv-x="1167" 
d="M801 1487h90l-125 -250h-66zM561 1384h78l-37 -147h-78zM940 1384h78l-37 -147h-78z" />
    <glyph glyph-name="anoteleia" unicode="&#x387;" horiz-adv-x="366" 
d="M256 1057h102l-30 -123h-103z" />
    <glyph glyph-name="uni0394" unicode="&#x394;" horiz-adv-x="1331" 
d="M868 1487h70l240 -1432l-15 -55h-1257l14 55zM918 1204l-31 180h-8l-138 -206l-743 -1117h1108z" />
    <glyph glyph-name="Sigma" unicode="&#x3a3;" horiz-adv-x="1112" 
d="M799 752l-514 690l12 45h997l-16 -60h-897l493 -663l-2 -31l-852 -676h920l-14 -57h-1000l15 61z" />
    <glyph glyph-name="uni03A9" unicode="&#x3a9;" horiz-adv-x="1525" 
d="M418 57q-105 76 -171.5 217.5t-66.5 341.5q0 247 103.5 450.5t285.5 321t404 117.5q248 0 377 -149t129 -408q0 -548 -574 -891h389l-14 -57h-489l14 57q306 173 456 386.5t150 492.5q0 113 -24 203.5t-75.5 161t-139 109t-207.5 38.5q-131 0 -246.5 -46.5t-200.5 -126
t-146.5 -184.5t-92.5 -224t-31 -242q0 -168 62 -318.5t196 -249.5l-19 -57h-501l16 57h416z" />
    <glyph glyph-name="uni03BC" unicode="&#x3bc;" horiz-adv-x="1159" 
d="M371 1057l-164 -656q-14 -51 -14 -137q0 -107 55.5 -158t187.5 -51q56 0 118.5 22.5t127 68t118.5 128t81 189.5l149 594h62l-203 -813q-23 -90 -23 -127q0 -38 19.5 -56t62.5 -18q39 0 76 12l-10 -47q-32 -14 -78 -14q-69 0 -98 30.5t-29 88.5q0 37 18 114
q-162 -227 -403 -227q-224 0 -279 154l-139 -566h-61l364 1469h62z" />
    <glyph glyph-name="pi" unicode="&#x3c0;" horiz-adv-x="1212" 
d="M930 -6q-92 0 -130 40.5t-38 112.5q0 52 18 129l181 721h-564l-247 -997h-60l248 997h-193l17 60h1116l-16 -60h-240l-180 -721q-19 -74 -19 -118q0 -60 30 -87.5t93 -27.5q43 0 80 12l-10 -47q-33 -14 -86 -14z" />
    <glyph glyph-name="uni1E02" unicode="&#x1e02;" horiz-adv-x="1232" 
d="M864 1487q182 0 274.5 -78.5t92.5 -204.5q0 -163 -97.5 -280t-261.5 -160v-4q87 -13 154.5 -89.5t67.5 -185.5q0 -120 -48.5 -214.5t-131.5 -152.5t-188 -88t-224 -30h-424l371 1487h415zM154 57h362q78 0 151.5 16t139 50.5t115 84t78 119.5t28.5 154q0 116 -85 183
t-226 67h-395zM336 793h397q82 0 160 30.5t138 83t97 129.5t37 164q0 105 -84 167.5t-231 62.5h-354zM887 1829h78l-37 -148h-78z" />
    <glyph glyph-name="uni1E03" unicode="&#x1e03;" horiz-adv-x="1155" 
d="M305 801q66 123 185 200.5t243 77.5q149 0 243.5 -96.5t94.5 -280.5q0 -93 -22.5 -191.5t-70 -194.5t-113.5 -171t-162 -121.5t-207 -46.5q-137 0 -225 68.5t-107 183.5l-58 -229h-61l371 1487h61zM733 1026q-90 0 -173 -44t-145 -116.5t-108.5 -163t-70 -187
t-23.5 -185.5q0 -136 77.5 -217.5t211.5 -81.5q92 0 173.5 41t140.5 109t102 155t64.5 181t21.5 185q0 141 -71.5 232.5t-199.5 91.5zM811 1475h78l-37 -148h-78z" />
    <glyph glyph-name="uni1E0A" unicode="&#x1e0a;" horiz-adv-x="1474" 
d="M791 1487q172 0 299 -36.5t203 -105t112.5 -159.5t36.5 -207q0 -156 -42 -300.5t-126 -268t-200.5 -215t-274.5 -143.5t-340 -52h-381l371 1487h342zM154 61h323q200 0 370 73t284.5 197.5t178.5 291.5t64 354q0 448 -592 448h-288zM944 1829h78l-37 -148h-78z" />
    <glyph glyph-name="uni1E0B" unicode="&#x1e0b;" horiz-adv-x="1159" 
d="M854 252q-64 -121 -184 -198t-242 -77q-150 0 -247 97t-97 280q0 93 23.5 192t73 194.5t117.5 170.5t165.5 121.5t208.5 46.5q133 0 218.5 -68.5t106.5 -181.5l164 658h62l-371 -1487h-61zM428 31q90 0 173 44t145 116.5t108.5 163t70 187t23.5 185.5q0 137 -74.5 218
t-207.5 81q-114 0 -213 -62.5t-163.5 -161t-101 -216.5t-36.5 -232q0 -140 74 -231.5t202 -91.5zM743 1475h78l-37 -148h-77z" />
    <glyph glyph-name="uni1E0C" unicode="&#x1e0c;" horiz-adv-x="1474" 
d="M791 1487q172 0 299 -36.5t203 -105t112.5 -159.5t36.5 -207q0 -156 -42 -300.5t-126 -268t-200.5 -215t-274.5 -143.5t-340 -52h-381l371 1487h342zM154 61h323q200 0 370 73t284.5 197.5t178.5 291.5t64 354q0 448 -592 448h-288zM471 -195h78l-37 -147h-78z" />
    <glyph glyph-name="uni1E0D" unicode="&#x1e0d;" horiz-adv-x="1159" 
d="M854 252q-64 -121 -184 -198t-242 -77q-150 0 -247 97t-97 280q0 93 23.5 192t73 194.5t117.5 170.5t165.5 121.5t208.5 46.5q133 0 218.5 -68.5t106.5 -181.5l164 658h62l-371 -1487h-61zM428 31q90 0 173 44t145 116.5t108.5 163t70 187t23.5 185.5q0 137 -74.5 218
t-207.5 81q-114 0 -213 -62.5t-163.5 -161t-101 -216.5t-36.5 -232q0 -140 74 -231.5t202 -91.5zM365 -195h77l-36 -147h-78z" />
    <glyph glyph-name="uni1E0E" unicode="&#x1e0e;" horiz-adv-x="1474" 
d="M791 1487q172 0 299 -36.5t203 -105t112.5 -159.5t36.5 -207q0 -156 -42 -300.5t-126 -268t-200.5 -215t-274.5 -143.5t-340 -52h-381l371 1487h342zM154 61h323q200 0 370 73t284.5 197.5t178.5 291.5t64 354q0 448 -592 448h-288zM180 -233h479l-14 -56h-479z" />
    <glyph glyph-name="uni1E0F" unicode="&#x1e0f;" horiz-adv-x="1159" 
d="M854 252q-64 -121 -184 -198t-242 -77q-150 0 -247 97t-97 280q0 93 23.5 192t73 194.5t117.5 170.5t165.5 121.5t208.5 46.5q133 0 218.5 -68.5t106.5 -181.5l164 658h62l-371 -1487h-61zM428 31q90 0 173 44t145 116.5t108.5 163t70 187t23.5 185.5q0 137 -74.5 218
t-207.5 81q-114 0 -213 -62.5t-163.5 -161t-101 -216.5t-36.5 -232q0 -140 74 -231.5t202 -91.5zM166 -233h479l-14 -56h-479z" />
    <glyph glyph-name="uni1E10" unicode="&#x1e10;" horiz-adv-x="1474" 
d="M791 1487q172 0 299 -36.5t203 -105t112.5 -159.5t36.5 -207q0 -156 -42 -300.5t-126 -268t-200.5 -215t-274.5 -143.5t-340 -52h-381l371 1487h342zM154 61h323q200 0 370 73t284.5 197.5t178.5 291.5t64 354q0 448 -592 448h-288zM483 -156h80l-31 -125l-100 -186h-43
l94 184h-32z" />
    <glyph glyph-name="uni1E11" unicode="&#x1e11;" horiz-adv-x="1159" 
d="M854 252q-64 -121 -184 -198t-242 -77q-150 0 -247 97t-97 280q0 93 23.5 192t73 194.5t117.5 170.5t165.5 121.5t208.5 46.5q133 0 218.5 -68.5t106.5 -181.5l164 658h62l-371 -1487h-61zM428 31q90 0 173 44t145 116.5t108.5 163t70 187t23.5 185.5q0 137 -74.5 218
t-207.5 81q-114 0 -213 -62.5t-163.5 -161t-101 -216.5t-36.5 -232q0 -140 74 -231.5t202 -91.5zM373 -156h80l-31 -125l-100 -186h-43l94 184h-33z" />
    <glyph glyph-name="uni1E1E" unicode="&#x1e1e;" horiz-adv-x="1110" 
d="M1282 1487l-14 -57h-772l-162 -646h733l-16 -57h-732l-180 -727h-61l371 1487h833zM911 1829h78l-37 -148h-78z" />
    <glyph glyph-name="uni1E1F" unicode="&#x1e1f;" horiz-adv-x="557" 
d="M399 1219q34 139 100 207.5t189 68.5q62 0 103 -8l-15 -51q-44 8 -96 8q-82 0 -135 -52.5t-82 -164.5l-43 -170h250l-15 -53h-247l-250 -1004h-62l250 1004h-203l15 53h200zM672 1829h78l-37 -148h-78z" />
    <glyph glyph-name="uni1E20" unicode="&#x1e20;" horiz-adv-x="1417" 
d="M598 -23q-216 0 -337.5 143.5t-121.5 381.5q0 110 25.5 226t72 227.5t119 210.5t160 173.5t201 118t237.5 43.5q207 0 331 -96t124 -266q0 -14 -4 -60h-64q2 18 2 47q0 149 -105.5 233.5t-291.5 84.5q-131 0 -249.5 -57.5t-206 -153.5t-152.5 -218t-98 -254t-33 -259
q0 -218 105.5 -342.5t293.5 -124.5q129 0 236.5 45.5t186 130t133.5 195t91 249.5l17 68h-486l15 53h547l-195 -776h-55q21 114 61 274h-8q-113 -151 -244.5 -224t-306.5 -73zM791 1776h475l-15 -56h-475z" />
    <glyph glyph-name="uni1E21" unicode="&#x1e21;" horiz-adv-x="1146" 
d="M854 299q-69 -122 -185.5 -198t-234.5 -76q-150 0 -247 92.5t-97 267.5q0 88 23.5 183t73 186.5t117.5 163.5t165.5 116.5t208.5 44.5q127 0 207 -62.5t104 -174.5l55 215h62l-232 -922q-25 -99 -54 -175.5t-75 -150t-104 -121.5t-141.5 -77t-186.5 -29q-157 0 -238 75
t-81 187q0 30 10 82h57q-6 -30 -6 -61q0 -103 68.5 -166.5t195.5 -63.5q94 0 172 32t128.5 79.5t91 118t62.5 133t40 137.5zM434 78q90 0 172 42t142 111t104.5 155.5t67 178.5t22.5 176q0 132 -69 208.5t-201 76.5q-92 0 -175 -39t-143.5 -104.5t-105.5 -148.5t-67.5 -173
t-22.5 -176q0 -133 74 -220t202 -87zM555 1421h479l-14 -55h-479z" />
    <glyph glyph-name="uni1E22" unicode="&#x1e22;" horiz-adv-x="1445" 
d="M322 735l-183 -735h-61l371 1487h61l-174 -694h905l174 694h62l-371 -1487h-62l183 735h-905zM1012 1829h78l-37 -148h-78z" />
    <glyph glyph-name="uni1E23" unicode="&#x1e23;" horiz-adv-x="1122" 
d="M477 1487l-160 -635q161 227 410 227q146 0 218.5 -62t72.5 -181q0 -74 -25 -172l-166 -664h-61l164 655q24 108 24 162q0 107 -60 157t-179 50q-46 0 -94.5 -12.5t-105.5 -44.5t-105.5 -81.5t-92.5 -131.5t-69 -185l-142 -569h-61l371 1487h61zM784 1475h78l-37 -148
h-77z" />
    <glyph glyph-name="uni1E24" unicode="&#x1e24;" horiz-adv-x="1445" 
d="M322 735l-183 -735h-61l371 1487h61l-174 -694h905l174 694h62l-371 -1487h-62l183 735h-905zM508 -195h78l-37 -147h-78z" />
    <glyph glyph-name="uni1E25" unicode="&#x1e25;" horiz-adv-x="1122" 
d="M477 1487l-160 -635q161 227 410 227q146 0 218.5 -62t72.5 -181q0 -74 -25 -172l-166 -664h-61l164 655q24 108 24 162q0 107 -60 157t-179 50q-46 0 -94.5 -12.5t-105.5 -44.5t-105.5 -81.5t-92.5 -131.5t-69 -185l-142 -569h-61l371 1487h61zM352 -195h78l-37 -147
h-78z" />
    <glyph glyph-name="uni1E2A" unicode="&#x1e2a;" horiz-adv-x="1445" 
d="M322 735l-183 -735h-61l371 1487h61l-174 -694h905l174 694h62l-371 -1487h-62l183 735h-905zM518 -408q-88 0 -140 48t-52 133q0 36 8 69h57q-8 -27 -8 -63q0 -66 37.5 -101.5t99.5 -35.5q71 0 128 52t81 148h59q-24 -119 -97 -184.5t-173 -65.5z" />
    <glyph glyph-name="uni1E2B" unicode="&#x1e2b;" horiz-adv-x="1122" 
d="M477 1487l-160 -635q161 227 410 227q146 0 218.5 -62t72.5 -181q0 -74 -25 -172l-166 -664h-61l164 655q24 108 24 162q0 107 -60 157t-179 50q-46 0 -94.5 -12.5t-105.5 -44.5t-105.5 -81.5t-92.5 -131.5t-69 -185l-142 -569h-61l371 1487h61zM369 -410
q-88 0 -140.5 48t-52.5 133q0 36 8 69h58q-9 -30 -9 -63q0 -66 38 -101.5t100 -35.5q71 0 128 52t81 148h59q-29 -118 -100.5 -184t-169.5 -66z" />
    <glyph glyph-name="uni1E36" unicode="&#x1e36;" horiz-adv-x="1097" 
d="M510 1487l-356 -1430h813l-15 -57h-874l371 1487h61zM432 -195h78l-37 -147h-78z" />
    <glyph glyph-name="uni1E37" unicode="&#x1e37;" horiz-adv-x="413" 
d="M477 1487l-371 -1487h-61l371 1487h61zM-8 -195h78l-37 -147h-78z" />
    <glyph glyph-name="uni1E38" unicode="&#x1e38;" horiz-adv-x="1097" 
d="M510 1487l-356 -1430h813l-15 -57h-874l371 1487h61zM432 -195h78l-37 -147h-78zM307 1776h475l-14 -56h-475z" />
    <glyph glyph-name="uni1E39" unicode="&#x1e39;" horiz-adv-x="413" 
d="M303 1776h393l-14 -56h-393zM477 1487l-371 -1487h-61l371 1487h61zM-8 -195h78l-37 -147h-78z" />
    <glyph glyph-name="uni1E3A" unicode="&#x1e3a;" horiz-adv-x="1097" 
d="M510 1487l-356 -1430h813l-15 -57h-874l371 1487h61zM236 -233h479l-15 -56h-479z" />
    <glyph glyph-name="uni1E3B" unicode="&#x1e3b;" horiz-adv-x="413" 
d="M477 1487l-371 -1487h-61l371 1487h61zM-174 -233h393l-14 -56h-393z" />
    <glyph glyph-name="uni1E3E" unicode="&#x1e3e;" horiz-adv-x="1789" 
d="M494 1384h-9l-346 -1384h-61l371 1487h94l248 -1403l929 1403h101l-371 -1487h-61l346 1384h-9l-923 -1384h-60zM1346 1855h92l-250 -227h-66z" />
    <glyph glyph-name="uni1E3F" unicode="&#x1e3f;" horiz-adv-x="1679" 
d="M371 1057l-52 -205q60 96 159.5 161.5t221.5 65.5q123 0 178.5 -60t57.5 -177q57 99 167.5 168t233.5 69q125 0 181.5 -61t56.5 -182q0 -79 -29 -193l-162 -643h-61l160 635q28 118 28 182q0 109 -44 158t-142 49q-39 0 -81.5 -11t-93.5 -39.5t-96 -72t-86.5 -114.5
t-66.5 -160l-156 -627h-61l164 655q24 101 24 162q0 109 -43 158t-141 49q-39 0 -82.5 -12t-95 -42t-97 -74t-87 -115.5t-66.5 -159.5l-154 -621h-61l264 1057h62zM1212 1487h95l-271 -250h-65z" />
    <glyph glyph-name="uni1E40" unicode="&#x1e40;" horiz-adv-x="1789" 
d="M494 1384h-9l-346 -1384h-61l371 1487h94l248 -1403l929 1403h101l-371 -1487h-61l346 1384h-9l-923 -1384h-60zM1182 1829h78l-37 -148h-78z" />
    <glyph glyph-name="uni1E41" unicode="&#x1e41;" horiz-adv-x="1679" 
d="M371 1057l-52 -205q60 96 159.5 161.5t221.5 65.5q123 0 178.5 -60t57.5 -177q57 99 167.5 168t233.5 69q125 0 181.5 -61t56.5 -182q0 -79 -29 -193l-162 -643h-61l160 635q28 118 28 182q0 109 -44 158t-142 49q-39 0 -81.5 -11t-93.5 -39.5t-96 -72t-86.5 -114.5
t-66.5 -160l-156 -627h-61l164 655q24 101 24 162q0 109 -43 158t-141 49q-39 0 -82.5 -12t-95 -42t-97 -74t-87 -115.5t-66.5 -159.5l-154 -621h-61l264 1057h62zM1040 1475h78l-37 -148h-77z" />
    <glyph glyph-name="uni1E42" unicode="&#x1e42;" horiz-adv-x="1789" 
d="M494 1384h-9l-346 -1384h-61l371 1487h94l248 -1403l929 1403h101l-371 -1487h-61l346 1384h-9l-923 -1384h-60zM698 -195h78l-37 -147h-77z" />
    <glyph glyph-name="uni1E43" unicode="&#x1e43;" horiz-adv-x="1679" 
d="M371 1057l-52 -205q60 96 159.5 161.5t221.5 65.5q123 0 178.5 -60t57.5 -177q57 99 167.5 168t233.5 69q125 0 181.5 -61t56.5 -182q0 -79 -29 -193l-162 -643h-61l160 635q28 118 28 182q0 109 -44 158t-142 49q-39 0 -81.5 -11t-93.5 -39.5t-96 -72t-86.5 -114.5
t-66.5 -160l-156 -627h-61l164 655q24 101 24 162q0 109 -43 158t-141 49q-39 0 -82.5 -12t-95 -42t-97 -74t-87 -115.5t-66.5 -159.5l-154 -621h-61l264 1057h62zM631 -195h78l-37 -147h-78z" />
    <glyph glyph-name="uni1E44" unicode="&#x1e44;" horiz-adv-x="1445" 
d="M485 1384l-346 -1384h-61l371 1487h73l539 -1385h8l346 1385h62l-371 -1487h-74l-538 1384h-9zM1012 1829h78l-37 -148h-78z" />
    <glyph glyph-name="uni1E45" unicode="&#x1e45;" horiz-adv-x="1122" 
d="M371 1057l-52 -203q159 225 408 225q146 0 218.5 -62t72.5 -181q0 -74 -25 -172l-166 -664h-61l164 655q24 108 24 162q0 107 -60 157t-179 50q-47 0 -94.5 -11.5t-104 -43t-105 -80.5t-92.5 -131.5t-71 -188.5l-142 -569h-61l264 1057h62zM770 1475h78l-37 -148h-78z
" />
    <glyph glyph-name="uni1E46" unicode="&#x1e46;" horiz-adv-x="1445" 
d="M485 1384l-346 -1384h-61l371 1487h73l539 -1385h8l346 1385h62l-371 -1487h-74l-538 1384h-9zM508 -195h78l-37 -147h-78z" />
    <glyph glyph-name="uni1E47" unicode="&#x1e47;" horiz-adv-x="1122" 
d="M371 1057l-52 -203q159 225 408 225q146 0 218.5 -62t72.5 -181q0 -74 -25 -172l-166 -664h-61l164 655q24 108 24 162q0 107 -60 157t-179 50q-47 0 -94.5 -11.5t-104 -43t-105 -80.5t-92.5 -131.5t-71 -188.5l-142 -569h-61l264 1057h62zM348 -195h78l-37 -147h-78z
" />
    <glyph glyph-name="uni1E48" unicode="&#x1e48;" horiz-adv-x="1445" 
d="M485 1384l-346 -1384h-61l371 1487h73l539 -1385h8l346 1385h62l-371 -1487h-74l-538 1384h-9zM319 -233h480l-15 -56h-479z" />
    <glyph glyph-name="uni1E49" unicode="&#x1e49;" horiz-adv-x="1122" 
d="M371 1057l-52 -203q159 225 408 225q146 0 218.5 -62t72.5 -181q0 -74 -25 -172l-166 -664h-61l164 655q24 108 24 162q0 107 -60 157t-179 50q-47 0 -94.5 -11.5t-104 -43t-105 -80.5t-92.5 -131.5t-71 -188.5l-142 -569h-61l264 1057h62zM150 -233h479l-15 -56h-479z
" />
    <glyph glyph-name="uni1E56" unicode="&#x1e56;" horiz-adv-x="1210" 
d="M881 1487q207 0 307 -80t100 -225q0 -221 -160.5 -357.5t-420.5 -136.5h-396l-172 -688h-61l371 1487h432zM326 750h397q137 0 249 49.5t180.5 148t68.5 230.5q0 126 -95 186.5t-262 60.5h-370zM895 1829h78l-37 -148h-78z" />
    <glyph glyph-name="uni1E57" unicode="&#x1e57;" horiz-adv-x="1155" 
d="M307 803q66 123 184.5 199.5t241.5 76.5q149 0 243.5 -96.5t94.5 -280.5q0 -93 -22 -191.5t-69 -194.5t-112.5 -171t-161 -121.5t-206.5 -46.5q-138 0 -226.5 70t-107.5 189l-162 -648h-61l366 1469h62zM733 1026q-90 0 -173 -44t-145 -116.5t-108.5 -163t-70 -187
t-23.5 -185.5q0 -136 79.5 -217.5t213.5 -81.5q92 0 173.5 41t140 109t101 155t63 181t20.5 185q0 141 -71.5 232.5t-199.5 91.5zM776 1475h78l-37 -148h-78z" />
    <glyph glyph-name="uni1E5A" unicode="&#x1e5a;" horiz-adv-x="1249" 
d="M840 1487q393 0 393 -287q0 -191 -103 -309t-292 -164v-8q133 -48 153 -244l53 -475h-65l-53 475q-13 118 -76.5 172.5t-185.5 54.5h-351l-174 -702h-61l371 1487h391zM328 760h360q93 0 178.5 29t152 82t106.5 136.5t40 184.5q0 124 -85.5 178.5t-245.5 54.5h-340z
M469 -195h78l-37 -147h-78z" />
    <glyph glyph-name="uni1E5B" unicode="&#x1e5b;" horiz-adv-x="679" 
d="M371 1057l-52 -205q69 106 170 158.5t216 52.5q43 0 86 -6l-17 -60q-51 7 -80 7q-159 0 -275 -108.5t-161 -289.5l-152 -606h-61l264 1057h62zM-8 -195h78l-37 -147h-78z" />
    <glyph glyph-name="uni1E5C" unicode="&#x1e5c;" horiz-adv-x="1249" 
d="M840 1487q393 0 393 -287q0 -191 -103 -309t-292 -164v-8q133 -48 153 -244l53 -475h-65l-53 475q-13 118 -76.5 172.5t-185.5 54.5h-351l-174 -702h-61l371 1487h391zM328 760h360q93 0 178.5 29t152 82t106.5 136.5t40 184.5q0 124 -85.5 178.5t-245.5 54.5h-340z
M469 -195h78l-37 -147h-78zM649 1776h475l-14 -56h-475z" />
    <glyph glyph-name="uni1E5D" unicode="&#x1e5d;" horiz-adv-x="679" 
d="M371 1057l-52 -205q69 106 170 158.5t216 52.5q43 0 86 -6l-17 -60q-51 7 -80 7q-159 0 -275 -108.5t-161 -289.5l-152 -606h-61l264 1057h62zM-8 -195h78l-37 -147h-78zM367 1421h479l-15 -55h-479z" />
    <glyph glyph-name="uni1E5E" unicode="&#x1e5e;" horiz-adv-x="1249" 
d="M840 1487q393 0 393 -287q0 -191 -103 -309t-292 -164v-8q133 -48 153 -244l53 -475h-65l-53 475q-13 118 -76.5 172.5t-185.5 54.5h-351l-174 -702h-61l371 1487h391zM328 760h360q93 0 178.5 29t152 82t106.5 136.5t40 184.5q0 124 -85.5 178.5t-245.5 54.5h-340z
M281 -233h479l-15 -56h-479z" />
    <glyph glyph-name="uni1E5F" unicode="&#x1e5f;" horiz-adv-x="679" 
d="M371 1057l-52 -205q69 106 170 158.5t216 52.5q43 0 86 -6l-17 -60q-51 7 -80 7q-159 0 -275 -108.5t-161 -289.5l-152 -606h-61l264 1057h62zM-174 -233h393l-14 -56h-393z" />
    <glyph glyph-name="uni1E60" unicode="&#x1e60;" horiz-adv-x="1175" 
d="M1104 1135q0 147 -94 232t-254 85q-81 0 -153 -19t-131.5 -57t-94.5 -102.5t-35 -147.5q0 -46 12 -85t39 -71t53.5 -55.5t72.5 -47.5t78 -38.5t87 -37.5q54 -23 77.5 -33.5t71 -34.5t70.5 -41.5t56 -47.5t48.5 -59.5t27.5 -70t12 -86.5q0 -112 -43.5 -198.5
t-118.5 -138.5t-166 -78t-193 -26q-222 0 -335 101t-113 274q0 57 8 109h61q-10 -65 -10 -105q0 -154 104.5 -239.5t290.5 -85.5q122 0 222 42.5t163.5 132t63.5 210.5q0 38 -10.5 71.5t-24.5 58.5t-42.5 50.5t-50 41t-63.5 36.5t-66 31.5t-73 31.5q-52 21 -80 33.5t-74 36
t-72 42.5t-58.5 49t-49.5 60.5t-29 72.5t-12 89q0 97 41.5 173t112 121t155 68t177.5 23q194 0 298.5 -98.5t104.5 -263.5q0 -57 -8 -88h-61q8 36 8 80zM807 1829h78l-37 -148h-78z" />
    <glyph glyph-name="uni1E61" unicode="&#x1e61;" horiz-adv-x="964" 
d="M745 295q0 55 -24.5 95t-64 61t-90.5 39t-103.5 29t-103.5 31t-90.5 44t-64 69.5t-24.5 106.5q0 137 114.5 223t270.5 86q161 0 253.5 -62.5t92.5 -193.5q0 -44 -8 -80h-65q8 31 8 72q0 113 -70.5 162t-222.5 49q-39 0 -80 -9t-81.5 -29t-72 -48.5t-51.5 -71t-20 -92.5
q0 -52 24.5 -89.5t64 -57t90.5 -37t103.5 -28.5t103.5 -31.5t90.5 -47t64 -74.5t24.5 -114q0 -104 -62.5 -178.5t-156 -108t-205.5 -33.5q-346 0 -346 263q0 44 12 96h62q-13 -54 -13 -88q0 -217 297 -217q63 0 123 16.5t110 47.5t80.5 83t30.5 117zM627 1475h78l-37 -148
h-78z" />
    <glyph glyph-name="uni1E62" unicode="&#x1e62;" horiz-adv-x="1175" 
d="M1104 1135q0 147 -94 232t-254 85q-81 0 -153 -19t-131.5 -57t-94.5 -102.5t-35 -147.5q0 -46 12 -85t39 -71t53.5 -55.5t72.5 -47.5t78 -38.5t87 -37.5q54 -23 77.5 -33.5t71 -34.5t70.5 -41.5t56 -47.5t48.5 -59.5t27.5 -70t12 -86.5q0 -112 -43.5 -198.5
t-118.5 -138.5t-166 -78t-193 -26q-222 0 -335 101t-113 274q0 57 8 109h61q-10 -65 -10 -105q0 -154 104.5 -239.5t290.5 -85.5q122 0 222 42.5t163.5 132t63.5 210.5q0 38 -10.5 71.5t-24.5 58.5t-42.5 50.5t-50 41t-63.5 36.5t-66 31.5t-73 31.5q-52 21 -80 33.5t-74 36
t-72 42.5t-58.5 49t-49.5 60.5t-29 72.5t-12 89q0 97 41.5 173t112 121t155 68t177.5 23q194 0 298.5 -98.5t104.5 -263.5q0 -57 -8 -88h-61q8 36 8 80zM424 -195h78l-37 -147h-78z" />
    <glyph glyph-name="uni1E63" unicode="&#x1e63;" horiz-adv-x="964" 
d="M745 295q0 55 -24.5 95t-64 61t-90.5 39t-103.5 29t-103.5 31t-90.5 44t-64 69.5t-24.5 106.5q0 137 114.5 223t270.5 86q161 0 253.5 -62.5t92.5 -193.5q0 -44 -8 -80h-65q8 31 8 72q0 113 -70.5 162t-222.5 49q-39 0 -80 -9t-81.5 -29t-72 -48.5t-51.5 -71t-20 -92.5
q0 -52 24.5 -89.5t64 -57t90.5 -37t103.5 -28.5t103.5 -31.5t90.5 -47t64 -74.5t24.5 -114q0 -104 -62.5 -178.5t-156 -108t-205.5 -33.5q-346 0 -346 263q0 44 12 96h62q-13 -54 -13 -88q0 -217 297 -217q63 0 123 16.5t110 47.5t80.5 83t30.5 117zM311 -195h78l-37 -147
h-78z" />
    <glyph glyph-name="uni1E6A" unicode="&#x1e6a;" horiz-adv-x="1105" 
d="M1323 1487l-14 -57h-502l-356 -1430h-62l356 1430h-501l14 57h1065zM838 1829h77l-36 -148h-78z" />
    <glyph glyph-name="uni1E6B" unicode="&#x1e6b;" horiz-adv-x="559" 
d="M408 1270h61l-53 -213h248l-15 -53h-248l-184 -738q-18 -74 -18 -112q0 -111 123 -111q38 0 106 14l-12 -51q-56 -12 -109 -12q-94 1 -133 37t-39 106q0 59 21 129l184 738h-203l15 53h202zM481 1620h78l-37 -147h-78z" />
    <glyph glyph-name="uni1E6C" unicode="&#x1e6c;" horiz-adv-x="1105" 
d="M1323 1487l-14 -57h-502l-356 -1430h-62l356 1430h-501l14 57h1065zM336 -195h78l-37 -147h-78z" />
    <glyph glyph-name="uni1E6D" unicode="&#x1e6d;" horiz-adv-x="559" 
d="M408 1270h61l-53 -213h248l-15 -53h-248l-184 -738q-18 -74 -18 -112q0 -111 123 -111q38 0 106 14l-12 -51q-56 -12 -109 -12q-94 1 -133 37t-39 106q0 59 21 129l184 738h-203l15 53h202zM164 -195h78l-37 -147h-78z" />
    <glyph glyph-name="uni1E6E" unicode="&#x1e6e;" horiz-adv-x="1105" 
d="M1323 1487l-14 -57h-502l-356 -1430h-62l356 1430h-501l14 57h1065zM147 -233h480l-15 -56h-479z" />
    <glyph glyph-name="uni1E6F" unicode="&#x1e6f;" horiz-adv-x="559" 
d="M408 1270h61l-53 -213h248l-15 -53h-248l-184 -738q-18 -74 -18 -112q0 -111 123 -111q38 0 106 14l-12 -51q-56 -12 -109 -12q-94 1 -133 37t-39 106q0 59 21 129l184 738h-203l15 53h202zM-23 -233h394l-15 -56h-393z" />
    <glyph glyph-name="uni1E7C" unicode="&#x1e7c;" horiz-adv-x="1253" 
d="M518 86q75 112 156 242l717 1159h75l-931 -1487h-78l-191 1487h70l141 -1159q21 -171 33 -242h8zM639 1665q63 168 184 168q37 0 71.5 -17.5t56.5 -38t51 -38t57 -17.5q65 0 119 111h55q-23 -64 -57.5 -103.5t-64.5 -52t-62 -12.5q-37 0 -70.5 17.5t-55.5 38t-51.5 38
t-58.5 17.5q-35 0 -62.5 -25.5t-56.5 -85.5h-55z" />
    <glyph glyph-name="uni1E7D" unicode="&#x1e7d;" horiz-adv-x="954" 
d="M174 1057h66l114 -1000h8l615 1000h67l-657 -1057h-84zM401 1282q67 168 181 168q36 0 69 -17.5t54 -38t49 -38t55 -17.5q61 0 115 111h55q-67 -168 -180 -168q-34 0 -67 17.5t-54.5 38t-50.5 38t-56 17.5q-32 0 -57.5 -25t-56.5 -86h-56z" />
    <glyph glyph-name="Wgrave" unicode="&#x1e80;" horiz-adv-x="1824" 
d="M2025 1487l-786 -1487h-78l-33 1386h-8l-723 -1386h-78l-38 1487h69l27 -1385h8l723 1385h78l35 -1385h8l729 1385h67zM977 1855h84l137 -227h-55z" />
    <glyph glyph-name="wgrave" unicode="&#x1e81;" horiz-adv-x="1484" 
d="M182 1057h62l28 -1000h4l562 1000h69l62 -1000h8l530 1000h62l-570 -1057h-81l-62 969h-8l-545 -969h-82zM713 1487h88l151 -250h-59z" />
    <glyph glyph-name="Wacute" unicode="&#x1e82;" horiz-adv-x="1824" 
d="M2025 1487l-786 -1487h-78l-33 1386h-8l-723 -1386h-78l-38 1487h69l27 -1385h8l723 1385h78l35 -1385h8l729 1385h67zM1339 1855h93l-250 -227h-66z" />
    <glyph glyph-name="wacute" unicode="&#x1e83;" horiz-adv-x="1484" 
d="M182 1057h62l28 -1000h4l562 1000h69l62 -1000h8l530 1000h62l-570 -1057h-81l-62 969h-8l-545 -969h-82zM1092 1487h94l-271 -250h-65z" />
    <glyph glyph-name="Wdieresis" unicode="&#x1e84;" horiz-adv-x="1824" 
d="M2025 1487l-786 -1487h-78l-33 1386h-8l-723 -1386h-78l-38 1487h69l27 -1385h8l723 1385h78l35 -1385h8l729 1385h67zM1368 1829h78l-37 -148h-78zM1008 1829h77l-36 -148h-78z" />
    <glyph glyph-name="wdieresis" unicode="&#x1e85;" horiz-adv-x="1484" 
d="M182 1057h62l28 -1000h4l562 1000h69l62 -1000h8l530 1000h62l-570 -1057h-81l-62 969h-8l-545 -969h-82zM1112 1475h78l-37 -148h-78zM752 1475h77l-36 -148h-78z" />
    <glyph glyph-name="uni1E8A" unicode="&#x1e8a;" horiz-adv-x="1202" 
d="M625 766l-340 721h67l318 -674l647 674h82l-703 -731l357 -756h-68l-334 709l-680 -709h-82zM881 1829h77l-36 -148h-78z" />
    <glyph glyph-name="uni1E8B" unicode="&#x1e8b;" horiz-adv-x="935" 
d="M782 0h-69l-252 506l-481 -506h-82l536 557l-248 500h70l225 -453l451 453h82l-508 -504zM662 1475h77l-37 -148h-77z" />
    <glyph glyph-name="uni1E92" unicode="&#x1e92;" horiz-adv-x="1085" 
d="M1153 1427h-862l16 60h936l-16 -64l-1204 -1366h919l-14 -57h-1000l15 61zM344 -195h78l-37 -147h-78z" />
    <glyph glyph-name="uni1E93" unicode="&#x1e93;" horiz-adv-x="907" 
d="M193 1004l14 53h754l-15 -58l-923 -946h720l-14 -53h-795l15 57l923 947h-679zM248 -195h78l-37 -147h-78z" />
    <glyph glyph-name="uni1E97" unicode="&#x1e97;" horiz-adv-x="559" 
d="M408 1270h61l-53 -213h248l-15 -53h-248l-184 -738q-18 -74 -18 -112q0 -111 123 -111q38 0 106 14l-12 -51q-56 -12 -109 -12q-94 1 -133 37t-39 106q0 59 21 129l184 738h-203l15 53h202zM614 1620h78l-37 -147h-77zM356 1620h78l-37 -147h-78z" />
    <glyph glyph-name="Germandbls" unicode="&#x1e9e;" horiz-adv-x="1425" 
d="M543 360q-2 -23 -2 -61q0 -132 81 -200t222 -68q188 0 294.5 102.5t106.5 272.5q0 46 -13 85.5t-30.5 66.5t-51 56.5t-58 46t-68.5 44.5q-46 28 -75 48.5t-66 55t-58 70t-36 87.5t-15 113q0 68 27 128t72 102t97 70.5t107 41.5v4h-579l-355 -1425h-65l371 1487h888
l-10 -57q-122 -3 -231.5 -44t-182.5 -122t-73 -185q0 -37 7.5 -70.5t16.5 -57.5t31 -51.5t34.5 -41.5t45.5 -38.5t45.5 -33.5t50.5 -34q58 -36 91 -61t72.5 -67.5t58 -96t18.5 -121.5q0 -203 -124 -316t-345 -113q-167 0 -267 79t-100 227q0 56 4 77h64z" />
    <glyph glyph-name="uni1EA0" unicode="&#x1ea0;" horiz-adv-x="1333" 
d="M283 489l-320 -489h-74l985 1487h64l244 -1487h-72l-76 489h-751zM883 1401l-383 -582l-178 -272h702l-41 272q-9 56 -42.5 264.5t-49.5 317.5h-8zM461 -195h78l-37 -147h-78z" />
    <glyph glyph-name="uni1EA1" unicode="&#x1ea1;" horiz-adv-x="1048" 
d="M870 690q19 74 19 129q0 209 -244 209q-139 0 -246 -78.5t-135 -197.5h-65q38 143 161 236t291 93q299 0 299 -250q0 -59 -18 -135q-99 -394 -127 -518t-33 -178h-67q22 120 40 199q-174 -222 -428 -222q-130 0 -205 61.5t-75 166.5q0 83 29.5 148t87.5 109.5t128.5 75.5
t169.5 50t191.5 29t212.5 16zM104 205q0 -47 20 -82t53.5 -54.5t70.5 -28.5t76 -9q153 0 292.5 107t182.5 270l43 172q-82 -4 -141 -8.5t-141.5 -16.5t-140.5 -28t-121.5 -44.5t-103 -65t-65 -91t-25.5 -121.5zM289 -195h78l-37 -147h-78z" />
    <glyph glyph-name="uni1EB8" unicode="&#x1eb8;" horiz-adv-x="1183" 
d="M1315 1487l-15 -57h-804l-158 -629h766l-17 -58h-763l-170 -686h829l-14 -57h-891l371 1487h866zM446 -195h78l-37 -147h-77z" />
    <glyph glyph-name="uni1EB9" unicode="&#x1eb9;" horiz-adv-x="1064" 
d="M422 -23q-158 0 -248 97t-90 280q0 94 23.5 193.5t73 194.5t117.5 170t165.5 121t208.5 46q87 0 151 -26.5t101 -74.5t54 -108.5t17 -134.5q0 -96 -28 -211h-797q-18 -86 -18 -170q0 -147 74 -235t202 -88q120 0 234 76.5t172 189.5h61q-73 -151 -195.5 -235.5
t-277.5 -84.5zM666 1026q-87 0 -166.5 -37.5t-139 -101.5t-104 -142t-72.5 -167h727q19 97 19 157q0 291 -264 291zM340 -195h78l-37 -147h-78z" />
    <glyph glyph-name="uni1EBC" unicode="&#x1ebc;" horiz-adv-x="1183" 
d="M1315 1487l-15 -57h-804l-158 -629h766l-17 -58h-763l-170 -686h829l-14 -57h-891l371 1487h866zM674 1665q63 168 184 168q37 0 71.5 -17.5t56.5 -38t51 -38t57 -17.5q64 0 118 111h56q-17 -49 -41 -83.5t-49.5 -52t-48.5 -25t-46 -7.5q-37 0 -70.5 17.5t-55 38t-51 38
t-58.5 17.5q-35 0 -62.5 -25.5t-56.5 -85.5h-55z" />
    <glyph glyph-name="uni1EBD" unicode="&#x1ebd;" horiz-adv-x="1064" 
d="M422 -23q-158 0 -248 97t-90 280q0 94 23.5 193.5t73 194.5t117.5 170t165.5 121t208.5 46q87 0 151 -26.5t101 -74.5t54 -108.5t17 -134.5q0 -96 -28 -211h-797q-18 -86 -18 -170q0 -147 74 -235t202 -88q120 0 234 76.5t172 189.5h61q-73 -151 -195.5 -235.5
t-277.5 -84.5zM666 1026q-87 0 -166.5 -37.5t-139 -101.5t-104 -142t-72.5 -167h727q19 97 19 157q0 291 -264 291zM463 1282q67 168 180 168q36 0 69 -17.5t54 -38t49 -38t55 -17.5q61 0 115 111h55q-67 -168 -180 -168q-34 0 -67 17.5t-54.5 38t-50 38t-55.5 17.5
q-32 0 -58 -25.5t-57 -85.5h-55z" />
    <glyph glyph-name="uni1ECA" unicode="&#x1eca;" horiz-adv-x="479" 
d="M510 1487l-371 -1487h-61l371 1487h61zM25 -195h77l-36 -147h-78z" />
    <glyph glyph-name="uni1ECB" unicode="&#x1ecb;" horiz-adv-x="413" 
d="M371 1057l-265 -1057h-61l264 1057h62zM475 1475l-37 -148h-78l37 148h78zM-8 -195h78l-37 -147h-78z" />
    <glyph glyph-name="uni1ECC" unicode="&#x1ecc;" horiz-adv-x="1509" 
d="M641 35q136 0 259 55.5t214 149t158.5 213.5t102 253t34.5 263q0 227 -115 353t-317 126q-136 0 -259 -55.5t-214 -149t-158.5 -213.5t-102 -253t-34.5 -263q0 -227 115 -353t317 -126zM635 -23q-232 0 -363 141t-131 394q0 112 26.5 228.5t75 227t123.5 208t165.5 171
t207.5 116t244 42.5q232 0 363 -140.5t131 -393.5q0 -136 -36.5 -276t-109.5 -268.5t-172.5 -229t-235.5 -160.5t-288 -60zM551 -195h78l-37 -147h-78z" />
    <glyph glyph-name="uni1ECD" unicode="&#x1ecd;" horiz-adv-x="1116" 
d="M444 31q115 0 215.5 62.5t166.5 160.5t103.5 216t37.5 232q0 147 -79 235.5t-214 88.5q-92 0 -176 -41t-146 -109t-108 -155t-69 -181.5t-23 -185.5q0 -147 78.5 -235t213.5 -88zM438 -23q-165 0 -259.5 97t-94.5 280q0 94 24 193.5t74 194.5t119 170t167.5 121t211.5 46
q165 0 259.5 -97t94.5 -280q0 -94 -24 -193.5t-74 -194.5t-119 -170t-167.5 -121t-211.5 -46zM354 -195h78l-37 -147h-78z" />
    <glyph glyph-name="uni1EE4" unicode="&#x1ee4;" horiz-adv-x="1396" 
d="M250 508q-23 -104 -23 -164q0 -303 375 -303q210 0 347.5 126.5t189.5 340.5l243 979h62l-244 -979q-129 -524 -604 -524q-213 0 -321.5 89.5t-108.5 262.5q0 85 22 172l244 979h62zM504 -195h78l-37 -147h-78z" />
    <glyph glyph-name="uni1EE5" unicode="&#x1ee5;" horiz-adv-x="1122" 
d="M754 0l51 203q-160 -226 -408 -226q-146 0 -218.5 62.5t-72.5 181.5q0 74 25 172l166 664h61l-163 -656q-25 -113 -25 -161q0 -107 60.5 -157t179.5 -50q47 0 96.5 12.5t105.5 45t104 81.5t90.5 129.5t67.5 181.5l144 574h61l-264 -1057h-61zM332 -195h78l-37 -147h-78z
" />
    <glyph glyph-name="Ygrave" unicode="&#x1ef2;" horiz-adv-x="1155" 
d="M268 1487h66l291 -764l669 764h72l-723 -817l-166 -670h-61l166 674zM645 1855h84l137 -227h-55z" />
    <glyph glyph-name="ygrave" unicode="&#x1ef3;" horiz-adv-x="950" 
d="M238 1057l143 -959h8l586 959h65l-739 -1207q-48 -76 -78.5 -117t-72 -81.5t-87.5 -57t-104 -16.5q-50 0 -109 12l15 56q50 -13 86 -13q37 0 69.5 9.5t63 32.5t54 46t53 66t49 75t53.5 89l35 57l-156 1049h66zM444 1487h88l152 -250h-59z" />
    <glyph glyph-name="uni1EF8" unicode="&#x1ef8;" horiz-adv-x="1155" 
d="M268 1487h66l291 -764l669 764h72l-723 -817l-166 -670h-61l166 674zM588 1665q63 168 184 168q37 0 71.5 -17.5t56.5 -38t51 -38t57 -17.5q64 0 118 111h56q-17 -49 -41 -83.5t-49.5 -52t-48.5 -25t-46 -7.5q-37 0 -70.5 17.5t-55 38t-51 38t-58.5 17.5
q-35 0 -62.5 -25.5t-56.5 -85.5h-55z" />
    <glyph glyph-name="uni1EF9" unicode="&#x1ef9;" horiz-adv-x="950" 
d="M238 1057l143 -959h8l586 959h65l-739 -1207q-48 -76 -78.5 -117t-72 -81.5t-87.5 -57t-104 -16.5q-50 0 -109 12l15 56q50 -13 86 -13q37 0 69.5 9.5t63 32.5t54 46t53 66t49 75t53.5 89l35 57l-156 1049h66zM416 1282q67 168 180 168q36 0 69 -17.5t54 -38t49 -38
t55 -17.5q61 0 115 111h55q-67 -168 -180 -168q-34 0 -67 17.5t-54.5 38t-50 38t-55.5 17.5q-32 0 -58 -25.5t-57 -85.5h-55z" />
    <glyph glyph-name="uni2000" unicode="&#x2000;" horiz-adv-x="1024" 
 />
    <glyph glyph-name="uni2001" unicode="&#x2001;" horiz-adv-x="2048" 
 />
    <glyph glyph-name="uni2002" unicode="&#x2002;" horiz-adv-x="1024" 
 />
    <glyph glyph-name="uni2003" unicode="&#x2003;" horiz-adv-x="2048" 
 />
    <glyph glyph-name="uni2004" unicode="&#x2004;" horiz-adv-x="681" 
 />
    <glyph glyph-name="uni2005" unicode="&#x2005;" horiz-adv-x="512" 
 />
    <glyph glyph-name="uni2006" unicode="&#x2006;" horiz-adv-x="342" 
 />
    <glyph glyph-name="uni2007" unicode="&#x2007;" 
 />
    <glyph glyph-name="uni2008" unicode="&#x2008;" horiz-adv-x="372" 
 />
    <glyph glyph-name="uni2009" unicode="&#x2009;" horiz-adv-x="256" 
 />
    <glyph glyph-name="uni200A" unicode="&#x200a;" horiz-adv-x="86" 
 />
    <glyph glyph-name="uni200B" unicode="&#x200b;" horiz-adv-x="0" 
 />
    <glyph glyph-name="figuredash" unicode="&#x2012;" 
d="M219 623h899l-14 -54h-899z" />
    <glyph glyph-name="endash" unicode="&#x2013;" horiz-adv-x="1163" 
d="M156 623h899l-15 -54h-899z" />
    <glyph glyph-name="emdash" unicode="&#x2014;" horiz-adv-x="1679" 
d="M156 623h1415l-15 -54h-1415z" />
    <glyph glyph-name="uni2015" unicode="&#x2015;" horiz-adv-x="1679" 
d="M156 623h1415l-15 -54h-1415z" />
    <glyph glyph-name="quoteleft" unicode="&#x2018;" horiz-adv-x="352" 
d="M293 1217l117 270h51l-119 -279h51l-28 -114h-103z" />
    <glyph glyph-name="quoteright" unicode="&#x2019;" horiz-adv-x="342" 
d="M383 1372h-51l28 115h103l-31 -123l-117 -270h-51z" />
    <glyph glyph-name="quotesinglbase" unicode="&#x201a;" horiz-adv-x="331" 
d="M55 8h-51l29 115h102l-31 -123l-116 -270h-51z" />
    <glyph glyph-name="quotereversed" unicode="&#x201b;" horiz-adv-x="335" 
d="M315 1368l29 119h102l-28 -115h-53l-21 -278h-47z" />
    <glyph glyph-name="quotedblleft" unicode="&#x201c;" horiz-adv-x="610" 
d="M551 1217l117 270h51l-119 -279h51l-28 -114h-103zM293 1217l117 270h51l-119 -279h51l-28 -114h-103z" />
    <glyph glyph-name="quotedblright" unicode="&#x201d;" horiz-adv-x="600" 
d="M641 1372h-51l28 115h103l-31 -123l-117 -270h-51zM383 1372h-51l28 115h103l-31 -123l-117 -270h-51z" />
    <glyph glyph-name="quotedblbase" unicode="&#x201e;" horiz-adv-x="589" 
d="M313 8h-51l29 115h102l-31 -123l-116 -270h-51zM55 8h-51l29 115h102l-31 -123l-116 -270h-51z" />
    <glyph glyph-name="uni201F" unicode="&#x201f;" horiz-adv-x="593" 
d="M315 1368l29 119h102l-28 -115h-53l-21 -278h-47zM573 1368l29 119h103l-29 -115h-53l-21 -278h-47z" />
    <glyph glyph-name="dagger" unicode="&#x2020;" horiz-adv-x="915" 
d="M174 1001l14 50h375l109 436h55l-109 -436h371l-14 -50h-371l-248 -1003h-55l248 1003h-375z" />
    <glyph glyph-name="daggerdbl" unicode="&#x2021;" horiz-adv-x="964" 
d="M6 227l14 49h373l180 725h-374l14 50h375l108 436h56l-109 -436h371l-15 -50h-370l-180 -725h372l-14 -49h-371l-114 -463h-56l115 463h-375z" />
    <glyph glyph-name="bullet" unicode="&#x2022;" horiz-adv-x="673" 
d="M381 565q-69 0 -114.5 45.5t-45.5 114.5q0 68 45.5 113t114.5 45q67 0 111.5 -45t44.5 -113q0 -69 -44.5 -114.5t-111.5 -45.5z" />
    <glyph glyph-name="ellipsis" unicode="&#x2026;" horiz-adv-x="1028" 
d="M711 123h102l-31 -123h-102zM55 123h103l-31 -123h-102zM383 123h102l-30 -123h-103z" />
    <glyph glyph-name="perthousand" unicode="&#x2030;" horiz-adv-x="2512" 
d="M406 621q65 0 122.5 38t97.5 98.5t69 135t43 147.5t14 136q0 96 -46.5 147t-121.5 51q-65 0 -122.5 -38t-97.5 -98.5t-69 -135t-43 -147.5t-14 -136q0 -96 46.5 -147t121.5 -51zM399 573q-105 0 -164 65t-59 183q0 72 15.5 151t49 159.5t80.5 144.5t117 104.5t152 40.5
q105 0 164 -64.5t59 -182.5q0 -72 -15.5 -151.5t-49 -160t-80.5 -144.5t-117 -104.5t-152 -40.5zM1503 1425l-1118 -1458h-57l1118 1458h57zM1260 25q65 0 122.5 38t97.5 98.5t69 135t43 147.5t14 136q0 96 -46.5 147t-121.5 51q-65 0 -122.5 -38t-97.5 -98.5t-69 -135
t-43 -147.5t-14 -136q0 -96 46.5 -147t121.5 -51zM1253 -23q-105 0 -164 65t-59 183q0 72 15.5 151t49 159.5t80.5 144.5t117 104.5t152 40.5q105 0 164 -64.5t59 -182.5q0 -72 -15.5 -151.5t-49 -160t-80.5 -144.5t-117 -104.5t-152 -40.5zM2015 25q65 0 122.5 38
t97.5 98.5t69 135t43 147.5t14 136q0 96 -46.5 147t-121.5 51q-65 0 -122.5 -38t-97.5 -98.5t-69 -135t-43 -147.5t-14 -136q0 -96 46.5 -147t121.5 -51zM2009 -23q-105 0 -164 65t-59 183q0 72 15.5 151t49 159.5t80.5 144.5t117 104.5t152 40.5q105 0 164 -64.5t59 -182.5
q0 -72 -15.5 -151.5t-49 -160t-80.5 -144.5t-117 -104.5t-152 -40.5z" />
    <glyph glyph-name="minute" unicode="&#x2032;" horiz-adv-x="333" 
d="M342 1399h70l-127 -451h-33z" />
    <glyph glyph-name="second" unicode="&#x2033;" horiz-adv-x="555" 
d="M563 1399h70l-127 -451h-33zM342 1399h70l-127 -451h-33z" />
    <glyph glyph-name="guilsinglleft" unicode="&#x2039;" horiz-adv-x="489" 
d="M109 561l315 408h57l-305 -408l98 -418h-57z" />
    <glyph glyph-name="guilsinglright" unicode="&#x203a;" horiz-adv-x="487" 
d="M330 559l-101 410h58l110 -410l-317 -416h-57z" />
    <glyph glyph-name="fraction" unicode="&#x2044;" horiz-adv-x="245" 
d="M748 1425l-1119 -1458h-57l1118 1458h58z" />
    <glyph glyph-name="uni2070" unicode="&#x2070;" horiz-adv-x="755" 
d="M502 1004q65 0 122.5 38t97.5 98.5t69 135t43 147.5t14 136q0 96 -46.5 147t-121.5 51q-65 0 -122.5 -38t-97.5 -98.5t-69 -135t-43 -147.5t-14 -136q0 -96 46.5 -147t121.5 -51zM496 956q-105 0 -164.5 65t-59.5 183q0 72 15.5 151t49 159.5t80.5 144.5t117 104.5
t152 40.5q105 0 164 -65t59 -183q0 -72 -15 -151t-48.5 -159.5t-80.5 -144.5t-117 -104.5t-152 -40.5z" />
    <glyph glyph-name="uni2074" unicode="&#x2074;" horiz-adv-x="684" 
d="M813 1782l-131 -525h139l-12 -45h-139l-58 -233h-53l57 233h-401l10 37l527 533h61zM629 1257l112 451l-448 -451h336z" />
    <glyph glyph-name="uni2075" unicode="&#x2075;" horiz-adv-x="675" 
d="M289 1157q0 -72 43 -112.5t112 -40.5q117 0 201 87.5t84 206.5q0 68 -38.5 109t-110.5 41q-149 0 -256 -141h-41l168 475h434l-15 -49h-383l-116 -316q96 82 221 82q92 0 142 -53.5t50 -147.5q0 -141 -98.5 -241.5t-249.5 -100.5q-95 0 -149 50t-54 141q0 5 5 45h53
q-2 -14 -2 -35z" />
    <glyph glyph-name="uni2076" unicode="&#x2076;" horiz-adv-x="702" 
d="M819 1591q2 14 2 27q0 63 -35 101t-104 38q-102 0 -191.5 -101.5t-144.5 -297.5q99 131 246 131q97 0 157 -61.5t60 -149.5q0 -134 -91 -228t-235 -94q-103 0 -161 60t-58 160q0 67 17.5 149t54 166.5t85 154.5t118.5 114t147 44q90 0 139 -48t49 -134q0 -21 -2 -31h-53z
M752 1272q0 74 -46 122t-126 48q-98 0 -179.5 -81t-81.5 -185q0 -72 49.5 -122t118.5 -50q112 0 188.5 78.5t76.5 189.5z" />
    <glyph glyph-name="uni2077" unicode="&#x2077;" horiz-adv-x="587" 
d="M295 979q171 412 489 754h-454l14 49h516l-12 -49q-323 -341 -500 -754h-53z" />
    <glyph glyph-name="uni2078" unicode="&#x2078;" horiz-adv-x="700" 
d="M299 1151q0 -66 50 -108t128 -42q100 0 178 61.5t78 158.5q0 68 -48 110.5t-124 42.5q-101 0 -181.5 -62t-80.5 -161zM414 1542q0 -58 45 -90.5t114 -32.5q57 0 111 23.5t91.5 72.5t37.5 111q0 63 -46 98t-116 35q-91 0 -164 -58.5t-73 -158.5zM788 1227q0 -125 -91 -198
t-224 -73q-101 0 -165 50.5t-64 138.5q0 91 55.5 159t149.5 93q-93 46 -93 135q0 121 88 196.5t211 75.5q89 0 151 -44t62 -126q0 -85 -47.5 -146t-138.5 -93q106 -50 106 -168z" />
    <glyph glyph-name="uni2079" unicode="&#x2079;" horiz-adv-x="710" 
d="M309 1169q-2 -14 -2 -26q0 -63 35 -101t104 -38q116 0 207.5 108.5t132.5 294.5q-102 -135 -249 -135q-97 0 -157.5 61.5t-60.5 149.5q0 134 91 227.5t235 93.5q103 0 161 -59.5t58 -159.5q0 -83 -16 -169t-50.5 -169t-82.5 -147.5t-119 -104t-154 -39.5q-90 0 -139 48.5
t-49 134.5q0 20 2 30h53zM377 1489q0 -74 46 -122t126 -48q98 0 179 81t81 185q0 72 -49.5 122t-118.5 50q-112 0 -188 -78.5t-76 -189.5z" />
    <glyph glyph-name="uni2080" unicode="&#x2080;" horiz-adv-x="755" 
d="M184 -276q65 0 122.5 38t97.5 98.5t69 135t43 147.5t14 136q0 96 -46.5 147t-121.5 51q-65 0 -122.5 -38t-97.5 -98.5t-69 -135t-43 -147.5t-14 -136q0 -96 46.5 -147t121.5 -51zM178 -324q-105 0 -164 65t-59 183q0 72 15.5 151t49 159.5t80.5 144.5t117 104.5t152 40.5
q105 0 164 -65t59 -183q0 -72 -15.5 -151t-49 -159.5t-80.5 -144.5t-117 -104.5t-152 -40.5z" />
    <glyph glyph-name="uni2081" unicode="&#x2081;" horiz-adv-x="411" 
d="M184 338q-62 -37 -174 -37h-24l12 45q88 3 133 19t64.5 45t37.5 92h46l-201 -803h-53z" />
    <glyph glyph-name="uni2082" unicode="&#x2082;" horiz-adv-x="675" 
d="M201 14q-91 -39 -160.5 -107t-97.5 -157h483l-12 -51h-541l6 25q27 108 95 189.5t200 139.5q44 20 68.5 31.5t62.5 31t59.5 34.5t47.5 37t40 43t23.5 48t9.5 56q0 60 -41 100.5t-116 40.5q-86 0 -154.5 -55.5t-95.5 -143.5h-53q30 106 114 176t193 70q97 0 153 -51
t56 -131q0 -58 -25 -106.5t-76.5 -88t-104 -67.5t-134.5 -64z" />
    <glyph glyph-name="uni2083" unicode="&#x2083;" horiz-adv-x="700" 
d="M-27 -78q-2 -14 -2 -33q0 -80 57.5 -122.5t141.5 -42.5q95 0 169.5 55.5t74.5 154.5q0 72 -54.5 112t-152.5 40q-50 0 -68 -4l15 53q12 -4 57 -4q102 0 181 55.5t79 157.5q0 61 -40.5 96t-117.5 35q-79 0 -143.5 -46.5t-93.5 -127.5h-53q40 106 121 163.5t180 57.5
q89 0 145.5 -46t56.5 -130q0 -97 -50.5 -150t-149.5 -85q69 -11 108 -62t39 -110q0 -120 -91 -191.5t-220 -71.5q-110 0 -177 53t-67 144q0 17 4 49h51z" />
    <glyph glyph-name="uni2084" unicode="&#x2084;" horiz-adv-x="684" 
d="M496 502l-131 -525h139l-12 -45h-140l-57 -233h-53l57 233h-401l10 37l526 533h62zM311 -23l113 451l-449 -451h336z" />
    <glyph glyph-name="uni2085" unicode="&#x2085;" horiz-adv-x="675" 
d="M-29 -123q0 -72 43.5 -112.5t112.5 -40.5q117 0 201 87.5t84 206.5q0 68 -39 109t-111 41q-149 0 -256 -141h-41l168 475h434l-14 -49h-383l-117 -316q96 82 221 82q92 0 142.5 -53.5t50.5 -147.5q0 -141 -98.5 -241.5t-249.5 -100.5q-95 0 -149 50t-54 141q0 13 4 45h53
q-2 -14 -2 -35z" />
    <glyph glyph-name="uni2086" unicode="&#x2086;" horiz-adv-x="702" 
d="M502 311q2 14 2 27q0 63 -35 101t-104 38q-102 0 -191.5 -101.5t-144.5 -297.5q99 131 245 131q97 0 157.5 -61.5t60.5 -149.5q0 -134 -91 -228t-235 -94q-103 0 -161 60t-58 160q0 67 17.5 149t54 166.5t85 154.5t118.5 114t147 44q90 0 139 -48t49 -134q0 -21 -2 -31
h-53zM434 -8q0 74 -46 122t-126 48q-98 0 -179 -81t-81 -185q0 -72 49.5 -122t118.5 -50q112 0 188 78.5t76 189.5z" />
    <glyph glyph-name="uni2087" unicode="&#x2087;" horiz-adv-x="587" 
d="M-25 -301q171 410 490 754h-455l15 49h516l-13 -49q-321 -339 -499 -754h-54z" />
    <glyph glyph-name="uni2088" unicode="&#x2088;" horiz-adv-x="700" 
d="M-18 -129q0 -66 50 -108t128 -42q100 0 178 61.5t78 158.5q0 68 -48 110.5t-124 42.5q-101 0 -181.5 -62t-80.5 -161zM96 262q0 -58 45.5 -90.5t114.5 -32.5q57 0 111 23.5t91.5 72.5t37.5 111q0 63 -46 98t-116 35q-91 0 -164.5 -58.5t-73.5 -158.5zM471 -53
q0 -125 -91 -198t-224 -73q-101 0 -165.5 50.5t-64.5 138.5q0 91 55.5 159t149.5 93q-92 45 -92 135q0 121 88 196.5t211 75.5q90 0 151.5 -44t61.5 -126q0 -85 -47.5 -146t-138.5 -93q106 -50 106 -168z" />
    <glyph glyph-name="uni2089" unicode="&#x2089;" horiz-adv-x="710" 
d="M-8 -111q-2 -14 -2 -26q0 -63 35 -101t104 -38q116 0 207.5 108.5t132.5 294.5q-102 -135 -250 -135q-97 0 -157 61.5t-60 149.5q0 134 91 227.5t235 93.5q103 0 161 -59.5t58 -159.5q0 -83 -16 -169t-50.5 -169t-82.5 -147.5t-119 -104t-154 -39.5q-90 0 -139 48.5
t-49 134.5q0 20 2 30h53zM59 209q0 -74 46 -122t126 -48q98 0 179.5 81t81.5 185q0 72 -49.5 122t-118.5 50q-112 0 -188.5 -78.5t-76.5 -189.5z" />
    <glyph glyph-name="colonmonetary" unicode="&#x20a1;" horiz-adv-x="1214" 
d="M1159 1579l-78 -211q152 -91 152 -287q0 -55 -16 -137h-66q14 75 14 121q0 161 -106 242l-461 -1266q147 25 265.5 139.5t180.5 288.5h66q-36 -113 -95 -204t-130.5 -149t-149 -91.5t-157.5 -42.5l-68 -187h-53l65 182q-112 0 -205 54l-86 -236h-53l96 266
q-151 126 -151 390q0 161 47 324t129.5 298.5t205.5 230t263 115.5l59 160h54l-58 -156q4 0 13.5 1t13.5 1q107 0 188 -34l68 188h53zM844 1368q-7 0 -20.5 -1t-20.5 -1l-465 -1276q76 -55 190 -55h15l473 1298q-75 35 -172 35zM190 451q0 -216 107 -326l448 1233
q-99 -23 -188 -88t-155 -156.5t-114.5 -202.5t-73 -229t-24.5 -231z" />
    <glyph glyph-name="uni20A6" unicode="&#x20a6;" horiz-adv-x="1363" 
d="M1260 512h-144l-129 -512h-78l-153 512h-443l-129 -512h-61l129 512h-156l15 53h153l66 258h-158l16 54h154l133 522h78l156 -522h436l133 522h61l-131 -522h144l-17 -54h-141l-66 -258h146zM326 565h413l-75 258h-273zM801 565h266l66 258h-408zM512 1305l-109 -428h244
l-127 428h-8zM950 94l105 418h-238l125 -418h8z" />
    <glyph glyph-name="Euro" unicode="&#x20ac;" horiz-adv-x="1325" 
d="M233 582q15 121 52 233h-146l21 53h145q44 117 108.5 216.5t145.5 176t182.5 120.5t210.5 44q80 0 148.5 -21t122 -62t84 -108.5t30.5 -154.5q0 -50 -8 -102h-65q6 46 6 86q0 142 -85 223.5t-239 81.5q-124 0 -238 -69t-195.5 -179.5t-135.5 -251.5h631l-21 -53h-631
q-40 -127 -53 -233h598l-22 -54h-582q-2 -27 -2 -77q0 -196 90 -306t250 -110q151 0 284.5 102t206.5 269h68q-82 -206 -241 -317.5t-324 -111.5q-187 0 -294.5 129t-107.5 345q0 50 2 77h-161l22 54h143z" />
    <glyph glyph-name="uni20B2" unicode="&#x20b2;" horiz-adv-x="1232" 
d="M514 -23l-45 -180h-57l47 189q-156 29 -241 163.5t-85 344.5q0 100 20.5 206.5t59 210t98.5 195t133 161.5t169 111t202 41h2l41 160h57l-41 -164q160 -14 249 -105t89 -245q0 -13 -4 -59h-59q2 16 2 47q0 130 -78 212.5t-213 96.5l-158 -633h455l-184 -729h-51
q33 177 61 274h-8q-96 -156 -195.5 -226.5t-236.5 -70.5h-29zM197 494q0 -192 70.5 -309t203.5 -146l334 1327q-94 0 -179.5 -38.5t-150.5 -104.5t-118.5 -152.5t-88 -184t-53 -198t-18.5 -194.5zM690 680l-164 -649h25q89 0 175.5 53t152.5 139t115.5 186.5t74.5 202.5
l16 68h-395z" />
    <glyph glyph-name="uni20B4" unicode="&#x20b4;" horiz-adv-x="1253" 
d="M606 664q-114 -50 -162 -76h738l-13 -49h-796q-88 -59 -131 -127t-43 -158q0 -111 83 -168t210 -57q161 0 291.5 84t197.5 245h63q-70 -179 -215.5 -281t-341.5 -102q-94 0 -171.5 28t-129 91t-51.5 152q0 166 154 293h-199l12 49h254q110 70 250 127l115 47
q20 10 66.5 29.5t72.5 33.5h-698l12 49h764q186 123 186 283q0 90 -79 148.5t-211 58.5q-144 0 -267 -77t-186 -230h-62q37 97 96.5 169.5t130.5 112.5t144.5 59t151.5 19q159 0 252.5 -76.5t93.5 -181.5q0 -154 -170 -285h235l-12 -49h-295q-95 -57 -229 -114z" />
    <glyph glyph-name="uni20B5" unicode="&#x20b5;" horiz-adv-x="1210" 
d="M475 -18q-165 17 -258.5 143.5t-93.5 325.5q0 112 24 228t67.5 223t108 202t141.5 165.5t173.5 112t198.5 43.5l38 154h58l-39 -156q73 -6 133 -29t107 -64t73.5 -104.5t26.5 -144.5q0 -55 -16 -137h-66q14 75 14 121q0 134 -73.5 212.5t-212.5 88.5l-332 -1331
q160 4 296 124.5t201 309.5h66q-30 -98 -79 -179.5t-107 -137.5t-125 -95.5t-133.5 -58.5t-133.5 -21l-45 -180h-57zM190 451q0 -184 78 -292t221 -122l332 1329q-111 -5 -212 -63t-176 -151.5t-130.5 -210.5t-84 -243.5t-28.5 -246.5z" />
    <glyph glyph-name="uni20B8" unicode="&#x20b8;" horiz-adv-x="1228" 
d="M215 1051l14 61h1061l-14 -61h-500l-262 -1051h-61l262 1051h-500zM1362 1399l-14 -62h-1061l14 62h1061z" />
    <glyph glyph-name="uni20B9" unicode="&#x20b9;" horiz-adv-x="1148" 
d="M954 1042q4 36 4 60q0 235 -319 235h-363l17 62h977l-15 -62h-356q127 -71 127 -227q0 -22 -4 -68h158l-15 -61h-153q-67 -257 -381 -332v-8q133 -47 153 -244l45 -397h-65l-45 397q-13 118 -76.5 173t-185.5 55h-244l14 61h254q163 0 289.5 76.5t169.5 218.5h-743l14 61
h743z" />
    <glyph glyph-name="uni20BA" unicode="&#x20ba;" horiz-adv-x="1185" 
d="M174 840l234 118l110 441h55l-102 -408l463 238l-16 -64l-461 -235l-58 -232l461 236l-16 -64l-461 -235l-143 -582h137q80 0 163 22t167 71t156.5 118.5t131 173t90.5 226.5h62q-74 -295 -292 -479.5t-493 -184.5h-192l149 602l-233 -119l14 62l236 121l57 231
l-233 -119z" />
    <glyph glyph-name="uni20BD" unicode="&#x20bd;" horiz-adv-x="1220" 
d="M291 662l184 737h391q207 0 307.5 -80t100.5 -225q0 -221 -161 -357.5t-421 -136.5h-356l-51 -209h563l-17 -61h-563l-82 -330h-61l82 330h-154l17 61h153l51 209h-155l16 62h156zM352 662h357q137 0 248.5 49.5t180 148t68.5 230.5q0 126 -94.5 186.5t-261.5 60.5h-330z
" />
    <glyph glyph-name="uni20BF" unicode="&#x20bf;" horiz-adv-x="1155" 
d="M584 1399l47 182h57l-47 -182h141q76 0 144 -19l49 201h57l-55 -219q83 -34 126.5 -97.5t43.5 -140.5q0 -152 -92.5 -254.5t-257.5 -144.5v-4q87 -13 154 -85.5t67 -172.5q0 -176 -102 -286t-273 -154l-55 -230h-58l54 217q-78 -10 -142 -10h-147l-51 -207h-58l52 207
h-168l348 1399h166zM141 53h316q97 0 185.5 25.5t159 74t112.5 128t42 178.5q0 105 -84 170t-223 65h-348zM315 752h351q171 0 295 102t124 266q0 97 -86.5 161.5t-230.5 64.5h-307z" />
    <glyph glyph-name="uni2113" unicode="&#x2113;" horiz-adv-x="845" 
d="M692 109q-162 -127 -317 -127q-104 0 -151.5 61.5t-47.5 167.5q0 126 47 303l-164 -92l-18 47l203 113l108 440q97 395 348 395q88 0 134.5 -44t46.5 -118q0 -64 -18.5 -126t-46.5 -113.5t-76.5 -106.5t-92.5 -96t-111 -91t-115.5 -83t-121.5 -80l-12 -49
q-43 -165 -43 -285q0 -190 147 -190q133 0 283 119zM317 631q50 32 91 60t95 69.5t95.5 79.5t85 88t71.5 98t46 105t18 114q0 59 -35 89t-92 30q-34 0 -71 -18t-75.5 -54.5t-72.5 -102t-55 -151.5z" />
    <glyph glyph-name="uni2116" unicode="&#x2116;" horiz-adv-x="2336" 
d="M2216 524l-10 -43h-639l10 43h639zM1913 664q-132 0 -204.5 75t-72.5 207q0 80 20 160.5t61.5 153.5t97.5 129t134 89t167 33q132 0 204 -75t72 -207q0 -80 -20 -160.5t-61 -153.5t-97 -129t-134 -89t-167 -33zM1921 711q88 0 166.5 48.5t130.5 123.5t82.5 165.5
t30.5 176.5q0 119 -63 179t-161 60q-71 0 -136 -31.5t-113.5 -84t-85 -119t-55.5 -139t-19 -140.5q0 -119 62.5 -179t160.5 -60zM489 1384l-346 -1384h-61l371 1487h73l539 -1385h8l346 1385h62l-371 -1487h-74l-538 1384h-9z" />
    <glyph glyph-name="uni2117" unicode="&#x2117;" horiz-adv-x="1794" 
d="M987 1174q139 0 214 -68.5t75 -187.5q0 -125 -80.5 -192t-208.5 -67h-235v-362h-62v877h297zM987 711q108 0 169 56.5t61 150.5q0 102 -61 155t-177 53h-227v-415h235zM1665 748q0 158 -57.5 294.5t-154.5 229.5t-227 145.5t-274 52.5t-273.5 -52.5t-227 -145.5
t-154.5 -229.5t-57 -294.5q0 -210 98 -377t259.5 -256.5t354.5 -89.5q144 0 274 53t227 146t154.5 229.5t57.5 294.5zM1718 748q0 -216 -100.5 -392t-276 -276t-389.5 -100t-389.5 100t-276 276t-100.5 392q0 215 100.5 391t276 276.5t389.5 100.5t389.5 -100.5t276 -276.5
t100.5 -391z" />
    <glyph glyph-name="trademark" unicode="&#x2122;" horiz-adv-x="1773" 
d="M283 1442l12 45h629l-13 -45h-286l-189 -758h-53l188 758h-288zM1120 1427h-10l-184 -743h-45l200 803h80l101 -735l473 735h92l-201 -803h-53l184 743h-10l-477 -743h-45z" />
    <glyph glyph-name="estimated" unicode="&#x212e;" horiz-adv-x="1263" 
d="M332 186q141 -153 338 -153q223 0 352 166l49 -45q-73 -96 -170.5 -137.5t-232.5 -41.5q-155 0 -280 74t-194 200t-69 277q0 152 69 278.5t194 200.5t280 74q148 0 266 -74.5t183 -204t65 -290.5h-850v-324zM979 870q-126 150 -324 150q-185 0 -323 -150v-301h647v301z
" />
    <glyph glyph-name="uni2150" unicode="&#x2150;" horiz-adv-x="1245" 
d="M408 1235q-62 -37 -175 -37h-24l12 45q88 3 133 19t65 45t38 92h45l-201 -803h-53zM1159 1425l-1118 -1458h-57l1118 1458h57zM709 0q171 412 489 754h-455l15 49h516l-12 -49q-323 -341 -500 -754h-53z" />
    <glyph glyph-name="uni2151" unicode="&#x2151;" horiz-adv-x="1368" 
d="M408 1235q-62 -37 -175 -37h-24l12 45q88 3 133 19t65 45t38 92h45l-201 -803h-53zM1159 1425l-1118 -1458h-57l1118 1458h57zM723 190q-2 -14 -2 -26q0 -63 35 -101t104 -38q116 0 207.5 108.5t132.5 294.5q-102 -135 -250 -135q-97 0 -157 61.5t-60 149.5
q0 134 91 227.5t235 93.5q103 0 161 -59.5t58 -159.5q0 -83 -16 -169t-50.5 -169t-82.5 -147.5t-119 -104t-154 -39.5q-90 0 -139 48.5t-49 134.5q0 20 2 30h53zM791 510q0 -74 46 -122t126 -48q98 0 179 81t81 185q0 72 -49.5 122t-118.5 50q-112 0 -188 -78.5t-76 -189.5z
" />
    <glyph glyph-name="uni2152" unicode="&#x2152;" horiz-adv-x="1824" 
d="M408 1235q-62 -37 -175 -37h-24l12 45q88 3 133 19t65 45t38 92h45l-201 -803h-53zM1159 1425l-1118 -1458h-57l1118 1458h57zM918 639q-62 -37 -175 -37h-24l12 45q88 3 133 19t65 45t38 92h45l-201 -803h-53zM1327 25q65 0 122.5 38t97.5 98.5t69 135t43 147.5t14 136
q0 96 -46.5 147t-121.5 51q-65 0 -122.5 -38t-97.5 -98.5t-69 -135t-43 -147.5t-14 -136q0 -96 46.5 -147t121.5 -51zM1321 -23q-105 0 -164 65t-59 183q0 72 15 151t48.5 159.5t80.5 144.5t117 104.5t152 40.5q105 0 164.5 -64.5t59.5 -182.5q0 -72 -15.5 -151.5t-49 -160
t-80.5 -144.5t-117 -104.5t-152 -40.5z" />
    <glyph glyph-name="onethird" unicode="&#x2153;" horiz-adv-x="1357" 
d="M408 1235q-62 -37 -175 -37h-24l12 45q88 3 133 19t65 45t38 92h45l-201 -803h-53zM1159 1425l-1118 -1458h-57l1118 1458h57zM705 223q-3 -21 -3 -33q0 -80 57.5 -122.5t141.5 -42.5q95 0 169.5 56t74.5 155q0 72 -54.5 111.5t-152.5 39.5q-50 0 -68 -4l15 53
q12 -4 57 -4q102 0 181 55.5t79 157.5q0 61 -40.5 96t-117.5 35q-79 0 -143.5 -46.5t-93.5 -127.5h-53q40 106 121 163.5t180 57.5q89 0 145.5 -46t56.5 -130q0 -97 -50.5 -150t-149.5 -85q69 -11 108 -62t39 -110q0 -120 -91 -191.5t-220 -71.5q-110 0 -177 53t-67 144
q0 17 4 49h52z" />
    <glyph glyph-name="twothirds" unicode="&#x2154;" horiz-adv-x="1622" 
d="M422 911q-91 -39 -160.5 -107t-97.5 -157h483l-12 -51h-541l6 25q27 108 95 189.5t200 139.5q44 20 68.5 31.5t62.5 31t59.5 34.5t48 37t40.5 43t23.5 48t9.5 56q0 60 -41.5 100.5t-116.5 40.5q-87 0 -155 -55t-95 -143h-53q30 106 114 175.5t193 69.5q97 0 153 -51
t56 -131q0 -58 -25 -106.5t-76.5 -88t-104 -67.5t-134.5 -64zM1423 1425l-1118 -1458h-57l1118 1458h57zM969 223q-2 -14 -2 -33q0 -80 57 -122.5t141 -42.5q95 0 169.5 56t74.5 155q0 72 -54.5 111.5t-152.5 39.5q-49 0 -67 -4l14 53q12 -4 57 -4q102 0 181 55.5t79 157.5
q0 61 -40 96t-117 35q-79 0 -144 -46.5t-94 -127.5h-53q40 106 121 163.5t180 57.5q90 0 146.5 -46t56.5 -130q0 -97 -51 -150t-150 -85q69 -11 108 -62t39 -110q0 -120 -91 -191.5t-220 -71.5q-110 0 -177 53t-67 144q0 9 5 49h51z" />
    <glyph glyph-name="uni2155" unicode="&#x2155;" horiz-adv-x="1333" 
d="M408 1235q-62 -37 -175 -37h-24l12 45q88 3 133 19t65 45t38 92h45l-201 -803h-53zM1159 1425l-1118 -1458h-57l1118 1458h57zM702 178q0 -72 43.5 -112.5t112.5 -40.5q117 0 201 87.5t84 206.5q0 68 -39 109t-111 41q-149 0 -256 -141h-41l168 475h434l-14 -49h-383
l-117 -316q96 82 222 82q92 0 142 -53.5t50 -147.5q0 -141 -98.5 -241.5t-249.5 -100.5q-95 0 -149 50t-54 141q0 13 4 45h54q-3 -21 -3 -35z" />
    <glyph glyph-name="uni2156" unicode="&#x2156;" horiz-adv-x="1597" 
d="M422 911q-91 -39 -160.5 -107t-97.5 -157h483l-12 -51h-541l6 25q27 108 95 189.5t200 139.5q44 20 68.5 31.5t62.5 31t59.5 34.5t48 37t40.5 43t23.5 48t9.5 56q0 60 -41.5 100.5t-116.5 40.5q-87 0 -155 -55t-95 -143h-53q30 106 114 175.5t193 69.5q97 0 153 -51
t56 -131q0 -58 -25 -106.5t-76.5 -88t-104 -67.5t-134.5 -64zM1423 1425l-1118 -1458h-57l1118 1458h57zM967 178q0 -72 43 -112.5t112 -40.5q117 0 201 87.5t84 206.5q0 68 -39 109t-111 41q-149 0 -256 -141h-40l167 475h435l-15 -49h-383l-116 -316q96 82 221 82
q92 0 142 -53.5t50 -147.5q0 -141 -98.5 -241.5t-249.5 -100.5q-95 0 -149 50t-54 141q0 13 4 45h54q-2 -14 -2 -35z" />
    <glyph glyph-name="uni2157" unicode="&#x2157;" horiz-adv-x="1622" 
d="M197 819q-2 -14 -2 -33q0 -80 57 -122.5t141 -42.5q95 0 169.5 55.5t74.5 154.5q0 72 -54.5 112t-152.5 40q-50 0 -68 -4l15 53q12 -4 57 -4q102 0 181 55.5t79 157.5q0 61 -40 96t-117 35q-79 0 -144 -46.5t-94 -127.5h-53q40 106 121 163.5t180 57.5q90 0 146.5 -46
t56.5 -130q0 -97 -51 -150t-150 -85q69 -11 108 -62t39 -110q0 -120 -91 -191.5t-220 -71.5q-110 0 -177 53t-67 144q0 17 4 49h52zM1448 1425l-1118 -1458h-58l1119 1458h57zM991 178q0 -72 43.5 -112.5t112.5 -40.5q117 0 201 87.5t84 206.5q0 68 -39 109t-111 41
q-149 0 -256 -141h-41l168 475h434l-14 -49h-383l-117 -316q96 82 221 82q92 0 142.5 -53.5t50.5 -147.5q0 -141 -98.5 -241.5t-249.5 -100.5q-95 0 -149 50t-54 141q0 13 4 45h53q-2 -14 -2 -35z" />
    <glyph glyph-name="uni2158" unicode="&#x2158;" horiz-adv-x="1605" 
d="M717 1399l-131 -525h139l-12 -45h-140l-57 -233h-53l57 233h-401l10 37l526 533h62zM532 874l113 451l-448 -451h335zM1432 1425l-1119 -1458h-57l1118 1458h58zM975 178q0 -72 43 -112.5t112 -40.5q117 0 201 87.5t84 206.5q0 68 -38.5 109t-110.5 41q-149 0 -256 -141
h-41l168 475h434l-15 -49h-382l-117 -316q96 82 221 82q92 0 142 -53.5t50 -147.5q0 -141 -98.5 -241.5t-249.5 -100.5q-95 0 -148.5 50t-53.5 141q0 13 4 45h53q-2 -14 -2 -35z" />
    <glyph glyph-name="uni2159" unicode="&#x2159;" horiz-adv-x="1359" 
d="M408 1235q-62 -37 -175 -37h-24l12 45q88 3 133 19t65 45t38 92h45l-201 -803h-53zM1159 1425l-1118 -1458h-57l1118 1458h57zM1233 612q2 14 2 27q0 63 -35 101t-104 38q-102 0 -191.5 -101.5t-144.5 -297.5q99 131 246 131q97 0 157 -61.5t60 -149.5q0 -134 -91 -228
t-235 -94q-103 0 -161 60t-58 160q0 67 17.5 149t54 166.5t85 154.5t118.5 114t147 44q90 0 139 -48t49 -134q0 -21 -2 -31h-53zM1165 293q0 74 -46 122t-126 48q-98 0 -179 -81t-81 -185q0 -72 49.5 -122t118.5 -50q112 0 188 78.5t76 189.5z" />
    <glyph glyph-name="uni215A" unicode="&#x215a;" horiz-adv-x="1624" 
d="M195 774q0 -72 43 -112.5t112 -40.5q117 0 201 87.5t84 206.5q0 68 -39 109t-111 41q-149 0 -256 -141h-41l168 475h435l-15 -49h-383l-117 -316q96 82 222 82q92 0 142 -53.5t50 -147.5q0 -141 -98.5 -241.5t-249.5 -100.5q-95 0 -149 50t-54 141q0 13 4 45h54
q-2 -14 -2 -35zM1423 1425l-1118 -1458h-57l1118 1458h57zM1497 612q2 14 2 27q0 63 -35 101t-104 38q-102 0 -191.5 -101.5t-144.5 -297.5q99 131 246 131q97 0 157 -61.5t60 -149.5q0 -134 -91 -228t-235 -94q-103 0 -161 60t-58 160q0 67 17.5 149t54 166.5t85 154.5
t118.5 114t147 44q90 0 139 -48t49 -134q0 -21 -2 -31h-53zM1430 293q0 74 -46.5 122t-126.5 48q-98 0 -179 -81t-81 -185q0 -72 49.5 -122t118.5 -50q112 0 188.5 78.5t76.5 189.5z" />
    <glyph glyph-name="oneeighth" unicode="&#x215b;" horiz-adv-x="1357" 
d="M408 1235q-62 -37 -175 -37h-24l12 45q88 3 133 19t65 45t38 92h45l-201 -803h-53zM1159 1425l-1118 -1458h-57l1118 1458h57zM711 172q0 -66 50 -107.5t128 -41.5q100 0 178 61t78 158q0 68 -48 110.5t-124 42.5q-101 0 -181.5 -62t-80.5 -161zM825 563
q0 -58 45.5 -90.5t114.5 -32.5q57 0 111 23.5t91.5 72.5t37.5 111q0 63 -46 98t-116 35q-91 0 -164.5 -58.5t-73.5 -158.5zM1200 248q0 -125 -91 -198t-224 -73q-101 0 -165.5 50.5t-64.5 138.5q0 91 55.5 159t149.5 93q-92 45 -92 135q0 121 88 196.5t211 75.5
q89 0 151 -44t62 -126q0 -85 -47.5 -146t-138.5 -93q106 -50 106 -168z" />
    <glyph glyph-name="threeeighths" unicode="&#x215c;" horiz-adv-x="1646" 
d="M197 819q-2 -14 -2 -33q0 -80 57 -122.5t141 -42.5q95 0 169.5 55.5t74.5 154.5q0 72 -54.5 112t-152.5 40q-50 0 -68 -4l15 53q12 -4 57 -4q102 0 181 55.5t79 157.5q0 61 -40 96t-117 35q-79 0 -144 -46.5t-94 -127.5h-53q40 106 121 163.5t180 57.5q90 0 146.5 -46
t56.5 -130q0 -97 -51 -150t-150 -85q69 -11 108 -62t39 -110q0 -120 -91 -191.5t-220 -71.5q-110 0 -177 53t-67 144q0 17 4 49h52zM1448 1425l-1118 -1458h-58l1119 1458h57zM999 172q0 -66 50.5 -107.5t128.5 -41.5q100 0 178 61t78 158q0 68 -48 110.5t-124 42.5
q-101 0 -182 -62t-81 -161zM1114 563q0 -58 45.5 -90.5t114.5 -32.5q57 0 111 23.5t91 72.5t37 111q0 63 -46 98t-115 35q-91 0 -164.5 -58.5t-73.5 -158.5zM1489 248q0 -125 -91 -198t-224 -73q-101 0 -165.5 50.5t-64.5 138.5q0 91 55.5 159t149.5 93q-92 45 -92 135
q0 121 88 196.5t211 75.5q90 0 151.5 -44t61.5 -126q0 -85 -48 -146t-139 -93q107 -50 107 -168z" />
    <glyph glyph-name="fiveeighths" unicode="&#x215d;" horiz-adv-x="1622" 
d="M195 774q0 -72 43 -112.5t112 -40.5q117 0 201 87.5t84 206.5q0 68 -39 109t-111 41q-149 0 -256 -141h-41l168 475h435l-15 -49h-383l-117 -316q96 82 222 82q92 0 142 -53.5t50 -147.5q0 -141 -98.5 -241.5t-249.5 -100.5q-95 0 -149 50t-54 141q0 13 4 45h54
q-2 -14 -2 -35zM1423 1425l-1118 -1458h-57l1118 1458h57zM975 172q0 -66 50 -107.5t128 -41.5q100 0 178 61t78 158q0 68 -48 110.5t-124 42.5q-101 0 -181.5 -62t-80.5 -161zM1090 563q0 -58 45 -90.5t114 -32.5q57 0 111 23.5t91.5 72.5t37.5 111q0 63 -46 98t-116 35
q-91 0 -164 -58.5t-73 -158.5zM1464 248q0 -125 -91 -198t-224 -73q-101 0 -165 50.5t-64 138.5q0 91 55 159t149 93q-92 45 -92 135q0 121 88 196.5t211 75.5q89 0 151 -44t62 -126q0 -85 -47.5 -146t-138.5 -93q106 -50 106 -168z" />
    <glyph glyph-name="seveneighths" unicode="&#x215e;" horiz-adv-x="1470" 
d="M199 596q171 412 489 754h-455l15 49h516l-12 -49q-323 -341 -500 -754h-53zM1272 1425l-1118 -1458h-58l1118 1458h58zM823 172q0 -66 50 -107.5t128 -41.5q100 0 178 61t78 158q0 68 -48 110.5t-124 42.5q-101 0 -181.5 -62t-80.5 -161zM938 563q0 -58 45.5 -90.5
t114.5 -32.5q57 0 111 23.5t91 72.5t37 111q0 63 -46 98t-115 35q-91 0 -164.5 -58.5t-73.5 -158.5zM1313 248q0 -125 -91.5 -198t-224.5 -73q-101 0 -165 50.5t-64 138.5q0 91 55.5 159t149.5 93q-92 45 -92 135q0 121 88 196.5t211 75.5q90 0 151.5 -44t61.5 -126
q0 -85 -48 -146t-139 -93q107 -50 107 -168z" />
    <glyph glyph-name="uni215F" unicode="&#x215f;" horiz-adv-x="657" 
d="M408 1235q-62 -37 -175 -37h-24l12 45q88 3 133 19t65 45t38 92h45l-201 -803h-53zM1159 1425l-1118 -1458h-57l1118 1458h57z" />
    <glyph glyph-name="uni2160" unicode="&#x2160;" horiz-adv-x="479" 
d="M510 1487l-371 -1487h-61l371 1487h61z" />
    <glyph glyph-name="uni2161" unicode="&#x2161;" horiz-adv-x="954" 
d="M510 1487l-371 -1487h-61l371 1487h61zM985 1487l-371 -1487h-61l371 1487h61z" />
    <glyph glyph-name="uni2162" unicode="&#x2162;" horiz-adv-x="1429" 
d="M510 1487l-371 -1487h-61l371 1487h61zM985 1487l-371 -1487h-61l371 1487h61zM1460 1487l-370 -1487h-62l371 1487h61z" />
    <glyph glyph-name="uni2163" unicode="&#x2163;" horiz-adv-x="1716" 
d="M510 1487l-371 -1487h-61l371 1487h61zM981 86q75 113 156 242l716 1159h76l-932 -1487h-77l-191 1487h70l141 -1159q21 -171 33 -242h8z" />
    <glyph glyph-name="uni2164" unicode="&#x2164;" horiz-adv-x="1253" 
d="M518 86q75 112 156 242l717 1159h75l-931 -1487h-78l-191 1487h70l141 -1159q21 -171 33 -242h8z" />
    <glyph glyph-name="uni2165" unicode="&#x2165;" horiz-adv-x="1712" 
d="M518 86q75 112 156 242l717 1159h75l-931 -1487h-78l-191 1487h70l141 -1159q21 -171 33 -242h8zM1743 1487l-371 -1487h-61l370 1487h62z" />
    <glyph glyph-name="uni2166" unicode="&#x2166;" horiz-adv-x="2187" 
d="M518 86q75 112 156 242l717 1159h75l-931 -1487h-78l-191 1487h70l141 -1159q21 -171 33 -242h8zM1743 1487l-371 -1487h-61l370 1487h62zM2218 1487l-371 -1487h-61l371 1487h61z" />
    <glyph glyph-name="uni2167" unicode="&#x2167;" horiz-adv-x="2662" 
d="M518 86q75 112 156 242l717 1159h75l-931 -1487h-78l-191 1487h70l141 -1159q21 -171 33 -242h8zM1743 1487l-371 -1487h-61l370 1487h62zM2218 1487l-371 -1487h-61l371 1487h61zM2693 1487l-371 -1487h-61l371 1487h61z" />
    <glyph glyph-name="uni2168" unicode="&#x2168;" horiz-adv-x="1699" 
d="M510 1487l-371 -1487h-61l371 1487h61zM1122 766l-340 721h68l317 -674l648 674h81l-702 -731l356 -756h-67l-334 709l-680 -709h-82z" />
    <glyph glyph-name="uni2169" unicode="&#x2169;" horiz-adv-x="1202" 
d="M625 766l-340 721h67l318 -674l647 674h82l-703 -731l357 -756h-68l-334 709l-680 -709h-82z" />
    <glyph glyph-name="uni216A" unicode="&#x216a;" horiz-adv-x="1701" 
d="M625 766l-340 721h67l318 -674l647 674h82l-703 -731l357 -756h-68l-334 709l-680 -709h-82zM1733 1487l-371 -1487h-62l371 1487h62z" />
    <glyph glyph-name="uni216B" unicode="&#x216b;" horiz-adv-x="2177" 
d="M625 766l-340 721h67l318 -674l647 674h82l-703 -731l357 -756h-68l-334 709l-680 -709h-82zM1733 1487l-371 -1487h-62l371 1487h62zM2208 1487l-371 -1487h-61l370 1487h62z" />
    <glyph glyph-name="uni216C" unicode="&#x216c;" horiz-adv-x="1097" 
d="M510 1487l-356 -1430h813l-15 -57h-874l371 1487h61z" />
    <glyph glyph-name="uni216D" unicode="&#x216d;" horiz-adv-x="1384" 
d="M946 1444q-131 0 -249.5 -57.5t-206 -153.5t-152.5 -218t-98 -254t-33 -259q0 -217 110.5 -342t305.5 -125q197 0 363 128t235 331h69q-39 -127 -115.5 -228.5t-170 -163t-193.5 -93.5t-197 -32q-223 0 -349 143.5t-126 381.5q0 110 25.5 226t72 227.5t119 210.5
t160 173.5t201 118t237.5 43.5q215 0 335 -113.5t120 -330.5q0 -14 -4 -60h-64q2 18 2 47q0 193 -99 296.5t-298 103.5z" />
    <glyph glyph-name="uni216E" unicode="&#x216e;" horiz-adv-x="1474" 
d="M791 1487q172 0 299 -36.5t203 -105t112.5 -159.5t36.5 -207q0 -156 -42 -300.5t-126 -268t-200.5 -215t-274.5 -143.5t-340 -52h-381l371 1487h342zM154 61h323q200 0 370 73t284.5 197.5t178.5 291.5t64 354q0 448 -592 448h-288z" />
    <glyph glyph-name="uni216F" unicode="&#x216f;" horiz-adv-x="1789" 
d="M494 1384h-9l-346 -1384h-61l371 1487h94l248 -1403l929 1403h101l-371 -1487h-61l346 1384h-9l-923 -1384h-60z" />
    <glyph glyph-name="uni2170" unicode="&#x2170;" horiz-adv-x="413" 
d="M371 1057l-265 -1057h-61l264 1057h62zM475 1475l-37 -148h-78l37 148h78z" />
    <glyph glyph-name="uni2171" unicode="&#x2171;" horiz-adv-x="823" 
d="M371 1057l-265 -1057h-61l264 1057h62zM475 1475l-37 -148h-78l37 148h78zM780 1057l-264 -1057h-61l264 1057h61zM885 1475l-37 -148h-78l37 148h78z" />
    <glyph glyph-name="uni2172" unicode="&#x2172;" horiz-adv-x="1232" 
d="M371 1057l-265 -1057h-61l264 1057h62zM475 1475l-37 -148h-78l37 148h78zM780 1057l-264 -1057h-61l264 1057h61zM885 1475l-37 -148h-78l37 148h78zM1190 1057l-264 -1057h-62l264 1057h62zM1294 1475l-37 -148h-77l37 148h77z" />
    <glyph glyph-name="uni2173" unicode="&#x2173;" horiz-adv-x="1345" 
d="M371 1057l-265 -1057h-61l264 1057h62zM475 1475l-37 -148h-78l37 148h78zM565 1057h66l114 -1000h9l614 1000h68l-658 -1057h-84z" />
    <glyph glyph-name="uni2174" unicode="&#x2174;" horiz-adv-x="954" 
d="M174 1057h66l114 -1000h8l615 1000h67l-657 -1057h-84z" />
    <glyph glyph-name="uni2175" unicode="&#x2175;" horiz-adv-x="1341" 
d="M174 1057h66l114 -1000h8l615 1000h67l-657 -1057h-84zM1298 1057l-264 -1057h-61l264 1057h61zM1403 1475l-37 -148h-78l37 148h78z" />
    <glyph glyph-name="uni2176" unicode="&#x2176;" horiz-adv-x="1751" 
d="M174 1057h66l114 -1000h8l615 1000h67l-657 -1057h-84zM1298 1057l-264 -1057h-61l264 1057h61zM1403 1475l-37 -148h-78l37 148h78zM1708 1057l-264 -1057h-62l265 1057h61zM1812 1475l-36 -148h-78l37 148h77z" />
    <glyph glyph-name="uni2177" unicode="&#x2177;" horiz-adv-x="2160" 
d="M174 1057h66l114 -1000h8l615 1000h67l-657 -1057h-84zM1298 1057l-264 -1057h-61l264 1057h61zM1403 1475l-37 -148h-78l37 148h78zM1708 1057l-264 -1057h-62l265 1057h61zM1812 1475l-36 -148h-78l37 148h77zM2118 1057l-265 -1057h-61l264 1057h62zM2222 1475
l-37 -148h-78l37 148h78z" />
    <glyph glyph-name="uni2178" unicode="&#x2178;" horiz-adv-x="1343" 
d="M371 1057l-265 -1057h-61l264 1057h62zM475 1475l-37 -148h-78l37 148h78zM1190 0h-70l-252 506l-481 -506h-82l537 557l-248 500h70l225 -453l450 453h82l-508 -504z" />
    <glyph glyph-name="uni2179" unicode="&#x2179;" horiz-adv-x="935" 
d="M782 0h-69l-252 506l-481 -506h-82l536 557l-248 500h70l225 -453l451 453h82l-508 -504z" />
    <glyph glyph-name="uni217A" unicode="&#x217a;" horiz-adv-x="1349" 
d="M782 0h-69l-252 506l-481 -506h-82l536 557l-248 500h70l225 -453l451 453h82l-508 -504zM1307 1057l-265 -1057h-61l264 1057h62zM1411 1475l-37 -148h-78l37 148h78z" />
    <glyph glyph-name="uni217B" unicode="&#x217b;" horiz-adv-x="1759" 
d="M782 0h-69l-252 506l-481 -506h-82l536 557l-248 500h70l225 -453l451 453h82l-508 -504zM1307 1057l-265 -1057h-61l264 1057h62zM1411 1475l-37 -148h-78l37 148h78zM1716 1057l-264 -1057h-61l264 1057h61zM1821 1475l-37 -148h-78l37 148h78z" />
    <glyph glyph-name="uni217C" unicode="&#x217c;" horiz-adv-x="413" 
d="M477 1487l-371 -1487h-61l371 1487h61z" />
    <glyph glyph-name="uni217D" unicode="&#x217d;" horiz-adv-x="1058" 
d="M446 -23q-169 0 -265.5 97t-96.5 280q0 94 24 193.5t74 194.5t119 170t167.5 121t211.5 46q153 0 246.5 -83.5t93.5 -241.5v-43h-66v43q0 122 -72 197t-208 75q-115 0 -215.5 -63.5t-166 -162.5t-103 -216.5t-37.5 -229.5q0 -147 81 -235t220 -88q135 0 254 92t163 231
h62q-50 -166 -183 -271.5t-303 -105.5z" />
    <glyph glyph-name="uni217E" unicode="&#x217e;" horiz-adv-x="1159" 
d="M854 252q-64 -121 -184 -198t-242 -77q-150 0 -247 97t-97 280q0 93 23.5 192t73 194.5t117.5 170.5t165.5 121.5t208.5 46.5q133 0 218.5 -68.5t106.5 -181.5l164 658h62l-371 -1487h-61zM428 31q90 0 173 44t145 116.5t108.5 163t70 187t23.5 185.5q0 137 -74.5 218
t-207.5 81q-114 0 -213 -62.5t-163.5 -161t-101 -216.5t-36.5 -232q0 -140 74 -231.5t202 -91.5z" />
    <glyph glyph-name="uni217F" unicode="&#x217f;" horiz-adv-x="1679" 
d="M371 1057l-52 -205q60 96 159.5 161.5t221.5 65.5q123 0 178.5 -60t57.5 -177q57 99 167.5 168t233.5 69q125 0 181.5 -61t56.5 -182q0 -79 -29 -193l-162 -643h-61l160 635q28 118 28 182q0 109 -44 158t-142 49q-39 0 -81.5 -11t-93.5 -39.5t-96 -72t-86.5 -114.5
t-66.5 -160l-156 -627h-61l164 655q24 101 24 162q0 109 -43 158t-141 49q-39 0 -82.5 -12t-95 -42t-97 -74t-87 -115.5t-66.5 -159.5l-154 -621h-61l264 1057h62z" />
    <glyph glyph-name="uni2189" unicode="&#x2189;" horiz-adv-x="1701" 
d="M406 621q65 0 122.5 38t97.5 98.5t69 135t43 147.5t14 136q0 96 -46.5 147t-121.5 51q-65 0 -122.5 -38t-97.5 -98.5t-69 -135t-43 -147.5t-14 -136q0 -96 46.5 -147t121.5 -51zM399 573q-105 0 -164 65t-59 183q0 72 15.5 151t49 159.5t80.5 144.5t117 104.5t152 40.5
q105 0 164 -64.5t59 -182.5q0 -72 -15.5 -151.5t-49 -160t-80.5 -144.5t-117 -104.5t-152 -40.5zM1503 1425l-1118 -1458h-57l1118 1458h57zM1049 223q-2 -14 -2 -33q0 -80 57 -122.5t141 -42.5q95 0 169.5 56t74.5 155q0 72 -54.5 111.5t-152.5 39.5q-50 0 -68 -4l15 53
q12 -4 57 -4q102 0 181 55.5t79 157.5q0 61 -40 96t-117 35q-79 0 -144 -46.5t-94 -127.5h-53q40 106 121 163.5t180 57.5q90 0 146.5 -46t56.5 -130q0 -97 -51 -150t-150 -85q69 -11 108 -62t39 -110q0 -120 -91 -191.5t-220 -71.5q-110 0 -177 53t-67 144q0 17 4 49h52z
" />
    <glyph glyph-name="arrowleft" unicode="&#x2190;" horiz-adv-x="1212" 
d="M610 137l-39 -39l-487 488l487 487l39 -39l-424 -422h971v-53h-971z" />
    </font>
</defs>
</svg>
