<?xml version="1.0" standalone="no"?>
<!DOCTYPE svg PUBLIC "-//W3C//DTD SVG 1.1//EN" "http://www.w3.org/Graphics/SVG/1.1/DTD/svg11.dtd" >
<svg xmlns="http://www.w3.org/2000/svg" xmlns:xlink="http://www.w3.org/1999/xlink" version="1.1">
<metadata>
Created by FontForge 20170731 at Sat Jul 18 17:22:40 2020
 By Aleksey,,,
(c) 2012-2019, Copyright by Lineto GmbH. All rights reserved.
</metadata>
<defs>
<font id="Unica77LL-Medium" horiz-adv-x="1290" >
  <font-face 
    font-family="Unica77 LL Medium"
    font-weight="500"
    font-stretch="normal"
    units-per-em="2048"
    panose-1="2 11 6 4 3 1 1 1 1 2"
    ascent="1536"
    descent="-512"
    x-height="1057"
    cap-height="1487"
    bbox="-922 -547 2890 2116"
    underline-thickness="102"
    underline-position="-409"
    unicode-range="U+000D-FEFF"
  />
<missing-glyph horiz-adv-x="1296" 
d="M160 0v1487h977v-1487h-977zM1020 109v1269h-744v-1269h744z" />
    <glyph glyph-name="f_f" unicode="ff" horiz-adv-x="1310" 
d="M453 868v-868h-246v868h-170v189h170v67q0 92 13.5 156t49 116t101.5 77.5t166 25.5q76 0 125 -14v-189q-36 7 -74 7q-77 0 -106 -45.5t-29 -147.5v-53h378v67q0 92 13.5 156t49 116t101.5 77.5t166 25.5q76 0 125 -14v-189q-36 7 -74 7q-77 0 -106 -45.5t-29 -147.5v-53
h209v-189h-209v-868h-246v868h-378z" />
    <glyph glyph-name="f_f_i" unicode="ffi" horiz-adv-x="1789" 
d="M1649 1057v-1057h-246v1057h246zM1649 1487v-248h-246v248h246zM453 868v-868h-246v868h-170v189h170v67q0 92 13.5 156t49 116t101.5 77.5t166 25.5q76 0 125 -14v-189q-36 7 -74 7q-77 0 -106 -45.5t-29 -147.5v-53h378v67q0 92 13.5 156t49 116t101.5 77.5t166 25.5
q76 0 125 -14v-189q-36 7 -74 7q-77 0 -106 -45.5t-29 -147.5v-53h209v-189h-209v-868h-246v868h-378z" />
    <glyph glyph-name="f_f_l" unicode="ffl" horiz-adv-x="1789" 
d="M1649 1487v-1487h-246v1487h246zM453 868v-868h-246v868h-170v189h170v67q0 92 13.5 156t49 116t101.5 77.5t166 25.5q76 0 125 -14v-189q-36 7 -74 7q-77 0 -106 -45.5t-29 -147.5v-53h378v67q0 92 13.5 156t49 116t101.5 77.5t166 25.5q76 0 125 -14v-189q-36 7 -74 7
q-77 0 -106 -45.5t-29 -147.5v-53h209v-189h-209v-868h-246v868h-378z" />
    <glyph glyph-name="f_i" unicode="fi" horiz-adv-x="1165" 
d="M37 868v189h170v67q0 92 13.5 156t49 116t101.5 77.5t166 25.5q76 0 125 -14v-189q-36 7 -74 7q-77 0 -106 -45.5t-29 -147.5v-53h209v-189h-209v-868h-246v868h-170zM1024 1057v-1057h-246v1057h246zM1024 1487v-248h-246v248h246z" />
    <glyph glyph-name="f_l" unicode="fl" horiz-adv-x="1165" 
d="M37 868v189h170v67q0 92 13.5 156t49 116t101.5 77.5t166 25.5q76 0 125 -14v-189q-36 7 -74 7q-77 0 -106 -45.5t-29 -147.5v-53h209v-189h-209v-868h-246v868h-170zM1024 1487v-1487h-246v1487h246z" />
    <glyph glyph-name=".notdef" horiz-adv-x="1296" 
d="M160 0v1487h977v-1487h-977zM1020 109v1269h-744v-1269h744z" />
    <glyph glyph-name=".null" horiz-adv-x="0" 
 />
    <glyph glyph-name="nonmarkingreturn" horiz-adv-x="682" 
 />
    <glyph glyph-name="NULL" horiz-adv-x="0" 
 />
    <glyph glyph-name="NULL" horiz-adv-x="0" 
 />
    <glyph glyph-name="CR" unicode="&#xd;" horiz-adv-x="409" 
 />
    <glyph glyph-name="space" unicode=" " horiz-adv-x="409" 
 />
    <glyph glyph-name="exclam" unicode="!" horiz-adv-x="561" 
d="M418 285v-285h-273v285h273zM430 1487l-51 -1047h-195l-53 1047h299z" />
    <glyph glyph-name="quotedbl" unicode="&#x22;" horiz-adv-x="804" 
d="M350 1399l-59 -600h-144l-61 600h264zM721 1399l-62 -600h-143l-61 600h266z" />
    <glyph glyph-name="numbersign" unicode="#" horiz-adv-x="1251" 
d="M444 410l-116 -410h-164l117 410h-234l39 131h231l97 336h-232l39 131h232l110 389h166l-113 -389h207l115 389h162l-113 -389h215l-39 -131h-213l-98 -336h215l-39 -131h-213l-119 -410h-164l119 410h-207zM688 541l98 336h-206l-97 -336h205z" />
    <glyph glyph-name="dollar" unicode="$" horiz-adv-x="1177" 
d="M518 -16q-215 19 -335 146.5t-120 338.5h250q0 -113 53 -185t152 -91v409q-76 23 -136 48.5t-117.5 62.5t-95 80.5t-60.5 103.5t-23 131q0 160 121 265.5t317 117.5v170h142v-170q198 -20 310 -137t120 -309h-246q0 97 -50.5 159t-133.5 80v-405l63 -23q44 -15 77 -27.5
t75.5 -33t73.5 -41.5t63 -51.5t52 -64.5t33 -79t13 -96q0 -168 -124.5 -278.5t-332.5 -122.5v-189h-141v191zM524 836v372q-87 -6 -140.5 -51t-53.5 -121q0 -70 44.5 -116t133.5 -78zM659 188q102 6 154.5 54.5t52.5 128.5q0 73 -53 118.5t-154 79.5v-381z" />
    <glyph glyph-name="percent" unicode="%" horiz-adv-x="1912" 
d="M401 702q156 0 156 295t-156 295q-155 0 -155 -295t155 -295zM401 571q-84 0 -149.5 34t-105 93t-60 134.5t-20.5 164.5t20.5 164.5t60 134.5t105 93t149.5 34t149.5 -34t105.5 -93t60.5 -135t20.5 -164t-20.5 -164t-60.5 -135t-105.5 -93t-149.5 -34zM1403 1427
l-756 -1456h-147l753 1456h150zM1511 106q156 0 156 295t-156 295q-155 0 -155 -295t155 -295zM1511 -25q-84 0 -149.5 34t-105 93t-60 134.5t-20.5 164.5t20.5 164.5t60 134.5t105 93t149.5 34t149.5 -34t105.5 -93t60.5 -135t20.5 -164t-20.5 -164t-60.5 -135t-105.5 -93
t-149.5 -34z" />
    <glyph glyph-name="ampersand" unicode="&#x26;" horiz-adv-x="1466" 
d="M1364 801q-22 -268 -168 -492l283 -309h-320l-121 131q-190 -162 -432 -162q-235 0 -385.5 121.5t-150.5 298.5q0 268 311 438q-164 164 -164 338q0 152 120.5 252.5t303.5 100.5q176 0 293 -95t117 -237q0 -121 -71 -215.5t-212 -190.5l270 -297q73 154 82 318h244z
M621 180q153 0 272 109l-361 397q-190 -107 -190 -268q0 -111 77 -174.5t202 -63.5zM612 915q185 108 185 246q0 68 -42 111t-118 43q-74 0 -121 -41.5t-47 -112.5q0 -66 35 -119.5t108 -126.5z" />
    <glyph glyph-name="quotesingle" unicode="'" horiz-adv-x="436" 
d="M350 1399l-59 -600h-144l-61 600h264z" />
    <glyph glyph-name="parenleft" unicode="(" horiz-adv-x="542" 
d="M315 -229q-129 259 -182 471t-53 426q0 390 237 860h170q-94 -255 -139 -454.5t-45 -409.5q0 -198 46.5 -430t137.5 -463h-172z" />
    <glyph glyph-name="parenright" unicode=")" horiz-adv-x="542" 
d="M55 -229q185 486 185 872q0 403 -185 885h170q125 -259 181.5 -472t56.5 -417q0 -417 -238 -868h-170z" />
    <glyph glyph-name="asterisk" unicode="*" horiz-adv-x="829" 
d="M360 1219l-38 268h192l-39 -268l242 124l61 -186l-270 -45l188 -197l-159 -112l-125 246l-125 -246l-160 112l195 197l-269 45l64 186z" />
    <glyph glyph-name="plus" unicode="+" 
d="M545 457h-395v182h395v418h203v-418h395v-182h-395v-420h-203v420z" />
    <glyph glyph-name="comma" unicode="," horiz-adv-x="489" 
d="M102 -295l105 318h-105v266h281v-279l-125 -305h-156z" />
    <glyph glyph-name="hyphen" unicode="-" horiz-adv-x="794" 
d="M680 674v-187h-565v187h565z" />
    <glyph glyph-name="period" unicode="." horiz-adv-x="483" 
d="M381 289v-289h-279v289h279z" />
    <glyph glyph-name="slash" unicode="/" horiz-adv-x="808" 
d="M39 0l528 1487h207l-526 -1487h-209z" />
    <glyph glyph-name="zero" unicode="0" horiz-adv-x="1232" 
d="M614 1430q249 0 387 -187t138 -536q0 -361 -137 -549.5t-390 -188.5q-249 0 -384.5 186t-135.5 535q0 121 18 228t58.5 202t100.5 163t148 107.5t197 39.5zM618 1229q-262 0 -262 -543q0 -249 65.5 -382.5t192.5 -133.5q258 0 258 541q0 518 -254 518z" />
    <glyph glyph-name="one" unicode="1" horiz-adv-x="776" 
d="M41 981v174q173 5 259.5 63.5t92.5 180.5h225v-1399h-247v981h-330z" />
    <glyph glyph-name="two" unicode="2" horiz-adv-x="1148" 
d="M86 61q0 133 47 240.5t129 189t215 168.5q152 102 202 146q110 98 116 210v13q0 96 -59 150.5t-158 54.5q-113 0 -175.5 -75.5t-66.5 -217.5h-250q5 227 139 358.5t371 131.5q219 0 339 -110t120 -292q0 -82 -27 -153t-84.5 -135t-120 -114.5t-159.5 -115.5
q-52 -35 -80 -55t-71.5 -55t-66 -62.5t-41 -64t-20.5 -72.5q66 6 674 6v-207h-973v61z" />
    <glyph glyph-name="three" unicode="3" horiz-adv-x="1200" 
d="M332 457q0 -130 71 -210.5t193 -80.5q110 0 180 61.5t70 159.5q0 219 -305 219h-47v205h36q299 0 299 211q0 94 -62.5 149.5t-166.5 55.5q-119 0 -183 -65.5t-65 -192.5h-260q19 227 148.5 344t367.5 117q216 0 347.5 -105.5t131.5 -277.5q0 -115 -73 -208.5t-187 -117.5
v-8q279 -67 279 -334q0 -184 -141 -297t-369 -113q-247 0 -383.5 129t-136.5 359h256z" />
    <glyph glyph-name="four" unicode="4" horiz-adv-x="1206" 
d="M43 328v211l604 860h275v-869h237v-202h-237v-328h-248v328h-631zM545 901q-14 -21 -123 -176.5t-135 -194.5h393q0 31 1 151.5t1 149.5q0 155 10 302l-12 2q-79 -146 -135 -234z" />
    <glyph glyph-name="five" unicode="5" horiz-adv-x="1179" 
d="M1028 1399v-205h-641q-5 -66 -22 -203.5t-25 -169.5q68 67 142 98t167 31q197 0 327 -138.5t130 -344.5q0 -222 -144.5 -360t-377.5 -138q-207 0 -347.5 116t-152.5 300h264q11 -99 74.5 -155t167.5 -56q111 0 181.5 78.5t70.5 206.5q0 131 -66.5 208.5t-181.5 77.5
q-93 0 -154 -45t-84 -131l-258 23l76 807h854z" />
    <glyph glyph-name="six" unicode="6" horiz-adv-x="1204" 
d="M844 1024q-24 209 -213 209q-275 0 -287 -498q111 180 334 180q119 0 218 -57t158.5 -161.5t59.5 -235.5q0 -220 -141.5 -356t-360.5 -136q-255 0 -387.5 182.5t-132.5 528.5q0 355 143.5 552.5t397.5 197.5q208 0 328.5 -107t132.5 -299h-250zM616 723
q-112 0 -179.5 -75t-67.5 -195q0 -125 70 -206t177 -81t173.5 81.5t66.5 207.5q0 122 -65 195t-175 73z" />
    <glyph glyph-name="seven" unicode="7" horiz-adv-x="1034" 
d="M248 0q66 328 193 643t290 555q-48 -4 -227 -4h-461v205h942v-203q-171 -264 -285.5 -556t-175.5 -640h-276z" />
    <glyph glyph-name="eight" unicode="8" horiz-adv-x="1208" 
d="M606 1427q215 0 349.5 -105.5t134.5 -272.5q0 -120 -66 -204t-193 -116v-10q287 -63 287 -340q0 -184 -141.5 -296t-370.5 -112q-233 0 -374.5 112t-141.5 296q0 277 289 340v10q-126 32 -192 116t-66 204q0 168 134.5 273t350.5 105zM606 616q-117 0 -188.5 -60
t-71.5 -159q0 -101 71.5 -164t188.5 -63q116 0 187 63t71 164q0 100 -70.5 159.5t-187.5 59.5zM606 823q107 0 172.5 54.5t65.5 146.5q0 94 -63.5 150.5t-174.5 56.5q-113 0 -176 -56.5t-63 -150.5q0 -92 65 -146.5t174 -54.5z" />
    <glyph glyph-name="nine" unicode="9" horiz-adv-x="1204" 
d="M350 371q12 -93 72.5 -149t152.5 -56q146 0 214.5 126t70.5 396q-59 -95 -139 -136.5t-195 -41.5q-194 0 -315 120.5t-121 327.5q0 135 65 243t179.5 168.5t255.5 60.5q257 0 388.5 -184t131.5 -533q0 -364 -136.5 -554t-400.5 -190q-202 0 -332 108.5t-147 293.5h256z
M582 1233q-109 0 -176.5 -72t-67.5 -188q0 -114 69.5 -190t174.5 -76t174 75t69 185q0 119 -67 192.5t-176 73.5z" />
    <glyph glyph-name="colon" unicode=":" horiz-adv-x="507" 
d="M393 289v-289h-278v289h278zM393 1057v-289h-278v289h278z" />
    <glyph glyph-name="semicolon" unicode=";" horiz-adv-x="509" 
d="M115 -295l104 318h-104v266h280v-279l-125 -305h-155zM395 1057v-289h-278v289h278z" />
    <glyph glyph-name="less" unicode="&#x3c;" 
d="M147 453v172l973 436v-201l-758 -319l758 -330v-201z" />
    <glyph glyph-name="equal" unicode="=" 
d="M150 840h993v-183h-993v183zM150 457h993v-181h-993v181z" />
    <glyph glyph-name="greater" unicode="&#x3e;" 
d="M170 10v201l758 330l-758 319v201l973 -436v-172z" />
    <glyph glyph-name="question" unicode="?" horiz-adv-x="1075" 
d="M367 281h274v-281h-274v281zM383 457q0 155 45 245.5t182 198.5q81 64 114.5 110.5t33.5 104.5q0 90 -57.5 138.5t-151.5 48.5q-110 0 -175 -70.5t-65 -212.5h-260q0 232 140 362.5t366 130.5q204 0 335.5 -104t131.5 -287q0 -107 -53 -187t-160 -169q-35 -30 -49.5 -42
t-43.5 -40t-42 -47.5t-30 -48.5t-23.5 -59.5t-6.5 -65.5v-37h-231v31z" />
    <glyph glyph-name="at" unicode="@" horiz-adv-x="1804" 
d="M924 938q-66 0 -121.5 -58t-85 -143t-29.5 -172q0 -105 39.5 -163t99.5 -58t108 41t75.5 105t42 132.5t14.5 131.5q0 75 -36.5 129.5t-106.5 54.5zM1513 -59q-138 -83 -302.5 -131t-317.5 -48q-162 0 -309.5 57.5t-261 162t-181 265.5t-67.5 355q0 188 66 349.5
t182.5 275.5t282 178.5t358.5 64.5q124 0 240.5 -28t218.5 -86t177.5 -140.5t119.5 -198.5t44 -253q0 -134 -38.5 -243t-105.5 -179t-156 -107.5t-191 -37.5q-29 0 -56.5 4.5t-61.5 17t-58.5 41.5t-34.5 72q-62 -78 -125 -106.5t-135 -28.5q-141 0 -223 92.5t-82 281.5
q0 134 53.5 251.5t149.5 189t212 71.5q159 0 215 -106l15 82h194q-116 -442 -116 -598q0 -59 23.5 -87t62.5 -28q53 0 101 25.5t87 75.5t62.5 132.5t23.5 186.5q0 130 -51.5 237.5t-138.5 176t-199.5 106t-237.5 37.5q-141 0 -268 -51t-221 -142t-149.5 -224.5t-55.5 -289.5
q0 -161 54.5 -295.5t146.5 -221.5t210.5 -135t248.5 -48q249 0 516 158z" />
    <glyph glyph-name="A" unicode="A" horiz-adv-x="1419" 
d="M866 1487l551 -1487h-274l-142 401h-591l-138 -401h-268l547 1487h315zM850 850q-94 279 -135 424h-13q-8 -25 -39 -128t-52 -168t-44 -128l-86 -234h451z" />
    <glyph glyph-name="B" unicode="B" horiz-adv-x="1308" 
d="M614 1487q283 0 412 -74q168 -102 168 -313q0 -126 -71 -216t-205 -122v-6q150 -25 228.5 -113.5t78.5 -234.5q0 -245 -209 -347q-74 -36 -170 -48.5t-240 -12.5h-446v1487h454zM618 209q59 0 104.5 4.5t92.5 18.5t77.5 37.5t49.5 63.5t19 95q0 53 -15.5 91t-43 63
t-72.5 39.5t-97.5 20t-124.5 5.5h-188v-438h198zM604 856q50 0 90 3.5t88.5 16.5t81 34.5t54.5 61.5t22 95q0 53 -17.5 91.5t-45 61t-72 35.5t-89 17t-104.5 4h-192v-420h184z" />
    <glyph glyph-name="C" unicode="C" horiz-adv-x="1425" 
d="M1372 510q-30 -240 -192 -390.5t-426 -150.5q-306 0 -488 202t-182 560q0 225 84 404t238.5 281t351.5 102q256 0 421.5 -145.5t182.5 -385.5h-266q-17 149 -108.5 236.5t-231.5 87.5q-184 0 -295 -157.5t-111 -412.5q0 -254 110.5 -409.5t293.5 -155.5q146 0 235.5 89
t110.5 245h272z" />
    <glyph glyph-name="D" unicode="D" horiz-adv-x="1449" 
d="M594 1487q257 0 422 -82q350 -176 350 -655q0 -310 -162 -508q-198 -242 -579 -242h-465v1487h434zM580 215q241 0 370 117q146 134 146 411q0 167 -45 278t-142 173q-119 78 -327 78h-162v-1057h160z" />
    <glyph glyph-name="E" unicode="E" horiz-adv-x="1234" 
d="M1124 1487v-215h-704v-408h663v-215h-663v-432h733v-217h-993v1487h964z" />
    <glyph glyph-name="F" unicode="F" horiz-adv-x="1169" 
d="M1114 1487v-215h-694v-455h645v-215h-645v-602h-260v1487h954z" />
    <glyph glyph-name="G" unicode="G" horiz-adv-x="1480" 
d="M1149 106q0 47 2 70l-6 4q-61 -98 -173.5 -152.5t-248.5 -54.5q-297 0 -468 204t-171 564q0 163 47.5 304.5t134 246.5t216.5 165.5t288 60.5q246 0 412.5 -132.5t191.5 -341.5h-266q-26 124 -118 195.5t-222 71.5q-193 0 -305.5 -155.5t-112.5 -420.5q0 -253 108.5 -404
t295.5 -151q165 0 266 107t102 301h-329v213h575v-801h-219v106z" />
    <glyph glyph-name="H" unicode="H" horiz-adv-x="1517" 
d="M418 1487v-610h682v610h258v-1487h-258v662h-682v-662h-258v1487h258z" />
    <glyph glyph-name="I" unicode="I" horiz-adv-x="577" 
d="M418 1487v-1487h-258v1487h258z" />
    <glyph glyph-name="J" unicode="J" horiz-adv-x="751" 
d="M29 219q74 -12 123 -12q113 0 151.5 64.5t38.5 240.5v975h260v-993q0 -94 -10 -167.5t-36.5 -140.5t-70 -110t-112.5 -68.5t-162 -25.5q-69 0 -182 18v219z" />
    <glyph glyph-name="K" unicode="K" horiz-adv-x="1271" 
d="M420 1487v-658l528 658h297l-579 -690l628 -797h-327l-547 723v-723h-260v1487h260z" />
    <glyph glyph-name="L" unicode="L" horiz-adv-x="1144" 
d="M420 1487v-1270h702v-217h-962v1487h260z" />
    <glyph glyph-name="M" unicode="M" horiz-adv-x="1918" 
d="M567 1487l293 -834q28 -81 66.5 -216t44.5 -156h14q37 174 100 372l267 834h407v-1487h-241v768q0 217 10 477h-15q-6 -22 -78 -230.5t-167.5 -498.5t-161.5 -516h-297q-69 224 -165 515.5t-167 499t-78 230.5h-14q14 -306 14 -477v-768h-239v1487h407z" />
    <glyph glyph-name="N" unicode="N" horiz-adv-x="1529" 
d="M520 1487q108 -199 379 -742q178 -351 229 -477h15q-13 191 -13 480l-2 739h242v-1487h-362q-37 66 -189 373t-170 338q-187 356 -252 522h-14q16 -400 16 -494l2 -739h-241v1487h360z" />
    <glyph glyph-name="O" unicode="O" horiz-adv-x="1548" 
d="M774 1518q206 0 363 -97.5t242 -273t85 -404.5t-86 -405t-243 -272.5t-363 -96.5q-208 0 -364.5 96.5t-240 272t-83.5 405.5q0 225 84.5 401t242 275t363.5 99zM774 1311q-196 0 -310 -156.5t-114 -411.5t115.5 -411t306.5 -156q190 0 308 160t118 407q0 256 -114.5 412
t-309.5 156z" />
    <glyph glyph-name="P" unicode="P" horiz-adv-x="1284" 
d="M637 1487q260 0 389 -70q103 -56 157 -161t54 -242q0 -265 -209 -393q-128 -74 -397 -74h-213v-547h-258v1487h477zM625 758q156 0 223 37q121 69 121 231q0 73 -32.5 130t-94.5 89q-61 31 -215 31h-209v-518h207z" />
    <glyph glyph-name="Q" unicode="Q" horiz-adv-x="1548" 
d="M774 1518q312 0 501 -213.5t189 -561.5q0 -334 -180 -548l195 -193l-140 -143l-206 207q-154 -97 -361 -97q-208 0 -364.5 96.5t-240 272t-83.5 405.5q0 171 49.5 314.5t138.5 245t218 158.5t284 57zM774 1313q-196 0 -310 -157.5t-114 -412.5t115.5 -411t306.5 -156
q109 0 195 55l-187 187l144 139l182 -182q92 158 92 368q0 257 -114.5 413.5t-309.5 156.5z" />
    <glyph glyph-name="R" unicode="R" horiz-adv-x="1323" 
d="M610 1487q232 0 359 -57q219 -104 219 -357q0 -139 -84.5 -239t-237.5 -132v-10q60 -6 105.5 -30t76.5 -68t50 -86t41 -107l139 -401h-277l-129 379q-20 56 -42 93t-47.5 62t-62 37.5t-78.5 17.5t-105 5h-117v-594h-260v1487h450zM573 803q57 0 102.5 5t93.5 20.5t80 41
t52.5 70t20.5 104.5q0 124 -80 178t-228 54h-194v-473h153z" />
    <glyph glyph-name="S" unicode="S" 
d="M340 498q0 -154 83.5 -238t235.5 -84q133 0 210 57.5t77 155.5q0 32 -10.5 60t-24.5 48.5t-43 40.5t-51.5 32.5t-65.5 28.5t-68.5 24l-76.5 24q-184 57 -252 88q-184 84 -234 224q-22 60 -22 133q0 191 150 308.5t397 117.5t390.5 -130t148.5 -356h-264q0 127 -82.5 204
t-204.5 77q-109 0 -185.5 -54.5t-76.5 -144.5q0 -41 17 -74.5t46.5 -59.5t81 -50t107.5 -42.5t139 -41.5q80 -22 140 -44.5t123 -58.5t103.5 -78.5t66.5 -105t26 -137.5q0 -202 -155.5 -327.5t-406.5 -125.5q-273 0 -430 140t-157 389h268z" />
    <glyph glyph-name="T" unicode="T" horiz-adv-x="1216" 
d="M20 1272v215h1176v-215h-457v-1272h-262v1272h-457z" />
    <glyph glyph-name="U" unicode="U" horiz-adv-x="1439" 
d="M406 616q0 -67 7.5 -125t28.5 -118t54.5 -102t90.5 -68.5t132 -26.5q315 0 315 440v871h260v-881q0 -311 -148 -474t-427 -163q-155 0 -265.5 41.5t-178.5 126t-99 204t-31 282.5v864h261v-871z" />
    <glyph glyph-name="V" unicode="V" horiz-adv-x="1312" 
d="M295 1487l258 -836q25 -80 109 -379h14q31 136 104 379l248 836h277l-492 -1487h-313l-492 1487h287z" />
    <glyph glyph-name="W" unicode="W" horiz-adv-x="1970" 
d="M295 1487l170 -836l65 -375h15q24 132 78 375l200 836h348l199 -836q21 -84 76 -375h12l72 375l170 836h244l-338 -1487h-334l-199 848q-39 167 -80 387h-12q-35 -187 -82 -387l-199 -848h-335l-338 1487h268z" />
    <glyph glyph-name="X" unicode="X" horiz-adv-x="1271" 
d="M23 1487h315q20 -42 147.5 -260t157.5 -285h8q29 70 161.5 291t148.5 254h288l-461 -725l492 -762h-315q-8 14 -154.5 268.5t-175.5 321.5h-8q-26 -60 -168.5 -300.5t-165.5 -289.5h-299l489 768z" />
    <glyph glyph-name="Y" unicode="Y" horiz-adv-x="1259" 
d="M4 1487h301q24 -60 162.5 -331.5t163.5 -336.5h10q28 71 174.5 347t167.5 321h277l-500 -883v-604h-260v604z" />
    <glyph glyph-name="Z" unicode="Z" horiz-adv-x="1191" 
d="M823 1282q-120 -8 -286 -8h-449v213h1018v-201l-762 -1079q113 10 305 10h492v-217h-1080v209z" />
    <glyph glyph-name="bracketleft" unicode="[" horiz-adv-x="643" 
d="M156 1505h444v-143h-231v-1438h231v-141h-444v1722z" />
    <glyph glyph-name="backslash" unicode="\" horiz-adv-x="815" 
d="M244 1487l530 -1487h-209l-528 1487h207z" />
    <glyph glyph-name="bracketright" unicode="]" horiz-adv-x="643" 
d="M43 -76h231v1438h-231v143h444v-1722h-444v141z" />
    <glyph glyph-name="asciicircum" unicode="^" 
d="M1087 657h-186l-258 617l-256 -617h-184l358 830h166z" />
    <glyph glyph-name="underscore" unicode="_" horiz-adv-x="976" 
d="M0 -133h977v-119h-977v119z" />
    <glyph glyph-name="grave" unicode="`" horiz-adv-x="1212" 
d="M270 1487h269l186 -268h-205z" />
    <glyph glyph-name="a" unicode="a" horiz-adv-x="1126" 
d="M801 0q-7 46 -10 137q-68 -81 -150.5 -119t-204.5 -38q-176 0 -271 82t-95 231q0 50 13 92t33 73.5t53.5 58t66 44.5t80.5 33t86 24t93 17t91.5 12t91.5 9.5t84 9.5v45q0 200 -193 200q-100 0 -154 -46t-55 -132h-251q6 165 129 258.5t331 93.5q124 0 209 -30.5
t133.5 -92.5t69 -142.5t20.5 -192.5v-295q0 -185 23 -332h-223zM762 498q-29 -4 -81.5 -10t-87 -10.5t-80.5 -13t-75.5 -21.5t-58 -32t-42 -48t-13.5 -66q0 -69 45.5 -108t130.5 -39q124 0 193 70t69 233v45z" />
    <glyph glyph-name="b" unicode="b" horiz-adv-x="1216" 
d="M1141 530q0 -253 -123.5 -401.5t-321.5 -148.5q-99 0 -184 41t-141 118v-139h-230v1487h246v-553q110 143 313 143t322 -147t119 -400zM889 530q0 167 -67.5 263t-188.5 96q-116 0 -184 -99t-68 -260q0 -162 70 -261t186 -99q117 0 184.5 97t67.5 263z" />
    <glyph glyph-name="c" unicode="c" horiz-adv-x="1105" 
d="M1049 373q-14 -191 -137 -297.5t-330 -106.5q-234 0 -370 152.5t-136 406.5q0 250 137 404.5t369 154.5q208 0 331 -107.5t134 -289.5h-254q-12 100 -66.5 153.5t-146.5 53.5q-117 0 -183.5 -98.5t-66.5 -266.5t67.5 -270t182.5 -102q92 0 148.5 55t70.5 158h250z" />
    <glyph glyph-name="d" unicode="d" horiz-adv-x="1218" 
d="M76 530q0 250 121.5 398.5t324.5 148.5q207 0 309 -141v551h246v-1487h-231v141q-55 -77 -140 -119t-184 -42q-205 0 -325.5 145.5t-120.5 404.5zM330 530q0 -166 66.5 -263t183.5 -97q118 0 187 95.5t69 264.5q0 166 -67.5 262.5t-184.5 96.5q-118 0 -186 -96.5
t-68 -262.5z" />
    <glyph glyph-name="e" unicode="e" horiz-adv-x="1155" 
d="M74 532q0 242 141.5 397.5t376.5 155.5q280 0 403 -217q84 -151 84 -411h-751q5 -140 73 -222.5t193 -82.5q171 0 223 163h260q-42 -171 -166.5 -257.5t-318.5 -86.5q-252 0 -385 148.5t-133 412.5zM829 637q-10 131 -78 200.5t-171 69.5q-106 0 -176 -69.5t-80 -200.5
h505z" />
    <glyph glyph-name="f" unicode="f" horiz-adv-x="686" 
d="M37 868v189h170v67q0 92 13.5 156t49 116t101.5 77.5t166 25.5q76 0 125 -14v-189q-36 7 -74 7q-77 0 -106 -45.5t-29 -147.5v-53h209v-189h-209v-868h-246v868h-170z" />
    <glyph glyph-name="g" unicode="g" horiz-adv-x="1208" 
d="M78 543q0 147 54.5 268.5t156 193.5t231.5 72q221 0 324 -157v137h225v-905q0 -139 -22 -238.5t-76 -177.5t-151 -117t-240 -39q-204 0 -320 86t-133 252h254q5 -78 57 -120t146 -42q125 0 186 77t61 247v108q-121 -157 -323 -157q-191 0 -310.5 140t-119.5 372zM332 555
q0 -154 66.5 -243t179.5 -89q111 0 180 89t69 237q0 151 -67 245.5t-182 94.5q-114 0 -180 -94t-66 -240z" />
    <glyph glyph-name="h" unicode="h" horiz-adv-x="1193" 
d="M387 1487v-561q103 151 318 151q203 0 301 -143q36 -52 47.5 -125.5t11.5 -202.5v-606h-246v590q0 53 -3.5 92.5t-15.5 80.5t-32 67t-56 42.5t-85 16.5q-120 0 -180 -84.5t-60 -269.5v-535h-246v1487h246z" />
    <glyph glyph-name="i" unicode="i" horiz-adv-x="528" 
d="M387 1057v-1057h-246v1057h246zM387 1487v-248h-246v248h246z" />
    <glyph glyph-name="j" unicode="j" horiz-adv-x="528" 
d="M-51 -217q36 -8 71 -8q33 0 56 11t35.5 27t19.5 46t8.5 57t1.5 70v1071h246v-1047q0 -65 -2 -110t-8.5 -93.5t-19 -80.5t-33.5 -62t-51.5 -47t-73.5 -27t-99 -10q-75 0 -151 12v191zM387 1487v-248h-246v248h246z" />
    <glyph glyph-name="k" unicode="k" horiz-adv-x="1060" 
d="M387 1487v-869l358 439h293l-405 -473l448 -584h-307l-387 524v-524h-246v1487h246z" />
    <glyph glyph-name="l" unicode="l" horiz-adv-x="528" 
d="M387 1487v-1487h-246v1487h246z" />
    <glyph glyph-name="m" unicode="m" horiz-adv-x="1816" 
d="M362 1057l-2 -142q47 75 134.5 118.5t191.5 43.5q220 0 299 -178q105 178 361 178q169 0 251 -94q91 -107 91 -321v-662h-246v621q0 268 -178 268q-226 0 -226 -369v-520h-245v621q0 268 -183 268q-223 0 -223 -369v-520h-246v1057h221z" />
    <glyph glyph-name="n" unicode="n" horiz-adv-x="1193" 
d="M369 920q60 80 148.5 118.5t187.5 38.5q112 0 182 -37t114 -108q64 -107 64 -326v-606h-246v590q0 53 -3.5 92.5t-15.5 80.5t-32 67t-56 42.5t-85 16.5q-120 0 -180 -84.5t-60 -269.5v-535h-246v1057h228v-137z" />
    <glyph glyph-name="o" unicode="o" horiz-adv-x="1202" 
d="M600 1085q242 0 385 -152.5t143 -404.5t-143.5 -404.5t-386.5 -152.5q-240 0 -382 152.5t-142 404.5t143 404.5t383 152.5zM600 897q-128 0 -199 -98.5t-71 -270.5q0 -170 70.5 -269t197.5 -99q130 0 202 98.5t72 269.5t-72 270t-200 99z" />
    <glyph glyph-name="p" unicode="p" horiz-adv-x="1216" 
d="M1141 528q0 -257 -122.5 -402.5t-322.5 -145.5q-214 0 -309 141v-533h-246v1469h230v-142q118 162 329 162q202 0 321.5 -149t119.5 -400zM889 528q0 166 -67.5 262.5t-184.5 96.5t-186.5 -97t-69.5 -262t67.5 -262.5t184.5 -97.5q121 0 188.5 96t67.5 264z" />
    <glyph glyph-name="q" unicode="q" horiz-adv-x="1218" 
d="M76 528q0 247 123 398t323 151q102 0 186.5 -40t137.5 -117v137h231v-1469h-246v533q-106 -141 -309 -141q-207 0 -326.5 143.5t-119.5 404.5zM330 528q0 -166 68 -263t186 -97q117 0 184.5 97t67.5 263q0 170 -69 264.5t-187 94.5q-117 0 -183.5 -96.5t-66.5 -262.5z
" />
    <glyph glyph-name="r" unicode="r" horiz-adv-x="796" 
d="M373 1057v-158q101 168 280 168q73 0 117 -10v-213q-49 10 -106 10q-148 0 -212.5 -96.5t-64.5 -294.5v-463h-246v1057h232z" />
    <glyph glyph-name="s" unicode="s" horiz-adv-x="1052" 
d="M315 338q0 -191 226 -191q88 0 140 35.5t52 96.5q0 37 -17 63.5t-59 45.5t-72.5 28.5t-97.5 25.5q-5 1 -8 2q-162 39 -230 72q-162 81 -163 250q0 145 119 232t321 87q212 0 325.5 -90t113.5 -262h-244q-4 93 -53 134.5t-150 41.5q-82 0 -130 -33t-48 -90q0 -25 9.5 -46
t31.5 -37.5t42 -28t58.5 -23.5t63 -18.5t71.5 -17.5q9 -2 13 -3t11 -3t13 -3q41 -11 71 -20.5t67.5 -24.5t63.5 -31t52.5 -39t42.5 -50t26.5 -63.5t10.5 -78.5q0 -153 -120 -240.5t-328 -87.5q-227 0 -349.5 94t-126.5 273h252z" />
    <glyph glyph-name="t" unicode="t" horiz-adv-x="698" 
d="M197 1319h245v-262h209v-189h-209v-497q0 -102 28 -146.5t99 -44.5q45 0 84 8v-188q-71 -18 -157 -18q-158 0 -228.5 80t-70.5 260v546h-170v189h170v262z" />
    <glyph glyph-name="u" unicode="u" horiz-adv-x="1193" 
d="M823 137q-58 -80 -146.5 -118.5t-187.5 -38.5q-194 0 -299 143q-36 51 -48.5 129t-12.5 205v600h244v-592q0 -53 3.5 -92t15.5 -80t32.5 -67t56.5 -43t86 -17q113 0 174 82q66 89 66 272v537h246v-1057h-230v137z" />
    <glyph glyph-name="v" unicode="v" horiz-adv-x="1069" 
d="M289 1057l160 -529q14 -46 27.5 -97.5t29 -115.5t24.5 -98h15q45 185 82 311l164 529h262l-369 -1057h-299l-369 1057h273z" />
    <glyph glyph-name="w" unicode="w" horiz-adv-x="1617" 
d="M281 1057l110 -529q13 -55 58 -317h14q27 157 63 319l121 527h344l123 -529q12 -52 31.5 -159.5t30.5 -157.5h14q36 235 55 317l113 529h231l-260 -1057h-332l-116 530q-12 53 -33 164t-33 164h-14q-8 -36 -32 -152t-38 -178l-119 -528h-323l-260 1057h252z" />
    <glyph glyph-name="x" unicode="x" horiz-adv-x="1030" 
d="M29 1057h301l133 -242q17 -33 55 -117h8q4 8 27.5 53.5t36.5 67.5l141 238h273l-338 -512l362 -545h-299l-137 244q-11 14 -39.5 69.5t-36.5 77.5h-8q-4 -12 -19.5 -40t-36 -62.5t-22.5 -38.5l-145 -250h-283l365 545z" />
    <glyph glyph-name="y" unicode="y" horiz-adv-x="1060" 
d="M86 -209q45 -16 107 -16q181 0 204 215l-381 1067h275l155 -529q16 -52 41 -154.5t41 -154.5h13q5 20 34.5 135t47.5 174l165 529h256l-368 -1028q-87 -248 -182 -348.5t-250 -100.5q-101 0 -158 12v199z" />
    <glyph glyph-name="z" unicode="z" horiz-adv-x="964" 
d="M641 877q-82 -11 -252 -11h-315v191h821v-185l-584 -690q71 8 264 8h340v-190h-864v186z" />
    <glyph glyph-name="braceleft" unicode="{" horiz-adv-x="673" 
d="M422 141q0 -103 40.5 -171t119.5 -68q32 0 53 8v-133q-43 -6 -78 -6q-326 0 -326 346v188q0 120 -50 194t-152 91v121q111 22 156.5 93t45.5 195v146q0 211 84 296t267 85q8 0 26.5 -1t26.5 -1v-127q-14 2 -39 2q-45 0 -77.5 -14.5t-51 -37.5t-29 -60.5t-13.5 -74
t-3 -88.5v-100q0 -171 -51.5 -260t-177.5 -113q70 -16 116 -48t70 -82t33.5 -107.5t9.5 -137.5v-135z" />
    <glyph glyph-name="bar" unicode="|" horiz-adv-x="501" 
d="M156 0v1485h190v-1485h-190z" />
    <glyph glyph-name="braceright" unicode="}" horiz-adv-x="673" 
d="M252 276q0 80 9.5 137.5t33.5 107.5t70 82t116 48q-126 24 -177.5 114t-51.5 259v100q0 52 -3 88.5t-13.5 74t-29 60.5t-51 37.5t-77.5 14.5q-25 0 -39 -2v127q8 0 26.5 1t26.5 1q183 0 266.5 -85t83.5 -296v-146q0 -123 46 -194.5t157 -93.5v-121q-102 -17 -152.5 -91
t-50.5 -194v-188q0 -346 -325 -346q-35 0 -78 6v133q21 -8 53 -8q79 0 119.5 68t40.5 171v135z" />
    <glyph glyph-name="asciitilde" unicode="~" 
d="M860 397q-49 0 -106.5 19.5t-102.5 43t-103.5 43t-109.5 19.5q-49 0 -90.5 -33t-89.5 -96l-117 113q74 101 137.5 146.5t151.5 45.5q50 0 108 -20t103 -43.5t103.5 -43.5t109.5 -20q49 0 87 31.5t87 97.5l123 -114q-77 -100 -139.5 -144.5t-151.5 -44.5z" />
    <glyph glyph-name="uni00A0" unicode="&#xa0;" horiz-adv-x="409" 
 />
    <glyph glyph-name="exclamdown" unicode="&#xa1;" horiz-adv-x="538" 
d="M133 809v285h273v-285h-273zM121 -393l51 1046h195l53 -1046h-299z" />
    <glyph glyph-name="cent" unicode="&#xa2;" horiz-adv-x="1105" 
d="M512 197q-199 17 -317.5 170t-118.5 387q0 233 118 385t318 172v207h133v-207q177 -12 283.5 -120t118.5 -276h-250q-12 79 -51.5 128t-100.5 63v-705q61 12 103 63t55 134h246q-13 -178 -119.5 -282.5t-284.5 -118.5v-228h-133v228zM326 758q0 -142 50 -238t136 -119
v705q-88 -23 -137 -115t-49 -233z" />
    <glyph glyph-name="sterling" unicode="&#xa3;" horiz-adv-x="1253" 
d="M100 207q97 10 135.5 76.5t38.5 216.5v133h-211v196h211v91q0 247 117.5 378.5t347.5 131.5q194 0 315.5 -102.5t121.5 -295.5h-248q0 195 -187 195q-117 0 -166 -80.5t-49 -243.5v-74h281v-196h-281v-103q0 -135 -28.5 -206.5t-98.5 -114.5q-3 -1 -7 -6t-7 -6
q173 10 264 10h525v-207h-1074v207z" />
    <glyph glyph-name="currency" unicode="&#xa4;" horiz-adv-x="1130" 
d="M563 1016q134 0 225 -68l146 146l121 -119l-158 -135q66 -93 66 -219q0 -146 -66 -232l147 -141l-116 -115l-142 148q-46 -32 -108 -50t-119 -18q-137 0 -223 63l-137 -143l-113 115l141 133q-69 97 -69 229q0 137 73 230l-153 137l123 117l137 -146q93 68 225 68z
M561 862q-96 0 -153.5 -71.5t-57.5 -178.5q0 -119 65 -183t144 -64q85 0 148 62.5t63 190.5q0 99 -56 171.5t-153 72.5z" />
    <glyph glyph-name="yen" unicode="&#xa5;" horiz-adv-x="1308" 
d="M403 782l-358 617h299q25 -62 154.5 -306t154.5 -305h13q27 67 162.5 314.5t158.5 296.5h279l-363 -617h230v-168h-326l-23 -59v-70h349v-168h-349v-317h-260v317h-350v168h350v72l-22 57h-328v168h229z" />
    <glyph glyph-name="brokenbar" unicode="&#xa6;" horiz-adv-x="501" 
d="M156 1421h188v-553h-188v553zM156 0v551h188v-551h-188z" />
    <glyph glyph-name="section" unicode="&#xa7;" horiz-adv-x="1128" 
d="M874 264q58 -52 80.5 -102t22.5 -113q0 -136 -119.5 -219.5t-308.5 -83.5q-204 0 -315 91.5t-125 268.5h241q18 -178 199 -178q79 0 127.5 38.5t48.5 101.5q0 30 -15.5 56.5t-36 44.5t-57 36.5t-62 28.5t-68 25.5t-58.5 21.5q-59 25 -99.5 44t-93 53.5t-84 70t-54.5 89
t-23 115.5q0 197 190 285q-52 48 -74 93t-22 104q0 133 117 219t297 86q190 0 302 -97.5t117 -263.5h-237q-2 87 -47 132.5t-131 45.5q-79 0 -124.5 -35.5t-45.5 -95.5q0 -59 39.5 -92t162.5 -84q178 -73 244 -112q159 -93 187 -228q6 -32 6 -67q0 -93 -47 -165.5
t-134 -113.5zM745 365q43 32 60.5 64t17.5 79q0 77 -46.5 124t-168.5 103l-217 99q-84 -57 -84 -152q0 -45 22.5 -83.5t64 -68t81.5 -50t94 -42.5z" />
    <glyph glyph-name="dieresis" unicode="&#xa8;" horiz-adv-x="1193" 
d="M702 1487h232v-246h-232v246zM262 1487h232v-246h-232v246z" />
    <glyph glyph-name="copyright" unicode="&#xa9;" horiz-adv-x="1699" 
d="M1245 610q-19 -158 -122.5 -249t-264.5 -91q-190 0 -302 128.5t-112 342.5q0 209 114 335t304 126q156 0 261 -92.5t122 -241.5h-178q-14 100 -66.5 153.5t-138.5 53.5q-111 0 -179.5 -91.5t-68.5 -242.5q0 -157 66.5 -249.5t177.5 -92.5q85 0 138 55.5t71 155.5h178z
M78 741q0 213 105.5 392t282.5 281t384 102q127 0 245 -39.5t213 -111t166 -167t109.5 -213.5t38.5 -244q0 -128 -40 -247.5t-112 -214t-167.5 -165.5t-212 -109t-240.5 -38q-215 0 -392 102t-278.5 279.5t-101.5 392.5zM209 741q0 -132 49 -252.5t133 -209t204 -141
t255 -52.5q110 0 211 35.5t178 98.5t134.5 145t87.5 179t30 197q0 174 -84.5 324.5t-232.5 240t-324 89.5q-138 0 -259.5 -55t-204 -145.5t-130 -209t-47.5 -244.5z" />
    <glyph glyph-name="ordfeminine" unicode="&#xaa;" horiz-adv-x="890" 
d="M623 686q-12 46 -15 92q-52 -62 -107 -88t-139 -26q-137 0 -213.5 61t-76.5 176q0 74 35.5 127.5t101.5 84.5t142.5 47t176.5 22l78 6v20q0 79 -43.5 125.5t-120.5 46.5q-78 0 -118 -29t-50 -102h-172q0 113 97 187.5t243 74.5q334 0 334 -358v-225q0 -127 23 -242h-176z
M537 1061q-140 -8 -217.5 -44t-77.5 -114q0 -108 153 -108q93 0 152 59t59 186v25z" />
    <glyph glyph-name="guillemotleft" unicode="&#xab;" horiz-adv-x="942" 
d="M289 553l180 -406h-207l-201 406l201 410h207zM680 553l182 -406h-207l-200 406l200 410h207z" />
    <glyph glyph-name="logicalnot" unicode="&#xac;" 
d="M932 612h-791v183h983v-592h-192v409z" />
    <glyph glyph-name="uni00AD" unicode="&#xad;" horiz-adv-x="794" 
d="M680 674v-187h-565v187h565z" />
    <glyph glyph-name="registered" unicode="&#xae;" horiz-adv-x="1699" 
d="M877 1190q307 0 307 -250q0 -77 -46.5 -131t-123.5 -78v-4q63 -16 96 -59.5t51 -120.5l33 -139q2 -6 8 -31.5t12.5 -47t10.5 -28.5h-172q-2 8 -13 50t-21 82.5t-13 55.5q-22 105 -55 137.5t-122 32.5h-118v-358h-166v889h332zM844 780q84 0 128 39t44 109q0 135 -170 135
h-135v-283h133zM78 741q0 213 105.5 392t282.5 281t384 102q127 0 245 -39.5t213 -111t166 -167t109.5 -213.5t38.5 -244q0 -128 -40 -247.5t-112 -214t-167.5 -165.5t-212 -109t-240.5 -38q-215 0 -392 102t-278.5 279.5t-101.5 392.5zM209 741q0 -132 49 -252.5t133 -209
t204 -141t255 -52.5q110 0 211 35.5t178 98.5t134.5 145t87.5 179t30 197q0 174 -84.5 324.5t-232.5 240t-324 89.5q-138 0 -259.5 -55t-204 -145.5t-130 -209t-47.5 -244.5z" />
    <glyph glyph-name="overscore" unicode="&#xaf;" horiz-adv-x="1128" 
d="M279 1444h571v-176h-571v176z" />
    <glyph glyph-name="degree" unicode="&#xb0;" horiz-adv-x="743" 
d="M680 1124q0 -128 -91.5 -214.5t-215.5 -86.5q-130 0 -220 85t-90 212q0 130 92.5 216.5t217.5 86.5q128 0 217.5 -86.5t89.5 -212.5zM373 942q72 0 123 53.5t51 128.5q0 73 -52.5 127t-121.5 54q-73 0 -123.5 -53.5t-50.5 -129.5q0 -74 50.5 -127t123.5 -53z" />
    <glyph glyph-name="plusminus" unicode="&#xb1;" 
d="M547 571h-363v172h363v342h194v-342h365v-172h-365v-319h-194v319zM184 172h922v-172h-922v172z" />
    <glyph glyph-name="twosuperior" unicode="&#xb2;" horiz-adv-x="733" 
d="M70 979q-4 28 -4 41q0 65 19 117t60 95t80 71.5t103 68.5q88 53 126 93t38 96q0 60 -33.5 91t-89.5 31q-131 0 -140 -172h-163q5 138 83 216.5t228 78.5q138 0 212.5 -65t74.5 -172q0 -87 -56.5 -151.5t-165.5 -135.5q-72 -46 -114.5 -82.5t-65.5 -81.5h402v-139h-594z
" />
    <glyph glyph-name="threesuperior" unicode="&#xb3;" horiz-adv-x="749" 
d="M221 1225q0 -70 41.5 -109t106.5 -39q67 0 107 33.5t40 89.5q0 123 -164 123q-27 0 -41 -2v127q14 -2 41 -2q78 0 117 32.5t39 90.5q0 54 -35 84t-96 30q-66 0 -101.5 -40.5t-37.5 -114.5h-164q6 138 85.5 208t217.5 70q136 0 215.5 -60t79.5 -169q0 -64 -39.5 -117
t-108.5 -71q73 -12 114.5 -63t41.5 -126q0 -116 -79 -181t-224 -65q-150 0 -235 74t-85 213h164v-16z" />
    <glyph glyph-name="acute" unicode="&#xb4;" horiz-adv-x="1210" 
d="M688 1487h266l-254 -268h-198z" />
    <glyph glyph-name="mu" unicode="&#xb5;" horiz-adv-x="1302" 
d="M393 1057v-572q0 -323 223 -323q62 0 104 24t64.5 71.5t31.5 105t9 135.5v559h248v-789q0 -57 20 -79.5t70 -22.5q28 0 74 12v-174q-59 -20 -147 -20q-172 0 -218 153q-84 -155 -249 -155q-78 0 -138.5 31t-89.5 85v-506h-248v1465h246z" />
    <glyph glyph-name="paragraph" unicode="&#xb6;" horiz-adv-x="1222" 
d="M844 -264v1605h-205v-1605h-168v821q-196 7 -309 137t-113 326q0 144 66 251t177.5 161.5t252.5 54.5h610v-146h-143v-1605h-168z" />
    <glyph glyph-name="middot" unicode="&#xb7;" horiz-adv-x="507" 
d="M393 854v-289h-278v289h278z" />
    <glyph glyph-name="cedilla" unicode="&#xb8;" horiz-adv-x="1132" 
d="M442 -420q-73 0 -110 12v113q24 -6 51 -6q115 0 115 84q0 34 -21.5 55t-66.5 21q-23 0 -37 -2v170h155v-86q68 -4 105 -54t37 -112q0 -80 -59.5 -137.5t-168.5 -57.5z" />
    <glyph glyph-name="onesuperior" unicode="&#xb9;" horiz-adv-x="522" 
d="M41 1528v106q103 2 160 39t61 109h156v-803h-172v549h-205z" />
    <glyph glyph-name="ordmasculine" unicode="&#xba;" horiz-adv-x="917" 
d="M246 1090q0 -137 55 -216t158 -79t158 79t55 216t-55 215.5t-158 78.5t-158 -78.5t-55 -215.5zM66 1090q0 88 24 164t71.5 135t123.5 93t174 34t174 -34t123.5 -93t71.5 -135t24 -164t-24 -164t-71.5 -135t-123.5 -93t-174 -34t-174 34t-123.5 93t-71.5 135t-24 164z" />
    <glyph glyph-name="guillemotright" unicode="&#xbb;" horiz-adv-x="937" 
d="M879 553l-201 -406h-205l178 406l-178 410h205zM487 553l-200 -406h-207l180 406l-180 410h207z" />
    <glyph glyph-name="onequarter" unicode="&#xbc;" horiz-adv-x="1542" 
d="M41 1145v106q103 2 160 39t61 109h156v-803h-172v549h-205zM1122 1427l-755 -1456h-148l754 1456h149zM1356 188v-188h-164v188h-369v131l312 484h221v-484h139v-131h-139zM1192 319q5 281 8 345h-16q-52 -110 -82 -156l-123 -189h213z" />
    <glyph glyph-name="onehalf" unicode="&#xbd;" horiz-adv-x="1562" 
d="M41 1145v106q103 2 160 39t61 109h156v-803h-172v549h-205zM1122 1427l-755 -1456h-148l754 1456h149zM899 0q-4 28 -4 41q0 65 19 117t60 95t80 71.5t103 68.5q88 53 126 93t38 96q0 60 -33.5 91.5t-89.5 31.5q-130 0 -139 -173h-164q5 138 83 216.5t228 78.5
q138 0 212.5 -65t74.5 -172q0 -87 -56 -151.5t-165 -135.5q-72 -46 -114.5 -82.5t-65.5 -81.5h401v-139h-594z" />
    <glyph glyph-name="threequarters" unicode="&#xbe;" horiz-adv-x="1769" 
d="M221 842q0 -70 41.5 -109t106.5 -39q67 0 107 33.5t40 89.5q0 123 -164 123q-27 0 -41 -2v127q14 -2 41 -2q78 0 117 32.5t39 90.5q0 54 -35 84t-96 30q-66 0 -101.5 -40.5t-37.5 -114.5h-164q6 138 85.5 208t217.5 70q136 0 215.5 -60t79.5 -169q0 -64 -39.5 -117
t-108.5 -71q73 -12 114.5 -63t41.5 -126q0 -116 -79 -181t-224 -65q-150 0 -235 74t-85 213h164v-16zM1350 1427l-756 -1456h-148l754 1456h150zM1583 188v-188h-164v188h-368v131l311 484h221v-484h139v-131h-139zM1419 319q5 281 8 345h-16q-52 -110 -82 -156l-123 -189
h213z" />
    <glyph glyph-name="questiondown" unicode="&#xbf;" horiz-adv-x="1064" 
d="M705 813h-275v281h275v-281zM688 637q0 -153 -46 -247t-181 -197q-81 -64 -114.5 -111t-33.5 -105q0 -90 57.5 -138t151.5 -48q110 0 175 70.5t65 212.5h260q0 -232 -140 -363t-366 -131q-204 0 -335.5 104t-131.5 287q0 106 53.5 189t159.5 168q41 35 60 51.5t50.5 50
t46 59.5t26.5 63.5t12 78.5v37h231v-31z" />
    <glyph glyph-name="Agrave" unicode="&#xc0;" horiz-adv-x="1419" 
d="M866 1487l551 -1487h-274l-142 401h-591l-138 -401h-268l547 1487h315zM850 850q-94 279 -135 424h-13q-8 -25 -39 -128t-52 -168t-44 -128l-86 -234h451zM362 1858h279l197 -244h-209z" />
    <glyph glyph-name="Aacute" unicode="&#xc1;" horiz-adv-x="1419" 
d="M866 1487l551 -1487h-274l-142 401h-591l-138 -401h-268l547 1487h315zM850 850q-94 279 -135 424h-13q-8 -25 -39 -128t-52 -168t-44 -128l-86 -234h451zM791 1858h278l-272 -244h-207z" />
    <glyph glyph-name="Acircumflex" unicode="&#xc2;" horiz-adv-x="1419" 
d="M866 1487l551 -1487h-274l-142 401h-591l-138 -401h-268l547 1487h315zM850 850q-94 279 -135 424h-13q-8 -25 -39 -128t-52 -168t-44 -128l-86 -234h451zM561 1858h297l203 -246h-225l-129 147l-134 -147h-215z" />
    <glyph glyph-name="Atilde" unicode="&#xc3;" horiz-adv-x="1419" 
d="M866 1487l551 -1487h-274l-142 401h-591l-138 -401h-268l547 1487h315zM850 850q-94 279 -135 424h-13q-8 -25 -39 -128t-52 -168t-44 -128l-86 -234h451zM365 1606q6 116 59.5 181.5t140.5 65.5q45 0 143.5 -40.5t131.5 -40.5q64 0 73 79h136q-6 -118 -59 -182.5
t-144 -64.5q-45 0 -143.5 41t-131.5 41q-63 0 -71 -80h-135z" />
    <glyph glyph-name="Adieresis" unicode="&#xc4;" horiz-adv-x="1419" 
d="M866 1487l551 -1487h-274l-142 401h-591l-138 -401h-268l547 1487h315zM850 850q-94 279 -135 424h-13q-8 -25 -39 -128t-52 -168t-44 -128l-86 -234h451zM813 1847h234v-235h-234v235zM373 1847h233v-235h-233v235z" />
    <glyph glyph-name="Aring" unicode="&#xc5;" horiz-adv-x="1419" 
d="M866 1487l551 -1487h-274l-142 401h-591l-138 -401h-268l547 1487h315zM850 850q-94 279 -135 424h-13q-8 -25 -39 -128t-52 -168t-44 -128l-86 -234h451zM709 1436q-104 0 -172 65t-68 160t68 160t172 65q107 0 173 -64.5t66 -160.5t-66 -160.5t-173 -64.5zM709 1548
q53 0 82.5 32t29.5 81t-30 81t-82 32t-82.5 -32t-30.5 -81t30.5 -81t82.5 -32z" />
    <glyph glyph-name="AE" unicode="&#xc6;" horiz-adv-x="1959" 
d="M735 1487h1100v-215h-672l49 -402h590v-215h-567l51 -438h604v-217h-835l-51 420h-529l-201 -420h-278zM979 635l-74 639h-22l-305 -639h401z" />
    <glyph glyph-name="Ccedilla" unicode="&#xc7;" horiz-adv-x="1425" 
d="M1372 510q-30 -240 -192 -390.5t-426 -150.5q-306 0 -488 202t-182 560q0 225 84 404t238.5 281t351.5 102q256 0 421.5 -145.5t182.5 -385.5h-266q-17 149 -108.5 236.5t-231.5 87.5q-184 0 -295 -157.5t-111 -412.5q0 -254 110.5 -409.5t293.5 -155.5q146 0 235.5 89
t110.5 245h272zM713 -420q-74 0 -111 12v113q24 -6 51 -6q115 0 115 84q0 34 -21.5 55t-66.5 21q-23 0 -37 -2v170h158v-86q67 -4 103 -54.5t36 -111.5q0 -80 -59 -137.5t-168 -57.5z" />
    <glyph glyph-name="Egrave" unicode="&#xc8;" horiz-adv-x="1234" 
d="M1124 1487v-215h-704v-408h663v-215h-663v-432h733v-217h-993v1487h964zM313 1858h279l196 -244h-208z" />
    <glyph glyph-name="Eacute" unicode="&#xc9;" horiz-adv-x="1234" 
d="M1124 1487v-215h-704v-408h663v-215h-663v-432h733v-217h-993v1487h964zM741 1858h279l-272 -244h-207z" />
    <glyph glyph-name="Ecircumflex" unicode="&#xca;" horiz-adv-x="1234" 
d="M1124 1487v-215h-704v-408h663v-215h-663v-432h733v-217h-993v1487h964zM512 1858h297l203 -246h-226l-129 147l-133 -147h-215z" />
    <glyph glyph-name="Edieresis" unicode="&#xcb;" horiz-adv-x="1234" 
d="M1124 1487v-215h-704v-408h663v-215h-663v-432h733v-217h-993v1487h964zM764 1847h233v-235h-233v235zM324 1847h233v-235h-233v235z" />
    <glyph glyph-name="Igrave" unicode="&#xcc;" horiz-adv-x="577" 
d="M418 1487v-1487h-258v1487h258zM-57 1858h278l197 -244h-209z" />
    <glyph glyph-name="Iacute" unicode="&#xcd;" horiz-adv-x="577" 
d="M418 1487v-1487h-258v1487h258zM371 1858h278l-272 -244h-207z" />
    <glyph glyph-name="Icircumflex" unicode="&#xce;" horiz-adv-x="577" 
d="M418 1487v-1487h-258v1487h258zM141 1858h297l203 -246h-225l-129 147l-133 -147h-215z" />
    <glyph glyph-name="Idieresis" unicode="&#xcf;" horiz-adv-x="577" 
d="M418 1487v-1487h-258v1487h258zM360 1847h234v-235h-234v235zM-14 1847h233v-235h-233v235z" />
    <glyph glyph-name="Eth" unicode="&#xd0;" horiz-adv-x="1515" 
d="M1081 1405q351 -176 351 -655q0 -310 -162 -508q-198 -242 -580 -242h-465v655h-178v203h178v629h434q257 0 422 -82zM1016 332q145 133 145 411q0 166 -44.5 276t-141.5 175q-119 78 -328 78h-162v-414h244v-203h-244v-440h160q242 0 371 117z" />
    <glyph glyph-name="Ntilde" unicode="&#xd1;" horiz-adv-x="1529" 
d="M520 1487q108 -199 379 -742q178 -351 229 -477h15q-13 191 -13 480l-2 739h242v-1487h-362q-37 66 -189 373t-170 338q-187 356 -252 522h-14q16 -400 16 -494l2 -739h-241v1487h360zM420 1606q6 116 60 181.5t141 65.5q45 0 143 -40.5t131 -40.5q65 0 74 79h135
q-6 -118 -59 -182.5t-144 -64.5q-45 0 -143 41t-131 41q-64 0 -72 -80h-135z" />
    <glyph glyph-name="Ograve" unicode="&#xd2;" horiz-adv-x="1548" 
d="M774 1518q206 0 363 -97.5t242 -273t85 -404.5t-86 -405t-243 -272.5t-363 -96.5q-208 0 -364.5 96.5t-240 272t-83.5 405.5q0 225 84.5 401t242 275t363.5 99zM774 1311q-196 0 -310 -156.5t-114 -411.5t115.5 -411t306.5 -156q190 0 308 160t118 407q0 256 -114.5 412
t-309.5 156zM426 1858h279l196 -244h-209z" />
    <glyph glyph-name="Oacute" unicode="&#xd3;" horiz-adv-x="1548" 
d="M774 1518q206 0 363 -97.5t242 -273t85 -404.5t-86 -405t-243 -272.5t-363 -96.5q-208 0 -364.5 96.5t-240 272t-83.5 405.5q0 225 84.5 401t242 275t363.5 99zM774 1311q-196 0 -310 -156.5t-114 -411.5t115.5 -411t306.5 -156q190 0 308 160t118 407q0 256 -114.5 412
t-309.5 156zM854 1858h279l-273 -244h-207z" />
    <glyph glyph-name="Ocircumflex" unicode="&#xd4;" horiz-adv-x="1548" 
d="M774 1518q206 0 363 -97.5t242 -273t85 -404.5t-86 -405t-243 -272.5t-363 -96.5q-208 0 -364.5 96.5t-240 272t-83.5 405.5q0 225 84.5 401t242 275t363.5 99zM774 1311q-196 0 -310 -156.5t-114 -411.5t115.5 -411t306.5 -156q190 0 308 160t118 407q0 256 -114.5 412
t-309.5 156zM625 1858h297l202 -246h-225l-129 147l-133 -147h-215z" />
    <glyph glyph-name="Otilde" unicode="&#xd5;" horiz-adv-x="1548" 
d="M774 1518q206 0 363 -97.5t242 -273t85 -404.5t-86 -405t-243 -272.5t-363 -96.5q-208 0 -364.5 96.5t-240 272t-83.5 405.5q0 225 84.5 401t242 275t363.5 99zM774 1311q-196 0 -310 -156.5t-114 -411.5t115.5 -411t306.5 -156q190 0 308 160t118 407q0 256 -114.5 412
t-309.5 156zM428 1606q6 116 60 181.5t141 65.5q45 0 143 -40.5t131 -40.5q65 0 74 79h135q-6 -118 -59 -182.5t-144 -64.5q-45 0 -143 41t-131 41q-64 0 -72 -80h-135z" />
    <glyph glyph-name="Odieresis" unicode="&#xd6;" horiz-adv-x="1548" 
d="M774 1518q206 0 363 -97.5t242 -273t85 -404.5t-86 -405t-243 -272.5t-363 -96.5q-208 0 -364.5 96.5t-240 272t-83.5 405.5q0 225 84.5 401t242 275t363.5 99zM774 1311q-196 0 -310 -156.5t-114 -411.5t115.5 -411t306.5 -156q190 0 308 160t118 407q0 256 -114.5 412
t-309.5 156zM877 1847h233v-235h-233v235zM436 1847h234v-235h-234v235z" />
    <glyph glyph-name="multiply" unicode="&#xd7;" 
d="M215 252l299 299l-311 311l133 133l311 -309l299 299l129 -131l-299 -299l314 -311l-136 -133l-311 313l-299 -301z" />
    <glyph glyph-name="Oslash" unicode="&#xd8;" horiz-adv-x="1548" 
d="M131 12l131 176q-178 215 -178 555q0 225 84.5 401t242 275t363.5 99q221 0 389 -117l113 151l127 -98l-121 -162q182 -213 182 -549q0 -347 -190 -560.5t-500 -213.5q-229 0 -391 113l-123 -168zM774 174q189 0 306.5 160.5t117.5 408.5q0 199 -72 340l-604 -817
q106 -92 252 -92zM1026 1219q-110 92 -252 92q-196 0 -310 -156.5t-114 -411.5q0 -201 72 -342z" />
    <glyph glyph-name="Ugrave" unicode="&#xd9;" horiz-adv-x="1439" 
d="M406 616q0 -67 7.5 -125t28.5 -118t54.5 -102t90.5 -68.5t132 -26.5q315 0 315 440v871h260v-881q0 -311 -148 -474t-427 -163q-155 0 -265.5 41.5t-178.5 126t-99 204t-31 282.5v864h261v-871zM373 1858h278l197 -244h-209z" />
    <glyph glyph-name="Uacute" unicode="&#xda;" horiz-adv-x="1439" 
d="M406 616q0 -67 7.5 -125t28.5 -118t54.5 -102t90.5 -68.5t132 -26.5q315 0 315 440v871h260v-881q0 -311 -148 -474t-427 -163q-155 0 -265.5 41.5t-178.5 126t-99 204t-31 282.5v864h261v-871zM801 1858h278l-272 -244h-207z" />
    <glyph glyph-name="Ucircumflex" unicode="&#xdb;" horiz-adv-x="1439" 
d="M406 616q0 -67 7.5 -125t28.5 -118t54.5 -102t90.5 -68.5t132 -26.5q315 0 315 440v871h260v-881q0 -311 -148 -474t-427 -163q-155 0 -265.5 41.5t-178.5 126t-99 204t-31 282.5v864h261v-871zM571 1858h297l203 -246h-225l-129 147l-133 -147h-215z" />
    <glyph glyph-name="Udieresis" unicode="&#xdc;" horiz-adv-x="1439" 
d="M406 616q0 -67 7.5 -125t28.5 -118t54.5 -102t90.5 -68.5t132 -26.5q315 0 315 440v871h260v-881q0 -311 -148 -474t-427 -163q-155 0 -265.5 41.5t-178.5 126t-99 204t-31 282.5v864h261v-871zM823 1847h234v-235h-234v235zM383 1847h233v-235h-233v235z" />
    <glyph glyph-name="Yacute" unicode="&#xdd;" horiz-adv-x="1259" 
d="M4 1487h301q24 -60 162.5 -331.5t163.5 -336.5h10q28 71 174.5 347t167.5 321h277l-500 -883v-604h-260v604zM713 1858h278l-272 -244h-207z" />
    <glyph glyph-name="Thorn" unicode="&#xde;" horiz-adv-x="1310" 
d="M418 1487v-240h219q126 0 220 -14t169 -55q103 -56 157 -161.5t54 -242.5q0 -265 -209 -393q-128 -74 -397 -74h-213v-307h-258v1487h258zM625 518q156 0 223 37q121 69 121 231q0 73 -32.5 130.5t-94.5 89.5q-59 30 -215 30h-209v-518h207z" />
    <glyph glyph-name="germandbls" unicode="&#xdf;" horiz-adv-x="1157" 
d="M141 991q0 123 24 215.5t76 161.5t140 104t211 35q206 0 319 -98t113 -262q0 -119 -65.5 -200.5t-196.5 -117.5v-8q151 -20 238 -125.5t87 -251.5q0 -201 -132 -327.5t-337 -126.5q-44 0 -102 10v195q29 -7 82 -7q108 0 173 73.5t65 195.5q0 134 -67.5 198t-209.5 66h-39
v190h33q113 2 174 58t61 166q0 80 -54.5 135t-143.5 55q-108 0 -155.5 -73t-47.5 -195v-1057h-246v991z" />
    <glyph glyph-name="agrave" unicode="&#xe0;" horiz-adv-x="1126" 
d="M801 0q-7 46 -10 137q-68 -81 -150.5 -119t-204.5 -38q-176 0 -271 82t-95 231q0 50 13 92t33 73.5t53.5 58t66 44.5t80.5 33t86 24t93 17t91.5 12t91.5 9.5t84 9.5v45q0 200 -193 200q-100 0 -154 -46t-55 -132h-251q6 165 129 258.5t331 93.5q124 0 209 -30.5
t133.5 -92.5t69 -142.5t20.5 -192.5v-295q0 -185 23 -332h-223zM762 498q-29 -4 -81.5 -10t-87 -10.5t-80.5 -13t-75.5 -21.5t-58 -32t-42 -48t-13.5 -66q0 -69 45.5 -108t130.5 -39q124 0 193 70t69 233v45zM238 1487h268l186 -268h-205z" />
    <glyph glyph-name="aacute" unicode="&#xe1;" horiz-adv-x="1126" 
d="M801 0q-7 46 -10 137q-68 -81 -150.5 -119t-204.5 -38q-176 0 -271 82t-95 231q0 50 13 92t33 73.5t53.5 58t66 44.5t80.5 33t86 24t93 17t91.5 12t91.5 9.5t84 9.5v45q0 200 -193 200q-100 0 -154 -46t-55 -132h-251q6 165 129 258.5t331 93.5q124 0 209 -30.5
t133.5 -92.5t69 -142.5t20.5 -192.5v-295q0 -185 23 -332h-223zM762 498q-29 -4 -81.5 -10t-87 -10.5t-80.5 -13t-75.5 -21.5t-58 -32t-42 -48t-13.5 -66q0 -69 45.5 -108t130.5 -39q124 0 193 70t69 233v45zM645 1487h266l-254 -268h-198z" />
    <glyph glyph-name="acircumflex" unicode="&#xe2;" horiz-adv-x="1126" 
d="M801 0q-7 46 -10 137q-68 -81 -150.5 -119t-204.5 -38q-176 0 -271 82t-95 231q0 50 13 92t33 73.5t53.5 58t66 44.5t80.5 33t86 24t93 17t91.5 12t91.5 9.5t84 9.5v45q0 200 -193 200q-100 0 -154 -46t-55 -132h-251q6 165 129 258.5t331 93.5q124 0 209 -30.5
t133.5 -92.5t69 -142.5t20.5 -192.5v-295q0 -185 23 -332h-223zM762 498q-29 -4 -81.5 -10t-87 -10.5t-80.5 -13t-75.5 -21.5t-58 -32t-42 -48t-13.5 -66q0 -69 45.5 -108t130.5 -39q124 0 193 70t69 233v45zM422 1487h295l194 -268h-215l-129 165l-131 -165h-211z" />
    <glyph glyph-name="atilde" unicode="&#xe3;" horiz-adv-x="1126" 
d="M801 0q-7 46 -10 137q-68 -81 -150.5 -119t-204.5 -38q-176 0 -271 82t-95 231q0 50 13 92t33 73.5t53.5 58t66 44.5t80.5 33t86 24t93 17t91.5 12t91.5 9.5t84 9.5v45q0 200 -193 200q-100 0 -154 -46t-55 -132h-251q6 165 129 258.5t331 93.5q124 0 209 -30.5
t133.5 -92.5t69 -142.5t20.5 -192.5v-295q0 -185 23 -332h-223zM762 498q-29 -4 -81.5 -10t-87 -10.5t-80.5 -13t-75.5 -21.5t-58 -32t-42 -48t-13.5 -66q0 -69 45.5 -108t130.5 -39q124 0 193 70t69 233v45zM219 1229q6 121 59.5 187.5t141.5 66.5q48 0 147.5 -42
t134.5 -42q29 0 52.5 21t27.5 61h133q-4 -120 -57.5 -187t-142.5 -67q-47 0 -147 43t-134 43q-30 0 -54 -20.5t-28 -63.5h-133z" />
    <glyph glyph-name="adieresis" unicode="&#xe4;" horiz-adv-x="1126" 
d="M801 0q-7 46 -10 137q-68 -81 -150.5 -119t-204.5 -38q-176 0 -271 82t-95 231q0 50 13 92t33 73.5t53.5 58t66 44.5t80.5 33t86 24t93 17t91.5 12t91.5 9.5t84 9.5v45q0 200 -193 200q-100 0 -154 -46t-55 -132h-251q6 165 129 258.5t331 93.5q124 0 209 -30.5
t133.5 -92.5t69 -142.5t20.5 -192.5v-295q0 -185 23 -332h-223zM762 498q-29 -4 -81.5 -10t-87 -10.5t-80.5 -13t-75.5 -21.5t-58 -32t-42 -48t-13.5 -66q0 -69 45.5 -108t130.5 -39q124 0 193 70t69 233v45zM672 1487h231v-246h-231v246zM231 1487h232v-246h-232v246z" />
    <glyph glyph-name="aring" unicode="&#xe5;" horiz-adv-x="1126" 
d="M801 0q-7 46 -10 137q-68 -81 -150.5 -119t-204.5 -38q-176 0 -271 82t-95 231q0 50 13 92t33 73.5t53.5 58t66 44.5t80.5 33t86 24t93 17t91.5 12t91.5 9.5t84 9.5v45q0 200 -193 200q-100 0 -154 -46t-55 -132h-251q6 165 129 258.5t331 93.5q124 0 209 -30.5
t133.5 -92.5t69 -142.5t20.5 -192.5v-295q0 -185 23 -332h-223zM762 498q-29 -4 -81.5 -10t-87 -10.5t-80.5 -13t-75.5 -21.5t-58 -32t-42 -48t-13.5 -66q0 -69 45.5 -108t130.5 -39q124 0 193 70t69 233v45zM565 1153q-102 0 -168.5 64.5t-66.5 156.5q0 94 66 158.5
t169 64.5t169.5 -64.5t66.5 -158.5q0 -92 -66.5 -156.5t-169.5 -64.5zM565 1266q52 0 81.5 31t29.5 77q0 49 -29.5 80t-81.5 31t-81 -31t-29 -80q0 -46 29 -77t81 -31z" />
    <glyph glyph-name="ae" unicode="&#xe6;" horiz-adv-x="1800" 
d="M453 -29q-108 0 -192.5 34t-136.5 107t-52 177q0 59 17 107.5t46.5 84.5t73.5 64t95 46t114 31t126.5 19t137.5 8l80 2v13q-6 131 -53 190t-150 59q-191 0 -205 -178h-250q17 169 136.5 259.5t314.5 90.5q238 0 344 -165q128 165 363 165q226 0 344 -149.5t118 -413.5
v-59h-725q5 -140 67.5 -228t184.5 -88q83 0 133.5 40t81.5 126h248q-18 -87 -62.5 -154t-106.5 -107.5t-133.5 -60.5t-149.5 -20q-128 0 -236.5 51.5t-163.5 147.5q-64 -100 -170 -149.5t-239 -49.5zM496 145q133 0 200 76t68 248v14h-64q-383 0 -383 -184
q0 -69 47.5 -111.5t131.5 -42.5zM1483 639q-11 129 -72 200.5t-164 71.5q-105 0 -170 -74t-76 -198h482z" />
    <glyph glyph-name="ccedilla" unicode="&#xe7;" horiz-adv-x="1103" 
d="M1049 373q-14 -191 -137 -297.5t-330 -106.5q-234 0 -370 152.5t-136 406.5q0 250 137 404.5t369 154.5q208 0 331 -107.5t134 -289.5h-254q-12 100 -66.5 153.5t-146.5 53.5q-117 0 -183.5 -98.5t-66.5 -266.5t67.5 -270t182.5 -102q92 0 148.5 55t70.5 158h250z
M532 -420q-73 0 -110 12v113q24 -6 51 -6q115 0 115 84q0 34 -21.5 55t-66.5 21q-23 0 -37 -2v170h155v-86q68 -4 105 -54t37 -112q0 -80 -59.5 -137.5t-168.5 -57.5z" />
    <glyph glyph-name="egrave" unicode="&#xe8;" horiz-adv-x="1155" 
d="M74 532q0 242 141.5 397.5t376.5 155.5q280 0 403 -217q84 -151 84 -411h-751q5 -140 73 -222.5t193 -82.5q171 0 223 163h260q-42 -171 -166.5 -257.5t-318.5 -86.5q-252 0 -385 148.5t-133 412.5zM829 637q-10 131 -78 200.5t-171 69.5q-106 0 -176 -69.5t-80 -200.5
h505zM260 1487h268l187 -268h-205z" />
    <glyph glyph-name="eacute" unicode="&#xe9;" horiz-adv-x="1155" 
d="M74 532q0 242 141.5 397.5t376.5 155.5q280 0 403 -217q84 -151 84 -411h-751q5 -140 73 -222.5t193 -82.5q171 0 223 163h260q-42 -171 -166.5 -257.5t-318.5 -86.5q-252 0 -385 148.5t-133 412.5zM829 637q-10 131 -78 200.5t-171 69.5q-106 0 -176 -69.5t-80 -200.5
h505zM668 1487h266l-254 -268h-199z" />
    <glyph glyph-name="ecircumflex" unicode="&#xea;" horiz-adv-x="1155" 
d="M74 532q0 242 141.5 397.5t376.5 155.5q280 0 403 -217q84 -151 84 -411h-751q5 -140 73 -222.5t193 -82.5q171 0 223 163h260q-42 -171 -166.5 -257.5t-318.5 -86.5q-252 0 -385 148.5t-133 412.5zM829 637q-10 131 -78 200.5t-171 69.5q-106 0 -176 -69.5t-80 -200.5
h505zM444 1487h295l195 -268h-215l-129 165l-131 -165h-211z" />
    <glyph glyph-name="edieresis" unicode="&#xeb;" horiz-adv-x="1155" 
d="M74 532q0 242 141.5 397.5t376.5 155.5q280 0 403 -217q84 -151 84 -411h-751q5 -140 73 -222.5t193 -82.5q171 0 223 163h260q-42 -171 -166.5 -257.5t-318.5 -86.5q-252 0 -385 148.5t-133 412.5zM829 637q-10 131 -78 200.5t-171 69.5q-106 0 -176 -69.5t-80 -200.5
h505zM694 1487h232v-246h-232v246zM254 1487h231v-246h-231v246z" />
    <glyph glyph-name="igrave" unicode="&#xec;" horiz-adv-x="528" 
d="M387 1057v-1057h-246v1057h246zM0 1487h246l157 -268h-188z" />
    <glyph glyph-name="iacute" unicode="&#xed;" horiz-adv-x="528" 
d="M387 1057v-1057h-246v1057h246zM283 1487h245l-215 -268h-188z" />
    <glyph glyph-name="icircumflex" unicode="&#xee;" horiz-adv-x="528" 
d="M387 1057v-1057h-246v1057h246zM129 1487h272l172 -268h-194l-117 161l-117 -161h-190z" />
    <glyph glyph-name="idieresis" unicode="&#xef;" horiz-adv-x="528" 
d="M387 1057v-1057h-246v1057h246zM328 1487h231v-246h-231v246zM-31 1487h232v-246h-232v246z" />
    <glyph glyph-name="eth" unicode="&#xf0;" horiz-adv-x="1175" 
d="M584 -31q-233 0 -371.5 152t-138.5 389q0 115 38 214t101 165.5t145.5 103.5t171.5 37q71 0 121 -14.5t105 -50.5l10 6q-25 28 -60.5 68t-55 62t-48.5 52.5t-59 60.5l-203 -112l-78 112l182 101q-97 91 -200 172h276q65 -57 94 -80l183 104l77 -112l-155 -90
q193 -189 287 -372.5t94 -389.5q0 -163 -59 -292.5t-178 -207.5t-279 -78zM586 158q87 0 148.5 49.5t89.5 127.5t28 175q0 149 -68.5 247.5t-193.5 98.5q-87 0 -148.5 -49.5t-88.5 -127t-27 -175.5q0 -151 66 -248.5t194 -97.5z" />
    <glyph glyph-name="ntilde" unicode="&#xf1;" horiz-adv-x="1193" 
d="M369 920q60 80 148.5 118.5t187.5 38.5q112 0 182 -37t114 -108q64 -107 64 -326v-606h-246v590q0 53 -3.5 92.5t-15.5 80.5t-32 67t-56 42.5t-85 16.5q-120 0 -180 -84.5t-60 -269.5v-535h-246v1057h228v-137zM250 1229q6 121 59.5 187.5t141.5 66.5q48 0 147.5 -42
t134.5 -42q29 0 52.5 21t27.5 61h133q-4 -120 -58 -187t-143 -67q-47 0 -146.5 43t-133.5 43q-30 0 -54 -20.5t-28 -63.5h-133z" />
    <glyph glyph-name="ograve" unicode="&#xf2;" horiz-adv-x="1202" 
d="M600 1085q242 0 385 -152.5t143 -404.5t-143.5 -404.5t-386.5 -152.5q-240 0 -382 152.5t-142 404.5t143 404.5t383 152.5zM600 897q-128 0 -199 -98.5t-71 -270.5q0 -170 70.5 -269t197.5 -99q130 0 202 98.5t72 269.5t-72 270t-200 99zM270 1487h269l186 -268h-205z
" />
    <glyph glyph-name="oacute" unicode="&#xf3;" horiz-adv-x="1202" 
d="M600 1085q242 0 385 -152.5t143 -404.5t-143.5 -404.5t-386.5 -152.5q-240 0 -382 152.5t-142 404.5t143 404.5t383 152.5zM600 897q-128 0 -199 -98.5t-71 -270.5q0 -170 70.5 -269t197.5 -99q130 0 202 98.5t72 269.5t-72 270t-200 99zM678 1487h266l-254 -268h-198z
" />
    <glyph glyph-name="ocircumflex" unicode="&#xf4;" horiz-adv-x="1202" 
d="M600 1085q242 0 385 -152.5t143 -404.5t-143.5 -404.5t-386.5 -152.5q-240 0 -382 152.5t-142 404.5t143 404.5t383 152.5zM600 897q-128 0 -199 -98.5t-71 -270.5q0 -170 70.5 -269t197.5 -99q130 0 202 98.5t72 269.5t-72 270t-200 99zM455 1487h295l194 -268h-215
l-129 165l-131 -165h-211z" />
    <glyph glyph-name="otilde" unicode="&#xf5;" horiz-adv-x="1202" 
d="M600 1085q242 0 385 -152.5t143 -404.5t-143.5 -404.5t-386.5 -152.5q-240 0 -382 152.5t-142 404.5t143 404.5t383 152.5zM600 897q-128 0 -199 -98.5t-71 -270.5q0 -170 70.5 -269t197.5 -99q130 0 202 98.5t72 269.5t-72 270t-200 99zM252 1229q6 121 59.5 187.5
t141.5 66.5q48 0 147.5 -42t134.5 -42q29 0 52.5 21t27.5 61h133q-4 -120 -57.5 -187t-142.5 -67q-47 0 -147 43t-134 43q-30 0 -54 -20.5t-28 -63.5h-133z" />
    <glyph glyph-name="odieresis" unicode="&#xf6;" horiz-adv-x="1202" 
d="M600 1085q242 0 385 -152.5t143 -404.5t-143.5 -404.5t-386.5 -152.5q-240 0 -382 152.5t-142 404.5t143 404.5t383 152.5zM600 897q-128 0 -199 -98.5t-71 -270.5q0 -170 70.5 -269t197.5 -99q130 0 202 98.5t72 269.5t-72 270t-200 99zM705 1487h231v-246h-231v246z
M264 1487h232v-246h-232v246z" />
    <glyph glyph-name="divide" unicode="&#xf7;" 
d="M139 643h1012v-180h-1012v180zM535 317h219v-221h-219v221zM535 1006h219v-226h-219v226z" />
    <glyph glyph-name="oslash" unicode="&#xf8;" horiz-adv-x="1208" 
d="M102 -20l113 149q-137 149 -137 399q0 252 143 404.5t383 152.5q160 0 277 -69l106 143l113 -88l-109 -143q142 -155 142 -400q0 -252 -144 -404.5t-387 -152.5q-149 0 -276 68l-111 -148zM600 154q134 0 207.5 100.5t73.5 275.5q0 113 -35 203l-397 -530q64 -49 151 -49
zM758 852q-64 49 -154 49q-130 0 -203 -100.5t-73 -274.5q0 -116 32 -198z" />
    <glyph glyph-name="ugrave" unicode="&#xf9;" horiz-adv-x="1193" 
d="M823 137q-58 -80 -146.5 -118.5t-187.5 -38.5q-194 0 -299 143q-36 51 -48.5 129t-12.5 205v600h244v-592q0 -53 3.5 -92t15.5 -80t32.5 -67t56.5 -43t86 -17q113 0 174 82q66 89 66 272v537h246v-1057h-230v137zM264 1487h268l187 -268h-205z" />
    <glyph glyph-name="uacute" unicode="&#xfa;" horiz-adv-x="1193" 
d="M823 137q-58 -80 -146.5 -118.5t-187.5 -38.5q-194 0 -299 143q-36 51 -48.5 129t-12.5 205v600h244v-592q0 -53 3.5 -92t15.5 -80t32.5 -67t56.5 -43t86 -17q113 0 174 82q66 89 66 272v537h246v-1057h-230v137zM672 1487h266l-254 -268h-199z" />
    <glyph glyph-name="ucircumflex" unicode="&#xfb;" horiz-adv-x="1193" 
d="M823 137q-58 -80 -146.5 -118.5t-187.5 -38.5q-194 0 -299 143q-36 51 -48.5 129t-12.5 205v600h244v-592q0 -53 3.5 -92t15.5 -80t32.5 -67t56.5 -43t86 -17q113 0 174 82q66 89 66 272v537h246v-1057h-230v137zM449 1487h294l195 -268h-215l-129 165l-131 -165h-211z
" />
    <glyph glyph-name="udieresis" unicode="&#xfc;" horiz-adv-x="1193" 
d="M823 137q-58 -80 -146.5 -118.5t-187.5 -38.5q-194 0 -299 143q-36 51 -48.5 129t-12.5 205v600h244v-592q0 -53 3.5 -92t15.5 -80t32.5 -67t56.5 -43t86 -17q113 0 174 82q66 89 66 272v537h246v-1057h-230v137zM698 1487h232v-246h-232v246zM258 1487h231v-246h-231
v246z" />
    <glyph glyph-name="yacute" unicode="&#xfd;" horiz-adv-x="1060" 
d="M86 -209q45 -16 107 -16q181 0 204 215l-381 1067h275l155 -529q16 -52 41 -154.5t41 -154.5h13q5 20 34.5 135t47.5 174l165 529h256l-368 -1028q-87 -248 -182 -348.5t-250 -100.5q-101 0 -158 12v199zM608 1487h266l-253 -268h-199z" />
    <glyph glyph-name="thorn" unicode="&#xfe;" horiz-adv-x="1216" 
d="M1141 528q0 -257 -122.5 -402.5t-322.5 -145.5q-214 0 -309 141v-533h-246v1899h246v-555q112 145 313 145q202 0 321.5 -149t119.5 -400zM889 528q0 166 -67.5 262.5t-184.5 96.5t-186.5 -97t-69.5 -262t67.5 -262.5t184.5 -97.5q121 0 188.5 96t67.5 264z" />
    <glyph glyph-name="ydieresis" unicode="&#xff;" horiz-adv-x="1060" 
d="M86 -209q45 -16 107 -16q181 0 204 215l-381 1067h275l155 -529q16 -52 41 -154.5t41 -154.5h13q5 20 34.5 135t47.5 174l165 529h256l-368 -1028q-87 -248 -182 -348.5t-250 -100.5q-101 0 -158 12v199zM635 1487h231v-246h-231v246zM195 1487h231v-246h-231v246z" />
    <glyph glyph-name="Amacron" unicode="&#x100;" horiz-adv-x="1419" 
d="M866 1487l551 -1487h-274l-142 401h-591l-138 -401h-268l547 1487h315zM850 850q-94 279 -135 424h-13q-8 -25 -39 -128t-52 -168t-44 -128l-86 -234h451zM414 1812h587v-176h-587v176z" />
    <glyph glyph-name="amacron" unicode="&#x101;" horiz-adv-x="1126" 
d="M801 0q-7 46 -10 137q-68 -81 -150.5 -119t-204.5 -38q-176 0 -271 82t-95 231q0 50 13 92t33 73.5t53.5 58t66 44.5t80.5 33t86 24t93 17t91.5 12t91.5 9.5t84 9.5v45q0 200 -193 200q-100 0 -154 -46t-55 -132h-251q6 165 129 258.5t331 93.5q124 0 209 -30.5
t133.5 -92.5t69 -142.5t20.5 -192.5v-295q0 -185 23 -332h-223zM762 498q-29 -4 -81.5 -10t-87 -10.5t-80.5 -13t-75.5 -21.5t-58 -32t-42 -48t-13.5 -66q0 -69 45.5 -108t130.5 -39q124 0 193 70t69 233v45zM283 1444h571v-176h-571v176z" />
    <glyph glyph-name="Abreve" unicode="&#x102;" horiz-adv-x="1419" 
d="M866 1487l551 -1487h-274l-142 401h-591l-138 -401h-268l547 1487h315zM850 850q-94 279 -135 424h-13q-8 -25 -39 -128t-52 -168t-44 -128l-86 -234h451zM702 1595q-149 0 -235 72.5t-92 187.5h203q13 -116 124 -116q114 0 127 116h201q-6 -114 -92.5 -187t-235.5 -73z
" />
    <glyph glyph-name="abreve" unicode="&#x103;" horiz-adv-x="1126" 
d="M801 0q-7 46 -10 137q-68 -81 -150.5 -119t-204.5 -38q-176 0 -271 82t-95 231q0 50 13 92t33 73.5t53.5 58t66 44.5t80.5 33t86 24t93 17t91.5 12t91.5 9.5t84 9.5v45q0 200 -193 200q-100 0 -154 -46t-55 -132h-251q6 165 129 258.5t331 93.5q124 0 209 -30.5
t133.5 -92.5t69 -142.5t20.5 -192.5v-295q0 -185 23 -332h-223zM762 498q-29 -4 -81.5 -10t-87 -10.5t-80.5 -13t-75.5 -21.5t-58 -32t-42 -48t-13.5 -66q0 -69 45.5 -108t130.5 -39q124 0 193 70t69 233v45zM565 1210q-145 0 -232 72t-87 205h194q0 -139 125 -139
q122 0 125 139h195q-1 -135 -88 -206t-232 -71z" />
    <glyph glyph-name="Aogonek" unicode="&#x104;" horiz-adv-x="1419" 
d="M866 1487l551 -1487h-274l-142 401h-591l-138 -401h-268l547 1487h315zM850 850q-94 279 -135 424h-13q-8 -25 -39 -128t-52 -168t-44 -128l-86 -234h451zM1294 -420q-102 0 -169.5 55.5t-67.5 145.5q0 74 48 136.5t146 133.5l166 -51q-85 -36 -128.5 -82t-43.5 -94
q0 -80 92 -80q32 0 80 16v-159q-43 -21 -123 -21z" />
    <glyph glyph-name="aogonek" unicode="&#x105;" horiz-adv-x="1126" 
d="M801 0q-7 46 -10 137q-68 -81 -150.5 -119t-204.5 -38q-176 0 -271 82t-95 231q0 50 13 92t33 73.5t53.5 58t66 44.5t80.5 33t86 24t93 17t91.5 12t91.5 9.5t84 9.5v45q0 200 -193 200q-100 0 -154 -46t-55 -132h-251q6 165 129 258.5t331 93.5q124 0 209 -30.5
t133.5 -92.5t69 -142.5t20.5 -192.5v-295q0 -185 23 -332h-223zM762 498q-29 -4 -81.5 -10t-87 -10.5t-80.5 -13t-75.5 -21.5t-58 -32t-42 -48t-13.5 -66q0 -69 45.5 -108t130.5 -39q124 0 193 70t69 233v45zM901 -420q-102 0 -169.5 55.5t-67.5 145.5q0 74 48 136.5
t146 133.5l166 -51q-85 -36 -128.5 -82t-43.5 -94q0 -80 92 -80q32 0 80 16v-159q-43 -21 -123 -21z" />
    <glyph glyph-name="Cacute" unicode="&#x106;" horiz-adv-x="1425" 
d="M1372 510q-30 -240 -192 -390.5t-426 -150.5q-306 0 -488 202t-182 560q0 225 84 404t238.5 281t351.5 102q256 0 421.5 -145.5t182.5 -385.5h-266q-17 149 -108.5 236.5t-231.5 87.5q-184 0 -295 -157.5t-111 -412.5q0 -254 110.5 -409.5t293.5 -155.5q146 0 235.5 89
t110.5 245h272zM840 1858h278l-272 -244h-207z" />
    <glyph glyph-name="cacute" unicode="&#x107;" horiz-adv-x="1105" 
d="M1049 373q-14 -191 -137 -297.5t-330 -106.5q-234 0 -370 152.5t-136 406.5q0 250 137 404.5t369 154.5q208 0 331 -107.5t134 -289.5h-254q-12 100 -66.5 153.5t-146.5 53.5q-117 0 -183.5 -98.5t-66.5 -266.5t67.5 -270t182.5 -102q92 0 148.5 55t70.5 158h250z
M655 1487h267l-254 -268h-199z" />
    <glyph glyph-name="Ccircumflex" unicode="&#x108;" horiz-adv-x="1425" 
d="M1372 510q-30 -240 -192 -390.5t-426 -150.5q-306 0 -488 202t-182 560q0 225 84 404t238.5 281t351.5 102q256 0 421.5 -145.5t182.5 -385.5h-266q-17 149 -108.5 236.5t-231.5 87.5q-184 0 -295 -157.5t-111 -412.5q0 -254 110.5 -409.5t293.5 -155.5q146 0 235.5 89
t110.5 245h272zM610 1858h297l203 -246h-225l-129 147l-133 -147h-215z" />
    <glyph glyph-name="ccircumflex" unicode="&#x109;" horiz-adv-x="1105" 
d="M1049 373q-14 -191 -137 -297.5t-330 -106.5q-234 0 -370 152.5t-136 406.5q0 250 137 404.5t369 154.5q208 0 331 -107.5t134 -289.5h-254q-12 100 -66.5 153.5t-146.5 53.5q-117 0 -183.5 -98.5t-66.5 -266.5t67.5 -270t182.5 -102q92 0 148.5 55t70.5 158h250z
M432 1487h295l195 -268h-215l-129 165l-132 -165h-210z" />
    <glyph glyph-name="Cdotaccent" unicode="&#x10a;" horiz-adv-x="1425" 
d="M1372 510q-30 -240 -192 -390.5t-426 -150.5q-306 0 -488 202t-182 560q0 225 84 404t238.5 281t351.5 102q256 0 421.5 -145.5t182.5 -385.5h-266q-17 149 -108.5 236.5t-231.5 87.5q-184 0 -295 -157.5t-111 -412.5q0 -254 110.5 -409.5t293.5 -155.5q146 0 235.5 89
t110.5 245h272zM631 1851h254v-231h-254v231z" />
    <glyph glyph-name="cdotaccent" unicode="&#x10b;" horiz-adv-x="1105" 
d="M1049 373q-14 -191 -137 -297.5t-330 -106.5q-234 0 -370 152.5t-136 406.5q0 250 137 404.5t369 154.5q208 0 331 -107.5t134 -289.5h-254q-12 100 -66.5 153.5t-146.5 53.5q-117 0 -183.5 -98.5t-66.5 -266.5t67.5 -270t182.5 -102q92 0 148.5 55t70.5 158h250z
M700 1487v-248h-245v248h245z" />
    <glyph glyph-name="Ccaron" unicode="&#x10c;" horiz-adv-x="1425" 
d="M1372 510q-30 -240 -192 -390.5t-426 -150.5q-306 0 -488 202t-182 560q0 225 84 404t238.5 281t351.5 102q256 0 421.5 -145.5t182.5 -385.5h-266q-17 149 -108.5 236.5t-231.5 87.5q-184 0 -295 -157.5t-111 -412.5q0 -254 110.5 -409.5t293.5 -155.5q146 0 235.5 89
t110.5 245h272zM410 1858h221l129 -148l131 148h217l-203 -246h-295z" />
    <glyph glyph-name="ccaron" unicode="&#x10d;" horiz-adv-x="1105" 
d="M1049 373q-14 -191 -137 -297.5t-330 -106.5q-234 0 -370 152.5t-136 406.5q0 250 137 404.5t369 154.5q208 0 331 -107.5t134 -289.5h-254q-12 100 -66.5 153.5t-146.5 53.5q-117 0 -183.5 -98.5t-66.5 -266.5t67.5 -270t182.5 -102q92 0 148.5 55t70.5 158h250z
M238 1487h211l131 -166l129 166h209l-195 -268h-291z" />
    <glyph glyph-name="Dcaron" unicode="&#x10e;" horiz-adv-x="1449" 
d="M594 1487q257 0 422 -82q350 -176 350 -655q0 -310 -162 -508q-198 -242 -579 -242h-465v1487h434zM580 215q241 0 370 117q146 134 146 411q0 167 -45 278t-142 173q-119 78 -327 78h-162v-1057h160zM313 1858h222l129 -148l131 148h217l-203 -246h-295z" />
    <glyph glyph-name="dcaron" unicode="&#x10f;" horiz-adv-x="1251" 
d="M76 530q0 250 121.5 398.5t324.5 148.5q207 0 309 -141v551h246v-1487h-231v141q-55 -77 -140 -119t-184 -42q-205 0 -325.5 145.5t-120.5 404.5zM330 530q0 -166 66.5 -263t183.5 -97q118 0 187 95.5t69 264.5q0 166 -67.5 262.5t-184.5 96.5q-118 0 -186 -96.5
t-68 -262.5zM1212 1487h209v-47l-65 -279h-158z" />
    <glyph glyph-name="Dcroat" unicode="&#x110;" horiz-adv-x="1515" 
d="M1081 1405q351 -176 351 -655q0 -310 -162 -508q-198 -242 -580 -242h-465v655h-178v203h178v629h434q257 0 422 -82zM1016 332q145 133 145 411q0 166 -44.5 276t-141.5 175q-119 78 -328 78h-162v-414h244v-203h-244v-440h160q242 0 371 117z" />
    <glyph glyph-name="dslash" unicode="&#x111;" horiz-adv-x="1218" 
d="M522 -20q-204 0 -325 144t-121 396q0 246 121.5 392.5t324.5 146.5q205 0 309 -141v272h-235v160h235v137h246v-137h152v-160h-152v-1190h-231v141q-55 -77 -140 -119t-184 -42zM580 170q118 0 187 93.5t69 256.5q0 160 -67.5 254t-184.5 94q-118 0 -186 -93t-68 -255
q0 -161 67 -255.5t183 -94.5z" />
    <glyph glyph-name="Emacron" unicode="&#x112;" horiz-adv-x="1234" 
d="M1124 1487v-215h-704v-408h663v-215h-663v-432h733v-217h-993v1487h964zM365 1812h587v-176h-587v176z" />
    <glyph glyph-name="emacron" unicode="&#x113;" horiz-adv-x="1155" 
d="M74 532q0 242 141.5 397.5t376.5 155.5q280 0 403 -217q84 -151 84 -411h-751q5 -140 73 -222.5t193 -82.5q171 0 223 163h260q-42 -171 -166.5 -257.5t-318.5 -86.5q-252 0 -385 148.5t-133 412.5zM829 637q-10 131 -78 200.5t-171 69.5q-106 0 -176 -69.5t-80 -200.5
h505zM305 1444h572v-176h-572v176z" />
    <glyph glyph-name="Ebreve" unicode="&#x114;" horiz-adv-x="1234" 
d="M1124 1487v-215h-704v-408h663v-215h-663v-432h733v-217h-993v1487h964zM653 1595q-149 0 -235 72.5t-92 187.5h202q13 -116 125 -116q114 0 127 116h201q-6 -114 -92.5 -187t-235.5 -73z" />
    <glyph glyph-name="ebreve" unicode="&#x115;" horiz-adv-x="1155" 
d="M74 532q0 242 141.5 397.5t376.5 155.5q280 0 403 -217q84 -151 84 -411h-751q5 -140 73 -222.5t193 -82.5q171 0 223 163h260q-42 -171 -166.5 -257.5t-318.5 -86.5q-252 0 -385 148.5t-133 412.5zM829 637q-10 131 -78 200.5t-171 69.5q-106 0 -176 -69.5t-80 -200.5
h505zM588 1210q-145 0 -232.5 72t-87.5 205h195q0 -139 125 -139q122 0 125 139h194q-1 -135 -88 -206t-231 -71z" />
    <glyph glyph-name="Edotaccent" unicode="&#x116;" horiz-adv-x="1234" 
d="M1124 1487v-215h-704v-408h663v-215h-663v-432h733v-217h-993v1487h964zM532 1851h254v-231h-254v231z" />
    <glyph glyph-name="edotaccent" unicode="&#x117;" horiz-adv-x="1155" 
d="M74 532q0 242 141.5 397.5t376.5 155.5q280 0 403 -217q84 -151 84 -411h-751q5 -140 73 -222.5t193 -82.5q171 0 223 163h260q-42 -171 -166.5 -257.5t-318.5 -86.5q-252 0 -385 148.5t-133 412.5zM829 637q-10 131 -78 200.5t-171 69.5q-106 0 -176 -69.5t-80 -200.5
h505zM713 1487v-248h-246v248h246z" />
    <glyph glyph-name="Eogonek" unicode="&#x118;" horiz-adv-x="1234" 
d="M1124 1487v-215h-704v-408h663v-215h-663v-432h733v-217h-993v1487h964zM1030 -420q-102 0 -169.5 55.5t-67.5 145.5q0 74 48 136.5t146 133.5l166 -51q-85 -36 -128.5 -82t-43.5 -94q0 -80 92 -80q32 0 80 16v-159q-43 -21 -123 -21z" />
    <glyph glyph-name="eogonek" unicode="&#x119;" horiz-adv-x="1155" 
d="M739 -420q-106 0 -173.5 53t-67.5 144q0 104 110 194h-18q-250 0 -383 149t-133 412q0 242 141.5 397.5t376.5 155.5q232 0 357 -150.5t130 -424.5v-53h-751q5 -140 73 -222.5t193 -82.5q171 0 223 163h260q-25 -94 -71.5 -157t-122.5 -117q-103 -72 -150 -119.5
t-47 -97.5q0 -35 25.5 -56.5t66.5 -21.5q40 0 88 16v-159q-47 -23 -127 -23zM829 637q-10 131 -78 200.5t-171 69.5q-106 0 -176 -69.5t-80 -200.5h505z" />
    <glyph glyph-name="Ecaron" unicode="&#x11a;" horiz-adv-x="1234" 
d="M1124 1487v-215h-704v-408h663v-215h-663v-432h733v-217h-993v1487h964zM311 1858h221l130 -148l131 148h217l-203 -246h-295z" />
    <glyph glyph-name="ecaron" unicode="&#x11b;" horiz-adv-x="1155" 
d="M74 532q0 242 141.5 397.5t376.5 155.5q280 0 403 -217q84 -151 84 -411h-751q5 -140 73 -222.5t193 -82.5q171 0 223 163h260q-42 -171 -166.5 -257.5t-318.5 -86.5q-252 0 -385 148.5t-133 412.5zM829 637q-10 131 -78 200.5t-171 69.5q-106 0 -176 -69.5t-80 -200.5
h505zM250 1487h211l131 -166l129 166h209l-195 -268h-291z" />
    <glyph glyph-name="Gcircumflex" unicode="&#x11c;" horiz-adv-x="1480" 
d="M1149 106q0 47 2 70l-6 4q-61 -98 -173.5 -152.5t-248.5 -54.5q-297 0 -468 204t-171 564q0 163 47.5 304.5t134 246.5t216.5 165.5t288 60.5q246 0 412.5 -132.5t191.5 -341.5h-266q-26 124 -118 195.5t-222 71.5q-193 0 -305.5 -155.5t-112.5 -420.5q0 -253 108.5 -404
t295.5 -151q165 0 266 107t102 301h-329v213h575v-801h-219v106zM627 1858h297l202 -246h-225l-129 147l-133 -147h-215z" />
    <glyph glyph-name="gcircumflex" unicode="&#x11d;" horiz-adv-x="1208" 
d="M78 543q0 147 54.5 268.5t156 193.5t231.5 72q221 0 324 -157v137h225v-905q0 -139 -22 -238.5t-76 -177.5t-151 -117t-240 -39q-204 0 -320 86t-133 252h254q5 -78 57 -120t146 -42q125 0 186 77t61 247v108q-121 -157 -323 -157q-191 0 -310.5 140t-119.5 372zM332 555
q0 -154 66.5 -243t179.5 -89q111 0 180 89t69 237q0 151 -67 245.5t-182 94.5q-114 0 -180 -94t-66 -240zM444 1487h295l195 -268h-215l-129 165l-131 -165h-211z" />
    <glyph glyph-name="Gbreve" unicode="&#x11e;" horiz-adv-x="1480" 
d="M1149 106q0 47 2 70l-6 4q-61 -98 -173.5 -152.5t-248.5 -54.5q-297 0 -468 204t-171 564q0 163 47.5 304.5t134 246.5t216.5 165.5t288 60.5q246 0 412.5 -132.5t191.5 -341.5h-266q-26 124 -118 195.5t-222 71.5q-193 0 -305.5 -155.5t-112.5 -420.5q0 -253 108.5 -404
t295.5 -151q165 0 266 107t102 301h-329v213h575v-801h-219v106zM768 1595q-149 0 -235.5 73t-92.5 187h203q13 -116 125 -116q114 0 127 116h201q-6 -114 -92.5 -187t-235.5 -73z" />
    <glyph glyph-name="gbreve" unicode="&#x11f;" horiz-adv-x="1208" 
d="M78 543q0 147 54.5 268.5t156 193.5t231.5 72q221 0 324 -157v137h225v-905q0 -139 -22 -238.5t-76 -177.5t-151 -117t-240 -39q-204 0 -320 86t-133 252h254q5 -78 57 -120t146 -42q125 0 186 77t61 247v108q-121 -157 -323 -157q-191 0 -310.5 140t-119.5 372zM332 555
q0 -154 66.5 -243t179.5 -89q111 0 180 89t69 237q0 151 -67 245.5t-182 94.5q-114 0 -180 -94t-66 -240zM588 1210q-145 0 -232.5 72t-87.5 205h195q0 -139 125 -139q122 0 125 139h194q-1 -135 -88 -206t-231 -71z" />
    <glyph glyph-name="Gdotaccent" unicode="&#x120;" horiz-adv-x="1480" 
d="M1149 106q0 47 2 70l-6 4q-61 -98 -173.5 -152.5t-248.5 -54.5q-297 0 -468 204t-171 564q0 163 47.5 304.5t134 246.5t216.5 165.5t288 60.5q246 0 412.5 -132.5t191.5 -341.5h-266q-26 124 -118 195.5t-222 71.5q-193 0 -305.5 -155.5t-112.5 -420.5q0 -253 108.5 -404
t295.5 -151q165 0 266 107t102 301h-329v213h575v-801h-219v106zM647 1851h254v-231h-254v231z" />
    <glyph glyph-name="gdotaccent" unicode="&#x121;" horiz-adv-x="1208" 
d="M78 543q0 147 54.5 268.5t156 193.5t231.5 72q221 0 324 -157v137h225v-905q0 -139 -22 -238.5t-76 -177.5t-151 -117t-240 -39q-204 0 -320 86t-133 252h254q5 -78 57 -120t146 -42q125 0 186 77t61 247v108q-121 -157 -323 -157q-191 0 -310.5 140t-119.5 372zM332 555
q0 -154 66.5 -243t179.5 -89q111 0 180 89t69 237q0 151 -67 245.5t-182 94.5q-114 0 -180 -94t-66 -240zM713 1487v-248h-246v248h246zM78 543q0 147 54.5 268.5t156 193.5t231.5 72q221 0 324 -157v137h225v-905q0 -139 -22 -238.5t-76 -177.5t-151 -117t-240 -39
q-204 0 -320 86t-133 252h254q5 -78 57 -120t146 -42q125 0 186 77t61 247v108q-121 -157 -323 -157q-191 0 -310.5 140t-119.5 372zM332 555q0 -154 66.5 -243t179.5 -89q111 0 180 89t69 237q0 151 -67 245.5t-182 94.5q-114 0 -180 -94t-66 -240z" />
    <glyph glyph-name="uni0122" unicode="&#x122;" horiz-adv-x="1480" 
d="M1149 106q0 47 2 70l-6 4q-61 -98 -173.5 -152.5t-248.5 -54.5q-297 0 -468 204t-171 564q0 163 47.5 304.5t134 246.5t216.5 165.5t288 60.5q246 0 412.5 -132.5t191.5 -341.5h-266q-26 124 -118 195.5t-222 71.5q-193 0 -305.5 -155.5t-112.5 -420.5q0 -253 108.5 -404
t295.5 -151q165 0 266 107t102 301h-329v213h575v-801h-219v106zM715 -348h-90v223h252v-223l-121 -199h-123z" />
    <glyph glyph-name="uni0123" unicode="&#x123;" horiz-adv-x="1208" 
d="M78 543q0 147 54.5 268.5t156 193.5t231.5 72q221 0 324 -157v137h225v-905q0 -139 -22 -238.5t-76 -177.5t-151 -117t-240 -39q-204 0 -320 86t-133 252h254q5 -78 57 -120t146 -42q125 0 186 77t61 247v108q-121 -157 -323 -157q-191 0 -310.5 140t-119.5 372zM332 555
q0 -154 66.5 -243t179.5 -89q111 0 180 89t69 237q0 151 -67 245.5t-182 94.5q-114 0 -180 -94t-66 -240zM467 1212v222l119 198h119l-80 -200l84 2v-222h-242z" />
    <glyph glyph-name="Hcircumflex" unicode="&#x124;" horiz-adv-x="1517" 
d="M418 1487v-610h682v610h258v-1487h-258v662h-682v-662h-258v1487h258zM610 1858h297l203 -246h-225l-129 147l-133 -147h-215z" />
    <glyph glyph-name="hcircumflex" unicode="&#x125;" horiz-adv-x="1193" 
d="M387 1487v-561q103 151 318 151q203 0 301 -143q36 -52 47.5 -125.5t11.5 -202.5v-606h-246v590q0 53 -3.5 92.5t-15.5 80.5t-32 67t-56 42.5t-85 16.5q-120 0 -180 -84.5t-60 -269.5v-535h-246v1487h246zM586 1612h-209l-113 147l-117 -147h-202l180 246h283z" />
    <glyph glyph-name="Hbar" unicode="&#x126;" horiz-adv-x="1595" 
d="M199 1094h-148v194h148v199h258v-199h682v199h258v-199h147v-194h-147v-1094h-258v602h-682v-602h-258v1094zM1139 817v277h-682v-277h682z" />
    <glyph glyph-name="hbar" unicode="&#x127;" horiz-adv-x="1193" 
d="M1006 915q35 -53 47 -127t12 -200v-588h-246v571q0 53 -3.5 92.5t-15.5 80.5t-32 67t-56 42.5t-85 16.5q-120 0 -180 -84.5t-60 -269.5v-516h-246v1190h-151v160h151v137h246v-137h236v-160h-236v-283q103 152 318 152q207 0 301 -144z" />
    <glyph glyph-name="Itilde" unicode="&#x128;" horiz-adv-x="577" 
d="M418 1487v-1487h-258v1487h258zM-55 1606q6 116 59.5 181.5t140.5 65.5q45 0 143.5 -40.5t131.5 -40.5q65 0 74 79h135q-6 -118 -59 -182.5t-144 -64.5q-45 0 -143 41t-131 41q-64 0 -72 -80h-135z" />
    <glyph glyph-name="itilde" unicode="&#x129;" horiz-adv-x="528" 
d="M387 1057v-1057h-246v1057h246zM-51 1229q1 119 51.5 186.5t130.5 67.5q43 0 132 -42t120 -42q23 0 45.5 21.5t22.5 60.5h129q0 -118 -51.5 -186t-131.5 -68q-43 0 -132 43t-118 43q-25 0 -47 -20.5t-22 -63.5h-129z" />
    <glyph glyph-name="Imacron" unicode="&#x12a;" horiz-adv-x="577" 
d="M418 1487v-1487h-258v1487h258zM-6 1812h588v-176h-588v176z" />
    <glyph glyph-name="imacron" unicode="&#x12b;" horiz-adv-x="528" 
d="M387 1057v-1057h-246v1057h246zM-4 1444h536v-176h-536v176z" />
    <glyph glyph-name="Ibreve" unicode="&#x12c;" horiz-adv-x="577" 
d="M418 1487v-1487h-258v1487h258zM283 1595q-149 0 -235.5 73t-92.5 187h203q13 -116 125 -116q114 0 127 116h200q-6 -115 -92 -187.5t-235 -72.5z" />
    <glyph glyph-name="ibreve" unicode="&#x12d;" horiz-adv-x="528" 
d="M387 1057v-1057h-246v1057h246zM264 1210q-130 0 -209.5 71t-79.5 206h181q0 -139 106 -139q109 0 109 139h178q0 -136 -78 -206.5t-207 -70.5z" />
    <glyph glyph-name="Iogonek" unicode="&#x12e;" horiz-adv-x="577" 
d="M418 1487v-1487q-79 -35 -123.5 -82t-44.5 -94q0 -80 88 -80q50 0 86 18v-159q-47 -23 -125 -23q-105 0 -171.5 55t-66.5 146q0 111 127 219h-28v1487h258z" />
    <glyph glyph-name="iogonek" unicode="&#x12f;" horiz-adv-x="528" 
d="M266 -420q-105 0 -171 55.5t-66 151.5q0 113 112 213v1057h246v-1057q-81 -35 -124.5 -80.5t-43.5 -95.5q0 -80 88 -80q45 0 86 18v-159q-47 -23 -127 -23zM387 1487v-248h-246v248h246z" />
    <glyph glyph-name="Idot" unicode="&#x130;" horiz-adv-x="577" 
d="M418 1487v-1487h-258v1487h258zM162 1851h254v-231h-254v231z" />
    <glyph glyph-name="dotlessi" unicode="&#x131;" horiz-adv-x="528" 
d="M387 1057v-1057h-246v1057h246z" />
    <glyph glyph-name="IJ" unicode="&#x132;" horiz-adv-x="1337" 
d="M418 1487v-1487h-258v1487h258zM614 219q74 -12 123 -12q113 0 152 65t39 240v975h260v-993q0 -94 -10 -167.5t-36.5 -140.5t-70 -110t-112.5 -68.5t-162 -25.5q-70 0 -183 18v219z" />
    <glyph glyph-name="ij" unicode="&#x133;" horiz-adv-x="1048" 
d="M387 1057v-1057h-246v1057h246zM387 1487v-248h-246v248h246zM469 -217q36 -8 72 -8q33 0 56 11t35.5 27t19.5 46t8.5 57t1.5 70v1071h245v-1047q0 -65 -2 -110t-8.5 -94t-19 -80.5t-33.5 -61.5t-51 -47t-73 -27t-99 -10q-76 0 -152 12v191zM907 1487v-248h-245v248h245z
" />
    <glyph glyph-name="Jcircumflex" unicode="&#x134;" horiz-adv-x="751" 
d="M29 219q74 -12 123 -12q113 0 151.5 64.5t38.5 240.5v975h260v-993q0 -94 -10 -167.5t-36.5 -140.5t-70 -110t-112.5 -68.5t-162 -25.5q-69 0 -182 18v219zM319 1858h297l203 -246h-225l-129 147l-133 -147h-215z" />
    <glyph glyph-name="jcircumflex" unicode="&#x135;" horiz-adv-x="528" 
d="M125 1487h272l172 -268h-194l-117 161l-117 -161h-190zM-51 -217q36 -8 71 -8q33 0 56 11t35.5 27t19.5 46t8.5 57t1.5 70v1071h246v-1047q0 -65 -2 -110t-8.5 -93.5t-19 -80.5t-33.5 -62t-51.5 -47t-73.5 -27t-99 -10q-75 0 -151 12v191z" />
    <glyph glyph-name="uni0136" unicode="&#x136;" horiz-adv-x="1271" 
d="M420 1487v-658l528 658h297l-579 -690l628 -797h-327l-547 723v-723h-260v1487h260zM612 -348h-90v223h252v-223l-121 -199h-123z" />
    <glyph glyph-name="uni0137" unicode="&#x137;" horiz-adv-x="1060" 
d="M387 1487v-869l358 439h293l-405 -473l448 -584h-307l-387 524v-524h-246v1487h246zM659 -127v-221l-118 -199h-119l80 201l-84 -2v221h241z" />
    <glyph glyph-name="kgreenlandic" unicode="&#x138;" horiz-adv-x="1060" 
d="M387 1057v-439l358 439h293l-405 -473l448 -584h-307l-387 524v-524h-246v1057h246z" />
    <glyph glyph-name="Lacute" unicode="&#x139;" horiz-adv-x="1144" 
d="M420 1487v-1270h702v-217h-962v1487h260zM373 1858h278l-272 -244h-207z" />
    <glyph glyph-name="lacute" unicode="&#x13a;" horiz-adv-x="528" 
d="M387 1487v-1487h-246v1487h246zM332 1858h278l-272 -244h-207z" />
    <glyph glyph-name="uni013B" unicode="&#x13b;" horiz-adv-x="1144" 
d="M420 1487v-1270h702v-217h-962v1487h260zM598 -348h-90v223h252v-223l-121 -199h-123z" />
    <glyph glyph-name="uni013C" unicode="&#x13c;" horiz-adv-x="528" 
d="M387 1487v-1487h-246v1487h246zM383 -127v-221l-119 -199h-119l80 201l-84 -2v221h242z" />
    <glyph glyph-name="Lcaron" unicode="&#x13d;" horiz-adv-x="1144" 
d="M420 1487v-1270h702v-217h-962v1487h260zM688 1487h209v-47l-66 -279h-157z" />
    <glyph glyph-name="lcaron" unicode="&#x13e;" horiz-adv-x="561" 
d="M387 1487v-1487h-246v1487h246zM524 1487h209v-47l-65 -279h-158z" />
    <glyph glyph-name="Ldot" unicode="&#x13f;" horiz-adv-x="1146" 
d="M160 1487h260v-1270h702v-217h-962v1487zM731 918h246v-248h-246v248z" />
    <glyph glyph-name="ldot" unicode="&#x140;" horiz-adv-x="727" 
d="M141 1487h246v-1487h-246v1487zM506 918h244v-248h-244v248z" />
    <glyph glyph-name="Lslash" unicode="&#x141;" horiz-adv-x="1228" 
d="M70 586l174 110v791h260v-660l383 248v-237l-383 -234v-387h702v-217h-962v477l-174 -106v215z" />
    <glyph glyph-name="lslash" unicode="&#x142;" horiz-adv-x="696" 
d="M66 662l163 118v707h246v-549l164 121v-205l-164 -119v-735h-246v580l-163 -121v203z" />
    <glyph glyph-name="Nacute" unicode="&#x143;" horiz-adv-x="1529" 
d="M520 1487q108 -199 379 -742q178 -351 229 -477h15q-13 191 -13 480l-2 739h242v-1487h-362q-37 66 -189 373t-170 338q-187 356 -252 522h-14q16 -400 16 -494l2 -739h-241v1487h360zM846 1858h278l-272 -244h-207z" />
    <glyph glyph-name="nacute" unicode="&#x144;" horiz-adv-x="1193" 
d="M369 920q60 80 148.5 118.5t187.5 38.5q112 0 182 -37t114 -108q64 -107 64 -326v-606h-246v590q0 53 -3.5 92.5t-15.5 80.5t-32 67t-56 42.5t-85 16.5q-120 0 -180 -84.5t-60 -269.5v-535h-246v1057h228v-137zM676 1487h266l-254 -268h-199z" />
    <glyph glyph-name="uni0145" unicode="&#x145;" horiz-adv-x="1529" 
d="M520 1487q108 -199 379 -742q178 -351 229 -477h15q-13 191 -13 480l-2 739h242v-1487h-362q-37 66 -189 373t-170 338q-187 356 -252 522h-14q16 -400 16 -494l2 -739h-241v1487h360zM725 -348h-90v223h252v-223l-121 -199h-123z" />
    <glyph glyph-name="uni0146" unicode="&#x146;" horiz-adv-x="1193" 
d="M369 920q60 80 148.5 118.5t187.5 38.5q112 0 182 -37t114 -108q64 -107 64 -326v-606h-246v590q0 53 -3.5 92.5t-15.5 80.5t-32 67t-56 42.5t-85 16.5q-120 0 -180 -84.5t-60 -269.5v-535h-246v1057h228v-137zM717 -127v-221l-119 -199h-119l80 201l-84 -2v221h242z" />
    <glyph glyph-name="Ncaron" unicode="&#x147;" horiz-adv-x="1529" 
d="M520 1487q108 -199 379 -742q178 -351 229 -477h15q-13 191 -13 480l-2 739h242v-1487h-362q-37 66 -189 373t-170 338q-187 356 -252 522h-14q16 -400 16 -494l2 -739h-241v1487h360zM416 1858h221l129 -148l131 148h217l-203 -246h-295z" />
    <glyph glyph-name="ncaron" unicode="&#x148;" horiz-adv-x="1193" 
d="M369 920q60 80 148.5 118.5t187.5 38.5q112 0 182 -37t114 -108q64 -107 64 -326v-606h-246v590q0 53 -3.5 92.5t-15.5 80.5t-32 67t-56 42.5t-85 16.5q-120 0 -180 -84.5t-60 -269.5v-535h-246v1057h228v-137zM258 1487h211l131 -166l129 166h209l-195 -268h-290z" />
    <glyph glyph-name="napostrophe" unicode="&#x149;" horiz-adv-x="1409" 
d="M584 920q60 80 148.5 118.5t187.5 38.5q112 0 182.5 -37t114.5 -108q63 -105 63 -326v-606h-246v590q0 53 -3.5 92.5t-15.5 80.5t-32 67t-56 42.5t-85 16.5q-120 0 -180 -84.5t-60 -269.5v-535h-246v1057h228v-137zM131 1278h-86v209h236v-209l-119 -221h-115z" />
    <glyph glyph-name="Eng" unicode="&#x14a;" horiz-adv-x="1529" 
d="M979 -420q-93 0 -176 14v195q65 -12 108 -12q104 0 153.5 48.5t53.5 174.5l-721 1196h-14l4 -70q14 -249 14 -524v-602h-241v1487h346l627 -1063h10q-15 429 -15 586v477h242v-1415q0 -43 -1 -71t-8.5 -84.5t-21 -96t-42.5 -88.5t-69 -79t-104 -51.5t-145 -21.5z" />
    <glyph glyph-name="eng" unicode="&#x14b;" horiz-adv-x="1193" 
d="M627 -217q36 -8 71 -8q33 0 56 11t35.5 27t19.5 46t8.5 57t1.5 70v604q0 53 -3.5 92.5t-15.5 80.5t-32 67t-56 42.5t-85 16.5q-120 0 -180 -84.5t-60 -269.5v-535h-246v1057h228v-137q60 80 148.5 118.5t187.5 38.5q111 0 181.5 -37.5t114.5 -107.5q64 -107 64 -326v-596
q0 -65 -2 -110t-8.5 -93.5t-19 -80.5t-33.5 -62t-51.5 -47t-73.5 -27t-99 -10q-75 0 -151 12v191z" />
    <glyph glyph-name="Omacron" unicode="&#x14c;" horiz-adv-x="1548" 
d="M774 1518q206 0 363 -97.5t242 -273t85 -404.5t-86 -405t-243 -272.5t-363 -96.5q-208 0 -364.5 96.5t-240 272t-83.5 405.5q0 225 84.5 401t242 275t363.5 99zM774 1311q-196 0 -310 -156.5t-114 -411.5t115.5 -411t306.5 -156q190 0 308 160t118 407q0 256 -114.5 412
t-309.5 156zM477 1812h588v-176h-588v176z" />
    <glyph glyph-name="omacron" unicode="&#x14d;" horiz-adv-x="1202" 
d="M600 1085q242 0 385 -152.5t143 -404.5t-143.5 -404.5t-386.5 -152.5q-240 0 -382 152.5t-142 404.5t143 404.5t383 152.5zM600 897q-128 0 -199 -98.5t-71 -270.5q0 -170 70.5 -269t197.5 -99q130 0 202 98.5t72 269.5t-72 270t-200 99zM315 1444h572v-176h-572v176z
" />
    <glyph glyph-name="Obreve" unicode="&#x14e;" horiz-adv-x="1548" 
d="M774 1518q206 0 363 -97.5t242 -273t85 -404.5t-86 -405t-243 -272.5t-363 -96.5q-208 0 -364.5 96.5t-240 272t-83.5 405.5q0 225 84.5 401t242 275t363.5 99zM774 1311q-196 0 -310 -156.5t-114 -411.5t115.5 -411t306.5 -156q190 0 308 160t118 407q0 256 -114.5 412
t-309.5 156zM766 1595q-149 0 -235.5 73t-92.5 187h203q13 -116 125 -116q114 0 127 116h201q-6 -114 -92.5 -187t-235.5 -73z" />
    <glyph glyph-name="obreve" unicode="&#x14f;" horiz-adv-x="1202" 
d="M600 1085q242 0 385 -152.5t143 -404.5t-143.5 -404.5t-386.5 -152.5q-240 0 -382 152.5t-142 404.5t143 404.5t383 152.5zM600 897q-128 0 -199 -98.5t-71 -270.5q0 -170 70.5 -269t197.5 -99q130 0 202 98.5t72 269.5t-72 270t-200 99zM598 1210q-145 0 -232 72
t-87 205h194q0 -139 125 -139q122 0 125 139h195q-1 -135 -88 -206t-232 -71z" />
    <glyph glyph-name="Ohungarumlaut" unicode="&#x150;" horiz-adv-x="1548" 
d="M774 1518q206 0 363 -97.5t242 -273t85 -404.5t-86 -405t-243 -272.5t-363 -96.5q-208 0 -364.5 96.5t-240 272t-83.5 405.5q0 225 84.5 401t242 275t363.5 99zM774 1311q-196 0 -310 -156.5t-114 -411.5t115.5 -411t306.5 -156q190 0 308 160t118 407q0 256 -114.5 412
t-309.5 156zM1085 1858h263l-267 -244h-200zM645 1858h256l-242 -244h-190z" />
    <glyph glyph-name="ohungarumlaut" unicode="&#x151;" horiz-adv-x="1202" 
d="M600 1085q242 0 385 -152.5t143 -404.5t-143.5 -404.5t-386.5 -152.5q-240 0 -382 152.5t-142 404.5t143 404.5t383 152.5zM600 897q-128 0 -199 -98.5t-71 -270.5q0 -170 70.5 -269t197.5 -99q130 0 202 98.5t72 269.5t-72 270t-200 99zM891 1487h248l-250 -268h-189z
M469 1487h242l-234 -268h-180z" />
    <glyph glyph-name="OE" unicode="&#x152;" horiz-adv-x="2013" 
d="M774 0q-206 0 -363 93.5t-242 262t-85 387.5t84.5 388t242 262.5t363.5 93.5h1129v-215h-643v-406h600v-215h-600v-434h671v-217h-1157zM350 743q0 -244 113.5 -386t310.5 -142h225v1057h-225q-197 0 -310.5 -142.5t-113.5 -386.5z" />
    <glyph glyph-name="oe" unicode="&#x153;" horiz-adv-x="1912" 
d="M582 -29q-228 0 -368 152.5t-140 402.5q0 249 139.5 404t370.5 155q125 0 228 -50.5t165 -147.5q137 200 391 200q230 0 348 -152t123 -425q0 -29 -2 -43h-725q0 -49 8.5 -93t28 -85.5t48.5 -72t73.5 -48.5t99.5 -18q88 0 137 42t76 121h242q-42 -179 -162.5 -261.5
t-292.5 -82.5q-130 0 -234.5 53t-160.5 150q-61 -95 -163 -148t-230 -53zM598 158q128 0 197 98t69 272t-69.5 271.5t-196.5 97.5q-128 0 -196 -97.5t-68 -271.5t68.5 -272t195.5 -98zM1591 637q-6 128 -69 200t-164 72q-103 0 -169.5 -76t-74.5 -196h477z" />
    <glyph glyph-name="Racute" unicode="&#x154;" horiz-adv-x="1323" 
d="M610 1487q232 0 359 -57q219 -104 219 -357q0 -139 -84.5 -239t-237.5 -132v-10q60 -6 105.5 -30t76.5 -68t50 -86t41 -107l139 -401h-277l-129 379q-20 56 -42 93t-47.5 62t-62 37.5t-78.5 17.5t-105 5h-117v-594h-260v1487h450zM573 803q57 0 102.5 5t93.5 20.5t80 41
t52.5 70t20.5 104.5q0 124 -80 178t-228 54h-194v-473h153zM690 1858h279l-273 -244h-207z" />
    <glyph glyph-name="racute" unicode="&#x155;" horiz-adv-x="796" 
d="M373 1057v-158q101 168 280 168q73 0 117 -10v-213q-49 10 -106 10q-148 0 -212.5 -96.5t-64.5 -294.5v-463h-246v1057h232zM539 1487h266l-254 -268h-199z" />
    <glyph glyph-name="uni0156" unicode="&#x156;" horiz-adv-x="1323" 
d="M610 1487q232 0 359 -57q219 -104 219 -357q0 -139 -84.5 -239t-237.5 -132v-10q60 -6 105.5 -30t76.5 -68t50 -86t41 -107l139 -401h-277l-129 379q-20 56 -42 93t-47.5 62t-62 37.5t-78.5 17.5t-105 5h-117v-594h-260v1487h450zM573 803q57 0 102.5 5t93.5 20.5t80 41
t52.5 70t20.5 104.5q0 124 -80 178t-228 54h-194v-473h153zM639 -348h-90v223h252v-223l-121 -199h-123z" />
    <glyph glyph-name="uni0157" unicode="&#x157;" horiz-adv-x="796" 
d="M373 1057v-158q101 168 280 168q73 0 117 -10v-213q-49 10 -106 10q-148 0 -212.5 -96.5t-64.5 -294.5v-463h-246v1057h232zM381 -127v-221l-119 -199h-119l80 201l-84 -2v221h242z" />
    <glyph glyph-name="Rcaron" unicode="&#x158;" horiz-adv-x="1323" 
d="M610 1487q232 0 359 -57q219 -104 219 -357q0 -139 -84.5 -239t-237.5 -132v-10q60 -6 105.5 -30t76.5 -68t50 -86t41 -107l139 -401h-277l-129 379q-20 56 -42 93t-47.5 62t-62 37.5t-78.5 17.5t-105 5h-117v-594h-260v1487h450zM573 803q57 0 102.5 5t93.5 20.5t80 41
t52.5 70t20.5 104.5q0 124 -80 178t-228 54h-194v-473h153zM260 1858h221l129 -148l131 148h217l-202 -246h-295z" />
    <glyph glyph-name="rcaron" unicode="&#x159;" horiz-adv-x="796" 
d="M373 1057v-158q101 168 280 168q73 0 117 -10v-213q-49 10 -106 10q-148 0 -212.5 -96.5t-64.5 -294.5v-463h-246v1057h232zM121 1487h211l131 -166l129 166h209l-195 -268h-291z" />
    <glyph glyph-name="Sacute" unicode="&#x15a;" 
d="M340 498q0 -154 83.5 -238t235.5 -84q133 0 210 57.5t77 155.5q0 32 -10.5 60t-24.5 48.5t-43 40.5t-51.5 32.5t-65.5 28.5t-68.5 24l-76.5 24q-184 57 -252 88q-184 84 -234 224q-22 60 -22 133q0 191 150 308.5t397 117.5t390.5 -130t148.5 -356h-264q0 127 -82.5 204
t-204.5 77q-109 0 -185.5 -54.5t-76.5 -144.5q0 -41 17 -74.5t46.5 -59.5t81 -50t107.5 -42.5t139 -41.5q80 -22 140 -44.5t123 -58.5t103.5 -78.5t66.5 -105t26 -137.5q0 -202 -155.5 -327.5t-406.5 -125.5q-273 0 -430 140t-157 389h268zM727 1858h279l-273 -244h-207z
" />
    <glyph glyph-name="sacute" unicode="&#x15b;" horiz-adv-x="1052" 
d="M315 338q0 -191 226 -191q88 0 140 35.5t52 96.5q0 37 -17 63.5t-59 45.5t-72.5 28.5t-97.5 25.5q-5 1 -8 2q-162 39 -230 72q-162 81 -163 250q0 145 119 232t321 87q212 0 325.5 -90t113.5 -262h-244q-4 93 -53 134.5t-150 41.5q-82 0 -130 -33t-48 -90q0 -25 9.5 -46
t31.5 -37.5t42 -28t58.5 -23.5t63 -18.5t71.5 -17.5q9 -2 13 -3t11 -3t13 -3q41 -11 71 -20.5t67.5 -24.5t63.5 -31t52.5 -39t42.5 -50t26.5 -63.5t10.5 -78.5q0 -153 -120 -240.5t-328 -87.5q-227 0 -349.5 94t-126.5 273h252zM602 1487h266l-254 -268h-198z" />
    <glyph glyph-name="Scircumflex" unicode="&#x15c;" 
d="M340 498q0 -154 83.5 -238t235.5 -84q133 0 210 57.5t77 155.5q0 32 -10.5 60t-24.5 48.5t-43 40.5t-51.5 32.5t-65.5 28.5t-68.5 24l-76.5 24q-184 57 -252 88q-184 84 -234 224q-22 60 -22 133q0 191 150 308.5t397 117.5t390.5 -130t148.5 -356h-264q0 127 -82.5 204
t-204.5 77q-109 0 -185.5 -54.5t-76.5 -144.5q0 -41 17 -74.5t46.5 -59.5t81 -50t107.5 -42.5t139 -41.5q80 -22 140 -44.5t123 -58.5t103.5 -78.5t66.5 -105t26 -137.5q0 -202 -155.5 -327.5t-406.5 -125.5q-273 0 -430 140t-157 389h268zM498 1858h297l202 -246h-225
l-129 147l-133 -147h-215z" />
    <glyph glyph-name="scircumflex" unicode="&#x15d;" horiz-adv-x="1052" 
d="M315 338q0 -191 226 -191q88 0 140 35.5t52 96.5q0 37 -17 63.5t-59 45.5t-72.5 28.5t-97.5 25.5q-5 1 -8 2q-162 39 -230 72q-162 81 -163 250q0 145 119 232t321 87q212 0 325.5 -90t113.5 -262h-244q-4 93 -53 134.5t-150 41.5q-82 0 -130 -33t-48 -90q0 -25 9.5 -46
t31.5 -37.5t42 -28t58.5 -23.5t63 -18.5t71.5 -17.5q9 -2 13 -3t11 -3t13 -3q41 -11 71 -20.5t67.5 -24.5t63.5 -31t52.5 -39t42.5 -50t26.5 -63.5t10.5 -78.5q0 -153 -120 -240.5t-328 -87.5q-227 0 -349.5 94t-126.5 273h252zM379 1487h295l194 -268h-215l-129 165
l-131 -165h-211z" />
    <glyph glyph-name="Scedilla" unicode="&#x15e;" 
d="M340 498q0 -154 83.5 -238t235.5 -84q133 0 210 57.5t77 155.5q0 32 -10.5 60t-24.5 48.5t-43 40.5t-51.5 32.5t-65.5 28.5t-68.5 24l-76.5 24q-184 57 -252 88q-184 84 -234 224q-22 60 -22 133q0 191 150 308.5t397 117.5t390.5 -130t148.5 -356h-264q0 127 -82.5 204
t-204.5 77q-109 0 -185.5 -54.5t-76.5 -144.5q0 -41 17 -74.5t46.5 -59.5t81 -50t107.5 -42.5t139 -41.5q80 -22 140 -44.5t123 -58.5t103.5 -78.5t66.5 -105t26 -137.5q0 -202 -155.5 -327.5t-406.5 -125.5q-273 0 -430 140t-157 389h268zM623 -420q-74 0 -111 12v113
q24 -6 51 -6q115 0 115 84q0 34 -21.5 55t-66.5 21q-23 0 -37 -2v170h158v-86q67 -4 103 -54.5t36 -111.5q0 -80 -59 -137.5t-168 -57.5z" />
    <glyph glyph-name="scedilla" unicode="&#x15f;" horiz-adv-x="1052" 
d="M315 338q0 -191 226 -191q88 0 140 35.5t52 96.5q0 37 -17 63.5t-59 45.5t-72.5 28.5t-97.5 25.5q-5 1 -8 2q-162 39 -230 72q-162 81 -163 250q0 145 119 232t321 87q212 0 325.5 -90t113.5 -262h-244q-4 93 -53 134.5t-150 41.5q-82 0 -130 -33t-48 -90q0 -25 9.5 -46
t31.5 -37.5t42 -28t58.5 -23.5t63 -18.5t71.5 -17.5q9 -2 13 -3t11 -3t13 -3q41 -11 71 -20.5t67.5 -24.5t63.5 -31t52.5 -39t42.5 -50t26.5 -63.5t10.5 -78.5q0 -153 -120 -240.5t-328 -87.5q-227 0 -349.5 94t-126.5 273h252zM498 -420q-74 0 -111 12v113q24 -6 51 -6
q115 0 115 84q0 34 -21.5 55t-66.5 21q-23 0 -37 -2v170h156v-86q68 -4 104.5 -54t36.5 -112q0 -80 -59 -137.5t-168 -57.5z" />
    <glyph glyph-name="Scaron" unicode="&#x160;" 
d="M340 498q0 -154 83.5 -238t235.5 -84q133 0 210 57.5t77 155.5q0 32 -10.5 60t-24.5 48.5t-43 40.5t-51.5 32.5t-65.5 28.5t-68.5 24l-76.5 24q-184 57 -252 88q-184 84 -234 224q-22 60 -22 133q0 191 150 308.5t397 117.5t390.5 -130t148.5 -356h-264q0 127 -82.5 204
t-204.5 77q-109 0 -185.5 -54.5t-76.5 -144.5q0 -41 17 -74.5t46.5 -59.5t81 -50t107.5 -42.5t139 -41.5q80 -22 140 -44.5t123 -58.5t103.5 -78.5t66.5 -105t26 -137.5q0 -202 -155.5 -327.5t-406.5 -125.5q-273 0 -430 140t-157 389h268zM297 1858h221l129 -148l131 148
h217l-202 -246h-295z" />
    <glyph glyph-name="scaron" unicode="&#x161;" horiz-adv-x="1052" 
d="M315 338q0 -191 226 -191q88 0 140 35.5t52 96.5q0 37 -17 63.5t-59 45.5t-72.5 28.5t-97.5 25.5q-5 1 -8 2q-162 39 -230 72q-162 81 -163 250q0 145 119 232t321 87q212 0 325.5 -90t113.5 -262h-244q-4 93 -53 134.5t-150 41.5q-82 0 -130 -33t-48 -90q0 -25 9.5 -46
t31.5 -37.5t42 -28t58.5 -23.5t63 -18.5t71.5 -17.5q9 -2 13 -3t11 -3t13 -3q41 -11 71 -20.5t67.5 -24.5t63.5 -31t52.5 -39t42.5 -50t26.5 -63.5t10.5 -78.5q0 -153 -120 -240.5t-328 -87.5q-227 0 -349.5 94t-126.5 273h252zM184 1487h211l131 -166l129 166h209
l-194 -268h-291z" />
    <glyph glyph-name="uni0162" unicode="&#x162;" horiz-adv-x="1216" 
d="M20 1272v215h1176v-215h-457v-1272h-262v1272h-457zM594 -420q-74 0 -111 12v113q24 -6 52 -6q114 0 114 84q0 34 -21.5 55t-66.5 21q-23 0 -37 -2v170h158v-86q67 -4 103 -54.5t36 -111.5q0 -80 -59 -137.5t-168 -57.5z" />
    <glyph glyph-name="uni0163" unicode="&#x163;" horiz-adv-x="698" 
d="M197 1319h245v-262h209v-189h-209v-497q0 -102 28 -146.5t99 -44.5q45 0 84 8v-188q-71 -18 -157 -18q-158 0 -228.5 80t-70.5 260v546h-170v189h170v262zM412 -420q-74 0 -111 12v113q24 -6 51 -6q115 0 115 84q0 34 -21.5 55t-66.5 21q-23 0 -37 -2v170h156v-86
q68 -4 104.5 -54t36.5 -112q0 -80 -59 -137.5t-168 -57.5z" />
    <glyph glyph-name="Tcaron" unicode="&#x164;" horiz-adv-x="1216" 
d="M20 1272v215h1176v-215h-457v-1272h-262v1272h-457zM260 1858h221l129 -148l131 148h217l-202 -246h-295z" />
    <glyph glyph-name="tcaron" unicode="&#x165;" horiz-adv-x="698" 
d="M197 1319h245v-262h209v-189h-209v-497q0 -102 28 -146.5t99 -44.5q45 0 84 8v-188q-71 -18 -157 -18q-158 0 -228.5 80t-70.5 260v546h-170v189h170v262zM580 1487h208v-47l-65 -279h-158z" />
    <glyph glyph-name="Tbar" unicode="&#x166;" horiz-adv-x="1253" 
d="M496 647h-316v203h316v422h-457v215h1175v-215h-456v-422h315v-203h-315v-647h-262v647z" />
    <glyph glyph-name="tbar" unicode="&#x167;" horiz-adv-x="724" 
d="M588 180q45 0 84 8v-188q-71 -18 -158 -18q-158 0 -228.5 80t-70.5 260v170h-172v172h172v221h-172v172h172v262h244v-262h209v-172h-209v-221h205v-172h-205v-121q0 -102 28 -146.5t101 -44.5z" />
    <glyph glyph-name="Utilde" unicode="&#x168;" horiz-adv-x="1439" 
d="M406 616q0 -67 7.5 -125t28.5 -118t54.5 -102t90.5 -68.5t132 -26.5q315 0 315 440v871h260v-881q0 -311 -148 -474t-427 -163q-155 0 -265.5 41.5t-178.5 126t-99 204t-31 282.5v864h261v-871zM375 1606q6 116 59.5 181.5t140.5 65.5q45 0 143.5 -40.5t131.5 -40.5
q65 0 74 79h135q-6 -118 -59 -182.5t-144 -64.5q-45 0 -143 41t-131 41q-64 0 -72 -80h-135z" />
    <glyph glyph-name="utilde" unicode="&#x169;" horiz-adv-x="1193" 
d="M823 137q-58 -80 -146.5 -118.5t-187.5 -38.5q-194 0 -299 143q-36 51 -48.5 129t-12.5 205v600h244v-592q0 -53 3.5 -92t15.5 -80t32.5 -67t56.5 -43t86 -17q113 0 174 82q66 89 66 272v537h246v-1057h-230v137zM246 1229q6 121 59 187.5t141 66.5q48 0 148 -42t135 -42
q29 0 52.5 21t27.5 61h133q-4 -120 -58 -187t-143 -67q-47 0 -146.5 43t-133.5 43q-30 0 -54 -20.5t-28 -63.5h-133z" />
    <glyph glyph-name="Umacron" unicode="&#x16a;" horiz-adv-x="1439" 
d="M406 616q0 -67 7.5 -125t28.5 -118t54.5 -102t90.5 -68.5t132 -26.5q315 0 315 440v871h260v-881q0 -311 -148 -474t-427 -163q-155 0 -265.5 41.5t-178.5 126t-99 204t-31 282.5v864h261v-871zM424 1812h588v-176h-588v176z" />
    <glyph glyph-name="umacron" unicode="&#x16b;" horiz-adv-x="1193" 
d="M823 137q-58 -80 -146.5 -118.5t-187.5 -38.5q-194 0 -299 143q-36 51 -48.5 129t-12.5 205v600h244v-592q0 -53 3.5 -92t15.5 -80t32.5 -67t56.5 -43t86 -17q113 0 174 82q66 89 66 272v537h246v-1057h-230v137zM309 1444h572v-176h-572v176z" />
    <glyph glyph-name="Ubreve" unicode="&#x16c;" horiz-adv-x="1439" 
d="M406 616q0 -67 7.5 -125t28.5 -118t54.5 -102t90.5 -68.5t132 -26.5q315 0 315 440v871h260v-881q0 -311 -148 -474t-427 -163q-155 0 -265.5 41.5t-178.5 126t-99 204t-31 282.5v864h261v-871zM713 1595q-149 0 -235.5 73t-92.5 187h203q13 -116 125 -116q114 0 127 116
h200q-6 -115 -92 -187.5t-235 -72.5z" />
    <glyph glyph-name="ubreve" unicode="&#x16d;" horiz-adv-x="1193" 
d="M823 137q-58 -80 -146.5 -118.5t-187.5 -38.5q-194 0 -299 143q-36 51 -48.5 129t-12.5 205v600h244v-592q0 -53 3.5 -92t15.5 -80t32.5 -67t56.5 -43t86 -17q113 0 174 82q66 89 66 272v537h246v-1057h-230v137zM592 1210q-145 0 -232.5 72t-87.5 205h195
q0 -139 125 -139q122 0 125 139h194q-1 -135 -88 -206t-231 -71z" />
    <glyph glyph-name="Uring" unicode="&#x16e;" horiz-adv-x="1439" 
d="M406 616q0 -67 7.5 -125t28.5 -118t54.5 -102t90.5 -68.5t132 -26.5q315 0 315 440v871h260v-881q0 -311 -148 -474t-427 -163q-155 0 -265.5 41.5t-178.5 126t-99 204t-31 282.5v864h261v-871zM721 1499q-104 0 -172 65t-68 160t68 160.5t172 65.5q107 0 173.5 -65
t66.5 -161t-66.5 -160.5t-173.5 -64.5zM721 1612q54 0 83.5 31.5t29.5 80.5t-30.5 81t-82.5 32t-82.5 -32t-30.5 -81t30 -80.5t83 -31.5z" />
    <glyph glyph-name="uring" unicode="&#x16f;" horiz-adv-x="1193" 
d="M823 137q-58 -80 -146.5 -118.5t-187.5 -38.5q-194 0 -299 143q-36 51 -48.5 129t-12.5 205v600h244v-592q0 -53 3.5 -92t15.5 -80t32.5 -67t56.5 -43t86 -17q113 0 174 82q66 89 66 272v537h246v-1057h-230v137zM592 1153q-103 0 -169.5 64.5t-66.5 156.5
q0 94 66.5 158.5t169.5 64.5t169 -64.5t66 -158.5q0 -92 -66.5 -156.5t-168.5 -64.5zM592 1266q52 0 81 31t29 77q0 49 -29 80t-81 31t-81.5 -31t-29.5 -80q0 -46 29.5 -77t81.5 -31z" />
    <glyph glyph-name="Uhungarumlaut" unicode="&#x170;" horiz-adv-x="1439" 
d="M406 616q0 -67 7.5 -125t28.5 -118t54.5 -102t90.5 -68.5t132 -26.5q315 0 315 440v871h260v-881q0 -311 -148 -474t-427 -163q-155 0 -265.5 41.5t-178.5 126t-99 204t-31 282.5v864h261v-871zM1032 1858h262l-266 -244h-201zM592 1858h256l-242 -244h-190z" />
    <glyph glyph-name="uhungarumlaut" unicode="&#x171;" horiz-adv-x="1193" 
d="M823 137q-58 -80 -146.5 -118.5t-187.5 -38.5q-194 0 -299 143q-36 51 -48.5 129t-12.5 205v600h244v-592q0 -53 3.5 -92t15.5 -80t32.5 -67t56.5 -43t86 -17q113 0 174 82q66 89 66 272v537h246v-1057h-230v137zM885 1487h248l-250 -268h-189zM463 1487h242l-234 -268
h-180z" />
    <glyph glyph-name="Uogonek" unicode="&#x172;" horiz-adv-x="1439" 
d="M719 -31q-155 0 -265.5 41.5t-178.5 126t-99 204t-31 282.5v864h261v-871q0 -67 7.5 -125t28.5 -118t54.5 -102t90.5 -68.5t132 -26.5q315 0 315 440v871h260v-881q0 -393 -250 -555q-1 -1 -16.5 -11t-23 -15t-25 -17.5t-28 -21t-27 -22.5t-26.5 -25t-22.5 -26.5t-19 -29
t-11.5 -29t-5 -30.5q0 -35 25.5 -56.5t66.5 -21.5q40 0 88 16v-159q-50 -23 -127 -23q-107 0 -175.5 53.5t-68.5 143.5q0 101 105 192h-35z" />
    <glyph glyph-name="uogonek" unicode="&#x173;" horiz-adv-x="1193" 
d="M823 137q-58 -80 -146.5 -118.5t-187.5 -38.5q-194 0 -299 143q-36 51 -48.5 129t-12.5 205v600h244v-592q0 -53 3.5 -92t15.5 -80t32.5 -67t56.5 -43t86 -17q113 0 174 82q66 89 66 272v537h246v-1057h-230v137zM930 -420q-102 0 -170 55.5t-68 145.5q0 74 48 136
t147 134l166 -51q-85 -36 -128.5 -82t-43.5 -94q0 -80 92 -80q32 0 80 16v-159q-43 -21 -123 -21z" />
    <glyph glyph-name="Wcircumflex" unicode="&#x174;" horiz-adv-x="1970" 
d="M295 1487l170 -836l65 -375h15q24 132 78 375l200 836h348l199 -836q21 -84 76 -375h12l72 375l170 836h244l-338 -1487h-334l-199 848q-39 167 -80 387h-12q-35 -187 -82 -387l-199 -848h-335l-338 1487h268zM838 1858h297l202 -246h-225l-129 147l-133 -147h-215z" />
    <glyph glyph-name="wcircumflex" unicode="&#x175;" horiz-adv-x="1617" 
d="M281 1057l110 -529q13 -55 58 -317h14q27 157 63 319l121 527h344l123 -529q12 -52 31.5 -159.5t30.5 -157.5h14q36 235 55 317l113 529h231l-260 -1057h-332l-116 530q-12 53 -33 164t-33 164h-14q-8 -36 -32 -152t-38 -178l-119 -528h-323l-260 1057h252zM659 1487h295
l195 -268h-215l-129 165l-131 -165h-211z" />
    <glyph glyph-name="Ycircumflex" unicode="&#x176;" horiz-adv-x="1259" 
d="M4 1487h301q24 -60 162.5 -331.5t163.5 -336.5h10q28 71 174.5 347t167.5 321h277l-500 -883v-604h-260v604zM483 1858h297l203 -246h-225l-129 147l-133 -147h-215z" />
    <glyph glyph-name="ycircumflex" unicode="&#x177;" horiz-adv-x="1060" 
d="M86 -209q45 -16 107 -16q181 0 204 215l-381 1067h275l155 -529q16 -52 41 -154.5t41 -154.5h13q5 20 34.5 135t47.5 174l165 529h256l-368 -1028q-87 -248 -182 -348.5t-250 -100.5q-101 0 -158 12v199zM385 1487h295l194 -268h-215l-129 165l-131 -165h-211z" />
    <glyph glyph-name="Ydieresis" unicode="&#x178;" horiz-adv-x="1259" 
d="M4 1487h301q24 -60 162.5 -331.5t163.5 -336.5h10q28 71 174.5 347t167.5 321h277l-500 -883v-604h-260v604zM735 1847h234v-235h-234v235zM295 1847h233v-235h-233v235z" />
    <glyph glyph-name="Zacute" unicode="&#x179;" horiz-adv-x="1191" 
d="M823 1282q-120 -8 -286 -8h-449v213h1018v-201l-762 -1079q113 10 305 10h492v-217h-1080v209zM690 1858h279l-273 -244h-207z" />
    <glyph glyph-name="zacute" unicode="&#x17a;" horiz-adv-x="964" 
d="M641 877q-82 -11 -252 -11h-315v191h821v-185l-584 -690q71 8 264 8h340v-190h-864v186zM571 1487h267l-254 -268h-199z" />
    <glyph glyph-name="Zdotaccent" unicode="&#x17b;" horiz-adv-x="1191" 
d="M823 1282q-120 -8 -286 -8h-449v213h1018v-201l-762 -1079q113 10 305 10h492v-217h-1080v209zM481 1851h254v-231h-254v231z" />
    <glyph glyph-name="zdotaccent" unicode="&#x17c;" horiz-adv-x="964" 
d="M641 877q-82 -11 -252 -11h-315v191h821v-185l-584 -690q71 8 264 8h340v-190h-864v186zM616 1487v-248h-245v248h245z" />
    <glyph glyph-name="Zcaron" unicode="&#x17d;" horiz-adv-x="1191" 
d="M823 1282q-120 -8 -286 -8h-449v213h1018v-201l-762 -1079q113 10 305 10h492v-217h-1080v209zM260 1858h221l129 -148l131 148h217l-202 -246h-295z" />
    <glyph glyph-name="zcaron" unicode="&#x17e;" horiz-adv-x="964" 
d="M641 877q-82 -11 -252 -11h-315v191h821v-185l-584 -690q71 8 264 8h340v-190h-864v186zM154 1487h211l131 -166l129 166h209l-195 -268h-291z" />
    <glyph glyph-name="longs" unicode="&#x17f;" horiz-adv-x="528" 
d="M141 1124q0 92 13.5 156t49 116t101.5 77.5t166 25.5q76 0 125 -14v-189q-36 7 -74 7q-77 0 -106 -45.5t-29 -147.5v-1110h-246v1124z" />
    <glyph glyph-name="uni018F" unicode="&#x18f;" horiz-adv-x="1482" 
d="M725 -31q-155 0 -277 55t-201.5 156t-121 240t-41.5 309q0 39 2 62h1044q-8 241 -112.5 380.5t-286.5 139.5q-136 0 -223 -69t-117 -208h-270q18 122 73.5 216t138 152t182 87t212.5 29q209 0 362 -97.5t231.5 -270.5t78.5 -402q0 -354 -180 -566.5t-494 -212.5zM733 176
q161 0 259.5 110t125.5 302h-756q13 -197 111.5 -304.5t259.5 -107.5z" />
    <glyph glyph-name="uni0190" unicode="&#x190;" horiz-adv-x="1265" 
d="M1196 467q0 -234 -140.5 -366t-412.5 -132q-249 0 -401 116t-152 321q0 274 287 348v8q-123 30 -195.5 123t-72.5 225q0 184 147.5 296t386.5 112q251 0 385 -121.5t152 -343.5h-260q-3 262 -273 262q-127 0 -203.5 -60.5t-76.5 -173.5q0 -229 327 -229h150v-205h-160
q-172 0 -253 -57t-81 -174q0 -123 84 -186.5t209 -63.5q152 0 224.5 83t72.5 218h256z" />
    <glyph glyph-name="florin" unicode="&#x192;" 
d="M690 104q-39 -216 -143 -323t-285 -107q-64 0 -158 23v182q68 -22 140 -22q52 0 88 18t60 58t38.5 87.5t28.5 120.5l82 432h-228v185h260l58 307q70 365 393 365q77 0 156 -21v-176q-66 18 -129 18q-82 0 -128 -58t-67 -175l-47 -260h242v-185h-275z" />
    <glyph glyph-name="uni0194" unicode="&#x194;" horiz-adv-x="1249" 
d="M10 1487h279l340 -766l340 766h270l-485 -1036l43 -93q20 -42 61 -121.5t61.5 -123.5t39 -106.5t18.5 -115.5q0 -143 -93.5 -227t-258.5 -84q-166 0 -259.5 84t-93.5 227q0 53 19.5 116t42.5 108.5t65 123t62 119.5l39 82zM625 -240q53 0 79.5 41.5t26.5 98.5
q0 82 -108 286q-113 -217 -113 -286q0 -56 30.5 -98t84.5 -42z" />
    <glyph glyph-name="uni0197" unicode="&#x197;" horiz-adv-x="778" 
d="M41 860h219v627h258v-627h219v-203h-219v-657h-258v657h-219v203z" />
    <glyph glyph-name="uni019D" unicode="&#x19d;" horiz-adv-x="1529" 
d="M1370 1487v-1487h-362q-38 67 -192.5 378t-166.5 333q-187 356 -252 522h-14q16 -400 16 -494l2 -762q0 -215 -63.5 -306t-226.5 -91q-65 0 -144 12v191q36 -8 72 -8q33 0 56 11t35.5 27t19.5 46t8.5 57t1.5 70v1501h360q128 -240 379 -742q149 -279 229 -477h15
q-13 319 -13 480l-2 739h242z" />
    <glyph glyph-name="uni01B5" unicode="&#x1b5;" horiz-adv-x="1218" 
d="M123 836h397l318 446q-120 -8 -287 -8h-449v213h1018v-201l-317 -450h289v-193h-426l-308 -436q112 10 306 10h491v-217h-1079v209l307 434h-260v193z" />
    <glyph glyph-name="uni01B6" unicode="&#x1b6;" horiz-adv-x="980" 
d="M651 877q-83 -11 -252 -11h-315v191h821v-185l-221 -262h190v-161h-327l-225 -267q71 8 264 8h340v-190h-865v186l224 263h-189v161h328z" />
    <glyph glyph-name="uni01CD" unicode="&#x1cd;" horiz-adv-x="1419" 
d="M866 1487l551 -1487h-274l-142 401h-591l-138 -401h-268l547 1487h315zM850 850q-94 279 -135 424h-13q-8 -25 -39 -128t-52 -168t-44 -128l-86 -234h451zM360 1858h222l129 -148l131 148h217l-203 -246h-295z" />
    <glyph glyph-name="uni01CE" unicode="&#x1ce;" horiz-adv-x="1126" 
d="M801 0q-7 46 -10 137q-68 -81 -150.5 -119t-204.5 -38q-176 0 -271 82t-95 231q0 50 13 92t33 73.5t53.5 58t66 44.5t80.5 33t86 24t93 17t91.5 12t91.5 9.5t84 9.5v45q0 200 -193 200q-100 0 -154 -46t-55 -132h-251q6 165 129 258.5t331 93.5q124 0 209 -30.5
t133.5 -92.5t69 -142.5t20.5 -192.5v-295q0 -185 23 -332h-223zM762 498q-29 -4 -81.5 -10t-87 -10.5t-80.5 -13t-75.5 -21.5t-58 -32t-42 -48t-13.5 -66q0 -69 45.5 -108t130.5 -39q124 0 193 70t69 233v45zM227 1487h211l131 -166l129 166h209l-194 -268h-291z" />
    <glyph glyph-name="uni01CF" unicode="&#x1cf;" horiz-adv-x="577" 
d="M418 1487v-1487h-258v1487h258zM-59 1858h221l129 -148l131 148h217l-203 -246h-295z" />
    <glyph glyph-name="uni01D0" unicode="&#x1d0;" horiz-adv-x="528" 
d="M387 1057v-1057h-246v1057h246zM399 1219h-272l-172 268h195l116 -162l117 162h190z" />
    <glyph glyph-name="uni01D1" unicode="&#x1d1;" horiz-adv-x="1548" 
d="M774 1518q206 0 363 -97.5t242 -273t85 -404.5t-86 -405t-243 -272.5t-363 -96.5q-208 0 -364.5 96.5t-240 272t-83.5 405.5q0 225 84.5 401t242 275t363.5 99zM774 1311q-196 0 -310 -156.5t-114 -411.5t115.5 -411t306.5 -156q190 0 308 160t118 407q0 256 -114.5 412
t-309.5 156zM424 1858h221l129 -148l131 148h217l-202 -246h-295z" />
    <glyph glyph-name="uni01D2" unicode="&#x1d2;" horiz-adv-x="1202" 
d="M600 1085q242 0 385 -152.5t143 -404.5t-143.5 -404.5t-386.5 -152.5q-240 0 -382 152.5t-142 404.5t143 404.5t383 152.5zM600 897q-128 0 -199 -98.5t-71 -270.5q0 -170 70.5 -269t197.5 -99q130 0 202 98.5t72 269.5t-72 270t-200 99zM260 1487h211l131 -166l129 166
h209l-195 -268h-290z" />
    <glyph glyph-name="uni01D3" unicode="&#x1d3;" horiz-adv-x="1439" 
d="M406 616q0 -67 7.5 -125t28.5 -118t54.5 -102t90.5 -68.5t132 -26.5q315 0 315 440v871h260v-881q0 -311 -148 -474t-427 -163q-155 0 -265.5 41.5t-178.5 126t-99 204t-31 282.5v864h261v-871zM371 1858h221l129 -148l131 148h217l-203 -246h-295z" />
    <glyph glyph-name="uni01D4" unicode="&#x1d4;" horiz-adv-x="1193" 
d="M823 137q-58 -80 -146.5 -118.5t-187.5 -38.5q-194 0 -299 143q-36 51 -48.5 129t-12.5 205v600h244v-592q0 -53 3.5 -92t15.5 -80t32.5 -67t56.5 -43t86 -17q113 0 174 82q66 89 66 272v537h246v-1057h-230v137zM254 1487h211l131 -166l129 166h209l-195 -268h-290z" />
    <glyph glyph-name="Gcaron" unicode="&#x1e6;" horiz-adv-x="1480" 
d="M1149 106q0 47 2 70l-6 4q-61 -98 -173.5 -152.5t-248.5 -54.5q-297 0 -468 204t-171 564q0 163 47.5 304.5t134 246.5t216.5 165.5t288 60.5q246 0 412.5 -132.5t191.5 -341.5h-266q-26 124 -118 195.5t-222 71.5q-193 0 -305.5 -155.5t-112.5 -420.5q0 -253 108.5 -404
t295.5 -151q165 0 266 107t102 301h-329v213h575v-801h-219v106zM422 1858h221l129 -148l131 148h217l-202 -246h-295z" />
    <glyph glyph-name="gcaron" unicode="&#x1e7;" horiz-adv-x="1208" 
d="M78 543q0 147 54.5 268.5t156 193.5t231.5 72q221 0 324 -157v137h225v-905q0 -139 -22 -238.5t-76 -177.5t-151 -117t-240 -39q-204 0 -320 86t-133 252h254q5 -78 57 -120t146 -42q125 0 186 77t61 247v108q-121 -157 -323 -157q-191 0 -310.5 140t-119.5 372zM332 555
q0 -154 66.5 -243t179.5 -89q111 0 180 89t69 237q0 151 -67 245.5t-182 94.5q-114 0 -180 -94t-66 -240zM246 1487h211l131 -166l129 166h209l-195 -268h-291z" />
    <glyph glyph-name="uni01E8" unicode="&#x1e8;" horiz-adv-x="1271" 
d="M420 1487v-658l528 658h297l-579 -690l628 -797h-327l-547 723v-723h-260v1487h260zM313 1858h222l129 -148l131 148h217l-203 -246h-295z" />
    <glyph glyph-name="uni01E9" unicode="&#x1e9;" horiz-adv-x="1060" 
d="M387 1487v-869l358 439h293l-405 -473l448 -584h-307l-387 524v-524h-246v1487h246zM-53 1858h209l112 -148l117 148h203l-180 -246h-283z" />
    <glyph glyph-name="uni01EA" unicode="&#x1ea;" horiz-adv-x="1548" 
d="M926 -420q-110 0 -178 53t-68 144q0 54 27 99t81 93h-14q-315 0 -502.5 211.5t-187.5 562.5q0 225 84.5 401t242 275t363.5 99t363 -97.5t242 -273t85 -404.5q0 -251 -101 -429.5t-288 -280.5q-201 -110 -201 -209q0 -35 25 -56.5t66 -21.5q40 0 88 16v-159
q-50 -23 -127 -23zM774 176q189 0 306.5 159.5t117.5 407.5q0 256 -114 412t-310 156t-310 -156.5t-114 -411.5t115 -411t309 -156z" />
    <glyph glyph-name="uni01EB" unicode="&#x1eb;" horiz-adv-x="1202" 
d="M731 -420q-106 0 -174 53t-68 144q0 105 109 194q-240 0 -382 152.5t-142 404.5t143 404.5t383 152.5q242 0 385 -153.5t143 -409.5q0 -307 -235 -471q-14 -11 -56.5 -40.5t-66.5 -49.5q-90 -74 -90 -137q0 -35 25.5 -56.5t66.5 -21.5t84 16v-159q-47 -23 -125 -23z
M598 160q132 0 203 98t71 270q0 171 -72 270t-200 99t-199 -98.5t-71 -270.5q0 -170 70.5 -269t197.5 -99z" />
    <glyph glyph-name="uni01F8" unicode="&#x1f8;" horiz-adv-x="1529" 
d="M520 1487q108 -199 379 -742q178 -351 229 -477h15q-13 191 -13 480l-2 739h242v-1487h-362q-37 66 -189 373t-170 338q-187 356 -252 522h-14q16 -400 16 -494l2 -739h-241v1487h360zM444 1858h279l197 -244h-209z" />
    <glyph glyph-name="uni01F9" unicode="&#x1f9;" horiz-adv-x="1193" 
d="M369 920q60 80 148.5 118.5t187.5 38.5q112 0 182 -37t114 -108q64 -107 64 -326v-606h-246v590q0 53 -3.5 92.5t-15.5 80.5t-32 67t-56 42.5t-85 16.5q-120 0 -180 -84.5t-60 -269.5v-535h-246v1057h228v-137zM295 1487h268l187 -268h-205z" />
    <glyph glyph-name="Aringacute" unicode="&#x1fa;" horiz-adv-x="1419" 
d="M813 1864q63 -29 99 -83.5t36 -121.5q0 -108 -82 -174l551 -1485h-274l-142 401h-591l-138 -401h-268l547 1485q-82 66 -82 174q0 74 43.5 132t116.5 81l174 244h254zM850 850q-94 279 -135 424h-13q-8 -25 -39 -128t-52 -168t-44 -128l-86 -234h451zM709 1546
q53 0 82.5 32t29.5 81t-30 81t-82 32t-82.5 -32t-30.5 -81t30.5 -81t82.5 -32z" />
    <glyph glyph-name="aringacute" unicode="&#x1fb;" horiz-adv-x="1126" 
d="M801 0q-7 46 -10 137q-68 -81 -150.5 -119t-204.5 -38q-176 0 -271 82t-95 231q0 50 13 92t33 73.5t53.5 58t66 44.5t80.5 33t86 24t93 17t91.5 12t91.5 9.5t84 9.5v45q0 200 -193 200q-100 0 -154 -46t-55 -132h-251q6 165 129 258.5t331 93.5q124 0 209 -30.5
t133.5 -92.5t69 -142.5t20.5 -192.5v-295q0 -185 23 -332h-223zM565 1153q-102 0 -168.5 64.5t-66.5 156.5q0 73 41 130.5t112 80.5l176 248h256l-251 -256q63 -26 100 -81t37 -122q0 -92 -66.5 -156.5t-169.5 -64.5zM762 498q-29 -4 -81.5 -10t-87 -10.5t-80.5 -13
t-75.5 -21.5t-58 -32t-42 -48t-13.5 -66q0 -69 45.5 -108t130.5 -39q124 0 193 70t69 233v45zM565 1266q52 0 81.5 31t29.5 77q0 49 -29.5 80t-81.5 31t-81 -31t-29 -80q0 -46 29 -77t81 -31z" />
    <glyph glyph-name="AEacute" unicode="&#x1fc;" horiz-adv-x="1959" 
d="M735 1487h1100v-215h-672l49 -402h590v-215h-567l51 -438h604v-217h-835l-51 420h-529l-201 -420h-278zM979 635l-74 639h-22l-305 -639h401zM1128 1858h279l-272 -244h-207z" />
    <glyph glyph-name="aeacute" unicode="&#x1fd;" horiz-adv-x="1800" 
d="M453 -29q-108 0 -192.5 34t-136.5 107t-52 177q0 59 17 107.5t46.5 84.5t73.5 64t95 46t114 31t126.5 19t137.5 8l80 2v13q-6 131 -53 190t-150 59q-191 0 -205 -178h-250q17 169 136.5 259.5t314.5 90.5q238 0 344 -165q128 165 363 165q226 0 344 -149.5t118 -413.5
v-59h-725q5 -140 67.5 -228t184.5 -88q83 0 133.5 40t81.5 126h248q-18 -87 -62.5 -154t-106.5 -107.5t-133.5 -60.5t-149.5 -20q-128 0 -236.5 51.5t-163.5 147.5q-64 -100 -170 -149.5t-239 -49.5zM496 145q133 0 200 76t68 248v14h-64q-383 0 -383 -184
q0 -69 47.5 -111.5t131.5 -42.5zM1483 639q-11 129 -72 200.5t-164 71.5q-105 0 -170 -74t-76 -198h482zM981 1487h266l-254 -268h-198z" />
    <glyph glyph-name="Oslashacute" unicode="&#x1fe;" horiz-adv-x="1548" 
d="M131 12l131 176q-178 215 -178 555q0 225 84.5 401t242 275t363.5 99q221 0 389 -117l113 151l127 -98l-121 -162q182 -213 182 -549q0 -347 -190 -560.5t-500 -213.5q-229 0 -391 113l-123 -168zM774 174q189 0 306.5 160.5t117.5 408.5q0 199 -72 340l-604 -817
q106 -92 252 -92zM1026 1219q-110 92 -252 92q-196 0 -310 -156.5t-114 -411.5q0 -201 72 -342zM854 1858h279l-273 -244h-207z" />
    <glyph glyph-name="oslashacute" unicode="&#x1ff;" horiz-adv-x="1208" 
d="M102 -20l113 149q-137 149 -137 399q0 252 143 404.5t383 152.5q160 0 277 -69l106 143l113 -88l-109 -143q142 -155 142 -400q0 -252 -144 -404.5t-387 -152.5q-149 0 -276 68l-111 -148zM600 154q134 0 207.5 100.5t73.5 275.5q0 113 -35 203l-397 -530q64 -49 151 -49
zM758 852q-64 49 -154 49q-130 0 -203 -100.5t-73 -274.5q0 -116 32 -198zM682 1487h266l-254 -268h-198z" />
    <glyph glyph-name="uni0218" unicode="&#x218;" 
d="M340 498q0 -154 83.5 -238t235.5 -84q133 0 210 57.5t77 155.5q0 32 -10.5 60t-24.5 48.5t-43 40.5t-51.5 32.5t-65.5 28.5t-68.5 24l-76.5 24q-184 57 -252 88q-184 84 -234 224q-22 60 -22 133q0 191 150 308.5t397 117.5t390.5 -130t148.5 -356h-264q0 127 -82.5 204
t-204.5 77q-109 0 -185.5 -54.5t-76.5 -144.5q0 -41 17 -74.5t46.5 -59.5t81 -50t107.5 -42.5t139 -41.5q80 -22 140 -44.5t123 -58.5t103.5 -78.5t66.5 -105t26 -137.5q0 -202 -155.5 -327.5t-406.5 -125.5q-273 0 -430 140t-157 389h268zM629 -348h-90v223h252v-223
l-121 -199h-123z" />
    <glyph glyph-name="uni0219" unicode="&#x219;" horiz-adv-x="1052" 
d="M315 338q0 -191 226 -191q88 0 140 35.5t52 96.5q0 37 -17 63.5t-59 45.5t-72.5 28.5t-97.5 25.5q-5 1 -8 2q-162 39 -230 72q-162 81 -163 250q0 145 119 232t321 87q212 0 325.5 -90t113.5 -262h-244q-4 93 -53 134.5t-150 41.5q-82 0 -130 -33t-48 -90q0 -25 9.5 -46
t31.5 -37.5t42 -28t58.5 -23.5t63 -18.5t71.5 -17.5q9 -2 13 -3t11 -3t13 -3q41 -11 71 -20.5t67.5 -24.5t63.5 -31t52.5 -39t42.5 -50t26.5 -63.5t10.5 -78.5q0 -153 -120 -240.5t-328 -87.5q-227 0 -349.5 94t-126.5 273h252zM674 -127v-221l-119 -199h-119l80 201l-84 -2
v221h242z" />
    <glyph glyph-name="uni021A" unicode="&#x21a;" horiz-adv-x="1216" 
d="M20 1272v215h1176v-215h-457v-1272h-262v1272h-457zM569 -348h-90v223h252v-223l-121 -199h-123z" />
    <glyph glyph-name="uni021B" unicode="&#x21b;" horiz-adv-x="698" 
d="M197 1319h245v-262h209v-189h-209v-497q0 -102 28 -146.5t99 -44.5q45 0 84 8v-188q-71 -18 -157 -18q-158 0 -228.5 80t-70.5 260v546h-170v189h170v262zM571 -127v-221l-118 -199h-119l80 201l-84 -2v221h241z" />
    <glyph glyph-name="uni021E" unicode="&#x21e;" horiz-adv-x="1517" 
d="M418 1487v-610h682v610h258v-1487h-258v662h-682v-662h-258v1487h258zM410 1858h221l129 -148l131 148h217l-203 -246h-295z" />
    <glyph glyph-name="uni021F" unicode="&#x21f;" horiz-adv-x="1193" 
d="M387 1487v-561q103 151 318 151q203 0 301 -143q36 -52 47.5 -125.5t11.5 -202.5v-606h-246v590q0 53 -3.5 92.5t-15.5 80.5t-32 67t-56 42.5t-85 16.5q-120 0 -180 -84.5t-60 -269.5v-535h-246v1487h246zM-53 1858h209l112 -148l117 148h203l-180 -246h-283z" />
    <glyph glyph-name="uni022E" unicode="&#x22e;" horiz-adv-x="1548" 
d="M774 1518q206 0 363 -97.5t242 -273t85 -404.5t-86 -405t-243 -272.5t-363 -96.5q-208 0 -364.5 96.5t-240 272t-83.5 405.5q0 225 84.5 401t242 275t363.5 99zM774 1311q-196 0 -310 -156.5t-114 -411.5t115.5 -411t306.5 -156q190 0 308 160t118 407q0 256 -114.5 412
t-309.5 156zM645 1851h254v-231h-254v231z" />
    <glyph glyph-name="uni022F" unicode="&#x22f;" horiz-adv-x="1202" 
d="M600 1085q242 0 385 -152.5t143 -404.5t-143.5 -404.5t-386.5 -152.5q-240 0 -382 152.5t-142 404.5t143 404.5t383 152.5zM600 897q-128 0 -199 -98.5t-71 -270.5q0 -170 70.5 -269t197.5 -99q130 0 202 98.5t72 269.5t-72 270t-200 99zM723 1487v-248h-246v248h246z
" />
    <glyph glyph-name="uni0232" unicode="&#x232;" horiz-adv-x="1259" 
d="M4 1487h301q24 -60 162.5 -331.5t163.5 -336.5h10q28 71 174.5 347t167.5 321h277l-500 -883v-604h-260v604zM338 1812h588v-176h-588v176z" />
    <glyph glyph-name="uni0233" unicode="&#x233;" horiz-adv-x="1060" 
d="M86 -209q45 -16 107 -16q181 0 204 215l-381 1067h275l155 -529q16 -52 41 -154.5t41 -154.5h13q5 20 34.5 135t47.5 174l165 529h256l-368 -1028q-87 -248 -182 -348.5t-250 -100.5q-101 0 -158 12v199zM246 1444h571v-176h-571v176z" />
    <glyph glyph-name="uni0237" unicode="&#x237;" horiz-adv-x="528" 
d="M-51 -217q36 -8 71 -8q33 0 56 11t35.5 27t19.5 46t8.5 57t1.5 70v1071h246v-1047q0 -65 -2 -110t-8.5 -93.5t-19 -80.5t-33.5 -62t-51.5 -47t-73.5 -27t-99 -10q-75 0 -151 12v191z" />
    <glyph glyph-name="uni0244" unicode="&#x244;" horiz-adv-x="1521" 
d="M446 872h629v615h260v-615h148v-194h-148v-72q0 -311 -148 -474t-427 -163q-155 0 -265.5 41.5t-178.5 126t-99 204t-31 282.5v55h-147v194h147v615h260v-615zM760 176q315 0 315 440v62h-629v-62q0 -67 7.5 -125t28.5 -118t55 -102t91 -68.5t132 -26.5z" />
    <glyph glyph-name="uni0259" unicode="&#x259;" horiz-adv-x="1159" 
d="M567 -29q-277 0 -403 217q-84 145 -84 412h751q-5 140 -73 222.5t-193 82.5q-170 0 -223 -164h-260q42 171 166.5 257.5t318.5 86.5q251 0 384.5 -148.5t133.5 -412.5q0 -245 -141 -399t-377 -154zM330 420q10 -131 78.5 -200.5t171.5 -69.5q106 0 176 69.5t80 200.5
h-506z" />
    <glyph glyph-name="uni025B" unicode="&#x25b;" horiz-adv-x="1081" 
d="M784 369h238q0 -194 -123.5 -297t-343.5 -103q-106 0 -191 16t-152 50.5t-103.5 94t-36.5 140.5q0 106 61.5 176.5t183.5 94.5v8q-97 23 -155 91t-58 155q0 138 120.5 215t314.5 77q226 0 342.5 -98t124.5 -276h-238q-5 88 -62 138t-159 50q-92 0 -144.5 -33t-52.5 -90
q0 -82 57 -114.5t173 -32.5h57v-189h-82q-120 0 -179 -34.5t-59 -120.5q0 -61 66 -96t172 -35t164.5 57t64.5 156z" />
    <glyph glyph-name="uni0263" unicode="&#x263;" horiz-adv-x="987" 
d="M821 -135q0 -55 -18 -104t-55 -90.5t-102.5 -66t-151.5 -24.5t-151.5 24.5t-103 66t-55.5 90.5t-18 104q0 115 82 258l125 227l-396 707h246l271 -490l270 490h246l-396 -707l125 -227q82 -143 82 -258zM379 -123q0 -44 27 -84.5t88 -40.5q32 0 56 13t36 34t17 41t5 39
q0 46 -18 85t-96 171q-7 -12 -19 -33q-62 -108 -79 -146t-17 -79z" />
    <glyph glyph-name="uni0268" unicode="&#x268;" horiz-adv-x="757" 
d="M502 1057v-387h198v-170h-198v-500h-246v500h-199v170h199v387h246zM502 1487v-248h-246v248h246z" />
    <glyph glyph-name="uni0272" unicode="&#x272;" horiz-adv-x="1193" 
d="M1001 932q64 -103 64 -326v-606h-246v590q0 53 -3.5 92.5t-15.5 80.5t-32 67t-56 42.5t-85 16.5q-120 0 -180 -84.5t-60 -269.5v-566q0 -79 -4.5 -130t-21 -105t-46.5 -84.5t-84 -50t-131 -19.5q-75 0 -151 12v191q36 -8 71 -8q33 0 56 11t35.5 27t19.5 46t8.5 57t1.5 70
v1071h228v-137q60 80 148.5 118.5t187.5 38.5q111 0 181.5 -37.5t114.5 -107.5z" />
    <glyph glyph-name="uni0289" unicode="&#x289;" 
d="M39 670h139v387h244v-387h434v387h246v-387h145v-170h-145v-500h-230v137q-58 -80 -146 -118.5t-187 -38.5q-194 0 -299 143q-36 51 -49 129.5t-13 204.5v43h-139v170zM791 248q62 81 65 252h-434v-35q0 -53 3.5 -92t15.5 -80t32.5 -67t56.5 -43t86 -17q114 0 175 82z
" />
    <glyph glyph-name="uni02BC" unicode="&#x2bc;" horiz-adv-x="399" 
d="M180 1278h-86v209h236v-209l-119 -221h-115z" />
    <glyph glyph-name="circumflex" unicode="&#x2c6;" horiz-adv-x="1196" 
d="M451 1487h294l195 -268h-215l-129 165l-131 -165h-211z" />
    <glyph glyph-name="caron" unicode="&#x2c7;" horiz-adv-x="1189" 
d="M254 1487h211l131 -166l129 166h209l-195 -268h-290z" />
    <glyph glyph-name="uni02C9" unicode="&#x2c9;" horiz-adv-x="1128" 
d="M279 1444h571v-176h-571v176z" />
    <glyph glyph-name="breve" unicode="&#x2d8;" horiz-adv-x="1138" 
d="M569 1210q-145 0 -232 72t-87 205h194q0 -139 125 -139q122 0 125 139h195q-1 -135 -88 -206t-232 -71z" />
    <glyph glyph-name="dotaccent" unicode="&#x2d9;" horiz-adv-x="1204" 
d="M725 1487v-248h-246v248h246z" />
    <glyph glyph-name="ring" unicode="&#x2da;" horiz-adv-x="1208" 
d="M604 1153q-102 0 -168.5 64.5t-66.5 156.5q0 94 66 158.5t169 64.5t169.5 -64.5t66.5 -158.5q0 -92 -66.5 -156.5t-169.5 -64.5zM604 1266q52 0 81.5 31t29.5 77q0 49 -29.5 80t-81.5 31t-81 -31t-29 -80q0 -46 29 -77t81 -31z" />
    <glyph glyph-name="ogonek" unicode="&#x2db;" horiz-adv-x="1148" 
d="M614 -420q-102 0 -169.5 55.5t-67.5 145.5q0 74 48 136.5t146 133.5l166 -51q-85 -36 -128.5 -82t-43.5 -94q0 -80 92 -80q32 0 80 16v-159q-43 -21 -123 -21z" />
    <glyph glyph-name="tilde" unicode="&#x2dc;" horiz-adv-x="1202" 
d="M252 1229q6 121 59.5 187.5t141.5 66.5q48 0 147.5 -42t134.5 -42q29 0 52.5 21t27.5 61h133q-4 -120 -57.5 -187t-142.5 -67q-47 0 -147 43t-134 43q-30 0 -54 -20.5t-28 -63.5h-133z" />
    <glyph glyph-name="hungarumlaut" unicode="&#x2dd;" horiz-adv-x="1273" 
d="M915 1487h248l-250 -268h-188zM494 1487h241l-233 -268h-180z" />
    <glyph glyph-name="gravecomb" unicode="&#x300;" horiz-adv-x="0" 
d="M-733 1487h268l186 -268h-204z" />
    <glyph glyph-name="acutecomb" unicode="&#x301;" horiz-adv-x="0" 
d="M-557 1487h266l-254 -268h-198z" />
    <glyph glyph-name="uni0302" unicode="&#x302;" horiz-adv-x="0" 
d="M-657 1487h295l194 -268h-215l-129 165l-131 -165h-211z" />
    <glyph glyph-name="tildecomb" unicode="&#x303;" horiz-adv-x="0" 
d="M-860 1229q6 121 59.5 187.5t141.5 66.5q48 0 147.5 -42t134.5 -42q29 0 52.5 21t27.5 61h133q-4 -120 -58 -187t-143 -67q-47 0 -146.5 43t-133.5 43q-30 0 -54 -20.5t-28 -63.5h-133z" />
    <glyph glyph-name="uni0304" unicode="&#x304;" horiz-adv-x="0" 
d="M-797 1444h572v-176h-572v176z" />
    <glyph glyph-name="uni0306" unicode="&#x306;" horiz-adv-x="0" 
d="M-514 1210q-145 0 -232.5 72t-87.5 205h195q0 -139 125 -139q122 0 125 139h194q-1 -135 -88 -206t-231 -71z" />
    <glyph glyph-name="uni0307" unicode="&#x307;" horiz-adv-x="0" 
d="M-389 1487v-248h-246v248h246z" />
    <glyph glyph-name="uni0308" unicode="&#x308;" horiz-adv-x="0" 
d="M-410 1487h232v-246h-232v246zM-850 1487h232v-246h-232v246z" />
    <glyph glyph-name="uni030A" unicode="&#x30a;" horiz-adv-x="0" 
d="M-514 1153q-103 0 -169.5 64.5t-66.5 156.5q0 94 66.5 158.5t169.5 64.5t169 -64.5t66 -158.5q0 -92 -66.5 -156.5t-168.5 -64.5zM-514 1266q52 0 81.5 31t29.5 77q0 49 -29.5 80t-81.5 31t-81.5 -31t-29.5 -80q0 -46 29.5 -77t81.5 -31z" />
    <glyph glyph-name="uni030B" unicode="&#x30b;" horiz-adv-x="0" 
d="M-328 1487h248l-250 -268h-188zM-750 1487h242l-233 -268h-181z" />
    <glyph glyph-name="uni030C" unicode="&#x30c;" horiz-adv-x="0" 
d="M-852 1487h211l131 -166l129 166h209l-195 -268h-290z" />
    <glyph glyph-name="uni0312" unicode="&#x312;" horiz-adv-x="0" 
d="M-633 1212v222l119 198h119l-80 -200l84 2v-222h-242z" />
    <glyph glyph-name="uni0313" unicode="&#x313;" horiz-adv-x="0" 
d="M-543 1278h-86v209h236v-209l-119 -221h-115z" />
    <glyph glyph-name="dotbelowcomb" unicode="&#x323;" horiz-adv-x="0" 
d="M-389 -133v-240h-246v240h246z" />
    <glyph glyph-name="uni0326" unicode="&#x326;" horiz-adv-x="0" 
d="M-391 -127v-221l-119 -199h-119l80 201l-84 -2v221h242z" />
    <glyph glyph-name="uni0327" unicode="&#x327;" horiz-adv-x="0" 
d="M-475 -420q-74 0 -111 12v113q24 -6 51 -6q115 0 115 84q0 34 -21.5 55t-66.5 21q-23 0 -37 -2v170h156v-86q68 -4 104.5 -54t36.5 -112q0 -80 -59 -137.5t-168 -57.5z" />
    <glyph glyph-name="uni0328" unicode="&#x328;" horiz-adv-x="0" 
d="M-492 -420q-102 0 -169.5 55.5t-67.5 145.5q0 74 48 136.5t146 133.5l166 -51q-85 -36 -128.5 -82t-43.5 -94q0 -80 92 -80q32 0 80 16v-159q-43 -21 -123 -21z" />
    <glyph glyph-name="uni032E" unicode="&#x32e;" horiz-adv-x="0" 
d="M-518 -391q-145 0 -232.5 71.5t-87.5 204.5h195q0 -139 125 -139q122 0 125 139h194q-1 -135 -87.5 -205.5t-231.5 -70.5z" />
    <glyph glyph-name="uni0331" unicode="&#x331;" horiz-adv-x="0" 
d="M-797 -162h570v-176h-570v176z" />
    <glyph glyph-name="uni037E" unicode="&#x37e;" horiz-adv-x="509" 
d="M115 -295l104 318h-104v266h280v-279l-125 -305h-155zM395 1057v-289h-278v289h278z" />
    <glyph glyph-name="dieresistonos" unicode="&#x385;" horiz-adv-x="1363" 
d="M475 1481v-230h-213v230h213zM1104 1481v-230h-211v230h211zM829 1532l-94 -313h-168l6 313h256z" />
    <glyph glyph-name="anoteleia" unicode="&#x387;" horiz-adv-x="483" 
d="M383 1059v-289h-279v289h279z" />
    <glyph glyph-name="uni0394" unicode="&#x394;" horiz-adv-x="1398" 
d="M551 1487h309l504 -1317v-170h-1331v170zM813 958q-81 216 -102 312h-15q-38 -152 -94 -299l-293 -762h768z" />
    <glyph glyph-name="Sigma" unicode="&#x3a3;" horiz-adv-x="1212" 
d="M68 213l540 524l-528 535v215h1048v-215h-565q-88 0 -176 6l500 -498v-53l-543 -522q92 10 295 10h512v-215h-1083v213z" />
    <glyph glyph-name="uni03A9" unicode="&#x3a9;" horiz-adv-x="1624" 
d="M383 203q-150 126 -218.5 279.5t-68.5 342.5q0 147 49.5 274.5t140 220.5t226 146.5t299.5 53.5q219 0 384 -92t250 -249t85 -354q0 -189 -68.5 -342.5t-218.5 -279.5h273v-203h-576v190q162 87 242 251t80 370q0 232 -117 372t-334 140q-216 0 -332.5 -140t-116.5 -372
q0 -206 80 -370t242 -251v-190h-573v203h272z" />
    <glyph glyph-name="uni03BC" unicode="&#x3bc;" horiz-adv-x="1259" 
d="M387 1057v-572q0 -323 223 -323q62 0 104 24t64.5 71.5t31.5 105t9 135.5v559h248v-789q0 -57 20 -79.5t70 -22.5q28 0 74 12v-174q-59 -20 -148 -20q-171 0 -217 153q-84 -155 -250 -155q-78 0 -138 31t-89 85v-506h-248v1465h246z" />
    <glyph glyph-name="pi" unicode="&#x3c0;" horiz-adv-x="1316" 
d="M1253 1057v-199h-186v-590q0 -57 20 -79.5t70 -22.5q28 0 74 12v-174q-59 -20 -148 -20q-41 0 -75 5.5t-69.5 22.5t-59 45.5t-39 77t-15.5 113.5v610h-358v-858h-244v858h-188v199h1218z" />
    <glyph glyph-name="uni1E02" unicode="&#x1e02;" horiz-adv-x="1308" 
d="M614 1487q283 0 412 -74q168 -102 168 -313q0 -126 -71 -216t-205 -122v-6q150 -25 228.5 -113.5t78.5 -234.5q0 -245 -209 -347q-74 -36 -170 -48.5t-240 -12.5h-446v1487h454zM618 209q59 0 104.5 4.5t92.5 18.5t77.5 37.5t49.5 63.5t19 95q0 53 -15.5 91t-43 63
t-72.5 39.5t-97.5 20t-124.5 5.5h-188v-438h198zM604 856q50 0 90 3.5t88.5 16.5t81 34.5t54.5 61.5t22 95q0 53 -17.5 91.5t-45 61t-72 35.5t-89 17t-104.5 4h-192v-420h184zM526 1851h254v-231h-254v231z" />
    <glyph glyph-name="uni1E03" unicode="&#x1e03;" horiz-adv-x="1216" 
d="M1141 530q0 -253 -123.5 -401.5t-321.5 -148.5q-99 0 -184 41t-141 118v-139h-230v1487h246v-553q110 143 313 143t322 -147t119 -400zM889 530q0 167 -67.5 263t-188.5 96q-116 0 -184 -99t-68 -260q0 -162 70 -261t186 -99q117 0 184.5 97t67.5 263zM838 1487v-248
h-246v248h246z" />
    <glyph glyph-name="uni1E0A" unicode="&#x1e0a;" horiz-adv-x="1449" 
d="M594 1487q257 0 422 -82q350 -176 350 -655q0 -310 -162 -508q-198 -242 -579 -242h-465v1487h434zM580 215q241 0 370 117q146 134 146 411q0 167 -45 278t-142 173q-119 78 -327 78h-162v-1057h160zM575 1851h254v-231h-254v231z" />
    <glyph glyph-name="uni1E0B" unicode="&#x1e0b;" horiz-adv-x="1218" 
d="M76 530q0 250 121.5 398.5t324.5 148.5q207 0 309 -141v551h246v-1487h-231v141q-55 -77 -140 -119t-184 -42q-205 0 -325.5 145.5t-120.5 404.5zM330 530q0 -166 66.5 -263t183.5 -97q118 0 187 95.5t69 264.5q0 166 -67.5 262.5t-184.5 96.5q-118 0 -186 -96.5
t-68 -262.5zM627 1487v-248h-246v248h246z" />
    <glyph glyph-name="uni1E0C" unicode="&#x1e0c;" horiz-adv-x="1449" 
d="M594 1487q257 0 422 -82q350 -176 350 -655q0 -310 -162 -508q-198 -242 -579 -242h-465v1487h434zM580 215q241 0 370 117q146 134 146 411q0 167 -45 278t-142 173q-119 78 -327 78h-162v-1057h160zM553 -133h254v-240h-254v240z" />
    <glyph glyph-name="uni1E0D" unicode="&#x1e0d;" horiz-adv-x="1218" 
d="M76 530q0 250 121.5 398.5t324.5 148.5q207 0 309 -141v551h246v-1487h-231v141q-55 -77 -140 -119t-184 -42q-205 0 -325.5 145.5t-120.5 404.5zM330 530q0 -166 66.5 -263t183.5 -97q118 0 187 95.5t69 264.5q0 166 -67.5 262.5t-184.5 96.5q-118 0 -186 -96.5
t-68 -262.5zM686 -133v-240h-246v240h246z" />
    <glyph glyph-name="uni1E0E" unicode="&#x1e0e;" horiz-adv-x="1449" 
d="M594 1487q257 0 422 -82q350 -176 350 -655q0 -310 -162 -508q-198 -242 -579 -242h-465v1487h434zM580 215q241 0 370 117q146 134 146 411q0 167 -45 278t-142 173q-119 78 -327 78h-162v-1057h160zM332 -162h569v-176h-569v176z" />
    <glyph glyph-name="uni1E0F" unicode="&#x1e0f;" horiz-adv-x="1218" 
d="M76 530q0 250 121.5 398.5t324.5 148.5q207 0 309 -141v551h246v-1487h-231v141q-55 -77 -140 -119t-184 -42q-205 0 -325.5 145.5t-120.5 404.5zM330 530q0 -166 66.5 -263t183.5 -97q118 0 187 95.5t69 264.5q0 166 -67.5 262.5t-184.5 96.5q-118 0 -186 -96.5
t-68 -262.5zM279 -162h569v-176h-569v176z" />
    <glyph glyph-name="uni1E10" unicode="&#x1e10;" horiz-adv-x="1449" 
d="M594 1487q257 0 422 -82q350 -176 350 -655q0 -310 -162 -508q-198 -242 -579 -242h-465v1487h434zM580 215q241 0 370 117q146 134 146 411q0 167 -45 278t-142 173q-119 78 -327 78h-162v-1057h160zM651 -348h-90v223h252v-223l-121 -199h-123z" />
    <glyph glyph-name="uni1E11" unicode="&#x1e11;" horiz-adv-x="1218" 
d="M76 530q0 250 121.5 398.5t324.5 148.5q207 0 309 -141v551h246v-1487h-231v141q-55 -77 -140 -119t-184 -42q-205 0 -325.5 145.5t-120.5 404.5zM330 530q0 -166 66.5 -263t183.5 -97q118 0 187 95.5t69 264.5q0 166 -67.5 262.5t-184.5 96.5q-118 0 -186 -96.5
t-68 -262.5zM684 -127v-221l-119 -199h-119l80 201l-84 -2v221h242z" />
    <glyph glyph-name="uni1E1E" unicode="&#x1e1e;" horiz-adv-x="1169" 
d="M1114 1487v-215h-694v-455h645v-215h-645v-602h-260v1487h954zM510 1851h254v-231h-254v231z" />
    <glyph glyph-name="uni1E1F" unicode="&#x1e1f;" horiz-adv-x="686" 
d="M37 868v189h170v67q0 92 13.5 156t49 116t101.5 77.5t166 25.5q76 0 125 -14v-189q-36 7 -74 7q-77 0 -106 -45.5t-29 -147.5v-53h209v-189h-209v-868h-246v868h-170zM350 1851h246v-231h-246v231z" />
    <glyph glyph-name="uni1E20" unicode="&#x1e20;" horiz-adv-x="1480" 
d="M1149 106q0 47 2 70l-6 4q-61 -98 -173.5 -152.5t-248.5 -54.5q-297 0 -468 204t-171 564q0 163 47.5 304.5t134 246.5t216.5 165.5t288 60.5q246 0 412.5 -132.5t191.5 -341.5h-266q-26 124 -118 195.5t-222 71.5q-193 0 -305.5 -155.5t-112.5 -420.5q0 -253 108.5 -404
t295.5 -151q165 0 266 107t102 301h-329v213h575v-801h-219v106zM475 1812h588v-176h-588v176z" />
    <glyph glyph-name="uni1E21" unicode="&#x1e21;" horiz-adv-x="1208" 
d="M78 543q0 147 54.5 268.5t156 193.5t231.5 72q221 0 324 -157v137h225v-905q0 -139 -22 -238.5t-76 -177.5t-151 -117t-240 -39q-204 0 -320 86t-133 252h254q5 -78 57 -120t146 -42q125 0 186 77t61 247v108q-121 -157 -323 -157q-191 0 -310.5 140t-119.5 372zM332 555
q0 -154 66.5 -243t179.5 -89q111 0 180 89t69 237q0 151 -67 245.5t-182 94.5q-114 0 -180 -94t-66 -240zM285 1444h571v-176h-571v176z" />
    <glyph glyph-name="uni1E22" unicode="&#x1e22;" horiz-adv-x="1517" 
d="M418 1487v-610h682v610h258v-1487h-258v662h-682v-662h-258v1487h258zM631 1851h254v-231h-254v231z" />
    <glyph glyph-name="uni1E23" unicode="&#x1e23;" horiz-adv-x="1193" 
d="M387 1487v-561q103 151 318 151q203 0 301 -143q36 -52 47.5 -125.5t11.5 -202.5v-606h-246v590q0 53 -3.5 92.5t-15.5 80.5t-32 67t-56 42.5t-85 16.5q-120 0 -180 -84.5t-60 -269.5v-535h-246v1487h246zM827 1487v-248h-245v248h245z" />
    <glyph glyph-name="uni1E24" unicode="&#x1e24;" horiz-adv-x="1517" 
d="M418 1487v-610h682v610h258v-1487h-258v662h-682v-662h-258v1487h258zM631 -133h254v-240h-254v240z" />
    <glyph glyph-name="uni1E25" unicode="&#x1e25;" horiz-adv-x="1193" 
d="M387 1487v-561q103 151 318 151q203 0 301 -143q36 -52 47.5 -125.5t11.5 -202.5v-606h-246v590q0 53 -3.5 92.5t-15.5 80.5t-32 67t-56 42.5t-85 16.5q-120 0 -180 -84.5t-60 -269.5v-535h-246v1487h246zM725 -133v-240h-246v240h246z" />
    <glyph glyph-name="uni1E2A" unicode="&#x1e2a;" horiz-adv-x="1517" 
d="M418 1487v-610h682v610h258v-1487h-258v662h-682v-662h-258v1487h258zM752 -391q-151 0 -237 75t-91 201h201q12 -133 127 -133q117 0 129 133h198q-5 -126 -90.5 -201t-236.5 -75z" />
    <glyph glyph-name="uni1E2B" unicode="&#x1e2b;" horiz-adv-x="1193" 
d="M387 1487v-561q103 151 318 151q203 0 301 -143q36 -52 47.5 -125.5t11.5 -202.5v-606h-246v590q0 53 -3.5 92.5t-15.5 80.5t-32 67t-56 42.5t-85 16.5q-120 0 -180 -84.5t-60 -269.5v-535h-246v1487h246zM596 -391q-145 0 -232.5 71.5t-87.5 204.5h195q0 -139 125 -139
q122 0 125 139h194q-1 -135 -87.5 -205.5t-231.5 -70.5z" />
    <glyph glyph-name="uni1E36" unicode="&#x1e36;" horiz-adv-x="1144" 
d="M420 1487v-1270h702v-217h-962v1487h260zM510 -133h254v-240h-254v240z" />
    <glyph glyph-name="uni1E37" unicode="&#x1e37;" horiz-adv-x="528" 
d="M387 1487v-1487h-246v1487h246zM387 -133v-240h-246v240h246z" />
    <glyph glyph-name="uni1E38" unicode="&#x1e38;" horiz-adv-x="1144" 
d="M420 1487v-1270h702v-217h-962v1487h260zM510 -133h254v-240h-254v240zM-4 1812h588v-176h-588v176z" />
    <glyph glyph-name="uni1E39" unicode="&#x1e39;" horiz-adv-x="528" 
d="M-4 1812h536v-176h-536v176zM387 1487v-1487h-246v1487h246zM387 -133v-240h-246v240h246z" />
    <glyph glyph-name="uni1E3A" unicode="&#x1e3a;" horiz-adv-x="1144" 
d="M420 1487v-1270h702v-217h-962v1487h260zM352 -162h570v-176h-570v176z" />
    <glyph glyph-name="uni1E3B" unicode="&#x1e3b;" horiz-adv-x="528" 
d="M387 1487v-1487h-246v1487h246zM-4 -162h536v-176h-536v176z" />
    <glyph glyph-name="uni1E3E" unicode="&#x1e3e;" horiz-adv-x="1918" 
d="M567 1487l293 -834q28 -81 66.5 -216t44.5 -156h14q37 174 100 372l267 834h407v-1487h-241v768q0 217 10 477h-15q-6 -22 -78 -230.5t-167.5 -498.5t-161.5 -516h-297q-69 224 -165 515.5t-167 499t-78 230.5h-14q14 -306 14 -477v-768h-239v1487h407zM1049 1858h278
l-272 -244h-207z" />
    <glyph glyph-name="uni1E3F" unicode="&#x1e3f;" horiz-adv-x="1816" 
d="M362 1057l-2 -142q47 75 134.5 118.5t191.5 43.5q220 0 299 -178q105 178 361 178q169 0 251 -94q91 -107 91 -321v-662h-246v621q0 268 -178 268q-226 0 -226 -369v-520h-245v621q0 268 -183 268q-223 0 -223 -369v-520h-246v1057h221zM1001 1487h267l-254 -268h-199z
" />
    <glyph glyph-name="uni1E40" unicode="&#x1e40;" horiz-adv-x="1918" 
d="M567 1487l293 -834q28 -81 66.5 -216t44.5 -156h14q37 174 100 372l267 834h407v-1487h-241v768q0 217 10 477h-15q-6 -22 -78 -230.5t-167.5 -498.5t-161.5 -516h-297q-69 224 -165 515.5t-167 499t-78 230.5h-14q14 -306 14 -477v-768h-239v1487h407zM840 1851h254
v-231h-254v231z" />
    <glyph glyph-name="uni1E41" unicode="&#x1e41;" horiz-adv-x="1816" 
d="M362 1057l-2 -142q47 75 134.5 118.5t191.5 43.5q220 0 299 -178q105 178 361 178q169 0 251 -94q91 -107 91 -321v-662h-246v621q0 268 -178 268q-226 0 -226 -369v-520h-245v621q0 268 -183 268q-223 0 -223 -369v-520h-246v1057h221zM1057 1487v-248h-246v248h246z
" />
    <glyph glyph-name="uni1E42" unicode="&#x1e42;" horiz-adv-x="1918" 
d="M567 1487l293 -834q28 -81 66.5 -216t44.5 -156h14q37 174 100 372l267 834h407v-1487h-241v768q0 217 10 477h-15q-6 -22 -78 -230.5t-167.5 -498.5t-161.5 -516h-297q-69 224 -165 515.5t-167 499t-78 230.5h-14q14 -306 14 -477v-768h-239v1487h407zM831 -133h254
v-240h-254v240z" />
    <glyph glyph-name="uni1E43" unicode="&#x1e43;" horiz-adv-x="1816" 
d="M362 1057l-2 -142q47 75 134.5 118.5t191.5 43.5q220 0 299 -178q105 178 361 178q169 0 251 -94q91 -107 91 -321v-662h-246v621q0 268 -178 268q-226 0 -226 -369v-520h-245v621q0 268 -183 268q-223 0 -223 -369v-520h-246v1057h221zM1036 -133v-240h-245v240h245z
" />
    <glyph glyph-name="uni1E44" unicode="&#x1e44;" horiz-adv-x="1529" 
d="M520 1487q108 -199 379 -742q178 -351 229 -477h15q-13 191 -13 480l-2 739h242v-1487h-362q-37 66 -189 373t-170 338q-187 356 -252 522h-14q16 -400 16 -494l2 -739h-241v1487h360zM678 1851h254v-231h-254v231z" />
    <glyph glyph-name="uni1E45" unicode="&#x1e45;" horiz-adv-x="1193" 
d="M369 920q60 80 148.5 118.5t187.5 38.5q112 0 182 -37t114 -108q64 -107 64 -326v-606h-246v590q0 53 -3.5 92.5t-15.5 80.5t-32 67t-56 42.5t-85 16.5q-120 0 -180 -84.5t-60 -269.5v-535h-246v1057h228v-137zM762 1487v-248h-246v248h246z" />
    <glyph glyph-name="uni1E46" unicode="&#x1e46;" horiz-adv-x="1529" 
d="M520 1487q108 -199 379 -742q178 -351 229 -477h15q-13 191 -13 480l-2 739h242v-1487h-362q-37 66 -189 373t-170 338q-187 356 -252 522h-14q16 -400 16 -494l2 -739h-241v1487h360zM616 -133h254v-240h-254v240z" />
    <glyph glyph-name="uni1E47" unicode="&#x1e47;" horiz-adv-x="1193" 
d="M369 920q60 80 148.5 118.5t187.5 38.5q112 0 182 -37t114 -108q64 -107 64 -326v-606h-246v590q0 53 -3.5 92.5t-15.5 80.5t-32 67t-56 42.5t-85 16.5q-120 0 -180 -84.5t-60 -269.5v-535h-246v1057h228v-137zM721 -133v-240h-246v240h246z" />
    <glyph glyph-name="uni1E48" unicode="&#x1e48;" horiz-adv-x="1529" 
d="M520 1487q108 -199 379 -742q178 -351 229 -477h15q-13 191 -13 480l-2 739h242v-1487h-362q-37 66 -189 373t-170 338q-187 356 -252 522h-14q16 -400 16 -494l2 -739h-241v1487h360zM459 -162h569v-176h-569v176z" />
    <glyph glyph-name="uni1E49" unicode="&#x1e49;" horiz-adv-x="1193" 
d="M369 920q60 80 148.5 118.5t187.5 38.5q112 0 182 -37t114 -108q64 -107 64 -326v-606h-246v590q0 53 -3.5 92.5t-15.5 80.5t-32 67t-56 42.5t-85 16.5q-120 0 -180 -84.5t-60 -269.5v-535h-246v1057h228v-137zM313 -162h570v-176h-570v176z" />
    <glyph glyph-name="uni1E56" unicode="&#x1e56;" horiz-adv-x="1284" 
d="M637 1487q260 0 389 -70q103 -56 157 -161t54 -242q0 -265 -209 -393q-128 -74 -397 -74h-213v-547h-258v1487h477zM625 758q156 0 223 37q121 69 121 231q0 73 -32.5 130t-94.5 89q-61 31 -215 31h-209v-518h207zM516 1851h254v-231h-254v231z" />
    <glyph glyph-name="uni1E57" unicode="&#x1e57;" horiz-adv-x="1216" 
d="M1141 528q0 -257 -122.5 -402.5t-322.5 -145.5q-214 0 -309 141v-533h-246v1469h230v-142q118 162 329 162q202 0 321.5 -149t119.5 -400zM889 528q0 166 -67.5 262.5t-184.5 96.5t-186.5 -97t-69.5 -262t67.5 -262.5t184.5 -97.5q121 0 188.5 96t67.5 264zM782 1487
v-248h-245v248h245z" />
    <glyph glyph-name="uni1E5A" unicode="&#x1e5a;" horiz-adv-x="1323" 
d="M610 1487q232 0 359 -57q219 -104 219 -357q0 -139 -84.5 -239t-237.5 -132v-10q60 -6 105.5 -30t76.5 -68t50 -86t41 -107l139 -401h-277l-129 379q-20 56 -42 93t-47.5 62t-62 37.5t-78.5 17.5t-105 5h-117v-594h-260v1487h450zM573 803q57 0 102.5 5t93.5 20.5t80 41
t52.5 70t20.5 104.5q0 124 -80 178t-228 54h-194v-473h153zM551 -133h254v-240h-254v240z" />
    <glyph glyph-name="uni1E5B" unicode="&#x1e5b;" horiz-adv-x="796" 
d="M373 1057v-158q101 168 280 168q73 0 117 -10v-213q-49 10 -106 10q-148 0 -212.5 -96.5t-64.5 -294.5v-463h-246v1057h232zM385 -133v-240h-246v240h246z" />
    <glyph glyph-name="uni1E5C" unicode="&#x1e5c;" horiz-adv-x="1323" 
d="M610 1487q232 0 359 -57q219 -104 219 -357q0 -139 -84.5 -239t-237.5 -132v-10q60 -6 105.5 -30t76.5 -68t50 -86t41 -107l139 -401h-277l-129 379q-20 56 -42 93t-47.5 62t-62 37.5t-78.5 17.5t-105 5h-117v-594h-260v1487h450zM573 803q57 0 102.5 5t93.5 20.5t80 41
t52.5 70t20.5 104.5q0 124 -80 178t-228 54h-194v-473h153zM551 -133h254v-240h-254v240zM354 1812h588v-176h-588v176z" />
    <glyph glyph-name="uni1E5D" unicode="&#x1e5d;" horiz-adv-x="796" 
d="M373 1057v-158q101 168 280 168q73 0 117 -10v-213q-49 10 -106 10q-148 0 -212.5 -96.5t-64.5 -294.5v-463h-246v1057h232zM385 -133v-240h-246v240h246zM176 1444h572v-176h-572v176z" />
    <glyph glyph-name="uni1E5E" unicode="&#x1e5e;" horiz-adv-x="1323" 
d="M610 1487q232 0 359 -57q219 -104 219 -357q0 -139 -84.5 -239t-237.5 -132v-10q60 -6 105.5 -30t76.5 -68t50 -86t41 -107l139 -401h-277l-129 379q-20 56 -42 93t-47.5 62t-62 37.5t-78.5 17.5t-105 5h-117v-594h-260v1487h450zM573 803q57 0 102.5 5t93.5 20.5t80 41
t52.5 70t20.5 104.5q0 124 -80 178t-228 54h-194v-473h153zM393 -162h570v-176h-570v176z" />
    <glyph glyph-name="uni1E5F" unicode="&#x1e5f;" horiz-adv-x="796" 
d="M373 1057v-158q101 168 280 168q73 0 117 -10v-213q-49 10 -106 10q-148 0 -212.5 -96.5t-64.5 -294.5v-463h-246v1057h232zM-6 -162h536v-176h-536v176z" />
    <glyph glyph-name="uni1E60" unicode="&#x1e60;" 
d="M340 498q0 -154 83.5 -238t235.5 -84q133 0 210 57.5t77 155.5q0 32 -10.5 60t-24.5 48.5t-43 40.5t-51.5 32.5t-65.5 28.5t-68.5 24l-76.5 24q-184 57 -252 88q-184 84 -234 224q-22 60 -22 133q0 191 150 308.5t397 117.5t390.5 -130t148.5 -356h-264q0 127 -82.5 204
t-204.5 77q-109 0 -185.5 -54.5t-76.5 -144.5q0 -41 17 -74.5t46.5 -59.5t81 -50t107.5 -42.5t139 -41.5q80 -22 140 -44.5t123 -58.5t103.5 -78.5t66.5 -105t26 -137.5q0 -202 -155.5 -327.5t-406.5 -125.5q-273 0 -430 140t-157 389h268zM518 1851h254v-231h-254v231z" />
    <glyph glyph-name="uni1E61" unicode="&#x1e61;" horiz-adv-x="1052" 
d="M315 338q0 -191 226 -191q88 0 140 35.5t52 96.5q0 37 -17 63.5t-59 45.5t-72.5 28.5t-97.5 25.5q-5 1 -8 2q-162 39 -230 72q-162 81 -163 250q0 145 119 232t321 87q212 0 325.5 -90t113.5 -262h-244q-4 93 -53 134.5t-150 41.5q-82 0 -130 -33t-48 -90q0 -25 9.5 -46
t31.5 -37.5t42 -28t58.5 -23.5t63 -18.5t71.5 -17.5q9 -2 13 -3t11 -3t13 -3q41 -11 71 -20.5t67.5 -24.5t63.5 -31t52.5 -39t42.5 -50t26.5 -63.5t10.5 -78.5q0 -153 -120 -240.5t-328 -87.5q-227 0 -349.5 94t-126.5 273h252zM653 1487v-248h-245v248h245z" />
    <glyph glyph-name="uni1E62" unicode="&#x1e62;" 
d="M340 498q0 -154 83.5 -238t235.5 -84q133 0 210 57.5t77 155.5q0 32 -10.5 60t-24.5 48.5t-43 40.5t-51.5 32.5t-65.5 28.5t-68.5 24l-76.5 24q-184 57 -252 88q-184 84 -234 224q-22 60 -22 133q0 191 150 308.5t397 117.5t390.5 -130t148.5 -356h-264q0 127 -82.5 204
t-204.5 77q-109 0 -185.5 -54.5t-76.5 -144.5q0 -41 17 -74.5t46.5 -59.5t81 -50t107.5 -42.5t139 -41.5q80 -22 140 -44.5t123 -58.5t103.5 -78.5t66.5 -105t26 -137.5q0 -202 -155.5 -327.5t-406.5 -125.5q-273 0 -430 140t-157 389h268zM535 -133h253v-240h-253v240z" />
    <glyph glyph-name="uni1E63" unicode="&#x1e63;" horiz-adv-x="1052" 
d="M315 338q0 -191 226 -191q88 0 140 35.5t52 96.5q0 37 -17 63.5t-59 45.5t-72.5 28.5t-97.5 25.5q-5 1 -8 2q-162 39 -230 72q-162 81 -163 250q0 145 119 232t321 87q212 0 325.5 -90t113.5 -262h-244q-4 93 -53 134.5t-150 41.5q-82 0 -130 -33t-48 -90q0 -25 9.5 -46
t31.5 -37.5t42 -28t58.5 -23.5t63 -18.5t71.5 -17.5q9 -2 13 -3t11 -3t13 -3q41 -11 71 -20.5t67.5 -24.5t63.5 -31t52.5 -39t42.5 -50t26.5 -63.5t10.5 -78.5q0 -153 -120 -240.5t-328 -87.5q-227 0 -349.5 94t-126.5 273h252zM662 -133v-240h-246v240h246z" />
    <glyph glyph-name="uni1E6A" unicode="&#x1e6a;" horiz-adv-x="1216" 
d="M20 1272v215h1176v-215h-457v-1272h-262v1272h-457zM481 1851h254v-231h-254v231z" />
    <glyph glyph-name="uni1E6B" unicode="&#x1e6b;" horiz-adv-x="698" 
d="M197 1319h245v-262h209v-189h-209v-497q0 -102 28 -146.5t99 -44.5q45 0 84 8v-188q-71 -18 -157 -18q-158 0 -228.5 80t-70.5 260v546h-170v189h170v262zM197 1720h245v-243h-245v243z" />
    <glyph glyph-name="uni1E6C" unicode="&#x1e6c;" horiz-adv-x="1216" 
d="M20 1272v215h1176v-215h-457v-1272h-262v1272h-457zM481 -133h254v-240h-254v240z" />
    <glyph glyph-name="uni1E6D" unicode="&#x1e6d;" horiz-adv-x="698" 
d="M197 1319h245v-262h209v-189h-209v-497q0 -102 28 -146.5t99 -44.5q45 0 84 8v-188q-71 -18 -157 -18q-158 0 -228.5 80t-70.5 260v546h-170v189h170v262zM535 -133v-240h-246v240h246z" />
    <glyph glyph-name="uni1E6E" unicode="&#x1e6e;" horiz-adv-x="1216" 
d="M20 1272v215h1176v-215h-457v-1272h-262v1272h-457zM324 -162h569v-176h-569v176z" />
    <glyph glyph-name="uni1E6F" unicode="&#x1e6f;" horiz-adv-x="698" 
d="M197 1319h245v-262h209v-189h-209v-497q0 -102 28 -146.5t99 -44.5q45 0 84 8v-188q-71 -18 -157 -18q-158 0 -228.5 80t-70.5 260v546h-170v189h170v262zM143 -162h537v-176h-537v176z" />
    <glyph glyph-name="uni1E7C" unicode="&#x1e7c;" horiz-adv-x="1312" 
d="M295 1487l258 -836q25 -80 109 -379h14q31 136 104 379l248 836h277l-492 -1487h-313l-492 1487h287zM324 1606q6 116 59.5 181.5t140.5 65.5q45 0 143.5 -40.5t131.5 -40.5q64 0 73 79h136q-6 -118 -59 -182.5t-144 -64.5q-45 0 -143.5 41t-131.5 41q-63 0 -71 -80h-135
z" />
    <glyph glyph-name="uni1E7D" unicode="&#x1e7d;" horiz-adv-x="1069" 
d="M289 1057l160 -529q14 -46 27.5 -97.5t29 -115.5t24.5 -98h15q45 185 82 311l164 529h262l-369 -1057h-299l-369 1057h273zM186 1229q6 121 59.5 187.5t141.5 66.5q48 0 148 -42t135 -42q29 0 52.5 21t27.5 61h133q-4 -120 -58 -187t-143 -67q-47 0 -147 43t-134 43
q-30 0 -54 -20.5t-28 -63.5h-133z" />
    <glyph glyph-name="Wgrave" unicode="&#x1e80;" horiz-adv-x="1970" 
d="M295 1487l170 -836l65 -375h15q24 132 78 375l200 836h348l199 -836q21 -84 76 -375h12l72 375l170 836h244l-338 -1487h-334l-199 848q-39 167 -80 387h-12q-35 -187 -82 -387l-199 -848h-335l-338 1487h268zM639 1858h279l196 -244h-209z" />
    <glyph glyph-name="wgrave" unicode="&#x1e81;" horiz-adv-x="1617" 
d="M281 1057l110 -529q13 -55 58 -317h14q27 157 63 319l121 527h344l123 -529q12 -52 31.5 -159.5t30.5 -157.5h14q36 235 55 317l113 529h231l-260 -1057h-332l-116 530q-12 53 -33 164t-33 164h-14q-8 -36 -32 -152t-38 -178l-119 -528h-323l-260 1057h252zM475 1487h268
l187 -268h-205z" />
    <glyph glyph-name="Wacute" unicode="&#x1e82;" horiz-adv-x="1970" 
d="M295 1487l170 -836l65 -375h15q24 132 78 375l200 836h348l199 -836q21 -84 76 -375h12l72 375l170 836h244l-338 -1487h-334l-199 848q-39 167 -80 387h-12q-35 -187 -82 -387l-199 -848h-335l-338 1487h268zM1067 1858h279l-273 -244h-207z" />
    <glyph glyph-name="wacute" unicode="&#x1e83;" horiz-adv-x="1617" 
d="M281 1057l110 -529q13 -55 58 -317h14q27 157 63 319l121 527h344l123 -529q12 -52 31.5 -159.5t30.5 -157.5h14q36 235 55 317l113 529h231l-260 -1057h-332l-116 530q-12 53 -33 164t-33 164h-14q-8 -36 -32 -152t-38 -178l-119 -528h-323l-260 1057h252zM883 1487h266
l-254 -268h-199z" />
    <glyph glyph-name="Wdieresis" unicode="&#x1e84;" horiz-adv-x="1970" 
d="M295 1487l170 -836l65 -375h15q24 132 78 375l200 836h348l199 -836q21 -84 76 -375h12l72 375l170 836h244l-338 -1487h-334l-199 848q-39 167 -80 387h-12q-35 -187 -82 -387l-199 -848h-335l-338 1487h268zM1090 1847h233v-235h-233v235zM649 1847h234v-235h-234v235z
" />
    <glyph glyph-name="wdieresis" unicode="&#x1e85;" horiz-adv-x="1617" 
d="M281 1057l110 -529q13 -55 58 -317h14q27 157 63 319l121 527h344l123 -529q12 -52 31.5 -159.5t30.5 -157.5h14q36 235 55 317l113 529h231l-260 -1057h-332l-116 530q-12 53 -33 164t-33 164h-14q-8 -36 -32 -152t-38 -178l-119 -528h-323l-260 1057h252zM909 1487h232
v-246h-232v246zM469 1487h231v-246h-231v246z" />
    <glyph glyph-name="uni1E8A" unicode="&#x1e8a;" horiz-adv-x="1271" 
d="M23 1487h315q20 -42 147.5 -260t157.5 -285h8q29 70 161.5 291t148.5 254h288l-461 -725l492 -762h-315q-8 14 -154.5 268.5t-175.5 321.5h-8q-26 -60 -168.5 -300.5t-165.5 -289.5h-299l489 768zM514 1851h254v-231h-254v231z" />
    <glyph glyph-name="uni1E8B" unicode="&#x1e8b;" horiz-adv-x="1030" 
d="M29 1057h301l133 -242q17 -33 55 -117h8q4 8 27.5 53.5t36.5 67.5l141 238h273l-338 -512l362 -545h-299l-137 244q-11 14 -39.5 69.5t-36.5 77.5h-8q-4 -12 -19.5 -40t-36 -62.5t-22.5 -38.5l-145 -250h-283l365 545zM645 1487v-248h-246v248h246z" />
    <glyph glyph-name="uni1E92" unicode="&#x1e92;" horiz-adv-x="1191" 
d="M823 1282q-120 -8 -286 -8h-449v213h1018v-201l-762 -1079q113 10 305 10h492v-217h-1080v209zM473 -133h254v-240h-254v240z" />
    <glyph glyph-name="uni1E93" unicode="&#x1e93;" horiz-adv-x="964" 
d="M641 877q-82 -11 -252 -11h-315v191h821v-185l-584 -690q71 8 264 8h340v-190h-864v186zM606 -133v-240h-246v240h246z" />
    <glyph glyph-name="uni1E97" unicode="&#x1e97;" horiz-adv-x="698" 
d="M197 1319h245v-262h209v-189h-209v-497q0 -102 28 -146.5t99 -44.5q45 0 84 8v-188q-71 -18 -157 -18q-158 0 -228.5 80t-70.5 260v546h-170v189h170v262zM385 1720h231v-245h-231v245zM27 1720h231v-245h-231v245z" />
    <glyph glyph-name="Germandbls" unicode="&#x1e9e;" horiz-adv-x="1560" 
d="M715 981q0 90 57.5 168.5t153.5 114.5v8h-504v-1272h-262v1487h1104v-203q-146 -56 -210.5 -115.5t-64.5 -148.5q0 -26 11 -50.5t26 -42.5t45 -40.5t51 -36t62 -37.5q35 -21 53 -32t51.5 -33.5t52.5 -38t47.5 -41.5t45 -48.5t36 -53.5t30 -62.5t17.5 -70.5t7 -81
q0 -171 -127 -277t-350 -106q-84 0 -157.5 14.5t-138.5 47.5t-111.5 83t-73.5 124.5t-27 167.5h256q13 -124 68.5 -182t180.5 -58q105 0 161.5 53t56.5 133q0 21 -3.5 40.5t-13.5 37.5t-18 32t-26.5 30.5t-28.5 26t-35 26.5t-36 23.5t-41 25t-40 24.5q-48 28 -73.5 43.5
t-68 44.5t-66 54.5t-49 60t-37 75t-11.5 85.5z" />
    <glyph glyph-name="uni1EA0" unicode="&#x1ea0;" horiz-adv-x="1419" 
d="M866 1487l551 -1487h-274l-142 401h-591l-138 -401h-268l547 1487h315zM850 850q-94 279 -135 424h-13q-8 -25 -39 -128t-52 -168t-44 -128l-86 -234h451zM584 -133h254v-240h-254v240z" />
    <glyph glyph-name="uni1EA1" unicode="&#x1ea1;" horiz-adv-x="1126" 
d="M801 0q-7 46 -10 137q-68 -81 -150.5 -119t-204.5 -38q-176 0 -271 82t-95 231q0 50 13 92t33 73.5t53.5 58t66 44.5t80.5 33t86 24t93 17t91.5 12t91.5 9.5t84 9.5v45q0 200 -193 200q-100 0 -154 -46t-55 -132h-251q6 165 129 258.5t331 93.5q124 0 209 -30.5
t133.5 -92.5t69 -142.5t20.5 -192.5v-295q0 -185 23 -332h-223zM762 498q-29 -4 -81.5 -10t-87 -10.5t-80.5 -13t-75.5 -21.5t-58 -32t-42 -48t-13.5 -66q0 -69 45.5 -108t130.5 -39q124 0 193 70t69 233v45zM672 -133v-240h-246v240h246z" />
    <glyph glyph-name="uni1EB8" unicode="&#x1eb8;" horiz-adv-x="1234" 
d="M1124 1487v-215h-704v-408h663v-215h-663v-432h733v-217h-993v1487h964zM526 -133h254v-240h-254v240z" />
    <glyph glyph-name="uni1EB9" unicode="&#x1eb9;" horiz-adv-x="1155" 
d="M74 532q0 242 141.5 397.5t376.5 155.5q280 0 403 -217q84 -151 84 -411h-751q5 -140 73 -222.5t193 -82.5q171 0 223 163h260q-42 -171 -166.5 -257.5t-318.5 -86.5q-252 0 -385 148.5t-133 412.5zM829 637q-10 131 -78 200.5t-171 69.5q-106 0 -176 -69.5t-80 -200.5
h505zM715 -133v-240h-246v240h246z" />
    <glyph glyph-name="uni1EBC" unicode="&#x1ebc;" horiz-adv-x="1234" 
d="M1124 1487v-215h-704v-408h663v-215h-663v-432h733v-217h-993v1487h964zM315 1606q6 116 60 181.5t141 65.5q45 0 143.5 -40.5t131.5 -40.5q64 0 73 79h135q-6 -118 -58.5 -182.5t-143.5 -64.5q-45 0 -143.5 41t-131.5 41q-63 0 -71 -80h-136z" />
    <glyph glyph-name="uni1EBD" unicode="&#x1ebd;" horiz-adv-x="1155" 
d="M74 532q0 242 141.5 397.5t376.5 155.5q280 0 403 -217q84 -151 84 -411h-751q5 -140 73 -222.5t193 -82.5q171 0 223 163h260q-42 -171 -166.5 -257.5t-318.5 -86.5q-252 0 -385 148.5t-133 412.5zM829 637q-10 131 -78 200.5t-171 69.5q-106 0 -176 -69.5t-80 -200.5
h505zM246 1229q6 121 59 187.5t141 66.5q48 0 148 -42t135 -42q29 0 52.5 21t27.5 61h133q-4 -120 -58 -187t-143 -67q-47 0 -146.5 43t-133.5 43q-30 0 -54 -20.5t-28 -63.5h-133z" />
    <glyph glyph-name="uni1ECA" unicode="&#x1eca;" horiz-adv-x="577" 
d="M418 1487v-1487h-258v1487h258zM162 -133h254v-240h-254v240z" />
    <glyph glyph-name="uni1ECB" unicode="&#x1ecb;" horiz-adv-x="528" 
d="M387 1057v-1057h-246v1057h246zM387 1487v-248h-246v248h246zM387 -133v-240h-246v240h246z" />
    <glyph glyph-name="uni1ECC" unicode="&#x1ecc;" horiz-adv-x="1548" 
d="M774 1518q206 0 363 -97.5t242 -273t85 -404.5t-86 -405t-243 -272.5t-363 -96.5q-208 0 -364.5 96.5t-240 272t-83.5 405.5q0 225 84.5 401t242 275t363.5 99zM774 1311q-196 0 -310 -156.5t-114 -411.5t115.5 -411t306.5 -156q190 0 308 160t118 407q0 256 -114.5 412
t-309.5 156zM645 -133h254v-240h-254v240z" />
    <glyph glyph-name="uni1ECD" unicode="&#x1ecd;" horiz-adv-x="1202" 
d="M600 1085q242 0 385 -152.5t143 -404.5t-143.5 -404.5t-386.5 -152.5q-240 0 -382 152.5t-142 404.5t143 404.5t383 152.5zM600 897q-128 0 -199 -98.5t-71 -270.5q0 -170 70.5 -269t197.5 -99q130 0 202 98.5t72 269.5t-72 270t-200 99zM721 -133v-240h-246v240h246z
" />
    <glyph glyph-name="uni1EE4" unicode="&#x1ee4;" horiz-adv-x="1439" 
d="M406 616q0 -67 7.5 -125t28.5 -118t54.5 -102t90.5 -68.5t132 -26.5q315 0 315 440v871h260v-881q0 -311 -148 -474t-427 -163q-155 0 -265.5 41.5t-178.5 126t-99 204t-31 282.5v864h261v-871zM592 -133h254v-240h-254v240z" />
    <glyph glyph-name="uni1EE5" unicode="&#x1ee5;" horiz-adv-x="1193" 
d="M823 137q-58 -80 -146.5 -118.5t-187.5 -38.5q-194 0 -299 143q-36 51 -48.5 129t-12.5 205v600h244v-592q0 -53 3.5 -92t15.5 -80t32.5 -67t56.5 -43t86 -17q113 0 174 82q66 89 66 272v537h246v-1057h-230v137zM682 -133v-240h-246v240h246z" />
    <glyph glyph-name="Ygrave" unicode="&#x1ef2;" horiz-adv-x="1259" 
d="M4 1487h301q24 -60 162.5 -331.5t163.5 -336.5h10q28 71 174.5 347t167.5 321h277l-500 -883v-604h-260v604zM285 1858h278l197 -244h-209z" />
    <glyph glyph-name="ygrave" unicode="&#x1ef3;" horiz-adv-x="1060" 
d="M86 -209q45 -16 107 -16q181 0 204 215l-381 1067h275l155 -529q16 -52 41 -154.5t41 -154.5h13q5 20 34.5 135t47.5 174l165 529h256l-368 -1028q-87 -248 -182 -348.5t-250 -100.5q-101 0 -158 12v199zM201 1487h268l186 -268h-204z" />
    <glyph glyph-name="uni1EF8" unicode="&#x1ef8;" horiz-adv-x="1259" 
d="M4 1487h301q24 -60 162.5 -331.5t163.5 -336.5h10q28 71 174.5 347t167.5 321h277l-500 -883v-604h-260v604zM289 1606q6 116 59.5 181.5t140.5 65.5q45 0 143.5 -40.5t131.5 -40.5q65 0 74 79h135q-6 -118 -59 -182.5t-144 -64.5q-45 0 -143 41t-131 41q-64 0 -72 -80
h-135z" />
    <glyph glyph-name="uni1EF9" unicode="&#x1ef9;" horiz-adv-x="1060" 
d="M86 -209q45 -16 107 -16q181 0 204 215l-381 1067h275l155 -529q16 -52 41 -154.5t41 -154.5h13q5 20 34.5 135t47.5 174l165 529h256l-368 -1028q-87 -248 -182 -348.5t-250 -100.5q-101 0 -158 12v199zM182 1229q6 121 59.5 187.5t141.5 66.5q48 0 148 -42t135 -42
q29 0 52 21t27 61h134q-4 -120 -58 -187t-143 -67q-47 0 -147 43t-134 43q-30 0 -54 -20.5t-28 -63.5h-133z" />
    <glyph glyph-name="uni2000" unicode="&#x2000;" horiz-adv-x="1024" 
 />
    <glyph glyph-name="uni2001" unicode="&#x2001;" horiz-adv-x="2048" 
 />
    <glyph glyph-name="uni2002" unicode="&#x2002;" horiz-adv-x="1024" 
 />
    <glyph glyph-name="uni2003" unicode="&#x2003;" horiz-adv-x="2048" 
 />
    <glyph glyph-name="uni2004" unicode="&#x2004;" horiz-adv-x="681" 
 />
    <glyph glyph-name="uni2005" unicode="&#x2005;" horiz-adv-x="512" 
 />
    <glyph glyph-name="uni2006" unicode="&#x2006;" horiz-adv-x="342" 
 />
    <glyph glyph-name="uni2007" unicode="&#x2007;" 
 />
    <glyph glyph-name="uni2008" unicode="&#x2008;" horiz-adv-x="483" 
 />
    <glyph glyph-name="uni2009" unicode="&#x2009;" horiz-adv-x="256" 
 />
    <glyph glyph-name="uni200A" unicode="&#x200a;" horiz-adv-x="86" 
 />
    <glyph glyph-name="uni200B" unicode="&#x200b;" horiz-adv-x="0" 
 />
    <glyph glyph-name="figuredash" unicode="&#x2012;" 
d="M1094 668v-176h-899v176h899z" />
    <glyph glyph-name="endash" unicode="&#x2013;" horiz-adv-x="1132" 
d="M1016 668v-176h-899v176h899z" />
    <glyph glyph-name="emdash" unicode="&#x2014;" horiz-adv-x="1656" 
d="M1540 668v-176h-1423v176h1423z" />
    <glyph glyph-name="uni2015" unicode="&#x2015;" horiz-adv-x="1656" 
d="M1540 668v-176h-1423v176h1423z" />
    <glyph glyph-name="quoteleft" unicode="&#x2018;" horiz-adv-x="460" 
d="M365 1161v-258h-275v281l127 303h145l-108 -326h111z" />
    <glyph glyph-name="quoteright" unicode="&#x2019;" horiz-adv-x="448" 
d="M98 1229v258h275v-281l-127 -303h-146l109 326h-111z" />
    <glyph glyph-name="quotesinglbase" unicode="&#x201a;" horiz-adv-x="483" 
d="M102 31v258h275v-281l-127 -303h-146l109 326h-111z" />
    <glyph glyph-name="quotereversed" unicode="&#x201b;" horiz-adv-x="448" 
d="M348 903h-145l-127 303v281h274v-258h-110z" />
    <glyph glyph-name="quotedblleft" unicode="&#x201c;" horiz-adv-x="835" 
d="M463 1190l125 297h149l-104 -322h104v-262h-274v287zM92 1190l125 297h150l-105 -322h105v-262h-275v287z" />
    <glyph glyph-name="quotedblright" unicode="&#x201d;" horiz-adv-x="821" 
d="M373 1200l-125 -297h-150l105 322h-105v262h275v-287zM743 1200l-125 -297h-149l104 322h-104v262h274v-287z" />
    <glyph glyph-name="quotedblbase" unicode="&#x201e;" horiz-adv-x="854" 
d="M377 2l-125 -297h-150l105 322h-105v262h275v-287zM748 2l-125 -297h-150l105 322h-105v262h275v-287z" />
    <glyph glyph-name="uni201F" unicode="&#x201f;" horiz-adv-x="821" 
d="M723 1487v-262h-105l105 -322h-150l-124 297v287h274zM352 1487v-262h-104l104 -322h-149l-125 297v287h274z" />
    <glyph glyph-name="dagger" unicode="&#x2020;" horiz-adv-x="1007" 
d="M49 922v180h338v385h234v-385h337v-180h-337v-922h-234v922h-338z" />
    <glyph glyph-name="daggerdbl" unicode="&#x2021;" horiz-adv-x="1097" 
d="M432 922h-338v180h338v385h234v-385h338v-180h-338v-584h338v-180h-338v-394h-234v394h-338v180h338v584z" />
    <glyph glyph-name="bullet" unicode="&#x2022;" horiz-adv-x="714" 
d="M588 725q0 -100 -66 -166.5t-164 -66.5q-102 0 -166.5 66t-64.5 167q0 99 65 164t166 65q98 0 164 -65.5t66 -163.5z" />
    <glyph glyph-name="ellipsis" unicode="&#x2026;" horiz-adv-x="1400" 
d="M381 289v-289h-279v289h279zM840 289v-289h-279v289h279zM1298 289v-289h-278v289h278z" />
    <glyph glyph-name="perthousand" unicode="&#x2030;" horiz-adv-x="2715" 
d="M401 702q156 0 156 295t-156 295q-155 0 -155 -295t155 -295zM401 571q-84 0 -149.5 34t-105 93t-60 134.5t-20.5 164.5t20.5 164.5t60 134.5t105 93t149.5 34t149.5 -34t105.5 -93t60.5 -135t20.5 -164t-20.5 -164t-60.5 -135t-105.5 -93t-149.5 -34zM1403 1427
l-756 -1456h-147l753 1456h150zM1511 106q156 0 156 295t-156 295q-155 0 -155 -295t155 -295zM1511 -25q-84 0 -149.5 34t-105 93t-60 134.5t-20.5 164.5t20.5 164.5t60 134.5t105 93t149.5 34t149.5 -34t105.5 -93t60.5 -135t20.5 -164t-20.5 -164t-60.5 -135t-105.5 -93
t-149.5 -34zM2314 106q156 0 156 295t-156 295q-155 0 -155 -295t155 -295zM2314 -25q-84 0 -149.5 34t-105.5 93t-60.5 135t-20.5 164t20.5 164t60.5 135t105.5 93t149.5 34t149.5 -34t105.5 -93t60.5 -135t20.5 -164t-20.5 -164t-60.5 -135t-105.5 -93t-149.5 -34z" />
    <glyph glyph-name="minute" unicode="&#x2032;" horiz-adv-x="436" 
d="M350 1399l-59 -600h-144l-61 600h264z" />
    <glyph glyph-name="second" unicode="&#x2033;" horiz-adv-x="804" 
d="M350 1399l-59 -600h-144l-61 600h264zM721 1399l-62 -600h-143l-61 600h266z" />
    <glyph glyph-name="guilsinglleft" unicode="&#x2039;" horiz-adv-x="552" 
d="M262 963h211l-180 -408l180 -408h-211l-201 408z" />
    <glyph glyph-name="guilsinglright" unicode="&#x203a;" horiz-adv-x="550" 
d="M289 147h-209l180 406l-180 410h209l203 -410z" />
    <glyph glyph-name="fraction" unicode="&#x2044;" horiz-adv-x="307" 
d="M600 1427l-756 -1456h-147l754 1456h149z" />
    <glyph glyph-name="uni2070" unicode="&#x2070;" horiz-adv-x="802" 
d="M401 1085q156 0 156 295t-156 295q-155 0 -155 -295t155 -295zM401 954q-84 0 -149.5 34t-105 93t-60 134.5t-20.5 164.5t20.5 164.5t60 134.5t105 93t149.5 34t149.5 -34t105.5 -93t60.5 -135t20.5 -164t-20.5 -164t-60.5 -135t-105.5 -93t-149.5 -34z" />
    <glyph glyph-name="uni2074" unicode="&#x2074;" horiz-adv-x="763" 
d="M578 1167v-188h-164v188h-369v131l311 484h222v-484h139v-131h-139zM414 1298q5 280 8 344h-16q-50 -106 -82 -155l-123 -189h213z" />
    <glyph glyph-name="uni2075" unicode="&#x2075;" horiz-adv-x="735" 
d="M637 1782v-131h-385l-25 -197q36 36 78 51t103 15q124 0 197 -71.5t73 -199.5q0 -134 -84.5 -214.5t-226.5 -80.5q-129 0 -211.5 64t-92.5 174h164q15 -115 140 -115q63 0 105 46t42 118q0 73 -39.5 114.5t-107.5 41.5q-48 0 -83 -25.5t-48 -73.5l-164 17l41 467h524z
" />
    <glyph glyph-name="uni2076" unicode="&#x2076;" horiz-adv-x="763" 
d="M526 1569q-15 114 -123 114q-78 0 -122.5 -68.5t-49.5 -193.5q67 90 205 90q108 0 185 -76t77 -194q0 -138 -82.5 -212.5t-220.5 -74.5q-327 0 -327 410q0 212 85.5 327t249.5 115q130 0 205 -61t82 -176h-164zM395 1389q-63 0 -105 -43t-42 -113q0 -72 40.5 -114
t106.5 -42q61 0 100.5 42.5t39.5 113.5q0 69 -39 112.5t-101 43.5z" />
    <glyph glyph-name="uni2077" unicode="&#x2077;" horiz-adv-x="659" 
d="M168 979q75 377 278 672h-409v131h581v-131q-104 -156 -169.5 -314t-100.5 -358h-180z" />
    <glyph glyph-name="uni2078" unicode="&#x2078;" horiz-adv-x="753" 
d="M377 1073q143 0 143 127q0 61 -38.5 96t-104.5 35t-105 -35t-39 -96q0 -127 144 -127zM377 1454q135 0 135 115q0 60 -35.5 89.5t-99.5 29.5t-99.5 -29.5t-35.5 -89.5q0 -115 135 -115zM377 954q-151 0 -229 61t-78 169q0 83 46 136.5t126 74.5q-164 52 -164 190
q0 99 82 160t217 61t217 -61t82 -160q0 -138 -164 -190q80 -21 126 -74.5t46 -136.5q0 -108 -78 -169t-229 -61z" />
    <glyph glyph-name="uni2079" unicode="&#x2079;" horiz-adv-x="763" 
d="M238 1192q15 -115 122 -115q78 0 122.5 68.5t49.5 193.5q-67 -90 -204 -90q-107 0 -184.5 76.5t-77.5 194.5q0 138 82 212t221 74q327 0 327 -409q0 -212 -86 -327.5t-250 -115.5q-130 0 -204.5 61.5t-81.5 176.5h164zM369 1372q63 0 105 43t42 113q0 71 -40 113t-107 42
q-61 0 -100.5 -42t-39.5 -113q0 -69 39 -112.5t101 -43.5z" />
    <glyph glyph-name="uni2080" unicode="&#x2080;" horiz-adv-x="802" 
d="M401 -195q156 0 156 295t-156 295q-155 0 -155 -295t155 -295zM401 -326q-84 0 -149.5 34t-105 93t-60 134.5t-20.5 164.5t20.5 164.5t60 134.5t105 93t149.5 34t149.5 -34t105.5 -93t60.5 -135t20.5 -164t-20.5 -164t-60.5 -135t-105.5 -93t-149.5 -34z" />
    <glyph glyph-name="uni2081" unicode="&#x2081;" horiz-adv-x="522" 
d="M41 248v106q103 2 160 39t61 109h156v-803h-172v549h-205z" />
    <glyph glyph-name="uni2082" unicode="&#x2082;" horiz-adv-x="733" 
d="M70 -301q-4 28 -4 41q0 65 19 117t60 95t80 71.5t103 68.5q88 53 126 93t38 96q0 60 -33.5 91t-89.5 31q-131 0 -140 -172h-163q5 138 83 216.5t228 78.5q138 0 212.5 -65t74.5 -172q0 -87 -56.5 -151.5t-165.5 -135.5q-72 -46 -114.5 -82.5t-65.5 -81.5h402v-139h-594z
" />
    <glyph glyph-name="uni2083" unicode="&#x2083;" horiz-adv-x="749" 
d="M221 -55q0 -70 41.5 -109t106.5 -39q67 0 107 33.5t40 89.5q0 123 -164 123q-27 0 -41 -2v127q14 -2 41 -2q78 0 117 32.5t39 90.5q0 54 -35 84t-96 30q-66 0 -101.5 -40.5t-37.5 -114.5h-164q6 138 85.5 208t217.5 70q136 0 215.5 -60t79.5 -169q0 -64 -39.5 -117
t-108.5 -71q73 -12 114.5 -63t41.5 -126q0 -116 -79 -181t-224 -65q-150 0 -235 74t-85 213h164v-16z" />
    <glyph glyph-name="uni2084" unicode="&#x2084;" horiz-adv-x="763" 
d="M578 -113v-188h-164v188h-369v131l311 484h222v-484h139v-131h-139zM414 18q5 280 8 344h-16q-50 -106 -82 -155l-123 -189h213z" />
    <glyph glyph-name="uni2085" unicode="&#x2085;" horiz-adv-x="735" 
d="M637 502v-131h-385l-25 -197q36 36 78 51t103 15q124 0 197 -71.5t73 -199.5q0 -134 -84.5 -214.5t-226.5 -80.5q-129 0 -211.5 64t-92.5 174h164q15 -115 140 -115q63 0 105 46t42 118q0 73 -39.5 114.5t-107.5 41.5q-48 0 -83 -25.5t-48 -73.5l-164 17l41 467h524z" />
    <glyph glyph-name="uni2086" unicode="&#x2086;" horiz-adv-x="763" 
d="M526 289q-15 114 -123 114q-78 0 -122.5 -68.5t-49.5 -193.5q67 90 205 90q108 0 185 -76t77 -194q0 -138 -82.5 -212.5t-220.5 -74.5q-327 0 -327 410q0 212 85.5 327t249.5 115q130 0 205 -61t82 -176h-164zM395 109q-63 0 -105 -43t-42 -113q0 -72 40.5 -114
t106.5 -42q61 0 100.5 42.5t39.5 113.5q0 69 -39 112.5t-101 43.5z" />
    <glyph glyph-name="uni2087" unicode="&#x2087;" horiz-adv-x="659" 
d="M168 -301q75 377 278 672h-409v131h581v-131q-104 -156 -169.5 -314t-100.5 -358h-180z" />
    <glyph glyph-name="uni2088" unicode="&#x2088;" horiz-adv-x="753" 
d="M377 -207q143 0 143 127q0 61 -38.5 96t-104.5 35t-105 -35t-39 -96q0 -127 144 -127zM377 174q135 0 135 115q0 60 -35.5 89.5t-99.5 29.5t-99.5 -29.5t-35.5 -89.5q0 -115 135 -115zM377 -326q-151 0 -229 61t-78 169q0 83 46 136.5t126 74.5q-164 52 -164 190
q0 99 82 160t217 61t217 -61t82 -160q0 -138 -164 -190q80 -21 126 -74.5t46 -136.5q0 -108 -78 -169t-229 -61z" />
    <glyph glyph-name="uni2089" unicode="&#x2089;" horiz-adv-x="763" 
d="M238 -88q15 -115 122 -115q78 0 122.5 68.5t49.5 193.5q-67 -90 -204 -90q-107 0 -184.5 76.5t-77.5 194.5q0 138 82 212t221 74q327 0 327 -409q0 -212 -86 -327.5t-250 -115.5q-130 0 -204.5 61.5t-81.5 176.5h164zM369 92q63 0 105 43t42 113q0 71 -40 113t-107 42
q-61 0 -100.5 -42t-39.5 -113q0 -69 39 -112.5t101 -43.5z" />
    <glyph glyph-name="colonmonetary" unicode="&#x20a1;" horiz-adv-x="1243" 
d="M1188 469q-22 -199 -122 -328.5t-288 -160.5l-20 -185h-144l19 174q-77 3 -133 17l-21 -191h-143l26 240q-282 150 -282 643q0 130 27 247.5t79.5 215t136 166.5t189.5 98l20 176h144l-19 -158q75 0 136 -12l18 170h143l-24 -217q228 -117 250 -430h-219q-12 104 -60 172
l-98 -901q134 66 162 264h223zM522 199q64 -23 129 -23h4l113 1024q-63 17 -117 17h-16zM315 688q0 -252 78 -377l94 854q-88 -63 -130 -189t-42 -288z" />
    <glyph glyph-name="uni20A6" unicode="&#x20a6;" horiz-adv-x="1357" 
d="M1270 455h-115v-455h-354l-144 455h-225v-455h-231v455h-111v145h111v166h-111v145h111v488h352l156 -488h215v488h231v-488h115v-145h-115v-166h115v-145zM432 600h178l-53 166h-127zM924 766h-168l51 -166h119zM424 911h88l-82 258h-14zM936 244l-6 211h-76l68 -211h14
z" />
    <glyph glyph-name="Euro" unicode="&#x20ac;" horiz-adv-x="1353" 
d="M190 623v61q0 38 3 76h-132l13 151h135q43 241 181 380t366 139q231 0 363.5 -122.5t158.5 -336.5h-248q-20 124 -84.5 190t-191.5 66q-131 0 -200 -80t-93 -236h485l-12 -151h-488v-66v-71h465l-12 -152h-438q24 -148 93.5 -223.5t199.5 -75.5q131 0 194.5 64.5
t85.5 191.5h250q-74 -459 -530 -459q-243 0 -377.5 125.5t-171.5 376.5h-144l13 152h116z" />
    <glyph glyph-name="uni20B2" unicode="&#x20b2;" horiz-adv-x="1323" 
d="M981 1008q-29 104 -87.5 154.5t-156.5 58.5v-459h482v-762h-213l-9 145q-71 -132 -260 -157v-195h-143v191q-135 10 -235.5 66.5t-160.5 153t-89 221.5t-29 282q0 295 134 482.5t380 219.5v172h143v-166q195 -11 314.5 -108.5t175.5 -298.5h-246zM334 707
q0 -137 27 -245.5t86.5 -185t146.5 -100.5v1034q-260 -71 -260 -503zM737 557v-383q117 23 180.5 113t63.5 231v39h-244z" />
    <glyph glyph-name="uni20B4" unicode="&#x20b4;" horiz-adv-x="1273" 
d="M901 770q-23 -15 -49.5 -30t-61 -33.5t-51.5 -28.5l-100 -53h549v-158h-735q-60 -60 -60 -131q0 -90 67 -137t183 -47q114 0 183 51t92 164h247q-29 -196 -161 -297t-355 -101q-221 0 -359 89t-138 251q0 82 49 158h-127v158h293q109 71 223 125l43 20h-559v158h749
q58 65 58 131q0 87 -60 138.5t-168 51.5q-216 0 -250 -215h-241q26 196 154.5 296t342.5 100q210 0 333.5 -95.5t123.5 -255.5q0 -80 -47 -151h119v-158h-287z" />
    <glyph glyph-name="uni20B5" unicode="&#x20b5;" horiz-adv-x="1243" 
d="M1188 469q-57 -460 -467 -496v-180h-143v180q-250 23 -374 204t-124 501q0 111 19 213t59.5 192.5t98.5 160t140.5 115t180.5 58.5v164h143v-162q212 -18 326.5 -143.5t132.5 -341.5h-240q-12 120 -64 189t-155 87v-1030q104 18 154.5 89t68.5 200h244zM336 688
q0 -228 54 -353t188 -153v1024q-67 -18 -115 -66t-75 -119.5t-39.5 -153t-12.5 -179.5z" />
    <glyph glyph-name="uni20B8" unicode="&#x20b8;" horiz-adv-x="1341" 
d="M66 889v205h1210v-205h-473v-889h-264v889h-473zM1276 1399v-166h-1210v166h1210z" />
    <glyph glyph-name="uni20B9" unicode="&#x20b9;" horiz-adv-x="1226" 
d="M717 1071q-20 44 -55.5 73t-84 43t-96 19.5t-108.5 5.5h-307v187h1087v-180h-268q62 -62 86 -148h176v-184h-182q-32 -96 -111 -163t-192 -85v-8q187 -12 253 -205l148 -426h-277l-120 369q-18 54 -46.5 89t-70.5 52.5t-87 24t-110 6.5h-172v184h180q310 0 365 162h-651
v184h643z" />
    <glyph glyph-name="uni20BA" unicode="&#x20ba;" horiz-adv-x="1277" 
d="M94 872l172 97v430h250v-287l322 182v-145l-322 -186v-146l322 182v-153l-322 -182v-455h29q93 0 171.5 25.5t142 78t100 142.5t36.5 209h234q0 -196 -82 -346t-237.5 -234t-364.5 -84h-279v522l-172 -96v152l172 96v145l-172 -98v151z" />
    <glyph glyph-name="uni20BD" unicode="&#x20bd;" horiz-adv-x="1347" 
d="M262 766v633h494q249 0 393.5 -103.5t144.5 -314.5q0 -106 -41 -185.5t-115 -128t-172 -72.5t-218 -24h-228v-133h492v-186h-492v-252h-258v252h-168v186h168v133h-168v195h168zM520 766h213q145 0 228 54t83 161t-83 160t-228 53h-213v-428z" />
    <glyph glyph-name="uni20BF" unicode="&#x20bf;" horiz-adv-x="1206" 
d="M334 1399v180h141v-180h2q133 0 201 -6v186h141v-209q127 -32 199 -110.5t72 -223.5q0 -109 -66.5 -195.5t-189.5 -117.5v-10q130 -22 213 -104.5t83 -219.5q0 -276 -311 -354v-242h-141v215q-91 -8 -201 -8h-2v-207h-141v207h-195v1399h195zM528 201q342 0 342 205
q0 115 -83.5 161.5t-241.5 46.5h-154v-413h137zM518 811q74 0 130 10t100 32t67 62.5t23 98.5q0 101 -85 141.5t-251 40.5h-111v-385h127z" />
    <glyph glyph-name="uni2113" unicode="&#x2113;" horiz-adv-x="929" 
d="M895 133q-149 -149 -334 -149q-180 0 -263 114.5t-83 360.5l-139 -84l-31 131q95 52 170 112v429q0 180 82 274t238 94q123 0 195.5 -67.5t72.5 -180.5q0 -76 -24 -149t-59 -129.5t-94 -120t-107.5 -106t-121.5 -101.5v-47q0 -221 36.5 -305t131.5 -84q39 0 75 11
t73.5 37t59.5 44t63 55zM477 827q164 153 164 299q0 68 -29 116t-86 48q-68 0 -98.5 -52.5t-30.5 -170.5v-317z" />
    <glyph glyph-name="uni2116" unicode="&#x2116;" horiz-adv-x="2451" 
d="M2343 559v-135h-715v135h715zM1985 664q-184 0 -289 109t-105 314q0 206 104 315t290 109q187 0 291 -108.5t104 -315.5q0 -206 -104.5 -314.5t-290.5 -108.5zM1985 788q111 0 165 81.5t54 217.5q0 137 -54 218t-165 81q-108 0 -163 -81t-55 -218q0 -135 55 -217t163 -82
zM520 1487q108 -199 379 -742q149 -279 229 -477h15q-13 319 -13 480l-2 739h242v-1487h-362q-37 66 -189 373t-170 338q-187 356 -252 522h-14q16 -400 16 -494l2 -739h-241v1487h360z" />
    <glyph glyph-name="uni2117" unicode="&#x2117;" horiz-adv-x="1699" 
d="M893 1190q150 0 237 -70.5t87 -204.5q0 -38 -9.5 -75t-35.5 -77.5t-66 -71t-107 -50.5t-153 -20h-119v-320h-166v889h332zM860 748q86 0 137.5 43t51.5 120q0 76 -49 114t-138 38h-135v-315h133zM78 741q0 213 105.5 392t282.5 281t384 102q127 0 245 -39.5t213 -111
t166 -167t109.5 -213.5t38.5 -244q0 -128 -40 -247.5t-112 -214t-167.5 -165.5t-212 -109t-240.5 -38q-215 0 -392 102t-278.5 279.5t-101.5 392.5zM209 741q0 -132 49 -252.5t133 -209t204 -141t255 -52.5q110 0 211 35.5t178 98.5t134.5 145t87.5 179t30 197
q0 174 -84.5 324.5t-232.5 240t-324 89.5q-138 0 -259.5 -55t-204 -145.5t-130 -209t-47.5 -244.5z" />
    <glyph glyph-name="trademark" unicode="&#x2122;" horiz-adv-x="1892" 
d="M49 1339v148h713v-148h-268v-655h-172v655h-273zM1583 1305h-8l-166 -621h-203l-184 621h-8v-621h-164v803h278l183 -623h6l160 623h276v-803h-170v621z" />
    <glyph glyph-name="estimated" unicode="&#x212e;" horiz-adv-x="1189" 
d="M287 186q141 -153 338 -153q223 0 352 166l49 -45q-73 -96 -170.5 -137.5t-232.5 -41.5q-155 0 -280 74t-194 200t-69 277q0 152 69 278.5t194 200.5t280 74q148 0 266 -74.5t183 -204t65 -290.5h-850v-324zM934 870q-126 150 -324 150q-185 0 -323 -150v-301h647v301z
" />
    <glyph glyph-name="uni2150" unicode="&#x2150;" horiz-adv-x="1488" 
d="M41 1145v106q103 2 160 39t61 109h156v-803h-172v549h-205zM1122 1427l-755 -1456h-148l754 1456h149zM997 0q75 375 279 672h-410v131h582v-131q-104 -156 -169.5 -314t-100.5 -358h-181z" />
    <glyph glyph-name="uni2151" unicode="&#x2151;" horiz-adv-x="1593" 
d="M41 1145v106q103 2 160 39t61 109h156v-803h-172v549h-205zM1122 1427l-755 -1456h-148l754 1456h149zM1067 213q15 -115 123 -115q78 0 122.5 68.5t49.5 193.5q-67 -90 -205 -90q-107 0 -184.5 76.5t-77.5 194.5q0 138 82 212t221 74q328 0 328 -409q0 -212 -86 -327.5
t-250 -115.5q-130 0 -205 61.5t-82 176.5h164zM1198 393q63 0 105.5 43t42.5 113q0 71 -40.5 113.5t-107.5 42.5q-61 0 -100 -42.5t-39 -113.5q0 -69 39 -112.5t100 -43.5z" />
    <glyph glyph-name="uni2152" unicode="&#x2152;" horiz-adv-x="2154" 
d="M41 1145v106q103 2 160 39t61 109h156v-803h-172v549h-205zM1122 1427l-755 -1456h-148l754 1456h149zM870 549v106q104 2 161 39.5t61 108.5h155v-803h-172v549h-205zM1753 106q156 0 156 295t-156 295t-156 -295t156 -295zM1753 -25q-84 0 -149.5 34t-105.5 93
t-60.5 135t-20.5 164t20.5 164t60.5 135t105.5 93t149.5 34t149.5 -34t105.5 -93t60.5 -135t20.5 -164t-20.5 -164t-60.5 -135t-105.5 -93t-149.5 -34z" />
    <glyph glyph-name="onethird" unicode="&#x2153;" horiz-adv-x="1579" 
d="M41 1145v106q103 2 160 39t61 109h156v-803h-172v549h-205zM1122 1427l-755 -1456h-148l754 1456h149zM1051 246q0 -70 41 -109t106 -39q67 0 107.5 33.5t40.5 89.5q0 123 -164 123q-27 0 -41 -2v127q14 -2 41 -2q78 0 116.5 32t38.5 91q0 54 -35.5 84.5t-95.5 30.5
q-66 0 -101.5 -41t-37.5 -115h-164q6 138 85.5 208t217.5 70q136 0 215.5 -60t79.5 -169q0 -64 -39 -117t-108 -71q73 -12 114 -62.5t41 -126.5q0 -116 -79 -181t-224 -65q-150 0 -234.5 74t-84.5 213h164v-16z" />
    <glyph glyph-name="twothirds" unicode="&#x2154;" horiz-adv-x="1789" 
d="M70 596q-4 28 -4 41q0 65 19 117t60 95t80 71.5t103 68.5q88 53 126 93t38 96q0 60 -33.5 91t-89.5 31q-131 0 -140 -172h-163q5 138 83 216.5t228 78.5q138 0 212.5 -65t74.5 -172q0 -87 -56.5 -151.5t-165.5 -135.5q-72 -46 -114.5 -82.5t-65.5 -81.5h402v-139h-594z
M1333 1427l-755 -1456h-148l754 1456h149zM1262 246q0 -70 41 -109t106 -39q67 0 107 33.5t40 89.5q0 123 -163 123q-27 0 -41 -2v127q14 -2 41 -2q78 0 116.5 32t38.5 91q0 54 -35.5 84.5t-95.5 30.5q-66 0 -101.5 -41t-37.5 -115h-164q6 138 85.5 208t217.5 70
q136 0 215.5 -60t79.5 -169q0 -64 -39 -117t-108 -71q73 -12 114 -62.5t41 -126.5q0 -116 -79 -181t-224 -65q-150 0 -234.5 74t-84.5 213h164v-16z" />
    <glyph glyph-name="uni2155" unicode="&#x2155;" horiz-adv-x="1564" 
d="M41 1145v106q103 2 160 39t61 109h156v-803h-172v549h-205zM1122 1427l-755 -1456h-148l754 1456h149zM1466 803v-131h-385l-24 -197q36 36 77.5 51t102.5 15q124 0 197 -71.5t73 -199.5q0 -134 -84.5 -214.5t-226.5 -80.5q-129 0 -211 64t-92 174h164q15 -115 139 -115
q63 0 105 46t42 118q0 73 -39.5 114.5t-107.5 41.5q-48 0 -83 -25.5t-48 -73.5l-164 17l41 467h524z" />
    <glyph glyph-name="uni2156" unicode="&#x2156;" horiz-adv-x="1775" 
d="M70 596q-4 28 -4 41q0 65 19 117t60 95t80 71.5t103 68.5q88 53 126 93t38 96q0 60 -33.5 91t-89.5 31q-131 0 -140 -172h-163q5 138 83 216.5t228 78.5q138 0 212.5 -65t74.5 -172q0 -87 -56.5 -151.5t-165.5 -135.5q-72 -46 -114.5 -82.5t-65.5 -81.5h402v-139h-594z
M1333 1427l-755 -1456h-148l754 1456h149zM1677 803v-131h-385l-24 -197q36 36 77.5 51t102.5 15q124 0 197 -71.5t73 -199.5q0 -134 -84.5 -214.5t-226.5 -80.5q-129 0 -211 64t-92 174h164q15 -115 139 -115q63 0 105 46t42 118q0 73 -39.5 114.5t-107.5 41.5
q-48 0 -83 -25.5t-48 -73.5l-164 17l41 467h524z" />
    <glyph glyph-name="uni2157" unicode="&#x2157;" horiz-adv-x="1792" 
d="M221 842q0 -70 41.5 -109t106.5 -39q67 0 107 33.5t40 89.5q0 123 -164 123q-27 0 -41 -2v127q14 -2 41 -2q78 0 117 32.5t39 90.5q0 54 -35 84t-96 30q-66 0 -101.5 -40.5t-37.5 -114.5h-164q6 138 85.5 208t217.5 70q136 0 215.5 -60t79.5 -169q0 -64 -39.5 -117
t-108.5 -71q73 -12 114.5 -63t41.5 -126q0 -116 -79 -181t-224 -65q-150 0 -235 74t-85 213h164v-16zM1350 1427l-756 -1456h-148l754 1456h150zM1694 803v-131h-385l-25 -197q36 36 77.5 51t102.5 15q124 0 197.5 -71.5t73.5 -199.5q0 -134 -85 -214.5t-227 -80.5
q-129 0 -211 64t-92 174h164q15 -115 139 -115q63 0 105.5 46t42.5 118q0 73 -40 114.5t-108 41.5q-48 0 -83 -25.5t-48 -73.5l-164 17l41 467h525z" />
    <glyph glyph-name="uni2158" unicode="&#x2158;" horiz-adv-x="1806" 
d="M578 784v-188h-164v188h-369v131l311 484h222v-484h139v-131h-139zM414 915q5 281 8 345h-16q-52 -110 -82 -156l-123 -189h213zM1364 1427l-756 -1456h-147l753 1456h150zM1708 803v-131h-385l-25 -197q36 36 78 51t103 15q124 0 197 -71.5t73 -199.5
q0 -134 -84.5 -214.5t-226.5 -80.5q-129 0 -211 64t-92 174h163q15 -115 140 -115q63 0 105 46t42 118q0 73 -39.5 114.5t-107.5 41.5q-48 0 -83 -25.5t-48 -73.5l-164 17l41 467h524z" />
    <glyph glyph-name="uni2159" unicode="&#x2159;" horiz-adv-x="1593" 
d="M41 1145v106q103 2 160 39t61 109h156v-803h-172v549h-205zM1122 1427l-755 -1456h-148l754 1456h149zM1356 590q-15 115 -123 115q-78 0 -122.5 -69t-49.5 -194q67 90 205 90q108 0 185 -76t77 -194q0 -138 -82.5 -212.5t-220.5 -74.5q-328 0 -328 410q0 211 86 326.5
t250 115.5q130 0 205 -61t82 -176h-164zM1225 410q-63 0 -105.5 -43t-42.5 -113q0 -71 40.5 -113.5t107.5 -42.5q61 0 100 42.5t39 113.5q0 69 -39 112.5t-100 43.5z" />
    <glyph glyph-name="uni215A" unicode="&#x215a;" horiz-adv-x="1806" 
d="M637 1399v-131h-385l-25 -197q36 36 78 51t103 15q124 0 197 -71.5t73 -199.5q0 -134 -84.5 -214.5t-226.5 -80.5q-129 0 -211.5 64t-92.5 174h164q15 -115 140 -115q63 0 105 46t42 118q0 73 -39.5 114.5t-107.5 41.5q-48 0 -83 -25.5t-48 -73.5l-164 17l41 467h524z
M1335 1427l-755 -1456h-148l754 1456h149zM1569 590q-15 115 -123 115q-78 0 -122.5 -69t-49.5 -194q67 90 205 90q107 0 184.5 -76t77.5 -194q0 -138 -82.5 -212.5t-220.5 -74.5q-328 0 -328 410q0 211 86 326.5t250 115.5q130 0 205 -61t82 -176h-164zM1438 410
q-63 0 -105.5 -43t-42.5 -113q0 -71 40.5 -113.5t107.5 -42.5q61 0 100 42.5t39 113.5q0 69 -39 112.5t-100 43.5z" />
    <glyph glyph-name="oneeighth" unicode="&#x215b;" horiz-adv-x="1583" 
d="M41 1145v106q103 2 160 39t61 109h156v-803h-172v549h-205zM1122 1427l-755 -1456h-148l754 1456h149zM1206 94q144 0 144 127q0 61 -39 96t-105 35t-104.5 -35t-38.5 -96q0 -127 143 -127zM1206 475q135 0 135 115q0 60 -35.5 89.5t-99.5 29.5t-99.5 -29.5t-35.5 -89.5
q0 -115 135 -115zM1206 -25q-151 0 -229 61t-78 169q0 83 46 136.5t126 74.5q-164 52 -164 190q0 99 82 160t217 61t217 -61t82 -160q0 -138 -164 -190q80 -21 126 -74.5t46 -136.5q0 -108 -78 -169t-229 -61z" />
    <glyph glyph-name="threeeighths" unicode="&#x215c;" horiz-adv-x="1810" 
d="M221 842q0 -70 41.5 -109t106.5 -39q67 0 107 33.5t40 89.5q0 123 -164 123q-27 0 -41 -2v127q14 -2 41 -2q78 0 117 32.5t39 90.5q0 54 -35 84t-96 30q-66 0 -101.5 -40.5t-37.5 -114.5h-164q6 138 85.5 208t217.5 70q136 0 215.5 -60t79.5 -169q0 -64 -39.5 -117
t-108.5 -71q73 -12 114.5 -63t41.5 -126q0 -116 -79 -181t-224 -65q-150 0 -235 74t-85 213h164v-16zM1350 1427l-756 -1456h-148l754 1456h150zM1434 94q143 0 143 127q0 61 -38.5 96t-104.5 35t-105 -35t-39 -96q0 -127 144 -127zM1434 475q135 0 135 115q0 60 -35.5 89.5
t-99.5 29.5t-100 -29.5t-36 -89.5q0 -115 136 -115zM1434 -25q-151 0 -229.5 61t-78.5 169q0 83 46 136.5t126 74.5q-163 52 -163 190q0 99 82 160t217 61t217 -61t82 -160q0 -138 -164 -190q80 -21 126 -74.5t46 -136.5q0 -108 -78 -169t-229 -61z" />
    <glyph glyph-name="fiveeighths" unicode="&#x215d;" horiz-adv-x="1796" 
d="M637 1399v-131h-385l-25 -197q36 36 78 51t103 15q124 0 197 -71.5t73 -199.5q0 -134 -84.5 -214.5t-226.5 -80.5q-129 0 -211.5 64t-92.5 174h164q15 -115 140 -115q63 0 105 46t42 118q0 73 -39.5 114.5t-107.5 41.5q-48 0 -83 -25.5t-48 -73.5l-164 17l41 467h524z
M1335 1427l-755 -1456h-148l754 1456h149zM1419 94q144 0 144 127q0 61 -39 96t-105 35t-104.5 -35t-38.5 -96q0 -127 143 -127zM1419 475q135 0 135 115q0 60 -35.5 89.5t-99.5 29.5t-99.5 -29.5t-35.5 -89.5q0 -115 135 -115zM1419 -25q-151 0 -229 61t-78 169
q0 83 46 136.5t126 74.5q-164 52 -164 190q0 99 82 160t217 61t217 -61t82 -160q0 -138 -164 -190q80 -21 126 -74.5t46 -136.5q0 -108 -78 -169t-229 -61z" />
    <glyph glyph-name="seveneighths" unicode="&#x215e;" horiz-adv-x="1644" 
d="M168 596q75 377 278 672h-409v131h581v-131q-104 -156 -169.5 -314t-100.5 -358h-180zM1184 1427l-756 -1456h-147l753 1456h150zM1268 94q143 0 143 127q0 61 -38.5 96t-104.5 35t-105 -35t-39 -96q0 -127 144 -127zM1268 475q135 0 135 115q0 60 -35.5 89.5t-99.5 29.5
t-99.5 -29.5t-35.5 -89.5q0 -115 135 -115zM1268 -25q-151 0 -229 61t-78 169q0 83 46 136.5t126 74.5q-164 52 -164 190q0 99 82 160t217 61t217 -61t82 -160q0 -138 -164 -190q80 -21 126 -74.5t46 -136.5q0 -108 -78 -169t-229 -61z" />
    <glyph glyph-name="uni215F" unicode="&#x215f;" horiz-adv-x="829" 
d="M41 1145v106q103 2 160 39t61 109h156v-803h-172v549h-205zM1122 1427l-755 -1456h-148l754 1456h149z" />
    <glyph glyph-name="uni2160" unicode="&#x2160;" horiz-adv-x="577" 
d="M418 1487v-1487h-258v1487h258z" />
    <glyph glyph-name="uni2161" unicode="&#x2161;" horiz-adv-x="1157" 
d="M418 1487v-1487h-258v1487h258zM997 1487v-1487h-258v1487h258z" />
    <glyph glyph-name="uni2162" unicode="&#x2162;" horiz-adv-x="1736" 
d="M418 1487v-1487h-258v1487h258zM997 1487v-1487h-258v1487h258zM1577 1487v-1487h-258v1487h258z" />
    <glyph glyph-name="uni2163" unicode="&#x2163;" horiz-adv-x="1892" 
d="M418 1487v-1487h-258v1487h258zM874 1487l259 -836q16 -50 108 -379h14q28 122 105 379l248 836h276l-491 -1487h-314l-491 1487h286z" />
    <glyph glyph-name="uni2164" unicode="&#x2164;" horiz-adv-x="1312" 
d="M295 1487l258 -836q25 -80 109 -379h14q31 136 104 379l248 836h277l-492 -1487h-313l-492 1487h287z" />
    <glyph glyph-name="uni2165" unicode="&#x2165;" horiz-adv-x="1890" 
d="M295 1487l258 -836q25 -80 109 -379h14q31 136 104 379l248 836h277l-492 -1487h-313l-492 1487h287zM1731 1487v-1487h-258v1487h258z" />
    <glyph glyph-name="uni2166" unicode="&#x2166;" horiz-adv-x="2469" 
d="M295 1487l258 -836q25 -80 109 -379h14q31 136 104 379l248 836h277l-492 -1487h-313l-492 1487h287zM1731 1487v-1487h-258v1487h258zM2310 1487v-1487h-258v1487h258z" />
    <glyph glyph-name="uni2167" unicode="&#x2167;" horiz-adv-x="3049" 
d="M295 1487l258 -836q25 -80 109 -379h14q31 136 104 379l248 836h277l-492 -1487h-313l-492 1487h287zM1731 1487v-1487h-258v1487h258zM2310 1487v-1487h-258v1487h258zM2890 1487v-1487h-258v1487h258z" />
    <glyph glyph-name="uni2168" unicode="&#x2168;" horiz-adv-x="1865" 
d="M418 1487v-1487h-258v1487h258zM616 1487h316q20 -42 147.5 -260t157.5 -285h8q29 70 161 291.5t148 253.5h289l-461 -725l492 -762h-315q-8 14 -154.5 268.5t-175.5 321.5h-8q-26 -60 -168.5 -300.5t-165.5 -289.5h-299l489 768z" />
    <glyph glyph-name="uni2169" unicode="&#x2169;" horiz-adv-x="1271" 
d="M23 1487h315q20 -42 147.5 -260t157.5 -285h8q29 70 161.5 291t148.5 254h288l-461 -725l492 -762h-315q-8 14 -154.5 268.5t-175.5 321.5h-8q-26 -60 -168.5 -300.5t-165.5 -289.5h-299l489 768z" />
    <glyph glyph-name="uni216A" unicode="&#x216a;" horiz-adv-x="1865" 
d="M23 1487h315q20 -42 147.5 -260t157.5 -285h8q29 70 161.5 291t148.5 254h288l-461 -725l492 -762h-315q-8 14 -154.5 268.5t-175.5 321.5h-8q-26 -60 -168.5 -300.5t-165.5 -289.5h-299l489 768zM1706 1487v-1487h-258v1487h258z" />
    <glyph glyph-name="uni216B" unicode="&#x216b;" horiz-adv-x="2445" 
d="M23 1487h315q20 -42 147.5 -260t157.5 -285h8q29 70 161.5 291t148.5 254h288l-461 -725l492 -762h-315q-8 14 -154.5 268.5t-175.5 321.5h-8q-26 -60 -168.5 -300.5t-165.5 -289.5h-299l489 768zM1706 1487v-1487h-258v1487h258zM2286 1487v-1487h-258v1487h258z" />
    <glyph glyph-name="uni216C" unicode="&#x216c;" horiz-adv-x="1144" 
d="M420 1487v-1270h702v-217h-962v1487h260z" />
    <glyph glyph-name="uni216D" unicode="&#x216d;" horiz-adv-x="1425" 
d="M1372 510q-30 -240 -192 -390.5t-426 -150.5q-306 0 -488 202t-182 560q0 225 84 404t238.5 281t351.5 102q256 0 421.5 -145.5t182.5 -385.5h-266q-17 149 -108.5 236.5t-231.5 87.5q-184 0 -295 -157.5t-111 -412.5q0 -254 110.5 -409.5t293.5 -155.5q146 0 235.5 89
t110.5 245h272z" />
    <glyph glyph-name="uni216E" unicode="&#x216e;" horiz-adv-x="1449" 
d="M594 1487q257 0 422 -82q350 -176 350 -655q0 -310 -162 -508q-198 -242 -579 -242h-465v1487h434zM580 215q241 0 370 117q146 134 146 411q0 167 -45 278t-142 173q-119 78 -327 78h-162v-1057h160z" />
    <glyph glyph-name="uni216F" unicode="&#x216f;" horiz-adv-x="1918" 
d="M567 1487l293 -834q28 -81 66.5 -216t44.5 -156h14q37 174 100 372l267 834h407v-1487h-241v768q0 217 10 477h-15q-6 -22 -78 -230.5t-167.5 -498.5t-161.5 -516h-297q-69 224 -165 515.5t-167 499t-78 230.5h-14q14 -306 14 -477v-768h-239v1487h407z" />
    <glyph glyph-name="uni2170" unicode="&#x2170;" horiz-adv-x="528" 
d="M387 1057v-1057h-246v1057h246zM387 1487v-248h-246v248h246z" />
    <glyph glyph-name="uni2171" unicode="&#x2171;" horiz-adv-x="1048" 
d="M387 1057v-1057h-246v1057h246zM387 1487v-248h-246v248h246zM907 1057v-1057h-245v1057h245zM907 1487v-248h-245v248h245z" />
    <glyph glyph-name="uni2172" unicode="&#x2172;" horiz-adv-x="1568" 
d="M387 1057v-1057h-246v1057h246zM387 1487v-248h-246v248h246zM907 1057v-1057h-245v1057h245zM907 1487v-248h-245v248h245zM1427 1057v-1057h-245v1057h245zM1427 1487v-248h-245v248h245z" />
    <glyph glyph-name="uni2173" unicode="&#x2173;" horiz-adv-x="1585" 
d="M387 1057v-1057h-246v1057h246zM387 1487v-248h-246v248h246zM805 1057l160 -529q10 -33 82 -311h14q45 185 82 311l164 529h262l-369 -1057h-299l-369 1057h273z" />
    <glyph glyph-name="uni2174" unicode="&#x2174;" horiz-adv-x="1069" 
d="M289 1057l160 -529q14 -46 27.5 -97.5t29 -115.5t24.5 -98h15q45 185 82 311l164 529h262l-369 -1057h-299l-369 1057h273z" />
    <glyph glyph-name="uni2175" unicode="&#x2175;" horiz-adv-x="1585" 
d="M289 1057l160 -529q14 -46 27.5 -97.5t29 -115.5t24.5 -98h15q45 185 82 311l164 529h262l-369 -1057h-299l-369 1057h273zM1444 1057v-1057h-246v1057h246zM1444 1487v-248h-246v248h246z" />
    <glyph glyph-name="uni2176" unicode="&#x2176;" horiz-adv-x="2105" 
d="M289 1057l160 -529q14 -46 27.5 -97.5t29 -115.5t24.5 -98h15q45 185 82 311l164 529h262l-369 -1057h-299l-369 1057h273zM1444 1057v-1057h-246v1057h246zM1444 1487v-248h-246v248h246zM1964 1057v-1057h-246v1057h246zM1964 1487v-248h-246v248h246z" />
    <glyph glyph-name="uni2177" unicode="&#x2177;" horiz-adv-x="2625" 
d="M289 1057l160 -529q14 -46 27.5 -97.5t29 -115.5t24.5 -98h15q45 185 82 311l164 529h262l-369 -1057h-299l-369 1057h273zM1444 1057v-1057h-246v1057h246zM1444 1487v-248h-246v248h246zM1964 1057v-1057h-246v1057h246zM1964 1487v-248h-246v248h246zM2484 1057v-1057
h-246v1057h246zM2484 1487v-248h-246v248h246z" />
    <glyph glyph-name="uni2178" unicode="&#x2178;" horiz-adv-x="1560" 
d="M387 1057v-1057h-246v1057h246zM387 1487v-248h-246v248h246zM559 1057h301l133 -242q25 -49 56 -117h8q5 8 27.5 53.5t35.5 67.5l142 238h272l-338 -512l363 -545h-299l-138 244q-11 14 -39 69t-36 78h-9q-4 -10 -77 -141l-146 -250h-283l365 545z" />
    <glyph glyph-name="uni2179" unicode="&#x2179;" horiz-adv-x="1030" 
d="M29 1057h301l133 -242q17 -33 55 -117h8q4 8 27.5 53.5t36.5 67.5l141 238h273l-338 -512l362 -545h-299l-137 244q-11 14 -39.5 69.5t-36.5 77.5h-8q-4 -12 -19.5 -40t-36 -62.5t-22.5 -38.5l-145 -250h-283l365 545z" />
    <glyph glyph-name="uni217A" unicode="&#x217a;" horiz-adv-x="1560" 
d="M29 1057h301l133 -242q17 -33 55 -117h8q4 8 27.5 53.5t36.5 67.5l141 238h273l-338 -512l362 -545h-299l-137 244q-11 14 -39.5 69.5t-36.5 77.5h-8q-4 -12 -19.5 -40t-36 -62.5t-22.5 -38.5l-145 -250h-283l365 545zM1419 1057v-1057h-245v1057h245zM1419 1487v-248
h-245v248h245z" />
    <glyph glyph-name="uni217B" unicode="&#x217b;" horiz-adv-x="2080" 
d="M29 1057h301l133 -242q17 -33 55 -117h8q4 8 27.5 53.5t36.5 67.5l141 238h273l-338 -512l362 -545h-299l-137 244q-11 14 -39.5 69.5t-36.5 77.5h-8q-4 -12 -19.5 -40t-36 -62.5t-22.5 -38.5l-145 -250h-283l365 545zM1419 1057v-1057h-245v1057h245zM1419 1487v-248
h-245v248h245zM1939 1057v-1057h-245v1057h245zM1939 1487v-248h-245v248h245z" />
    <glyph glyph-name="uni217C" unicode="&#x217c;" horiz-adv-x="528" 
d="M387 1487v-1487h-246v1487h246z" />
    <glyph glyph-name="uni217D" unicode="&#x217d;" horiz-adv-x="1105" 
d="M1049 373q-14 -191 -137 -297.5t-330 -106.5q-234 0 -370 152.5t-136 406.5q0 250 137 404.5t369 154.5q208 0 331 -107.5t134 -289.5h-254q-12 100 -66.5 153.5t-146.5 53.5q-117 0 -183.5 -98.5t-66.5 -266.5t67.5 -270t182.5 -102q92 0 148.5 55t70.5 158h250z" />
    <glyph glyph-name="uni217E" unicode="&#x217e;" horiz-adv-x="1218" 
d="M76 530q0 250 121.5 398.5t324.5 148.5q207 0 309 -141v551h246v-1487h-231v141q-55 -77 -140 -119t-184 -42q-205 0 -325.5 145.5t-120.5 404.5zM330 530q0 -166 66.5 -263t183.5 -97q118 0 187 95.5t69 264.5q0 166 -67.5 262.5t-184.5 96.5q-118 0 -186 -96.5
t-68 -262.5z" />
    <glyph glyph-name="uni217F" unicode="&#x217f;" horiz-adv-x="1816" 
d="M362 1057l-2 -142q47 75 134.5 118.5t191.5 43.5q220 0 299 -178q105 178 361 178q169 0 251 -94q91 -107 91 -321v-662h-246v621q0 268 -178 268q-226 0 -226 -369v-520h-245v621q0 268 -183 268q-223 0 -223 -369v-520h-246v1057h221z" />
    <glyph glyph-name="uni2189" unicode="&#x2189;" horiz-adv-x="1859" 
d="M401 702q156 0 156 295t-156 295q-155 0 -155 -295t155 -295zM401 571q-84 0 -149.5 34t-105 93t-60 134.5t-20.5 164.5t20.5 164.5t60 134.5t105 93t149.5 34t149.5 -34t105.5 -93t60.5 -135t20.5 -164t-20.5 -164t-60.5 -135t-105.5 -93t-149.5 -34zM1403 1427
l-756 -1456h-147l753 1456h150zM1331 246q0 -70 41.5 -109t106.5 -39q67 0 107 33.5t40 89.5q0 123 -164 123q-27 0 -41 -2v127q14 -2 41 -2q78 0 117 32.5t39 90.5q0 54 -35.5 84.5t-95.5 30.5q-66 0 -101.5 -41t-37.5 -115h-164q6 138 85.5 208t217.5 70q136 0 215.5 -60
t79.5 -169q0 -64 -39.5 -117t-108.5 -71q73 -12 114.5 -63t41.5 -126q0 -116 -79 -181t-224 -65q-150 0 -235 74t-85 213h164v-16z" />
    <glyph glyph-name="arrowleft" unicode="&#x2190;" horiz-adv-x="1228" 
d="M743 154l-135 -134l-561 562l561 561l135 -133l-346 -330h772v-197h-772z" />
    <glyph glyph-name="arrowup" unicode="&#x2191;" horiz-adv-x="1196" 
d="M170 426l-133 135l561 561l561 -561l-133 -135l-330 346v-772h-196v772z" />
    <glyph glyph-name="arrowright" unicode="&#x2192;" horiz-adv-x="1228" 
d="M831 680l-346 330l136 133l561 -561l-561 -562l-136 134l346 329h-772v197h772z" />
    <glyph glyph-name="arrowdown" unicode="&#x2193;" horiz-adv-x="1196" 
d="M1026 631l133 -135l-561 -562l-561 562l133 135l330 -346v772h196v-772z" />
    <glyph glyph-name="uni2196" unicode="&#x2196;" horiz-adv-x="1071" 
d="M301 637l12 -477h-190v794h795v-190l-478 12l547 -547l-139 -139z" />
    <glyph glyph-name="uni2197" unicode="&#x2197;" horiz-adv-x="1071" 
d="M631 776l-477 -12v190h794v-794h-190l12 477l-547 -547l-139 139z" />
    <glyph glyph-name="uni2198" unicode="&#x2198;" horiz-adv-x="1073" 
d="M440 287l478 12v-190h-795v794h190l-12 -477l547 547l139 -139z" />
    <glyph glyph-name="uni2199" unicode="&#x2199;" horiz-adv-x="1073" 
d="M772 426l-12 477h190v-794h-794v190l477 -12l-547 547l139 139z" />
    <glyph glyph-name="partialdiff" unicode="&#x2202;" horiz-adv-x="1075" 
d="M326 1423q309 0 485 -201.5t176 -537.5q0 -344 -121.5 -526.5t-365.5 -182.5q-206 0 -329.5 124.5t-123.5 344.5q0 98 38 183t99.5 140.5t139 86.5t157.5 31q89 0 170 -33.5t133 -97.5q-3 74 -20 143t-55 137t-93 118t-140.5 81t-190.5 31zM508 127q102 0 171 88t69 223
q0 124 -65.5 208.5t-176.5 84.5q-112 0 -178 -85.5t-66 -211.5q0 -132 66 -219.5t180 -87.5z" />
    <glyph glyph-name="increment" unicode="&#x2206;" horiz-adv-x="1425" 
d="M565 1487h309l504 -1317v-170h-1331v170zM827 958q-81 216 -102 312h-14q-36 -144 -95 -299l-292 -762h768z" />
    <glyph glyph-name="product" unicode="&#x220f;" horiz-adv-x="1482" 
d="M1423 1223h-174v-1465h-235v1465h-541v-1465h-233v1465h-181v174h1364v-174z" />
    <glyph glyph-name="summation" unicode="&#x2211;" horiz-adv-x="1202" 
d="M662 596l-584 637v166h1040v-176h-753v-4l569 -627l-596 -668v-4h807v-172h-1092v162z" />
    <glyph glyph-name="minus" unicode="&#x2212;" 
d="M150 639h993v-182h-993v182z" />
    <glyph glyph-name="uni2215" unicode="&#x2215;" horiz-adv-x="307" 
d="M600 1427l-756 -1456h-147l754 1456h149z" />
    <glyph glyph-name="uni2219" unicode="&#x2219;" 
d="M784 854v-289h-278v289h278z" />
    <glyph glyph-name="radical" unicode="&#x221a;" horiz-adv-x="1267" 
d="M223 770l-180 -78l-61 152l383 155l233 -741l487 1489h203l-598 -1770h-205z" />
    <glyph glyph-name="infinity" unicode="&#x221e;" 
d="M379 387q45 0 88.5 39t97.5 109q-9 11 -36.5 46.5t-38 47.5t-32.5 32.5t-41.5 27.5t-41.5 7q-47 0 -78 -43.5t-31 -105.5q0 -69 30.5 -114.5t82.5 -45.5zM903 244q-29 0 -56.5 9t-46.5 19.5t-44.5 34t-37.5 36.5t-38 44t-35 41q-63 -84 -127 -134t-145 -50
q-108 0 -180 83t-72 220q0 125 80 215t190 90q40 0 77.5 -15.5t70 -45t55.5 -56.5t51 -65q137 182 273 182q111 0 182 -83t71 -220q0 -124 -79 -214.5t-189 -90.5zM913 711q-45 0 -89 -41t-95 -111q93 -158 186 -158q47 0 79 43t32 105q0 69 -31.5 115.5t-81.5 46.5z" />
    <glyph glyph-name="integral" unicode="&#x222b;" horiz-adv-x="808" 
d="M471 59q-14 -216 -94.5 -322t-237.5 -106q-96 0 -168 35l47 152q57 -23 101 -23q73 0 106.5 63t44.5 212l62 931q14 216 94 322.5t236 106.5q95 0 167 -35l-47 -152q-58 23 -100 23q-73 0 -107 -63t-45 -212z" />
    <glyph glyph-name="approxequal" unicode="&#x2248;" 
d="M858 180q-37 0 -77.5 10t-67.5 21.5t-70 32.5q-128 63 -207 63q-49 0 -89.5 -32t-90.5 -97l-121 119q74 100 138 145t155 45q38 0 79.5 -10.5t67.5 -21.5t70 -33q45 -21 68.5 -31t63.5 -20.5t75 -10.5q50 0 90 33t90 99l121 -121q-40 -52 -67.5 -82t-63.5 -58
t-75.5 -39.5t-88.5 -11.5zM858 596q-54 0 -102.5 16t-112.5 47q-42 21 -67 31.5t-65 21.5t-75 11q-49 0 -89.5 -32t-90.5 -97l-121 119q74 100 138 145t155 45q38 0 79.5 -10.5t67.5 -21.5t70 -33q45 -21 68.5 -31t63.5 -20.5t75 -10.5q50 0 90 33t90 98l121 -121
q-40 -52 -67.5 -82t-63.5 -57.5t-75.5 -39t-88.5 -11.5z" />
    <glyph glyph-name="notequal" unicode="&#x2260;" 
d="M414 276h-267v181h351l92 200h-445v183h527l108 243h197l-109 -243h275v-183h-359l-92 -200h453v-181h-537l-123 -276h-190z" />
    <glyph glyph-name="equivalence" unicode="&#x2261;" 
d="M147 1014h994v-183h-994v183zM147 651h994v-182h-994v182zM147 289h994v-183h-994v183z" />
    <glyph glyph-name="lessequal" unicode="&#x2264;" 
d="M164 561v178l952 334v-190l-733 -228l733 -241v-189zM164 170h952v-170h-952v170z" />
    <glyph glyph-name="greaterequal" unicode="&#x2265;" 
d="M174 225v189l733 241l-733 228v190l952 -334v-178zM1126 0h-952v170h952v-170z" />
    <glyph glyph-name="uni25AF" unicode="&#x25af;" horiz-adv-x="1296" 
d="M160 0v1487h977v-1487h-977zM1020 109v1269h-744v-1269h744z" />
    <glyph glyph-name="triagup" unicode="&#x25b2;" horiz-adv-x="1171" 
d="M166 1065l967 -516l-967 -524v1040z" />
    <glyph glyph-name="triagrt" unicode="&#x25ba;" horiz-adv-x="1114" 
d="M37 68l516 1032l524 -1032h-1040z" />
    <glyph glyph-name="triagdn" unicode="&#x25bc;" horiz-adv-x="1112" 
d="M37 1075h1040l-524 -1032z" />
    <glyph glyph-name="triaglf" unicode="&#x25c4;" horiz-adv-x="1171" 
d="M1006 1065v-1040l-967 524z" />
    <glyph glyph-name="lozenge" unicode="&#x25ca;" horiz-adv-x="1062" 
d="M449 0l-396 700l396 699h165l396 -699l-396 -700h-165zM276 698l256 -471l259 473l-259 474z" />
    <glyph glyph-name="uniFB00" unicode="&#xfb00;" horiz-adv-x="1310" 
d="M453 868v-868h-246v868h-170v189h170v67q0 92 13.5 156t49 116t101.5 77.5t166 25.5q76 0 125 -14v-189q-36 7 -74 7q-77 0 -106 -45.5t-29 -147.5v-53h378v67q0 92 13.5 156t49 116t101.5 77.5t166 25.5q76 0 125 -14v-189q-36 7 -74 7q-77 0 -106 -45.5t-29 -147.5v-53
h209v-189h-209v-868h-246v868h-378z" />
    <glyph glyph-name="fi" unicode="&#xfb01;" horiz-adv-x="1165" 
d="M37 868v189h170v67q0 92 13.5 156t49 116t101.5 77.5t166 25.5q76 0 125 -14v-189q-36 7 -74 7q-77 0 -106 -45.5t-29 -147.5v-53h209v-189h-209v-868h-246v868h-170zM1024 1057v-1057h-246v1057h246zM1024 1487v-248h-246v248h246z" />
    <glyph glyph-name="fl" unicode="&#xfb02;" horiz-adv-x="1165" 
d="M37 868v189h170v67q0 92 13.5 156t49 116t101.5 77.5t166 25.5q76 0 125 -14v-189q-36 7 -74 7q-77 0 -106 -45.5t-29 -147.5v-53h209v-189h-209v-868h-246v868h-170zM1024 1487v-1487h-246v1487h246z" />
    <glyph glyph-name="uniFB03" unicode="&#xfb03;" horiz-adv-x="1789" 
d="M453 868v-868h-246v868h-170v189h170v67q0 92 13.5 156t49 116t101.5 77.5t166 25.5q76 0 125 -14v-189q-36 7 -74 7q-77 0 -106 -45.5t-29 -147.5v-53h378v67q0 92 13.5 156t49 116t101.5 77.5t166 25.5q76 0 125 -14v-189q-36 7 -74 7q-77 0 -106 -45.5t-29 -147.5v-53
h209v-189h-209v-868h-246v868h-378zM1649 1057v-1057h-246v1057h246zM1649 1487v-248h-246v248h246z" />
    <glyph glyph-name="uniFB04" unicode="&#xfb04;" horiz-adv-x="1789" 
d="M453 868v-868h-246v868h-170v189h170v67q0 92 13.5 156t49 116t101.5 77.5t166 25.5q76 0 125 -14v-189q-36 7 -74 7q-77 0 -106 -45.5t-29 -147.5v-53h378v67q0 92 13.5 156t49 116t101.5 77.5t166 25.5q76 0 125 -14v-189q-36 7 -74 7q-77 0 -106 -45.5t-29 -147.5v-53
h209v-189h-209v-868h-246v868h-378zM1649 1487v-1487h-246v1487h246z" />
    <glyph glyph-name="uniFEFF" unicode="&#xfeff;" horiz-adv-x="0" 
 />
    <glyph glyph-name="i.latn_TRK" horiz-adv-x="528" 
d="M387 1057v-1057h-246v1057h246zM387 1487v-248h-246v248h246z" />
    <glyph glyph-name="Ldot.latn_CAT" horiz-adv-x="1146" 
d="M160 1487h260v-1270h702v-217h-962v1487zM731 918h246v-248h-246v248z" />
    <glyph glyph-name="ldot.latn_CAT" horiz-adv-x="727" 
d="M141 1487h246v-1487h-246v1487zM506 918h244v-248h-244v248z" />
    <glyph glyph-name="zero.numr" horiz-adv-x="802" 
d="M401 702q156 0 156 295t-156 295q-155 0 -155 -295t155 -295zM401 571q-84 0 -149.5 34t-105 93t-60 134.5t-20.5 164.5t20.5 164.5t60 134.5t105 93t149.5 34t149.5 -34t105.5 -93t60.5 -135t20.5 -164t-20.5 -164t-60.5 -135t-105.5 -93t-149.5 -34z" />
    <glyph glyph-name="one.numr" horiz-adv-x="522" 
d="M41 1145v106q103 2 160 39t61 109h156v-803h-172v549h-205z" />
    <glyph glyph-name="two.numr" horiz-adv-x="733" 
d="M70 596q-4 28 -4 41q0 65 19 117t60 95t80 71.5t103 68.5q88 53 126 93t38 96q0 60 -33.5 91t-89.5 31q-131 0 -140 -172h-163q5 138 83 216.5t228 78.5q138 0 212.5 -65t74.5 -172q0 -87 -56.5 -151.5t-165.5 -135.5q-72 -46 -114.5 -82.5t-65.5 -81.5h402v-139h-594z
" />
    <glyph glyph-name="three.numr" horiz-adv-x="749" 
d="M221 842q0 -70 41.5 -109t106.5 -39q67 0 107 33.5t40 89.5q0 123 -164 123q-27 0 -41 -2v127q14 -2 41 -2q78 0 117 32.5t39 90.5q0 54 -35 84t-96 30q-66 0 -101.5 -40.5t-37.5 -114.5h-164q6 138 85.5 208t217.5 70q136 0 215.5 -60t79.5 -169q0 -64 -39.5 -117
t-108.5 -71q73 -12 114.5 -63t41.5 -126q0 -116 -79 -181t-224 -65q-150 0 -235 74t-85 213h164v-16z" />
    <glyph glyph-name="four.numr" horiz-adv-x="763" 
d="M578 784v-188h-164v188h-369v131l311 484h222v-484h139v-131h-139zM414 915q5 281 8 345h-16q-52 -110 -82 -156l-123 -189h213z" />
    <glyph glyph-name="five.numr" horiz-adv-x="735" 
d="M637 1399v-131h-385l-25 -197q36 36 78 51t103 15q124 0 197 -71.5t73 -199.5q0 -134 -84.5 -214.5t-226.5 -80.5q-129 0 -211.5 64t-92.5 174h164q15 -115 140 -115q63 0 105 46t42 118q0 73 -39.5 114.5t-107.5 41.5q-48 0 -83 -25.5t-48 -73.5l-164 17l41 467h524z
" />
    <glyph glyph-name="six.numr" horiz-adv-x="763" 
d="M526 1186q-15 114 -123 114q-78 0 -122.5 -68.5t-49.5 -193.5q67 90 205 90q108 0 185 -76t77 -194q0 -138 -82.5 -212.5t-220.5 -74.5q-327 0 -327 410q0 212 85.5 327t249.5 115q130 0 205 -61t82 -176h-164zM395 1006q-63 0 -105 -43t-42 -113q0 -72 40.5 -114
t106.5 -42q61 0 100.5 42.5t39.5 113.5q0 69 -39 112.5t-101 43.5z" />
    <glyph glyph-name="seven.numr" horiz-adv-x="659" 
d="M168 596q75 377 278 672h-409v131h581v-131q-104 -156 -169.5 -314t-100.5 -358h-180z" />
    <glyph glyph-name="eight.numr" horiz-adv-x="753" 
d="M377 690q143 0 143 127q0 61 -38.5 96t-104.5 35t-105 -35t-39 -96q0 -127 144 -127zM377 1071q135 0 135 115q0 60 -35.5 89.5t-99.5 29.5t-99.5 -29.5t-35.5 -89.5q0 -115 135 -115zM377 571q-151 0 -229 61t-78 169q0 83 46 136.5t126 74.5q-164 52 -164 190
q0 99 82 160t217 61t217 -61t82 -160q0 -138 -164 -190q80 -21 126 -74.5t46 -136.5q0 -108 -78 -169t-229 -61z" />
    <glyph glyph-name="nine.numr" horiz-adv-x="763" 
d="M238 809q15 -115 122 -115q78 0 122.5 68.5t49.5 193.5q-67 -90 -204 -90q-107 0 -184.5 76.5t-77.5 194.5q0 138 82 212t221 74q327 0 327 -409q0 -212 -86 -327.5t-250 -115.5q-130 0 -204.5 61.5t-81.5 176.5h164zM369 989q63 0 105 43t42 113q0 71 -40 113t-107 42
q-61 0 -100.5 -42t-39.5 -113q0 -69 39 -112.5t101 -43.5z" />
    <glyph glyph-name="zero.dnom" horiz-adv-x="802" 
d="M401 106q156 0 156 295t-156 295q-155 0 -155 -295t155 -295zM401 -25q-84 0 -149.5 34t-105 93t-60 134.5t-20.5 164.5t20.5 164.5t60 134.5t105 93t149.5 34t149.5 -34t105.5 -93t60.5 -135t20.5 -164t-20.5 -164t-60.5 -135t-105.5 -93t-149.5 -34z" />
    <glyph glyph-name="one.dnom" horiz-adv-x="522" 
d="M41 549v106q103 2 160 39t61 109h156v-803h-172v549h-205z" />
    <glyph glyph-name="two.dnom" horiz-adv-x="733" 
d="M70 0q-4 28 -4 41q0 65 19 117t60 95t80 71.5t103 68.5q88 53 126 93t38 96q0 60 -33.5 91.5t-89.5 31.5q-131 0 -140 -173h-163q5 138 83 216.5t228 78.5q138 0 212.5 -65t74.5 -172q0 -87 -56.5 -151.5t-165.5 -135.5q-72 -46 -114.5 -82.5t-65.5 -81.5h402v-139h-594z
" />
    <glyph glyph-name="three.dnom" horiz-adv-x="749" 
d="M221 246q0 -70 41.5 -109t106.5 -39q67 0 107 33.5t40 89.5q0 123 -164 123q-27 0 -41 -2v127q14 -2 41 -2q78 0 117 32.5t39 90.5q0 54 -35.5 84.5t-95.5 30.5q-66 0 -101.5 -41t-37.5 -115h-164q6 138 85.5 208t217.5 70q136 0 215.5 -60t79.5 -169q0 -64 -39.5 -117
t-108.5 -71q73 -12 114.5 -63t41.5 -126q0 -116 -79 -181t-224 -65q-150 0 -235 74t-85 213h164v-16z" />
    <glyph glyph-name="four.dnom" horiz-adv-x="763" 
d="M578 188v-188h-164v188h-369v131l311 484h222v-484h139v-131h-139zM414 319q5 281 8 345h-16q-52 -110 -82 -156l-123 -189h213z" />
    <glyph glyph-name="five.dnom" horiz-adv-x="735" 
d="M637 803v-131h-385l-25 -197q36 36 78 51t103 15q124 0 197 -71.5t73 -199.5q0 -134 -84.5 -214.5t-226.5 -80.5q-129 0 -211.5 64t-92.5 174h164q15 -115 140 -115q63 0 105 46t42 118q0 73 -39.5 114.5t-107.5 41.5q-48 0 -83 -25.5t-48 -73.5l-164 17l41 467h524z" />
    <glyph glyph-name="six.dnom" horiz-adv-x="763" 
d="M526 590q-15 115 -123 115q-78 0 -122.5 -69t-49.5 -194q67 90 205 90q108 0 185 -76t77 -194q0 -138 -82.5 -212.5t-220.5 -74.5q-327 0 -327 410q0 212 85.5 327t249.5 115q130 0 205 -61t82 -176h-164zM395 410q-63 0 -105 -43t-42 -113q0 -72 40.5 -114t106.5 -42
q61 0 100.5 42.5t39.5 113.5q0 69 -39 112.5t-101 43.5z" />
    <glyph glyph-name="seven.dnom" horiz-adv-x="659" 
d="M168 0q75 377 278 672h-409v131h581v-131q-104 -156 -169.5 -314t-100.5 -358h-180z" />
    <glyph glyph-name="eight.dnom" horiz-adv-x="753" 
d="M377 94q143 0 143 127q0 61 -38.5 96t-104.5 35t-105 -35t-39 -96q0 -127 144 -127zM377 475q135 0 135 115q0 60 -35.5 89.5t-99.5 29.5t-99.5 -29.5t-35.5 -89.5q0 -115 135 -115zM377 -25q-151 0 -229 61t-78 169q0 83 46 136.5t126 74.5q-164 52 -164 190
q0 99 82 160t217 61t217 -61t82 -160q0 -138 -164 -190q80 -21 126 -74.5t46 -136.5q0 -108 -78 -169t-229 -61z" />
    <glyph glyph-name="nine.dnom" horiz-adv-x="763" 
d="M238 213q15 -115 122 -115q78 0 122.5 68.5t49.5 193.5q-67 -90 -204 -90q-107 0 -184.5 76.5t-77.5 194.5q0 138 82 212t221 74q327 0 327 -409q0 -212 -86 -327.5t-250 -115.5q-130 0 -204.5 61.5t-81.5 176.5h164zM369 393q63 0 105 43t42 113q0 72 -40.5 114
t-106.5 42q-61 0 -100.5 -42.5t-39.5 -113.5q0 -69 39 -112.5t101 -43.5z" />
    <glyph glyph-name="space.frac" horiz-adv-x="81" 
 />
    <glyph glyph-name="space.tf" 
 />
    <glyph glyph-name="numbersign.tf" 
d="M463 410l-117 -410h-164l117 410h-233l38 131h232l96 336h-231l39 131h231l111 389h166l-113 -389h207l114 389h162l-112 -389h215l-39 -131h-213l-99 -336h215l-38 -131h-213l-119 -410h-164l119 410h-207zM707 541l98 336h-207l-96 -336h205z" />
    <glyph glyph-name="dollar.tf" 
d="M573 -16q-215 19 -334.5 146.5t-119.5 338.5h250q0 -113 52.5 -185t151.5 -91v409q-76 23 -136 48.5t-117.5 62.5t-95 80.5t-60.5 103.5t-23 131q0 160 121 265.5t318 117.5v170h141v-170q198 -20 310 -137t120 -309h-246q0 97 -50.5 159t-133.5 80v-405l63 -23
q44 -15 77 -27.5t75.5 -33t73.5 -41.5t63 -51.5t52 -64.5t33 -79t13 -96q0 -168 -124 -278.5t-332 -122.5v-189h-142v191zM580 836v372q-88 -6 -141.5 -51t-53.5 -121q0 -70 44.5 -116t133.5 -78zM715 188q102 6 154.5 54.5t52.5 128.5q0 73 -53 118.5t-154 79.5v-381z" />
    <glyph glyph-name="percent.tf" 
d="M213 119l745 1241l121 -76l-745 -1241zM299 1092q0 -67 25.5 -104.5t74.5 -37.5t75 37.5t26 104.5t-26 104t-75 37t-74.5 -37t-25.5 -104zM152 1092q0 132 67.5 195t179.5 63t180 -63t68 -195t-68 -195t-180 -63t-179.5 63t-67.5 195zM793 307q0 -67 25.5 -104t74.5 -37
t74.5 37t25.5 104t-25.5 104.5t-74.5 37.5t-74.5 -37.5t-25.5 -104.5zM645 307q0 132 68 195t180 63t180 -63t68 -195t-68 -195t-180 -63t-180 63t-68 195z" />
    <glyph glyph-name="comma.tf" 
d="M504 -295l104 318h-104v266h280v-279l-125 -305h-155z" />
    <glyph glyph-name="period.tf" 
d="M784 289v-289h-278v289h278z" />
    <glyph glyph-name="zero.tf" 
d="M643 1430q249 0 386.5 -187t137.5 -536q0 -361 -136.5 -549.5t-389.5 -188.5q-249 0 -384.5 186t-135.5 535q0 121 18 228t58.5 202t100.5 163t148 107.5t197 39.5zM647 1229q-262 0 -262 -543q0 -249 65.5 -382.5t192.5 -133.5q258 0 258 541q0 518 -254 518z" />
    <glyph glyph-name="one.tf" 
d="M565 207v774h-329v174q173 5 259.5 63.5t92.5 180.5h225v-1192h297v-207h-852v207h307z" />
    <glyph glyph-name="two.tf" 
d="M156 61q0 133 47 240.5t129 189t215 168.5q152 102 202 147q110 98 115 211v11q0 96 -59 150.5t-158 54.5q-113 0 -175 -75.5t-66 -217.5h-250q5 227 139 358.5t371 131.5q219 0 338.5 -110t119.5 -292q0 -82 -27 -153t-84.5 -135t-120 -114.5t-159.5 -115.5
q-65 -44 -100.5 -70t-82.5 -68.5t-70 -84t-25 -86.5q66 6 673 6v-207h-972v61z" />
    <glyph glyph-name="three.tf" 
d="M377 457q0 -130 71 -210.5t193 -80.5q110 0 180 61.5t70 159.5q0 219 -305 219h-47v205h36q299 0 299 211q0 94 -62.5 149.5t-166.5 55.5q-119 0 -183 -65.5t-65 -192.5h-260q19 227 148.5 344t367.5 117q216 0 348 -105.5t132 -277.5q0 -115 -73.5 -208.5t-187.5 -117.5
v-8q279 -67 279 -334q0 -184 -141 -297t-369 -113q-245 0 -382.5 129.5t-137.5 358.5h256z" />
    <glyph glyph-name="four.tf" 
d="M84 328v211l604 860h275v-869h237v-202h-237v-328h-248v328h-631zM586 901q-14 -21 -123 -176.5t-135 -194.5h393q0 31 1 151.5t1 149.5q0 155 10 302l-12 2q-79 -146 -135 -234z" />
    </font>
</defs>
</svg>
