<?xml version="1.0" standalone="no"?>
<!DOCTYPE svg PUBLIC "-//W3C//DTD SVG 1.1//EN" "http://www.w3.org/Graphics/SVG/1.1/DTD/svg11.dtd" >
<svg xmlns="http://www.w3.org/2000/svg" xmlns:xlink="http://www.w3.org/1999/xlink" version="1.1">
<metadata>
Created by FontForge 20170731 at Sat Jul 18 17:22:38 2020
 By Aleksey,,,
(c) 2012-2019, Copyright by Lineto GmbH. All rights reserved.
</metadata>
<defs>
<font id="Unica77LL-Thin" horiz-adv-x="1290" >
  <font-face 
    font-family="Unica77 LL Thin"
    font-weight="250"
    font-stretch="normal"
    units-per-em="2048"
    panose-1="2 11 3 4 2 1 1 1 1 2"
    ascent="1536"
    descent="-512"
    x-height="1057"
    cap-height="1487"
    bbox="-831 -467 2460 2013"
    underline-thickness="102"
    underline-position="-409"
    unicode-range="U+000D-FEFF"
  />
<missing-glyph horiz-adv-x="1394" 
d="M209 0v1487h977v-1487h-977zM1069 109v1269h-743v-1269h743z" />
    <glyph glyph-name="f_f" unicode="ff" horiz-adv-x="1095" 
d="M297 999v-999h-66v999h-200v58h200v162q0 276 230 276q52 0 96 -8v-57q-65 10 -98 10q-83 0 -122.5 -50t-39.5 -163v-170h461v162q0 276 229 276q52 0 96 -8v-57q-65 10 -98 10q-83 0 -122.5 -50t-39.5 -163v-170h246v-58h-246v-999h-65v999h-461z" />
    <glyph glyph-name="f_f_i" unicode="ffi" horiz-adv-x="1495" 
d="M1321 1057v-1057h-66v1057h66zM1329 1475v-148h-82v148h82zM297 999v-999h-66v999h-200v58h200v162q0 276 230 276q52 0 96 -8v-57q-65 10 -98 10q-83 0 -122.5 -50t-39.5 -163v-170h461v162q0 276 229 276q52 0 96 -8v-57q-65 10 -98 10q-83 0 -122.5 -50t-39.5 -163
v-170h246v-58h-246v-999h-65v999h-461z" />
    <glyph glyph-name="f_f_l" unicode="ffl" horiz-adv-x="1495" 
d="M1321 1487v-1487h-66v1487h66zM297 999v-999h-66v999h-200v58h200v162q0 276 230 276q52 0 96 -8v-57q-65 10 -98 10q-83 0 -122.5 -50t-39.5 -163v-170h461v162q0 276 229 276q52 0 96 -8v-57q-65 10 -98 10q-83 0 -122.5 -50t-39.5 -163v-170h246v-58h-246v-999h-65
v999h-461z" />
    <glyph glyph-name="f_i" unicode="fi" horiz-adv-x="968" 
d="M231 1219q0 276 230 276q52 0 96 -8v-57q-65 10 -98 10q-83 0 -122.5 -50t-39.5 -163v-170h246v-58h-246v-999h-66v999h-200v58h200v162zM795 1057v-1057h-66v1057h66zM803 1475v-148h-82v148h82z" />
    <glyph glyph-name="f_l" unicode="fl" horiz-adv-x="968" 
d="M231 1219q0 276 230 276q52 0 96 -8v-57q-65 10 -98 10q-83 0 -122.5 -50t-39.5 -163v-170h246v-58h-246v-999h-66v999h-200v58h200v162zM795 1487v-1487h-66v1487h66z" />
    <glyph glyph-name=".notdef" horiz-adv-x="1394" 
d="M209 0v1487h977v-1487h-977zM1069 109v1269h-743v-1269h743z" />
    <glyph glyph-name=".null" horiz-adv-x="0" 
 />
    <glyph glyph-name="nonmarkingreturn" horiz-adv-x="682" 
 />
    <glyph glyph-name="NULL" horiz-adv-x="0" 
 />
    <glyph glyph-name="NULL" horiz-adv-x="0" 
 />
    <glyph glyph-name="CR" unicode="&#xd;" horiz-adv-x="409" 
 />
    <glyph glyph-name="space" unicode=" " horiz-adv-x="409" 
 />
    <glyph glyph-name="exclam" unicode="!" horiz-adv-x="454" 
d="M203 309l-13 1178h74l-14 -1178h-47zM281 123v-123h-107v123h107z" />
    <glyph glyph-name="quotedbl" unicode="&#x22;" horiz-adv-x="559" 
d="M205 1399l-19 -451h-32l-23 451h74zM426 1399l-18 -451h-33l-23 451h74z" />
    <glyph glyph-name="numbersign" unicode="#" horiz-adv-x="1206" 
d="M1020 1399l-125 -432h250l-17 -49h-247l-121 -420h246l-17 -49h-244l-127 -449h-51l125 449h-340l-127 -449h-51l125 449h-240l19 49h235l119 420h-233l18 49h227l123 432h60l-125 -432h336l123 432h59zM707 498l118 420h-338l-120 -420h340z" />
    <glyph glyph-name="dollar" unicode="$" horiz-adv-x="1124" 
d="M535 -20q-437 22 -445 481h66q14 -410 379 -426v659q-96 24 -168 53.5t-131 72.5t-90 103.5t-31 137.5q0 156 111 255t309 103v162h57v-164q214 -8 313 -114t103 -334h-66q-5 200 -85.5 292t-264.5 99v-621l22 -6q173 -52 236 -83q135 -66 169 -181q13 -45 13 -100
q0 -167 -120.5 -277.5t-319.5 -114.5v-186h-57v189zM592 35q166 5 270.5 97.5t104.5 236.5q0 70 -23 119t-83 84t-100.5 51t-137.5 45q-17 5 -25 8l-6 2v-643zM180 1061q0 -53 22 -98t55 -76.5t82.5 -57.5t95 -42.5t100.5 -30.5v606q-171 -4 -263 -88t-92 -213z" />
    <glyph glyph-name="percent" unicode="%" horiz-adv-x="1761" 
d="M150 1004q0 -190 64 -284.5t165 -94.5t165 94.5t64 284.5q0 189 -63.5 277.5t-165.5 88.5t-165.5 -88.5t-63.5 -277.5zM84 1004q0 202 76.5 309.5t218.5 107.5t218.5 -107.5t76.5 -309.5q0 -203 -77.5 -317t-217.5 -114t-217.5 114t-77.5 317zM1280 1425l-754 -1458h-57
l754 1458h57zM1153 408q0 -190 64 -284.5t165 -94.5t165.5 94.5t64.5 284.5q0 189 -64 277.5t-166 88.5t-165.5 -88.5t-63.5 -277.5zM1087 408q0 202 76.5 309.5t218.5 107.5t218.5 -107.5t76.5 -309.5q0 -203 -77.5 -317t-217.5 -114t-217.5 114t-77.5 317z" />
    <glyph glyph-name="ampersand" unicode="&#x26;" horiz-adv-x="1312" 
d="M852 1204q0 -223 -326 -389l478 -512q126 214 126 467h58q0 -299 -139 -516l237 -254h-82l-190 203q-166 -228 -441 -228q-216 0 -345.5 117t-129.5 293q0 132 91.5 246.5t248.5 191.5q-97 105 -148.5 193.5t-51.5 179.5q0 138 84 220.5t235 82.5q144 0 219.5 -79
t75.5 -216zM573 33q239 0 398 217l-500 538q-143 -75 -225 -183t-82 -220q0 -107 58.5 -188.5t150.5 -122.5t200 -41zM295 1196q0 -84 48.5 -162.5t150.5 -183.5q154 82 227.5 168t73.5 186q0 108 -62.5 177t-175.5 69q-121 0 -191.5 -71t-70.5 -183z" />
    <glyph glyph-name="quotesingle" unicode="'" horiz-adv-x="337" 
d="M205 1399l-19 -451h-32l-23 451h74z" />
    <glyph glyph-name="parenleft" unicode="(" horiz-adv-x="485" 
d="M406 1516q-121 -275 -176.5 -478.5t-55.5 -390.5t55 -386t177 -478h-54q-134 276 -188.5 471t-54.5 393q0 192 54.5 388t188.5 481h54z" />
    <glyph glyph-name="parenright" unicode=")" horiz-adv-x="485" 
d="M133 1516q134 -286 189 -482t55 -387q0 -197 -55 -392t-189 -472h-53q122 278 176.5 477.5t54.5 386.5t-55 391t-176 478h53z" />
    <glyph glyph-name="asterisk" unicode="*" horiz-adv-x="774" 
d="M539 899l-152 236l-151 -236l-43 31l167 237l-268 82l17 49l258 -94l-11 283h62l-10 -281l258 92l16 -49l-268 -82l168 -237z" />
    <glyph glyph-name="plus" unicode="+" 
d="M248 606h377v385h49v-385h368v-49h-368v-385h-49v385h-377v49z" />
    <glyph glyph-name="comma" unicode="," horiz-adv-x="344" 
d="M119 8v115h106v-123l-49 -270h-55l49 278h-51z" />
    <glyph glyph-name="hyphen" unicode="-" horiz-adv-x="733" 
d="M588 623v-58h-443v58h443z" />
    <glyph glyph-name="period" unicode="." horiz-adv-x="380" 
d="M244 123v-123h-107v123h107z" />
    <glyph glyph-name="slash" unicode="/" horiz-adv-x="735" 
d="M672 1487l-541 -1487h-63l540 1487h64z" />
    <glyph glyph-name="zero" unicode="0" horiz-adv-x="1183" 
d="M195 696q0 -176 30.5 -306t85.5 -205.5t125 -111.5t156 -36t156 36t125 111.5t85.5 205.5t30.5 306t-30.5 306t-85.5 206t-125 112t-156 36t-156 -36t-125 -112t-85.5 -206t-30.5 -306zM125 696q0 346 121 533.5t346 187.5t346 -187.5t121 -533.5t-121 -533.5
t-346 -187.5t-346 187.5t-121 533.5z" />
    <glyph glyph-name="one" unicode="1" horiz-adv-x="628" 
d="M356 1147q-35 -39 -109.5 -57t-193.5 -23v61q72 2 122 8t85.5 20.5t55.5 32.5t31.5 51.5t14.5 68t3 90.5h57v-1399h-66v1147z" />
    <glyph glyph-name="two" unicode="2" horiz-adv-x="1056" 
d="M492 549q-320 -191 -320 -488h786v-61h-860v25q0 184 81 318t280 255l82 49q181 105 252 193t71 217q0 132 -88.5 217.5t-234.5 85.5q-140 0 -238.5 -91t-105.5 -237h-66q5 167 119 276t291 109q176 0 284.5 -98.5t108.5 -261.5q0 -70 -19 -128.5t-45.5 -99t-80 -85
t-96 -72.5t-120.5 -74z" />
    <glyph glyph-name="three" unicode="3" horiz-adv-x="1079" 
d="M160 360q17 -150 121.5 -238.5t248.5 -88.5q166 0 267.5 96t101.5 240q0 84 -35 147.5t-95.5 100t-133.5 54t-158 17.5q-34 0 -80 -4v66q57 -5 76 -5q71 0 136.5 19t120 56.5t87.5 101t33 143.5q0 139 -87.5 217t-236.5 78q-131 0 -223.5 -79t-109.5 -208h-66
q24 157 135 250.5t264 93.5q74 0 141 -20t124 -60t90.5 -110.5t33.5 -161.5q0 -266 -278 -340v-8q153 -17 240.5 -114t87.5 -234q0 -175 -125 -284.5t-310 -109.5q-184 0 -300.5 102.5t-135.5 282.5h66z" />
    <glyph glyph-name="four" unicode="4" horiz-adv-x="1052" 
d="M772 1399v-932h221v-61h-221v-406h-65v406h-660v53l643 940h82zM707 467v451q0 262 8 409h-8l-578 -860h578z" />
    <glyph glyph-name="five" unicode="5" horiz-adv-x="1058" 
d="M516 33q161 0 265 113.5t104 295.5q0 185 -85 289.5t-243 104.5q-127 0 -218 -61t-151 -193h-57l82 817h688v-62h-631l-65 -624q44 81 137.5 130.5t214.5 49.5q179 0 286 -115t107 -336q0 -211 -123.5 -339t-310.5 -128q-173 0 -277.5 98.5t-123.5 278.5h65
q18 -151 109 -235t227 -84z" />
    <glyph glyph-name="six" unicode="6" horiz-adv-x="1093" 
d="M889 1090q-29 139 -103.5 203.5t-199.5 64.5q-370 0 -393 -735q35 122 146 188t241 66q176 0 288.5 -118t112.5 -317q0 -205 -117 -336t-301 -131q-436 0 -436 650q0 395 117 593.5t342 198.5q161 0 255 -87.5t113 -239.5h-65zM580 819q-156 0 -263.5 -107.5
t-107.5 -269.5q0 -177 102.5 -293t251.5 -116q158 0 255 113.5t97 295.5q0 166 -93.5 271.5t-241.5 105.5z" />
    <glyph glyph-name="seven" unicode="7" horiz-adv-x="890" 
d="M266 0q131 765 504 1337h-721v62h795v-58q-398 -618 -512 -1341h-66z" />
    <glyph glyph-name="eight" unicode="8" horiz-adv-x="1097" 
d="M549 33q148 0 255 92t107 235q0 144 -110 240t-252 96t-252.5 -96t-110.5 -240q0 -143 107.5 -235t255.5 -92zM549 754q138 0 234 84.5t96 218.5q0 136 -96.5 218.5t-233.5 82.5t-233.5 -82.5t-96.5 -218.5q0 -134 96 -218.5t234 -84.5zM549 -25q-116 0 -212 44t-156 133
t-60 208q0 128 77 225t193 136v8q-103 28 -170 121.5t-67 206.5q0 163 116.5 261.5t278.5 98.5t278.5 -98.5t116.5 -261.5q0 -113 -66.5 -206t-170.5 -122v-8q116 -39 193 -136t77 -225q0 -119 -60 -208t-156 -133t-212 -44z" />
    <glyph glyph-name="nine" unicode="9" horiz-adv-x="1085" 
d="M197 307q29 -140 104 -206t199 -66q370 0 393 756q-35 -117 -142.5 -181.5t-234.5 -64.5q-176 0 -288.5 116t-112.5 310q0 198 116 322t301 124q98 0 173 -32t122.5 -87t77 -135.5t41.5 -169t12 -196.5q0 -399 -117.5 -610.5t-340.5 -211.5q-161 0 -255.5 89.5
t-113.5 242.5h66zM516 602q157 0 259 102t102 259q0 167 -99.5 282t-245.5 115q-159 0 -255.5 -106.5t-96.5 -282.5q0 -160 94.5 -264.5t241.5 -104.5z" />
    <glyph glyph-name="colon" unicode=":" horiz-adv-x="397" 
d="M252 123v-123h-107v123h107zM252 1057v-123h-107v123h107z" />
    <glyph glyph-name="semicolon" unicode=";" horiz-adv-x="397" 
d="M145 8v115h107v-123l-49 -270h-56l50 278h-52zM252 1057v-123h-107v123h107z" />
    <glyph glyph-name="less" unicode="&#x3c;" 
d="M1028 172v-57l-795 417v50l795 417v-57l-737 -385z" />
    <glyph glyph-name="equal" unicode="=" 
d="M248 426h794v-49h-794v49zM248 754h794v-49h-794v49z" />
    <glyph glyph-name="greater" unicode="&#x3e;" 
d="M262 999l795 -417v-50l-795 -417v57l737 385l-737 385v57z" />
    <glyph glyph-name="question" unicode="?" horiz-adv-x="933" 
d="M797 1165q0 130 -90 208.5t-238 78.5q-142 0 -241.5 -91t-106.5 -237h-62q5 167 119 276t291 109t285 -92t108 -252q0 -66 -23 -125t-59 -105.5t-80 -91.5t-88.5 -93t-80.5 -100t-59 -123t-23 -152v-66h-58v56q0 95 22.5 174.5t58 134t79 102t87 89t79 83.5t58 97.5
t22.5 119.5zM481 123v-123h-106v123h106z" />
    <glyph glyph-name="at" unicode="@" horiz-adv-x="1748" 
d="M1448 -74q-291 -164 -574 -164q-120 0 -232.5 33t-210.5 101.5t-170.5 166t-114.5 235t-42 300.5q0 166 57.5 322t161 277.5t260 195t341.5 73.5q340 0 542.5 -185.5t202.5 -502.5q0 -280 -101 -430.5t-265 -150.5q-33 0 -69 12t-71 36.5t-58.5 69.5t-25.5 103
q-47 -111 -124.5 -166t-161.5 -55q-127 0 -207 96.5t-80 271.5q0 135 49.5 251t140.5 186.5t203 70.5q186 0 250 -205l45 189h57q-114 -424 -114 -615q0 -94 51.5 -143t120.5 -49q132 0 217.5 143.5t85.5 384.5q0 125 -36 230t-100 179.5t-150.5 127t-188 77.5t-213.5 25
q-157 0 -298.5 -64t-243 -173t-161 -261t-59.5 -321q0 -146 37.5 -273t104.5 -220t156.5 -159.5t195 -100t218.5 -33.5q294 0 549 163zM899 1020q-91 0 -168.5 -64t-120.5 -168.5t-43 -222.5q0 -144 69.5 -229.5t156.5 -85.5q75 0 135.5 45t98 119t57.5 164t20 184
q0 46 -11 89.5t-33.5 82.5t-64 62.5t-96.5 23.5z" />
    <glyph glyph-name="A" unicode="A" horiz-adv-x="1343" 
d="M295 487l-197 -487h-78l615 1487h74l614 -1487h-78l-198 487h-752zM668 1401q-43 -108 -128.5 -315.5t-109.5 -266.5l-111 -270h703l-109 270q-32 81 -114 279.5t-123 302.5h-8z" />
    <glyph glyph-name="B" unicode="B" horiz-adv-x="1234" 
d="M647 1487q217 0 330 -102t113 -263q0 -145 -69.5 -235.5t-193.5 -122.5v-4q112 -19 199.5 -119t87.5 -240q0 -401 -483 -401h-426v1487h442zM270 61h361q104 0 180.5 21.5t119.5 53.5t68.5 79.5t33 90t7.5 95.5q0 151 -101 239.5t-267 88.5h-402v-668zM270 795h402
q93 0 162.5 28.5t107.5 77t56 104t18 117.5q0 138 -98.5 220.5t-270.5 82.5h-377v-630z" />
    <glyph glyph-name="C" unicode="C" horiz-adv-x="1394" 
d="M186 745q0 -160 42.5 -293t117 -223t178 -140t224.5 -50q197 0 330 126t153 329h74q-8 -102 -43.5 -188.5t-89.5 -146t-123.5 -101.5t-145.5 -61.5t-155 -19.5q-187 0 -330.5 96t-222 270.5t-78.5 401.5q0 343 168.5 549.5t445.5 206.5q111 0 208 -30.5t175.5 -90
t125 -158t48.5 -225.5h-74q-5 203 -135 323t-348 120q-118 0 -218 -48.5t-172.5 -136.5t-113.5 -219.5t-41 -290.5z" />
    <glyph glyph-name="D" unicode="D" horiz-adv-x="1468" 
d="M549 1487q218 0 374.5 -51.5t249.5 -151t136 -232.5t43 -307q0 -137 -24 -247.5t-80.5 -205t-145.5 -158t-223 -99t-308 -35.5h-366v1487h344zM270 66h303q356 0 532.5 164t176.5 515t-182.5 513.5t-550.5 162.5h-279v-1355z" />
    <glyph glyph-name="E" unicode="E" horiz-adv-x="1185" 
d="M1073 1487v-62h-803v-622h762v-62h-762v-680h828v-61h-893v1487h868z" />
    <glyph glyph-name="F" unicode="F" horiz-adv-x="1101" 
d="M1040 1487v-62h-770v-639h729v-61h-729v-725h-65v1487h835z" />
    <glyph glyph-name="G" unicode="G" horiz-adv-x="1427" 
d="M1231 0q-8 100 -8 270h-9q-74 -149 -193 -221t-298 -72q-275 0 -440.5 208t-165.5 552q0 352 166.5 560t455.5 208q214 0 359.5 -108.5t181.5 -317.5h-74q-36 179 -162 272t-305 93q-111 0 -202.5 -35t-156 -98t-108.5 -152t-65 -194.5t-21 -227.5q0 -203 67.5 -362
t190 -247.5t279.5 -88.5q500 0 500 616v66h-484v57h549v-778h-57z" />
    <glyph glyph-name="H" unicode="H" horiz-adv-x="1441" 
d="M270 733v-733h-65v1487h65v-692h901v692h66v-1487h-66v733h-901z" />
    <glyph glyph-name="I" unicode="I" horiz-adv-x="475" 
d="M270 1487v-1487h-65v1487h65z" />
    <glyph glyph-name="J" unicode="J" horiz-adv-x="614" 
d="M29 57q47 -8 98 -8q82 0 130 30.5t73.5 110t25.5 220.5v1077h66v-1077q0 -103 -12 -173.5t-44 -129t-93 -87t-154 -28.5q-49 0 -90 8v57z" />
    <glyph glyph-name="K" unicode="K" horiz-adv-x="1120" 
d="M270 1487v-672l693 672h90l-709 -688l782 -799h-90l-766 782v-782h-65v1487h65z" />
    <glyph glyph-name="L" unicode="L" horiz-adv-x="1105" 
d="M270 1487v-1426h811v-61h-876v1487h65z" />
    <glyph glyph-name="M" unicode="M" horiz-adv-x="1785" 
d="M270 1384v-1384h-65v1487h106l582 -1397l582 1397h106v-1487h-65v1384h-9l-581 -1384h-66l-581 1384h-9z" />
    <glyph glyph-name="N" unicode="N" horiz-adv-x="1441" 
d="M270 1384v-1384h-65v1487h98l860 -1385h8v1385h66v-1487h-98l-860 1384h-9z" />
    <glyph glyph-name="O" unicode="O" horiz-adv-x="1507" 
d="M754 39q251 0 410 190t159 516q0 163 -43 295.5t-118.5 220.5t-180 135.5t-227.5 47.5t-227.5 -47.5t-180.5 -135.5t-119 -220.5t-43 -295.5q0 -326 159 -516t411 -190zM754 -23q-284 0 -461.5 210.5t-177.5 557.5q0 230 81.5 403t226 265t331.5 92t331.5 -92t226 -265
t81.5 -403q0 -347 -177.5 -557.5t-461.5 -210.5z" />
    <glyph glyph-name="P" unicode="P" horiz-adv-x="1200" 
d="M639 1487q254 0 372.5 -98.5t118.5 -298.5q0 -191 -128.5 -296.5t-337.5 -105.5h-394v-688h-65v1487h434zM270 754h394q192 0 293.5 92t101.5 246q0 93 -31.5 159t-90.5 102t-131.5 52t-166.5 16h-369v-667z" />
    <glyph glyph-name="Q" unicode="Q" horiz-adv-x="1507" 
d="M754 -23q-284 0 -461.5 210.5t-177.5 557.5q0 230 81.5 403t226 265t331.5 92t331.5 -92t226 -265t81.5 -403q0 -383 -217 -600l167 -178l-53 -47l-168 178q-151 -121 -368 -121zM754 39q187 0 325 106l-219 238l53 47l220 -237q190 193 190 552q0 163 -43 295.5
t-118.5 220.5t-180 135.5t-227.5 47.5t-227.5 -47.5t-180.5 -135.5t-119 -220.5t-43 -295.5q0 -326 159 -516t411 -190z" />
    <glyph glyph-name="R" unicode="R" horiz-adv-x="1247" 
d="M606 1487q256 0 374 -95.5t118 -293.5q0 -143 -89 -239t-231 -130v-8q82 -32 121 -78.5t76 -140.5l192 -502h-73l-183 475q-16 40 -26.5 63t-33 53t-52.5 52q-81 57 -205 57h-324v-700h-65v1487h401zM270 762h340q194 0 305 94t111 244q0 92 -31.5 157.5t-90.5 101
t-131.5 51t-166.5 15.5h-336v-663z" />
    <glyph glyph-name="S" unicode="S" horiz-adv-x="1171" 
d="M537 756q-52 15 -88 26.5t-81.5 30.5t-76 38.5t-62.5 48.5t-51 62.5t-31 78.5t-12 98q0 159 118.5 262.5t326.5 103.5q235 0 343 -110t113 -340h-65q-2 99 -23.5 170t-67 122t-120 76t-180.5 25q-178 0 -278.5 -88t-100.5 -221q0 -60 20.5 -109t50 -80t81.5 -59t93 -43
t107 -35l82 -25q78 -23 133.5 -44t115.5 -56.5t96.5 -78t60.5 -107t24 -144.5q0 -167 -132.5 -274t-342.5 -107q-231 0 -357.5 122.5t-130.5 361.5h66q10 -219 116.5 -322.5t305.5 -103.5q179 0 294 88.5t115 234.5q0 68 -21 122.5t-53 91.5t-85 68.5t-102.5 50.5t-119.5 40
z" />
    <glyph glyph-name="T" unicode="T" horiz-adv-x="1114" 
d="M1090 1487v-62h-500v-1425h-66v1425h-499v62h1065z" />
    <glyph glyph-name="U" unicode="U" horiz-adv-x="1392" 
d="M696 45q216 0 329.5 119.5t113.5 343.5v979h65v-979q0 -268 -133 -396t-375 -128t-375 128t-133 396v979h66v-979q0 -224 113 -343.5t329 -119.5z" />
    <glyph glyph-name="V" unicode="V" horiz-adv-x="1257" 
d="M633 86q41 103 94 242l426 1159h78l-565 -1487h-74l-565 1487h77l426 -1159q37 -98 95 -242h8z" />
    <glyph glyph-name="W" unicode="W" horiz-adv-x="1830" 
d="M1792 1487l-418 -1487h-74l-380 1386h-9l-381 -1386h-73l-418 1487h78l372 -1385h9l381 1385h82l372 -1385h8l381 1385h70z" />
    <glyph glyph-name="X" unicode="X" horiz-adv-x="1204" 
d="M563 760l-518 727h78l479 -672l479 672h78l-518 -727l543 -760h-78l-504 707l-504 -707h-78z" />
    <glyph glyph-name="Y" unicode="Y" horiz-adv-x="1159" 
d="M31 1487h73l476 -754l475 754h73l-516 -815v-672h-65v672z" />
    <glyph glyph-name="Z" unicode="Z" horiz-adv-x="1095" 
d="M940 1423h-858v64h936v-64l-877 -1362h916v-61h-1000v61z" />
    <glyph glyph-name="bracketleft" unicode="[" horiz-adv-x="550" 
d="M500 1487v-49h-242v-1604h242v-49h-303v1702h303z" />
    <glyph glyph-name="backslash" unicode="\" horiz-adv-x="735" 
d="M604 0l-541 1487h64l541 -1487h-64z" />
    <glyph glyph-name="bracketright" unicode="]" horiz-adv-x="550" 
d="M51 -215v49h242v1604h-242v49h303v-1702h-303z" />
    <glyph glyph-name="asciicircum" unicode="^" 
d="M309 688h-57l369 799h49l368 -799h-57l-336 742z" />
    <glyph glyph-name="underscore" unicode="_" horiz-adv-x="976" 
d="M977 -195v-57h-977v57h977z" />
    <glyph glyph-name="grave" unicode="`" horiz-adv-x="1144" 
d="M604 1237h-61l-215 250h94z" />
    <glyph glyph-name="a" unicode="a" horiz-adv-x="1054" 
d="M829 688q0 176 -75 256t-230 80q-140 0 -225.5 -76t-85.5 -196h-70q0 143 105.5 236t275.5 93q34 0 62.5 -2t68 -11.5t71 -24.5t64.5 -44.5t55 -68.5t36 -99.5t14 -134.5q0 -386 3 -513.5t11 -182.5h-67q-9 79 -11 199q-118 -222 -372 -222q-160 0 -257.5 73t-97.5 210
q0 48 11.5 88.5t30.5 72t51.5 57.5t67.5 45.5t86 35t99.5 26t115 19.5t125.5 15t138 12v57zM459 35q154 0 262 104.5t108 268.5v163q-278 -25 -380 -48q-192 -43 -247 -145q-26 -49 -26 -116q0 -64 27.5 -111t72 -70.5t90 -34.5t93.5 -11z" />
    <glyph glyph-name="b" unicode="b" horiz-adv-x="1165" 
d="M240 811q45 83 96 139.5t125 92.5t164 36q198 0 316 -145.5t118 -401.5q0 -135 -40 -244t-105.5 -175t-144 -101t-161.5 -35q-134 0 -228 63.5t-140 172.5v-213h-66v1487h66v-676zM989 532q0 221 -100 355.5t-264 134.5q-158 0 -271.5 -139t-113.5 -351v-22
q0 -212 94.5 -343.5t273.5 -131.5q165 0 273 140t108 357z" />
    <glyph glyph-name="c" unicode="c" horiz-adv-x="1071" 
d="M563 1022q-165 0 -277 -135.5t-112 -362.5q0 -226 107 -357.5t276 -131.5q146 0 247 93.5t109 225.5h66q-5 -104 -65 -191.5t-155 -136.5t-202 -49q-197 0 -325 145.5t-128 401.5q0 107 26.5 199t72 156.5t104.5 110t124 67.5t132 22q112 0 204.5 -42t151.5 -127t64 -199
h-65q-8 130 -108 220.5t-247 90.5z" />
    <glyph glyph-name="d" unicode="d" horiz-adv-x="1165" 
d="M926 246q-69 -128 -161.5 -198.5t-223.5 -70.5q-199 0 -317 146t-118 401q0 135 40 244t105.5 175t144 101t161.5 35q135 0 229 -63t140 -172v643h65v-1487h-65v246zM176 524q0 -221 100.5 -355t264.5 -134q157 0 267.5 129t117.5 338v22q0 226 -93.5 362t-275.5 136
q-165 0 -273 -141t-108 -357z" />
    <glyph glyph-name="e" unicode="e" horiz-adv-x="1075" 
d="M176 524q0 -228 102 -358.5t271 -130.5q127 0 223 75t121 187h65q-32 -146 -145 -233t-264 -87q-196 0 -319.5 145t-123.5 402q0 136 38 244.5t101 174.5t141 101t163 35q110 0 192.5 -40.5t133 -115t75.5 -174.5t25 -225h-799zM549 1022q-155 0 -256.5 -116.5
t-114.5 -323.5h723q-8 214 -96 327t-256 113z" />
    <glyph glyph-name="f" unicode="f" horiz-adv-x="569" 
d="M231 1219q0 276 230 276q52 0 96 -8v-57q-65 10 -98 10q-83 0 -122.5 -50t-39.5 -163v-170h246v-58h-246v-999h-66v999h-200v58h200v162z" />
    <glyph glyph-name="g" unicode="g" horiz-adv-x="1148" 
d="M109 541q0 130 39 235.5t103 170t141.5 98.5t158.5 34q131 0 223.5 -63.5t136.5 -171.5v213h66v-922q0 -98 -10.5 -175.5t-39.5 -150.5t-76.5 -121t-125.5 -77t-182 -29q-93 0 -169 29t-124 77.5t-74 109.5t-26 128h65q0 -116 92 -201t236 -85q72 0 129 16.5t95 42.5
t65.5 67t42.5 80.5t23.5 94t10.5 96.5t2 98v152q-66 -125 -157 -193.5t-219 -68.5q-197 0 -311.5 136t-114.5 380zM178 541q0 -212 97.5 -335.5t259.5 -123.5q159 0 267.5 125.5t108.5 333.5v20q-5 212 -96 336.5t-264 124.5q-162 0 -267.5 -135t-105.5 -346z" />
    <glyph glyph-name="h" unicode="h" horiz-adv-x="1122" 
d="M240 1487v-627q105 219 358 219q195 0 279 -106.5t84 -308.5v-664h-66v655q0 194 -73.5 279.5t-229.5 85.5q-45 0 -86.5 -8.5t-90.5 -35.5t-85 -70.5t-61.5 -120t-28.5 -177.5v-608h-66v1487h66z" />
    <glyph glyph-name="i" unicode="i" horiz-adv-x="413" 
d="M240 1057v-1057h-66v1057h66zM248 1475v-148h-82v148h82z" />
    <glyph glyph-name="j" unicode="j" horiz-adv-x="413" 
d="M240 1057v-1106q0 -37 -0.5 -59.5t-2.5 -58t-6 -57.5t-12 -51.5t-19.5 -48t-29 -39t-40 -31.5t-53 -18.5t-67.5 -7.5q-32 0 -73 6v62q31 -8 65 -8q40 0 70 11.5t48.5 35.5t30 49t16 66t6 71t1.5 78v1106h66zM248 1475v-148h-82v148h82z" />
    <glyph glyph-name="k" unicode="k" horiz-adv-x="915" 
d="M240 1487v-891l518 461h94l-530 -465l593 -592h-94l-581 580v-580h-66v1487h66z" />
    <glyph glyph-name="l" unicode="l" horiz-adv-x="413" 
d="M240 1487v-1487h-66v1487h66z" />
    <glyph glyph-name="m" unicode="m" horiz-adv-x="1679" 
d="M240 1057v-197q20 47 45 83.5t62 68.5t90.5 49.5t119.5 17.5q126 0 198.5 -57.5t102.5 -167.5q45 108 125 166.5t213 58.5q172 0 247 -106.5t75 -308.5v-664h-66v655q0 193 -64.5 279t-197.5 86q-29 0 -53 -2.5t-57 -12t-58.5 -25.5t-53 -46.5t-45.5 -71.5t-30.5 -103.5
t-13.5 -140.5v-618h-66v655q0 193 -64.5 279t-197.5 86q-39 0 -76 -8.5t-80.5 -35.5t-75.5 -70.5t-54.5 -120t-24.5 -177.5v-608h-66v1057h66z" />
    <glyph glyph-name="n" unicode="n" horiz-adv-x="1122" 
d="M240 1057v-197q105 219 358 219q195 0 279 -106.5t84 -308.5v-664h-66v655q0 194 -73.5 279.5t-229.5 85.5q-45 0 -86.5 -8.5t-90.5 -35.5t-85 -70.5t-61.5 -120t-28.5 -177.5v-608h-66v1057h66z" />
    <glyph glyph-name="o" unicode="o" horiz-adv-x="1126" 
d="M563 35q180 0 284.5 136t104.5 361q0 224 -104.5 357t-284.5 133t-284.5 -136.5t-104.5 -361.5q0 -224 104.5 -356.5t284.5 -132.5zM563 -23q-205 0 -332 149t-127 398q0 250 127.5 402.5t331.5 152.5q205 0 332 -149t127 -398q0 -250 -127.5 -402.5t-331.5 -152.5z" />
    <glyph glyph-name="p" unicode="p" horiz-adv-x="1165" 
d="M240 811q45 83 96 139.5t125 92.5t164 36q198 0 316 -145.5t118 -401.5q0 -135 -40 -244t-105.5 -175t-144 -101t-161.5 -35q-134 0 -228 63.5t-140 172.5v-625h-66v1469h66v-246zM989 532q0 221 -100 355.5t-264 134.5q-158 0 -271.5 -134t-113.5 -341v-31
q0 -218 94 -349.5t274 -131.5q165 0 273 140t108 357z" />
    <glyph glyph-name="q" unicode="q" horiz-adv-x="1165" 
d="M926 246q-69 -128 -161.5 -198.5t-223.5 -70.5q-199 0 -317 146t-118 401q0 135 40 244t105.5 175t144 101t161.5 35q135 0 229 -63t140 -172v213h65v-1469h-65v658zM176 524q0 -221 100.5 -355t264.5 -134q157 0 267.5 129t117.5 338v22q0 226 -93.5 362t-275.5 136
q-165 0 -273 -141t-108 -357z" />
    <glyph glyph-name="r" unicode="r" horiz-adv-x="684" 
d="M240 1057v-205q43 106 129.5 158.5t201.5 52.5q43 0 86 -6v-64q-44 6 -82 6q-159 0 -247 -105.5t-88 -287.5v-606h-66v1057h66z" />
    <glyph glyph-name="s" unicode="s" horiz-adv-x="991" 
d="M496 514q-80 14 -134.5 28.5t-103 37t-77 53t-44.5 74.5t-16 102q0 122 104 196t271 74q80 0 145.5 -17.5t119.5 -55t85 -104.5t33 -159h-66q-4 143 -87 211t-230 68q-141 0 -223.5 -57.5t-82.5 -155.5q0 -100 68 -147.5t238 -83.5q76 -14 130 -29t107.5 -40t85.5 -57
t52 -81.5t20 -112.5q0 -75 -33.5 -131.5t-91.5 -88t-125.5 -46.5t-144.5 -15q-188 0 -293.5 95.5t-110.5 263.5h66q2 -74 30.5 -133t75.5 -95t106 -54.5t126 -18.5q94 0 164 20.5t115.5 72t45.5 130.5q0 48 -15.5 85.5t-40.5 62.5t-69.5 46t-88.5 34t-111 28z" />
    <glyph glyph-name="t" unicode="t" horiz-adv-x="579" 
d="M231 1270h66v-213h246v-58h-246v-733q0 -116 38.5 -166.5t125.5 -50.5q41 0 96 12v-53q-66 -14 -104 -14q-121 0 -171.5 59.5t-50.5 212.5v733h-200v58h200v213z" />
    <glyph glyph-name="u" unicode="u" horiz-adv-x="1122" 
d="M883 0v197q-24 -47 -53 -83.5t-71 -69t-101.5 -50t-133.5 -17.5q-195 0 -278.5 107t-83.5 309v664h65v-656q0 -194 73.5 -279t229.5 -85q43 0 84 8t90.5 35t86.5 69.5t63 119t29 177.5v611h65v-1057h-65z" />
    <glyph glyph-name="v" unicode="v" horiz-adv-x="962" 
d="M43 1057h74l360 -1000h8l365 1000h70l-394 -1057h-90z" />
    <glyph glyph-name="w" unicode="w" horiz-adv-x="1490" 
d="M49 1057h70l274 -1000h8l308 1000h77l304 -1000h8l278 1000h66l-303 -1057h-90l-299 969h-9l-299 -969h-90z" />
    <glyph glyph-name="x" unicode="x" horiz-adv-x="940" 
d="M915 0h-77l-373 504l-356 -504h-78l397 551l-373 506h78l334 -453l338 453h78l-379 -500z" />
    <glyph glyph-name="y" unicode="y" horiz-adv-x="960" 
d="M117 1057l358 -959h8l367 959h70l-463 -1207q-55 -149 -129 -209.5t-187 -60.5q-51 0 -90 10v58q41 -8 90 -8q47 0 83 14t63.5 38.5t54.5 73t49 101.5t53 141l-401 1049h74z" />
    <glyph glyph-name="z" unicode="z" horiz-adv-x="919" 
d="M88 999v58h754v-58l-701 -942h717v-57h-795v57l701 942h-676z" />
    <glyph glyph-name="braceleft" unicode="{" horiz-adv-x="561" 
d="M131 651q100 -34 138 -114.5t38 -233.5v-151q0 -326 166 -326q19 0 33 2v-47q-18 -2 -47 -2q-52 0 -91.5 24t-62 61t-36.5 89t-18.5 99t-4.5 100v151q0 314 -187 324v49q187 10 187 323v144q0 53 4.5 100t18.5 99t36.5 89t62 61t91.5 24q20 0 47 -3v-47q-14 2 -33 2
q-166 0 -166 -325v-144q0 -154 -37.5 -234t-138.5 -114z" />
    <glyph glyph-name="bar" unicode="|" horiz-adv-x="450" 
d="M254 1487v-1487h-57v1487h57z" />
    <glyph glyph-name="braceright" unicode="}" horiz-adv-x="561" 
d="M430 651q-101 34 -138.5 114t-37.5 234v144q0 325 -166 325q-19 0 -33 -2v47q27 3 47 3q52 0 91.5 -24t62 -61t36.5 -89t18.5 -99t4.5 -100v-144q0 -313 187 -323v-49q-187 -10 -187 -324v-151q0 -53 -4.5 -100t-18.5 -99t-36.5 -89t-62 -61t-91.5 -24q-29 0 -47 2v47
q14 -2 33 -2q166 0 166 326v151q0 153 38 233.5t138 114.5z" />
    <glyph glyph-name="asciitilde" unicode="~" 
d="M829 451q-45 0 -98.5 25.5t-94.5 56t-90.5 56t-88.5 25.5q-46 0 -86.5 -35t-89.5 -112l-41 25q100 172 221 172q45 0 98.5 -25.5t94.5 -56.5t91 -56.5t89 -25.5q46 0 86.5 35t89.5 112l41 -24q-100 -172 -222 -172z" />
    <glyph glyph-name="uni00A0" unicode="&#xa0;" horiz-adv-x="409" 
 />
    <glyph glyph-name="exclamdown" unicode="&#xa1;" horiz-adv-x="425" 
d="M238 782l12 -1177h-74l14 1177h48zM160 969v123h106v-123h-106z" />
    <glyph glyph-name="cent" unicode="&#xa2;" horiz-adv-x="1077" 
d="M530 199q-183 12 -302 158t-119 388q0 126 36.5 230t97 170t134 105t153.5 48v220h58v-218q166 -8 279 -105.5t120 -262.5h-65q-8 126 -102 215t-232 96v-987q137 4 229.5 98t100.5 221h65q-5 -100 -60.5 -186t-144.5 -136.5t-190 -53.5v-230h-58v230zM178 745
q0 -212 97.5 -340.5t254.5 -146.5v983q-152 -18 -252 -150t-100 -346z" />
    <glyph glyph-name="sterling" unicode="&#xa3;" horiz-adv-x="1128" 
d="M285 772v211q0 210 99.5 324t268.5 114q166 0 271.5 -103t105.5 -286h-65q0 159 -88 245.5t-224 86.5q-138 0 -220.5 -99.5t-82.5 -281.5v-211h279v-53h-279v-342q0 -252 -106 -311v-9h786v-57h-942v49q108 4 152.5 88t44.5 232v350h-205v53h205z" />
    <glyph glyph-name="currency" unicode="&#xa4;" horiz-adv-x="1110" 
d="M182 625q0 144 90 258l-153 133l49 45l139 -143q100 94 248 94q146 0 246 -94l141 143l49 -45l-155 -133q92 -109 92 -258t-92 -258l155 -134l-49 -45l-141 142q-102 -92 -246 -92q-146 0 -248 92l-139 -142l-49 45l153 134q-90 110 -90 258zM244 625q0 -139 91 -235.5
t220 -96.5t220 96.5t91 235.5t-91 235t-220 96t-220 -96t-91 -235z" />
    <glyph glyph-name="yen" unicode="&#xa5;" horiz-adv-x="1165" 
d="M516 711l-457 688h74l451 -680l450 680h74l-457 -688h346v-54h-381v-204h381v-54h-381v-399h-65v399h-385v54h385v204h-385v54h350z" />
    <glyph glyph-name="brokenbar" unicode="&#xa6;" horiz-adv-x="450" 
d="M254 1427v-555h-57v555h57zM254 555v-555h-57v555h57z" />
    <glyph glyph-name="section" unicode="&#xa7;" horiz-adv-x="960" 
d="M311 367q-113 55 -163 121.5t-50 168.5q0 74 52 154t126 129q-102 83 -102 209q0 51 19 99.5t55.5 90t96.5 66.5t134 25q150 0 232 -77.5t82 -205.5v-23h-62q-4 125 -73 186.5t-179 61.5q-102 0 -170.5 -65t-68.5 -158q0 -136 202 -231l211 -101q113 -55 163 -122
t50 -169q0 -75 -51.5 -154t-126.5 -128q103 -83 103 -209q0 -51 -19 -99.5t-55.5 -90t-97 -66.5t-134.5 -25q-152 0 -242.5 78.5t-90.5 204.5v22h61q4 -123 81.5 -185t190.5 -62q101 0 170.5 65t69.5 158q0 135 -203 231zM403 864q-65 31 -86 45q-68 -56 -110.5 -123.5
t-42.5 -126.5q0 -84 45 -139.5t141 -99.5l211 -101q28 -13 86 -47q68 55 111 124t43 128q0 84 -45.5 140t-141.5 100z" />
    <glyph glyph-name="dieresis" unicode="&#xa8;" horiz-adv-x="1146" 
d="M795 1327h-82v148h82v-148zM434 1327h-82v148h82v-148z" />
    <glyph glyph-name="copyright" unicode="&#xa9;" horiz-adv-x="1753" 
d="M1589 748q0 158 -57 294.5t-154.5 229.5t-227 145.5t-273.5 52.5t-274 -52.5t-227 -145.5t-154.5 -229.5t-57.5 -294.5t57.5 -294.5t154.5 -229.5t227 -146t274 -53q193 0 354.5 89.5t259.5 256.5t98 377zM1642 748q0 -162 -59 -304.5t-160.5 -244t-243.5 -160.5
t-302 -59q-214 0 -389.5 100t-276 276t-100.5 392q0 215 100.5 391t276 276.5t389.5 100.5q160 0 302 -59t243.5 -161t160.5 -244.5t59 -303.5zM545 739q0 -186 98 -301.5t242 -115.5q118 0 192 68t97 175h55q-25 -136 -117 -213.5t-227 -77.5q-173 0 -285.5 132t-112.5 333
t112 329t286 128q135 0 227 -77.5t117 -213.5h-55q-23 107 -97 175.5t-192 68.5q-145 0 -242.5 -112t-97.5 -298z" />
    <glyph glyph-name="ordfeminine" unicode="&#xaa;" horiz-adv-x="876" 
d="M135 1251q0 121 79.5 190.5t215.5 69.5q137 0 216 -76.5t79 -240.5v-320q0 -100 16 -188h-61q-12 58 -12 150q-34 -83 -114 -127.5t-181 -44.5q-123 0 -192.5 58t-69.5 161q0 50 18 90.5t47 69t73.5 50.5t90 35.5t103.5 22.5t107.5 13.5t108.5 6.5v39q0 120 -67.5 185
t-161.5 65q-95 0 -162 -55.5t-67 -153.5h-66zM659 1118q-40 -3 -58.5 -4t-64.5 -5.5t-72.5 -9.5t-69.5 -15t-69 -21.5t-57.5 -29t-49 -38.5t-30 -49.5t-12.5 -62.5q0 -82 60.5 -125t152.5 -43q111 0 190.5 84t79.5 223v96z" />
    <glyph glyph-name="guillemotleft" unicode="&#xab;" horiz-adv-x="768" 
d="M309 969h58l-203 -408l203 -418h-58l-213 418zM596 969h57l-202 -408l202 -418h-57l-213 418z" />
    <glyph glyph-name="logicalnot" unicode="&#xac;" 
d="M236 729h802v-434h-49v385h-753v49z" />
    <glyph glyph-name="uni00AD" unicode="&#xad;" horiz-adv-x="733" 
d="M588 623v-58h-443v58h443z" />
    <glyph glyph-name="registered" unicode="&#xae;" horiz-adv-x="1753" 
d="M911 1174q128 0 196.5 -62.5t68.5 -177.5q0 -173 -197 -215q46 -6 77.5 -24t51 -50.5t29 -60.5t20.5 -74l43 -213h-61l-33 170q-13 71 -26.5 110.5t-38 67.5t-60 37.5t-94.5 9.5h-219v-395h-62v877h305zM895 743q108 0 164.5 51t56.5 140q0 92 -57.5 142t-171.5 50h-219
v-383h227zM1589 748q0 158 -57 294.5t-154.5 229.5t-227 145.5t-273.5 52.5t-274 -52.5t-227 -145.5t-154.5 -229.5t-57.5 -294.5t57.5 -294.5t154.5 -229.5t227 -146t274 -53q193 0 354.5 89.5t259.5 256.5t98 377zM1642 748q0 -162 -59 -304.5t-160.5 -244t-243.5 -160.5
t-302 -59q-214 0 -389.5 100t-276 276t-100.5 392q0 215 100.5 391t276 276.5t389.5 100.5q160 0 302 -59t243.5 -161t160.5 -244.5t59 -303.5z" />
    <glyph glyph-name="overscore" unicode="&#xaf;" horiz-adv-x="1134" 
d="M807 1362h-479v59h479v-59z" />
    <glyph glyph-name="degree" unicode="&#xb0;" horiz-adv-x="770" 
d="M102 1126q0 128 81 212.5t202 84.5t202 -84.5t81 -212.5t-81 -212.5t-202 -84.5t-202 84.5t-81 212.5zM154 1126q0 -98 65.5 -173.5t165.5 -75.5t165.5 75.5t65.5 173.5t-65.5 174t-165.5 76t-165.5 -76t-65.5 -174z" />
    <glyph glyph-name="plusminus" unicode="&#xb1;" 
d="M248 696h377v385h49v-385h368v-49h-368v-385h-49v385h-377v49zM1042 0h-794v49h794v-49z" />
    <glyph glyph-name="twosuperior" unicode="&#xb2;" horiz-adv-x="684" 
d="M326 1290q-82 -40 -137.5 -106.5t-59.5 -151.5h483v-53h-540v25q0 107 49 185.5t172 141.5l49 25q101 51 149 104.5t48 120.5q0 73 -52.5 121.5t-136.5 48.5q-81 0 -141 -55t-64 -140h-57q5 106 77.5 176t184.5 70q113 0 179.5 -56.5t66.5 -164.5q0 -49 -17.5 -90.5
t-50.5 -73.5t-69 -55.5t-84 -46.5z" />
    <glyph glyph-name="threesuperior" unicode="&#xb3;" horiz-adv-x="696" 
d="M127 1202q10 -89 71.5 -141.5t149.5 -52.5q96 0 154.5 52t58.5 132q0 86 -71 129t-175 43q-48 0 -65 -4v57q12 -4 57 -4q56 0 104.5 18.5t82.5 59.5t34 98q0 77 -51 119.5t-137 42.5q-78 0 -132 -47.5t-65 -122.5h-57q17 102 86.5 161.5t167.5 59.5q48 0 90 -11.5
t78 -35.5t57 -66.5t21 -99.5q0 -131 -150 -196q89 -16 135.5 -72t46.5 -129q0 -107 -76 -171.5t-194 -64.5q-121 0 -194 66t-84 180h57z" />
    <glyph glyph-name="acute" unicode="&#xb4;" horiz-adv-x="1144" 
d="M594 1237h-62l183 250h94z" />
    <glyph glyph-name="mu" unicode="&#xb5;" horiz-adv-x="1220" 
d="M260 1057v-631q0 -195 81.5 -288t246.5 -93q42 0 84.5 13.5t87 47t78.5 82t55.5 126.5t21.5 173v570h66v-901q0 -61 22.5 -88t77.5 -27q48 0 80 12v-53q-35 -14 -86 -14q-50 0 -84 15t-49.5 42t-21 54t-5.5 63v45q-23 -48 -48.5 -83.5t-64 -68.5t-94 -50t-126.5 -17
q-223 0 -322 161v-559h-65v1469h65z" />
    <glyph glyph-name="paragraph" unicode="&#xb6;" horiz-adv-x="1112" 
d="M457 610q-171 12 -283.5 129t-112.5 305q0 103 36 187.5t98.5 140t145 85.5t175.5 30h537v-53h-201v-1698h-64v1698h-272v-1698h-59v874z" />
    <glyph glyph-name="middot" unicode="&#xb7;" horiz-adv-x="397" 
d="M252 762v-123h-107v123h107z" />
    <glyph glyph-name="cedilla" unicode="&#xb8;" horiz-adv-x="1093" 
d="M422 -68q66 -2 109.5 -49t43.5 -119q0 -79 -54 -130.5t-138 -51.5q-27 0 -57 6v56q24 -6 51 -6q61 0 97 34.5t36 89.5q0 62 -34 90.5t-87 28.5q-23 0 -33 -2v137h66v-84z" />
    <glyph glyph-name="onesuperior" unicode="&#xb9;" horiz-adv-x="419" 
d="M238 1610q-47 -33 -164 -33h-25v49q66 2 104.5 10t59.5 27.5t27 45.5t6 73h49v-803h-57v631z" />
    <glyph glyph-name="ordmasculine" unicode="&#xba;" horiz-adv-x="925" 
d="M463 1511q167 0 263.5 -112.5t96.5 -313.5q0 -200 -96 -310.5t-264 -110.5q-167 0 -264 112.5t-97 313.5q0 200 96.5 310.5t264.5 110.5zM463 715q59 0 110 20.5t93.5 63t67 116t24.5 170.5t-24.5 171.5t-67 118t-93.5 64.5t-110 21t-110 -20.5t-93.5 -63t-67 -116
t-24.5 -170.5q0 -98 24.5 -172t67 -117t93.5 -64.5t110 -21.5z" />
    <glyph glyph-name="guillemotright" unicode="&#xbb;" horiz-adv-x="768" 
d="M401 143l203 418l-203 408h58l213 -408l-213 -418h-58zM115 143l202 418l-202 408h57l213 -408l-213 -418h-57z" />
    <glyph glyph-name="onequarter" unicode="&#xbc;" horiz-adv-x="1318" 
d="M238 1227q-47 -33 -164 -33h-25v49q66 2 104.5 10t59.5 27.5t27 45.5t6 73h49v-803h-57v631zM942 1425l-754 -1458h-57l754 1458h57zM1128 803v-524h140v-50h-140v-229h-57v229h-401v41l393 533h65zM1071 279v450l-336 -450h336z" />
    <glyph glyph-name="onehalf" unicode="&#xbd;" horiz-adv-x="1349" 
d="M238 1227q-47 -33 -164 -33h-25v49q66 2 104.5 10t59.5 27.5t27 45.5t6 73h49v-803h-57v631zM942 1425l-754 -1458h-57l754 1458h57zM991 311q-82 -40 -137 -106.5t-59 -151.5h483v-53h-541v25q0 107 49 185.5t172 141.5l50 25q101 51 148.5 104t47.5 121q0 73 -52 121.5
t-136 48.5q-81 0 -141 -54.5t-64 -139.5h-57q5 106 77.5 175.5t184.5 69.5q113 0 179.5 -56.5t66.5 -164.5q0 -92 -60 -154.5t-162 -111.5z" />
    <glyph glyph-name="threequarters" unicode="&#xbe;" horiz-adv-x="1595" 
d="M127 819q10 -89 71.5 -141.5t149.5 -52.5q96 0 154.5 52t58.5 132q0 86 -71 129t-175 43q-48 0 -65 -4v57q12 -4 57 -4q56 0 104.5 18.5t82.5 59.5t34 98q0 77 -51 119.5t-137 42.5q-78 0 -132 -47.5t-65 -122.5h-57q17 102 86.5 161.5t167.5 59.5q48 0 90 -11.5
t78 -35.5t57 -66.5t21 -99.5q0 -131 -150 -196q89 -16 135.5 -72t46.5 -129q0 -107 -76 -171.5t-194 -64.5q-121 0 -194 66t-84 180h57zM1219 1425l-754 -1458h-57l753 1458h58zM1405 803v-524h139v-50h-139v-229h-57v229h-402v41l393 533h66zM1348 279v450l-336 -450h336z
" />
    <glyph glyph-name="questiondown" unicode="&#xbf;" horiz-adv-x="923" 
d="M133 -74q0 -130 90 -208t238 -78q142 0 241.5 91t106.5 236h61q-8 -168 -120 -276.5t-289 -108.5t-285 92t-108 252q0 66 23 125.5t59 105.5t80.5 91t88.5 93t80 100.5t59 123.5t23 152v65h58v-55q0 -96 -22.5 -175.5t-58 -134t-79 -101.5t-87 -88.5t-79 -83.5t-58 -97.5
t-22.5 -120.5zM449 969v123h106v-123h-106z" />
    <glyph glyph-name="Agrave" unicode="&#xc0;" horiz-adv-x="1343" 
d="M295 487l-197 -487h-78l615 1487h74l614 -1487h-78l-198 487h-752zM668 1401q-43 -108 -128.5 -315.5t-109.5 -266.5l-111 -270h703l-109 270q-32 81 -114 279.5t-123 302.5h-8zM516 1855l195 -227h-66l-227 227h98z" />
    <glyph glyph-name="Aacute" unicode="&#xc1;" horiz-adv-x="1343" 
d="M295 487l-197 -487h-78l615 1487h74l614 -1487h-78l-198 487h-752zM668 1401q-43 -108 -128.5 -315.5t-109.5 -266.5l-111 -270h703l-109 270q-32 81 -114 279.5t-123 302.5h-8zM698 1628h-65l194 227h99z" />
    <glyph glyph-name="Acircumflex" unicode="&#xc2;" horiz-adv-x="1343" 
d="M295 487l-197 -487h-78l615 1487h74l614 -1487h-78l-198 487h-752zM668 1401q-43 -108 -128.5 -315.5t-109.5 -266.5l-111 -270h703l-109 270q-32 81 -114 279.5t-123 302.5h-8zM672 1810l-166 -182h-70l195 227h84l194 -227h-71z" />
    <glyph glyph-name="Atilde" unicode="&#xc3;" horiz-adv-x="1343" 
d="M295 487l-197 -487h-78l615 1487h74l614 -1487h-78l-198 487h-752zM668 1401q-43 -108 -128.5 -315.5t-109.5 -266.5l-111 -270h703l-109 270q-32 81 -114 279.5t-123 302.5h-8zM788 1665q-34 0 -69 16.5t-59 37t-53 37t-52 16.5q-33 0 -56 -24.5t-40 -82.5h-60
q28 168 156 168q35 0 71 -16.5t60 -37t52 -37t50 -16.5q34 0 57 24.5t40 82.5h59q-28 -168 -156 -168z" />
    <glyph glyph-name="Adieresis" unicode="&#xc4;" horiz-adv-x="1343" 
d="M295 487l-197 -487h-78l615 1487h74l614 -1487h-78l-198 487h-752zM668 1401q-43 -108 -128.5 -315.5t-109.5 -266.5l-111 -270h703l-109 270q-32 81 -114 279.5t-123 302.5h-8zM895 1681h-82v148h82v-148zM530 1681h-81v148h81v-148z" />
    <glyph glyph-name="Aring" unicode="&#xc5;" horiz-adv-x="1343" 
d="M295 487l-197 -487h-78l615 1487h74l614 -1487h-78l-198 487h-752zM668 1401q-43 -108 -128.5 -315.5t-109.5 -266.5l-111 -270h703l-109 270q-32 81 -114 279.5t-123 302.5h-8zM532 1636q0 -64 38.5 -99.5t97.5 -35.5q62 0 100.5 35.5t38.5 99.5q0 66 -38.5 103
t-100.5 37q-59 0 -97.5 -37.5t-38.5 -102.5zM467 1636q0 78 54.5 137.5t146.5 59.5q94 0 149 -59.5t55 -137.5q0 -76 -55 -134t-149 -58q-92 0 -146.5 58t-54.5 134z" />
    <glyph glyph-name="AE" unicode="&#xc6;" horiz-adv-x="1808" 
d="M1671 1425h-756l89 -622h643v-62h-633l96 -680h631v-61h-688l-76 522h-602l-277 -522h-78l797 1487h854v-62zM844 1403l-438 -819h563l-117 819h-8z" />
    <glyph glyph-name="Ccedilla" unicode="&#xc7;" horiz-adv-x="1394" 
d="M186 745q0 -160 42.5 -293t117 -223t178 -140t224.5 -50q197 0 330 126t153 329h74q-8 -102 -43.5 -188.5t-89.5 -146t-123.5 -101.5t-145.5 -61.5t-155 -19.5q-187 0 -330.5 96t-222 270.5t-78.5 401.5q0 343 168.5 549.5t445.5 206.5q111 0 208 -30.5t175.5 -90
t125 -158t48.5 -225.5h-74q-5 203 -135 323t-348 120q-118 0 -218 -48.5t-172.5 -136.5t-113.5 -219.5t-41 -290.5zM713 -68q66 -2 109.5 -49t43.5 -119q0 -79 -54 -130.5t-138 -51.5q-28 0 -58 6v56q24 -6 52 -6q61 0 97 34.5t36 89.5q0 62 -34 90.5t-87 28.5q-23 0 -33 -2
v137h66v-84z" />
    <glyph glyph-name="Egrave" unicode="&#xc8;" horiz-adv-x="1185" 
d="M1073 1487v-62h-803v-622h762v-62h-762v-680h828v-61h-893v1487h868zM502 1855l194 -227h-65l-228 227h99z" />
    <glyph glyph-name="Eacute" unicode="&#xc9;" horiz-adv-x="1185" 
d="M1073 1487v-62h-803v-622h762v-62h-762v-680h828v-61h-893v1487h868zM684 1628h-66l195 227h98z" />
    <glyph glyph-name="Ecircumflex" unicode="&#xca;" horiz-adv-x="1185" 
d="M1073 1487v-62h-803v-622h762v-62h-762v-680h828v-61h-893v1487h868zM657 1810l-165 -182h-70l194 227h84l195 -227h-72z" />
    <glyph glyph-name="Edieresis" unicode="&#xcb;" horiz-adv-x="1185" 
d="M1073 1487v-62h-803v-622h762v-62h-762v-680h828v-61h-893v1487h868zM881 1681h-82v148h82v-148zM516 1681h-82v148h82v-148z" />
    <glyph glyph-name="Igrave" unicode="&#xcc;" horiz-adv-x="475" 
d="M270 1487v-1487h-65v1487h65zM82 1855l194 -227h-65l-227 227h98z" />
    <glyph glyph-name="Iacute" unicode="&#xcd;" horiz-adv-x="475" 
d="M270 1487v-1487h-65v1487h65zM264 1628h-65l194 227h99z" />
    <glyph glyph-name="Icircumflex" unicode="&#xce;" horiz-adv-x="475" 
d="M270 1487v-1487h-65v1487h65zM238 1810l-166 -182h-70l195 227h84l194 -227h-72z" />
    <glyph glyph-name="Idieresis" unicode="&#xcf;" horiz-adv-x="475" 
d="M270 1487v-1487h-65v1487h65zM430 1681h-82v148h82v-148zM127 1681h-82v148h82v-148z" />
    <glyph glyph-name="Eth" unicode="&#xd0;" horiz-adv-x="1492" 
d="M573 1487q218 0 374.5 -51.5t249.5 -151t136 -232.5t43 -307q0 -137 -24 -247.5t-80.5 -205t-145 -158t-222.5 -99t-308 -35.5h-367v741h-204v62h204v684h344zM598 66q356 0 532.5 164t176.5 515t-182.5 513.5t-551.5 162.5h-278v-618h323v-62h-323v-675h303z" />
    <glyph glyph-name="Ntilde" unicode="&#xd1;" horiz-adv-x="1441" 
d="M270 1384v-1384h-65v1487h98l860 -1385h8v1385h66v-1487h-98l-860 1384h-9zM838 1665q-34 0 -69 16.5t-59.5 37t-53.5 37t-52 16.5q-33 0 -56 -24.5t-40 -82.5h-59q28 168 155 168q35 0 71 -16.5t60.5 -37t52.5 -37t50 -16.5q33 0 56 24.5t40 82.5h59q-28 -168 -155 -168
z" />
    <glyph glyph-name="Ograve" unicode="&#xd2;" horiz-adv-x="1507" 
d="M754 39q251 0 410 190t159 516q0 163 -43 295.5t-118.5 220.5t-180 135.5t-227.5 47.5t-227.5 -47.5t-180.5 -135.5t-119 -220.5t-43 -295.5q0 -326 159 -516t411 -190zM754 -23q-284 0 -461.5 210.5t-177.5 557.5q0 230 81.5 403t226 265t331.5 92t331.5 -92t226 -265
t81.5 -403q0 -347 -177.5 -557.5t-461.5 -210.5zM598 1855l195 -227h-66l-227 227h98z" />
    <glyph glyph-name="Oacute" unicode="&#xd3;" horiz-adv-x="1507" 
d="M754 39q251 0 410 190t159 516q0 163 -43 295.5t-118.5 220.5t-180 135.5t-227.5 47.5t-227.5 -47.5t-180.5 -135.5t-119 -220.5t-43 -295.5q0 -326 159 -516t411 -190zM754 -23q-284 0 -461.5 210.5t-177.5 557.5q0 230 81.5 403t226 265t331.5 92t331.5 -92t226 -265
t81.5 -403q0 -347 -177.5 -557.5t-461.5 -210.5zM780 1628h-65l194 227h99z" />
    <glyph glyph-name="Ocircumflex" unicode="&#xd4;" horiz-adv-x="1507" 
d="M754 39q251 0 410 190t159 516q0 163 -43 295.5t-118.5 220.5t-180 135.5t-227.5 47.5t-227.5 -47.5t-180.5 -135.5t-119 -220.5t-43 -295.5q0 -326 159 -516t411 -190zM754 -23q-284 0 -461.5 210.5t-177.5 557.5q0 230 81.5 403t226 265t331.5 92t331.5 -92t226 -265
t81.5 -403q0 -347 -177.5 -557.5t-461.5 -210.5zM754 1810l-166 -182h-70l195 227h84l194 -227h-71z" />
    <glyph glyph-name="Otilde" unicode="&#xd5;" horiz-adv-x="1507" 
d="M754 39q251 0 410 190t159 516q0 163 -43 295.5t-118.5 220.5t-180 135.5t-227.5 47.5t-227.5 -47.5t-180.5 -135.5t-119 -220.5t-43 -295.5q0 -326 159 -516t411 -190zM754 -23q-284 0 -461.5 210.5t-177.5 557.5q0 230 81.5 403t226 265t331.5 92t331.5 -92t226 -265
t81.5 -403q0 -347 -177.5 -557.5t-461.5 -210.5zM870 1665q-34 0 -69 16.5t-59 37t-53 37t-52 16.5q-33 0 -56 -24.5t-40 -82.5h-60q28 168 156 168q35 0 71 -16.5t60 -37t52 -37t50 -16.5q34 0 57 24.5t40 82.5h59q-28 -168 -156 -168z" />
    <glyph glyph-name="Odieresis" unicode="&#xd6;" horiz-adv-x="1507" 
d="M754 39q251 0 410 190t159 516q0 163 -43 295.5t-118.5 220.5t-180 135.5t-227.5 47.5t-227.5 -47.5t-180.5 -135.5t-119 -220.5t-43 -295.5q0 -326 159 -516t411 -190zM754 -23q-284 0 -461.5 210.5t-177.5 557.5q0 230 81.5 403t226 265t331.5 92t331.5 -92t226 -265
t81.5 -403q0 -347 -177.5 -557.5t-461.5 -210.5zM977 1681h-82v148h82v-148zM612 1681h-82v148h82v-148z" />
    <glyph glyph-name="multiply" unicode="&#xd7;" 
d="M610 582l-305 295l33 32l307 -295l307 295l33 -32l-307 -295l307 -295l-33 -33l-307 295l-307 -295l-33 33z" />
    <glyph glyph-name="Oslash" unicode="&#xd8;" horiz-adv-x="1515" 
d="M760 -23q-254 0 -424 170l-131 -172l-43 39l135 176q-176 207 -176 555q0 230 81.5 403t226 265t331.5 92q244 0 420 -162l116 152l43 -35l-120 -157q180 -208 180 -558q0 -347 -177.5 -557.5t-461.5 -210.5zM760 39q251 0 410 190t159 516q0 314 -151 504l-803 -1050
q154 -160 385 -160zM190 745q0 -308 146 -503l803 1048q-151 154 -379 154q-123 0 -227.5 -47.5t-180.5 -135.5t-119 -220.5t-43 -295.5z" />
    <glyph glyph-name="Ugrave" unicode="&#xd9;" horiz-adv-x="1392" 
d="M696 45q216 0 329.5 119.5t113.5 343.5v979h65v-979q0 -268 -133 -396t-375 -128t-375 128t-133 396v979h66v-979q0 -224 113 -343.5t329 -119.5zM541 1855l194 -227h-65l-228 227h99z" />
    <glyph glyph-name="Uacute" unicode="&#xda;" horiz-adv-x="1392" 
d="M696 45q216 0 329.5 119.5t113.5 343.5v979h65v-979q0 -268 -133 -396t-375 -128t-375 128t-133 396v979h66v-979q0 -224 113 -343.5t329 -119.5zM723 1628h-66l195 227h98z" />
    <glyph glyph-name="Ucircumflex" unicode="&#xdb;" horiz-adv-x="1392" 
d="M696 45q216 0 329.5 119.5t113.5 343.5v979h65v-979q0 -268 -133 -396t-375 -128t-375 128t-133 396v979h66v-979q0 -224 113 -343.5t329 -119.5zM696 1810l-166 -182h-69l194 227h84l195 -227h-72z" />
    <glyph glyph-name="Udieresis" unicode="&#xdc;" horiz-adv-x="1392" 
d="M696 45q216 0 329.5 119.5t113.5 343.5v979h65v-979q0 -268 -133 -396t-375 -128t-375 128t-133 396v979h66v-979q0 -224 113 -343.5t329 -119.5zM920 1681h-82v148h82v-148zM555 1681h-82v148h82v-148z" />
    <glyph glyph-name="Yacute" unicode="&#xdd;" horiz-adv-x="1159" 
d="M31 1487h73l476 -754l475 754h73l-516 -815v-672h-65v672zM606 1628h-65l194 227h99z" />
    <glyph glyph-name="Thorn" unicode="&#xde;" horiz-adv-x="1220" 
d="M270 1487v-299h369q254 0 372.5 -98.5t118.5 -298.5q0 -191 -128.5 -296.5t-337.5 -105.5h-394v-389h-65v1487h65zM270 455h394q192 0 293.5 92t101.5 246q0 93 -31.5 159t-90.5 102t-131.5 52t-166.5 16h-369v-667z" />
    <glyph glyph-name="germandbls" unicode="&#xdf;" horiz-adv-x="1077" 
d="M174 1024q0 485 369 485q169 0 268.5 -95.5t99.5 -244.5q0 -131 -76.5 -219t-193.5 -114v-9q163 -31 249.5 -142t86.5 -269q0 -103 -38.5 -185t-105 -133.5t-151.5 -78.5t-182 -27q-53 0 -97 8v57q44 -8 99 -8q184 0 294.5 102.5t110.5 270.5q0 93 -34.5 166t-92.5 118
t-130 68t-152 23h-21v63h21q46 0 94 12.5t93 38.5t80 62.5t56 87.5t21 110q0 119 -80.5 199t-218.5 80q-303 0 -303 -426v-1024h-66v1024z" />
    <glyph glyph-name="agrave" unicode="&#xe0;" horiz-adv-x="1054" 
d="M829 688q0 176 -75 256t-230 80q-140 0 -225.5 -76t-85.5 -196h-70q0 143 105.5 236t275.5 93q34 0 62.5 -2t68 -11.5t71 -24.5t64.5 -44.5t55 -68.5t36 -99.5t14 -134.5q0 -386 3 -513.5t11 -182.5h-67q-9 79 -11 199q-118 -222 -372 -222q-160 0 -257.5 73t-97.5 210
q0 48 11.5 88.5t30.5 72t51.5 57.5t67.5 45.5t86 35t99.5 26t115 19.5t125.5 15t138 12v57zM459 35q154 0 262 104.5t108 268.5v163q-278 -25 -380 -48q-192 -43 -247 -145q-26 -49 -26 -116q0 -64 27.5 -111t72 -70.5t90 -34.5t93.5 -11zM559 1237h-61l-215 250h94z" />
    <glyph glyph-name="aacute" unicode="&#xe1;" horiz-adv-x="1054" 
d="M829 688q0 176 -75 256t-230 80q-140 0 -225.5 -76t-85.5 -196h-70q0 143 105.5 236t275.5 93q34 0 62.5 -2t68 -11.5t71 -24.5t64.5 -44.5t55 -68.5t36 -99.5t14 -134.5q0 -386 3 -513.5t11 -182.5h-67q-9 79 -11 199q-118 -222 -372 -222q-160 0 -257.5 73t-97.5 210
q0 48 11.5 88.5t30.5 72t51.5 57.5t67.5 45.5t86 35t99.5 26t115 19.5t125.5 15t138 12v57zM459 35q154 0 262 104.5t108 268.5v163q-278 -25 -380 -48q-192 -43 -247 -145q-26 -49 -26 -116q0 -64 27.5 -111t72 -70.5t90 -34.5t93.5 -11zM547 1237h-62l183 250h94z" />
    <glyph glyph-name="acircumflex" unicode="&#xe2;" horiz-adv-x="1054" 
d="M829 688q0 176 -75 256t-230 80q-140 0 -225.5 -76t-85.5 -196h-70q0 143 105.5 236t275.5 93q34 0 62.5 -2t68 -11.5t71 -24.5t64.5 -44.5t55 -68.5t36 -99.5t14 -134.5q0 -386 3 -513.5t11 -182.5h-67q-9 79 -11 199q-118 -222 -372 -222q-160 0 -257.5 73t-97.5 210
q0 48 11.5 88.5t30.5 72t51.5 57.5t67.5 45.5t86 35t99.5 26t115 19.5t125.5 15t138 12v57zM459 35q154 0 262 104.5t108 268.5v163q-278 -25 -380 -48q-192 -43 -247 -145q-26 -49 -26 -116q0 -64 27.5 -111t72 -70.5t90 -34.5t93.5 -11zM526 1438l-168 -201h-67l196 250
h80l197 -250h-70z" />
    <glyph glyph-name="atilde" unicode="&#xe3;" horiz-adv-x="1054" 
d="M829 688q0 176 -75 256t-230 80q-140 0 -225.5 -76t-85.5 -196h-70q0 143 105.5 236t275.5 93q34 0 62.5 -2t68 -11.5t71 -24.5t64.5 -44.5t55 -68.5t36 -99.5t14 -134.5q0 -386 3 -513.5t11 -182.5h-67q-9 79 -11 199q-118 -222 -372 -222q-160 0 -257.5 73t-97.5 210
q0 48 11.5 88.5t30.5 72t51.5 57.5t67.5 45.5t86 35t99.5 26t115 19.5t125.5 15t138 12v57zM459 35q154 0 262 104.5t108 268.5v163q-278 -25 -380 -48q-192 -43 -247 -145q-26 -49 -26 -116q0 -64 27.5 -111t72 -70.5t90 -34.5t93.5 -11zM647 1282q-33 0 -69 17t-62 37.5
t-56.5 37.5t-53.5 17q-68 0 -99 -109h-57q28 168 156 168q35 0 72.5 -17t63.5 -37.5t55 -37.5t50 -17q67 0 98 109h58q-28 -168 -156 -168z" />
    <glyph glyph-name="adieresis" unicode="&#xe4;" horiz-adv-x="1054" 
d="M829 688q0 176 -75 256t-230 80q-140 0 -225.5 -76t-85.5 -196h-70q0 143 105.5 236t275.5 93q34 0 62.5 -2t68 -11.5t71 -24.5t64.5 -44.5t55 -68.5t36 -99.5t14 -134.5q0 -386 3 -513.5t11 -182.5h-67q-9 79 -11 199q-118 -222 -372 -222q-160 0 -257.5 73t-97.5 210
q0 48 11.5 88.5t30.5 72t51.5 57.5t67.5 45.5t86 35t99.5 26t115 19.5t125.5 15t138 12v57zM459 35q154 0 262 104.5t108 268.5v163q-278 -25 -380 -48q-192 -43 -247 -145q-26 -49 -26 -116q0 -64 27.5 -111t72 -70.5t90 -34.5t93.5 -11zM748 1327h-82v148h82v-148z
M387 1327h-82v148h82v-148z" />
    <glyph glyph-name="aring" unicode="&#xe5;" horiz-adv-x="1054" 
d="M829 688q0 176 -75 256t-230 80q-140 0 -225.5 -76t-85.5 -196h-70q0 143 105.5 236t275.5 93q34 0 62.5 -2t68 -11.5t71 -24.5t64.5 -44.5t55 -68.5t36 -99.5t14 -134.5q0 -386 3 -513.5t11 -182.5h-67q-9 79 -11 199q-118 -222 -372 -222q-160 0 -257.5 73t-97.5 210
q0 48 11.5 88.5t30.5 72t51.5 57.5t67.5 45.5t86 35t99.5 26t115 19.5t125.5 15t138 12v57zM459 35q154 0 262 104.5t108 268.5v163q-278 -25 -380 -48q-192 -43 -247 -145q-26 -49 -26 -116q0 -64 27.5 -111t72 -70.5t90 -34.5t93.5 -11zM389 1364q0 -64 38 -99.5t97 -35.5
q62 0 101 35.5t39 99.5q0 66 -39 102.5t-101 36.5q-59 0 -97 -37t-38 -102zM324 1364q0 78 54 137.5t146 59.5q94 0 149.5 -59.5t55.5 -137.5q0 -76 -55.5 -134.5t-149.5 -58.5q-92 0 -146 58.5t-54 134.5z" />
    <glyph glyph-name="ae" unicode="&#xe6;" horiz-adv-x="1765" 
d="M455 -23q-154 0 -253.5 76.5t-99.5 214.5q0 113 59 182.5t201 106.5t381 37h80v94q0 172 -79 254t-224 82q-136 0 -223.5 -76.5t-87.5 -195.5h-66q0 143 104 236t273 93q294 0 354 -264q60 130 158.5 196t218.5 66q107 0 187 -37.5t129 -107.5t73.5 -163t26.5 -212v-22
h-778q0 -234 97.5 -368t264.5 -134q126 0 217.5 74.5t116.5 187.5h66q-32 -147 -141 -233.5t-259 -86.5q-139 0 -241.5 78t-149.5 219q-49 -130 -150.5 -213.5t-254.5 -83.5zM455 35q156 0 262 114.5t106 296.5v91h-80q-293 0 -430 -59.5t-137 -207.5q0 -64 28 -112
t72.5 -73.5t89.5 -37.5t89 -12zM1593 594q-16 428 -342 428q-154 0 -250.5 -112t-109.5 -316h702z" />
    <glyph glyph-name="ccedilla" unicode="&#xe7;" horiz-adv-x="1071" 
d="M563 1022q-165 0 -277 -135.5t-112 -362.5q0 -226 107 -357.5t276 -131.5q146 0 247 93.5t109 225.5h66q-5 -104 -65 -191.5t-155 -136.5t-202 -49q-197 0 -325 145.5t-128 401.5q0 107 26.5 199t72 156.5t104.5 110t124 67.5t132 22q112 0 204.5 -42t151.5 -127t64 -199
h-65q-8 130 -108 220.5t-247 90.5zM547 -68q66 -2 109.5 -49t43.5 -119q0 -79 -54 -130.5t-138 -51.5q-27 0 -57 6v56q24 -6 51 -6q61 0 97 34.5t36 89.5q0 62 -34 90.5t-87 28.5q-23 0 -33 -2v137h66v-84z" />
    <glyph glyph-name="egrave" unicode="&#xe8;" horiz-adv-x="1075" 
d="M176 524q0 -228 102 -358.5t271 -130.5q127 0 223 75t121 187h65q-32 -146 -145 -233t-264 -87q-196 0 -319.5 145t-123.5 402q0 136 38 244.5t101 174.5t141 101t163 35q110 0 192.5 -40.5t133 -115t75.5 -174.5t25 -225h-799zM549 1022q-155 0 -256.5 -116.5
t-114.5 -323.5h723q-8 214 -96 327t-256 113zM584 1237h-62l-215 250h94z" />
    <glyph glyph-name="eacute" unicode="&#xe9;" horiz-adv-x="1075" 
d="M176 524q0 -228 102 -358.5t271 -130.5q127 0 223 75t121 187h65q-32 -146 -145 -233t-264 -87q-196 0 -319.5 145t-123.5 402q0 136 38 244.5t101 174.5t141 101t163 35q110 0 192.5 -40.5t133 -115t75.5 -174.5t25 -225h-799zM549 1022q-155 0 -256.5 -116.5
t-114.5 -323.5h723q-8 214 -96 327t-256 113zM571 1237h-61l182 250h94z" />
    <glyph glyph-name="ecircumflex" unicode="&#xea;" horiz-adv-x="1075" 
d="M176 524q0 -228 102 -358.5t271 -130.5q127 0 223 75t121 187h65q-32 -146 -145 -233t-264 -87q-196 0 -319.5 145t-123.5 402q0 136 38 244.5t101 174.5t141 101t163 35q110 0 192.5 -40.5t133 -115t75.5 -174.5t25 -225h-799zM549 1022q-155 0 -256.5 -116.5
t-114.5 -323.5h723q-8 214 -96 327t-256 113zM551 1438l-168 -201h-68l197 250h80l196 -250h-69z" />
    <glyph glyph-name="edieresis" unicode="&#xeb;" horiz-adv-x="1075" 
d="M176 524q0 -228 102 -358.5t271 -130.5q127 0 223 75t121 187h65q-32 -146 -145 -233t-264 -87q-196 0 -319.5 145t-123.5 402q0 136 38 244.5t101 174.5t141 101t163 35q110 0 192.5 -40.5t133 -115t75.5 -174.5t25 -225h-799zM549 1022q-155 0 -256.5 -116.5
t-114.5 -323.5h723q-8 214 -96 327t-256 113zM772 1327h-82v148h82v-148zM412 1327h-82v148h82v-148z" />
    <glyph glyph-name="igrave" unicode="&#xec;" horiz-adv-x="413" 
d="M240 1057v-1057h-66v1057h66zM84 1487l164 -250h-62l-186 250h84z" />
    <glyph glyph-name="iacute" unicode="&#xed;" horiz-adv-x="413" 
d="M240 1057v-1057h-66v1057h66zM227 1237h-61l164 250h84z" />
    <glyph glyph-name="icircumflex" unicode="&#xee;" horiz-adv-x="413" 
d="M240 1057v-1057h-66v1057h66zM418 1237h-66l-147 201l-148 -201h-61l172 250h78z" />
    <glyph glyph-name="idieresis" unicode="&#xef;" horiz-adv-x="413" 
d="M240 1057v-1057h-66v1057h66zM379 1327h-82v148h82v-148zM117 1327h-82v148h82v-148z" />
    <glyph glyph-name="eth" unicode="&#xf0;" horiz-adv-x="1120" 
d="M520 1343q-88 76 -184 144h106q76 -53 136 -105l180 123l35 -49l-170 -115q181 -173 286 -388.5t105 -420.5q0 -156 -50 -279.5t-156 -199.5t-253 -76q-110 0 -197.5 41.5t-142 114.5t-83 167.5t-28.5 203.5q0 85 18 163t56 146t92.5 118.5t131 79.5t167.5 29
q155 0 285 -125q-90 204 -287 388l-194 -134l-37 50zM551 35q79 0 144.5 27t111 72.5t77 107t46 129.5t14.5 141q0 92 -24 175t-70.5 150t-121.5 106.5t-169 39.5q-78 0 -142.5 -27.5t-109 -74t-75 -109t-44.5 -131t-14 -141.5q0 -89 22 -169.5t65.5 -148t118 -107.5
t171.5 -40z" />
    <glyph glyph-name="ntilde" unicode="&#xf1;" horiz-adv-x="1122" 
d="M240 1057v-197q105 219 358 219q195 0 279 -106.5t84 -308.5v-664h-66v655q0 194 -73.5 279.5t-229.5 85.5q-45 0 -86.5 -8.5t-90.5 -35.5t-85 -70.5t-61.5 -120t-28.5 -177.5v-608h-66v1057h66zM674 1282q-33 0 -69 17t-62.5 37.5t-57 37.5t-53.5 17q-67 0 -98 -109h-58
q28 168 156 168q35 0 72.5 -17t64 -37.5t55.5 -37.5t50 -17q67 0 98 109h57q-28 -168 -155 -168z" />
    <glyph glyph-name="ograve" unicode="&#xf2;" horiz-adv-x="1126" 
d="M563 35q180 0 284.5 136t104.5 361q0 224 -104.5 357t-284.5 133t-284.5 -136.5t-104.5 -361.5q0 -224 104.5 -356.5t284.5 -132.5zM563 -23q-205 0 -332 149t-127 398q0 250 127.5 402.5t331.5 152.5q205 0 332 -149t127 -398q0 -250 -127.5 -402.5t-331.5 -152.5z
M596 1237h-61l-216 250h95z" />
    <glyph glyph-name="oacute" unicode="&#xf3;" horiz-adv-x="1126" 
d="M563 35q180 0 284.5 136t104.5 361q0 224 -104.5 357t-284.5 133t-284.5 -136.5t-104.5 -361.5q0 -224 104.5 -356.5t284.5 -132.5zM563 -23q-205 0 -332 149t-127 398q0 250 127.5 402.5t331.5 152.5q205 0 332 -149t127 -398q0 -250 -127.5 -402.5t-331.5 -152.5z
M584 1237h-62l183 250h94z" />
    <glyph glyph-name="ocircumflex" unicode="&#xf4;" horiz-adv-x="1126" 
d="M563 35q180 0 284.5 136t104.5 361q0 224 -104.5 357t-284.5 133t-284.5 -136.5t-104.5 -361.5q0 -224 104.5 -356.5t284.5 -132.5zM563 -23q-205 0 -332 149t-127 398q0 250 127.5 402.5t331.5 152.5q205 0 332 -149t127 -398q0 -250 -127.5 -402.5t-331.5 -152.5z
M563 1438l-168 -201h-67l196 250h80l197 -250h-70z" />
    <glyph glyph-name="otilde" unicode="&#xf5;" horiz-adv-x="1126" 
d="M563 35q180 0 284.5 136t104.5 361q0 224 -104.5 357t-284.5 133t-284.5 -136.5t-104.5 -361.5q0 -224 104.5 -356.5t284.5 -132.5zM563 -23q-205 0 -332 149t-127 398q0 250 127.5 402.5t331.5 152.5q205 0 332 -149t127 -398q0 -250 -127.5 -402.5t-331.5 -152.5z
M684 1282q-33 0 -69 17t-62.5 37.5t-57 37.5t-53.5 17q-67 0 -98 -109h-57q28 168 155 168q35 0 72.5 -17t64 -37.5t55.5 -37.5t50 -17q67 0 98 109h58q-28 -168 -156 -168z" />
    <glyph glyph-name="odieresis" unicode="&#xf6;" horiz-adv-x="1126" 
d="M563 35q180 0 284.5 136t104.5 361q0 224 -104.5 357t-284.5 133t-284.5 -136.5t-104.5 -361.5q0 -224 104.5 -356.5t284.5 -132.5zM563 -23q-205 0 -332 149t-127 398q0 250 127.5 402.5t331.5 152.5q205 0 332 -149t127 -398q0 -250 -127.5 -402.5t-331.5 -152.5z
M784 1327h-82v148h82v-148zM424 1327h-82v148h82v-148z" />
    <glyph glyph-name="divide" unicode="&#xf7;" 
d="M690 958v-131h-90v131h90zM690 336v-131h-90v131h90zM248 606h794v-49h-794v49z" />
    <glyph glyph-name="oslash" unicode="&#xf8;" horiz-adv-x="1134" 
d="M240 121q-129 151 -129 403q0 250 127 402.5t331 152.5q165 0 281 -98l119 172l49 -33l-125 -178q135 -147 135 -410q0 -250 -127.5 -402.5t-331.5 -152.5q-171 0 -286 103l-123 -174l-49 33zM569 35q180 0 284.5 136t104.5 361q0 226 -104 357l-537 -760
q101 -94 252 -94zM180 524q0 -218 99 -350l534 758q-99 90 -244 90q-180 0 -284.5 -136.5t-104.5 -361.5z" />
    <glyph glyph-name="ugrave" unicode="&#xf9;" horiz-adv-x="1122" 
d="M883 0v197q-24 -47 -53 -83.5t-71 -69t-101.5 -50t-133.5 -17.5q-195 0 -278.5 107t-83.5 309v664h65v-656q0 -194 73.5 -279t229.5 -85q43 0 84 8t90.5 35t86.5 69.5t63 119t29 177.5v611h65v-1057h-65zM592 1237h-62l-215 250h95z" />
    <glyph glyph-name="uacute" unicode="&#xfa;" horiz-adv-x="1122" 
d="M883 0v197q-24 -47 -53 -83.5t-71 -69t-101.5 -50t-133.5 -17.5q-195 0 -278.5 107t-83.5 309v664h65v-656q0 -194 73.5 -279t229.5 -85q43 0 84 8t90.5 35t86.5 69.5t63 119t29 177.5v611h65v-1057h-65zM580 1237h-62l182 250h95z" />
    <glyph glyph-name="ucircumflex" unicode="&#xfb;" horiz-adv-x="1122" 
d="M883 0v197q-24 -47 -53 -83.5t-71 -69t-101.5 -50t-133.5 -17.5q-195 0 -278.5 107t-83.5 309v664h65v-656q0 -194 73.5 -279t229.5 -85q43 0 84 8t90.5 35t86.5 69.5t63 119t29 177.5v611h65v-1057h-65zM559 1438l-168 -201h-67l196 250h80l197 -250h-70z" />
    <glyph glyph-name="udieresis" unicode="&#xfc;" horiz-adv-x="1122" 
d="M883 0v197q-24 -47 -53 -83.5t-71 -69t-101.5 -50t-133.5 -17.5q-195 0 -278.5 107t-83.5 309v664h65v-656q0 -194 73.5 -279t229.5 -85q43 0 84 8t90.5 35t86.5 69.5t63 119t29 177.5v611h65v-1057h-65zM780 1327h-82v148h82v-148zM420 1327h-82v148h82v-148z" />
    <glyph glyph-name="yacute" unicode="&#xfd;" horiz-adv-x="960" 
d="M117 1057l358 -959h8l367 959h70l-463 -1207q-55 -149 -129 -209.5t-187 -60.5q-51 0 -90 10v58q41 -8 90 -8q47 0 83 14t63.5 38.5t54.5 73t49 101.5t53 141l-401 1049h74zM502 1237h-62l183 250h94z" />
    <glyph glyph-name="thorn" unicode="&#xfe;" horiz-adv-x="1165" 
d="M240 811q45 83 96 139.5t125 92.5t164 36q198 0 316 -145.5t118 -401.5q0 -135 -40 -244t-105.5 -175t-144 -101t-161.5 -35q-134 0 -228 63.5t-140 172.5v-625h-66v1899h66v-676zM989 532q0 221 -100 355.5t-264 134.5q-155 0 -270 -138t-115 -331v-43
q0 -136 39.5 -241.5t124 -169.5t204.5 -64q165 0 273 140t108 357z" />
    <glyph glyph-name="ydieresis" unicode="&#xff;" horiz-adv-x="960" 
d="M117 1057l358 -959h8l367 959h70l-463 -1207q-55 -149 -129 -209.5t-187 -60.5q-51 0 -90 10v58q41 -8 90 -8q47 0 83 14t63.5 38.5t54.5 73t49 101.5t53 141l-401 1049h74zM702 1327h-81v148h81v-148zM342 1327h-82v148h82v-148z" />
    <glyph glyph-name="Amacron" unicode="&#x100;" horiz-adv-x="1343" 
d="M295 487l-197 -487h-78l615 1487h74l614 -1487h-78l-198 487h-752zM668 1401q-43 -108 -128.5 -315.5t-109.5 -266.5l-111 -270h703l-109 270q-32 81 -114 279.5t-123 302.5h-8zM909 1716h-475v60h475v-60z" />
    <glyph glyph-name="amacron" unicode="&#x101;" horiz-adv-x="1054" 
d="M829 688q0 176 -75 256t-230 80q-140 0 -225.5 -76t-85.5 -196h-70q0 143 105.5 236t275.5 93q34 0 62.5 -2t68 -11.5t71 -24.5t64.5 -44.5t55 -68.5t36 -99.5t14 -134.5q0 -386 3 -513.5t11 -182.5h-67q-9 79 -11 199q-118 -222 -372 -222q-160 0 -257.5 73t-97.5 210
q0 48 11.5 88.5t30.5 72t51.5 57.5t67.5 45.5t86 35t99.5 26t115 19.5t125.5 15t138 12v57zM459 35q154 0 262 104.5t108 268.5v163q-278 -25 -380 -48q-192 -43 -247 -145q-26 -49 -26 -116q0 -64 27.5 -111t72 -70.5t90 -34.5t93.5 -11zM766 1362h-479v59h479v-59z" />
    <glyph glyph-name="Abreve" unicode="&#x102;" horiz-adv-x="1343" 
d="M295 487l-197 -487h-78l615 1487h74l614 -1487h-78l-198 487h-752zM668 1401q-43 -108 -128.5 -315.5t-109.5 -266.5l-111 -270h703l-109 270q-32 81 -114 279.5t-123 302.5h-8zM672 1626q-104 0 -163.5 62.5t-59.5 166.5h59q0 -79 43.5 -127.5t120.5 -48.5t120.5 48.5
t43.5 127.5h59q0 -104 -60 -166.5t-163 -62.5z" />
    <glyph glyph-name="abreve" unicode="&#x103;" horiz-adv-x="1054" 
d="M829 688q0 176 -75 256t-230 80q-140 0 -225.5 -76t-85.5 -196h-70q0 143 105.5 236t275.5 93q34 0 62.5 -2t68 -11.5t71 -24.5t64.5 -44.5t55 -68.5t36 -99.5t14 -134.5q0 -386 3 -513.5t11 -182.5h-67q-9 79 -11 199q-118 -222 -372 -222q-160 0 -257.5 73t-97.5 210
q0 48 11.5 88.5t30.5 72t51.5 57.5t67.5 45.5t86 35t99.5 26t115 19.5t125.5 15t138 12v57zM459 35q154 0 262 104.5t108 268.5v163q-278 -25 -380 -48q-192 -43 -247 -145q-26 -49 -26 -116q0 -64 27.5 -111t72 -70.5t90 -34.5t93.5 -11zM530 1237q-105 0 -166 66t-61 184
h59q0 -95 44.5 -146t123.5 -51q77 0 122.5 51t45.5 146h60q0 -117 -62 -183.5t-166 -66.5z" />
    <glyph glyph-name="Aogonek" unicode="&#x104;" horiz-adv-x="1343" 
d="M295 487l-197 -487h-78l615 1487h74l614 -1487h-78l-198 487h-752zM668 1401q-43 -108 -128.5 -315.5t-109.5 -266.5l-111 -270h703l-109 270q-32 81 -114 279.5t-123 302.5h-8zM1231 -418q-76 0 -122 47t-46 115t52.5 137.5t172.5 155.5l35 -37q-195 -133 -195 -250
q0 -52 32 -80t79 -28q56 0 84 20v-61q-31 -19 -92 -19z" />
    <glyph glyph-name="aogonek" unicode="&#x105;" horiz-adv-x="1054" 
d="M829 688q0 176 -75 256t-230 80q-140 0 -225.5 -76t-85.5 -196h-70q0 143 105.5 236t275.5 93q34 0 62.5 -2t68 -11.5t71 -24.5t64.5 -44.5t55 -68.5t36 -99.5t14 -134.5q0 -386 3 -513.5t11 -182.5h-67q-9 79 -11 199q-118 -222 -372 -222q-160 0 -257.5 73t-97.5 210
q0 48 11.5 88.5t30.5 72t51.5 57.5t67.5 45.5t86 35t99.5 26t115 19.5t125.5 15t138 12v57zM459 35q154 0 262 104.5t108 268.5v163q-278 -25 -380 -48q-192 -43 -247 -145q-26 -49 -26 -116q0 -64 27.5 -111t72 -70.5t90 -34.5t93.5 -11zM817 -418q-76 0 -122 47t-46 115
t52.5 137.5t172.5 155.5l35 -37q-194 -132 -194 -250q0 -52 31.5 -80t78.5 -28q56 0 84 20v-61q-31 -19 -92 -19z" />
    <glyph glyph-name="Cacute" unicode="&#x106;" horiz-adv-x="1394" 
d="M186 745q0 -160 42.5 -293t117 -223t178 -140t224.5 -50q197 0 330 126t153 329h74q-8 -102 -43.5 -188.5t-89.5 -146t-123.5 -101.5t-145.5 -61.5t-155 -19.5q-187 0 -330.5 96t-222 270.5t-78.5 401.5q0 343 168.5 549.5t445.5 206.5q111 0 208 -30.5t175.5 -90
t125 -158t48.5 -225.5h-74q-5 203 -135 323t-348 120q-118 0 -218 -48.5t-172.5 -136.5t-113.5 -219.5t-41 -290.5zM756 1628h-66l195 227h98z" />
    <glyph glyph-name="cacute" unicode="&#x107;" horiz-adv-x="1071" 
d="M563 1022q-165 0 -277 -135.5t-112 -362.5q0 -226 107 -357.5t276 -131.5q146 0 247 93.5t109 225.5h66q-5 -104 -65 -191.5t-155 -136.5t-202 -49q-197 0 -325 145.5t-128 401.5q0 107 26.5 199t72 156.5t104.5 110t124 67.5t132 22q112 0 204.5 -42t151.5 -127t64 -199
h-65q-8 130 -108 220.5t-247 90.5zM584 1237h-62l183 250h94z" />
    <glyph glyph-name="Ccircumflex" unicode="&#x108;" horiz-adv-x="1394" 
d="M186 745q0 -160 42.5 -293t117 -223t178 -140t224.5 -50q197 0 330 126t153 329h74q-8 -102 -43.5 -188.5t-89.5 -146t-123.5 -101.5t-145.5 -61.5t-155 -19.5q-187 0 -330.5 96t-222 270.5t-78.5 401.5q0 343 168.5 549.5t445.5 206.5q111 0 208 -30.5t175.5 -90
t125 -158t48.5 -225.5h-74q-5 203 -135 323t-348 120q-118 0 -218 -48.5t-172.5 -136.5t-113.5 -219.5t-41 -290.5zM729 1810l-166 -182h-69l194 227h84l195 -227h-72z" />
    <glyph glyph-name="ccircumflex" unicode="&#x109;" horiz-adv-x="1071" 
d="M563 1022q-165 0 -277 -135.5t-112 -362.5q0 -226 107 -357.5t276 -131.5q146 0 247 93.5t109 225.5h66q-5 -104 -65 -191.5t-155 -136.5t-202 -49q-197 0 -325 145.5t-128 401.5q0 107 26.5 199t72 156.5t104.5 110t124 67.5t132 22q112 0 204.5 -42t151.5 -127t64 -199
h-65q-8 130 -108 220.5t-247 90.5zM563 1438l-168 -201h-67l196 250h80l197 -250h-70z" />
    <glyph glyph-name="Cdotaccent" unicode="&#x10a;" horiz-adv-x="1394" 
d="M186 745q0 -160 42.5 -293t117 -223t178 -140t224.5 -50q197 0 330 126t153 329h74q-8 -102 -43.5 -188.5t-89.5 -146t-123.5 -101.5t-145.5 -61.5t-155 -19.5q-187 0 -330.5 96t-222 270.5t-78.5 401.5q0 343 168.5 549.5t445.5 206.5q111 0 208 -30.5t175.5 -90
t125 -158t48.5 -225.5h-74q-5 203 -135 323t-348 120q-118 0 -218 -48.5t-172.5 -136.5t-113.5 -219.5t-41 -290.5zM770 1681h-82v148h82v-148z" />
    <glyph glyph-name="cdotaccent" unicode="&#x10b;" horiz-adv-x="1071" 
d="M563 1022q-165 0 -277 -135.5t-112 -362.5q0 -226 107 -357.5t276 -131.5q146 0 247 93.5t109 225.5h66q-5 -104 -65 -191.5t-155 -136.5t-202 -49q-197 0 -325 145.5t-128 401.5q0 107 26.5 199t72 156.5t104.5 110t124 67.5t132 22q112 0 204.5 -42t151.5 -127t64 -199
h-65q-8 130 -108 220.5t-247 90.5zM604 1327h-82v148h82v-148z" />
    <glyph glyph-name="Ccaron" unicode="&#x10c;" horiz-adv-x="1394" 
d="M186 745q0 -160 42.5 -293t117 -223t178 -140t224.5 -50q197 0 330 126t153 329h74q-8 -102 -43.5 -188.5t-89.5 -146t-123.5 -101.5t-145.5 -61.5t-155 -19.5q-187 0 -330.5 96t-222 270.5t-78.5 401.5q0 343 168.5 549.5t445.5 206.5q111 0 208 -30.5t175.5 -90
t125 -158t48.5 -225.5h-74q-5 203 -135 323t-348 120q-118 0 -218 -48.5t-172.5 -136.5t-113.5 -219.5t-41 -290.5zM731 1673l166 182h70l-195 -227h-84l-194 227h71z" />
    <glyph glyph-name="ccaron" unicode="&#x10d;" horiz-adv-x="1071" 
d="M563 1022q-165 0 -277 -135.5t-112 -362.5q0 -226 107 -357.5t276 -131.5q146 0 247 93.5t109 225.5h66q-5 -104 -65 -191.5t-155 -136.5t-202 -49q-197 0 -325 145.5t-128 401.5q0 107 26.5 199t72 156.5t104.5 110t124 67.5t132 22q112 0 204.5 -42t151.5 -127t64 -199
h-65q-8 130 -108 220.5t-247 90.5zM565 1284l168 203h68l-197 -250h-80l-196 250h69z" />
    <glyph glyph-name="Dcaron" unicode="&#x10e;" horiz-adv-x="1468" 
d="M549 1487q218 0 374.5 -51.5t249.5 -151t136 -232.5t43 -307q0 -137 -24 -247.5t-80.5 -205t-145.5 -158t-223 -99t-308 -35.5h-366v1487h344zM270 66h303q356 0 532.5 164t176.5 515t-182.5 513.5t-550.5 162.5h-279v-1355zM676 1673l166 182h69l-194 -227h-84l-195 227
h72z" />
    <glyph glyph-name="dcaron" unicode="&#x10f;" horiz-adv-x="1198" 
d="M1241 1475l-43 -285h-49l25 297h67v-12zM926 246q-69 -128 -161.5 -198.5t-223.5 -70.5q-199 0 -317 146t-118 401q0 135 40 244t105.5 175t144 101t161.5 35q135 0 229 -63t140 -172v643h65v-1487h-65v246zM176 524q0 -221 100.5 -355t264.5 -134q157 0 267.5 129
t117.5 338v22q0 226 -93.5 362t-275.5 136q-165 0 -273 -141t-108 -357z" />
    <glyph glyph-name="Dcroat" unicode="&#x110;" horiz-adv-x="1492" 
d="M573 1487q218 0 374.5 -51.5t249.5 -151t136 -232.5t43 -307q0 -137 -24 -247.5t-80.5 -205t-145 -158t-222.5 -99t-308 -35.5h-367v741h-204v62h204v684h344zM598 66q356 0 532.5 164t176.5 515t-182.5 513.5t-551.5 162.5h-278v-618h323v-62h-323v-675h303z" />
    <glyph glyph-name="dslash" unicode="&#x111;" horiz-adv-x="1165" 
d="M541 -23q-199 0 -317 146t-118 401q0 135 40 244t105.5 175t144 101t161.5 35q135 0 229 -63t140 -172v418h-250v57h250v168h65v-168h164v-57h-164v-1262h-65v246q-69 -128 -161.5 -198.5t-223.5 -70.5zM541 35q101 0 189 59t142 167.5t54 240.5v43q-5 220 -98 348.5
t-271 128.5q-165 0 -273 -141t-108 -357q0 -221 100.5 -355t264.5 -134z" />
    <glyph glyph-name="Emacron" unicode="&#x112;" horiz-adv-x="1185" 
d="M1073 1487v-62h-803v-622h762v-62h-762v-680h828v-61h-893v1487h868zM895 1716h-475v60h475v-60z" />
    <glyph glyph-name="emacron" unicode="&#x113;" horiz-adv-x="1075" 
d="M176 524q0 -228 102 -358.5t271 -130.5q127 0 223 75t121 187h65q-32 -146 -145 -233t-264 -87q-196 0 -319.5 145t-123.5 402q0 136 38 244.5t101 174.5t141 101t163 35q110 0 192.5 -40.5t133 -115t75.5 -174.5t25 -225h-799zM549 1022q-155 0 -256.5 -116.5
t-114.5 -323.5h723q-8 214 -96 327t-256 113zM791 1362h-480v59h480v-59z" />
    <glyph glyph-name="Ebreve" unicode="&#x114;" horiz-adv-x="1185" 
d="M1073 1487v-62h-803v-622h762v-62h-762v-680h828v-61h-893v1487h868zM657 1626q-104 0 -163.5 62.5t-59.5 166.5h60q0 -80 43 -128t120 -48t120.5 48.5t43.5 127.5h60q0 -104 -60.5 -166.5t-163.5 -62.5z" />
    <glyph glyph-name="ebreve" unicode="&#x115;" horiz-adv-x="1075" 
d="M176 524q0 -228 102 -358.5t271 -130.5q127 0 223 75t121 187h65q-32 -146 -145 -233t-264 -87q-196 0 -319.5 145t-123.5 402q0 136 38 244.5t101 174.5t141 101t163 35q110 0 192.5 -40.5t133 -115t75.5 -174.5t25 -225h-799zM549 1022q-155 0 -256.5 -116.5
t-114.5 -323.5h723q-8 214 -96 327t-256 113zM555 1237q-105 0 -166 66t-61 184h59q0 -95 44.5 -146t123.5 -51q77 0 122.5 51t45.5 146h59q0 -117 -61.5 -183.5t-165.5 -66.5z" />
    <glyph glyph-name="Edotaccent" unicode="&#x116;" horiz-adv-x="1185" 
d="M1073 1487v-62h-803v-622h762v-62h-762v-680h828v-61h-893v1487h868zM698 1681h-82v148h82v-148z" />
    <glyph glyph-name="edotaccent" unicode="&#x117;" horiz-adv-x="1075" 
d="M176 524q0 -228 102 -358.5t271 -130.5q127 0 223 75t121 187h65q-32 -146 -145 -233t-264 -87q-196 0 -319.5 145t-123.5 402q0 136 38 244.5t101 174.5t141 101t163 35q110 0 192.5 -40.5t133 -115t75.5 -174.5t25 -225h-799zM549 1022q-155 0 -256.5 -116.5
t-114.5 -323.5h723q-8 214 -96 327t-256 113zM592 1327h-82v148h82v-148z" />
    <glyph glyph-name="Eogonek" unicode="&#x118;" horiz-adv-x="1185" 
d="M1073 1487v-62h-803v-622h762v-62h-762v-680h828v-61h-893v1487h868zM1006 -418q-76 0 -122 47t-46 115t52.5 137.5t172.5 155.5l35 -37q-195 -133 -195 -250q0 -52 32 -80t79 -28q56 0 84 20v-61q-31 -19 -92 -19z" />
    <glyph glyph-name="eogonek" unicode="&#x119;" horiz-adv-x="1075" 
d="M549 35q127 0 223 75t121 187h65q-34 -147 -149 -236q-119 -94 -173 -164.5t-54 -140.5q0 -54 31.5 -84t78.5 -30q56 0 84 20v-61q-31 -19 -88 -19q-78 0 -125 47.5t-47 120.5q0 113 139 240q-57 -13 -106 -13q-196 0 -319.5 145t-123.5 402q0 136 38 244.5t101 174.5
t141 101t163 35q110 0 192.5 -40.5t133 -115t75.5 -174.5t25 -225h-799q0 -228 102 -358.5t271 -130.5zM549 1022q-155 0 -256.5 -116.5t-114.5 -323.5h723q-8 214 -96 327t-256 113z" />
    <glyph glyph-name="Ecaron" unicode="&#x11a;" horiz-adv-x="1185" 
d="M1073 1487v-62h-803v-622h762v-62h-762v-680h828v-61h-893v1487h868zM659 1673l166 182h70l-195 -227h-84l-194 227h72z" />
    <glyph glyph-name="ecaron" unicode="&#x11b;" horiz-adv-x="1075" 
d="M176 524q0 -228 102 -358.5t271 -130.5q127 0 223 75t121 187h65q-32 -146 -145 -233t-264 -87q-196 0 -319.5 145t-123.5 402q0 136 38 244.5t101 174.5t141 101t163 35q110 0 192.5 -40.5t133 -115t75.5 -174.5t25 -225h-799zM549 1022q-155 0 -256.5 -116.5
t-114.5 -323.5h723q-8 214 -96 327t-256 113zM553 1284l168 203h67l-196 -250h-80l-197 250h70z" />
    <glyph glyph-name="Gcircumflex" unicode="&#x11c;" horiz-adv-x="1427" 
d="M1231 0q-8 100 -8 270h-9q-74 -149 -193 -221t-298 -72q-275 0 -440.5 208t-165.5 552q0 352 166.5 560t455.5 208q214 0 359.5 -108.5t181.5 -317.5h-74q-36 179 -162 272t-305 93q-111 0 -202.5 -35t-156 -98t-108.5 -152t-65 -194.5t-21 -227.5q0 -203 67.5 -362
t190 -247.5t279.5 -88.5q500 0 500 616v66h-484v57h549v-778h-57zM743 1810l-165 -182h-70l194 227h84l195 -227h-72z" />
    <glyph glyph-name="gcircumflex" unicode="&#x11d;" horiz-adv-x="1148" 
d="M109 541q0 130 39 235.5t103 170t141.5 98.5t158.5 34q131 0 223.5 -63.5t136.5 -171.5v213h66v-922q0 -98 -10.5 -175.5t-39.5 -150.5t-76.5 -121t-125.5 -77t-182 -29q-93 0 -169 29t-124 77.5t-74 109.5t-26 128h65q0 -116 92 -201t236 -85q72 0 129 16.5t95 42.5
t65.5 67t42.5 80.5t23.5 94t10.5 96.5t2 98v152q-66 -125 -157 -193.5t-219 -68.5q-197 0 -311.5 136t-114.5 380zM178 541q0 -212 97.5 -335.5t259.5 -123.5q159 0 267.5 125.5t108.5 333.5v20q-5 212 -96 336.5t-264 124.5q-162 0 -267.5 -135t-105.5 -346zM557 1438
l-168 -201h-67l196 250h80l197 -250h-70z" />
    <glyph glyph-name="Gbreve" unicode="&#x11e;" horiz-adv-x="1427" 
d="M1231 0q-8 100 -8 270h-9q-74 -149 -193 -221t-298 -72q-275 0 -440.5 208t-165.5 552q0 352 166.5 560t455.5 208q214 0 359.5 -108.5t181.5 -317.5h-74q-36 179 -162 272t-305 93q-111 0 -202.5 -35t-156 -98t-108.5 -152t-65 -194.5t-21 -227.5q0 -203 67.5 -362
t190 -247.5t279.5 -88.5q500 0 500 616v66h-484v57h549v-778h-57zM743 1626q-104 0 -163.5 62.5t-59.5 166.5h60q0 -80 43 -128t120 -48t120.5 48.5t43.5 127.5h60q0 -104 -60.5 -166.5t-163.5 -62.5z" />
    <glyph glyph-name="gbreve" unicode="&#x11f;" horiz-adv-x="1148" 
d="M109 541q0 130 39 235.5t103 170t141.5 98.5t158.5 34q131 0 223.5 -63.5t136.5 -171.5v213h66v-922q0 -98 -10.5 -175.5t-39.5 -150.5t-76.5 -121t-125.5 -77t-182 -29q-93 0 -169 29t-124 77.5t-74 109.5t-26 128h65q0 -116 92 -201t236 -85q72 0 129 16.5t95 42.5
t65.5 67t42.5 80.5t23.5 94t10.5 96.5t2 98v152q-66 -125 -157 -193.5t-219 -68.5q-197 0 -311.5 136t-114.5 380zM178 541q0 -212 97.5 -335.5t259.5 -123.5q159 0 267.5 125.5t108.5 333.5v20q-5 212 -96 336.5t-264 124.5q-162 0 -267.5 -135t-105.5 -346zM561 1237
q-105 0 -166 66t-61 184h59q0 -95 44.5 -146t123.5 -51q77 0 122.5 51t45.5 146h59q0 -117 -61.5 -183.5t-165.5 -66.5z" />
    <glyph glyph-name="Gdotaccent" unicode="&#x120;" horiz-adv-x="1427" 
d="M1231 0q-8 100 -8 270h-9q-74 -149 -193 -221t-298 -72q-275 0 -440.5 208t-165.5 552q0 352 166.5 560t455.5 208q214 0 359.5 -108.5t181.5 -317.5h-74q-36 179 -162 272t-305 93q-111 0 -202.5 -35t-156 -98t-108.5 -152t-65 -194.5t-21 -227.5q0 -203 67.5 -362
t190 -247.5t279.5 -88.5q500 0 500 616v66h-484v57h549v-778h-57zM784 1681h-82v148h82v-148z" />
    <glyph glyph-name="gdotaccent" unicode="&#x121;" horiz-adv-x="1148" 
d="M109 541q0 130 39 235.5t103 170t141.5 98.5t158.5 34q131 0 223.5 -63.5t136.5 -171.5v213h66v-922q0 -98 -10.5 -175.5t-39.5 -150.5t-76.5 -121t-125.5 -77t-182 -29q-93 0 -169 29t-124 77.5t-74 109.5t-26 128h65q0 -116 92 -201t236 -85q72 0 129 16.5t95 42.5
t65.5 67t42.5 80.5t23.5 94t10.5 96.5t2 98v152q-66 -125 -157 -193.5t-219 -68.5q-197 0 -311.5 136t-114.5 380zM178 541q0 -212 97.5 -335.5t259.5 -123.5q159 0 267.5 125.5t108.5 333.5v20q-5 212 -96 336.5t-264 124.5q-162 0 -267.5 -135t-105.5 -346zM598 1327h-82
v148h82v-148z" />
    <glyph glyph-name="uni0122" unicode="&#x122;" horiz-adv-x="1427" 
d="M1231 0q-8 100 -8 270h-9q-74 -149 -193 -221t-298 -72q-275 0 -440.5 208t-165.5 552q0 352 166.5 560t455.5 208q214 0 359.5 -108.5t181.5 -317.5h-74q-36 179 -162 272t-305 93q-111 0 -202.5 -35t-156 -98t-108.5 -152t-65 -194.5t-21 -227.5q0 -203 67.5 -362
t190 -247.5t279.5 -88.5q500 0 500 616v66h-484v57h549v-778h-57zM721 -283h-35v127h84v-123l-53 -188h-43z" />
    <glyph glyph-name="uni0123" unicode="&#x123;" horiz-adv-x="1148" 
d="M109 541q0 130 39 235.5t103 170t141.5 98.5t158.5 34q131 0 223.5 -63.5t136.5 -171.5v213h66v-922q0 -98 -10.5 -175.5t-39.5 -150.5t-76.5 -121t-125.5 -77t-182 -29q-93 0 -169 29t-124 77.5t-74 109.5t-26 128h65q0 -116 92 -201t236 -85q72 0 129 16.5t95 42.5
t65.5 67t42.5 80.5t23.5 94t10.5 96.5t2 98v152q-66 -125 -157 -193.5t-219 -68.5q-197 0 -311.5 136t-114.5 380zM178 541q0 -212 97.5 -335.5t259.5 -123.5q159 0 267.5 125.5t108.5 333.5v20q-5 212 -96 336.5t-264 124.5q-162 0 -267.5 -135t-105.5 -346zM604 1262h-84
v122l53 189h43l-47 -184h35v-127z" />
    <glyph glyph-name="Hcircumflex" unicode="&#x124;" horiz-adv-x="1441" 
d="M270 733v-733h-65v1487h65v-692h901v692h66v-1487h-66v733h-901zM721 1810l-166 -182h-70l195 227h84l194 -227h-71z" />
    <glyph glyph-name="hcircumflex" unicode="&#x125;" horiz-adv-x="1122" 
d="M240 1487v-627q105 219 358 219q195 0 279 -106.5t84 -308.5v-664h-66v655q0 194 -73.5 279.5t-229.5 85.5q-45 0 -86.5 -8.5t-90.5 -35.5t-85 -70.5t-61.5 -120t-28.5 -177.5v-608h-66v1487h66zM424 1628h-68l-147 182l-150 -182h-61l172 227h80z" />
    <glyph glyph-name="Hbar" unicode="&#x126;" horiz-adv-x="1474" 
d="M49 1231h172v256h66v-256h901v256h65v-256h172v-62h-172v-1169h-65v733h-901v-733h-66v1169h-172v62zM287 1169v-374h901v374h-901z" />
    <glyph glyph-name="hbar" unicode="&#x127;" horiz-adv-x="1122" 
d="M10 1319h164v168h66v-168h249v-57h-249v-402q105 219 358 219q195 0 279 -106.5t84 -308.5v-664h-66v655q0 194 -73.5 279.5t-229.5 85.5q-45 0 -86.5 -8.5t-90.5 -35.5t-85 -70.5t-61.5 -120t-28.5 -177.5v-608h-66v1262h-164v57z" />
    <glyph glyph-name="Itilde" unicode="&#x128;" horiz-adv-x="475" 
d="M270 1487v-1487h-65v1487h65zM354 1665q-34 0 -69 16.5t-59 37t-53 37t-52 16.5q-33 0 -56 -24.5t-40 -82.5h-60q28 168 156 168q35 0 71 -16.5t60 -37t52 -37t50 -16.5q34 0 57 24.5t40 82.5h59q-28 -168 -156 -168z" />
    <glyph glyph-name="itilde" unicode="&#x129;" horiz-adv-x="413" 
d="M240 1057v-1057h-66v1057h66zM311 1282q-36 0 -75.5 27t-74.5 54.5t-59 27.5q-62 0 -84 -109h-53q21 168 137 168q29 0 61.5 -17t55.5 -37.5t49 -37.5t43 -17q62 0 84 109h54q-21 -168 -138 -168z" />
    <glyph glyph-name="Imacron" unicode="&#x12a;" horiz-adv-x="475" 
d="M270 1487v-1487h-65v1487h65zM475 1716h-475v60h475v-60z" />
    <glyph glyph-name="imacron" unicode="&#x12b;" horiz-adv-x="413" 
d="M240 1057v-1057h-66v1057h66zM403 1362h-393v59h393v-59z" />
    <glyph glyph-name="Ibreve" unicode="&#x12c;" horiz-adv-x="475" 
d="M270 1487v-1487h-65v1487h65zM238 1626q-105 0 -164.5 62.5t-59.5 166.5h60q0 -79 43.5 -127.5t120.5 -48.5t120 48t43 128h60q0 -104 -60 -166.5t-163 -62.5z" />
    <glyph glyph-name="ibreve" unicode="&#x12d;" horiz-adv-x="413" 
d="M240 1057v-1057h-66v1057h66zM207 1237q-93 0 -149 67t-56 183h57q0 -93 39.5 -145t108.5 -52q72 0 109.5 51.5t37.5 145.5h60q0 -116 -57 -183t-150 -67z" />
    <glyph glyph-name="Iogonek" unicode="&#x12e;" horiz-adv-x="475" 
d="M211 -358q56 0 84 20v-61q-31 -19 -92 -19q-76 0 -122 47t-46 115q0 127 170 268v1475h65v-1487q-170 -124 -170 -250q0 -52 32 -80t79 -28z" />
    <glyph glyph-name="iogonek" unicode="&#x12f;" horiz-adv-x="413" 
d="M248 1327h-82v148h82v-148zM180 -358q56 0 84 20v-61q-31 -19 -92 -19q-76 0 -122 47t-46 115q0 127 170 268v1045h66v-1057q-170 -124 -170 -250q0 -52 31.5 -80t78.5 -28z" />
    <glyph glyph-name="Idot" unicode="&#x130;" horiz-adv-x="475" 
d="M270 1487v-1487h-65v1487h65zM279 1681h-82v148h82v-148z" />
    <glyph glyph-name="dotlessi" unicode="&#x131;" horiz-adv-x="413" 
d="M240 1057v-1057h-66v1057h66z" />
    <glyph glyph-name="IJ" unicode="&#x132;" horiz-adv-x="1101" 
d="M270 1487v-1487h-65v1487h65zM516 57q47 -8 98 -8q82 0 130 30.5t74 110t26 220.5v1077h65v-1077q0 -103 -12 -173.5t-44 -129t-93 -87t-154 -28.5q-49 0 -90 8v57z" />
    <glyph glyph-name="ij" unicode="&#x133;" horiz-adv-x="823" 
d="M240 1057v-1057h-66v1057h66zM248 1475v-148h-82v148h82zM649 1057v-1106q0 -38 -0.5 -59.5t-2.5 -57.5t-6 -58t-12 -52t-19 -48t-28.5 -38.5t-40 -31.5t-53 -18.5t-67.5 -7.5q-34 0 -74 6v62q31 -8 66 -8q40 0 70 11.5t48.5 35.5t30 49t16 66t6 71t1.5 78v1106h65z
M657 1475v-148h-82v148h82z" />
    <glyph glyph-name="Jcircumflex" unicode="&#x134;" horiz-adv-x="614" 
d="M29 57q47 -8 98 -8q82 0 130 30.5t73.5 110t25.5 220.5v1077h66v-1077q0 -103 -12 -173.5t-44 -129t-93 -87t-154 -28.5q-49 0 -90 8v57zM383 1810l-166 -182h-70l195 227h84l195 -227h-72z" />
    <glyph glyph-name="jcircumflex" unicode="&#x135;" horiz-adv-x="413" 
d="M418 1237h-66l-147 201l-148 -201h-61l172 250h78zM240 1057v-1106q0 -37 -0.5 -59.5t-2.5 -58t-6 -57.5t-12 -51.5t-19.5 -48t-29 -39t-40 -31.5t-53 -18.5t-67.5 -7.5q-32 0 -73 6v62q31 -8 65 -8q40 0 70 11.5t48.5 35.5t30 49t16 66t6 71t1.5 78v1106h66z" />
    <glyph glyph-name="uni0136" unicode="&#x136;" horiz-adv-x="1120" 
d="M270 1487v-672l693 672h90l-709 -688l782 -799h-90l-766 782v-782h-65v1487h65zM596 -283h-35v127h84v-123l-53 -188h-43z" />
    <glyph glyph-name="uni0137" unicode="&#x137;" horiz-adv-x="915" 
d="M240 1487v-891l518 461h94l-530 -465l593 -592h-94l-581 580v-580h-66v1487h66zM446 -156h84v-123l-53 -188h-43l47 184h-35v127z" />
    <glyph glyph-name="kgreenlandic" unicode="&#x138;" horiz-adv-x="915" 
d="M240 1057v-461l518 461h94l-530 -465l593 -592h-94l-581 580v-580h-66v1057h66z" />
    <glyph glyph-name="Lacute" unicode="&#x139;" horiz-adv-x="1105" 
d="M270 1487v-1426h811v-61h-876v1487h65zM264 1628h-65l194 227h99z" />
    <glyph glyph-name="lacute" unicode="&#x13a;" horiz-adv-x="413" 
d="M240 1487v-1487h-66v1487h66zM233 1628h-65l194 227h99z" />
    <glyph glyph-name="uni013B" unicode="&#x13b;" horiz-adv-x="1105" 
d="M270 1487v-1426h811v-61h-876v1487h65zM631 -283h-35v127h84v-123l-53 -188h-43z" />
    <glyph glyph-name="uni013C" unicode="&#x13c;" horiz-adv-x="413" 
d="M240 1487v-1487h-66v1487h66zM166 -156h84v-123l-53 -188h-43l47 184h-35v127z" />
    <glyph glyph-name="Lcaron" unicode="&#x13d;" horiz-adv-x="1105" 
d="M774 1475l-43 -285h-49l25 297h67v-12zM270 1487v-1426h811v-61h-876v1487h65z" />
    <glyph glyph-name="lcaron" unicode="&#x13e;" horiz-adv-x="446" 
d="M492 1475l-43 -285h-50l25 297h68v-12zM240 1487v-1487h-66v1487h66z" />
    <glyph glyph-name="Ldot" unicode="&#x13f;" horiz-adv-x="1107" 
d="M270 61h811v-61h-876v1487h65v-1426zM827 735h-82v148h82v-148z" />
    <glyph glyph-name="ldot" unicode="&#x140;" horiz-adv-x="479" 
d="M240 0h-66v1487h66v-1487zM487 735h-81v148h81v-148z" />
    <glyph glyph-name="Lslash" unicode="&#x141;" horiz-adv-x="1171" 
d="M760 985l-424 -291v-633h811v-61h-877v649l-194 -135v68l194 135v770h66v-725l424 295v-72z" />
    <glyph glyph-name="lslash" unicode="&#x142;" horiz-adv-x="514" 
d="M469 987l-172 -158v-829h-66v764l-172 -160v74l172 160v649h66v-586l172 162v-76z" />
    <glyph glyph-name="Nacute" unicode="&#x143;" horiz-adv-x="1441" 
d="M270 1384v-1384h-65v1487h98l860 -1385h8v1385h66v-1487h-98l-860 1384h-9zM748 1628h-66l195 227h98z" />
    <glyph glyph-name="nacute" unicode="&#x144;" horiz-adv-x="1122" 
d="M240 1057v-197q105 219 358 219q195 0 279 -106.5t84 -308.5v-664h-66v655q0 194 -73.5 279.5t-229.5 85.5q-45 0 -86.5 -8.5t-90.5 -35.5t-85 -70.5t-61.5 -120t-28.5 -177.5v-608h-66v1057h66zM573 1237h-61l182 250h94z" />
    <glyph glyph-name="uni0145" unicode="&#x145;" horiz-adv-x="1441" 
d="M270 1384v-1384h-65v1487h98l860 -1385h8v1385h66v-1487h-98l-860 1384h-9zM715 -283h-35v127h84v-123l-53 -188h-43z" />
    <glyph glyph-name="uni0146" unicode="&#x146;" horiz-adv-x="1122" 
d="M240 1057v-197q105 219 358 219q195 0 279 -106.5t84 -308.5v-664h-66v655q0 194 -73.5 279.5t-229.5 85.5q-45 0 -86.5 -8.5t-90.5 -35.5t-85 -70.5t-61.5 -120t-28.5 -177.5v-608h-66v1057h66zM522 -156h84v-123l-53 -188h-43l47 184h-35v127z" />
    <glyph glyph-name="Ncaron" unicode="&#x147;" horiz-adv-x="1441" 
d="M270 1384v-1384h-65v1487h98l860 -1385h8v1385h66v-1487h-98l-860 1384h-9zM723 1673l166 182h69l-194 -227h-84l-195 227h72z" />
    <glyph glyph-name="ncaron" unicode="&#x148;" horiz-adv-x="1122" 
d="M240 1057v-197q105 219 358 219q195 0 279 -106.5t84 -308.5v-664h-66v655q0 194 -73.5 279.5t-229.5 85.5q-45 0 -86.5 -8.5t-90.5 -35.5t-85 -70.5t-61.5 -120t-28.5 -177.5v-608h-66v1057h66zM555 1284l168 203h68l-197 -250h-80l-197 250h70z" />
    <glyph glyph-name="napostrophe" unicode="&#x149;" horiz-adv-x="1234" 
d="M352 1057v-197q105 219 359 219q195 0 278.5 -106.5t83.5 -308.5v-664h-65v655q0 194 -73.5 279.5t-229.5 85.5q-45 0 -86.5 -8.5t-90.5 -35.5t-85.5 -70.5t-62 -120t-28.5 -177.5v-608h-65v1057h65zM127 1372h-55v115h106v-123l-65 -188h-47z" />
    <glyph glyph-name="Eng" unicode="&#x14a;" horiz-adv-x="1441" 
d="M934 -420q-49 0 -90 8v58q47 -8 98 -8q81 0 129.5 31.5t74 111.5t25.5 219l-892 1384h-9v-1384h-65v1487h92l866 -1342h8v1342h66v-1483q0 -82 -7 -142.5t-26.5 -116t-53 -90t-87.5 -55t-129 -20.5z" />
    <glyph glyph-name="eng" unicode="&#x14b;" horiz-adv-x="1122" 
d="M895 655q0 194 -73.5 279.5t-229.5 85.5q-45 0 -87.5 -9t-92.5 -37.5t-86.5 -74t-61 -127.5t-24.5 -190v-582h-66v1057h66v-197q105 219 358 219q195 0 279 -106.5t84 -308.5v-713q0 -37 -0.5 -59.5t-2.5 -58t-6 -57.5t-12 -51.5t-19.5 -48t-29 -39t-40 -31.5t-53 -18.5
t-67.5 -7.5q-33 0 -74 6v62q31 -8 66 -8q40 0 70 11.5t48.5 35.5t30 49t16 66t6 71t1.5 78v704z" />
    <glyph glyph-name="Omacron" unicode="&#x14c;" horiz-adv-x="1507" 
d="M754 39q251 0 410 190t159 516q0 163 -43 295.5t-118.5 220.5t-180 135.5t-227.5 47.5t-227.5 -47.5t-180.5 -135.5t-119 -220.5t-43 -295.5q0 -326 159 -516t411 -190zM754 -23q-284 0 -461.5 210.5t-177.5 557.5q0 230 81.5 403t226 265t331.5 92t331.5 -92t226 -265
t81.5 -403q0 -347 -177.5 -557.5t-461.5 -210.5zM991 1716h-475v60h475v-60z" />
    <glyph glyph-name="omacron" unicode="&#x14d;" horiz-adv-x="1126" 
d="M563 35q180 0 284.5 136t104.5 361q0 224 -104.5 357t-284.5 133t-284.5 -136.5t-104.5 -361.5q0 -224 104.5 -356.5t284.5 -132.5zM563 -23q-205 0 -332 149t-127 398q0 250 127.5 402.5t331.5 152.5q205 0 332 -149t127 -398q0 -250 -127.5 -402.5t-331.5 -152.5z
M803 1362h-479v59h479v-59z" />
    <glyph glyph-name="Obreve" unicode="&#x14e;" horiz-adv-x="1507" 
d="M754 39q251 0 410 190t159 516q0 163 -43 295.5t-118.5 220.5t-180 135.5t-227.5 47.5t-227.5 -47.5t-180.5 -135.5t-119 -220.5t-43 -295.5q0 -326 159 -516t411 -190zM754 -23q-284 0 -461.5 210.5t-177.5 557.5q0 230 81.5 403t226 265t331.5 92t331.5 -92t226 -265
t81.5 -403q0 -347 -177.5 -557.5t-461.5 -210.5zM754 1626q-105 0 -164.5 62.5t-59.5 166.5h60q0 -79 43.5 -127.5t120.5 -48.5t120.5 48.5t43.5 127.5h59q0 -104 -60 -166.5t-163 -62.5z" />
    <glyph glyph-name="obreve" unicode="&#x14f;" horiz-adv-x="1126" 
d="M563 35q180 0 284.5 136t104.5 361q0 224 -104.5 357t-284.5 133t-284.5 -136.5t-104.5 -361.5q0 -224 104.5 -356.5t284.5 -132.5zM563 -23q-205 0 -332 149t-127 398q0 250 127.5 402.5t331.5 152.5q205 0 332 -149t127 -398q0 -250 -127.5 -402.5t-331.5 -152.5z
M569 1237q-105 0 -166 66t-61 184h59q0 -95 44.5 -146t123.5 -51q77 0 122.5 51t45.5 146h60q0 -117 -62 -183.5t-166 -66.5z" />
    <glyph glyph-name="Ohungarumlaut" unicode="&#x150;" horiz-adv-x="1507" 
d="M754 39q251 0 410 190t159 516q0 163 -43 295.5t-118.5 220.5t-180 135.5t-227.5 47.5t-227.5 -47.5t-180.5 -135.5t-119 -220.5t-43 -295.5q0 -326 159 -516t411 -190zM754 -23q-284 0 -461.5 210.5t-177.5 557.5q0 230 81.5 403t226 265t331.5 92t331.5 -92t226 -265
t81.5 -403q0 -347 -177.5 -557.5t-461.5 -210.5zM952 1620h-63l192 231h95zM604 1620h-63l192 231h94z" />
    <glyph glyph-name="ohungarumlaut" unicode="&#x151;" horiz-adv-x="1126" 
d="M563 35q180 0 284.5 136t104.5 361q0 224 -104.5 357t-284.5 133t-284.5 -136.5t-104.5 -361.5q0 -224 104.5 -356.5t284.5 -132.5zM563 -23q-205 0 -332 149t-127 398q0 250 127.5 402.5t331.5 152.5q205 0 332 -149t127 -398q0 -250 -127.5 -402.5t-331.5 -152.5z
M762 1237h-62l177 250h94zM442 1237h-61l176 250h94z" />
    <glyph glyph-name="OE" unicode="&#x152;" horiz-adv-x="1972" 
d="M795 0q-148 0 -273 51.5t-215 145.5t-141 235t-51 313t50.5 312.5t141 234t215.5 144.5t273 51h1065v-62h-721v-622h680v-62h-680v-680h745v-61h-1089zM795 1425q-132 0 -243.5 -44.5t-193.5 -129t-128 -214.5t-46 -292q0 -163 46 -293.5t128 -215.5t193.5 -130
t243.5 -45h278v1364h-278z" />
    <glyph glyph-name="oe" unicode="&#x153;" horiz-adv-x="1900" 
d="M563 -23q-205 0 -332 149t-127 398q0 250 127.5 402.5t331.5 152.5q153 0 263.5 -84t160.5 -237q52 159 157.5 240t239.5 81q106 0 185 -37.5t128 -108t74 -163.5t29 -211v-35h-780q0 -230 98.5 -359.5t265.5 -129.5q126 0 217.5 74.5t116.5 187.5h66
q-32 -147 -141 -233.5t-259 -86.5q-146 0 -249 81t-150 235q-52 -149 -161.5 -232.5t-260.5 -83.5zM563 35q180 0 285.5 133t105.5 356q0 236 -104.5 367t-286.5 131q-180 0 -284.5 -136.5t-104.5 -361.5q0 -224 104.5 -356.5t284.5 -132.5zM1726 582q-16 440 -342 440
q-154 0 -251.5 -116t-110.5 -324h704z" />
    <glyph glyph-name="Racute" unicode="&#x154;" horiz-adv-x="1247" 
d="M606 1487q256 0 374 -95.5t118 -293.5q0 -143 -89 -239t-231 -130v-8q82 -32 121 -78.5t76 -140.5l192 -502h-73l-183 475q-16 40 -26.5 63t-33 53t-52.5 52q-81 57 -205 57h-324v-700h-65v1487h401zM270 762h340q194 0 305 94t111 244q0 92 -31.5 157.5t-90.5 101
t-131.5 51t-166.5 15.5h-336v-663zM602 1628h-65l194 227h98z" />
    <glyph glyph-name="racute" unicode="&#x155;" horiz-adv-x="684" 
d="M240 1057v-205q43 106 129.5 158.5t201.5 52.5q43 0 86 -6v-64q-44 6 -82 6q-159 0 -247 -105.5t-88 -287.5v-606h-66v1057h66zM387 1237h-61l182 250h94z" />
    <glyph glyph-name="uni0156" unicode="&#x156;" horiz-adv-x="1247" 
d="M606 1487q256 0 374 -95.5t118 -293.5q0 -143 -89 -239t-231 -130v-8q82 -32 121 -78.5t76 -140.5l192 -502h-73l-183 475q-16 40 -26.5 63t-33 53t-52.5 52q-81 57 -205 57h-324v-700h-65v1487h401zM270 762h340q194 0 305 94t111 244q0 92 -31.5 157.5t-90.5 101
t-131.5 51t-166.5 15.5h-336v-663zM635 -283h-35v127h84v-123l-53 -188h-43z" />
    <glyph glyph-name="uni0157" unicode="&#x157;" horiz-adv-x="684" 
d="M240 1057v-205q43 106 129.5 158.5t201.5 52.5q43 0 86 -6v-64q-44 6 -82 6q-159 0 -247 -105.5t-88 -287.5v-606h-66v1057h66zM166 -156h84v-123l-53 -188h-43l47 184h-35v127z" />
    <glyph glyph-name="Rcaron" unicode="&#x158;" horiz-adv-x="1247" 
d="M606 1487q256 0 374 -95.5t118 -293.5q0 -143 -89 -239t-231 -130v-8q82 -32 121 -78.5t76 -140.5l192 -502h-73l-183 475q-16 40 -26.5 63t-33 53t-52.5 52q-81 57 -205 57h-324v-700h-65v1487h401zM270 762h340q194 0 305 94t111 244q0 92 -31.5 157.5t-90.5 101
t-131.5 51t-166.5 15.5h-336v-663zM578 1673l165 182h70l-195 -227h-83l-195 227h72z" />
    <glyph glyph-name="rcaron" unicode="&#x159;" horiz-adv-x="684" 
d="M240 1057v-205q43 106 129.5 158.5t201.5 52.5q43 0 86 -6v-64q-44 6 -82 6q-159 0 -247 -105.5t-88 -287.5v-606h-66v1057h66zM369 1284l168 203h67l-196 -250h-80l-197 250h70z" />
    <glyph glyph-name="Sacute" unicode="&#x15a;" horiz-adv-x="1171" 
d="M537 756q-52 15 -88 26.5t-81.5 30.5t-76 38.5t-62.5 48.5t-51 62.5t-31 78.5t-12 98q0 159 118.5 262.5t326.5 103.5q235 0 343 -110t113 -340h-65q-2 99 -23.5 170t-67 122t-120 76t-180.5 25q-178 0 -278.5 -88t-100.5 -221q0 -60 20.5 -109t50 -80t81.5 -59t93 -43
t107 -35l82 -25q78 -23 133.5 -44t115.5 -56.5t96.5 -78t60.5 -107t24 -144.5q0 -167 -132.5 -274t-342.5 -107q-231 0 -357.5 122.5t-130.5 361.5h66q10 -219 116.5 -322.5t305.5 -103.5q179 0 294 88.5t115 234.5q0 68 -21 122.5t-53 91.5t-85 68.5t-102.5 50.5t-119.5 40
zM606 1628h-65l194 227h99z" />
    <glyph glyph-name="sacute" unicode="&#x15b;" horiz-adv-x="991" 
d="M496 514q-80 14 -134.5 28.5t-103 37t-77 53t-44.5 74.5t-16 102q0 122 104 196t271 74q80 0 145.5 -17.5t119.5 -55t85 -104.5t33 -159h-66q-4 143 -87 211t-230 68q-141 0 -223.5 -57.5t-82.5 -155.5q0 -100 68 -147.5t238 -83.5q76 -14 130 -29t107.5 -40t85.5 -57
t52 -81.5t20 -112.5q0 -75 -33.5 -131.5t-91.5 -88t-125.5 -46.5t-144.5 -15q-188 0 -293.5 95.5t-110.5 263.5h66q2 -74 30.5 -133t75.5 -95t106 -54.5t126 -18.5q94 0 164 20.5t115.5 72t45.5 130.5q0 48 -15.5 85.5t-40.5 62.5t-69.5 46t-88.5 34t-111 28zM504 1237h-62
l183 250h94z" />
    <glyph glyph-name="Scircumflex" unicode="&#x15c;" horiz-adv-x="1171" 
d="M537 756q-52 15 -88 26.5t-81.5 30.5t-76 38.5t-62.5 48.5t-51 62.5t-31 78.5t-12 98q0 159 118.5 262.5t326.5 103.5q235 0 343 -110t113 -340h-65q-2 99 -23.5 170t-67 122t-120 76t-180.5 25q-178 0 -278.5 -88t-100.5 -221q0 -60 20.5 -109t50 -80t81.5 -59t93 -43
t107 -35l82 -25q78 -23 133.5 -44t115.5 -56.5t96.5 -78t60.5 -107t24 -144.5q0 -167 -132.5 -274t-342.5 -107q-231 0 -357.5 122.5t-130.5 361.5h66q10 -219 116.5 -322.5t305.5 -103.5q179 0 294 88.5t115 234.5q0 68 -21 122.5t-53 91.5t-85 68.5t-102.5 50.5t-119.5 40
zM580 1810l-166 -182h-70l195 227h84l194 -227h-72z" />
    <glyph glyph-name="scircumflex" unicode="&#x15d;" horiz-adv-x="991" 
d="M496 514q-80 14 -134.5 28.5t-103 37t-77 53t-44.5 74.5t-16 102q0 122 104 196t271 74q80 0 145.5 -17.5t119.5 -55t85 -104.5t33 -159h-66q-4 143 -87 211t-230 68q-141 0 -223.5 -57.5t-82.5 -155.5q0 -100 68 -147.5t238 -83.5q76 -14 130 -29t107.5 -40t85.5 -57
t52 -81.5t20 -112.5q0 -75 -33.5 -131.5t-91.5 -88t-125.5 -46.5t-144.5 -15q-188 0 -293.5 95.5t-110.5 263.5h66q2 -74 30.5 -133t75.5 -95t106 -54.5t126 -18.5q94 0 164 20.5t115.5 72t45.5 130.5q0 48 -15.5 85.5t-40.5 62.5t-69.5 46t-88.5 34t-111 28zM483 1438
l-168 -201h-67l196 250h80l197 -250h-70z" />
    <glyph glyph-name="Scedilla" unicode="&#x15e;" horiz-adv-x="1171" 
d="M537 756q-52 15 -88 26.5t-81.5 30.5t-76 38.5t-62.5 48.5t-51 62.5t-31 78.5t-12 98q0 159 118.5 262.5t326.5 103.5q235 0 343 -110t113 -340h-65q-2 99 -23.5 170t-67 122t-120 76t-180.5 25q-178 0 -278.5 -88t-100.5 -221q0 -60 20.5 -109t50 -80t81.5 -59t93 -43
t107 -35l82 -25q78 -23 133.5 -44t115.5 -56.5t96.5 -78t60.5 -107t24 -144.5q0 -167 -132.5 -274t-342.5 -107q-231 0 -357.5 122.5t-130.5 361.5h66q10 -219 116.5 -322.5t305.5 -103.5q179 0 294 88.5t115 234.5q0 68 -21 122.5t-53 91.5t-85 68.5t-102.5 50.5t-119.5 40
zM608 -68q66 -2 110 -49t44 -119q0 -78 -54.5 -130t-138.5 -52q-27 0 -57 6v56q24 -6 51 -6q61 0 97 34.5t36 89.5q0 62 -34 90.5t-87 28.5q-22 0 -32 -2v137h65v-84z" />
    <glyph glyph-name="scedilla" unicode="&#x15f;" horiz-adv-x="991" 
d="M496 514q-80 14 -134.5 28.5t-103 37t-77 53t-44.5 74.5t-16 102q0 122 104 196t271 74q80 0 145.5 -17.5t119.5 -55t85 -104.5t33 -159h-66q-4 143 -87 211t-230 68q-141 0 -223.5 -57.5t-82.5 -155.5q0 -100 68 -147.5t238 -83.5q76 -14 130 -29t107.5 -40t85.5 -57
t52 -81.5t20 -112.5q0 -75 -33.5 -131.5t-91.5 -88t-125.5 -46.5t-144.5 -15q-188 0 -293.5 95.5t-110.5 263.5h66q2 -74 30.5 -133t75.5 -95t106 -54.5t126 -18.5q94 0 164 20.5t115.5 72t45.5 130.5q0 48 -15.5 85.5t-40.5 62.5t-69.5 46t-88.5 34t-111 28zM502 -68
q66 -2 109.5 -49t43.5 -119q0 -79 -54 -130.5t-138 -51.5q-27 0 -57 6v56q24 -6 51 -6q61 0 97 34.5t36 89.5q0 62 -34 90.5t-87 28.5q-23 0 -33 -2v137h66v-84z" />
    <glyph glyph-name="Scaron" unicode="&#x160;" horiz-adv-x="1171" 
d="M537 756q-52 15 -88 26.5t-81.5 30.5t-76 38.5t-62.5 48.5t-51 62.5t-31 78.5t-12 98q0 159 118.5 262.5t326.5 103.5q235 0 343 -110t113 -340h-65q-2 99 -23.5 170t-67 122t-120 76t-180.5 25q-178 0 -278.5 -88t-100.5 -221q0 -60 20.5 -109t50 -80t81.5 -59t93 -43
t107 -35l82 -25q78 -23 133.5 -44t115.5 -56.5t96.5 -78t60.5 -107t24 -144.5q0 -167 -132.5 -274t-342.5 -107q-231 0 -357.5 122.5t-130.5 361.5h66q10 -219 116.5 -322.5t305.5 -103.5q179 0 294 88.5t115 234.5q0 68 -21 122.5t-53 91.5t-85 68.5t-102.5 50.5t-119.5 40
zM582 1673l166 182h69l-194 -227h-84l-195 227h72z" />
    <glyph glyph-name="scaron" unicode="&#x161;" horiz-adv-x="991" 
d="M496 514q-80 14 -134.5 28.5t-103 37t-77 53t-44.5 74.5t-16 102q0 122 104 196t271 74q80 0 145.5 -17.5t119.5 -55t85 -104.5t33 -159h-66q-4 143 -87 211t-230 68q-141 0 -223.5 -57.5t-82.5 -155.5q0 -100 68 -147.5t238 -83.5q76 -14 130 -29t107.5 -40t85.5 -57
t52 -81.5t20 -112.5q0 -75 -33.5 -131.5t-91.5 -88t-125.5 -46.5t-144.5 -15q-188 0 -293.5 95.5t-110.5 263.5h66q2 -74 30.5 -133t75.5 -95t106 -54.5t126 -18.5q94 0 164 20.5t115.5 72t45.5 130.5q0 48 -15.5 85.5t-40.5 62.5t-69.5 46t-88.5 34t-111 28zM485 1284
l168 203h68l-197 -250h-80l-196 250h69z" />
    <glyph glyph-name="uni0162" unicode="&#x162;" horiz-adv-x="1114" 
d="M1090 1487v-62h-500v-1425h-66v1425h-499v62h1065zM590 -68q66 -2 109.5 -49t43.5 -119q0 -79 -54 -130.5t-138 -51.5q-27 0 -57 6v56q24 -6 51 -6q61 0 97 34.5t36 89.5q0 62 -34 90.5t-87 28.5q-23 0 -33 -2v137h66v-84z" />
    <glyph glyph-name="uni0163" unicode="&#x163;" horiz-adv-x="579" 
d="M231 1270h66v-213h246v-58h-246v-733q0 -116 38.5 -166.5t125.5 -50.5q41 0 96 12v-53q-66 -14 -104 -14q-121 0 -171.5 59.5t-50.5 212.5v733h-200v58h200v213zM399 -68q66 -2 110 -49t44 -119q0 -78 -54.5 -130t-138.5 -52q-27 0 -57 6v56q24 -6 51 -6q61 0 97 34.5
t36 89.5q0 62 -34 90.5t-86 28.5q-23 0 -33 -2v137h65v-84z" />
    <glyph glyph-name="Tcaron" unicode="&#x164;" horiz-adv-x="1114" 
d="M1090 1487v-62h-500v-1425h-66v1425h-499v62h1065zM559 1673l166 182h70l-195 -227h-84l-194 227h71z" />
    <glyph glyph-name="tcaron" unicode="&#x165;" horiz-adv-x="579" 
d="M549 1475l-43 -285h-49l24 297h68v-12zM231 1270h66v-213h246v-58h-246v-733q0 -116 38.5 -166.5t125.5 -50.5q41 0 96 12v-53q-66 -14 -104 -14q-121 0 -171.5 59.5t-50.5 212.5v733h-200v58h200v213z" />
    <glyph glyph-name="Tbar" unicode="&#x166;" horiz-adv-x="1134" 
d="M231 803h304v622h-500v62h1065v-62h-500v-622h303v-62h-303v-741h-65v741h-304v62z" />
    <glyph glyph-name="tbar" unicode="&#x167;" horiz-adv-x="614" 
d="M477 -6q-121 0 -171 58.5t-50 213.5v293h-201v57h201v383h-201v58h201v213h66v-213h245v-58h-245v-383h245v-57h-245v-293q0 -119 37 -169t133 -50q36 0 90 14v-53q-66 -14 -105 -14z" />
    <glyph glyph-name="Utilde" unicode="&#x168;" horiz-adv-x="1392" 
d="M696 45q216 0 329.5 119.5t113.5 343.5v979h65v-979q0 -268 -133 -396t-375 -128t-375 128t-133 396v979h66v-979q0 -224 113 -343.5t329 -119.5zM813 1665q-34 0 -69 16.5t-59 37t-53 37t-52 16.5q-34 0 -57 -24.5t-40 -82.5h-59q28 168 156 168q35 0 71 -16.5t60 -37
t52 -37t50 -16.5q33 0 56 24.5t40 82.5h60q-28 -168 -156 -168z" />
    <glyph glyph-name="utilde" unicode="&#x169;" horiz-adv-x="1122" 
d="M883 0v197q-24 -47 -53 -83.5t-71 -69t-101.5 -50t-133.5 -17.5q-195 0 -278.5 107t-83.5 309v664h65v-656q0 -194 73.5 -279t229.5 -85q43 0 84 8t90.5 35t86.5 69.5t63 119t29 177.5v611h65v-1057h-65zM680 1282q-33 0 -69 17t-62.5 37.5t-57 37.5t-53.5 17
q-67 0 -98 -109h-57q28 168 155 168q35 0 72.5 -17t64 -37.5t55.5 -37.5t50 -17q67 0 98 109h58q-28 -168 -156 -168z" />
    <glyph glyph-name="Umacron" unicode="&#x16a;" horiz-adv-x="1392" 
d="M696 45q216 0 329.5 119.5t113.5 343.5v979h65v-979q0 -268 -133 -396t-375 -128t-375 128t-133 396v979h66v-979q0 -224 113 -343.5t329 -119.5zM934 1716h-475v60h475v-60z" />
    <glyph glyph-name="umacron" unicode="&#x16b;" horiz-adv-x="1122" 
d="M883 0v197q-24 -47 -53 -83.5t-71 -69t-101.5 -50t-133.5 -17.5q-195 0 -278.5 107t-83.5 309v664h65v-656q0 -194 73.5 -279t229.5 -85q43 0 84 8t90.5 35t86.5 69.5t63 119t29 177.5v611h65v-1057h-65zM799 1362h-480v59h480v-59z" />
    <glyph glyph-name="Ubreve" unicode="&#x16c;" horiz-adv-x="1392" 
d="M696 45q216 0 329.5 119.5t113.5 343.5v979h65v-979q0 -268 -133 -396t-375 -128t-375 128t-133 396v979h66v-979q0 -224 113 -343.5t329 -119.5zM696 1626q-104 0 -163.5 62.5t-59.5 166.5h59q0 -79 43.5 -127.5t120.5 -48.5t120.5 48.5t43.5 127.5h60
q0 -104 -60.5 -166.5t-163.5 -62.5z" />
    <glyph glyph-name="ubreve" unicode="&#x16d;" horiz-adv-x="1122" 
d="M883 0v197q-24 -47 -53 -83.5t-71 -69t-101.5 -50t-133.5 -17.5q-195 0 -278.5 107t-83.5 309v664h65v-656q0 -194 73.5 -279t229.5 -85q43 0 84 8t90.5 35t86.5 69.5t63 119t29 177.5v611h65v-1057h-65zM563 1237q-105 0 -166 66t-61 184h59q0 -95 44.5 -146t123.5 -51
q77 0 122.5 51t45.5 146h60q0 -117 -62 -183.5t-166 -66.5z" />
    <glyph glyph-name="Uring" unicode="&#x16e;" horiz-adv-x="1392" 
d="M696 45q216 0 329.5 119.5t113.5 343.5v979h65v-979q0 -268 -133 -396t-375 -128t-375 128t-133 396v979h66v-979q0 -224 113 -343.5t329 -119.5zM559 1712q0 -64 38 -99.5t97 -35.5q62 0 101 35.5t39 99.5q0 66 -39 102.5t-101 36.5q-59 0 -97 -37t-38 -102zM494 1712
q0 78 54 137.5t146 59.5q94 0 149.5 -59.5t55.5 -137.5q0 -76 -55.5 -134t-149.5 -58q-92 0 -146 58t-54 134z" />
    <glyph glyph-name="uring" unicode="&#x16f;" horiz-adv-x="1122" 
d="M883 0v197q-24 -47 -53 -83.5t-71 -69t-101.5 -50t-133.5 -17.5q-195 0 -278.5 107t-83.5 309v664h65v-656q0 -194 73.5 -279t229.5 -85q43 0 84 8t90.5 35t86.5 69.5t63 119t29 177.5v611h65v-1057h-65zM422 1364q0 -64 38 -99.5t97 -35.5q62 0 100.5 35.5t38.5 99.5
q0 66 -38.5 102.5t-100.5 36.5q-59 0 -97 -37t-38 -102zM356 1364q0 78 54.5 137.5t146.5 59.5q94 0 149.5 -59.5t55.5 -137.5q0 -76 -55.5 -134.5t-149.5 -58.5q-92 0 -146.5 58.5t-54.5 134.5z" />
    <glyph glyph-name="Uhungarumlaut" unicode="&#x170;" horiz-adv-x="1392" 
d="M696 45q216 0 329.5 119.5t113.5 343.5v979h65v-979q0 -268 -133 -396t-375 -128t-375 128t-133 396v979h66v-979q0 -224 113 -343.5t329 -119.5zM895 1620h-64l193 231h94zM547 1620h-64l193 231h94z" />
    <glyph glyph-name="uhungarumlaut" unicode="&#x171;" horiz-adv-x="1122" 
d="M883 0v197q-24 -47 -53 -83.5t-71 -69t-101.5 -50t-133.5 -17.5q-195 0 -278.5 107t-83.5 309v664h65v-656q0 -194 73.5 -279t229.5 -85q43 0 84 8t90.5 35t86.5 69.5t63 119t29 177.5v611h65v-1057h-65zM758 1237h-62l176 250h95zM438 1237h-61l176 250h94z" />
    <glyph glyph-name="Uogonek" unicode="&#x172;" horiz-adv-x="1392" 
d="M1204 1487v-979q0 -157 -43.5 -261.5t-142.5 -178.5q-123 -95 -179.5 -167.5t-56.5 -144.5q0 -57 31.5 -85.5t79.5 -28.5q56 0 84 20v-61q-31 -19 -88 -19q-78 0 -125 47.5t-47 120.5q0 119 145 252q-76 -18 -166 -18q-242 0 -375 128t-133 396v979h66v-979
q0 -224 113 -343.5t329 -119.5t329.5 119.5t113.5 343.5v979h65z" />
    <glyph glyph-name="uogonek" unicode="&#x173;" horiz-adv-x="1122" 
d="M883 0v197q-24 -47 -53 -83.5t-71 -69t-101.5 -50t-133.5 -17.5q-195 0 -278.5 107t-83.5 309v664h65v-656q0 -194 73.5 -279t229.5 -85q43 0 84 8t90.5 35t86.5 69.5t63 119t29 177.5v611h65v-1057h-65zM856 -418q-76 0 -122 47t-46 115t52.5 137.5t172.5 155.5l35 -37
q-194 -132 -194 -250q0 -52 31.5 -80t78.5 -28q56 0 84 20v-61q-31 -19 -92 -19z" />
    <glyph glyph-name="Wcircumflex" unicode="&#x174;" horiz-adv-x="1830" 
d="M1792 1487l-418 -1487h-74l-380 1386h-9l-381 -1386h-73l-418 1487h78l372 -1385h9l381 1385h82l372 -1385h8l381 1385h70zM915 1810l-165 -182h-70l194 227h84l195 -227h-72z" />
    <glyph glyph-name="wcircumflex" unicode="&#x175;" horiz-adv-x="1490" 
d="M49 1057h70l274 -1000h8l308 1000h77l304 -1000h8l278 1000h66l-303 -1057h-90l-299 969h-9l-299 -969h-90zM745 1438l-167 -201h-68l197 250h79l197 -250h-70z" />
    <glyph glyph-name="Ycircumflex" unicode="&#x176;" horiz-adv-x="1159" 
d="M31 1487h73l476 -754l475 754h73l-516 -815v-672h-65v672zM580 1810l-166 -182h-70l195 227h84l194 -227h-72z" />
    <glyph glyph-name="ycircumflex" unicode="&#x177;" horiz-adv-x="960" 
d="M117 1057l358 -959h8l367 959h70l-463 -1207q-55 -149 -129 -209.5t-187 -60.5q-51 0 -90 10v58q41 -8 90 -8q47 0 83 14t63.5 38.5t54.5 73t49 101.5t53 141l-401 1049h74zM481 1438l-168 -201h-67l196 250h80l197 -250h-70z" />
    <glyph glyph-name="Ydieresis" unicode="&#x178;" horiz-adv-x="1159" 
d="M31 1487h73l476 -754l475 754h73l-516 -815v-672h-65v672zM803 1681h-82v148h82v-148zM438 1681h-82v148h82v-148z" />
    <glyph glyph-name="Zacute" unicode="&#x179;" horiz-adv-x="1095" 
d="M940 1423h-858v64h936v-64l-877 -1362h916v-61h-1000v61zM565 1628h-65l194 227h99z" />
    <glyph glyph-name="zacute" unicode="&#x17a;" horiz-adv-x="919" 
d="M88 999v58h754v-58l-701 -942h717v-57h-795v57l701 942h-676zM481 1237h-61l182 250h94z" />
    <glyph glyph-name="Zdotaccent" unicode="&#x17b;" horiz-adv-x="1095" 
d="M940 1423h-858v64h936v-64l-877 -1362h916v-61h-1000v61zM580 1681h-82v148h82v-148z" />
    <glyph glyph-name="zdotaccent" unicode="&#x17c;" horiz-adv-x="919" 
d="M88 999v58h754v-58l-701 -942h717v-57h-795v57l701 942h-676zM502 1327h-82v148h82v-148z" />
    <glyph glyph-name="Zcaron" unicode="&#x17d;" horiz-adv-x="1095" 
d="M940 1423h-858v64h936v-64l-877 -1362h916v-61h-1000v61zM541 1673l166 182h69l-194 -227h-84l-195 227h72z" />
    <glyph glyph-name="zcaron" unicode="&#x17e;" horiz-adv-x="919" 
d="M88 999v58h754v-58l-701 -942h717v-57h-795v57l701 942h-676zM463 1284l168 203h67l-196 -250h-80l-197 250h70z" />
    <glyph glyph-name="longs" unicode="&#x17f;" horiz-adv-x="413" 
d="M174 1219q0 137 50.5 206.5t168.5 69.5q46 0 90 -8v-57q-65 10 -92 10q-82 0 -116.5 -49t-34.5 -164v-1227h-66v1219z" />
    <glyph glyph-name="uni018F" unicode="&#x18f;" horiz-adv-x="1435" 
d="M713 -23q-176 0 -312.5 93.5t-214 267.5t-80.5 401v17h1143q-2 160 -44 290.5t-114.5 217.5t-171 133.5t-214.5 46.5q-177 0 -305.5 -95.5t-176.5 -287.5h-73q55 214 202 329t353 115q272 0 443 -207t171 -553q0 -348 -167 -558t-439 -210zM713 39q230 0 376 175t158 482
h-1069q12 -302 161 -479.5t374 -177.5z" />
    <glyph glyph-name="uni0190" unicode="&#x190;" horiz-adv-x="1165" 
d="M1079 360q-19 -182 -143.5 -283.5t-337.5 -101.5q-224 0 -354.5 109t-130.5 303q0 153 85 253t242 118v8q-278 79 -278 358q0 94 37 169t100 120.5t141.5 69.5t165.5 24q182 0 299 -90t142 -254h-66q-19 132 -117 209.5t-260 77.5q-170 0 -273.5 -90t-103.5 -234
q0 -86 33 -153.5t88 -107t120 -59.5t136 -20h117v-57h-121q-67 0 -126.5 -10.5t-114.5 -36t-94.5 -64t-63 -97t-23.5 -132.5q0 -166 111.5 -261t308.5 -95q183 0 290 86t126 241h65z" />
    <glyph glyph-name="florin" unicode="&#x192;" 
d="M629 707l63 315q8 38 12 58t14 58.5t18.5 61t23.5 56t31.5 53.5t40.5 43.5t51 36t62.5 21.5t76.5 9q57 0 111 -16v-55q-50 18 -117 18q-59 0 -102.5 -25t-73 -75t-48 -108.5t-34.5 -141.5l-64 -309h242v-54h-254l-127 -630q-59 -306 -307 -306q-58 0 -105 17v53
q45 -16 117 -16q55 0 96.5 25.5t70 77t47 110t36.5 143.5l106 526h-221v54h234z" />
    <glyph glyph-name="uni0194" unicode="&#x194;" horiz-adv-x="1208" 
d="M367 -156q0 28 7.5 59.5t26.5 76.5t37 82t54.5 111t62.5 130l14 31l-530 1153h74l491 -1079l492 1079h73l-530 -1153l14 -31q29 -61 75.5 -156t64.5 -133t33.5 -86.5t15.5 -83.5q0 -123 -63.5 -192.5t-174.5 -69.5q-110 0 -173.5 69.5t-63.5 192.5zM604 -356
q67 0 119.5 54t52.5 146q0 20 -5 45t-12 47.5t-20.5 55.5t-23 53.5t-28.5 58.5t-27.5 53.5t-29.5 54.5t-26 48q-5 -9 -26 -48t-29.5 -54.5t-27.5 -53.5t-28.5 -58.5t-23 -53.5t-20.5 -55.5t-12 -47.5t-5 -45q0 -92 52.5 -146t119.5 -54z" />
    <glyph glyph-name="uni0197" unicode="&#x197;" horiz-adv-x="563" 
d="M313 1487v-690h238v-62h-238v-735h-65v735h-236v62h236v690h65z" />
    <glyph glyph-name="uni019D" unicode="&#x19d;" horiz-adv-x="1441" 
d="M1237 1487v-1487h-98l-860 1384h-9v-1433q0 -38 -0.5 -59.5t-2.5 -57.5t-6 -58t-12 -52t-19 -48t-28.5 -38.5t-40 -31.5t-53 -18.5t-67.5 -7.5q-55 0 -82 6v62q31 -8 68 -8q29 0 53 6.5t41.5 16t31 27.5t22 33t14.5 41t9 43.5t5 48t2 47v48.5v1536h98l860 -1385h8v1385
h66z" />
    <glyph glyph-name="uni01B5" unicode="&#x1b5;" horiz-adv-x="1153" 
d="M543 766l426 657h-858v64h936v-64l-424 -657h424v-61h-463l-414 -644h915v-61h-999v61l416 644h-391v61h432z" />
    <glyph glyph-name="uni01B6" unicode="&#x1b6;" horiz-adv-x="952" 
d="M860 1057v-58l-328 -440h304v-57h-347l-331 -445h719v-57h-795v57l332 445h-308v57h351l327 440h-678v58h754z" />
    <glyph glyph-name="uni01CD" unicode="&#x1cd;" horiz-adv-x="1343" 
d="M295 487l-197 -487h-78l615 1487h74l614 -1487h-78l-198 487h-752zM668 1401q-43 -108 -128.5 -315.5t-109.5 -266.5l-111 -270h703l-109 270q-32 81 -114 279.5t-123 302.5h-8zM674 1673l166 182h69l-194 -227h-84l-195 227h72z" />
    <glyph glyph-name="uni01CE" unicode="&#x1ce;" horiz-adv-x="1054" 
d="M829 688q0 176 -75 256t-230 80q-140 0 -225.5 -76t-85.5 -196h-70q0 143 105.5 236t275.5 93q34 0 62.5 -2t68 -11.5t71 -24.5t64.5 -44.5t55 -68.5t36 -99.5t14 -134.5q0 -386 3 -513.5t11 -182.5h-67q-9 79 -11 199q-118 -222 -372 -222q-160 0 -257.5 73t-97.5 210
q0 48 11.5 88.5t30.5 72t51.5 57.5t67.5 45.5t86 35t99.5 26t115 19.5t125.5 15t138 12v57zM459 35q154 0 262 104.5t108 268.5v163q-278 -25 -380 -48q-192 -43 -247 -145q-26 -49 -26 -116q0 -64 27.5 -111t72 -70.5t90 -34.5t93.5 -11zM526 1284l168 203h68l-197 -250
h-80l-196 250h69z" />
    <glyph glyph-name="uni01CF" unicode="&#x1cf;" horiz-adv-x="475" 
d="M270 1487v-1487h-65v1487h65zM240 1673l166 182h69l-194 -227h-84l-195 227h72z" />
    <glyph glyph-name="uni01D0" unicode="&#x1d0;" horiz-adv-x="413" 
d="M240 1057v-1057h-66v1057h66zM-4 1487h65l148 -201l147 201h62l-172 -250h-78z" />
    <glyph glyph-name="uni01D1" unicode="&#x1d1;" horiz-adv-x="1507" 
d="M754 39q251 0 410 190t159 516q0 163 -43 295.5t-118.5 220.5t-180 135.5t-227.5 47.5t-227.5 -47.5t-180.5 -135.5t-119 -220.5t-43 -295.5q0 -326 159 -516t411 -190zM754 -23q-284 0 -461.5 210.5t-177.5 557.5q0 230 81.5 403t226 265t331.5 92t331.5 -92t226 -265
t81.5 -403q0 -347 -177.5 -557.5t-461.5 -210.5zM756 1673l166 182h69l-194 -227h-84l-195 227h72z" />
    <glyph glyph-name="uni01D2" unicode="&#x1d2;" horiz-adv-x="1126" 
d="M563 35q180 0 284.5 136t104.5 361q0 224 -104.5 357t-284.5 133t-284.5 -136.5t-104.5 -361.5q0 -224 104.5 -356.5t284.5 -132.5zM563 -23q-205 0 -332 149t-127 398q0 250 127.5 402.5t331.5 152.5q205 0 332 -149t127 -398q0 -250 -127.5 -402.5t-331.5 -152.5z
M565 1284l168 203h68l-197 -250h-80l-196 250h69z" />
    <glyph glyph-name="uni01D3" unicode="&#x1d3;" horiz-adv-x="1392" 
d="M696 45q216 0 329.5 119.5t113.5 343.5v979h65v-979q0 -268 -133 -396t-375 -128t-375 128t-133 396v979h66v-979q0 -224 113 -343.5t329 -119.5zM698 1673l166 182h70l-195 -227h-84l-194 227h71z" />
    <glyph glyph-name="uni01D4" unicode="&#x1d4;" horiz-adv-x="1122" 
d="M883 0v197q-24 -47 -53 -83.5t-71 -69t-101.5 -50t-133.5 -17.5q-195 0 -278.5 107t-83.5 309v664h65v-656q0 -194 73.5 -279t229.5 -85q43 0 84 8t90.5 35t86.5 69.5t63 119t29 177.5v611h65v-1057h-65zM557 1284l168 203h68l-197 -250h-80l-197 250h70z" />
    <glyph glyph-name="Gcaron" unicode="&#x1e6;" horiz-adv-x="1427" 
d="M1231 0q-8 100 -8 270h-9q-74 -149 -193 -221t-298 -72q-275 0 -440.5 208t-165.5 552q0 352 166.5 560t455.5 208q214 0 359.5 -108.5t181.5 -317.5h-74q-36 179 -162 272t-305 93q-111 0 -202.5 -35t-156 -98t-108.5 -152t-65 -194.5t-21 -227.5q0 -203 67.5 -362
t190 -247.5t279.5 -88.5q500 0 500 616v66h-484v57h549v-778h-57zM741 1673l166 182h70l-195 -227h-84l-194 227h71z" />
    <glyph glyph-name="gcaron" unicode="&#x1e7;" horiz-adv-x="1148" 
d="M109 541q0 130 39 235.5t103 170t141.5 98.5t158.5 34q131 0 223.5 -63.5t136.5 -171.5v213h66v-922q0 -98 -10.5 -175.5t-39.5 -150.5t-76.5 -121t-125.5 -77t-182 -29q-93 0 -169 29t-124 77.5t-74 109.5t-26 128h65q0 -116 92 -201t236 -85q72 0 129 16.5t95 42.5
t65.5 67t42.5 80.5t23.5 94t10.5 96.5t2 98v152q-66 -125 -157 -193.5t-219 -68.5q-197 0 -311.5 136t-114.5 380zM178 541q0 -212 97.5 -335.5t259.5 -123.5q159 0 267.5 125.5t108.5 333.5v20q-5 212 -96 336.5t-264 124.5q-162 0 -267.5 -135t-105.5 -346zM594 1284
l168 203h67l-196 -250h-80l-197 250h70z" />
    <glyph glyph-name="uni01E8" unicode="&#x1e8;" horiz-adv-x="1120" 
d="M270 1487v-672l693 672h90l-709 -688l782 -799h-90l-766 782v-782h-65v1487h65zM590 1673l166 182h69l-194 -227h-84l-195 227h72z" />
    <glyph glyph-name="uni01E9" unicode="&#x1e9;" horiz-adv-x="915" 
d="M240 1487v-891l518 461h94l-530 -465l593 -592h-94l-581 580v-580h-66v1487h66zM-8 1855h67l148 -182l149 182h62l-172 -227h-80z" />
    <glyph glyph-name="uni01EA" unicode="&#x1ea;" horiz-adv-x="1507" 
d="M1393 745q0 -241 -85.5 -418t-254.5 -274l-49 -28q-112 -67 -174 -138.5t-62 -136.5q0 -52 32 -80t79 -28q56 0 84 20v-61q-31 -19 -93 -19q-76 0 -122 47t-46 115q0 116 158 242q-46 -9 -106 -9q-284 0 -461.5 210.5t-177.5 557.5q0 230 81.5 403t226 265t331.5 92
t331.5 -92t226 -265t81.5 -403zM754 39q251 0 410 190t159 516q0 163 -43 295.5t-118.5 220.5t-180 135.5t-227.5 47.5t-227.5 -47.5t-180.5 -135.5t-119 -220.5t-43 -295.5q0 -326 159 -516t411 -190z" />
    <glyph glyph-name="uni01EB" unicode="&#x1eb;" horiz-adv-x="1126" 
d="M1022 532q0 -173 -67 -300t-183 -203l-22 -15q-218 -139 -218 -264q0 -52 32 -80t79 -28q56 0 84 20v-61q-31 -19 -92 -19q-76 0 -122 47t-46 115q0 113 151 238q-45 -5 -55 -5q-205 0 -332 149t-127 398q0 250 127.5 402.5t331.5 152.5q205 0 332 -149t127 -398zM563 35
q180 0 284.5 136t104.5 361q0 224 -104.5 357t-284.5 133t-284.5 -136.5t-104.5 -361.5q0 -224 104.5 -356.5t284.5 -132.5z" />
    <glyph glyph-name="uni01F8" unicode="&#x1f8;" horiz-adv-x="1441" 
d="M270 1384v-1384h-65v1487h98l860 -1385h8v1385h66v-1487h-98l-860 1384h-9zM590 1855l194 -227h-65l-227 227h98z" />
    <glyph glyph-name="uni01F9" unicode="&#x1f9;" horiz-adv-x="1122" 
d="M240 1057v-197q105 219 358 219q195 0 279 -106.5t84 -308.5v-664h-66v655q0 194 -73.5 279.5t-229.5 85.5q-45 0 -86.5 -8.5t-90.5 -35.5t-85 -70.5t-61.5 -120t-28.5 -177.5v-608h-66v1057h66zM612 1237h-61l-215 250h94z" />
    <glyph glyph-name="Aringacute" unicode="&#x1fa;" horiz-adv-x="1343" 
d="M467 1634q0 78 54.5 137.5t146.5 59.5h6l155 182h99l-193 -192q65 -19 101 -71.5t36 -115.5t-39 -116t-108 -70l598 -1448h-78l-198 487h-752l-197 -487h-78l598 1446q-71 17 -111 70t-40 118zM668 1401q-39 -99 -238 -582l-111 -270h703l-109 270q-32 81 -114 279.5
t-123 302.5h-8zM532 1634q0 -64 38.5 -99.5t97.5 -35.5q62 0 100.5 35.5t38.5 99.5q0 66 -38.5 103t-100.5 37q-59 0 -97.5 -37.5t-38.5 -102.5z" />
    <glyph glyph-name="aringacute" unicode="&#x1fb;" horiz-adv-x="1054" 
d="M829 688q0 176 -75 256t-230 80q-140 0 -225.5 -76t-85.5 -196h-70q0 143 105.5 236t275.5 93q34 0 62.5 -2t68 -11.5t71 -24.5t64.5 -44.5t55 -68.5t36 -99.5t14 -134.5q0 -386 3 -513.5t11 -182.5h-67q-9 79 -11 199q-118 -222 -372 -222q-160 0 -257.5 73t-97.5 210
q0 48 11.5 88.5t30.5 72t51.5 57.5t67.5 45.5t86 35t99.5 26t115 19.5t125.5 15t138 12v57zM459 35q154 0 262 104.5t108 268.5v163q-278 -25 -380 -48q-192 -43 -247 -145q-26 -49 -26 -116q0 -64 27.5 -111t72 -70.5t90 -34.5t93.5 -11zM324 1364q0 76 51 134.5t139 62.5
l172 202h98l-209 -209q72 -17 113 -70.5t41 -119.5q0 -76 -55.5 -134.5t-149.5 -58.5q-92 0 -146 58.5t-54 134.5zM389 1364q0 -64 38 -99.5t97 -35.5q62 0 101 35.5t39 99.5q0 66 -39 102.5t-101 36.5q-59 0 -97 -37t-38 -102z" />
    <glyph glyph-name="AEacute" unicode="&#x1fc;" horiz-adv-x="1808" 
d="M1671 1425h-756l89 -622h643v-62h-633l96 -680h631v-61h-688l-76 522h-602l-277 -522h-78l797 1487h854v-62zM844 1403l-438 -819h563l-117 819h-8zM956 1628h-65l194 227h99z" />
    <glyph glyph-name="aeacute" unicode="&#x1fd;" horiz-adv-x="1765" 
d="M455 -23q-154 0 -253.5 76.5t-99.5 214.5q0 113 59 182.5t201 106.5t381 37h80v94q0 172 -79 254t-224 82q-136 0 -223.5 -76.5t-87.5 -195.5h-66q0 143 104 236t273 93q294 0 354 -264q60 130 158.5 196t218.5 66q107 0 187 -37.5t129 -107.5t73.5 -163t26.5 -212v-22
h-778q0 -234 97.5 -368t264.5 -134q126 0 217.5 74.5t116.5 187.5h66q-32 -147 -141 -233.5t-259 -86.5q-139 0 -241.5 78t-149.5 219q-49 -130 -150.5 -213.5t-254.5 -83.5zM455 35q156 0 262 114.5t106 296.5v91h-80q-293 0 -430 -59.5t-137 -207.5q0 -64 28 -112
t72.5 -73.5t89.5 -37.5t89 -12zM1593 594q-16 428 -342 428q-154 0 -250.5 -112t-109.5 -316h702zM924 1237h-62l182 250h95z" />
    <glyph glyph-name="Oslashacute" unicode="&#x1fe;" horiz-adv-x="1515" 
d="M760 -23q-254 0 -424 170l-131 -172l-43 39l135 176q-176 207 -176 555q0 230 81.5 403t226 265t331.5 92q244 0 420 -162l116 152l43 -35l-120 -157q180 -208 180 -558q0 -347 -177.5 -557.5t-461.5 -210.5zM760 39q251 0 410 190t159 516q0 314 -151 504l-803 -1050
q154 -160 385 -160zM190 745q0 -308 146 -503l803 1048q-151 154 -379 154q-123 0 -227.5 -47.5t-180.5 -135.5t-119 -220.5t-43 -295.5zM786 1628h-65l194 227h99z" />
    <glyph glyph-name="oslashacute" unicode="&#x1ff;" horiz-adv-x="1134" 
d="M240 121q-129 151 -129 403q0 250 127 402.5t331 152.5q165 0 281 -98l119 172l49 -33l-125 -178q135 -147 135 -410q0 -250 -127.5 -402.5t-331.5 -152.5q-171 0 -286 103l-123 -174l-49 33zM569 35q180 0 284.5 136t104.5 361q0 226 -104 357l-537 -760
q101 -94 252 -94zM180 524q0 -218 99 -350l534 758q-99 90 -244 90q-180 0 -284.5 -136.5t-104.5 -361.5zM590 1237h-62l183 250h94z" />
    <glyph glyph-name="uni0218" unicode="&#x218;" horiz-adv-x="1171" 
d="M537 756q-52 15 -88 26.5t-81.5 30.5t-76 38.5t-62.5 48.5t-51 62.5t-31 78.5t-12 98q0 159 118.5 262.5t326.5 103.5q235 0 343 -110t113 -340h-65q-2 99 -23.5 170t-67 122t-120 76t-180.5 25q-178 0 -278.5 -88t-100.5 -221q0 -60 20.5 -109t50 -80t81.5 -59t93 -43
t107 -35l82 -25q78 -23 133.5 -44t115.5 -56.5t96.5 -78t60.5 -107t24 -144.5q0 -167 -132.5 -274t-342.5 -107q-231 0 -357.5 122.5t-130.5 361.5h66q10 -219 116.5 -322.5t305.5 -103.5q179 0 294 88.5t115 234.5q0 68 -21 122.5t-53 91.5t-85 68.5t-102.5 50.5t-119.5 40
zM592 -283h-35v127h84v-123l-53 -188h-43z" />
    <glyph glyph-name="uni0219" unicode="&#x219;" horiz-adv-x="991" 
d="M496 514q-80 14 -134.5 28.5t-103 37t-77 53t-44.5 74.5t-16 102q0 122 104 196t271 74q80 0 145.5 -17.5t119.5 -55t85 -104.5t33 -159h-66q-4 143 -87 211t-230 68q-141 0 -223.5 -57.5t-82.5 -155.5q0 -100 68 -147.5t238 -83.5q76 -14 130 -29t107.5 -40t85.5 -57
t52 -81.5t20 -112.5q0 -75 -33.5 -131.5t-91.5 -88t-125.5 -46.5t-144.5 -15q-188 0 -293.5 95.5t-110.5 263.5h66q2 -74 30.5 -133t75.5 -95t106 -54.5t126 -18.5q94 0 164 20.5t115.5 72t45.5 130.5q0 48 -15.5 85.5t-40.5 62.5t-69.5 46t-88.5 34t-111 28zM489 -156h84
v-123l-53 -188h-43l47 184h-35v127z" />
    <glyph glyph-name="uni021A" unicode="&#x21a;" horiz-adv-x="1114" 
d="M1090 1487v-62h-500v-1425h-66v1425h-499v62h1065zM551 -283h-35v127h84v-123l-53 -188h-43z" />
    <glyph glyph-name="uni021B" unicode="&#x21b;" horiz-adv-x="579" 
d="M231 1270h66v-213h246v-58h-246v-733q0 -116 38.5 -166.5t125.5 -50.5q41 0 96 12v-53q-66 -14 -104 -14q-121 0 -171.5 59.5t-50.5 212.5v733h-200v58h200v213zM348 -156h84v-123l-53 -188h-43l47 184h-35v127z" />
    <glyph glyph-name="uni021E" unicode="&#x21e;" horiz-adv-x="1441" 
d="M270 733v-733h-65v1487h65v-692h901v692h66v-1487h-66v733h-901zM723 1673l166 182h69l-194 -227h-84l-195 227h72z" />
    <glyph glyph-name="uni021F" unicode="&#x21f;" horiz-adv-x="1122" 
d="M240 1487v-627q105 219 358 219q195 0 279 -106.5t84 -308.5v-664h-66v655q0 194 -73.5 279.5t-229.5 85.5q-45 0 -86.5 -8.5t-90.5 -35.5t-85 -70.5t-61.5 -120t-28.5 -177.5v-608h-66v1487h66zM-8 1855h67l148 -182l149 182h62l-172 -227h-80z" />
    <glyph glyph-name="uni022E" unicode="&#x22e;" horiz-adv-x="1507" 
d="M754 39q251 0 410 190t159 516q0 163 -43 295.5t-118.5 220.5t-180 135.5t-227.5 47.5t-227.5 -47.5t-180.5 -135.5t-119 -220.5t-43 -295.5q0 -326 159 -516t411 -190zM754 -23q-284 0 -461.5 210.5t-177.5 557.5q0 230 81.5 403t226 265t331.5 92t331.5 -92t226 -265
t81.5 -403q0 -347 -177.5 -557.5t-461.5 -210.5zM795 1681h-82v148h82v-148z" />
    <glyph glyph-name="uni022F" unicode="&#x22f;" horiz-adv-x="1126" 
d="M563 35q180 0 284.5 136t104.5 361q0 224 -104.5 357t-284.5 133t-284.5 -136.5t-104.5 -361.5q0 -224 104.5 -356.5t284.5 -132.5zM563 -23q-205 0 -332 149t-127 398q0 250 127.5 402.5t331.5 152.5q205 0 332 -149t127 -398q0 -250 -127.5 -402.5t-331.5 -152.5z
M604 1327h-82v148h82v-148z" />
    <glyph glyph-name="uni0232" unicode="&#x232;" horiz-adv-x="1159" 
d="M31 1487h73l476 -754l475 754h73l-516 -815v-672h-65v672zM817 1716h-475v60h475v-60z" />
    <glyph glyph-name="uni0233" unicode="&#x233;" horiz-adv-x="960" 
d="M117 1057l358 -959h8l367 959h70l-463 -1207q-55 -149 -129 -209.5t-187 -60.5q-51 0 -90 10v58q41 -8 90 -8q47 0 83 14t63.5 38.5t54.5 73t49 101.5t53 141l-401 1049h74zM721 1362h-479v59h479v-59z" />
    <glyph glyph-name="uni0237" unicode="&#x237;" horiz-adv-x="413" 
d="M240 1057v-1106q0 -37 -0.5 -59.5t-2.5 -58t-6 -57.5t-12 -51.5t-19.5 -48t-29 -39t-40 -31.5t-53 -18.5t-67.5 -7.5q-32 0 -73 6v62q31 -8 65 -8q40 0 70 11.5t48.5 35.5t30 49t16 66t6 71t1.5 78v1106h66z" />
    <glyph glyph-name="uni0244" unicode="&#x244;" horiz-adv-x="1433" 
d="M1389 735h-164v-227q0 -268 -133 -396t-375 -128t-375 128t-133 396v227h-164v62h164v690h65v-690h885v690h66v-690h164v-62zM717 45q216 0 329 119.5t113 343.5v227h-885v-227q0 -224 113.5 -343.5t329.5 -119.5z" />
    <glyph glyph-name="uni0259" unicode="&#x259;" horiz-adv-x="1079" 
d="M530 -23q-110 0 -192.5 40.5t-133 115t-75.5 174.5t-25 225h799q0 226 -103 358t-270 132q-127 0 -223 -75t-121 -187h-65q29 145 144 232t265 87q196 0 319.5 -145t123.5 -402q0 -136 -38 -244.5t-101 -174.5t-141 -101t-163 -35zM530 35q154 0 256 116t115 324h-723
q8 -214 96 -327t256 -113z" />
    <glyph glyph-name="uni025B" unicode="&#x25b;" horiz-adv-x="999" 
d="M848 319h65q-12 -163 -117.5 -256.5t-293.5 -93.5q-186 0 -293 80t-107 221q0 102 67 170.5t187 100.5v8q-102 24 -161.5 88.5t-59.5 165.5q0 123 104.5 203.5t264.5 80.5q182 0 283.5 -85t109.5 -240h-66q-5 116 -90 192t-237 76q-130 0 -214.5 -64t-84.5 -163
q0 -113 80.5 -175.5t216.5 -62.5h84v-57h-82q-158 0 -245 -63.5t-87 -174.5q0 -116 89.5 -179.5t240.5 -63.5q165 0 251.5 82t94.5 210z" />
    <glyph glyph-name="uni0263" unicode="&#x263;" horiz-adv-x="917" 
d="M690 -186q0 -42 -11 -79t-35.5 -72t-72 -57t-112.5 -24q-65 2 -112.5 24t-72.5 57t-36 72t-11 79q0 110 92 284l103 191l-414 768h74l377 -701l377 701h73l-413 -768l102 -191q92 -167 92 -284zM297 -186q0 -29 7 -57t23.5 -57t50.5 -47t81 -18t81 18t50.5 47t23.5 57
t7 57q0 108 -82 260l-80 147l-80 -147q-26 -51 -40.5 -83.5t-28 -82t-13.5 -94.5z" />
    <glyph glyph-name="uni0268" unicode="&#x268;" horiz-adv-x="557" 
d="M516 559h-203v-559h-65v559h-205v57h205v441h65v-441h203v-57zM322 1475v-148h-82v148h82z" />
    <glyph glyph-name="uni0272" unicode="&#x272;" horiz-adv-x="1122" 
d="M598 1079q195 0 279 -106.5t84 -308.5v-664h-66v655q0 194 -73.5 279.5t-229.5 85.5q-45 0 -86.5 -8.5t-90.5 -35.5t-85 -70.5t-61.5 -120t-28.5 -177.5v-657q0 -37 -0.5 -59.5t-2.5 -58t-6 -57.5t-12 -51.5t-19.5 -48t-29 -39t-40 -31.5t-53 -18.5t-67.5 -7.5
q-55 0 -82 6v62q31 -8 68 -8q29 0 53 6.5t41.5 16t31 27.5t22 33t14.5 41t9 43.5t5 48t2 47v48.5v1106h66v-197q105 219 358 219z" />
    <glyph glyph-name="uni0289" unicode="&#x289;" horiz-adv-x="1284" 
d="M975 0v197q-24 -47 -53 -83.5t-71 -69t-101.5 -50t-133.5 -17.5q-195 0 -278.5 107t-83.5 309v166h-205v57h205v441h65v-441h656v441h65v-441h203v-57h-203v-559h-65zM623 37q43 0 84 8t90.5 35t86 69.5t62.5 119t29 177.5v113h-656v-158q0 -193 74 -278.5t230 -85.5z
" />
    <glyph glyph-name="uni02BC" unicode="&#x2bc;" horiz-adv-x="335" 
d="M182 1372h-55v115h106v-123l-65 -188h-47z" />
    <glyph glyph-name="circumflex" unicode="&#x2c6;" horiz-adv-x="1116" 
d="M557 1438l-168 -201h-67l196 250h80l197 -250h-70z" />
    <glyph glyph-name="caron" unicode="&#x2c7;" horiz-adv-x="1116" 
d="M559 1284l168 203h68l-197 -250h-80l-196 250h69z" />
    <glyph glyph-name="uni02C9" unicode="&#x2c9;" horiz-adv-x="1134" 
d="M807 1362h-479v59h479v-59z" />
    <glyph glyph-name="breve" unicode="&#x2d8;" horiz-adv-x="1064" 
d="M532 1237q-105 0 -166 66t-61 184h60q0 -96 44 -146.5t123 -50.5q77 0 122.5 51t45.5 146h60q0 -117 -62 -183.5t-166 -66.5z" />
    <glyph glyph-name="dotaccent" unicode="&#x2d9;" horiz-adv-x="1146" 
d="M602 1327h-82v148h82v-148z" />
    <glyph glyph-name="ring" unicode="&#x2da;" horiz-adv-x="1150" 
d="M438 1364q0 -64 38 -99.5t97 -35.5q62 0 101 35.5t39 99.5q0 66 -39 102.5t-101 36.5q-59 0 -97 -37t-38 -102zM373 1364q0 78 54 137.5t146 59.5q94 0 149.5 -59.5t55.5 -137.5q0 -76 -55.5 -134.5t-149.5 -58.5q-92 0 -146 58.5t-54 134.5z" />
    <glyph glyph-name="ogonek" unicode="&#x2db;" horiz-adv-x="1095" 
d="M578 -418q-76 0 -122 47t-46 115t52.5 137.5t172.5 155.5l35 -37q-195 -133 -195 -250q0 -52 32 -80t79 -28q56 0 84 20v-61q-31 -19 -92 -19z" />
    <glyph glyph-name="tilde" unicode="&#x2dc;" horiz-adv-x="1163" 
d="M702 1282q-33 0 -69 17t-62 37.5t-56.5 37.5t-53.5 17q-68 0 -99 -109h-57q28 168 156 168q35 0 72.5 -17t63.5 -37.5t55 -37.5t50 -17q68 0 99 109h57q-28 -168 -156 -168z" />
    <glyph glyph-name="hungarumlaut" unicode="&#x2dd;" horiz-adv-x="1212" 
d="M799 1237h-62l176 250h95zM479 1237h-61l176 250h94z" />
    <glyph glyph-name="gravecomb" unicode="&#x300;" horiz-adv-x="0" 
d="M-373 1237h-61l-215 250h94z" />
    <glyph glyph-name="acutecomb" unicode="&#x301;" horiz-adv-x="0" 
d="M-590 1237h-61l182 250h94z" />
    <glyph glyph-name="uni0302" unicode="&#x302;" horiz-adv-x="0" 
d="M-512 1438l-168 -201h-68l197 250h80l197 -250h-70z" />
    <glyph glyph-name="tildecomb" unicode="&#x303;" horiz-adv-x="0" 
d="M-391 1282q-33 0 -69 17t-62.5 37.5t-57 37.5t-53.5 17q-67 0 -98 -109h-57q28 168 155 168q35 0 72.5 -17t64 -37.5t55.5 -37.5t50 -17q67 0 98 109h57q-28 -168 -155 -168z" />
    <glyph glyph-name="uni0304" unicode="&#x304;" horiz-adv-x="0" 
d="M-272 1362h-480v59h480v-59z" />
    <glyph glyph-name="uni0306" unicode="&#x306;" horiz-adv-x="0" 
d="M-508 1237q-105 0 -166 66t-61 184h59q0 -95 44.5 -146t123.5 -51q77 0 122.5 51t45.5 146h59q0 -117 -61.5 -183.5t-165.5 -66.5z" />
    <glyph glyph-name="uni0307" unicode="&#x307;" horiz-adv-x="0" 
d="M-471 1327h-82v148h82v-148z" />
    <glyph glyph-name="uni0308" unicode="&#x308;" horiz-adv-x="0" 
d="M-291 1327h-82v148h82v-148zM-651 1327h-82v148h82v-148z" />
    <glyph glyph-name="uni030A" unicode="&#x30a;" horiz-adv-x="0" 
d="M-649 1364q0 -64 38 -99.5t97 -35.5q62 0 100.5 35.5t38.5 99.5q0 66 -38.5 102.5t-100.5 36.5q-59 0 -97 -37t-38 -102zM-715 1364q0 78 54.5 137.5t146.5 59.5q94 0 149.5 -59.5t55.5 -137.5q0 -76 -55.5 -134.5t-149.5 -58.5q-92 0 -146.5 58.5t-54.5 134.5z" />
    <glyph glyph-name="uni030B" unicode="&#x30b;" horiz-adv-x="0" 
d="M-420 1237h-61l176 250h94zM-739 1237h-62l176 250h95z" />
    <glyph glyph-name="uni030C" unicode="&#x30c;" horiz-adv-x="0" 
d="M-510 1284l168 203h68l-197 -250h-80l-197 250h70z" />
    <glyph glyph-name="uni0312" unicode="&#x312;" horiz-adv-x="0" 
d="M-473 1262h-84v122l53 189h43l-47 -184h35v-127z" />
    <glyph glyph-name="uni0313" unicode="&#x313;" horiz-adv-x="0" 
d="M-510 1372h-55v115h106v-123l-65 -188h-47z" />
    <glyph glyph-name="dotbelowcomb" unicode="&#x323;" horiz-adv-x="0" 
d="M-471 -342h-82v147h82v-147z" />
    <glyph glyph-name="uni0326" unicode="&#x326;" horiz-adv-x="0" 
d="M-553 -156h84v-123l-53 -188h-43l47 184h-35v127z" />
    <glyph glyph-name="uni0327" unicode="&#x327;" horiz-adv-x="0" 
d="M-426 -68q66 -2 110 -49t44 -119q0 -78 -54.5 -130t-138.5 -52q-27 0 -57 6v56q24 -6 51 -6q61 0 97 34.5t36 89.5q0 62 -34 90.5t-87 28.5q-23 0 -33 -2v137h66v-84z" />
    <glyph glyph-name="uni0328" unicode="&#x328;" horiz-adv-x="0" 
d="M-563 -418q-76 0 -122 47t-46 115t52.5 137.5t172.5 155.5l35 -37q-195 -133 -195 -250q0 -52 32 -80t79 -28q56 0 84 20v-61q-31 -19 -92 -19z" />
    <glyph glyph-name="uni032E" unicode="&#x32e;" horiz-adv-x="0" 
d="M-514 -410q-105 0 -166 66t-61 184h59q0 -95 44.5 -145.5t123.5 -50.5q77 0 122.5 50.5t45.5 145.5h59q0 -117 -61.5 -183.5t-165.5 -66.5z" />
    <glyph glyph-name="uni0331" unicode="&#x331;" horiz-adv-x="0" 
d="M-272 -289h-480v60h480v-60z" />
    <glyph glyph-name="uni037E" unicode="&#x37e;" horiz-adv-x="397" 
d="M145 8v115h107v-123l-49 -270h-56l50 278h-52zM252 1057v-123h-107v123h107z" />
    <glyph glyph-name="dieresistonos" unicode="&#x385;" horiz-adv-x="1167" 
d="M664 1487l-68 -250h-64l37 250h95zM434 1384v-147h-82v147h82zM815 1384v-147h-82v147h82z" />
    <glyph glyph-name="anoteleia" unicode="&#x387;" horiz-adv-x="376" 
d="M244 1057v-123h-107v123h107z" />
    <glyph glyph-name="uni0394" unicode="&#x394;" horiz-adv-x="1335" 
d="M631 1487h74l598 -1446v-41h-1270v41zM909 819q-32 81 -114 279.5t-123 302.5h-8q-40 -103 -122 -300t-116 -282l-307 -758h1098z" />
    <glyph glyph-name="Sigma" unicode="&#x3a3;" horiz-adv-x="1122" 
d="M57 45l688 700l-686 697v45h998v-62h-893l659 -661v-31l-667 -672h901v-61h-1000v45z" />
    <glyph glyph-name="uni03A9" unicode="&#x3a9;" horiz-adv-x="1511" 
d="M485 57q-356 294 -356 770q0 189 75.5 342.5t219.5 244.5t332 91q141 0 259.5 -53t198.5 -144.5t124 -215.5t44 -265q0 -476 -356 -770h377v-57h-467v57q176 125 276.5 324t100.5 446q0 175 -70 316t-198 222t-289 81t-289 -81t-198 -222t-70 -316q0 -247 100 -446.5
t276 -323.5v-57h-466v57h376z" />
    <glyph glyph-name="uni03BC" unicode="&#x3bc;" horiz-adv-x="1167" 
d="M240 1057v-631q0 -195 81 -288t246 -93q42 0 84.5 13.5t87 47t79 82t56 126.5t21.5 173v570h66v-901q0 -61 22.5 -88t77.5 -27q48 0 80 12v-53q-35 -14 -86 -14q-50 0 -84 15t-49.5 42t-21 54t-5.5 63v45q-23 -48 -48.5 -83.5t-64.5 -68.5t-94.5 -50t-126.5 -17
q-222 0 -321 161v-559h-66v1469h66z" />
    <glyph glyph-name="pi" unicode="&#x3c0;" horiz-adv-x="1200" 
d="M1006 -14q-50 0 -84 15t-49.5 42t-21 54t-5.5 63v833h-512v-993h-66v993h-237v64h1118v-64h-238v-837q0 -61 23 -88t78 -27q48 0 80 12v-53q-35 -14 -86 -14z" />
    <glyph glyph-name="uni1E02" unicode="&#x1e02;" horiz-adv-x="1234" 
d="M647 1487q217 0 330 -102t113 -263q0 -145 -69.5 -235.5t-193.5 -122.5v-4q112 -19 199.5 -119t87.5 -240q0 -401 -483 -401h-426v1487h442zM270 61h361q104 0 180.5 21.5t119.5 53.5t68.5 79.5t33 90t7.5 95.5q0 151 -101 239.5t-267 88.5h-402v-668zM270 795h402
q93 0 162.5 28.5t107.5 77t56 104t18 117.5q0 138 -98.5 220.5t-270.5 82.5h-377v-630zM651 1681h-82v148h82v-148z" />
    <glyph glyph-name="uni1E03" unicode="&#x1e03;" horiz-adv-x="1165" 
d="M240 811q45 83 96 139.5t125 92.5t164 36q198 0 316 -145.5t118 -401.5q0 -135 -40 -244t-105.5 -175t-144 -101t-161.5 -35q-134 0 -228 63.5t-140 172.5v-213h-66v1487h66v-676zM989 532q0 221 -100 355.5t-264 134.5q-158 0 -271.5 -139t-113.5 -351v-22
q0 -212 94.5 -343.5t273.5 -131.5q165 0 273 140t108 357zM659 1327h-81v148h81v-148z" />
    <glyph glyph-name="uni1E0A" unicode="&#x1e0a;" horiz-adv-x="1468" 
d="M549 1487q218 0 374.5 -51.5t249.5 -151t136 -232.5t43 -307q0 -137 -24 -247.5t-80.5 -205t-145.5 -158t-223 -99t-308 -35.5h-366v1487h344zM270 66h303q356 0 532.5 164t176.5 515t-182.5 513.5t-550.5 162.5h-279v-1355zM725 1681h-82v148h82v-148z" />
    <glyph glyph-name="uni1E0B" unicode="&#x1e0b;" horiz-adv-x="1165" 
d="M926 246q-69 -128 -161.5 -198.5t-223.5 -70.5q-199 0 -317 146t-118 401q0 135 40 244t105.5 175t144 101t161.5 35q135 0 229 -63t140 -172v643h65v-1487h-65v246zM176 524q0 -221 100.5 -355t264.5 -134q157 0 267.5 129t117.5 338v22q0 226 -93.5 362t-275.5 136
q-165 0 -273 -141t-108 -357zM590 1327h-82v148h82v-148z" />
    <glyph glyph-name="uni1E0C" unicode="&#x1e0c;" horiz-adv-x="1468" 
d="M549 1487q218 0 374.5 -51.5t249.5 -151t136 -232.5t43 -307q0 -137 -24 -247.5t-80.5 -205t-145.5 -158t-223 -99t-308 -35.5h-366v1487h344zM270 66h303q356 0 532.5 164t176.5 515t-182.5 513.5t-550.5 162.5h-279v-1355zM727 -342h-82v147h82v-147z" />
    <glyph glyph-name="uni1E0D" unicode="&#x1e0d;" horiz-adv-x="1165" 
d="M926 246q-69 -128 -161.5 -198.5t-223.5 -70.5q-199 0 -317 146t-118 401q0 135 40 244t105.5 175t144 101t161.5 35q135 0 229 -63t140 -172v643h65v-1487h-65v246zM176 524q0 -221 100.5 -355t264.5 -134q157 0 267.5 129t117.5 338v22q0 226 -93.5 362t-275.5 136
q-165 0 -273 -141t-108 -357zM561 -342h-82v147h82v-147z" />
    <glyph glyph-name="uni1E0E" unicode="&#x1e0e;" horiz-adv-x="1468" 
d="M549 1487q218 0 374.5 -51.5t249.5 -151t136 -232.5t43 -307q0 -137 -24 -247.5t-80.5 -205t-145.5 -158t-223 -99t-308 -35.5h-366v1487h344zM270 66h303q356 0 532.5 164t176.5 515t-182.5 513.5t-550.5 162.5h-279v-1355zM889 -289h-475v60h475v-60z" />
    <glyph glyph-name="uni1E0F" unicode="&#x1e0f;" horiz-adv-x="1165" 
d="M926 246q-69 -128 -161.5 -198.5t-223.5 -70.5q-199 0 -317 146t-118 401q0 135 40 244t105.5 175t144 101t161.5 35q135 0 229 -63t140 -172v643h65v-1487h-65v246zM176 524q0 -221 100.5 -355t264.5 -134q157 0 267.5 129t117.5 338v22q0 226 -93.5 362t-275.5 136
q-165 0 -273 -141t-108 -357zM760 -289h-479v60h479v-60z" />
    <glyph glyph-name="uni1E10" unicode="&#x1e10;" horiz-adv-x="1468" 
d="M549 1487q218 0 374.5 -51.5t249.5 -151t136 -232.5t43 -307q0 -137 -24 -247.5t-80.5 -205t-145.5 -158t-223 -99t-308 -35.5h-366v1487h344zM270 66h303q356 0 532.5 164t176.5 515t-182.5 513.5t-550.5 162.5h-279v-1355zM682 -283h-35v127h84v-123l-53 -188h-43z" />
    <glyph glyph-name="uni1E11" unicode="&#x1e11;" horiz-adv-x="1165" 
d="M926 246q-69 -128 -161.5 -198.5t-223.5 -70.5q-199 0 -317 146t-118 401q0 135 40 244t105.5 175t144 101t161.5 35q135 0 229 -63t140 -172v643h65v-1487h-65v246zM176 524q0 -221 100.5 -355t264.5 -134q157 0 267.5 129t117.5 338v22q0 226 -93.5 362t-275.5 136
q-165 0 -273 -141t-108 -357zM479 -156h84v-123l-53 -188h-43l47 184h-35v127z" />
    <glyph glyph-name="uni1E1E" unicode="&#x1e1e;" horiz-adv-x="1101" 
d="M1040 1487v-62h-770v-639h729v-61h-729v-725h-65v1487h835zM664 1681h-82v148h82v-148z" />
    <glyph glyph-name="uni1E1F" unicode="&#x1e1f;" horiz-adv-x="569" 
d="M231 1219q0 276 230 276q52 0 96 -8v-57q-65 10 -98 10q-83 0 -122.5 -50t-39.5 -163v-170h246v-58h-246v-999h-66v999h-200v58h200v162zM440 1681h-82v148h82v-148z" />
    <glyph glyph-name="uni1E20" unicode="&#x1e20;" horiz-adv-x="1427" 
d="M1231 0q-8 100 -8 270h-9q-74 -149 -193 -221t-298 -72q-275 0 -440.5 208t-165.5 552q0 352 166.5 560t455.5 208q214 0 359.5 -108.5t181.5 -317.5h-74q-36 179 -162 272t-305 93q-111 0 -202.5 -35t-156 -98t-108.5 -152t-65 -194.5t-21 -227.5q0 -203 67.5 -362
t190 -247.5t279.5 -88.5q500 0 500 616v66h-484v57h549v-778h-57zM977 1716h-475v60h475v-60z" />
    <glyph glyph-name="uni1E21" unicode="&#x1e21;" horiz-adv-x="1148" 
d="M109 541q0 130 39 235.5t103 170t141.5 98.5t158.5 34q131 0 223.5 -63.5t136.5 -171.5v213h66v-922q0 -98 -10.5 -175.5t-39.5 -150.5t-76.5 -121t-125.5 -77t-182 -29q-93 0 -169 29t-124 77.5t-74 109.5t-26 128h65q0 -116 92 -201t236 -85q72 0 129 16.5t95 42.5
t65.5 67t42.5 80.5t23.5 94t10.5 96.5t2 98v152q-66 -125 -157 -193.5t-219 -68.5q-197 0 -311.5 136t-114.5 380zM178 541q0 -212 97.5 -335.5t259.5 -123.5q159 0 267.5 125.5t108.5 333.5v20q-5 212 -96 336.5t-264 124.5q-162 0 -267.5 -135t-105.5 -346zM807 1362h-479
v59h479v-59z" />
    <glyph glyph-name="uni1E22" unicode="&#x1e22;" horiz-adv-x="1441" 
d="M270 733v-733h-65v1487h65v-692h901v692h66v-1487h-66v733h-901zM762 1681h-82v148h82v-148z" />
    <glyph glyph-name="uni1E23" unicode="&#x1e23;" horiz-adv-x="1122" 
d="M240 1487v-627q105 219 358 219q195 0 279 -106.5t84 -308.5v-664h-66v655q0 194 -73.5 279.5t-229.5 85.5q-45 0 -86.5 -8.5t-90.5 -35.5t-85 -70.5t-61.5 -120t-28.5 -177.5v-608h-66v1487h66zM631 1327h-82v148h82v-148z" />
    <glyph glyph-name="uni1E24" unicode="&#x1e24;" horiz-adv-x="1441" 
d="M270 733v-733h-65v1487h65v-692h901v692h66v-1487h-66v733h-901zM762 -342h-82v147h82v-147z" />
    <glyph glyph-name="uni1E25" unicode="&#x1e25;" horiz-adv-x="1122" 
d="M240 1487v-627q105 219 358 219q195 0 279 -106.5t84 -308.5v-664h-66v655q0 194 -73.5 279.5t-229.5 85.5q-45 0 -86.5 -8.5t-90.5 -35.5t-85 -70.5t-61.5 -120t-28.5 -177.5v-608h-66v1487h66zM608 -342h-82v147h82v-147z" />
    <glyph glyph-name="uni1E2A" unicode="&#x1e2a;" horiz-adv-x="1441" 
d="M270 733v-733h-65v1487h65v-692h901v692h66v-1487h-66v733h-901zM715 -408q-105 0 -166.5 66.5t-61.5 183.5h60q0 -95 44.5 -145.5t123.5 -50.5q77 0 122.5 50.5t45.5 145.5h59q0 -117 -61.5 -183.5t-165.5 -66.5z" />
    <glyph glyph-name="uni1E2B" unicode="&#x1e2b;" horiz-adv-x="1122" 
d="M240 1487v-627q105 219 358 219q195 0 279 -106.5t84 -308.5v-664h-66v655q0 194 -73.5 279.5t-229.5 85.5q-45 0 -86.5 -8.5t-90.5 -35.5t-85 -70.5t-61.5 -120t-28.5 -177.5v-608h-66v1487h66zM590 -410q-105 0 -166.5 66.5t-61.5 183.5h60q0 -95 44.5 -145.5
t123.5 -50.5q77 0 122.5 50.5t45.5 145.5h59q0 -117 -61.5 -183.5t-165.5 -66.5z" />
    <glyph glyph-name="uni1E36" unicode="&#x1e36;" horiz-adv-x="1105" 
d="M270 1487v-1426h811v-61h-876v1487h65zM684 -342h-82v147h82v-147z" />
    <glyph glyph-name="uni1E37" unicode="&#x1e37;" horiz-adv-x="413" 
d="M240 1487v-1487h-66v1487h66zM248 -342h-82v147h82v-147z" />
    <glyph glyph-name="uni1E38" unicode="&#x1e38;" horiz-adv-x="1105" 
d="M270 1487v-1426h811v-61h-876v1487h65zM684 -342h-82v147h82v-147zM475 1716h-475v60h475v-60z" />
    <glyph glyph-name="uni1E39" unicode="&#x1e39;" horiz-adv-x="413" 
d="M240 1487v-1487h-66v1487h66zM248 -342h-82v147h82v-147zM403 1716h-393v60h393v-60z" />
    <glyph glyph-name="uni1E3A" unicode="&#x1e3a;" horiz-adv-x="1105" 
d="M270 1487v-1426h811v-61h-876v1487h65zM879 -289h-476v60h476v-60z" />
    <glyph glyph-name="uni1E3B" unicode="&#x1e3b;" horiz-adv-x="413" 
d="M240 1487v-1487h-66v1487h66zM403 -289h-393v60h393v-60z" />
    <glyph glyph-name="uni1E3E" unicode="&#x1e3e;" horiz-adv-x="1785" 
d="M270 1384v-1384h-65v1487h106l582 -1397l582 1397h106v-1487h-65v1384h-9l-581 -1384h-66l-581 1384h-9zM924 1628h-66l195 227h98z" />
    <glyph glyph-name="uni1E3F" unicode="&#x1e3f;" horiz-adv-x="1679" 
d="M240 1057v-197q20 47 45 83.5t62 68.5t90.5 49.5t119.5 17.5q126 0 198.5 -57.5t102.5 -167.5q45 108 125 166.5t213 58.5q172 0 247 -106.5t75 -308.5v-664h-66v655q0 193 -64.5 279t-197.5 86q-29 0 -53 -2.5t-57 -12t-58.5 -25.5t-53 -46.5t-45.5 -71.5t-30.5 -103.5
t-13.5 -140.5v-618h-66v655q0 193 -64.5 279t-197.5 86q-39 0 -76 -8.5t-80.5 -35.5t-75.5 -70.5t-54.5 -120t-24.5 -177.5v-608h-66v1057h66zM881 1237h-62l182 250h95z" />
    <glyph glyph-name="uni1E40" unicode="&#x1e40;" horiz-adv-x="1785" 
d="M270 1384v-1384h-65v1487h106l582 -1397l582 1397h106v-1487h-65v1384h-9l-581 -1384h-66l-581 1384h-9zM934 1681h-82v148h82v-148z" />
    <glyph glyph-name="uni1E41" unicode="&#x1e41;" horiz-adv-x="1679" 
d="M240 1057v-197q20 47 45 83.5t62 68.5t90.5 49.5t119.5 17.5q126 0 198.5 -57.5t102.5 -167.5q45 108 125 166.5t213 58.5q172 0 247 -106.5t75 -308.5v-664h-66v655q0 193 -64.5 279t-197.5 86q-29 0 -53 -2.5t-57 -12t-58.5 -25.5t-53 -46.5t-45.5 -71.5t-30.5 -103.5
t-13.5 -140.5v-618h-66v655q0 193 -64.5 279t-197.5 86q-39 0 -76 -8.5t-80.5 -35.5t-75.5 -70.5t-54.5 -120t-24.5 -177.5v-608h-66v1057h66zM897 1327h-82v148h82v-148z" />
    <glyph glyph-name="uni1E42" unicode="&#x1e42;" horiz-adv-x="1785" 
d="M270 1384v-1384h-65v1487h106l582 -1397l582 1397h106v-1487h-65v1384h-9l-581 -1384h-66l-581 1384h-9zM934 -342h-82v147h82v-147z" />
    <glyph glyph-name="uni1E43" unicode="&#x1e43;" horiz-adv-x="1679" 
d="M240 1057v-197q20 47 45 83.5t62 68.5t90.5 49.5t119.5 17.5q126 0 198.5 -57.5t102.5 -167.5q45 108 125 166.5t213 58.5q172 0 247 -106.5t75 -308.5v-664h-66v655q0 193 -64.5 279t-197.5 86q-29 0 -53 -2.5t-57 -12t-58.5 -25.5t-53 -46.5t-45.5 -71.5t-30.5 -103.5
t-13.5 -140.5v-618h-66v655q0 193 -64.5 279t-197.5 86q-39 0 -76 -8.5t-80.5 -35.5t-75.5 -70.5t-54.5 -120t-24.5 -177.5v-608h-66v1057h66zM887 -342h-82v147h82v-147z" />
    <glyph glyph-name="uni1E44" unicode="&#x1e44;" horiz-adv-x="1441" 
d="M270 1384v-1384h-65v1487h98l860 -1385h8v1385h66v-1487h-98l-860 1384h-9zM782 1681h-82v148h82v-148z" />
    <glyph glyph-name="uni1E45" unicode="&#x1e45;" horiz-adv-x="1122" 
d="M240 1057v-197q105 219 358 219q195 0 279 -106.5t84 -308.5v-664h-66v655q0 194 -73.5 279.5t-229.5 85.5q-45 0 -86.5 -8.5t-90.5 -35.5t-85 -70.5t-61.5 -120t-28.5 -177.5v-608h-66v1057h66zM618 1327h-81v148h81v-148z" />
    <glyph glyph-name="uni1E46" unicode="&#x1e46;" horiz-adv-x="1441" 
d="M270 1384v-1384h-65v1487h98l860 -1385h8v1385h66v-1487h-98l-860 1384h-9zM762 -342h-82v147h82v-147z" />
    <glyph glyph-name="uni1E47" unicode="&#x1e47;" horiz-adv-x="1122" 
d="M240 1057v-197q105 219 358 219q195 0 279 -106.5t84 -308.5v-664h-66v655q0 194 -73.5 279.5t-229.5 85.5q-45 0 -86.5 -8.5t-90.5 -35.5t-85 -70.5t-61.5 -120t-28.5 -177.5v-608h-66v1057h66zM608 -342h-82v147h82v-147z" />
    <glyph glyph-name="uni1E48" unicode="&#x1e48;" horiz-adv-x="1441" 
d="M270 1384v-1384h-65v1487h98l860 -1385h8v1385h66v-1487h-98l-860 1384h-9zM956 -289h-475v60h475v-60z" />
    <glyph glyph-name="uni1E49" unicode="&#x1e49;" horiz-adv-x="1122" 
d="M240 1057v-197q105 219 358 219q195 0 279 -106.5t84 -308.5v-664h-66v655q0 194 -73.5 279.5t-229.5 85.5q-45 0 -86.5 -8.5t-90.5 -35.5t-85 -70.5t-61.5 -120t-28.5 -177.5v-608h-66v1057h66zM807 -289h-479v60h479v-60z" />
    <glyph glyph-name="uni1E56" unicode="&#x1e56;" horiz-adv-x="1200" 
d="M639 1487q254 0 372.5 -98.5t118.5 -298.5q0 -191 -128.5 -296.5t-337.5 -105.5h-394v-688h-65v1487h434zM270 754h394q192 0 293.5 92t101.5 246q0 93 -31.5 159t-90.5 102t-131.5 52t-166.5 16h-369v-667zM688 1681h-82v148h82v-148z" />
    <glyph glyph-name="uni1E57" unicode="&#x1e57;" horiz-adv-x="1165" 
d="M240 811q45 83 96 139.5t125 92.5t164 36q198 0 316 -145.5t118 -401.5q0 -135 -40 -244t-105.5 -175t-144 -101t-161.5 -35q-134 0 -228 63.5t-140 172.5v-625h-66v1469h66v-246zM989 532q0 221 -100 355.5t-264 134.5q-158 0 -271.5 -134t-113.5 -341v-31
q0 -218 94 -349.5t274 -131.5q165 0 273 140t108 357zM645 1327h-82v148h82v-148z" />
    <glyph glyph-name="uni1E5A" unicode="&#x1e5a;" horiz-adv-x="1247" 
d="M606 1487q256 0 374 -95.5t118 -293.5q0 -143 -89 -239t-231 -130v-8q82 -32 121 -78.5t76 -140.5l192 -502h-73l-183 475q-16 40 -26.5 63t-33 53t-52.5 52q-81 57 -205 57h-324v-700h-65v1487h401zM270 762h340q194 0 305 94t111 244q0 92 -31.5 157.5t-90.5 101
t-131.5 51t-166.5 15.5h-336v-663zM707 -342h-82v147h82v-147z" />
    <glyph glyph-name="uni1E5B" unicode="&#x1e5b;" horiz-adv-x="684" 
d="M240 1057v-205q43 106 129.5 158.5t201.5 52.5q43 0 86 -6v-64q-44 6 -82 6q-159 0 -247 -105.5t-88 -287.5v-606h-66v1057h66zM248 -342h-82v147h82v-147z" />
    <glyph glyph-name="uni1E5C" unicode="&#x1e5c;" horiz-adv-x="1247" 
d="M606 1487q256 0 374 -95.5t118 -293.5q0 -143 -89 -239t-231 -130v-8q82 -32 121 -78.5t76 -140.5l192 -502h-73l-183 475q-16 40 -26.5 63t-33 53t-52.5 52q-81 57 -205 57h-324v-700h-65v1487h401zM270 762h340q194 0 305 94t111 244q0 92 -31.5 157.5t-90.5 101
t-131.5 51t-166.5 15.5h-336v-663zM707 -342h-82v147h82v-147zM862 1716h-475v60h475v-60z" />
    <glyph glyph-name="uni1E5D" unicode="&#x1e5d;" horiz-adv-x="684" 
d="M240 1057v-205q43 106 129.5 158.5t201.5 52.5q43 0 86 -6v-64q-44 6 -82 6q-159 0 -247 -105.5t-88 -287.5v-606h-66v1057h66zM248 -342h-82v147h82v-147zM668 1362h-480v59h480v-59z" />
    <glyph glyph-name="uni1E5E" unicode="&#x1e5e;" horiz-adv-x="1247" 
d="M606 1487q256 0 374 -95.5t118 -293.5q0 -143 -89 -239t-231 -130v-8q82 -32 121 -78.5t76 -140.5l192 -502h-73l-183 475q-16 40 -26.5 63t-33 53t-52.5 52q-81 57 -205 57h-324v-700h-65v1487h401zM270 762h340q194 0 305 94t111 244q0 92 -31.5 157.5t-90.5 101
t-131.5 51t-166.5 15.5h-336v-663zM901 -289h-475v60h475v-60z" />
    <glyph glyph-name="uni1E5F" unicode="&#x1e5f;" horiz-adv-x="684" 
d="M240 1057v-205q43 106 129.5 158.5t201.5 52.5q43 0 86 -6v-64q-44 6 -82 6q-159 0 -247 -105.5t-88 -287.5v-606h-66v1057h66zM403 -289h-393v60h393v-60z" />
    <glyph glyph-name="uni1E60" unicode="&#x1e60;" horiz-adv-x="1171" 
d="M537 756q-52 15 -88 26.5t-81.5 30.5t-76 38.5t-62.5 48.5t-51 62.5t-31 78.5t-12 98q0 159 118.5 262.5t326.5 103.5q235 0 343 -110t113 -340h-65q-2 99 -23.5 170t-67 122t-120 76t-180.5 25q-178 0 -278.5 -88t-100.5 -221q0 -60 20.5 -109t50 -80t81.5 -59t93 -43
t107 -35l82 -25q78 -23 133.5 -44t115.5 -56.5t96.5 -78t60.5 -107t24 -144.5q0 -167 -132.5 -274t-342.5 -107q-231 0 -357.5 122.5t-130.5 361.5h66q10 -219 116.5 -322.5t305.5 -103.5q179 0 294 88.5t115 234.5q0 68 -21 122.5t-53 91.5t-85 68.5t-102.5 50.5t-119.5 40
zM621 1681h-82v148h82v-148z" />
    <glyph glyph-name="uni1E61" unicode="&#x1e61;" horiz-adv-x="991" 
d="M496 514q-80 14 -134.5 28.5t-103 37t-77 53t-44.5 74.5t-16 102q0 122 104 196t271 74q80 0 145.5 -17.5t119.5 -55t85 -104.5t33 -159h-66q-4 143 -87 211t-230 68q-141 0 -223.5 -57.5t-82.5 -155.5q0 -100 68 -147.5t238 -83.5q76 -14 130 -29t107.5 -40t85.5 -57
t52 -81.5t20 -112.5q0 -75 -33.5 -131.5t-91.5 -88t-125.5 -46.5t-144.5 -15q-188 0 -293.5 95.5t-110.5 263.5h66q2 -74 30.5 -133t75.5 -95t106 -54.5t126 -18.5q94 0 164 20.5t115.5 72t45.5 130.5q0 48 -15.5 85.5t-40.5 62.5t-69.5 46t-88.5 34t-111 28zM537 1327h-82
v148h82v-148z" />
    <glyph glyph-name="uni1E62" unicode="&#x1e62;" horiz-adv-x="1171" 
d="M537 756q-52 15 -88 26.5t-81.5 30.5t-76 38.5t-62.5 48.5t-51 62.5t-31 78.5t-12 98q0 159 118.5 262.5t326.5 103.5q235 0 343 -110t113 -340h-65q-2 99 -23.5 170t-67 122t-120 76t-180.5 25q-178 0 -278.5 -88t-100.5 -221q0 -60 20.5 -109t50 -80t81.5 -59t93 -43
t107 -35l82 -25q78 -23 133.5 -44t115.5 -56.5t96.5 -78t60.5 -107t24 -144.5q0 -167 -132.5 -274t-342.5 -107q-231 0 -357.5 122.5t-130.5 361.5h66q10 -219 116.5 -322.5t305.5 -103.5q179 0 294 88.5t115 234.5q0 68 -21 122.5t-53 91.5t-85 68.5t-102.5 50.5t-119.5 40
zM631 -342h-82v147h82v-147z" />
    <glyph glyph-name="uni1E63" unicode="&#x1e63;" horiz-adv-x="991" 
d="M496 514q-80 14 -134.5 28.5t-103 37t-77 53t-44.5 74.5t-16 102q0 122 104 196t271 74q80 0 145.5 -17.5t119.5 -55t85 -104.5t33 -159h-66q-4 143 -87 211t-230 68q-141 0 -223.5 -57.5t-82.5 -155.5q0 -100 68 -147.5t238 -83.5q76 -14 130 -29t107.5 -40t85.5 -57
t52 -81.5t20 -112.5q0 -75 -33.5 -131.5t-91.5 -88t-125.5 -46.5t-144.5 -15q-188 0 -293.5 95.5t-110.5 263.5h66q2 -74 30.5 -133t75.5 -95t106 -54.5t126 -18.5q94 0 164 20.5t115.5 72t45.5 130.5q0 48 -15.5 85.5t-40.5 62.5t-69.5 46t-88.5 34t-111 28zM537 -342h-82
v147h82v-147z" />
    <glyph glyph-name="uni1E6A" unicode="&#x1e6a;" horiz-adv-x="1114" 
d="M1090 1487v-62h-500v-1425h-66v1425h-499v62h1065zM598 1681h-82v148h82v-148z" />
    <glyph glyph-name="uni1E6B" unicode="&#x1e6b;" horiz-adv-x="579" 
d="M231 1270h66v-213h246v-58h-246v-733q0 -116 38.5 -166.5t125.5 -50.5q41 0 96 12v-53q-66 -14 -104 -14q-121 0 -171.5 59.5t-50.5 212.5v733h-200v58h200v213zM305 1473h-82v147h82v-147z" />
    <glyph glyph-name="uni1E6C" unicode="&#x1e6c;" horiz-adv-x="1114" 
d="M1090 1487v-62h-500v-1425h-66v1425h-499v62h1065zM598 -342h-82v147h82v-147z" />
    <glyph glyph-name="uni1E6D" unicode="&#x1e6d;" horiz-adv-x="579" 
d="M231 1270h66v-213h246v-58h-246v-733q0 -116 38.5 -166.5t125.5 -50.5q41 0 96 12v-53q-66 -14 -104 -14q-121 0 -171.5 59.5t-50.5 212.5v733h-200v58h200v213zM416 -342h-82v147h82v-147z" />
    <glyph glyph-name="uni1E6E" unicode="&#x1e6e;" horiz-adv-x="1114" 
d="M1090 1487v-62h-500v-1425h-66v1425h-499v62h1065zM793 -289h-476v60h476v-60z" />
    <glyph glyph-name="uni1E6F" unicode="&#x1e6f;" horiz-adv-x="579" 
d="M231 1270h66v-213h246v-58h-246v-733q0 -116 38.5 -166.5t125.5 -50.5q41 0 96 12v-53q-66 -14 -104 -14q-121 0 -171.5 59.5t-50.5 212.5v733h-200v58h200v213zM567 -289h-393v60h393v-60z" />
    <glyph glyph-name="uni1E7C" unicode="&#x1e7c;" horiz-adv-x="1257" 
d="M633 86q41 103 94 242l426 1159h78l-565 -1487h-74l-565 1487h77l426 -1159q37 -98 95 -242h8zM745 1665q-34 0 -69 16.5t-59 37t-53 37t-52 16.5q-33 0 -56 -24.5t-40 -82.5h-60q28 168 156 168q35 0 71 -16.5t60 -37t52 -37t50 -16.5q34 0 57 24.5t40 82.5h59
q-28 -168 -156 -168z" />
    <glyph glyph-name="uni1E7D" unicode="&#x1e7d;" horiz-adv-x="962" 
d="M43 1057h74l360 -1000h8l365 1000h70l-394 -1057h-90zM602 1282q-33 0 -69 17t-62.5 37.5t-57 37.5t-53.5 17q-67 0 -98 -109h-57q28 168 155 168q35 0 72.5 -17t64 -37.5t55.5 -37.5t50 -17q67 0 98 109h58q-28 -168 -156 -168z" />
    <glyph glyph-name="Wgrave" unicode="&#x1e80;" horiz-adv-x="1830" 
d="M1792 1487l-418 -1487h-74l-380 1386h-9l-381 -1386h-73l-418 1487h78l372 -1385h9l381 1385h82l372 -1385h8l381 1385h70zM760 1855l194 -227h-65l-227 227h98z" />
    <glyph glyph-name="wgrave" unicode="&#x1e81;" horiz-adv-x="1490" 
d="M49 1057h70l274 -1000h8l308 1000h77l304 -1000h8l278 1000h66l-303 -1057h-90l-299 969h-9l-299 -969h-90zM778 1237h-61l-215 250h94z" />
    <glyph glyph-name="Wacute" unicode="&#x1e82;" horiz-adv-x="1830" 
d="M1792 1487l-418 -1487h-74l-380 1386h-9l-381 -1386h-73l-418 1487h78l372 -1385h9l381 1385h82l372 -1385h8l381 1385h70zM942 1628h-65l194 227h98z" />
    <glyph glyph-name="wacute" unicode="&#x1e83;" horiz-adv-x="1490" 
d="M49 1057h70l274 -1000h8l308 1000h77l304 -1000h8l278 1000h66l-303 -1057h-90l-299 969h-9l-299 -969h-90zM766 1237h-61l182 250h94z" />
    <glyph glyph-name="Wdieresis" unicode="&#x1e84;" horiz-adv-x="1830" 
d="M1792 1487l-418 -1487h-74l-380 1386h-9l-381 -1386h-73l-418 1487h78l372 -1385h9l381 1385h82l372 -1385h8l381 1385h70zM1139 1681h-82v148h82v-148zM774 1681h-82v148h82v-148z" />
    <glyph glyph-name="wdieresis" unicode="&#x1e85;" horiz-adv-x="1490" 
d="M49 1057h70l274 -1000h8l308 1000h77l304 -1000h8l278 1000h66l-303 -1057h-90l-299 969h-9l-299 -969h-90zM967 1327h-82v148h82v-148zM606 1327h-82v148h82v-148z" />
    <glyph glyph-name="uni1E8A" unicode="&#x1e8a;" horiz-adv-x="1204" 
d="M563 760l-518 727h78l479 -672l479 672h78l-518 -727l543 -760h-78l-504 707l-504 -707h-78zM643 1681h-82v148h82v-148z" />
    <glyph glyph-name="uni1E8B" unicode="&#x1e8b;" horiz-adv-x="940" 
d="M915 0h-77l-373 504l-356 -504h-78l397 551l-373 506h78l334 -453l338 453h78l-379 -500zM514 1327h-82v148h82v-148z" />
    <glyph glyph-name="uni1E92" unicode="&#x1e92;" horiz-adv-x="1095" 
d="M940 1423h-858v64h936v-64l-877 -1362h916v-61h-1000v61zM598 -342h-82v147h82v-147z" />
    <glyph glyph-name="uni1E93" unicode="&#x1e93;" horiz-adv-x="919" 
d="M88 999v58h754v-58l-701 -942h717v-57h-795v57l701 942h-676zM502 -342h-82v147h82v-147z" />
    <glyph glyph-name="uni1E97" unicode="&#x1e97;" horiz-adv-x="579" 
d="M231 1270h66v-213h246v-58h-246v-733q0 -116 38.5 -166.5t125.5 -50.5q41 0 96 12v-53q-66 -14 -104 -14q-121 0 -171.5 59.5t-50.5 212.5v733h-200v58h200v213zM436 1473h-82v147h82v-147zM174 1473h-82v147h82v-147z" />
    <glyph glyph-name="Germandbls" unicode="&#x1e9e;" horiz-adv-x="1409" 
d="M580 360q29 -168 112 -246.5t236 -78.5q162 0 254 78.5t92 224.5q0 56 -16 105.5t-40.5 86t-64 72t-74.5 59.5t-84 52q-82 46 -138 84t-105.5 87.5t-74 108t-24.5 127.5q0 107 63.5 195t147.5 106v4h-594v-1425h-65v1487h893v-57q-50 0 -100 -10.5t-100.5 -34.5
t-89.5 -58.5t-63 -88t-24 -118.5q0 -56 23 -105.5t70 -93.5t93.5 -77t118.5 -76q52 -31 82 -51t72 -52t66 -62t48 -70t34.5 -89t10.5 -106q0 -166 -110.5 -263.5t-300.5 -97.5q-360 0 -412 383h64z" />
    <glyph glyph-name="uni1EA0" unicode="&#x1ea0;" horiz-adv-x="1343" 
d="M295 487l-197 -487h-78l615 1487h74l614 -1487h-78l-198 487h-752zM668 1401q-43 -108 -128.5 -315.5t-109.5 -266.5l-111 -270h703l-109 270q-32 81 -114 279.5t-123 302.5h-8zM713 -342h-82v147h82v-147z" />
    <glyph glyph-name="uni1EA1" unicode="&#x1ea1;" horiz-adv-x="1054" 
d="M829 688q0 176 -75 256t-230 80q-140 0 -225.5 -76t-85.5 -196h-70q0 143 105.5 236t275.5 93q34 0 62.5 -2t68 -11.5t71 -24.5t64.5 -44.5t55 -68.5t36 -99.5t14 -134.5q0 -386 3 -513.5t11 -182.5h-67q-9 79 -11 199q-118 -222 -372 -222q-160 0 -257.5 73t-97.5 210
q0 48 11.5 88.5t30.5 72t51.5 57.5t67.5 45.5t86 35t99.5 26t115 19.5t125.5 15t138 12v57zM459 35q154 0 262 104.5t108 268.5v163q-278 -25 -380 -48q-192 -43 -247 -145q-26 -49 -26 -116q0 -64 27.5 -111t72 -70.5t90 -34.5t93.5 -11zM541 -342h-82v147h82v-147z" />
    <glyph glyph-name="uni1EB8" unicode="&#x1eb8;" horiz-adv-x="1185" 
d="M1073 1487v-62h-803v-622h762v-62h-762v-680h828v-61h-893v1487h868zM692 -342h-82v147h82v-147z" />
    <glyph glyph-name="uni1EB9" unicode="&#x1eb9;" horiz-adv-x="1075" 
d="M176 524q0 -228 102 -358.5t271 -130.5q127 0 223 75t121 187h65q-32 -146 -145 -233t-264 -87q-196 0 -319.5 145t-123.5 402q0 136 38 244.5t101 174.5t141 101t163 35q110 0 192.5 -40.5t133 -115t75.5 -174.5t25 -225h-799zM549 1022q-155 0 -256.5 -116.5
t-114.5 -323.5h723q-8 214 -96 327t-256 113zM590 -342h-82v147h82v-147z" />
    <glyph glyph-name="uni1EBC" unicode="&#x1ebc;" horiz-adv-x="1185" 
d="M1073 1487v-62h-803v-622h762v-62h-762v-680h828v-61h-893v1487h868zM756 1665q-34 0 -69 16.5t-59.5 37t-53.5 37t-52 16.5q-33 0 -56 -24.5t-40 -82.5h-59q28 168 155 168q35 0 71 -16.5t60.5 -37t52.5 -37t50 -16.5q33 0 56 24.5t40 82.5h59q-28 -168 -155 -168z" />
    <glyph glyph-name="uni1EBD" unicode="&#x1ebd;" horiz-adv-x="1075" 
d="M176 524q0 -228 102 -358.5t271 -130.5q127 0 223 75t121 187h65q-32 -146 -145 -233t-264 -87q-196 0 -319.5 145t-123.5 402q0 136 38 244.5t101 174.5t141 101t163 35q110 0 192.5 -40.5t133 -115t75.5 -174.5t25 -225h-799zM549 1022q-155 0 -256.5 -116.5
t-114.5 -323.5h723q-8 214 -96 327t-256 113zM670 1282q-33 0 -69 17t-62.5 37.5t-57 37.5t-53.5 17q-67 0 -98 -109h-58q28 168 156 168q35 0 72.5 -17t64 -37.5t55.5 -37.5t50 -17q67 0 98 109h57q-28 -168 -155 -168z" />
    <glyph glyph-name="uni1ECA" unicode="&#x1eca;" horiz-adv-x="475" 
d="M270 1487v-1487h-65v1487h65zM279 -342h-82v147h82v-147z" />
    <glyph glyph-name="uni1ECB" unicode="&#x1ecb;" horiz-adv-x="413" 
d="M240 1057v-1057h-66v1057h66zM248 1475v-148h-82v148h82zM248 -342h-82v147h82v-147z" />
    <glyph glyph-name="uni1ECC" unicode="&#x1ecc;" horiz-adv-x="1507" 
d="M754 39q251 0 410 190t159 516q0 163 -43 295.5t-118.5 220.5t-180 135.5t-227.5 47.5t-227.5 -47.5t-180.5 -135.5t-119 -220.5t-43 -295.5q0 -326 159 -516t411 -190zM754 -23q-284 0 -461.5 210.5t-177.5 557.5q0 230 81.5 403t226 265t331.5 92t331.5 -92t226 -265
t81.5 -403q0 -347 -177.5 -557.5t-461.5 -210.5zM795 -342h-82v147h82v-147z" />
    <glyph glyph-name="uni1ECD" unicode="&#x1ecd;" horiz-adv-x="1126" 
d="M563 35q180 0 284.5 136t104.5 361q0 224 -104.5 357t-284.5 133t-284.5 -136.5t-104.5 -361.5q0 -224 104.5 -356.5t284.5 -132.5zM563 -23q-205 0 -332 149t-127 398q0 250 127.5 402.5t331.5 152.5q205 0 332 -149t127 -398q0 -250 -127.5 -402.5t-331.5 -152.5z
M604 -342h-82v147h82v-147z" />
    <glyph glyph-name="uni1EE4" unicode="&#x1ee4;" horiz-adv-x="1392" 
d="M696 45q216 0 329.5 119.5t113.5 343.5v979h65v-979q0 -268 -133 -396t-375 -128t-375 128t-133 396v979h66v-979q0 -224 113 -343.5t329 -119.5zM737 -342h-82v147h82v-147z" />
    <glyph glyph-name="uni1EE5" unicode="&#x1ee5;" horiz-adv-x="1122" 
d="M883 0v197q-24 -47 -53 -83.5t-71 -69t-101.5 -50t-133.5 -17.5q-195 0 -278.5 107t-83.5 309v664h65v-656q0 -194 73.5 -279t229.5 -85q43 0 84 8t90.5 35t86.5 69.5t63 119t29 177.5v611h65v-1057h-65zM565 -342h-82v147h82v-147z" />
    <glyph glyph-name="Ygrave" unicode="&#x1ef2;" horiz-adv-x="1159" 
d="M31 1487h73l476 -754l475 754h73l-516 -815v-672h-65v672zM424 1855l194 -227h-65l-227 227h98z" />
    <glyph glyph-name="ygrave" unicode="&#x1ef3;" horiz-adv-x="960" 
d="M117 1057l358 -959h8l367 959h70l-463 -1207q-55 -149 -129 -209.5t-187 -60.5q-51 0 -90 10v58q41 -8 90 -8q47 0 83 14t63.5 38.5t54.5 73t49 101.5t53 141l-401 1049h74zM514 1237h-61l-215 250h94z" />
    <glyph glyph-name="uni1EF8" unicode="&#x1ef8;" horiz-adv-x="1159" 
d="M31 1487h73l476 -754l475 754h73l-516 -815v-672h-65v672zM696 1665q-34 0 -69 16.5t-59 37t-53 37t-52 16.5q-33 0 -56 -24.5t-40 -82.5h-60q28 168 156 168q35 0 71 -16.5t60 -37t52 -37t50 -16.5q34 0 57 24.5t40 82.5h59q-28 -168 -156 -168z" />
    <glyph glyph-name="uni1EF9" unicode="&#x1ef9;" horiz-adv-x="960" 
d="M117 1057l358 -959h8l367 959h70l-463 -1207q-55 -149 -129 -209.5t-187 -60.5q-51 0 -90 10v58q41 -8 90 -8q47 0 83 14t63.5 38.5t54.5 73t49 101.5t53 141l-401 1049h74zM602 1282q-33 0 -69 17t-62.5 37.5t-57 37.5t-53.5 17q-67 0 -98 -109h-57q28 168 155 168
q35 0 72.5 -17t64 -37.5t55.5 -37.5t50 -17q67 0 98 109h58q-28 -168 -156 -168z" />
    <glyph glyph-name="uni2000" unicode="&#x2000;" horiz-adv-x="1024" 
 />
    <glyph glyph-name="uni2001" unicode="&#x2001;" horiz-adv-x="2048" 
 />
    <glyph glyph-name="uni2002" unicode="&#x2002;" horiz-adv-x="1024" 
 />
    <glyph glyph-name="uni2003" unicode="&#x2003;" horiz-adv-x="2048" 
 />
    <glyph glyph-name="uni2004" unicode="&#x2004;" horiz-adv-x="681" 
 />
    <glyph glyph-name="uni2005" unicode="&#x2005;" horiz-adv-x="512" 
 />
    <glyph glyph-name="uni2006" unicode="&#x2006;" horiz-adv-x="342" 
 />
    <glyph glyph-name="uni2007" unicode="&#x2007;" 
 />
    <glyph glyph-name="uni2008" unicode="&#x2008;" horiz-adv-x="380" 
 />
    <glyph glyph-name="uni2009" unicode="&#x2009;" horiz-adv-x="256" 
 />
    <glyph glyph-name="uni200A" unicode="&#x200a;" horiz-adv-x="86" 
 />
    <glyph glyph-name="uni200B" unicode="&#x200b;" horiz-adv-x="0" 
 />
    <glyph glyph-name="figuredash" unicode="&#x2012;" 
d="M1094 623v-58h-899v58h899z" />
    <glyph glyph-name="endash" unicode="&#x2013;" horiz-adv-x="1189" 
d="M1044 623v-58h-899v58h899z" />
    <glyph glyph-name="emdash" unicode="&#x2014;" horiz-adv-x="1705" 
d="M1561 623v-58h-1416v58h1416z" />
    <glyph glyph-name="uni2015" unicode="&#x2015;" horiz-adv-x="1705" 
d="M1561 623v-58h-1416v58h1416z" />
    <glyph glyph-name="quoteleft" unicode="&#x2018;" horiz-adv-x="356" 
d="M229 1208v-114h-106v123l49 270h55l-49 -279h51z" />
    <glyph glyph-name="quoteright" unicode="&#x2019;" horiz-adv-x="346" 
d="M127 1372v115h106v-123l-49 -270h-55l49 278h-51z" />
    <glyph glyph-name="quotesinglbase" unicode="&#x201a;" horiz-adv-x="344" 
d="M119 8v115h106v-123l-49 -270h-55l49 278h-51z" />
    <glyph glyph-name="quotereversed" unicode="&#x201b;" horiz-adv-x="346" 
d="M217 1094h-55l-49 270v123h106v-115h-51z" />
    <glyph glyph-name="quotedblleft" unicode="&#x201c;" horiz-adv-x="610" 
d="M483 1208v-114h-106v123l49 270h55l-49 -279h51zM229 1208v-114h-106v123l49 270h55l-49 -279h51z" />
    <glyph glyph-name="quotedblright" unicode="&#x201d;" horiz-adv-x="600" 
d="M127 1372v115h106v-123l-49 -270h-55l49 278h-51zM381 1372v115h106v-123l-49 -270h-55l49 278h-51z" />
    <glyph glyph-name="quotedblbase" unicode="&#x201e;" horiz-adv-x="598" 
d="M119 8v115h106v-123l-49 -270h-55l49 278h-51zM373 8v115h106v-123l-49 -270h-55l49 278h-51z" />
    <glyph glyph-name="uni201F" unicode="&#x201f;" horiz-adv-x="600" 
d="M471 1094h-55l-49 270v123h106v-115h-51zM217 1094h-55l-49 270v123h106v-115h-51z" />
    <glyph glyph-name="dagger" unicode="&#x2020;" horiz-adv-x="915" 
d="M57 997v54h373v436h59v-436h369v-54h-369v-999h-59v999h-373z" />
    <glyph glyph-name="daggerdbl" unicode="&#x2021;" horiz-adv-x="985" 
d="M465 997h-373v54h373v436h59v-436h369v-54h-369v-721h369v-53h-369v-459h-59v459h-373v53h373v721z" />
    <glyph glyph-name="bullet" unicode="&#x2022;" horiz-adv-x="671" 
d="M494 725q0 -69 -44.5 -114.5t-111.5 -45.5q-69 0 -114.5 45.5t-45.5 114.5q0 68 45.5 113t114.5 45q67 0 111.5 -45t44.5 -113z" />
    <glyph glyph-name="ellipsis" unicode="&#x2026;" horiz-adv-x="1036" 
d="M244 123v-123h-107v123h107zM571 123v-123h-106v123h106zM899 123v-123h-106v123h106z" />
    <glyph glyph-name="perthousand" unicode="&#x2030;" horiz-adv-x="2519" 
d="M150 1004q0 -190 64 -284.5t165 -94.5t165 94.5t64 284.5q0 189 -63.5 277.5t-165.5 88.5t-165.5 -88.5t-63.5 -277.5zM84 1004q0 202 76.5 309.5t218.5 107.5t218.5 -107.5t76.5 -309.5q0 -203 -77.5 -317t-217.5 -114t-217.5 114t-77.5 317zM1280 1425l-754 -1458h-57
l754 1458h57zM1153 408q0 -190 64 -284.5t165 -94.5t165.5 94.5t64.5 284.5q0 189 -64 277.5t-166 88.5t-165.5 -88.5t-63.5 -277.5zM1087 408q0 202 76.5 309.5t218.5 107.5t218.5 -107.5t76.5 -309.5q0 -203 -77.5 -317t-217.5 -114t-217.5 114t-77.5 317zM1911 408
q0 -190 64 -284.5t165 -94.5t165.5 94.5t64.5 284.5q0 189 -64 277.5t-166 88.5t-165.5 -88.5t-63.5 -277.5zM1845 408q0 202 76.5 309.5t218.5 107.5t218.5 -107.5t76.5 -309.5q0 -203 -77.5 -317t-217.5 -114t-217.5 114t-77.5 317z" />
    <glyph glyph-name="minute" unicode="&#x2032;" horiz-adv-x="337" 
d="M205 1399l-19 -451h-32l-23 451h74z" />
    <glyph glyph-name="second" unicode="&#x2033;" horiz-adv-x="559" 
d="M205 1399l-19 -451h-32l-23 451h74zM205 1399l-19 -451h-32l-23 451h74zM426 1399l-18 -451h-33l-23 451h74z" />
    <glyph glyph-name="guilsinglleft" unicode="&#x2039;" horiz-adv-x="481" 
d="M309 969h58l-203 -408l203 -418h-58l-213 418z" />
    <glyph glyph-name="guilsinglright" unicode="&#x203a;" horiz-adv-x="481" 
d="M115 143l202 418l-202 408h57l213 -408l-213 -418h-57z" />
    <glyph glyph-name="fraction" unicode="&#x2044;" horiz-adv-x="245" 
d="M522 1425l-753 -1458h-58l754 1458h57z" />
    <glyph glyph-name="uni2070" unicode="&#x2070;" horiz-adv-x="757" 
d="M150 1386q0 -190 64 -284t165 -94t165 94t64 284q0 189 -63.5 278t-165.5 89t-165.5 -89t-63.5 -278zM84 1386q0 202 77 310t218 108t218 -108t77 -310q0 -203 -77.5 -316.5t-217.5 -113.5t-217.5 113.5t-77.5 316.5z" />
    <glyph glyph-name="uni2074" unicode="&#x2074;" horiz-adv-x="696" 
d="M506 1782v-525h139v-49h-139v-229h-57v229h-402v41l393 533h66zM449 1257v451l-336 -451h336z" />
    <glyph glyph-name="uni2075" unicode="&#x2075;" horiz-adv-x="673" 
d="M328 1008q98 0 155.5 61t57.5 164q0 99 -49 157t-140 58q-149 0 -221 -141h-41l49 475h434v-53h-385l-36 -312q75 82 200 82q113 0 179.5 -69t66.5 -197q0 -127 -75.5 -202t-194.5 -75q-106 0 -173.5 61t-80.5 175h57q10 -90 63 -137t134 -47z" />
    <glyph glyph-name="uni2076" unicode="&#x2076;" horiz-adv-x="696" 
d="M547 1591q-32 162 -174 162q-205 0 -228 -381q35 59 93.5 88t128.5 29q112 0 183 -70t71 -186q0 -123 -73 -200t-190 -77q-272 0 -272 375q0 232 74 352.5t215 120.5q102 0 159.5 -56.5t69.5 -156.5h-57zM367 1438q-92 0 -152.5 -59t-60.5 -146q0 -94 59.5 -159.5
t144.5 -65.5q92 0 148.5 62.5t56.5 162.5q0 86 -56 145.5t-140 59.5z" />
    <glyph glyph-name="uni2077" unicode="&#x2077;" horiz-adv-x="593" 
d="M186 979q67 407 303 750h-450v53h516v-49q-237 -338 -311 -754h-58z" />
    <glyph glyph-name="uni2078" unicode="&#x2078;" horiz-adv-x="700" 
d="M350 1006q84 0 146.5 54t62.5 132q0 86 -62.5 133t-146.5 47t-146.5 -47t-62.5 -133q0 -78 62.5 -132t146.5 -54zM350 1421q79 0 136 42.5t57 113.5q0 86 -56 132t-137 46t-136.5 -46t-55.5 -132q0 -71 56.5 -113.5t135.5 -42.5zM350 956q-118 0 -192 63t-74 173
q0 143 139 205q-123 55 -123 180q0 108 74 167.5t176 59.5t176 -59.5t74 -167.5q0 -125 -123 -180q139 -62 139 -205q0 -112 -73.5 -174t-192.5 -62z" />
    <glyph glyph-name="uni2079" unicode="&#x2079;" horiz-adv-x="694" 
d="M150 1169q32 -161 174 -161q204 0 227 381q-70 -117 -221 -117q-112 0 -183 70t-71 186q0 123 72.5 199.5t189.5 76.5q272 0 272 -374q0 -232 -73.5 -353t-214.5 -121q-103 0 -160.5 56.5t-69.5 156.5h58zM330 1323q92 0 152.5 59t60.5 146q0 94 -60 159.5t-145 65.5
q-92 0 -148.5 -62.5t-56.5 -162.5q0 -88 56 -146.5t141 -58.5z" />
    <glyph glyph-name="uni2080" unicode="&#x2080;" horiz-adv-x="757" 
d="M150 106q0 -190 64 -284t165 -94t165 94t64 284q0 189 -63.5 278t-165.5 89t-165.5 -89t-63.5 -278zM84 106q0 202 77 310t218 108t218 -108t77 -310q0 -203 -77.5 -316.5t-217.5 -113.5t-217.5 113.5t-77.5 316.5z" />
    <glyph glyph-name="uni2081" unicode="&#x2081;" horiz-adv-x="419" 
d="M238 330q-47 -33 -164 -33h-25v49q66 2 104.5 10t59.5 27.5t27 45.5t6 73h49v-803h-57v631z" />
    <glyph glyph-name="uni2082" unicode="&#x2082;" horiz-adv-x="684" 
d="M326 10q-82 -40 -137.5 -106.5t-59.5 -151.5h483v-53h-540v25q0 107 49 185.5t172 141.5l49 25q101 51 149 104.5t48 120.5q0 73 -52.5 121.5t-136.5 48.5q-81 0 -141 -55t-64 -140h-57q5 106 77.5 176t184.5 70q113 0 179.5 -56.5t66.5 -164.5q0 -49 -17.5 -90.5
t-50.5 -73.5t-69 -55.5t-84 -46.5z" />
    <glyph glyph-name="uni2083" unicode="&#x2083;" horiz-adv-x="696" 
d="M127 -78q10 -89 71.5 -141.5t149.5 -52.5q96 0 154.5 52t58.5 132q0 86 -71 129t-175 43q-48 0 -65 -4v57q12 -4 57 -4q56 0 104.5 18.5t82.5 59.5t34 98q0 77 -51 119.5t-137 42.5q-78 0 -132 -47.5t-65 -122.5h-57q17 102 86.5 161.5t167.5 59.5q48 0 90 -11.5
t78 -35.5t57 -66.5t21 -99.5q0 -131 -150 -196q89 -16 135.5 -72t46.5 -129q0 -107 -76 -171.5t-194 -64.5q-121 0 -194 66t-84 180h57z" />
    <glyph glyph-name="uni2084" unicode="&#x2084;" horiz-adv-x="696" 
d="M506 502v-525h139v-49h-139v-229h-57v229h-402v41l393 533h66zM449 -23v451l-336 -451h336z" />
    <glyph glyph-name="uni2085" unicode="&#x2085;" horiz-adv-x="673" 
d="M328 -272q98 0 155.5 61t57.5 164q0 99 -49 157t-140 58q-149 0 -221 -141h-41l49 475h434v-53h-385l-36 -312q75 82 200 82q113 0 179.5 -69t66.5 -197q0 -127 -75.5 -202t-194.5 -75q-106 0 -173.5 61t-80.5 175h57q10 -90 63 -137t134 -47z" />
    <glyph glyph-name="uni2086" unicode="&#x2086;" horiz-adv-x="696" 
d="M547 311q-32 162 -174 162q-205 0 -228 -381q35 59 93.5 88t128.5 29q112 0 183 -70t71 -186q0 -123 -73 -200t-190 -77q-272 0 -272 375q0 232 74 352.5t215 120.5q102 0 159.5 -56.5t69.5 -156.5h-57zM367 158q-92 0 -152.5 -59t-60.5 -146q0 -94 59.5 -159.5
t144.5 -65.5q92 0 148.5 62.5t56.5 162.5q0 86 -56 145.5t-140 59.5z" />
    <glyph glyph-name="uni2087" unicode="&#x2087;" horiz-adv-x="593" 
d="M186 -301q67 407 303 750h-450v53h516v-49q-237 -338 -311 -754h-58z" />
    <glyph glyph-name="uni2088" unicode="&#x2088;" horiz-adv-x="700" 
d="M350 -274q84 0 146.5 54t62.5 132q0 86 -62.5 133t-146.5 47t-146.5 -47t-62.5 -133q0 -78 62.5 -132t146.5 -54zM350 141q79 0 136 42.5t57 113.5q0 86 -56 132t-137 46t-136.5 -46t-55.5 -132q0 -71 56.5 -113.5t135.5 -42.5zM350 -324q-118 0 -192 63t-74 173
q0 143 139 205q-123 55 -123 180q0 108 74 167.5t176 59.5t176 -59.5t74 -167.5q0 -125 -123 -180q139 -62 139 -205q0 -112 -73.5 -174t-192.5 -62z" />
    <glyph glyph-name="uni2089" unicode="&#x2089;" horiz-adv-x="694" 
d="M150 -111q32 -161 174 -161q204 0 227 381q-70 -117 -221 -117q-112 0 -183 70t-71 186q0 123 72.5 199.5t189.5 76.5q272 0 272 -374q0 -232 -73.5 -353t-214.5 -121q-103 0 -160.5 56.5t-69.5 156.5h58zM330 43q92 0 152.5 59t60.5 146q0 94 -60 159.5t-145 65.5
q-92 0 -148.5 -62.5t-56.5 -162.5q0 -88 56 -146.5t141 -58.5z" />
    <glyph glyph-name="colonmonetary" unicode="&#x20a1;" horiz-adv-x="1208" 
d="M885 1581l-23 -207q235 -122 246 -430h-70q-9 256 -184 365l-139 -1268q141 25 232 139.5t108 288.5h65q-6 -110 -43 -200.5t-95 -148.5t-127.5 -92.5t-145.5 -43.5l-21 -189h-53l20 182h-8q-111 0 -213 50l-24 -232h-54l29 260q-130 87 -203 258t-73 398
q0 291 114.5 479t311.5 225l18 166h53l-18 -158q7 0 21.5 1t21.5 1q88 0 180 -28l20 184h54zM631 1366q-17 0 -49 -4l-140 -1270q88 -55 205 -55h15l141 1296q-73 33 -172 33zM176 711q0 -202 56.5 -351.5t160.5 -232.5l135 1225q-164 -42 -258 -210t-94 -431z" />
    <glyph glyph-name="uni20A6" unicode="&#x20a6;" horiz-adv-x="1372" 
d="M1268 504h-148v-504h-98l-272 504h-433v-504h-65v504h-148v61h148v250h-148v62h148v522h98l281 -522h424v522h65v-522h148v-62h-148v-250h148v-61zM317 565h400l-133 250h-267v-250zM797 565h258v250h-391zM317 1296v-419h234l-225 419h-9zM1055 102v402h-226l218 -402h8
z" />
    <glyph glyph-name="Euro" unicode="&#x20ac;" horiz-adv-x="1333" 
d="M229 582q-6 62 -6 129q0 81 4 104h-155l8 53h151q32 257 171 407t343 150q91 0 171 -27t145.5 -80t107.5 -140.5t52 -200.5h-70q-17 182 -122.5 285.5t-283.5 103.5t-295.5 -131t-148.5 -367h627l-8 -53h-625q-4 -23 -4 -104q0 -67 6 -129h594l-8 -54h-580
q37 -231 159 -361t300 -130q152 0 259 100.5t140 268.5h68q-16 -105 -62 -189t-111 -135.5t-140 -78t-154 -26.5q-206 0 -347.5 149t-178.5 402h-164l8 54h149z" />
    <glyph glyph-name="uni20B2" unicode="&#x20b2;" horiz-adv-x="1216" 
d="M590 -29q-223 12 -351 207.5t-128 526.5q0 316 130 505.5t349 210.5v158h57v-156q170 -5 285.5 -109.5t161.5 -307.5h-72q-40 171 -139.5 261t-235.5 95v-633h430v-729h-57l-8 229q-36 -109 -140.5 -179.5t-224.5 -78.5v-174h-57v174zM180 705q0 -305 109.5 -482.5
t300.5 -191.5v1327q-186 -21 -298 -192.5t-112 -460.5zM647 664v-633q74 6 140.5 39.5t119 91t83 145t30.5 193.5v164h-373z" />
    <glyph glyph-name="uni20B4" unicode="&#x20b4;" horiz-adv-x="1267" 
d="M592 653q-64 -33 -111 -63h695v-53h-773q-151 -122 -151 -258q0 -62 28.5 -110.5t78.5 -77.5t112.5 -43.5t134.5 -14.5q346 0 428 325h68q-48 -188 -171 -285.5t-319 -97.5q-69 0 -129.5 9.5t-115 32.5t-94 56.5t-62.5 85.5t-23 117q0 139 136 261h-230v53h297
q41 30 180 110l111 62l35 20t37.5 21.5t31.5 19.5h-692v54h766q123 101 123 233q0 114 -97.5 182t-254.5 68q-142 0 -240.5 -75t-132.5 -230h-65q20 101 65 174.5t106.5 112.5t126.5 57t138 18q190 0 304 -84t114 -215q0 -132 -109 -241h238v-54h-299q-83 -62 -209 -129z
" />
    <glyph glyph-name="uni20B5" unicode="&#x20b5;" horiz-adv-x="1210" 
d="M610 -20q-227 17 -363 216.5t-136 514.5q0 318 136 511t363 201v156h58v-156q88 -4 164.5 -35t138 -88t98.5 -148.5t41 -207.5h-70q-8 188 -105 299t-267 121v-1327q159 4 265.5 123.5t123.5 308.5h65q-8 -118 -50 -213t-106 -154t-140 -91t-158 -34v-180h-58v183z
M178 711q0 -293 119 -474t313 -198v1327q-195 -12 -313.5 -186.5t-118.5 -468.5z" />
    <glyph glyph-name="uni20B8" unicode="&#x20b8;" horiz-adv-x="1245" 
d="M1155 1112v-61h-500v-1051h-65v1051h-500v61h1065zM1155 1399v-62h-1065v62h1065z" />
    <glyph glyph-name="uni20B9" unicode="&#x20b9;" horiz-adv-x="1157" 
d="M840 1042q-13 295 -412 295h-342v62h977v-62h-338q174 -71 184 -295h154v-61h-154q-12 -127 -99 -212t-218 -116v-8q101 -30 149 -85t82 -150l142 -410h-74l-141 410q-35 103 -121.5 159t-204.5 56h-223v61h223q182 0 291 81t123 214h-744v61h746z" />
    <glyph glyph-name="uni20BA" unicode="&#x20ba;" horiz-adv-x="1181" 
d="M92 840l205 121v438h63v-402l394 232v-64l-394 -231v-232l394 232v-64l-394 -231v-578h134q80 0 156.5 21.5t148 69t125 116t86 171t32.5 225.5h70q0 -295 -171.5 -479.5t-446.5 -184.5h-197v602l-205 -119v62l205 121v231l-205 -119v62z" />
    <glyph glyph-name="uni20BD" unicode="&#x20bd;" horiz-adv-x="1204" 
d="M256 666v733h385q254 0 373 -99t119 -299q0 -191 -129 -296t-338 -105h-344v-205h559v-65h-559v-330h-66v330h-156v65h156v205h-156v66h156zM322 666h344q192 0 293.5 92t101.5 246q0 93 -31.5 159t-90.5 102t-131.5 52t-166.5 16h-319v-667z" />
    <glyph glyph-name="uni20BF" unicode="&#x20bf;" horiz-adv-x="1155" 
d="M768 1579v-205q122 -36 184 -117t62 -192q0 -136 -66.5 -219t-187.5 -115v-4q113 -19 200 -112.5t87 -229.5q0 -297 -279 -365v-227h-57v217q-59 -10 -148 -10h-139v-207h-57v207h-172v1399h172v180h57v-180h147q70 0 140 -13v193h57zM260 696v-635h303q104 0 180.5 21
t119.5 52t69 76.5t33.5 86t7.5 88.5q0 143 -101.5 227t-267.5 84h-344zM260 1337v-575h344q92 0 160 27t105 72.5t54 96t17 107.5q0 129 -97.5 200.5t-271.5 71.5h-311z" />
    <glyph glyph-name="uni2113" unicode="&#x2113;" horiz-adv-x="833" 
d="M788 109q-131 -127 -284 -127q-67 0 -117 25t-81.5 69t-51.5 112t-27.5 146.5t-7.5 179.5l-141 -92l-31 51l174 113v436q0 193 65 294t193 101q111 0 166 -63t55 -172q0 -124 -40.5 -222.5t-127.5 -191.5t-243 -209v-49q0 -57 2.5 -102.5t9 -104.5t22 -102t39 -82
t61.5 -59.5t87 -20.5q130 0 246 119zM287 635q197 146 272.5 275t75.5 270q0 99 -42 139.5t-116 40.5q-77 0 -133.5 -78.5t-56.5 -243.5v-403z" />
    <glyph glyph-name="uni2116" unicode="&#x2116;" horiz-adv-x="2330" 
d="M2191 524v-47h-639v47h639zM1872 1511q167 0 263.5 -112.5t96.5 -313.5q0 -200 -96 -310.5t-264 -110.5q-167 0 -264 112.5t-97 313.5q0 200 96.5 310.5t264.5 110.5zM1872 715q59 0 110 20.5t93.5 63t67 116t24.5 170.5t-24.5 171.5t-67 118t-94 64.5t-109.5 21
q-59 0 -110 -20.5t-93.5 -63t-67 -116t-24.5 -170.5q0 -98 24.5 -172t67 -117t94 -64.5t109.5 -21.5zM274 1384v-1384h-65v1487h98l860 -1385h9v1385h65v-1487h-98l-860 1384h-9z" />
    <glyph glyph-name="uni2117" unicode="&#x2117;" horiz-adv-x="1753" 
d="M911 1174q139 0 214 -68.5t75 -187.5q0 -125 -80.5 -192t-208.5 -67h-235v-362h-62v877h297zM911 711q108 0 169 56.5t61 150.5q0 102 -61 155t-177 53h-227v-415h235zM1589 748q0 158 -57 294.5t-154.5 229.5t-227 145.5t-273.5 52.5t-274 -52.5t-227 -145.5
t-154.5 -229.5t-57.5 -294.5t57.5 -294.5t154.5 -229.5t227 -146t274 -53q193 0 354.5 89.5t259.5 256.5t98 377zM1642 748q0 -162 -59 -304.5t-160.5 -244t-243.5 -160.5t-302 -59q-214 0 -389.5 100t-276 276t-100.5 392q0 215 100.5 391t276 276.5t389.5 100.5
q160 0 302 -59t243.5 -161t160.5 -244.5t59 -303.5z" />
    <glyph glyph-name="trademark" unicode="&#x2122;" horiz-adv-x="1765" 
d="M55 1438v49h629v-49h-285v-754h-57v754h-287zM899 1423h-10v-739h-49v803h92l278 -715l283 715h96v-803h-57v739h-10l-291 -739h-45z" />
    <glyph glyph-name="estimated" unicode="&#x212e;" horiz-adv-x="1247" 
d="M317 186q141 -153 338 -153q224 0 353 166l49 -45q-73 -96 -171 -137.5t-233 -41.5q-155 0 -280 74t-193.5 199.5t-68.5 277.5t68.5 278.5t193.5 200.5t280 74q148 0 266 -74.5t183 -204t65 -290.5h-850v-324zM965 870q-126 150 -324 150q-186 0 -324 -150v-301h648v301z
" />
    <glyph glyph-name="uni2150" unicode="&#x2150;" horiz-adv-x="1259" 
d="M238 1227q-47 -33 -164 -33h-25v49q66 2 104.5 10t59.5 27.5t27 45.5t6 73h49v-803h-57v631zM942 1425l-754 -1458h-57l754 1458h57zM852 0q67 407 303 750h-450v53h516v-49q-238 -340 -312 -754h-57z" />
    <glyph glyph-name="uni2151" unicode="&#x2151;" horiz-adv-x="1359" 
d="M238 1227q-47 -33 -164 -33h-25v49q66 2 104.5 10t59.5 27.5t27 45.5t6 73h49v-803h-57v631zM942 1425l-754 -1458h-57l754 1458h57zM815 190q32 -161 174 -161q205 0 228 381q-35 -59 -93.5 -88t-128.5 -29q-112 0 -183 70t-71 186q0 123 73 199.5t190 76.5
q272 0 272 -374q0 -232 -74 -353t-215 -121q-102 0 -159.5 56.5t-69.5 156.5h57zM995 344q92 0 152.5 59t60.5 146q0 94 -59.5 159.5t-144.5 65.5q-92 0 -148.5 -62.5t-56.5 -162.5q0 -88 55.5 -146.5t140.5 -58.5z" />
    <glyph glyph-name="uni2152" unicode="&#x2152;" horiz-adv-x="1843" 
d="M238 1227q-47 -33 -164 -33h-25v49q66 2 104.5 10t59.5 27.5t27 45.5t6 73h49v-803h-57v631zM942 1425l-754 -1458h-57l754 1458h57zM903 631q-47 -33 -164 -33h-24v49q66 2 104 10t59 28t27 45.5t6 72.5h50v-803h-58v631zM1235 408q0 -190 64 -284.5t165 -94.5
t165.5 94.5t64.5 284.5q0 189 -64 277.5t-166 88.5t-165.5 -88.5t-63.5 -277.5zM1169 408q0 202 76.5 309.5t218.5 107.5t218.5 -107.5t76.5 -309.5q0 -203 -77.5 -317t-217.5 -114t-217.5 114t-77.5 317z" />
    <glyph glyph-name="onethird" unicode="&#x2153;" horiz-adv-x="1361" 
d="M238 1227q-47 -33 -164 -33h-25v49q66 2 104.5 10t59.5 27.5t27 45.5t6 73h49v-803h-57v631zM942 1425l-754 -1458h-57l754 1458h57zM793 223q10 -89 71.5 -141.5t149.5 -52.5q96 0 154.5 52t58.5 132q0 86 -71 129t-175 43q-49 0 -66 -4v57q12 -4 58 -4q56 0 104.5 18.5
t82.5 59.5t34 98q0 77 -51 119.5t-137 42.5q-78 0 -132 -47.5t-65 -122.5h-57q17 102 86.5 161.5t167.5 59.5q48 0 90 -11.5t77.5 -35.5t56.5 -66.5t21 -99.5q0 -132 -149 -196q89 -16 135.5 -72t46.5 -129q0 -107 -76 -171.5t-194 -64.5q-122 0 -195 66t-84 180h58z" />
    <glyph glyph-name="twothirds" unicode="&#x2154;" horiz-adv-x="1626" 
d="M326 907q-82 -40 -137.5 -106.5t-59.5 -151.5h483v-53h-540v25q0 107 49 185.5t172 141.5l49 25q101 51 149 104.5t48 120.5q0 73 -52.5 121.5t-136.5 48.5q-81 0 -141 -54.5t-64 -139.5h-57q5 106 77.5 175.5t184.5 69.5q113 0 179.5 -56.5t66.5 -164.5
q0 -49 -17.5 -90.5t-50.5 -73.5t-69 -55.5t-84 -46.5zM1206 1425l-753 -1458h-58l754 1458h57zM1057 223q10 -89 71.5 -141.5t149.5 -52.5q96 0 154.5 52t58.5 132q0 86 -71 129t-175 43q-48 0 -65 -4v57q12 -4 57 -4q56 0 104.5 18.5t82.5 59.5t34 98q0 77 -51 119.5
t-137 42.5q-78 0 -132 -47.5t-65 -122.5h-57q17 102 86.5 161.5t167.5 59.5q48 0 90 -11.5t78 -35.5t57 -66.5t21 -99.5q0 -131 -150 -196q89 -16 135.5 -72t46.5 -129q0 -107 -76 -171.5t-194 -64.5q-122 0 -195 66t-84 180h58z" />
    <glyph glyph-name="uni2155" unicode="&#x2155;" horiz-adv-x="1339" 
d="M238 1227q-47 -33 -164 -33h-25v49q66 2 104.5 10t59.5 27.5t27 45.5t6 73h49v-803h-57v631zM942 1425l-754 -1458h-57l754 1458h57zM993 29q98 0 155.5 61t57.5 164q0 99 -49 157t-139 58q-149 0 -221 -141h-41l49 475h434v-53h-385l-37 -312q75 82 201 82
q113 0 179.5 -69t66.5 -197q0 -127 -76 -202t-195 -75q-106 0 -173.5 61t-80.5 175h58q10 -90 63 -137t133 -47z" />
    <glyph glyph-name="uni2156" unicode="&#x2156;" horiz-adv-x="1603" 
d="M326 907q-82 -40 -137.5 -106.5t-59.5 -151.5h483v-53h-540v25q0 107 49 185.5t172 141.5l49 25q101 51 149 104.5t48 120.5q0 73 -52.5 121.5t-136.5 48.5q-81 0 -141 -54.5t-64 -139.5h-57q5 106 77.5 175.5t184.5 69.5q113 0 179.5 -56.5t66.5 -164.5
q0 -49 -17.5 -90.5t-50.5 -73.5t-69 -55.5t-84 -46.5zM1206 1425l-753 -1458h-58l754 1458h57zM1257 29q98 0 155.5 61t57.5 164q0 99 -49 157t-139 58q-149 0 -221 -141h-41l49 475h434v-53h-385l-37 -312q75 82 201 82q113 0 179.5 -69t66.5 -197q0 -127 -76 -202
t-195 -75q-106 0 -173 61t-80 175h57q10 -90 63 -137t133 -47z" />
    <glyph glyph-name="uni2157" unicode="&#x2157;" horiz-adv-x="1615" 
d="M127 819q10 -89 71.5 -141.5t149.5 -52.5q96 0 154.5 52t58.5 132q0 86 -71 129t-175 43q-48 0 -65 -4v57q12 -4 57 -4q56 0 104.5 18.5t82.5 59.5t34 98q0 77 -51 119.5t-137 42.5q-78 0 -132 -47.5t-65 -122.5h-57q17 102 86.5 161.5t167.5 59.5q48 0 90 -11.5
t78 -35.5t57 -66.5t21 -99.5q0 -131 -150 -196q89 -16 135.5 -72t46.5 -129q0 -107 -76 -171.5t-194 -64.5q-121 0 -194 66t-84 180h57zM1219 1425l-754 -1458h-57l753 1458h58zM1270 29q98 0 155.5 61t57.5 164q0 99 -49 157t-140 58q-149 0 -221 -141h-41l49 475h435v-53
h-386l-36 -312q75 82 200 82q113 0 179.5 -69t66.5 -197q0 -127 -75.5 -202t-194.5 -75q-106 0 -173.5 61t-80.5 175h57q10 -90 63 -137t134 -47z" />
    <glyph glyph-name="uni2158" unicode="&#x2158;" horiz-adv-x="1615" 
d="M506 1399v-525h139v-49h-139v-229h-57v229h-402v41l393 533h66zM449 874v451l-336 -451h336zM1219 1425l-754 -1458h-57l753 1458h58zM1270 29q98 0 155.5 61t57.5 164q0 99 -49 157t-140 58q-149 0 -221 -141h-41l49 475h435v-53h-386l-36 -312q75 82 200 82
q113 0 179.5 -69t66.5 -197q0 -127 -75.5 -202t-194.5 -75q-106 0 -173.5 61t-80.5 175h57q10 -90 63 -137t134 -47z" />
    <glyph glyph-name="uni2159" unicode="&#x2159;" horiz-adv-x="1361" 
d="M238 1227q-47 -33 -164 -33h-25v49q66 2 104.5 10t59.5 27.5t27 45.5t6 73h49v-803h-57v631zM942 1425l-754 -1458h-57l754 1458h57zM1212 612q-32 162 -174 162q-204 0 -227 -381q70 117 221 117q112 0 183 -70t71 -186q0 -123 -72.5 -200t-189.5 -77q-272 0 -272 375
q0 232 73.5 352.5t214.5 120.5q103 0 160.5 -56.5t69.5 -156.5h-58zM1032 459q-92 0 -152.5 -59t-60.5 -146q0 -94 60 -159.5t145 -65.5q92 0 148.5 62.5t56.5 162.5q0 86 -56.5 145.5t-140.5 59.5z" />
    <glyph glyph-name="uni215A" unicode="&#x215a;" horiz-adv-x="1615" 
d="M328 625q98 0 155.5 61t57.5 164q0 99 -49 157t-140 58q-149 0 -221 -141h-41l49 475h434v-53h-385l-36 -312q75 82 200 82q113 0 179.5 -69t66.5 -197q0 -127 -75.5 -202t-194.5 -75q-106 0 -173.5 61t-80.5 175h57q10 -90 63 -137t134 -47zM1196 1425l-754 -1458h-57
l754 1458h57zM1466 612q-32 162 -174 162q-204 0 -227 -381q70 117 221 117q112 0 183 -70t71 -186q0 -123 -72.5 -200t-189.5 -77q-272 0 -272 375q0 232 73.5 352.5t214.5 120.5q103 0 160.5 -56.5t69.5 -156.5h-58zM1286 459q-92 0 -152.5 -59t-60.5 -146
q0 -94 60 -159.5t145 -65.5q92 0 148.5 62.5t56.5 162.5q0 86 -56.5 145.5t-140.5 59.5z" />
    <glyph glyph-name="oneeighth" unicode="&#x215b;" horiz-adv-x="1366" 
d="M238 1227q-47 -33 -164 -33h-25v49q66 2 104.5 10t59.5 27.5t27 45.5t6 73h49v-803h-57v631zM942 1425l-754 -1458h-57l754 1458h57zM1016 27q84 0 146.5 54t62.5 132q0 86 -62.5 133t-146.5 47t-146.5 -47t-62.5 -133q0 -78 62.5 -132t146.5 -54zM1016 442
q79 0 135.5 42.5t56.5 113.5q0 86 -55.5 132t-136.5 46t-137 -46t-56 -132q0 -71 57 -113.5t136 -42.5zM1016 -23q-118 0 -192 63t-74 173q0 143 139 205q-123 55 -123 180q0 108 74 167.5t176 59.5t176 -59.5t74 -167.5q0 -125 -123 -180q139 -62 139 -205
q0 -112 -73.5 -174t-192.5 -62z" />
    <glyph glyph-name="threeeighths" unicode="&#x215c;" horiz-adv-x="1642" 
d="M127 819q10 -89 71.5 -141.5t149.5 -52.5q96 0 154.5 52t58.5 132q0 86 -71 129t-175 43q-48 0 -65 -4v57q12 -4 57 -4q56 0 104.5 18.5t82.5 59.5t34 98q0 77 -51 119.5t-137 42.5q-78 0 -132 -47.5t-65 -122.5h-57q17 102 86.5 161.5t167.5 59.5q48 0 90 -11.5
t78 -35.5t57 -66.5t21 -99.5q0 -131 -150 -196q89 -16 135.5 -72t46.5 -129q0 -107 -76 -171.5t-194 -64.5q-121 0 -194 66t-84 180h57zM1219 1425l-754 -1458h-57l753 1458h58zM1292 27q84 0 146.5 54t62.5 132q0 86 -62.5 133t-146.5 47t-146.5 -47t-62.5 -133
q0 -78 62.5 -132t146.5 -54zM1292 442q79 0 136 42.5t57 113.5q0 86 -56 132t-137 46t-136.5 -46t-55.5 -132q0 -71 56.5 -113.5t135.5 -42.5zM1292 -23q-118 0 -192 63t-74 173q0 143 139 205q-123 55 -123 180q0 108 74 167.5t176 59.5t176 -59.5t74 -167.5
q0 -125 -123 -180q140 -62 140 -205q0 -112 -74 -174t-193 -62z" />
    <glyph glyph-name="fiveeighths" unicode="&#x215d;" horiz-adv-x="1619" 
d="M328 625q98 0 155.5 61t57.5 164q0 99 -49 157t-140 58q-149 0 -221 -141h-41l49 475h434v-53h-385l-36 -312q75 82 200 82q113 0 179.5 -69t66.5 -197q0 -127 -75.5 -202t-194.5 -75q-106 0 -173.5 61t-80.5 175h57q10 -90 63 -137t134 -47zM1196 1425l-754 -1458h-57
l754 1458h57zM1270 27q84 0 146.5 54t62.5 132q0 86 -62.5 133t-146.5 47t-146.5 -47t-62.5 -133q0 -78 62.5 -132t146.5 -54zM1270 442q79 0 135.5 42.5t56.5 113.5q0 86 -55.5 132t-136.5 46t-137 -46t-56 -132q0 -71 57 -113.5t136 -42.5zM1270 -23q-118 0 -192 63
t-74 173q0 143 139 205q-123 55 -123 180q0 108 74 167.5t176 59.5t176 -59.5t74 -167.5q0 -125 -123 -180q139 -62 139 -205q0 -112 -73.5 -174t-192.5 -62z" />
    <glyph glyph-name="seveneighths" unicode="&#x215e;" horiz-adv-x="1464" 
d="M186 596q67 407 303 750h-450v53h516v-49q-237 -338 -311 -754h-58zM1040 1425l-753 -1458h-58l754 1458h57zM1114 27q84 0 146.5 54t62.5 132q0 86 -62.5 133t-146.5 47t-146.5 -47t-62.5 -133q0 -78 62.5 -132t146.5 -54zM1114 442q79 0 136 42.5t57 113.5
q0 86 -56 132t-137 46t-136.5 -46t-55.5 -132q0 -71 56.5 -113.5t135.5 -42.5zM1114 -23q-118 0 -192 63t-74 173q0 143 139 205q-123 55 -123 180q0 108 74 167.5t176 59.5t176 -59.5t74 -167.5q0 -125 -123 -180q139 -62 139 -205q0 -112 -73.5 -174t-192.5 -62z" />
    <glyph glyph-name="uni215F" unicode="&#x215f;" horiz-adv-x="665" 
d="M238 1227q-47 -33 -164 -33h-25v49q66 2 104.5 10t59.5 27.5t27 45.5t6 73h49v-803h-57v631zM942 1425l-754 -1458h-57l754 1458h57z" />
    <glyph glyph-name="uni2160" unicode="&#x2160;" horiz-adv-x="475" 
d="M270 1487v-1487h-65v1487h65z" />
    <glyph glyph-name="uni2161" unicode="&#x2161;" horiz-adv-x="950" 
d="M270 1487v-1487h-65v1487h65zM745 1487v-1487h-65v1487h65z" />
    <glyph glyph-name="uni2162" unicode="&#x2162;" horiz-adv-x="1425" 
d="M270 1487v-1487h-65v1487h65zM745 1487v-1487h-65v1487h65zM1221 1487v-1487h-66v1487h66z" />
    <glyph glyph-name="uni2163" unicode="&#x2163;" horiz-adv-x="1714" 
d="M270 1487v-1487h-65v1487h65zM1090 86q41 103 94 242l426 1159h78l-566 -1487h-73l-566 1487h78l426 -1159q53 -139 94 -242h9z" />
    <glyph glyph-name="uni2164" unicode="&#x2164;" horiz-adv-x="1257" 
d="M633 86q41 103 94 242l426 1159h78l-565 -1487h-74l-565 1487h77l426 -1159q37 -98 95 -242h8z" />
    <glyph glyph-name="uni2165" unicode="&#x2165;" horiz-adv-x="1714" 
d="M633 86q41 103 94 242l426 1159h78l-565 -1487h-74l-565 1487h77l426 -1159q37 -98 95 -242h8zM1509 1487v-1487h-65v1487h65z" />
    <glyph glyph-name="uni2166" unicode="&#x2166;" horiz-adv-x="2189" 
d="M633 86q41 103 94 242l426 1159h78l-565 -1487h-74l-565 1487h77l426 -1159q37 -98 95 -242h8zM1509 1487v-1487h-65v1487h65zM1985 1487v-1487h-66v1487h66z" />
    <glyph glyph-name="uni2167" unicode="&#x2167;" horiz-adv-x="2664" 
d="M633 86q41 103 94 242l426 1159h78l-565 -1487h-74l-565 1487h77l426 -1159q37 -98 95 -242h8zM1509 1487v-1487h-65v1487h65zM1985 1487v-1487h-66v1487h66zM2460 1487v-1487h-66v1487h66z" />
    <glyph glyph-name="uni2168" unicode="&#x2168;" horiz-adv-x="1699" 
d="M270 1487v-1487h-65v1487h65zM1059 760l-518 727h77l480 -672l479 672h78l-518 -727l542 -760h-77l-504 707l-504 -707h-78z" />
    <glyph glyph-name="uni2169" unicode="&#x2169;" horiz-adv-x="1204" 
d="M563 760l-518 727h78l479 -672l479 672h78l-518 -727l543 -760h-78l-504 707l-504 -707h-78z" />
    <glyph glyph-name="uni216A" unicode="&#x216a;" horiz-adv-x="1699" 
d="M563 760l-518 727h78l479 -672l479 672h78l-518 -727l543 -760h-78l-504 707l-504 -707h-78zM1495 1487v-1487h-65v1487h65z" />
    <glyph glyph-name="uni216B" unicode="&#x216b;" horiz-adv-x="2174" 
d="M563 760l-518 727h78l479 -672l479 672h78l-518 -727l543 -760h-78l-504 707l-504 -707h-78zM1495 1487v-1487h-65v1487h65zM1970 1487v-1487h-65v1487h65z" />
    <glyph glyph-name="uni216C" unicode="&#x216c;" horiz-adv-x="1105" 
d="M270 1487v-1426h811v-61h-876v1487h65z" />
    <glyph glyph-name="uni216D" unicode="&#x216d;" horiz-adv-x="1394" 
d="M186 745q0 -160 42.5 -293t117 -223t178 -140t224.5 -50q197 0 330 126t153 329h74q-8 -102 -43.5 -188.5t-89.5 -146t-123.5 -101.5t-145.5 -61.5t-155 -19.5q-187 0 -330.5 96t-222 270.5t-78.5 401.5q0 343 168.5 549.5t445.5 206.5q111 0 208 -30.5t175.5 -90
t125 -158t48.5 -225.5h-74q-5 203 -135 323t-348 120q-118 0 -218 -48.5t-172.5 -136.5t-113.5 -219.5t-41 -290.5z" />
    <glyph glyph-name="uni216E" unicode="&#x216e;" horiz-adv-x="1468" 
d="M549 1487q218 0 374.5 -51.5t249.5 -151t136 -232.5t43 -307q0 -137 -24 -247.5t-80.5 -205t-145.5 -158t-223 -99t-308 -35.5h-366v1487h344zM270 66h303q356 0 532.5 164t176.5 515t-182.5 513.5t-550.5 162.5h-279v-1355z" />
    <glyph glyph-name="uni216F" unicode="&#x216f;" horiz-adv-x="1785" 
d="M270 1384v-1384h-65v1487h106l582 -1397l582 1397h106v-1487h-65v1384h-9l-581 -1384h-66l-581 1384h-9z" />
    <glyph glyph-name="uni2170" unicode="&#x2170;" horiz-adv-x="413" 
d="M240 1057v-1057h-66v1057h66zM248 1475v-148h-82v148h82z" />
    <glyph glyph-name="uni2171" unicode="&#x2171;" horiz-adv-x="823" 
d="M240 1057v-1057h-66v1057h66zM248 1475v-148h-82v148h82zM649 1057v-1057h-65v1057h65zM657 1475v-148h-82v148h82z" />
    <glyph glyph-name="uni2172" unicode="&#x2172;" horiz-adv-x="1232" 
d="M240 1057v-1057h-66v1057h66zM248 1475v-148h-82v148h82zM649 1057v-1057h-65v1057h65zM657 1475v-148h-82v148h82zM1059 1057v-1057h-66v1057h66zM1067 1475v-148h-82v148h82z" />
    <glyph glyph-name="uni2173" unicode="&#x2173;" horiz-adv-x="1347" 
d="M240 1057v-1057h-66v1057h66zM248 1475v-148h-82v148h82zM428 1057h74l360 -1000h8l365 1000h70l-394 -1057h-90z" />
    <glyph glyph-name="uni2174" unicode="&#x2174;" horiz-adv-x="962" 
d="M43 1057h74l360 -1000h8l365 1000h70l-394 -1057h-90z" />
    <glyph glyph-name="uni2175" unicode="&#x2175;" horiz-adv-x="1347" 
d="M43 1057h74l360 -1000h8l365 1000h70l-394 -1057h-90zM1174 1057v-1057h-66v1057h66zM1182 1475v-148h-82v148h82z" />
    <glyph glyph-name="uni2176" unicode="&#x2176;" horiz-adv-x="1757" 
d="M43 1057h74l360 -1000h8l365 1000h70l-394 -1057h-90zM1174 1057v-1057h-66v1057h66zM1182 1475v-148h-82v148h82zM1583 1057v-1057h-65v1057h65zM1591 1475v-148h-82v148h82z" />
    <glyph glyph-name="uni2177" unicode="&#x2177;" horiz-adv-x="2166" 
d="M43 1057h74l360 -1000h8l365 1000h70l-394 -1057h-90zM1174 1057v-1057h-66v1057h66zM1182 1475v-148h-82v148h82zM1583 1057v-1057h-65v1057h65zM1591 1475v-148h-82v148h82zM1993 1057v-1057h-66v1057h66zM2001 1475v-148h-82v148h82z" />
    <glyph glyph-name="uni2178" unicode="&#x2178;" horiz-adv-x="1345" 
d="M240 1057v-1057h-66v1057h66zM248 1475v-148h-82v148h82zM1321 0h-78l-373 504l-356 -504h-78l398 551l-373 506h78l333 -453l338 453h78l-379 -500z" />
    <glyph glyph-name="uni2179" unicode="&#x2179;" horiz-adv-x="940" 
d="M915 0h-77l-373 504l-356 -504h-78l397 551l-373 506h78l334 -453l338 453h78l-379 -500z" />
    <glyph glyph-name="uni217A" unicode="&#x217a;" horiz-adv-x="1351" 
d="M915 0h-77l-373 504l-356 -504h-78l397 551l-373 506h78l334 -453l338 453h78l-379 -500zM1178 1057v-1057h-66v1057h66zM1186 1475v-148h-82v148h82z" />
    <glyph glyph-name="uni217B" unicode="&#x217b;" horiz-adv-x="1761" 
d="M915 0h-77l-373 504l-356 -504h-78l397 551l-373 506h78l334 -453l338 453h78l-379 -500zM1178 1057v-1057h-66v1057h66zM1186 1475v-148h-82v148h82zM1587 1057v-1057h-65v1057h65zM1595 1475v-148h-82v148h82z" />
    <glyph glyph-name="uni217C" unicode="&#x217c;" horiz-adv-x="413" 
d="M240 1487v-1487h-66v1487h66z" />
    <glyph glyph-name="uni217D" unicode="&#x217d;" horiz-adv-x="1071" 
d="M563 1022q-165 0 -277 -135.5t-112 -362.5q0 -226 107 -357.5t276 -131.5q146 0 247 93.5t109 225.5h66q-5 -104 -65 -191.5t-155 -136.5t-202 -49q-197 0 -325 145.5t-128 401.5q0 107 26.5 199t72 156.5t104.5 110t124 67.5t132 22q112 0 204.5 -42t151.5 -127t64 -199
h-65q-8 130 -108 220.5t-247 90.5z" />
    <glyph glyph-name="uni217E" unicode="&#x217e;" horiz-adv-x="1165" 
d="M926 246q-69 -128 -161.5 -198.5t-223.5 -70.5q-199 0 -317 146t-118 401q0 135 40 244t105.5 175t144 101t161.5 35q135 0 229 -63t140 -172v643h65v-1487h-65v246zM176 524q0 -221 100.5 -355t264.5 -134q157 0 267.5 129t117.5 338v22q0 226 -93.5 362t-275.5 136
q-165 0 -273 -141t-108 -357z" />
    <glyph glyph-name="uni217F" unicode="&#x217f;" horiz-adv-x="1679" 
d="M240 1057v-197q20 47 45 83.5t62 68.5t90.5 49.5t119.5 17.5q126 0 198.5 -57.5t102.5 -167.5q45 108 125 166.5t213 58.5q172 0 247 -106.5t75 -308.5v-664h-66v655q0 193 -64.5 279t-197.5 86q-29 0 -53 -2.5t-57 -12t-58.5 -25.5t-53 -46.5t-45.5 -71.5t-30.5 -103.5
t-13.5 -140.5v-618h-66v655q0 193 -64.5 279t-197.5 86q-39 0 -76 -8.5t-80.5 -35.5t-75.5 -70.5t-54.5 -120t-24.5 -177.5v-608h-66v1057h66z" />
    <glyph glyph-name="uni2189" unicode="&#x2189;" horiz-adv-x="1699" 
d="M150 1004q0 -190 64 -284.5t165 -94.5t165 94.5t64 284.5q0 189 -63.5 277.5t-165.5 88.5t-165.5 -88.5t-63.5 -277.5zM84 1004q0 202 76.5 309.5t218.5 107.5t218.5 -107.5t76.5 -309.5q0 -203 -77.5 -317t-217.5 -114t-217.5 114t-77.5 317zM1280 1425l-754 -1458h-57
l754 1458h57zM1130 223q10 -89 72 -141.5t150 -52.5q96 0 154.5 52t58.5 132q0 86 -71 129t-175 43q-49 0 -66 -4v57q12 -4 58 -4q56 0 104.5 18.5t82.5 59.5t34 98q0 77 -51.5 119.5t-137.5 42.5q-78 0 -131.5 -47.5t-64.5 -122.5h-57q17 102 86 161.5t167 59.5
q48 0 90 -11.5t78 -35.5t57 -66.5t21 -99.5q0 -132 -149 -196q89 -16 135.5 -72t46.5 -129q0 -107 -76 -171.5t-194 -64.5q-122 0 -195 66t-84 180h57z" />
    <glyph glyph-name="arrowleft" unicode="&#x2190;" horiz-adv-x="1193" 
d="M582 137l-39 -39l-488 488l488 487l39 -39l-424 -422h970v-53h-970z" />
    <glyph glyph-name="arrowup" unicode="&#x2191;" horiz-adv-x="1077" 
d="M90 547l-39 39l488 487l487 -487l-39 -39l-422 424v-971h-53v971z" />
    <glyph glyph-name="arrowright" unicode="&#x2192;" horiz-adv-x="1193" 
d="M1036 612l-424 422l39 39l488 -487l-488 -488l-39 39l424 422h-970v53h970z" />
    <glyph glyph-name="arrowdown" unicode="&#x2193;" horiz-adv-x="1077" 
d="M987 510l39 -39l-487 -487l-488 487l39 39l422 -424v971h53v-971z" />
    <glyph glyph-name="uni2196" unicode="&#x2196;" horiz-adv-x="1046" 
d="M209 838l2 -598h-55v688h688v-56l-598 2l686 -686l-37 -36z" />
    <glyph glyph-name="uni2197" unicode="&#x2197;" horiz-adv-x="1046" 
d="M801 874l-598 -2v56h688v-688h-55l2 598l-686 -686l-37 36z" />
    <glyph glyph-name="uni2198" unicode="&#x2198;" horiz-adv-x="1046" 
d="M246 180l598 2v-55h-688v688h55l-2 -598l686 686l37 -37z" />
    <glyph glyph-name="uni2199" unicode="&#x2199;" horiz-adv-x="1046" 
d="M838 217l-2 598h55v-688h-688v55l598 -2l-686 686l37 37z" />
    <glyph glyph-name="partialdiff" unicode="&#x2202;" horiz-adv-x="1036" 
d="M324 1427q114 0 211.5 -50t167 -136.5t118.5 -202t73 -248.5t24 -274q0 -137 -34.5 -242.5t-95 -169t-138 -95.5t-169.5 -32q-123 0 -216.5 61.5t-142 165t-48.5 232.5q0 191 120 313.5t291 122.5q118 0 214.5 -55t142.5 -153l6 2q-5 89 -27.5 182.5t-67 187.5
t-103.5 168t-144 122.5t-182 53.5v47zM481 33q153 0 259 108.5t106 282.5q0 95 -44.5 184t-129 148t-185.5 59q-147 0 -245.5 -112.5t-98.5 -268.5q0 -174 93.5 -287.5t244.5 -113.5z" />
    <glyph glyph-name="increment" unicode="&#x2206;" horiz-adv-x="1376" 
d="M651 1487h74l598 -1446v-41h-1270v41zM930 819q-34 85 -116 282t-122 300h-8q-40 -103 -122 -300t-116 -282l-307 -758h1098z" />
    <glyph glyph-name="product" unicode="&#x220f;" horiz-adv-x="1331" 
d="M358 1337v-1585h-65v1585h-238v62h1221v-62h-238v-1585h-65v1585h-615z" />
    <glyph glyph-name="summation" unicode="&#x2211;" horiz-adv-x="1107" 
d="M92 1399h934v-66h-836l639 -743l-671 -776h868v-66h-967v49l680 793l-647 760v49z" />
    <glyph glyph-name="minus" unicode="&#x2212;" 
d="M248 606h794v-49h-794v49z" />
    <glyph glyph-name="uni2215" unicode="&#x2215;" horiz-adv-x="245" 
d="M522 1425l-753 -1458h-58l754 1458h57z" />
    <glyph glyph-name="uni2219" unicode="&#x2219;" 
d="M698 762v-123h-106v123h106z" />
    <glyph glyph-name="radical" unicode="&#x221a;" horiz-adv-x="1097" 
d="M219 885l-203 -90l-16 41l262 114l252 -821l510 1632h66l-558 -1761h-40z" />
    <glyph glyph-name="infinity" unicode="&#x221e;" 
d="M219 549q0 -92 48 -156.5t116 -64.5q50 0 103 49.5t130 171.5q-77 122 -130 171.5t-103 49.5q-68 0 -116 -64.5t-48 -156.5zM1071 549q0 92 -48 156.5t-116 64.5q-50 0 -103 -49.5t-130 -171.5q77 -122 130 -171.5t103 -49.5q68 0 116 64.5t48 156.5zM645 500
q-76 -114 -117 -156q-71 -74 -137 -74q-95 0 -158 81.5t-63 197.5t63 197t158 81q36 0 72.5 -21t67 -54.5t56.5 -69.5t50 -71l3 -4.5t2.5 -4t2.5 -4.5q77 115 119 157q70 72 135 72q95 0 158 -81t63 -197t-63 -197.5t-158 -81.5q-36 0 -71.5 20t-68 56.5t-55.5 67.5t-50 72
q-6 10 -9 14z" />
    <glyph glyph-name="integral" unicode="&#x222b;" horiz-adv-x="772" 
d="M369 1022q3 42 6.5 75t12 77t21 77t34.5 67t50.5 56.5t69.5 36.5t92 14q69 0 123 -16l-16 -55q-53 18 -111 18q-60 0 -101.5 -26t-65 -76.5t-35 -110.5t-15.5 -143l-57 -973q-3 -44 -6 -75t-11 -76.5t-19 -77.5t-31.5 -67t-47.5 -56.5t-67 -36t-89 -14.5q-68 0 -122 16
l16 55q53 -18 111 -18q55 0 93.5 25.5t60 76.5t32 111t14.5 143z" />
    <glyph glyph-name="approxequal" unicode="&#x2248;" 
d="M829 270q-45 0 -98.5 25.5t-94.5 56.5t-90.5 56.5t-88.5 25.5q-46 0 -86.5 -35t-89.5 -112l-41 24q100 172 221 172q45 0 98.5 -25.5t94.5 -56.5t91 -56.5t89 -25.5q45 0 85.5 35.5t90.5 112.5l41 -25q-100 -172 -222 -172zM829 598q-45 0 -98.5 25.5t-94.5 56.5
t-90.5 56.5t-88.5 25.5q-45 0 -85.5 -35.5t-90.5 -112.5l-41 25q100 172 221 172q45 0 98.5 -25.5t94.5 -56.5t91 -56.5t89 -25.5q45 0 85.5 35.5t90.5 112.5l41 -25q-100 -172 -222 -172z" />
    <glyph glyph-name="notequal" unicode="&#x2260;" 
d="M598 426h444v-49h-469l-170 -352h-49l170 352h-276v49h301l135 279h-436v49h459l147 303h49l-147 -303h286v-49h-309z" />
    <glyph glyph-name="equivalence" unicode="&#x2261;" 
d="M248 295h794v-49h-794v49zM248 590h794v-49h-794v49zM248 885h794v-49h-794v49z" />
    <glyph glyph-name="lessequal" unicode="&#x2264;" 
d="M1038 328v-58l-794 369v49l794 369v-58l-737 -335zM1038 0h-794v49h794v-49z" />
    <glyph glyph-name="greaterequal" unicode="&#x2265;" 
d="M252 1057l795 -369v-49l-795 -369v58l737 336l-737 335v58zM1047 0h-795v49h795v-49z" />
    <glyph glyph-name="uni25AF" unicode="&#x25af;" horiz-adv-x="1394" 
d="M209 0v1487h977v-1487h-977zM1069 109v1269h-743v-1269h743z" />
    <glyph glyph-name="triagup" unicode="&#x25b2;" horiz-adv-x="1222" 
d="M205 1065l966 -516l-966 -524v1040z" />
    <glyph glyph-name="triagrt" unicode="&#x25ba;" horiz-adv-x="1136" 
d="M49 68l516 1032l525 -1032h-1041z" />
    <glyph glyph-name="triagdn" unicode="&#x25bc;" horiz-adv-x="1134" 
d="M47 1075h1040l-524 -1032z" />
    <glyph glyph-name="triaglf" unicode="&#x25c4;" horiz-adv-x="1222" 
d="M1018 1065v-1040l-967 524z" />
    <glyph glyph-name="lozenge" unicode="&#x25ca;" horiz-adv-x="1024" 
d="M487 1401h50l409 -705l-409 -696h-50l-409 696zM512 1343l-369 -647l369 -639l369 639z" />
    <glyph glyph-name="uniFB00" unicode="&#xfb00;" horiz-adv-x="1095" 
d="M297 999v-999h-66v999h-200v58h200v162q0 276 230 276q52 0 96 -8v-57q-65 10 -98 10q-83 0 -122.5 -50t-39.5 -163v-170h461v162q0 276 229 276q52 0 96 -8v-57q-65 10 -98 10q-83 0 -122.5 -50t-39.5 -163v-170h246v-58h-246v-999h-65v999h-461z" />
    <glyph glyph-name="fi" unicode="&#xfb01;" horiz-adv-x="968" 
d="M231 1219q0 276 230 276q52 0 96 -8v-57q-65 10 -98 10q-83 0 -122.5 -50t-39.5 -163v-170h246v-58h-246v-999h-66v999h-200v58h200v162zM795 1057v-1057h-66v1057h66zM803 1475v-148h-82v148h82z" />
    <glyph glyph-name="fl" unicode="&#xfb02;" horiz-adv-x="968" 
d="M231 1219q0 276 230 276q52 0 96 -8v-57q-65 10 -98 10q-83 0 -122.5 -50t-39.5 -163v-170h246v-58h-246v-999h-66v999h-200v58h200v162zM795 1487v-1487h-66v1487h66z" />
    <glyph glyph-name="uniFB03" unicode="&#xfb03;" horiz-adv-x="1495" 
d="M297 999v-999h-66v999h-200v58h200v162q0 276 230 276q52 0 96 -8v-57q-65 10 -98 10q-83 0 -122.5 -50t-39.5 -163v-170h461v162q0 276 229 276q52 0 96 -8v-57q-65 10 -98 10q-83 0 -122.5 -50t-39.5 -163v-170h246v-58h-246v-999h-65v999h-461zM1321 1057v-1057h-66
v1057h66zM1329 1483v-148h-82v148h82z" />
    <glyph glyph-name="uniFB04" unicode="&#xfb04;" horiz-adv-x="1495" 
d="M297 999v-999h-66v999h-200v58h200v162q0 276 230 276q52 0 96 -8v-57q-65 10 -98 10q-83 0 -122.5 -50t-39.5 -163v-170h461v162q0 276 229 276q52 0 96 -8v-57q-65 10 -98 10q-83 0 -122.5 -50t-39.5 -163v-170h246v-58h-246v-999h-65v999h-461zM1321 1487v-1487h-66
v1487h66z" />
    <glyph glyph-name="uniFEFF" unicode="&#xfeff;" horiz-adv-x="0" 
 />
    <glyph glyph-name="i.latn_TRK" horiz-adv-x="413" 
d="M240 1057v-1057h-66v1057h66zM248 1475v-148h-82v148h82z" />
    <glyph glyph-name="Ldot.latn_CAT" horiz-adv-x="1107" 
d="M270 61h811v-61h-876v1487h65v-1426zM827 735h-82v148h82v-148z" />
    <glyph glyph-name="ldot.latn_CAT" horiz-adv-x="479" 
d="M240 0h-66v1487h66v-1487zM487 735h-81v148h81v-148z" />
    <glyph glyph-name="zero.numr" horiz-adv-x="757" 
d="M150 1004q0 -190 64 -284.5t165 -94.5t165 94.5t64 284.5q0 189 -63.5 277.5t-165.5 88.5t-165.5 -88.5t-63.5 -277.5zM84 1004q0 202 76.5 309.5t218.5 107.5t218.5 -107.5t76.5 -309.5q0 -203 -77.5 -317t-217.5 -114t-217.5 114t-77.5 317z" />
    <glyph glyph-name="one.numr" horiz-adv-x="419" 
d="M238 1227q-47 -33 -164 -33h-25v49q66 2 104.5 10t59.5 27.5t27 45.5t6 73h49v-803h-57v631z" />
    <glyph glyph-name="two.numr" horiz-adv-x="684" 
d="M326 907q-82 -40 -137.5 -106.5t-59.5 -151.5h483v-53h-540v25q0 107 49 185.5t172 141.5l49 25q101 51 149 104.5t48 120.5q0 73 -52.5 121.5t-136.5 48.5q-81 0 -141 -54.5t-64 -139.5h-57q5 106 77.5 175.5t184.5 69.5q113 0 179.5 -56.5t66.5 -164.5
q0 -49 -17.5 -90.5t-50.5 -73.5t-69 -55.5t-84 -46.5z" />
    <glyph glyph-name="three.numr" horiz-adv-x="696" 
d="M127 819q10 -89 71.5 -141.5t149.5 -52.5q96 0 154.5 52t58.5 132q0 86 -71 129t-175 43q-48 0 -65 -4v57q12 -4 57 -4q56 0 104.5 18.5t82.5 59.5t34 98q0 77 -51 119.5t-137 42.5q-78 0 -132 -47.5t-65 -122.5h-57q17 102 86.5 161.5t167.5 59.5q48 0 90 -11.5
t78 -35.5t57 -66.5t21 -99.5q0 -131 -150 -196q89 -16 135.5 -72t46.5 -129q0 -107 -76 -171.5t-194 -64.5q-121 0 -194 66t-84 180h57z" />
    <glyph glyph-name="four.numr" horiz-adv-x="696" 
d="M506 1399v-525h139v-49h-139v-229h-57v229h-402v41l393 533h66zM449 874v451l-336 -451h336z" />
    <glyph glyph-name="five.numr" horiz-adv-x="673" 
d="M328 625q98 0 155.5 61t57.5 164q0 99 -49 157t-140 58q-149 0 -221 -141h-41l49 475h434v-53h-385l-36 -312q75 82 200 82q113 0 179.5 -69t66.5 -197q0 -127 -75.5 -202t-194.5 -75q-106 0 -173.5 61t-80.5 175h57q10 -90 63 -137t134 -47z" />
    <glyph glyph-name="six.numr" horiz-adv-x="696" 
d="M547 1208q-32 162 -174 162q-205 0 -228 -381q35 59 93.5 88t128.5 29q112 0 183 -70t71 -186q0 -123 -73 -200t-190 -77q-272 0 -272 375q0 232 74 352.5t215 120.5q102 0 159.5 -56.5t69.5 -156.5h-57zM367 1055q-92 0 -152.5 -59t-60.5 -146q0 -94 59.5 -159.5
t144.5 -65.5q92 0 148.5 62.5t56.5 162.5q0 86 -56 145.5t-140 59.5z" />
    <glyph glyph-name="seven.numr" horiz-adv-x="593" 
d="M186 596q67 407 303 750h-450v53h516v-49q-237 -338 -311 -754h-58z" />
    <glyph glyph-name="eight.numr" horiz-adv-x="700" 
d="M350 623q84 0 146.5 54t62.5 132q0 86 -62.5 133t-146.5 47t-146.5 -47t-62.5 -133q0 -78 62.5 -132t146.5 -54zM350 1038q79 0 136 42.5t57 113.5q0 86 -56 132t-137 46t-136.5 -46t-55.5 -132q0 -71 56.5 -113.5t135.5 -42.5zM350 573q-118 0 -192 63t-74 173
q0 143 139 205q-123 55 -123 180q0 108 74 167.5t176 59.5t176 -59.5t74 -167.5q0 -125 -123 -180q139 -62 139 -205q0 -112 -73.5 -174t-192.5 -62z" />
    <glyph glyph-name="nine.numr" horiz-adv-x="694" 
d="M150 786q32 -161 174 -161q204 0 227 381q-70 -117 -221 -117q-112 0 -183 70t-71 186q0 123 72.5 199.5t189.5 76.5q272 0 272 -374q0 -232 -73.5 -353t-214.5 -121q-103 0 -160.5 56.5t-69.5 156.5h58zM330 940q92 0 152.5 59t60.5 146q0 94 -60 159.5t-145 65.5
q-92 0 -148.5 -62.5t-56.5 -162.5q0 -88 56 -146.5t141 -58.5z" />
    <glyph glyph-name="zero.dnom" horiz-adv-x="757" 
d="M150 408q0 -190 64 -284.5t165 -94.5t165 94.5t64 284.5q0 189 -63.5 277.5t-165.5 88.5t-165.5 -88.5t-63.5 -277.5zM84 408q0 202 76.5 309.5t218.5 107.5t218.5 -107.5t76.5 -309.5q0 -203 -77.5 -317t-217.5 -114t-217.5 114t-77.5 317z" />
    <glyph glyph-name="one.dnom" horiz-adv-x="419" 
d="M238 631q-47 -33 -164 -33h-25v49q66 2 104.5 10t59.5 27.5t27 45.5t6 73h49v-803h-57v631z" />
    <glyph glyph-name="two.dnom" horiz-adv-x="684" 
d="M326 311q-82 -40 -137.5 -106.5t-59.5 -151.5h483v-53h-540v25q0 107 49 185.5t172 141.5l49 25q101 51 149 104.5t48 120.5q0 73 -52.5 121.5t-136.5 48.5q-81 0 -141 -54.5t-64 -139.5h-57q5 106 77.5 175.5t184.5 69.5q113 0 179.5 -56.5t66.5 -164.5
q0 -49 -17.5 -90.5t-50.5 -73.5t-69 -55.5t-84 -46.5z" />
    <glyph glyph-name="three.dnom" horiz-adv-x="696" 
d="M127 223q10 -89 71.5 -141.5t149.5 -52.5q96 0 154.5 52t58.5 132q0 86 -71 129t-175 43q-48 0 -65 -4v57q12 -4 57 -4q56 0 104.5 18.5t82.5 59.5t34 98q0 77 -51 119.5t-137 42.5q-78 0 -132 -47.5t-65 -122.5h-57q17 102 86.5 161.5t167.5 59.5q48 0 90 -11.5
t78 -35.5t57 -66.5t21 -99.5q0 -131 -150 -196q89 -16 135.5 -72t46.5 -129q0 -107 -76 -171.5t-194 -64.5q-121 0 -194 66t-84 180h57z" />
    <glyph glyph-name="four.dnom" horiz-adv-x="696" 
d="M506 803v-524h139v-50h-139v-229h-57v229h-402v41l393 533h66zM449 279v450l-336 -450h336z" />
    <glyph glyph-name="five.dnom" horiz-adv-x="673" 
d="M328 29q98 0 155.5 61t57.5 164q0 99 -49 157t-140 58q-149 0 -221 -141h-41l49 475h434v-53h-385l-36 -312q75 82 200 82q113 0 179.5 -69t66.5 -197q0 -127 -75.5 -202t-194.5 -75q-106 0 -173.5 61t-80.5 175h57q10 -90 63 -137t134 -47z" />
    <glyph glyph-name="six.dnom" horiz-adv-x="696" 
d="M547 612q-32 162 -174 162q-205 0 -228 -381q35 59 93.5 88t128.5 29q112 0 183 -70t71 -186q0 -123 -73 -200t-190 -77q-272 0 -272 375q0 232 74 352.5t215 120.5q102 0 159.5 -56.5t69.5 -156.5h-57zM367 459q-92 0 -152.5 -59t-60.5 -146q0 -94 59.5 -159.5
t144.5 -65.5q92 0 148.5 62.5t56.5 162.5q0 86 -56 145.5t-140 59.5z" />
    <glyph glyph-name="seven.dnom" horiz-adv-x="593" 
d="M186 0q67 407 303 750h-450v53h516v-49q-237 -338 -311 -754h-58z" />
    <glyph glyph-name="eight.dnom" horiz-adv-x="700" 
d="M350 27q84 0 146.5 54t62.5 132q0 86 -62.5 133t-146.5 47t-146.5 -47t-62.5 -133q0 -78 62.5 -132t146.5 -54zM350 442q79 0 136 42.5t57 113.5q0 86 -56 132t-137 46t-136.5 -46t-55.5 -132q0 -71 56.5 -113.5t135.5 -42.5zM350 -23q-118 0 -192 63t-74 173
q0 143 139 205q-123 55 -123 180q0 108 74 167.5t176 59.5t176 -59.5t74 -167.5q0 -125 -123 -180q139 -62 139 -205q0 -112 -73.5 -174t-192.5 -62z" />
    <glyph glyph-name="nine.dnom" horiz-adv-x="694" 
d="M150 190q32 -161 174 -161q204 0 227 381q-70 -117 -221 -117q-112 0 -183 70t-71 186q0 123 72.5 199.5t189.5 76.5q272 0 272 -374q0 -232 -73.5 -353t-214.5 -121q-103 0 -160.5 56.5t-69.5 156.5h58zM330 344q92 0 152.5 59t60.5 146q0 94 -60 159.5t-145 65.5
q-92 0 -148.5 -62.5t-56.5 -162.5q0 -88 56 -146.5t141 -58.5z" />
    <glyph glyph-name="space.frac" horiz-adv-x="81" 
 />
    <glyph glyph-name="space.tf" 
 />
    <glyph glyph-name="numbersign.tf" 
d="M1063 1399l-125 -432h250l-17 -49h-247l-121 -420h246l-17 -49h-244l-126 -449h-52l125 449h-340l-127 -449h-51l125 449h-240l19 49h235l119 420h-233l18 49h227l123 432h60l-125 -432h336l123 432h59zM750 498l118 420h-338l-120 -420h340z" />
    <glyph glyph-name="dollar.tf" 
d="M618 -20q-436 22 -444 481h66q14 -410 378 -426v659q-73 22 -128.5 43.5t-113 53.5t-94 68.5t-60 88.5t-23.5 113q0 156 110.5 255t308.5 103v162h58v-164q214 -8 313 -114t103 -334h-66q-5 200 -85.5 292t-264.5 99v-621l22 -6q173 -52 236 -83q135 -66 169 -181
q13 -45 13 -100q0 -167 -120.5 -277.5t-319.5 -114.5v-186h-58v189zM676 35q166 5 270.5 97.5t104.5 236.5q0 70 -23 119t-83 84t-100.5 51t-137.5 45q-17 5 -25 8l-6 2v-643zM264 1061q0 -53 22.5 -98t54.5 -75t83.5 -57t93.5 -42t100 -33v606q-171 -4 -262.5 -88
t-91.5 -213z" />
    <glyph glyph-name="percent.tf" 
d="M977 1341l47 -26l-705 -1258l-47 27zM653 1092q0 -128 -67 -193t-172 -65t-172.5 65t-67.5 193t67.5 193t172.5 65t172 -65t67 -193zM596 1092q0 98 -48 154.5t-134 56.5t-134.5 -57t-48.5 -154t48.5 -154t134.5 -57t134 56.5t48 154.5zM1114 307q0 -128 -67.5 -193
t-172.5 -65t-172 65t-67 193t67 193t172 65t172.5 -65t67.5 -193zM1057 307q0 97 -48.5 154t-134.5 57t-134 -56.5t-48 -154.5t48 -154.5t134 -56.5t134.5 57t48.5 154z" />
    <glyph glyph-name="comma.tf" 
d="M594 8v115h106v-123l-49 -270h-55l49 278h-51z" />
    <glyph glyph-name="period.tf" 
d="M698 123v-123h-106v123h106z" />
    <glyph glyph-name="zero.tf" 
d="M248 696q0 -176 30.5 -306t85.5 -205.5t125 -111.5t156 -36t156 36t125 111.5t85.5 205.5t30.5 306t-30.5 306t-85.5 206t-125 112t-156 36t-156 -36t-125 -112t-85.5 -206t-30.5 -306zM178 696q0 346 121 533.5t346 187.5t346 -187.5t121 -533.5t-121 -533.5
t-346 -187.5t-346 187.5t-121 533.5z" />
    <glyph glyph-name="one.tf" 
d="M655 1155q-53 -49 -122.5 -67t-200.5 -23v55q107 2 172 17t101 50.5t47.5 83t11.5 128.5h57v-1346h323v-53h-712v53h323v1102z" />
    <glyph glyph-name="two.tf" 
d="M608 549q-319 -191 -319 -488h786v-61h-860v25q0 184 80.5 318t279.5 255l82 49q181 105 252.5 193t71.5 217q0 132 -89 217.5t-235 85.5q-140 0 -238.5 -91t-105.5 -237h-65q5 167 118.5 276t290.5 109q176 0 285 -98.5t109 -261.5q0 -70 -19 -128.5t-45.5 -99t-80 -85
t-96 -72.5t-120.5 -74z" />
    <glyph glyph-name="three.tf" 
d="M264 360q17 -150 122 -238.5t249 -88.5q166 0 267.5 96t101.5 240q0 84 -35 147.5t-95.5 100t-133.5 54t-158 17.5q-34 0 -80 -4v66q58 -5 76 -5q71 0 136 19t119.5 56.5t87.5 101t33 143.5q0 140 -87 217.5t-236 77.5q-131 0 -224 -79.5t-110 -207.5h-66
q24 157 135.5 250.5t264.5 93.5q74 0 141 -20t124 -60t90.5 -110.5t33.5 -161.5q0 -266 -279 -340v-8q153 -17 240.5 -114t87.5 -234q0 -175 -124.5 -284.5t-309.5 -109.5q-184 0 -300.5 102.5t-135.5 282.5h65z" />
    <glyph glyph-name="four.tf" 
d="M891 1399v-932h221v-61h-221v-406h-66v406h-659v53l643 940h82zM825 467v451q0 244 9 409h-9l-577 -860h577z" />
    <glyph glyph-name="five.tf" 
d="M631 33q161 0 264.5 113.5t103.5 295.5q0 185 -84.5 289.5t-242.5 104.5q-127 0 -218 -61t-151 -193h-57l82 817h688v-62h-631l-66 -624q44 81 138 130.5t215 49.5q179 0 286 -115t107 -336q0 -211 -123.5 -339t-310.5 -128q-173 0 -278 98.5t-124 278.5h66
q18 -151 109 -235t227 -84z" />
    <glyph glyph-name="six.tf" 
d="M987 1090q-29 139 -103.5 203.5t-199.5 64.5q-370 0 -393 -735q35 122 146 188t241 66q176 0 288.5 -118t112.5 -317q0 -205 -116.5 -336t-300.5 -131q-437 0 -437 650q0 395 117 593.5t342 198.5q162 0 256 -87.5t113 -239.5h-66zM678 819q-156 0 -263.5 -107.5
t-107.5 -269.5q0 -177 103 -293t252 -116q158 0 255 113.5t97 295.5q0 166 -94 271.5t-242 105.5z" />
    <glyph glyph-name="seven.tf" 
d="M471 0q131 765 504 1337h-721v62h795v-58q-398 -618 -512 -1341h-66z" />
    </font>
</defs>
</svg>
