<?xml version="1.0" standalone="no"?>
<!DOCTYPE svg PUBLIC "-//W3C//DTD SVG 1.1//EN" "http://www.w3.org/Graphics/SVG/1.1/DTD/svg11.dtd" >
<svg xmlns="http://www.w3.org/2000/svg" xmlns:xlink="http://www.w3.org/1999/xlink" version="1.1">
<metadata>
Created by FontForge 20170731 at Sat Jul 18 17:22:41 2020
 By Aleksey,,,
(c) 2012-2019, Copyright by Lineto GmbH. All rights reserved.
</metadata>
<defs>
<font id="Unica77LL-Black" horiz-adv-x="1290" >
  <font-face 
    font-family="Unica77 LL Black"
    font-weight="900"
    font-stretch="normal"
    units-per-em="2048"
    panose-1="2 11 10 4 2 1 1 1 1 2"
    ascent="1536"
    descent="-512"
    x-height="1057"
    cap-height="1487"
    bbox="-1030 -590 3158 2167"
    underline-thickness="102"
    underline-position="-409"
    unicode-range="U+000D-FEFF"
  />
<missing-glyph horiz-adv-x="1198" 
d="M111 0v1487h976v-1487h-976zM971 109v1269h-744v-1269h744z" />
    <glyph glyph-name="f_f" unicode="ff" horiz-adv-x="1427" 
d="M573 772v-772h-391v772h-159v285h159v37q0 200 95.5 311t297.5 111q77 0 189 -23v-268q-42 10 -68 10q-57 0 -91 -35t-34 -106v-37h263v37q0 200 95.5 311t297.5 111q76 0 188 -23v-268q-42 10 -67 10q-57 0 -91 -35t-34 -106v-37h192v-285h-190v-772h-391v772h-261z" />
    <glyph glyph-name="f_f_i" unicode="ffi" horiz-adv-x="1968" 
d="M1876 1057v-1057h-391v1057h391zM1876 1487v-328h-391v328h391zM573 772v-772h-391v772h-159v285h159v37q0 200 95.5 311t297.5 111q77 0 189 -23v-268q-42 10 -68 10q-57 0 -91 -35t-34 -106v-37h263v37q0 200 95.5 311t297.5 111q76 0 188 -23v-268q-42 10 -67 10
q-57 0 -91 -35t-34 -106v-37h192v-285h-190v-772h-391v772h-261z" />
    <glyph glyph-name="f_f_l" unicode="ffl" horiz-adv-x="1968" 
d="M1876 1487v-1487h-391v1487h391zM573 772v-772h-391v772h-159v285h159v37q0 200 95.5 311t297.5 111q77 0 189 -23v-268q-42 10 -68 10q-57 0 -91 -35t-34 -106v-37h263v37q0 200 95.5 311t297.5 111q76 0 188 -23v-268q-42 10 -67 10q-57 0 -91 -35t-34 -106v-37h192
v-285h-190v-772h-391v772h-261z" />
    <glyph glyph-name="f_i" unicode="fi" horiz-adv-x="1316" 
d="M23 772v285h159v37q0 200 95.5 311t297.5 111q77 0 189 -23v-268q-42 10 -68 10q-57 0 -91 -35t-34 -106v-37h193v-285h-191v-772h-391v772h-159zM1225 1057v-1057h-391v1057h391zM1225 1487v-328h-391v328h391z" />
    <glyph glyph-name="f_l" unicode="fl" horiz-adv-x="1316" 
d="M23 772v285h159v37q0 200 95.5 311t297.5 111q77 0 189 -23v-268q-42 10 -68 10q-57 0 -91 -35t-34 -106v-37h193v-285h-191v-772h-391v772h-159zM1225 1487v-1487h-391v1487h391z" />
    <glyph glyph-name=".notdef" horiz-adv-x="1198" 
d="M111 0v1487h976v-1487h-976zM971 109v1269h-744v-1269h744z" />
    <glyph glyph-name=".null" horiz-adv-x="0" 
 />
    <glyph glyph-name="nonmarkingreturn" horiz-adv-x="682" 
 />
    <glyph glyph-name="NULL" horiz-adv-x="0" 
 />
    <glyph glyph-name="NULL" horiz-adv-x="0" 
 />
    <glyph glyph-name="CR" unicode="&#xd;" horiz-adv-x="409" 
 />
    <glyph glyph-name="space" unicode=" " horiz-adv-x="409" 
 />
    <glyph glyph-name="exclam" unicode="!" horiz-adv-x="616" 
d="M96 346h420v-346h-420v346zM86 1487h449l-60 -1030h-332z" />
    <glyph glyph-name="quotedbl" unicode="&#x22;" horiz-adv-x="909" 
d="M406 1399l-78 -721h-193l-80 721h351zM854 1399l-78 -721h-194l-78 721h350z" />
    <glyph glyph-name="numbersign" unicode="#" 
d="M500 395l-105 -395h-254l105 395h-209l47 187h211l72 270h-207l47 186h211l96 361h254l-96 -361h123l96 361h254l-96 -361h204l-49 -186h-207l-71 -270h204l-49 -187h-204l-105 -395h-254l105 395h-123zM672 582l71 270h-122l-72 -270h123z" />
    <glyph glyph-name="dollar" unicode="$" horiz-adv-x="1214" 
d="M723 1403q196 -7 305 -128t109 -306h-404v24q0 60 -36.5 92.5t-104.5 32.5q-63 0 -97 -25.5t-34 -72.5q0 -43 36.5 -68.5t141.5 -54.5l84 -23q244 -70 346 -170t102 -276q0 -188 -123 -307.5t-325 -126.5v-291h-254v291q-92 9 -167 40t-133.5 87t-91 144t-32.5 202h416
q-2 -6 -2 -25q0 -66 42.5 -102.5t121.5 -36.5q62 0 101.5 29t39.5 78q0 58 -64 88q-34 15 -239 73q-102 29 -152 49t-90 48q-72 50 -112.5 134.5t-40.5 186.5q0 173 105.5 282t297.5 132v248h254v-248z" />
    <glyph glyph-name="percent" unicode="%" horiz-adv-x="1990" 
d="M313 997q0 -237 107 -237q104 0 104 237q0 236 -104 236q-107 0 -107 -236zM786 997q0 -213 -93.5 -321.5t-272.5 -108.5q-180 0 -274.5 108.5t-94.5 321.5q0 212 94.5 321t274.5 109q178 0 272 -109t94 -321zM1487 1427l-756 -1456h-229l753 1456h232zM1466 401
q0 -237 107 -237q104 0 104 237q0 236 -104 236q-107 0 -107 -236zM1939 401q0 -213 -93.5 -321.5t-272.5 -108.5q-180 0 -274.5 108.5t-94.5 321.5q0 212 94.5 321t274.5 109q178 0 272 -109t94 -321z" />
    <glyph glyph-name="ampersand" unicode="&#x26;" horiz-adv-x="1581" 
d="M1059 102q-154 -133 -432 -133q-260 0 -421 129.5t-161 339.5q0 133 75 239t212 169q-75 57 -117.5 134t-42.5 163q0 169 133.5 272t353.5 103q203 0 332 -101.5t129 -257.5q0 -102 -76 -204t-198 -167l190 -188q35 62 35 193h373q2 -14 2 -31q0 -113 -44 -237t-106 -191
l334 -334h-479zM551 602q-52 -39 -76 -80t-24 -94q0 -67 55 -112.5t137 -45.5q103 0 174 62zM637 967q125 85 125 178q0 48 -30.5 77t-84.5 29q-55 0 -86 -29t-31 -77q0 -52 23.5 -89t83.5 -89z" />
    <glyph glyph-name="quotesingle" unicode="'" horiz-adv-x="462" 
d="M408 1399l-78 -721h-195l-80 721h353z" />
    <glyph glyph-name="parenleft" unicode="(" horiz-adv-x="591" 
d="M311 -240q-148 283 -202 491.5t-54 422.5q0 407 256 862h246q-90 -240 -133 -448.5t-43 -419.5q0 -476 176 -908h-246z" />
    <glyph glyph-name="parenright" unicode=")" horiz-adv-x="591" 
d="M35 -240q94 241 135 476.5t41 431.5q0 215 -42.5 424t-133.5 444h248q254 -457 254 -862q0 -213 -54 -423t-200 -491h-248z" />
    <glyph glyph-name="asterisk" unicode="*" horiz-adv-x="980" 
d="M121 809l213 205l-293 41l92 282l260 -139l-51 289h299l-51 -289l260 137l92 -282l-293 -43l211 -205l-239 -174l-129 268l-130 -264z" />
    <glyph glyph-name="plus" unicode="+" 
d="M117 666h368v391h316v-391h370v-275h-370v-391h-316v391h-368v275z" />
    <glyph glyph-name="comma" unicode="," horiz-adv-x="581" 
d="M82 33v381h418v-420l-181 -385h-237l131 424h-131z" />
    <glyph glyph-name="hyphen" unicode="-" horiz-adv-x="854" 
d="M766 725v-303h-678v303h678z" />
    <glyph glyph-name="period" unicode="." horiz-adv-x="569" 
d="M489 414v-414h-409v414h409z" />
    <glyph glyph-name="slash" unicode="/" horiz-adv-x="917" 
d="M891 1487l-531 -1487h-329l532 1487h328z" />
    <glyph glyph-name="zero" unicode="0" horiz-adv-x="1359" 
d="M692 1434q282 0 443 -198.5t161 -543.5q0 -342 -161 -534.5t-451 -192.5q-299 0 -460 191.5t-161 543.5q0 339 168.5 536.5t460.5 197.5zM680 1133q-94 0 -138 -102t-44 -333q0 -234 43.5 -333t138.5 -99t138.5 99t43.5 333q0 231 -44 333t-138 102z" />
    <glyph glyph-name="one" unicode="1" horiz-adv-x="907" 
d="M33 856v291q187 0 272 51t113 201h379v-1399h-414v856h-350z" />
    <glyph glyph-name="two" unicode="2" horiz-adv-x="1294" 
d="M49 0q0 171 27 282.5t88 198.5q57 82 126 134.5t240 142.5q146 77 197 128.5t51 119.5q0 60 -35.5 94.5t-95.5 34.5q-146 0 -155 -201h-420q0 232 158.5 364t435.5 132q239 0 386.5 -110t147.5 -288q0 -152 -75 -259t-242 -195l-74 -39q-151 -80 -204.5 -125.5
t-65.5 -110.5q120 10 209 10h491v-313h-1190z" />
    <glyph glyph-name="three" unicode="3" horiz-adv-x="1296" 
d="M463 469q5 -103 53.5 -158t136.5 -55q75 0 119.5 39.5t44.5 105.5q0 152 -205 152h-57v305h45q104 0 149.5 36.5t45.5 113.5q0 60 -43 97.5t-111 37.5q-79 0 -122.5 -51t-45.5 -144h-407q6 230 157.5 358t425.5 128q266 0 412.5 -103t146.5 -284q0 -125 -65.5 -207
t-196.5 -111v-10q142 -29 214.5 -114t72.5 -220q0 -196 -155.5 -308t-436.5 -112q-104 0 -191 16.5t-162 54.5t-127.5 96t-82 143.5t-29.5 193.5h414z" />
    <glyph glyph-name="four" unicode="4" horiz-adv-x="1329" 
d="M35 272v314l522 813h526v-824h203v-303h-203v-272h-403v272h-645zM371 575h327v48.5v50.5v47t0.5 51.5t1.5 48.5t2 53.5t2.5 51.5t3.5 57t5 56t6 61l-19 6z" />
    <glyph glyph-name="five" unicode="5" 
d="M485 422q5 -72 49.5 -115t116.5 -43q71 0 116.5 59.5t45.5 147.5q0 89 -44.5 142t-121.5 53q-108 0 -162 -125l-405 28l82 830h991v-314h-420q-137 0 -239 11q-1 -10 -5.5 -59.5t-7.5 -74.5t-11 -63t-19 -65h16q98 110 297 110q207 0 345 -134.5t138 -336.5
q0 -228 -162 -368t-430 -140q-264 0 -428 125.5t-172 331.5h430z" />
    <glyph glyph-name="six" unicode="6" horiz-adv-x="1298" 
d="M799 995q0 78 -34.5 121t-96.5 43q-53 0 -93 -30.5t-63 -80.5t-34 -107t-11 -118q0 -31 2 -47h14q112 131 305 131q204 0 324.5 -122.5t120.5 -333.5q0 -215 -161 -350.5t-419 -135.5q-283 0 -436.5 186.5t-153.5 518.5q0 363 165.5 563.5t465.5 200.5
q235 0 377.5 -117.5t149.5 -321.5h-422zM649 616q-67 0 -111 -49t-44 -123q0 -78 45 -130t112 -52q69 0 113.5 49t44.5 127q0 77 -46 127.5t-114 50.5z" />
    <glyph glyph-name="seven" unicode="7" horiz-adv-x="1200" 
d="M256 0q65 307 191 590t288 495h-702v314h1126v-318q-285 -361 -436 -1018l-14 -63h-453z" />
    <glyph glyph-name="eight" unicode="8" horiz-adv-x="1310" 
d="M377 723q-135 24 -208 108.5t-73 210.5q0 172 155.5 282t401.5 110q252 0 406.5 -109.5t154.5 -282.5q0 -126 -69 -208t-207 -111v-6q152 -32 231.5 -120t79.5 -220q0 -193 -157 -302.5t-439 -109.5q-285 0 -439.5 107t-154.5 299q0 127 86.5 218.5t231.5 127.5v6z
M653 557q-74 0 -126 -45t-52 -111q0 -63 51 -104t127 -41q77 0 125.5 41t48.5 104q0 67 -48.5 111.5t-125.5 44.5zM653 1149q-71 0 -117.5 -42t-46.5 -103q0 -58 46.5 -99t117.5 -41q73 0 121.5 41t48.5 101t-49 101.5t-121 41.5z" />
    <glyph glyph-name="nine" unicode="9" horiz-adv-x="1292" 
d="M489 414q0 -76 41.5 -122t104.5 -46q38 0 67.5 15t48.5 43t31.5 61t19 77.5t9 84t2.5 87.5l-10 7q-64 -65 -129 -94t-160 -29q-200 0 -322 125.5t-122 324.5q0 216 153 351t408 135q282 0 440 -188.5t158 -516.5q0 -364 -164 -564t-463 -200q-234 0 -380.5 122.5
t-153.5 326.5h421zM623 1147q-69 0 -112.5 -48.5t-43.5 -123.5q0 -78 45.5 -128t114.5 -50q70 0 112.5 46.5t42.5 123.5q0 79 -44 129.5t-115 50.5z" />
    <glyph glyph-name="colon" unicode=":" horiz-adv-x="585" 
d="M498 414v-414h-410v414h410zM498 1057v-414h-410v414h410z" />
    <glyph glyph-name="semicolon" unicode=";" horiz-adv-x="591" 
d="M500 1057v-414h-406v414h406zM94 33v381h406v-420l-176 -385h-238l131 424h-123z" />
    <glyph glyph-name="less" unicode="&#x3c;" 
d="M1126 1077v-289l-630 -260l630 -260v-291l-981 439v227z" />
    <glyph glyph-name="equal" unicode="=" 
d="M117 881h1054v-265h-1054v265zM117 496h1054v-265h-1054v265z" />
    <glyph glyph-name="greater" unicode="&#x3e;" 
d="M164 -23v291l631 260l-631 260v289l981 -434v-227z" />
    <glyph glyph-name="question" unicode="?" horiz-adv-x="1191" 
d="M37 1032q12 239 168.5 362.5t415.5 123.5q235 0 381.5 -103t146.5 -276q0 -37 -5.5 -70t-12 -57.5t-23.5 -53t-27 -44t-37 -44t-38.5 -39.5t-47 -43t-47.5 -43q-100 -92 -129.5 -139t-29.5 -131v-18h-344v39q0 126 34 220t125 179q83 78 117.5 122.5t34.5 90.5
q0 57 -32.5 91t-92.5 34q-145 0 -145 -211h-412v10zM377 0v346h414v-346h-414z" />
    <glyph glyph-name="at" unicode="@" horiz-adv-x="1916" 
d="M979 899q-62 0 -110 -52.5t-71.5 -130t-23.5 -161.5q0 -102 32 -162.5t83 -60.5q54 0 98 37.5t69 97t38.5 124t13.5 126.5q0 48 -10 86t-40.5 67t-78.5 29zM1335 541q-10 -38 -10 -99q0 -116 78 -116q96 0 159.5 106.5t63.5 312.5q0 108 -32 199.5t-88.5 157.5
t-133.5 112t-166.5 68.5t-187.5 22.5q-139 0 -263.5 -52t-217.5 -144t-148 -228t-55 -295q0 -147 35 -266.5t95 -200t143 -135t177 -79t199 -24.5q294 0 535 152l108 -217q-292 -170 -676 -170q-138 0 -267 34.5t-245 108.5t-202 180t-136.5 258.5t-50.5 333.5
q0 205 70.5 382.5t196 306t309.5 201.5t401 73q182 0 340 -50.5t278.5 -146t189.5 -246t69 -338.5q0 -170 -57 -302.5t-156 -221.5q-140 -127 -301 -127q-75 0 -134.5 37.5t-93.5 114.5q-58 -80 -133 -115t-147 -35q-175 0 -277 125t-102 346q0 110 31.5 208t89 173.5
t145.5 119.5t195 44q132 0 215 -86l10 70h256z" />
    <glyph glyph-name="A" unicode="A" horiz-adv-x="1560" 
d="M1061 1487l508 -1487h-467l-74 260h-520l-76 -260h-440l508 1487h561zM758 1153q-22 -81 -76.5 -269t-81.5 -290h332q-98 335 -154 559h-20z" />
    <glyph glyph-name="B" unicode="B" horiz-adv-x="1351" 
d="M750 1487q520 0 520 -395q0 -127 -74.5 -211t-216.5 -119v-8q149 -12 233 -100.5t84 -235.5q0 -211 -142.5 -314.5t-436.5 -103.5h-606v1487h639zM643 324q120 0 172.5 34t52.5 107t-50 104t-171 31h-115v-276h111zM637 899q121 0 169 30.5t48 100.5q0 72 -47.5 102.5
t-163.5 30.5h-111v-264h105z" />
    <glyph glyph-name="C" unicode="C" horiz-adv-x="1452" 
d="M1411 580q-25 -302 -194 -458.5t-469 -156.5q-332 0 -510.5 198t-178.5 572q0 371 184.5 579t510.5 208q148 0 272 -44.5t209 -129.5q80 -77 122 -179.5t48 -248.5h-442q0 110 -57.5 174.5t-151.5 64.5q-123 0 -189.5 -110t-66.5 -314q0 -195 66.5 -302t189.5 -107
q95 0 156 67t61 187h440z" />
    <glyph glyph-name="D" unicode="D" horiz-adv-x="1470" 
d="M719 1487q326 0 510 -197.5t184 -541.5q0 -127 -25.5 -237.5t-81.5 -205.5t-139 -162t-204.5 -105t-272.5 -38h-579v1487h608zM647 365q174 0 251 94.5t77 283.5q0 192 -76.5 285.5t-251.5 93.5h-115v-757h115z" />
    <glyph glyph-name="E" unicode="E" horiz-adv-x="1239" 
d="M1159 1487v-359h-627v-198h570v-359h-570v-213h627v-358h-1048v1487h1048z" />
    <glyph glyph-name="F" unicode="F" horiz-adv-x="1210" 
d="M1157 1487v-359h-625v-233h588v-358h-588v-537h-421v1487h1046z" />
    <glyph glyph-name="G" unicode="G" horiz-adv-x="1486" 
d="M1038 150q-53 -90 -150.5 -135.5t-225.5 -45.5q-290 0 -446.5 206t-156.5 564q0 368 182.5 575.5t516.5 207.5q128 0 239 -31.5t200 -94t142.5 -166t59.5 -237.5h-443q-8 87 -63 140t-139 53q-122 0 -189 -118.5t-67 -317.5q0 -220 64.5 -337.5t193.5 -117.5
q108 0 173 63.5t72 194.5h-262v313h660v-866h-361v150z" />
    <glyph glyph-name="H" unicode="H" horiz-adv-x="1466" 
d="M532 1487v-535h402v535h422v-1487h-422v588h-402v-588h-421v1487h421z" />
    <glyph glyph-name="I" unicode="I" horiz-adv-x="643" 
d="M532 1487v-1487h-421v1487h421z" />
    <glyph glyph-name="J" unicode="J" horiz-adv-x="831" 
d="M25 354q55 -14 102 -14q49 0 82 14t53 38t30.5 69t13.5 93t3 124v809h422v-928q0 -155 -13.5 -238t-47.5 -147q-60 -109 -156 -153t-235 -44q-126 0 -254 25v352z" />
    <glyph glyph-name="K" unicode="K" horiz-adv-x="1384" 
d="M532 1487q-5 -563 -8 -629l15 2l354 627h481l-444 -713l483 -774h-502l-372 680h-15q8 -383 8 -680h-421v1487h421z" />
    <glyph glyph-name="L" unicode="L" horiz-adv-x="1179" 
d="M532 1487v-1122h627v-365h-1048v1487h421z" />
    <glyph glyph-name="M" unicode="M" horiz-adv-x="2004" 
d="M487 1116q7 -431 7 -1116h-383v1487h698q8 -36 40.5 -188t47.5 -225t39.5 -198t40 -224.5t24.5 -188.5h21q12 109 35.5 256t42 247.5t54 281.5t46.5 239h694v-1487h-389q0 747 6 1116h-24q-41 -212 -130 -609t-112 -507h-493q-8 38 -103 467.5t-135 648.5h-27z" />
    <glyph glyph-name="N" unicode="N" horiz-adv-x="1540" 
d="M1430 0h-613q-87 259 -127.5 383.5t-106 349t-98.5 383.5h-20q2 -115 7.5 -346t9 -424t3.5 -346h-374v1487h614q30 -95 113 -337t139 -423.5t90 -335.5h20q-3 108 -11.5 340t-13.5 416t-5 340h373v-1487z" />
    <glyph glyph-name="O" unicode="O" horiz-adv-x="1519" 
d="M760 1522q322 0 512 -214t190 -571q0 -354 -188.5 -563t-513.5 -209q-331 0 -517 204.5t-186 567.5q0 360 189 572.5t514 212.5zM760 1157q-129 0 -196.5 -105t-67.5 -309q0 -195 68.5 -306t195.5 -111q129 0 196.5 108.5t67.5 308.5q0 194 -69 304t-195 110z" />
    <glyph glyph-name="P" unicode="P" horiz-adv-x="1335" 
d="M717 1487q175 0 305.5 -54t207.5 -171t77 -287q0 -257 -155.5 -385.5t-434.5 -128.5h-185v-461h-421v1487h606zM647 815q125 0 177.5 35.5t52.5 124.5q0 87 -53.5 123.5t-176.5 36.5h-115v-320h115z" />
    <glyph glyph-name="Q" unicode="Q" horiz-adv-x="1519" 
d="M760 1522q322 0 512 -214t190 -571q0 -321 -155 -524l147 -162l-213 -188l-156 170q-152 -68 -325 -68q-331 0 -517 204.5t-186 567.5q0 360 189 572.5t514 212.5zM760 1157q-129 0 -196.5 -105t-67.5 -309q0 -195 68.5 -306t195.5 -111q43 0 55 4l-153 170l212 186
l127 -141q23 97 23 198q0 194 -69 304t-195 110z" />
    <glyph glyph-name="R" unicode="R" horiz-adv-x="1361" 
d="M705 1487q149 0 243 -25t166 -80q71 -56 108.5 -136.5t37.5 -172.5q0 -88 -34.5 -167t-110 -137t-179.5 -69v-16q55 -3 97 -20.5t70.5 -42.5t52.5 -69t39 -85t34 -105l106 -362h-448l-45 201q-16 73 -27 116.5t-26 81.5t-28.5 56.5t-35.5 32t-46.5 17t-62.5 3.5h-84v-508
h-421v1487h594zM637 846q213 0 213 147q0 78 -50 112t-163 34h-105v-293h105z" />
    <glyph glyph-name="S" unicode="S" horiz-adv-x="1351" 
d="M500 479q5 -94 47.5 -137t134.5 -43q75 0 123.5 33.5t48.5 87.5q0 59 -52.5 90t-226.5 76q-164 42 -246 77t-141 91q-118 106 -118 303q0 212 159.5 338.5t434.5 126.5q160 0 290 -43t203 -121q58 -61 84.5 -139t26.5 -193h-447q-5 88 -42 125t-122 37q-66 0 -106.5 -30
t-40.5 -79q0 -64 63 -90q50 -25 224 -67q153 -40 237.5 -76t139.5 -88q124 -116 124 -316q0 -222 -169.5 -349.5t-466.5 -127.5q-303 0 -458 132t-155 382h451z" />
    <glyph glyph-name="T" unicode="T" horiz-adv-x="1331" 
d="M20 1122v365h1291v-365h-434v-1122h-422v1122h-435z" />
    <glyph glyph-name="U" unicode="U" horiz-adv-x="1441" 
d="M1346 586q0 -306 -157.5 -463.5t-463.5 -157.5q-303 0 -466 160t-163 459v903h422v-856q0 -164 46 -234.5t151 -70.5q106 0 157.5 72t51.5 233v856h422v-901z" />
    <glyph glyph-name="V" unicode="V" horiz-adv-x="1394" 
d="M461 1487l170 -750l65 -329h21l67 323l177 756h432l-412 -1487h-567l-412 1487h459z" />
    <glyph glyph-name="W" unicode="W" horiz-adv-x="2076" 
d="M1204 0l-137 1061h-20l-175 -1061h-581l-268 1487h423l146 -1079h20q13 146 43 335l123 744h559l131 -744q26 -153 50 -335h20l131 1079h385l-270 -1487h-580z" />
    <glyph glyph-name="X" unicode="X" horiz-adv-x="1423" 
d="M1442 0h-510q-34 61 -73.5 142t-93 198t-58.5 127h-17q-8 -17 -45.5 -98t-61 -131t-59 -120.5t-61.5 -117.5h-488l455 772l-401 715h501q91 -170 191 -422h18q105 266 189 422h477l-406 -699z" />
    <glyph glyph-name="Y" unicode="Y" horiz-adv-x="1329" 
d="M883 0h-437v526l-456 961h481q22 -58 68.5 -172t80 -205t54.5 -172h14q25 107 98 308.5t86 240.5h469l-458 -957v-530z" />
    <glyph glyph-name="Z" unicode="Z" horiz-adv-x="1267" 
d="M315 686q3 4 57 67.5t83 96.5t80 91.5t93.5 104.5t78.5 82l-9 11q-202 -11 -610 -11v359h1096v-369l-260 -315q-210 -263 -375 -445l6 -12q244 12 664 12v-358h-1162v371z" />
    <glyph glyph-name="bracketleft" unicode="[" horiz-adv-x="690" 
d="M106 1516h553v-197h-235v-1342h235v-198h-553v1737z" />
    <glyph glyph-name="backslash" unicode="\" horiz-adv-x="915" 
d="M557 0l-530 1487h325l535 -1487h-330z" />
    <glyph glyph-name="bracketright" unicode="]" horiz-adv-x="688" 
d="M31 -23h235v1342h-235v197h551v-1737h-551v198z" />
    <glyph glyph-name="asciicircum" unicode="^" 
d="M1104 623h-266l-191 510l-192 -510h-271l351 864h221z" />
    <glyph glyph-name="underscore" unicode="_" horiz-adv-x="976" 
d="M0 -86h977v-166h-977v166z" />
    <glyph glyph-name="grave" unicode="`" horiz-adv-x="1265" 
d="M252 1487h389l201 -295h-307z" />
    <glyph glyph-name="a" unicode="a" horiz-adv-x="1202" 
d="M768 0q-7 38 -10 121q-85 -85 -156 -114.5t-182 -29.5q-173 0 -275 87t-102 233q0 183 163.5 270t512.5 92v46q0 141 -113 141q-107 0 -127 -123h-395q10 99 55.5 172t118 115t158.5 62t188 20q141 0 234.5 -22.5t158.5 -79t94 -151.5t29 -239v-330q0 -180 25 -270h-377z
M719 438q-129 -7 -172 -18q-100 -28 -101 -105q0 -90 115 -90q76 0 117 45.5t41 135.5v32z" />
    <glyph glyph-name="b" unicode="b" horiz-adv-x="1234" 
d="M92 0v1487h391v-547q53 78 119 108.5t158 30.5q188 0 305 -148t117 -399q0 -260 -116.5 -407.5t-309.5 -147.5q-101 0 -174.5 40.5t-128.5 129.5v-147h-361zM614 786q-73 0 -115 -68t-42 -190q0 -128 40.5 -193t116.5 -65t117 66t41 194q0 125 -41.5 190.5t-116.5 65.5z
" />
    <glyph glyph-name="c" unicode="c" horiz-adv-x="1208" 
d="M1171 438q-26 -223 -173 -348t-386 -125q-257 0 -411 152t-154 403q0 255 154.5 413.5t406.5 158.5q147 0 268 -50.5t198.5 -155t82.5 -247.5h-397q-5 74 -41 117t-96 43q-77 0 -118.5 -75t-41.5 -210q0 -123 39 -189.5t112 -66.5q61 0 99 46.5t49 133.5h409z" />
    <glyph glyph-name="d" unicode="d" horiz-adv-x="1234" 
d="M782 147q-55 -89 -129 -129.5t-176 -40.5q-193 0 -308.5 147t-115.5 408q0 251 115.5 399t306.5 148q92 0 159 -30.5t118 -108.5v547h391v-1487h-361v147zM618 786q-74 0 -114.5 -65t-40.5 -191q0 -128 40.5 -194t114.5 -66q160 0 160 258q0 122 -43 190t-117 68z" />
    <glyph glyph-name="e" unicode="e" horiz-adv-x="1243" 
d="M1188 328q-47 -174 -195.5 -268.5t-376.5 -94.5q-263 0 -416 150.5t-153 412.5q0 246 162 405t418 159q275 0 421 -160t146 -451q0 -26 -2 -49h-735q0 -102 45 -154.5t125 -52.5q97 0 141 103h420zM786 659q-12 172 -157 172q-68 0 -115 -48t-55 -124h327z" />
    <glyph glyph-name="f" unicode="f" horiz-adv-x="776" 
d="M23 772v285h159v37q0 200 95.5 311t297.5 111q77 0 189 -23v-268q-42 10 -68 10q-57 0 -91 -35t-34 -106v-37h193v-285h-191v-772h-391v772h-159z" />
    <glyph glyph-name="g" unicode="g" horiz-adv-x="1234" 
d="M473 -72q0 -57 40.5 -84.5t102.5 -27.5q152 0 152 235v164q-94 -166 -305 -166q-192 0 -300 134.5t-108 375.5q0 235 114.5 377.5t305.5 142.5q108 0 189.5 -48.5t119.5 -139.5v166h361v-922q0 -157 -33.5 -264t-104.5 -171t-172 -92t-247 -28q-230 0 -357.5 88
t-140.5 260h383zM610 780q-67 0 -106 -62t-39 -165q0 -99 38.5 -158t106.5 -59q69 0 108.5 61.5t39.5 167.5q0 99 -39.5 157t-108.5 58z" />
    <glyph glyph-name="h" unicode="h" horiz-adv-x="1232" 
d="M483 924q89 155 299 155q228 0 316 -172q30 -60 40.5 -128t10.5 -210v-569h-391v580q0 109 -31 157.5t-100 48.5q-88 0 -125 -106q-19 -53 -19 -199v-481h-391v1487h391v-563z" />
    <glyph glyph-name="i" unicode="i" horiz-adv-x="575" 
d="M483 1057v-1057h-391v1057h391zM483 1487v-328h-391v328h391z" />
    <glyph glyph-name="j" unicode="j" horiz-adv-x="575" 
d="M-104 -129q23 -6 61 -6q42 0 69.5 16.5t41.5 48.5t19 67.5t5 84.5v975h391v-1041q0 -226 -106.5 -331t-308.5 -105q-96 0 -172 17v274zM483 1487v-328h-391v328h391z" />
    <glyph glyph-name="k" unicode="k" horiz-adv-x="1169" 
d="M483 1487v-432q0 -262 -8 -393h19q31 75 109.5 212.5t101.5 182.5h452l-332 -490l381 -567h-473q-26 49 -78 141t-92 166.5t-69 141.5h-19q8 -150 8 -449h-391v1487h391z" />
    <glyph glyph-name="l" unicode="l" horiz-adv-x="575" 
d="M483 1487v-1487h-391v1487h391z" />
    <glyph glyph-name="m" unicode="m" horiz-adv-x="1810" 
d="M457 930q115 149 311 149q112 0 175 -40t106 -130q108 170 321 170q203 0 299 -159q31 -54 44 -143.5t13 -250.5v-526h-391v592q0 104 -25.5 149t-82.5 45q-66 0 -94.5 -63t-28.5 -205v-518h-391v594q0 107 -23.5 149.5t-79.5 42.5q-66 0 -96.5 -63t-30.5 -199v-524h-391
v1057h365v-127z" />
    <glyph glyph-name="n" unicode="n" horiz-adv-x="1232" 
d="M457 909q108 170 325 170q110 0 192 -43.5t124 -128.5q30 -59 40.5 -128t10.5 -210v-569h-391v580q0 109 -31 157.5t-100 48.5q-88 0 -125 -106q-19 -53 -19 -199v-481h-391v1057h365v-148z" />
    <glyph glyph-name="o" unicode="o" horiz-adv-x="1241" 
d="M625 1092q275 0 421 -154t146 -416q0 -259 -148.5 -408t-422.5 -149q-280 0 -426 149.5t-146 411.5q0 257 152 411.5t424 154.5zM621 799q-73 0 -117.5 -71.5t-44.5 -197.5q0 -128 43.5 -200t118.5 -72t118 71t43 199q0 123 -44.5 197t-116.5 74z" />
    <glyph glyph-name="p" unicode="p" horiz-adv-x="1234" 
d="M453 909q55 87 129 128.5t174 41.5q193 0 309.5 -147.5t116.5 -407.5q0 -254 -116.5 -400.5t-305.5 -146.5q-91 0 -157.5 31t-119.5 107v-527h-391v1469h361v-148zM614 270q75 0 116.5 65.5t41.5 190.5q0 128 -41 194t-117 66t-116.5 -65t-40.5 -193q0 -122 42 -190
t115 -68z" />
    <glyph glyph-name="q" unicode="q" horiz-adv-x="1234" 
d="M1143 1057v-1469h-391v527q-52 -76 -119 -107t-158 -31q-191 0 -306.5 148t-115.5 399q0 261 115.5 408t308.5 147q197 0 305 -170v148h361zM618 270q74 0 117 68t43 190q0 258 -160 258q-74 0 -114.5 -66t-40.5 -194q0 -126 40.5 -191t114.5 -65z" />
    <glyph glyph-name="r" unicode="r" horiz-adv-x="897" 
d="M455 1057v-178q54 104 126.5 147t190.5 43q40 0 105 -12v-344q-61 12 -105 12q-96 0 -155.5 -26.5t-94.5 -88.5q-23 -43 -31 -99t-8 -179v-332h-391v1057h363z" />
    <glyph glyph-name="s" unicode="s" horiz-adv-x="1183" 
d="M455 358q0 -76 33 -112.5t106 -36.5q59 0 93 21t34 57q0 25 -14.5 44.5t-35.5 31.5t-58.5 23.5t-68.5 18.5t-81.5 18t-83.5 19q-67 16 -118 37.5t-99 57t-73.5 90.5t-25.5 127q0 152 149.5 245t381.5 93q99 0 181.5 -16t157.5 -53.5t122 -109t57 -172.5h-401
q-12 107 -131 107q-53 0 -81 -21t-28 -53q0 -18 7.5 -32.5t27 -26.5t35 -19.5t51.5 -15.5l54 -12t64 -12q25 -5 38 -7q47 -9 80.5 -17.5t77.5 -23.5t75 -31.5t64 -43.5t52.5 -58.5t32.5 -76t13 -97.5q0 -155 -147 -245.5t-402 -90.5q-275 0 -409.5 97t-145.5 296h416z" />
    <glyph glyph-name="t" unicode="t" horiz-adv-x="800" 
d="M758 0q-114 -12 -207 -12q-98 0 -165 17.5t-115.5 59t-71.5 113t-23 178.5v416h-162v285h162v289h391v-289h191v-285h-191v-293q0 -108 26.5 -147t98.5 -39q27 0 66 10v-303z" />
    <glyph glyph-name="u" unicode="u" horiz-adv-x="1232" 
d="M776 147q-55 -88 -134 -129t-189 -41q-229 0 -318 173q-31 56 -41 123.5t-10 213.5v570h391v-580q0 -110 30.5 -158.5t96.5 -48.5q45 0 81.5 29t49.5 76q17 47 17 200v482h391v-1057h-365v147z" />
    <glyph glyph-name="v" unicode="v" horiz-adv-x="1179" 
d="M434 1057l88 -383q34 -146 62 -326h20l62 314l90 395h418l-320 -1057h-528l-318 1057h426z" />
    <glyph glyph-name="w" unicode="w" horiz-adv-x="1843" 
d="M1200 1057q98 -454 137 -715h21q26 247 94 715h375l-232 -1057h-540q-4 23 -24.5 124.5t-29 147.5t-23.5 130.5t-26 156t-20 141.5h-21q-41 -291 -125 -700h-540l-230 1057h404q49 -300 92 -715h20q27 181 142 715h526z" />
    <glyph glyph-name="x" unicode="x" horiz-adv-x="1148" 
d="M23 1057h442q68 -162 115 -305h20q52 162 105 305h421l-272 -504l313 -553h-446q-115 251 -143 332h-19q-26 -78 -139 -332h-438l315 553z" />
    <glyph glyph-name="y" unicode="y" horiz-adv-x="1167" 
d="M829 -18q-70 -222 -179.5 -312t-303.5 -90q-114 0 -211 17v284q36 -8 80 -8q139 0 139 129q0 34 -24 102l-334 953h446l93 -395l59 -314h20l60 314l96 395h391z" />
    <glyph glyph-name="z" unicode="z" horiz-adv-x="1114" 
d="M45 289q38 37 126 123t138.5 135t124 115t133.5 114l-8 6q-110 -10 -315 -10h-174v285h972v-287q-43 -41 -127.5 -123.5t-137.5 -133t-126.5 -116.5t-134.5 -114l4 -9q108 9 342 9h219v-283h-1036v289z" />
    <glyph glyph-name="braceleft" unicode="{" horiz-adv-x="681" 
d="M236 639q57 -11 98 -27t68.5 -41.5t44 -52t25 -68.5t11 -80.5t2.5 -97.5v-100q0 -48 1 -74.5t5.5 -61t14.5 -53t27.5 -36.5t44.5 -25.5t65 -7.5h16v-139q-13 0 -29 -1t-28 -1q-217 0 -310 83.5t-93 295.5v145q0 130 -46.5 192.5t-158.5 79.5v152q112 17 158.5 79.5
t46.5 192.5v146q0 209 98 294t305 85q12 0 28 -1t29 -1v-140h-16q-38 0 -65 -7.5t-44.5 -25.5t-27.5 -36.5t-14.5 -53t-5.5 -61t-1 -74.5v-98q0 -70 -4 -114.5t-18 -92t-40.5 -76t-73 -52t-113.5 -34.5v-12z" />
    <glyph glyph-name="bar" unicode="|" horiz-adv-x="505" 
d="M106 0v1487h293v-1487h-293z" />
    <glyph glyph-name="braceright" unicode="}" horiz-adv-x="684" 
d="M449 651q-67 11 -114 34.5t-74 52.5t-41.5 76t-18.5 92t-4 114v98q0 48 -1 74.5t-5.5 61t-14.5 53t-27.5 36.5t-44.5 25.5t-65 7.5h-16v140q14 0 30 1t27 1q206 0 305.5 -85t99.5 -294v-146q0 -130 45.5 -192.5t157.5 -79.5v-152q-112 -17 -157.5 -79.5t-45.5 -192.5
v-145q0 -212 -93 -295.5t-312 -83.5q-11 0 -27 1t-30 1v139h16q38 0 65 7.5t44.5 25.5t27.5 36.5t14.5 53t5.5 61t1 74.5v100q0 70 4 115t18.5 91t42 74.5t73.5 51t114 35.5v12z" />
    <glyph glyph-name="asciitilde" unicode="~" 
d="M862 344q-56 2 -132.5 37.5t-151.5 69.5t-129 34q-114 0 -187 -141l-168 174q132 232 336 232q46 0 105 -22.5t106.5 -49.5t104.5 -49.5t100 -22.5q110 0 176 146l176 -177q-135 -231 -336 -231z" />
    <glyph glyph-name="uni00A0" unicode="&#xa0;" horiz-adv-x="409" 
 />
    <glyph glyph-name="exclamdown" unicode="&#xa1;" horiz-adv-x="595" 
d="M510 752h-420v346h420v-346zM520 -389h-448l59 1030h332z" />
    <glyph glyph-name="cent" unicode="&#xa2;" horiz-adv-x="1228" 
d="M1188 657q-23 -194 -138 -312.5t-305 -147.5v-228h-243v230q-207 37 -326 179.5t-119 360.5q0 222 120 370t325 185v224h243v-222q188 -31 305 -142.5t124 -295.5h-400q-5 74 -40 115t-95 41q-78 0 -119 -73.5t-41 -207.5q0 -123 39 -187.5t113 -64.5q61 0 98.5 45.5
t48.5 130.5h410z" />
    <glyph glyph-name="sterling" unicode="&#xa3;" horiz-adv-x="1318" 
d="M74 317q89 5 127.5 63t42.5 206h-170v270h170v62q0 266 133 389t397 123q236 0 357 -113.5t126 -327.5h-376q-5 73 -31.5 107t-81.5 34q-64 0 -92.5 -44.5t-28.5 -133.5v-96h252v-270h-252q0 -126 -16 -180t-53 -91l4 -12q85 10 301 10h374v-313h-1183v317z" />
    <glyph glyph-name="currency" unicode="&#xa4;" horiz-adv-x="1150" 
d="M573 1040q118 0 201 -47l141 142l193 -187l-154 -131q45 -99 45 -192q0 -126 -49 -207l142 -139l-185 -179l-139 142q-110 -45 -199 -45q-111 0 -198 43l-135 -142l-181 181l138 131q-52 92 -52 204q0 110 54 203l-150 133l195 187l131 -142q91 45 202 45zM571 799
q-66 0 -102.5 -51t-36.5 -132q0 -85 42.5 -131.5t94.5 -46.5q54 0 96 46.5t42 138.5q0 72 -36.5 124t-99.5 52z" />
    <glyph glyph-name="yen" unicode="&#xa5;" horiz-adv-x="1357" 
d="M893 530h324v-223h-324v-307h-436v307h-322v223h320l-41 91h-279v223h176l-272 555h459q40 -99 97.5 -254.5t88.5 -237.5h16q117 354 168 492h453l-279 -555h175v-223h-281z" />
    <glyph glyph-name="brokenbar" unicode="&#xa6;" horiz-adv-x="505" 
d="M106 0v606h293v-606h-293zM106 819v606h293v-606h-293z" />
    <glyph glyph-name="section" unicode="&#xa7;" horiz-adv-x="1181" 
d="M473 102q0 -106 113 -106q100 0 100 80q0 31 -27 55t-94 53l-178 74q-338 138 -338 377q0 104 55 176.5t154 101.5q-115 71 -115 209q0 148 123 237t332 89q210 0 326.5 -89t122.5 -255h-361q-6 88 -104 88q-41 0 -65.5 -18.5t-24.5 -49.5t19.5 -52t66.5 -40l217 -86
q178 -69 258 -159t80 -220q0 -168 -164 -260q60 -47 85 -96t25 -121q0 -155 -136 -252.5t-353 -97.5q-219 0 -353.5 99t-134.5 263h371zM778 426q39 45 39 100q0 54 -44 92.5t-169 86.5l-192 77q-35 -47 -35 -96q0 -42 17.5 -69t67.5 -55t156 -70z" />
    <glyph glyph-name="dieresis" unicode="&#xa8;" horiz-adv-x="1302" 
d="M727 1487h340v-309h-340v309zM236 1487h339v-309h-339v309z" />
    <glyph glyph-name="copyright" unicode="&#xa9;" horiz-adv-x="1654" 
d="M1231 610q-20 -160 -124.5 -253t-268.5 -93q-192 0 -307 128.5t-115 342.5q0 209 117 335t309 126q158 0 265 -93.5t124 -246.5h-215q-13 98 -54.5 141t-119.5 43q-209 0 -209 -305q0 -315 205 -315q77 0 119 45.5t59 144.5h215zM227 741q0 -129 49 -244.5t131 -197
t192 -129t228 -47.5t228 47.5t192 129t131 197t49 244.5q0 172 -83.5 314.5t-220.5 221.5t-296 79t-296 -79t-220.5 -221.5t-83.5 -314.5zM53 741q0 212 101 389t279 280t394 103q162 0 306 -60.5t247 -164t162.5 -246t59.5 -301.5q0 -213 -101 -391t-279.5 -281.5
t-394.5 -103.5t-394 103.5t-279 281.5t-101 391z" />
    <glyph glyph-name="ordfeminine" unicode="&#xaa;" horiz-adv-x="880" 
d="M578 686q-9 26 -9 96q-81 -118 -268 -118q-110 0 -183 59.5t-73 181.5q0 123 122 196t374 73v53q0 104 -103 104q-45 0 -75 -25.5t-37 -74.5h-250q4 128 104 204t256 76q108 0 178 -20.5t110 -67.5t55.5 -111.5t15.5 -162.5v-262q0 -133 18 -201h-235zM541 1026
q-240 0 -240 -106q0 -33 26 -57.5t79 -24.5q65 0 100 40.5t35 108.5v39z" />
    <glyph glyph-name="guillemotleft" unicode="&#xab;" horiz-adv-x="1095" 
d="M575 963l-196 -416l196 -414h-313l-225 414l225 416h313zM1044 963l-196 -416l196 -414h-313l-225 414l225 416h313z" />
    <glyph glyph-name="logicalnot" unicode="&#xac;" 
d="M127 838h1016v-666h-316v391h-700v275z" />
    <glyph glyph-name="uni00AD" unicode="&#xad;" horiz-adv-x="854" 
d="M766 725v-303h-678v303h678z" />
    <glyph glyph-name="registered" unicode="&#xae;" horiz-adv-x="1654" 
d="M850 1190q154 0 234.5 -60.5t80.5 -191.5q0 -77 -50 -135t-124 -76v-10q37 0 62.5 -11.5t43.5 -42.5t24.5 -49t20.5 -66q3 -11 5 -16l63 -231h-209l-53 180q-28 102 -56.5 128t-113.5 26h-61v-334h-205v889h338zM801 791q157 0 157 124q0 65 -38 94t-117 29h-86v-247h84z
M227 741q0 -129 49 -244.5t131 -197t192 -129t228 -47.5t228 47.5t192 129t131 197t49 244.5q0 172 -83.5 314.5t-220.5 221.5t-296 79t-296 -79t-220.5 -221.5t-83.5 -314.5zM53 741q0 212 101 389t279 280t394 103q162 0 306 -60.5t247 -164t162.5 -246t59.5 -301.5
q0 -213 -101 -391t-279.5 -281.5t-394.5 -103.5t-394 103.5t-279 281.5t-101 391z" />
    <glyph glyph-name="overscore" unicode="&#xaf;" horiz-adv-x="1148" 
d="M256 1450h637v-248h-637v248z" />
    <glyph glyph-name="degree" unicode="&#xb0;" horiz-adv-x="737" 
d="M37 1102q0 134 96.5 228.5t235.5 94.5q138 0 235.5 -94.5t97.5 -228.5q0 -135 -97.5 -229.5t-235.5 -94.5q-139 0 -235.5 94.5t-96.5 229.5zM236 1108q0 -57 38 -94t95 -37t95 37t38 94q0 56 -38 93.5t-95 37.5t-95 -37.5t-38 -93.5z" />
    <glyph glyph-name="plusminus" unicode="&#xb1;" 
d="M156 244h977v-244h-977v244zM156 881h340v331h295v-331h342v-246h-342v-332h-295v332h-340v246z" />
    <glyph glyph-name="twosuperior" unicode="&#xb2;" horiz-adv-x="796" 
d="M51 979v61q0 66 23.5 119.5t61 89t83 64.5t91 53.5t83 49.5t61 58.5t23.5 73.5q0 35 -21.5 56.5t-56.5 21.5q-43 0 -66.5 -31t-27.5 -102h-254q2 154 90.5 235.5t264.5 81.5q165 0 249 -66.5t84 -180.5q0 -58 -22 -106t-64 -86t-83 -66t-101 -65t-96 -64v-7h366v-190
h-688z" />
    <glyph glyph-name="threesuperior" unicode="&#xb3;" horiz-adv-x="811" 
d="M303 1253q0 -58 26 -88t72 -30q43 0 70 23.5t27 58.5q0 37 -28 54t-89 17h-43v187h47q59 0 81.5 15.5t22.5 53.5q0 74 -88 74q-96 0 -96 -115h-254q0 153 91.5 230t258.5 77q347 0 347 -235q0 -54 -39.5 -110t-96.5 -70v-6q58 -8 102 -60.5t44 -118.5q0 -127 -91 -193.5
t-257 -66.5q-184 0 -273.5 71t-89.5 232h256z" />
    <glyph glyph-name="acute" unicode="&#xb4;" horiz-adv-x="1261" 
d="M625 1487h385l-285 -295h-301z" />
    <glyph glyph-name="mu" unicode="&#xb5;" horiz-adv-x="1351" 
d="M494 1057v-580q0 -100 28 -153.5t101 -53.5q71 0 108 63t37 171v553h391v-695q0 -53 18 -73.5t56 -20.5q44 0 67 6v-272q-71 -18 -155 -18q-109 0 -178 23t-103 77l-14 22q-58 -118 -199 -118q-103 0 -157 57v-457h-392v1469h392z" />
    <glyph glyph-name="paragraph" unicode="&#xb6;" horiz-adv-x="1298" 
d="M842 -264v1528h-125v-1528h-271v805q-188 20 -297.5 150t-109.5 319q0 147 68.5 257t183.5 165t260 55h684v-223h-121v-1528h-272z" />
    <glyph glyph-name="middot" unicode="&#xb7;" horiz-adv-x="589" 
d="M500 915v-413h-410v413h410z" />
    <glyph glyph-name="cedilla" unicode="&#xb8;" horiz-adv-x="1212" 
d="M492 -428q-99 0 -140 10v135q9 -4 56 -4q102 0 102 74q0 33 -20.5 54.5t-59.5 21.5q-23 0 -37 -2v159h195v-79q80 -4 120 -52.5t40 -111.5q0 -96 -73 -150.5t-183 -54.5z" />
    <glyph glyph-name="onesuperior" unicode="&#xb9;" horiz-adv-x="575" 
d="M31 1475v161q46 0 76.5 2.5t60 11t46.5 24.5t27.5 42.5t10.5 65.5h244v-803h-254v496h-211z" />
    <glyph glyph-name="ordmasculine" unicode="&#xba;" horiz-adv-x="921" 
d="M461 856q70 0 112.5 60.5t42.5 173.5t-42 170t-113 57t-113.5 -57t-42.5 -170t43 -173.5t113 -60.5zM461 664q-197 0 -307.5 107.5t-110.5 318.5t107 316t311 105t311 -105t107 -316t-110.5 -318.5t-307.5 -107.5z" />
    <glyph glyph-name="guillemotright" unicode="&#xbb;" horiz-adv-x="1095" 
d="M834 133h-314l197 414l-197 416h314l225 -416zM365 133h-314l197 414l-197 416h314l225 -416z" />
    <glyph glyph-name="onequarter" unicode="&#xbc;" horiz-adv-x="1710" 
d="M31 1092v161q46 0 76.5 2.5t60 11t46.5 24.5t27.5 42.5t10.5 65.5h244v-803h-254v496h-211zM1247 1427l-755 -1456h-230l754 1456h231zM915 166v190l308 447h315v-447h135v-190h-135v-166h-258v166h-365zM1288 580q-36 -68 -147 -224h157v224h-10z" />
    <glyph glyph-name="onehalf" unicode="&#xbd;" horiz-adv-x="1714" 
d="M31 1092v161q46 0 76.5 2.5t60 11t46.5 24.5t27.5 42.5t10.5 65.5h244v-803h-254v496h-211zM1247 1427l-755 -1456h-230l754 1456h231zM969 0v61q0 66 23.5 119.5t61 89t83 64.5t91 53.5t83 49.5t61 58.5t23.5 73.5q0 35 -21.5 56.5t-56.5 21.5q-43 0 -66.5 -31
t-27.5 -102h-254q2 155 90 236t264 81q165 0 249.5 -66.5t84.5 -180.5q0 -58 -22 -106t-64.5 -86t-83.5 -66t-101 -65t-96 -64v-7h367v-190h-688z" />
    <glyph glyph-name="threequarters" unicode="&#xbe;" horiz-adv-x="1945" 
d="M303 870q0 -58 26 -88t72 -30q43 0 70 23.5t27 58.5q0 37 -28 54t-89 17h-43v187h47q59 0 81.5 15.5t22.5 53.5q0 74 -88 74q-96 0 -96 -115h-254q0 153 91.5 230t258.5 77q347 0 347 -235q0 -54 -39.5 -110t-96.5 -70v-6q58 -8 102 -60.5t44 -118.5q0 -127 -91 -193.5
t-257 -66.5q-184 0 -273.5 71t-89.5 232h256zM1483 1427l-756 -1456h-229l753 1456h232zM1151 166v190l307 447h316v-447h135v-190h-135v-166h-258v166h-365zM1524 580q-16 -31 -39 -67t-36 -55t-41.5 -58.5t-31.5 -43.5h158v224h-10z" />
    <glyph glyph-name="questiondown" unicode="&#xbf;" horiz-adv-x="1183" 
d="M1151 66q-12 -239 -168.5 -362.5t-415.5 -123.5q-235 0 -381.5 103t-146.5 276q0 42 5 77.5t19.5 67t26 53.5t38.5 51.5t42 44.5t52 48.5t54 50.5q100 92 130 139.5t30 131.5v18h344v-39q0 -126 -34 -220t-125 -179q-83 -78 -117.5 -122.5t-34.5 -90.5q0 -57 32.5 -91
t92.5 -34q145 0 145 211h412v-10zM811 1098v-346h-414v346h414z" />
    <glyph glyph-name="Agrave" unicode="&#xc0;" horiz-adv-x="1560" 
d="M1061 1487l508 -1487h-467l-74 260h-520l-76 -260h-440l508 1487h561zM758 1153q-22 -81 -76.5 -269t-81.5 -290h332q-98 335 -154 559h-20zM367 1878h401l211 -274h-313z" />
    <glyph glyph-name="Aacute" unicode="&#xc1;" horiz-adv-x="1560" 
d="M1061 1487l508 -1487h-467l-74 260h-520l-76 -260h-440l508 1487h561zM758 1153q-22 -81 -76.5 -269t-81.5 -290h332q-98 335 -154 559h-20zM768 1878h399l-303 -274h-309z" />
    <glyph glyph-name="Acircumflex" unicode="&#xc2;" horiz-adv-x="1560" 
d="M1061 1487l508 -1487h-467l-74 260h-520l-76 -260h-440l508 1487h561zM758 1153q-22 -81 -76.5 -269t-81.5 -290h332q-98 335 -154 559h-20zM770 1741l-127 -137h-307l215 274h440l217 -274h-315z" />
    <glyph glyph-name="Atilde" unicode="&#xc3;" horiz-adv-x="1560" 
d="M1061 1487l508 -1487h-467l-74 260h-520l-76 -260h-440l508 1487h561zM758 1153q-22 -81 -76.5 -269t-81.5 -290h332q-98 335 -154 559h-20zM365 1581q1 144 61.5 220.5t161.5 76.5q63 0 165 -37t130 -37q36 0 57 19.5t21 54.5h188q0 -139 -60 -218t-161 -79
q-63 0 -164.5 36t-132.5 36q-78 0 -78 -72h-188z" />
    <glyph glyph-name="Adieresis" unicode="&#xc4;" horiz-adv-x="1560" 
d="M1061 1487l508 -1487h-467l-74 260h-520l-76 -260h-440l508 1487h561zM758 1153q-22 -81 -76.5 -269t-81.5 -290h332q-98 335 -154 559h-20zM838 1878h348v-295h-348v295zM346 1878h346v-295h-346v295z" />
    <glyph glyph-name="Aring" unicode="&#xc5;" horiz-adv-x="1560" 
d="M1061 1487l508 -1487h-467l-74 260h-520l-76 -260h-440l508 1487h561zM758 1153q-22 -81 -76.5 -269t-81.5 -290h332q-98 335 -154 559h-20zM782 1442q-118 0 -197 71.5t-79 186.5t79 186.5t197 71.5q117 0 197 -73.5t80 -184.5t-80 -184.5t-197 -73.5zM782 1587
q51 0 83 31t32 82t-32 81.5t-83 30.5t-82.5 -30.5t-31.5 -81.5t31.5 -82t82.5 -31z" />
    <glyph glyph-name="AE" unicode="&#xc6;" horiz-adv-x="2023" 
d="M1946 358v-358h-930l-33 285h-446l-113 -285h-440l616 1487h1344v-359h-644l25 -198h561v-359h-518l25 -213h553zM856 1139l-199 -506h283l-57 506h-27z" />
    <glyph glyph-name="Ccedilla" unicode="&#xc7;" horiz-adv-x="1452" 
d="M1411 580q-25 -302 -194 -458.5t-469 -156.5q-332 0 -510.5 198t-178.5 572q0 371 184.5 579t510.5 208q148 0 272 -44.5t209 -129.5q80 -77 122 -179.5t48 -248.5h-442q0 110 -57.5 174.5t-151.5 64.5q-123 0 -189.5 -110t-66.5 -314q0 -195 66.5 -302t189.5 -107
q95 0 156 67t61 187h440zM731 -428q-98 0 -139 10v135q9 -4 55 -4q101 0 101 74q0 33 -19.5 54.5t-58.5 21.5q-23 0 -37 -2v159h196v-79q79 -4 118.5 -52.5t39.5 -111.5q0 -96 -73 -150.5t-183 -54.5z" />
    <glyph glyph-name="Egrave" unicode="&#xc8;" horiz-adv-x="1239" 
d="M1159 1487v-359h-627v-198h570v-359h-570v-213h627v-358h-1048v1487h1048zM233 1878h402l211 -274h-314z" />
    <glyph glyph-name="Eacute" unicode="&#xc9;" horiz-adv-x="1239" 
d="M1159 1487v-359h-627v-198h570v-359h-570v-213h627v-358h-1048v1487h1048zM635 1878h399l-303 -274h-309z" />
    <glyph glyph-name="Ecircumflex" unicode="&#xca;" horiz-adv-x="1239" 
d="M1159 1487v-359h-627v-198h570v-359h-570v-213h627v-358h-1048v1487h1048zM637 1741l-127 -137h-307l215 274h440l217 -274h-315z" />
    <glyph glyph-name="Edieresis" unicode="&#xcb;" horiz-adv-x="1239" 
d="M1159 1487v-359h-627v-198h570v-359h-570v-213h627v-358h-1048v1487h1048zM705 1878h348v-295h-348v295zM213 1878h346v-295h-346v295z" />
    <glyph glyph-name="Igrave" unicode="&#xcc;" horiz-adv-x="643" 
d="M532 1487v-1487h-421v1487h421zM-80 1878h402l210 -274h-313z" />
    <glyph glyph-name="Iacute" unicode="&#xcd;" horiz-adv-x="643" 
d="M532 1487v-1487h-421v1487h421zM322 1878h399l-303 -274h-309z" />
    <glyph glyph-name="Icircumflex" unicode="&#xce;" horiz-adv-x="643" 
d="M532 1487v-1487h-421v1487h421zM324 1741l-127 -137h-308l215 274h441l217 -274h-316z" />
    <glyph glyph-name="Idieresis" unicode="&#xcf;" horiz-adv-x="643" 
d="M532 1487v-1487h-421v1487h421zM371 1878h329v-295h-329v295zM-57 1878h329v-295h-329v295z" />
    <glyph glyph-name="Eth" unicode="&#xd0;" horiz-adv-x="1546" 
d="M795 1487q326 0 510 -197.5t184 -541.5q0 -170 -49.5 -317t-145.5 -243q-97 -97 -227 -142.5t-315 -45.5h-566v612h-147v279h147v596h609zM723 365q174 0 251 94.5t77 283.5q0 192 -76.5 285.5t-251.5 93.5h-115v-231h191v-279h-191v-247h115z" />
    <glyph glyph-name="Ntilde" unicode="&#xd1;" horiz-adv-x="1540" 
d="M1430 0h-613q-87 259 -127.5 383.5t-106 349t-98.5 383.5h-20q2 -115 7.5 -346t9 -424t3.5 -346h-374v1487h614q30 -95 113 -337t139 -423.5t90 -335.5h20q-3 108 -11.5 340t-13.5 416t-5 340h373v-1487zM391 1581q1 144 61.5 220.5t161.5 76.5q63 0 165 -37t130 -37
q36 0 57 19.5t21 54.5h189q0 -139 -60.5 -218t-161.5 -79q-63 0 -164.5 36t-132.5 36q-77 0 -77 -72h-189z" />
    <glyph glyph-name="Ograve" unicode="&#xd2;" horiz-adv-x="1519" 
d="M760 1522q322 0 512 -214t190 -571q0 -354 -188.5 -563t-513.5 -209q-331 0 -517 204.5t-186 567.5q0 360 189 572.5t514 212.5zM760 1157q-129 0 -196.5 -105t-67.5 -309q0 -195 68.5 -306t195.5 -111q129 0 196.5 108.5t67.5 308.5q0 194 -69 304t-195 110zM358 1878
h402l211 -274h-314z" />
    <glyph glyph-name="Oacute" unicode="&#xd3;" horiz-adv-x="1519" 
d="M760 1522q322 0 512 -214t190 -571q0 -354 -188.5 -563t-513.5 -209q-331 0 -517 204.5t-186 567.5q0 360 189 572.5t514 212.5zM760 1157q-129 0 -196.5 -105t-67.5 -309q0 -195 68.5 -306t195.5 -111q129 0 196.5 108.5t67.5 308.5q0 194 -69 304t-195 110zM760 1878
h399l-303 -274h-309z" />
    <glyph glyph-name="Ocircumflex" unicode="&#xd4;" horiz-adv-x="1519" 
d="M760 1522q322 0 512 -214t190 -571q0 -354 -188.5 -563t-513.5 -209q-331 0 -517 204.5t-186 567.5q0 360 189 572.5t514 212.5zM760 1157q-129 0 -196.5 -105t-67.5 -309q0 -195 68.5 -306t195.5 -111q129 0 196.5 108.5t67.5 308.5q0 194 -69 304t-195 110zM762 1741
l-127 -137h-307l215 274h440l217 -274h-315z" />
    <glyph glyph-name="Otilde" unicode="&#xd5;" horiz-adv-x="1519" 
d="M760 1522q322 0 512 -214t190 -571q0 -354 -188.5 -563t-513.5 -209q-331 0 -517 204.5t-186 567.5q0 360 189 572.5t514 212.5zM760 1157q-129 0 -196.5 -105t-67.5 -309q0 -195 68.5 -306t195.5 -111q129 0 196.5 108.5t67.5 308.5q0 194 -69 304t-195 110zM356 1581
q1 144 62 220.5t162 76.5q63 0 164.5 -37t129.5 -37q36 0 57 19.5t21 54.5h189q0 -139 -60 -218t-161 -79q-63 0 -164.5 36t-132.5 36q-78 0 -78 -72h-189z" />
    <glyph glyph-name="Odieresis" unicode="&#xd6;" horiz-adv-x="1519" 
d="M760 1522q322 0 512 -214t190 -571q0 -354 -188.5 -563t-513.5 -209q-331 0 -517 204.5t-186 567.5q0 360 189 572.5t514 212.5zM760 1157q-129 0 -196.5 -105t-67.5 -309q0 -195 68.5 -306t195.5 -111q129 0 196.5 108.5t67.5 308.5q0 194 -69 304t-195 110zM829 1878
h349v-295h-349v295zM338 1878h346v-295h-346v295z" />
    <glyph glyph-name="multiply" unicode="&#xd7;" 
d="M920 78l-275 272l-270 -272l-203 201l274 272l-272 272l201 199l270 -272l273 272l202 -199l-274 -274l272 -270z" />
    <glyph glyph-name="Oslash" unicode="&#xd8;" horiz-adv-x="1519" 
d="M1288 1288q174 -211 174 -551q0 -354 -188.5 -563t-513.5 -209q-201 0 -357 86l-120 -168l-177 113l136 184q-185 207 -185 557q0 360 189 572.5t514 212.5q208 0 368 -97l125 172l172 -118zM756 1167q-142 0 -216.5 -109t-74.5 -319q0 -138 29 -221l428 596
q-71 53 -166 53zM758 315q146 0 221.5 110t75.5 310q0 107 -25 205l-426 -580q62 -45 154 -45z" />
    <glyph glyph-name="Ugrave" unicode="&#xd9;" horiz-adv-x="1441" 
d="M1346 586q0 -306 -157.5 -463.5t-463.5 -157.5q-303 0 -466 160t-163 459v903h422v-856q0 -164 46 -234.5t151 -70.5q106 0 157.5 72t51.5 233v856h422v-901zM326 1878h401l211 -274h-313z" />
    <glyph glyph-name="Uacute" unicode="&#xda;" horiz-adv-x="1441" 
d="M1346 586q0 -306 -157.5 -463.5t-463.5 -157.5q-303 0 -466 160t-163 459v903h422v-856q0 -164 46 -234.5t151 -70.5q106 0 157.5 72t51.5 233v856h422v-901zM727 1878h399l-303 -274h-309z" />
    <glyph glyph-name="Ucircumflex" unicode="&#xdb;" horiz-adv-x="1441" 
d="M1346 586q0 -306 -157.5 -463.5t-463.5 -157.5q-303 0 -466 160t-163 459v903h422v-856q0 -164 46 -234.5t151 -70.5q106 0 157.5 72t51.5 233v856h422v-901zM729 1741l-127 -137h-307l215 274h440l217 -274h-315z" />
    <glyph glyph-name="Udieresis" unicode="&#xdc;" horiz-adv-x="1441" 
d="M1346 586q0 -306 -157.5 -463.5t-463.5 -157.5q-303 0 -466 160t-163 459v903h422v-856q0 -164 46 -234.5t151 -70.5q106 0 157.5 72t51.5 233v856h422v-901zM797 1878h348v-295h-348v295zM305 1878h346v-295h-346v295z" />
    <glyph glyph-name="Yacute" unicode="&#xdd;" horiz-adv-x="1329" 
d="M883 0h-437v526l-456 961h481q22 -58 68.5 -172t80 -205t54.5 -172h14q25 107 98 308.5t86 240.5h469l-458 -957v-530zM680 1878h399l-303 -274h-309z" />
    <glyph glyph-name="Thorn" unicode="&#xde;" horiz-adv-x="1355" 
d="M532 1487v-199h185q175 0 305.5 -54t207.5 -171t77 -287q0 -257 -155 -384.5t-435 -127.5h-185v-264h-421v1487h421zM647 616q125 0 177.5 35.5t52.5 124.5q0 87 -53.5 123.5t-176.5 36.5h-115v-320h115z" />
    <glyph glyph-name="germandbls" unicode="&#xdf;" horiz-adv-x="1222" 
d="M92 977q0 271 130 405t403 134q231 0 364 -97.5t133 -279.5q0 -120 -72.5 -199t-197.5 -109v-20q322 -48 322 -391q0 -202 -128 -315t-356 -113q-47 0 -112 8v291h26q76 0 120 51.5t44 146.5q0 84 -45 131.5t-125 47.5h-20v299q85 0 127.5 37t42.5 104q0 56 -34 90.5
t-93 34.5q-73 0 -104.5 -60.5t-31.5 -191.5v-981h-393v977z" />
    <glyph glyph-name="agrave" unicode="&#xe0;" horiz-adv-x="1202" 
d="M768 0q-7 38 -10 121q-85 -85 -156 -114.5t-182 -29.5q-173 0 -275 87t-102 233q0 183 163.5 270t512.5 92v46q0 141 -113 141q-107 0 -127 -123h-395q10 99 55.5 172t118 115t158.5 62t188 20q141 0 234.5 -22.5t158.5 -79t94 -151.5t29 -239v-330q0 -180 25 -270h-377z
M719 438q-129 -7 -172 -18q-100 -28 -101 -105q0 -90 115 -90q76 0 117 45.5t41 135.5v32zM205 1487h389l201 -295h-308z" />
    <glyph glyph-name="aacute" unicode="&#xe1;" horiz-adv-x="1202" 
d="M768 0q-7 38 -10 121q-85 -85 -156 -114.5t-182 -29.5q-173 0 -275 87t-102 233q0 183 163.5 270t512.5 92v46q0 141 -113 141q-107 0 -127 -123h-395q10 99 55.5 172t118 115t158.5 62t188 20q141 0 234.5 -22.5t158.5 -79t94 -151.5t29 -239v-330q0 -180 25 -270h-377z
M719 438q-129 -7 -172 -18q-100 -28 -101 -105q0 -90 115 -90q76 0 117 45.5t41 135.5v32zM608 1487h385l-284 -295h-301z" />
    <glyph glyph-name="acircumflex" unicode="&#xe2;" horiz-adv-x="1202" 
d="M768 0q-7 38 -10 121q-85 -85 -156 -114.5t-182 -29.5q-173 0 -275 87t-102 233q0 183 163.5 270t512.5 92v46q0 141 -113 141q-107 0 -127 -123h-395q10 99 55.5 172t118 115t158.5 62t188 20q141 0 234.5 -22.5t158.5 -79t94 -151.5t29 -239v-330q0 -180 25 -270h-377z
M719 438q-129 -7 -172 -18q-100 -28 -101 -105q0 -90 115 -90q76 0 117 45.5t41 135.5v32zM725 1192l-123 151l-125 -151h-295l207 295h428l207 -295h-299z" />
    <glyph glyph-name="atilde" unicode="&#xe3;" horiz-adv-x="1202" 
d="M768 0q-7 38 -10 121q-85 -85 -156 -114.5t-182 -29.5q-173 0 -275 87t-102 233q0 183 163.5 270t512.5 92v46q0 141 -113 141q-107 0 -127 -123h-395q10 99 55.5 172t118 115t158.5 62t188 20q141 0 234.5 -22.5t158.5 -79t94 -151.5t29 -239v-330q0 -180 25 -270h-377z
M719 438q-129 -7 -172 -18q-100 -28 -101 -105q0 -90 115 -90q76 0 117 45.5t41 135.5v32zM201 1190q6 146 64 224.5t161 78.5q52 0 155 -40t148 -40q25 0 48.5 19.5t23.5 56.5h194q-6 -147 -63.5 -225t-161.5 -78q-53 0 -155 40t-148 40q-24 0 -47 -19t-23 -57h-196z" />
    <glyph glyph-name="adieresis" unicode="&#xe4;" horiz-adv-x="1202" 
d="M768 0q-7 38 -10 121q-85 -85 -156 -114.5t-182 -29.5q-173 0 -275 87t-102 233q0 183 163.5 270t512.5 92v46q0 141 -113 141q-107 0 -127 -123h-395q10 99 55.5 172t118 115t158.5 62t188 20q141 0 234.5 -22.5t158.5 -79t94 -151.5t29 -239v-330q0 -180 25 -270h-377z
M719 438q-129 -7 -172 -18q-100 -28 -101 -105q0 -90 115 -90q76 0 117 45.5t41 135.5v32zM676 1487h340v-309h-340v309zM184 1487h340v-309h-340v309z" />
    <glyph glyph-name="aring" unicode="&#xe5;" horiz-adv-x="1202" 
d="M768 0q-7 38 -10 121q-85 -85 -156 -114.5t-182 -29.5q-173 0 -275 87t-102 233q0 183 163.5 270t512.5 92v46q0 141 -113 141q-107 0 -127 -123h-395q10 99 55.5 172t118 115t158.5 62t188 20q141 0 234.5 -22.5t158.5 -79t94 -151.5t29 -239v-330q0 -180 25 -270h-377z
M719 438q-129 -7 -172 -18q-100 -28 -101 -105q0 -90 115 -90q76 0 117 45.5t41 135.5v32zM602 1145q-114 0 -191 70.5t-77 179.5q0 113 76.5 181.5t191.5 68.5q112 0 190 -71.5t78 -178.5q0 -106 -78.5 -178t-189.5 -72zM602 1288q47 0 78 30t31 77t-30.5 76.5t-78.5 29.5
q-47 0 -77.5 -29.5t-30.5 -76.5t30.5 -77t77.5 -30z" />
    <glyph glyph-name="ae" unicode="&#xe6;" horiz-adv-x="1857" 
d="M580 1092q228 0 354 -123q144 121 348 121q98 0 183 -29.5t147 -81t106 -122t66 -153.5t22 -174q0 -59 -2 -98h-702q0 -93 40 -149t130 -56q107 0 139 99h389q-48 -175 -188 -267t-338 -92q-265 0 -412 174q-142 -168 -405 -168q-181 0 -295.5 82.5t-114.5 241.5
q0 80 32 141t86.5 101t137 67t173 40t204.5 18l43 2v39q0 135 -127 135q-126 0 -129 -119h-383q11 126 80.5 211t174.5 122.5t241 37.5zM561 217q74 0 118 49.5t44 128.5v60h-10q-129 0 -202 -38t-73 -104q0 -46 33.5 -71t89.5 -25zM1423 662q-1 77 -44 123t-111 46
q-71 0 -116 -47.5t-50 -121.5h321z" />
    <glyph glyph-name="ccedilla" unicode="&#xe7;" horiz-adv-x="1208" 
d="M1171 438q-26 -223 -173 -348t-386 -125q-257 0 -411 152t-154 403q0 255 154.5 413.5t406.5 158.5q147 0 268 -50.5t198.5 -155t82.5 -247.5h-397q-5 74 -41 117t-96 43q-77 0 -118.5 -75t-41.5 -210q0 -123 39 -189.5t112 -66.5q61 0 99 46.5t49 133.5h409zM578 -428
q-99 0 -140 10v135q9 -4 56 -4q102 0 102 74q0 33 -20.5 54.5t-59.5 21.5q-23 0 -37 -2v159h195v-79q80 -4 120 -52.5t40 -111.5q0 -96 -73 -150.5t-183 -54.5z" />
    <glyph glyph-name="egrave" unicode="&#xe8;" horiz-adv-x="1243" 
d="M1188 328q-47 -174 -195.5 -268.5t-376.5 -94.5q-263 0 -416 150.5t-153 412.5q0 246 162 405t418 159q275 0 421 -160t146 -451q0 -26 -2 -49h-735q0 -102 45 -154.5t125 -52.5q97 0 141 103h420zM786 659q-12 172 -157 172q-68 0 -115 -48t-55 -124h327zM227 1487h389
l201 -295h-307z" />
    <glyph glyph-name="eacute" unicode="&#xe9;" horiz-adv-x="1243" 
d="M1188 328q-47 -174 -195.5 -268.5t-376.5 -94.5q-263 0 -416 150.5t-153 412.5q0 246 162 405t418 159q275 0 421 -160t146 -451q0 -26 -2 -49h-735q0 -102 45 -154.5t125 -52.5q97 0 141 103h420zM786 659q-12 172 -157 172q-68 0 -115 -48t-55 -124h327zM631 1487h385
l-285 -295h-301z" />
    <glyph glyph-name="ecircumflex" unicode="&#xea;" horiz-adv-x="1243" 
d="M1188 328q-47 -174 -195.5 -268.5t-376.5 -94.5q-263 0 -416 150.5t-153 412.5q0 246 162 405t418 159q275 0 421 -160t146 -451q0 -26 -2 -49h-735q0 -102 45 -154.5t125 -52.5q97 0 141 103h420zM786 659q-12 172 -157 172q-68 0 -115 -48t-55 -124h327zM748 1192
l-123 151l-125 -151h-295l207 295h428l207 -295h-299z" />
    <glyph glyph-name="edieresis" unicode="&#xeb;" horiz-adv-x="1243" 
d="M1188 328q-47 -174 -195.5 -268.5t-376.5 -94.5q-263 0 -416 150.5t-153 412.5q0 246 162 405t418 159q275 0 421 -160t146 -451q0 -26 -2 -49h-735q0 -102 45 -154.5t125 -52.5q97 0 141 103h420zM786 659q-12 172 -157 172q-68 0 -115 -48t-55 -124h327zM698 1487h340
v-309h-340v309zM207 1487h340v-309h-340v309z" />
    <glyph glyph-name="igrave" unicode="&#xec;" horiz-adv-x="575" 
d="M483 1057v-1057h-391v1057h391zM-31 1487h367l176 -295h-287z" />
    <glyph glyph-name="iacute" unicode="&#xed;" horiz-adv-x="575" 
d="M483 1057v-1057h-391v1057h391zM272 1487h367l-258 -295h-285z" />
    <glyph glyph-name="icircumflex" unicode="&#xee;" horiz-adv-x="575" 
d="M483 1057v-1057h-391v1057h391zM90 1487h395l183 -295h-275l-106 147l-107 -147h-272z" />
    <glyph glyph-name="idieresis" unicode="&#xef;" horiz-adv-x="575" 
d="M483 1057v-1057h-391v1057h391zM332 1487h301v-316h-301v316zM-55 1487h301v-316h-301v316z" />
    <glyph glyph-name="eth" unicode="&#xf0;" horiz-adv-x="1241" 
d="M618 250q86 0 128 77t42 193q0 117 -42 194t-128 77q-88 0 -128.5 -75t-40.5 -196t43 -195.5t126 -74.5zM618 -33q-257 0 -413 144.5t-156 406.5q0 120 38 217.5t103.5 161t152.5 97.5t187 34q114 0 189 -41l-178 182l-189 -86l-110 144l168 78q-105 105 -193 182h397
q7 -7 31 -25t33 -26l162 77l116 -137l-143 -73q193 -199 285 -378.5t92 -363.5q0 -269 -152.5 -431.5t-419.5 -162.5z" />
    <glyph glyph-name="ntilde" unicode="&#xf1;" horiz-adv-x="1232" 
d="M457 909q108 170 325 170q110 0 192 -43.5t124 -128.5q30 -59 40.5 -128t10.5 -210v-569h-391v580q0 109 -31 157.5t-100 48.5q-88 0 -125 -106q-19 -53 -19 -199v-481h-391v1057h365v-148zM217 1190q6 146 64 224.5t161 78.5q52 0 155 -40t148 -40q25 0 48.5 19.5
t23.5 56.5h195q-6 -147 -64 -225t-162 -78q-53 0 -155 40t-148 40q-24 0 -46.5 -19t-22.5 -57h-197z" />
    <glyph glyph-name="ograve" unicode="&#xf2;" horiz-adv-x="1241" 
d="M625 1092q275 0 421 -154t146 -416q0 -259 -148.5 -408t-422.5 -149q-280 0 -426 149.5t-146 411.5q0 257 152 411.5t424 154.5zM621 799q-73 0 -117.5 -71.5t-44.5 -197.5q0 -128 43.5 -200t118.5 -72t118 71t43 199q0 123 -44.5 197t-116.5 74zM225 1487h389l201 -295
h-307z" />
    <glyph glyph-name="oacute" unicode="&#xf3;" horiz-adv-x="1241" 
d="M625 1092q275 0 421 -154t146 -416q0 -259 -148.5 -408t-422.5 -149q-280 0 -426 149.5t-146 411.5q0 257 152 411.5t424 154.5zM621 799q-73 0 -117.5 -71.5t-44.5 -197.5q0 -128 43.5 -200t118.5 -72t118 71t43 199q0 123 -44.5 197t-116.5 74zM629 1487h385l-285 -295
h-301z" />
    <glyph glyph-name="ocircumflex" unicode="&#xf4;" horiz-adv-x="1241" 
d="M625 1092q275 0 421 -154t146 -416q0 -259 -148.5 -408t-422.5 -149q-280 0 -426 149.5t-146 411.5q0 257 152 411.5t424 154.5zM621 799q-73 0 -117.5 -71.5t-44.5 -197.5q0 -128 43.5 -200t118.5 -72t118 71t43 199q0 123 -44.5 197t-116.5 74zM745 1192l-122 151
l-125 -151h-295l207 295h428l206 -295h-299z" />
    <glyph glyph-name="otilde" unicode="&#xf5;" horiz-adv-x="1241" 
d="M625 1092q275 0 421 -154t146 -416q0 -259 -148.5 -408t-422.5 -149q-280 0 -426 149.5t-146 411.5q0 257 152 411.5t424 154.5zM621 799q-73 0 -117.5 -71.5t-44.5 -197.5q0 -128 43.5 -200t118.5 -72t118 71t43 199q0 123 -44.5 197t-116.5 74zM221 1190
q6 146 64 224.5t161 78.5q52 0 155.5 -40t148.5 -40q25 0 48 19.5t23 56.5h195q-6 -147 -63.5 -225t-161.5 -78q-53 0 -155.5 40t-148.5 40q-24 0 -46.5 -19t-22.5 -57h-197z" />
    <glyph glyph-name="odieresis" unicode="&#xf6;" horiz-adv-x="1241" 
d="M625 1092q275 0 421 -154t146 -416q0 -259 -148.5 -408t-422.5 -149q-280 0 -426 149.5t-146 411.5q0 257 152 411.5t424 154.5zM621 799q-73 0 -117.5 -71.5t-44.5 -197.5q0 -128 43.5 -200t118.5 -72t118 71t43 199q0 123 -44.5 197t-116.5 74zM696 1487h340v-309h-340
v309zM205 1487h340v-309h-340v309z" />
    <glyph glyph-name="divide" unicode="&#xf7;" 
d="M506 317h282v-274h-282v274zM788 772h-282v275h282v-275zM119 684h1055v-272h-1055v272z" />
    <glyph glyph-name="oslash" unicode="&#xf8;" horiz-adv-x="1251" 
d="M1042 946q162 -149 162 -416q0 -258 -155 -409.5t-422 -151.5q-165 0 -299 62l-109 -142l-131 95l111 139q-150 150 -150 403q0 257 156 409t422 152q154 0 280 -55l109 135l129 -94zM623 825q-187 0 -187 -303q0 -46 6 -84l281 359q-47 28 -100 28zM625 231
q91 0 141.5 72t50.5 221q0 69 -10 121l-291 -373q51 -41 109 -41z" />
    <glyph glyph-name="ugrave" unicode="&#xf9;" horiz-adv-x="1232" 
d="M776 147q-55 -88 -134 -129t-189 -41q-229 0 -318 173q-31 56 -41 123.5t-10 213.5v570h391v-580q0 -110 30.5 -158.5t96.5 -48.5q45 0 81.5 29t49.5 76q17 47 17 200v482h391v-1057h-365v147zM219 1487h389l201 -295h-307z" />
    <glyph glyph-name="uacute" unicode="&#xfa;" horiz-adv-x="1232" 
d="M776 147q-55 -88 -134 -129t-189 -41q-229 0 -318 173q-31 56 -41 123.5t-10 213.5v570h391v-580q0 -110 30.5 -158.5t96.5 -48.5q45 0 81.5 29t49.5 76q17 47 17 200v482h391v-1057h-365v147zM623 1487h385l-285 -295h-301z" />
    <glyph glyph-name="ucircumflex" unicode="&#xfb;" horiz-adv-x="1232" 
d="M776 147q-55 -88 -134 -129t-189 -41q-229 0 -318 173q-31 56 -41 123.5t-10 213.5v570h391v-580q0 -110 30.5 -158.5t96.5 -48.5q45 0 81.5 29t49.5 76q17 47 17 200v482h391v-1057h-365v147zM739 1192l-123 151l-124 -151h-295l206 295h428l207 -295h-299z" />
    <glyph glyph-name="udieresis" unicode="&#xfc;" horiz-adv-x="1232" 
d="M776 147q-55 -88 -134 -129t-189 -41q-229 0 -318 173q-31 56 -41 123.5t-10 213.5v570h391v-580q0 -110 30.5 -158.5t96.5 -48.5q45 0 81.5 29t49.5 76q17 47 17 200v482h391v-1057h-365v147zM690 1487h340v-309h-340v309zM199 1487h340v-309h-340v309z" />
    <glyph glyph-name="yacute" unicode="&#xfd;" horiz-adv-x="1167" 
d="M829 -18q-70 -222 -179.5 -312t-303.5 -90q-114 0 -211 17v284q36 -8 80 -8q139 0 139 129q0 34 -24 102l-334 953h446l93 -395l59 -314h20l60 314l96 395h391zM610 1487h385l-284 -295h-301z" />
    <glyph glyph-name="thorn" unicode="&#xfe;" horiz-adv-x="1234" 
d="M1182 524q0 -251 -117 -399t-305 -148q-91 0 -157.5 31t-119.5 107v-527h-391v1899h391v-551q53 78 119 108.5t158 30.5q188 0 305 -149.5t117 -401.5zM614 270q75 0 116.5 65.5t41.5 190.5q0 127 -41 191.5t-117 64.5q-157 0 -157 -254q0 -122 42 -190t115 -68z" />
    <glyph glyph-name="ydieresis" unicode="&#xff;" horiz-adv-x="1167" 
d="M829 -18q-70 -222 -179.5 -312t-303.5 -90q-114 0 -211 17v284q36 -8 80 -8q139 0 139 129q0 34 -24 102l-334 953h446l93 -395l59 -314h20l60 314l96 395h391zM678 1487h340v-309h-340v309zM186 1487h340v-309h-340v309z" />
    <glyph glyph-name="Amacron" unicode="&#x100;" horiz-adv-x="1560" 
d="M1061 1487l508 -1487h-467l-74 260h-520l-76 -260h-440l508 1487h561zM758 1153q-22 -81 -76.5 -269t-81.5 -290h332q-98 335 -154 559h-20zM428 1858h680v-250h-680v250z" />
    <glyph glyph-name="amacron" unicode="&#x101;" horiz-adv-x="1202" 
d="M768 0q-7 38 -10 121q-85 -85 -156 -114.5t-182 -29.5q-173 0 -275 87t-102 233q0 183 163.5 270t512.5 92v46q0 141 -113 141q-107 0 -127 -123h-395q10 99 55.5 172t118 115t158.5 62t188 20q141 0 234.5 -22.5t158.5 -79t94 -151.5t29 -239v-330q0 -180 25 -270h-377z
M719 438q-129 -7 -172 -18q-100 -28 -101 -105q0 -90 115 -90q76 0 117 45.5t41 135.5v32zM279 1450h636v-248h-636v248z" />
    <glyph glyph-name="Abreve" unicode="&#x102;" horiz-adv-x="1560" 
d="M1061 1487l508 -1487h-467l-74 260h-520l-76 -260h-440l508 1487h561zM758 1153q-22 -81 -76.5 -269t-81.5 -290h332q-98 335 -154 559h-20zM764 1581q-183 0 -284 79.5t-107 217.5h280q8 -109 111 -109q99 0 110 109h281q-8 -138 -109 -217.5t-282 -79.5z" />
    <glyph glyph-name="abreve" unicode="&#x103;" horiz-adv-x="1202" 
d="M768 0q-7 38 -10 121q-85 -85 -156 -114.5t-182 -29.5q-173 0 -275 87t-102 233q0 183 163.5 270t512.5 92v46q0 141 -113 141q-107 0 -127 -123h-395q10 99 55.5 172t118 115t158.5 62t188 20q141 0 234.5 -22.5t158.5 -79t94 -151.5t29 -239v-330q0 -180 25 -270h-377z
M719 438q-129 -7 -172 -18q-100 -28 -101 -105q0 -90 115 -90q76 0 117 45.5t41 135.5v32zM594 1171q-179 0 -278.5 83.5t-104.5 232.5h281q0 -65 27.5 -96t74.5 -31q45 0 73 31t29 96h281q-5 -149 -104.5 -232.5t-278.5 -83.5z" />
    <glyph glyph-name="Aogonek" unicode="&#x104;" horiz-adv-x="1560" 
d="M1061 1487l508 -1487h-467l-74 260h-520l-76 -260h-440l508 1487h561zM758 1153q-22 -81 -76.5 -269t-81.5 -290h332q-98 335 -154 559h-20zM1401 -428q-118 0 -192 55t-74 146q0 82 55.5 147.5t150.5 108.5l228 -29q-164 -65 -164 -141q0 -62 82 -62q37 0 82 15v-215
q-61 -25 -168 -25z" />
    <glyph glyph-name="aogonek" unicode="&#x105;" horiz-adv-x="1202" 
d="M768 0q-7 38 -10 121q-85 -85 -156 -114.5t-182 -29.5q-173 0 -275 87t-102 233q0 183 163.5 270t512.5 92v46q0 141 -113 141q-107 0 -127 -123h-395q10 99 55.5 172t118 115t158.5 62t188 20q141 0 234.5 -22.5t158.5 -79t94 -151.5t29 -239v-330q0 -180 25 -270h-377z
M719 438q-129 -7 -172 -18q-100 -28 -101 -105q0 -90 115 -90q76 0 117 45.5t41 135.5v32zM977 -428q-122 0 -196 54.5t-74 146.5q0 81 57.5 146.5t153.5 109.5l227 -29q-164 -65 -164 -141q0 -62 80 -62q39 0 84 15v-215q-61 -25 -168 -25z" />
    <glyph glyph-name="Cacute" unicode="&#x106;" horiz-adv-x="1452" 
d="M1411 580q-25 -302 -194 -458.5t-469 -156.5q-332 0 -510.5 198t-178.5 572q0 371 184.5 579t510.5 208q148 0 272 -44.5t209 -129.5q80 -77 122 -179.5t48 -248.5h-442q0 110 -57.5 174.5t-151.5 64.5q-123 0 -189.5 -110t-66.5 -314q0 -195 66.5 -302t189.5 -107
q95 0 156 67t61 187h440zM766 1878h399l-303 -274h-309z" />
    <glyph glyph-name="cacute" unicode="&#x107;" horiz-adv-x="1208" 
d="M1171 438q-26 -223 -173 -348t-386 -125q-257 0 -411 152t-154 403q0 255 154.5 413.5t406.5 158.5q147 0 268 -50.5t198.5 -155t82.5 -247.5h-397q-5 74 -41 117t-96 43q-77 0 -118.5 -75t-41.5 -210q0 -123 39 -189.5t112 -66.5q61 0 99 46.5t49 133.5h409zM623 1487
h385l-285 -295h-301z" />
    <glyph glyph-name="Ccircumflex" unicode="&#x108;" horiz-adv-x="1452" 
d="M1411 580q-25 -302 -194 -458.5t-469 -156.5q-332 0 -510.5 198t-178.5 572q0 371 184.5 579t510.5 208q148 0 272 -44.5t209 -129.5q80 -77 122 -179.5t48 -248.5h-442q0 110 -57.5 174.5t-151.5 64.5q-123 0 -189.5 -110t-66.5 -314q0 -195 66.5 -302t189.5 -107
q95 0 156 67t61 187h440zM768 1741l-127 -137h-307l215 274h440l217 -274h-315z" />
    <glyph glyph-name="ccircumflex" unicode="&#x109;" horiz-adv-x="1208" 
d="M1171 438q-26 -223 -173 -348t-386 -125q-257 0 -411 152t-154 403q0 255 154.5 413.5t406.5 158.5q147 0 268 -50.5t198.5 -155t82.5 -247.5h-397q-5 74 -41 117t-96 43q-77 0 -118.5 -75t-41.5 -210q0 -123 39 -189.5t112 -66.5q61 0 99 46.5t49 133.5h409zM739 1192
l-123 151l-124 -151h-295l206 295h428l207 -295h-299z" />
    <glyph glyph-name="Cdotaccent" unicode="&#x10a;" horiz-adv-x="1452" 
d="M1411 580q-25 -302 -194 -458.5t-469 -156.5q-332 0 -510.5 198t-178.5 572q0 371 184.5 579t510.5 208q148 0 272 -44.5t209 -129.5q80 -77 122 -179.5t48 -248.5h-442q0 110 -57.5 174.5t-151.5 64.5q-123 0 -189.5 -110t-66.5 -314q0 -195 66.5 -302t189.5 -107
q95 0 156 67t61 187h440zM561 1878h410v-291h-410v291z" />
    <glyph glyph-name="cdotaccent" unicode="&#x10b;" horiz-adv-x="1208" 
d="M1171 438q-26 -223 -173 -348t-386 -125q-257 0 -411 152t-154 403q0 255 154.5 413.5t406.5 158.5q147 0 268 -50.5t198.5 -155t82.5 -247.5h-397q-5 74 -41 117t-96 43q-77 0 -118.5 -75t-41.5 -210q0 -123 39 -189.5t112 -66.5q61 0 99 46.5t49 133.5h409zM414 1487
h399v-322h-399v322z" />
    <glyph glyph-name="Ccaron" unicode="&#x10c;" horiz-adv-x="1452" 
d="M1411 580q-25 -302 -194 -458.5t-469 -156.5q-332 0 -510.5 198t-178.5 572q0 371 184.5 579t510.5 208q148 0 272 -44.5t209 -129.5q80 -77 122 -179.5t48 -248.5h-442q0 110 -57.5 174.5t-151.5 64.5q-123 0 -189.5 -110t-66.5 -314q0 -195 66.5 -302t189.5 -107
q95 0 156 67t61 187h440zM645 1878l125 -135l127 135h305l-215 -274h-442l-215 274h315z" />
    <glyph glyph-name="ccaron" unicode="&#x10d;" horiz-adv-x="1208" 
d="M1171 438q-26 -223 -173 -348t-386 -125q-257 0 -411 152t-154 403q0 255 154.5 413.5t406.5 158.5q147 0 268 -50.5t198.5 -155t82.5 -247.5h-397q-5 74 -41 117t-96 43q-77 0 -118.5 -75t-41.5 -210q0 -123 39 -189.5t112 -66.5q61 0 99 46.5t49 133.5h409zM496 1487
l122 -152l125 152h295l-207 -295h-428l-206 295h299z" />
    <glyph glyph-name="Dcaron" unicode="&#x10e;" horiz-adv-x="1470" 
d="M719 1487q326 0 510 -197.5t184 -541.5q0 -127 -25.5 -237.5t-81.5 -205.5t-139 -162t-204.5 -105t-272.5 -38h-579v1487h608zM647 365q174 0 251 94.5t77 283.5q0 192 -76.5 285.5t-251.5 93.5h-115v-757h115zM545 1878l125 -135l127 135h305l-215 -274h-443l-215 274
h316z" />
    <glyph glyph-name="dcaron" unicode="&#x10f;" horiz-adv-x="1284" 
d="M782 147q-55 -89 -129 -129.5t-176 -40.5q-193 0 -308.5 147t-115.5 408q0 251 115.5 399t306.5 148q92 0 159 -30.5t118 -108.5v547h391v-1487h-361v147zM618 786q-74 0 -114.5 -65t-40.5 -191q0 -128 40.5 -194t114.5 -66q160 0 160 258q0 122 -43 190t-117 68z
M1268 1487h307v-82l-78 -270h-233z" />
    <glyph glyph-name="Dcroat" unicode="&#x110;" horiz-adv-x="1546" 
d="M795 1487q326 0 510 -197.5t184 -541.5q0 -170 -49.5 -317t-145.5 -243q-97 -97 -227 -142.5t-315 -45.5h-566v612h-147v279h147v596h609zM723 365q174 0 251 94.5t77 283.5q0 192 -76.5 285.5t-251.5 93.5h-115v-231h191v-279h-191v-247h115z" />
    <glyph glyph-name="dslash" unicode="&#x111;" horiz-adv-x="1234" 
d="M1268 1149h-125v-1149h-361v147q-55 -89 -129 -129.5t-176 -40.5q-193 0 -308.5 145.5t-115.5 399.5q0 245 116 391t306 146q92 0 159 -30.5t118 -108.5v229h-211v213h211v125h391v-125h125v-213zM618 270q78 0 119 63.5t41 184.5q0 116 -43 182t-117 66t-114.5 -64
t-40.5 -182q0 -121 40.5 -185.5t114.5 -64.5z" />
    <glyph glyph-name="Emacron" unicode="&#x112;" horiz-adv-x="1239" 
d="M1159 1487v-359h-627v-198h570v-359h-570v-213h627v-358h-1048v1487h1048zM295 1858h680v-250h-680v250z" />
    <glyph glyph-name="emacron" unicode="&#x113;" horiz-adv-x="1243" 
d="M1188 328q-47 -174 -195.5 -268.5t-376.5 -94.5q-263 0 -416 150.5t-153 412.5q0 246 162 405t418 159q275 0 421 -160t146 -451q0 -26 -2 -49h-735q0 -102 45 -154.5t125 -52.5q97 0 141 103h420zM786 659q-12 172 -157 172q-68 0 -115 -48t-55 -124h327zM301 1450h637
v-248h-637v248z" />
    <glyph glyph-name="Ebreve" unicode="&#x114;" horiz-adv-x="1239" 
d="M1159 1487v-359h-627v-198h570v-359h-570v-213h627v-358h-1048v1487h1048zM631 1581q-183 0 -284 79.5t-107 217.5h280q8 -109 111 -109q99 0 110 109h281q-8 -138 -109 -217.5t-282 -79.5z" />
    <glyph glyph-name="ebreve" unicode="&#x115;" horiz-adv-x="1243" 
d="M1188 328q-47 -174 -195.5 -268.5t-376.5 -94.5q-263 0 -416 150.5t-153 412.5q0 246 162 405t418 159q275 0 421 -160t146 -451q0 -26 -2 -49h-735q0 -102 45 -154.5t125 -52.5q97 0 141 103h420zM786 659q-12 172 -157 172q-68 0 -115 -48t-55 -124h327zM616 1171
q-179 0 -278.5 83.5t-104.5 232.5h281q0 -65 27.5 -96t74.5 -31q45 0 73.5 31.5t29.5 95.5h280q-5 -149 -104.5 -232.5t-278.5 -83.5z" />
    <glyph glyph-name="Edotaccent" unicode="&#x116;" horiz-adv-x="1239" 
d="M1159 1487v-359h-627v-198h570v-359h-570v-213h627v-358h-1048v1487h1048zM430 1878h410v-291h-410v291z" />
    <glyph glyph-name="edotaccent" unicode="&#x117;" horiz-adv-x="1243" 
d="M1188 328q-47 -174 -195.5 -268.5t-376.5 -94.5q-263 0 -416 150.5t-153 412.5q0 246 162 405t418 159q275 0 421 -160t146 -451q0 -26 -2 -49h-735q0 -102 45 -154.5t125 -52.5q97 0 141 103h420zM786 659q-12 172 -157 172q-68 0 -115 -48t-55 -124h327zM422 1487h399
v-322h-399v322z" />
    <glyph glyph-name="Eogonek" unicode="&#x118;" horiz-adv-x="1239" 
d="M1159 1487v-359h-627v-198h570v-359h-570v-213h627v-358h-1048v1487h1048zM991 -428q-118 0 -192 55t-74 146q0 82 56 147.5t151 108.5l227 -29q-164 -65 -164 -141q0 -62 82 -62q37 0 82 15v-215q-61 -25 -168 -25z" />
    <glyph glyph-name="eogonek" unicode="&#x119;" horiz-adv-x="1243" 
d="M991 57q-12 -8 -42.5 -27.5t-47.5 -31t-41.5 -31t-38 -34.5t-23.5 -35t-10 -39q0 -27 22 -44.5t62 -17.5q33 0 84 17v-213q-66 -29 -170 -29q-123 0 -197.5 52.5t-74.5 142.5q0 112 133 198h-31q-263 0 -416 150.5t-153 412.5q0 246 162 405t418 159q275 0 421 -160
t146 -451q0 -26 -2 -49h-735q0 -102 45 -154.5t125 -52.5q97 0 141 103h420q-46 -171 -197 -271zM786 659q-12 172 -157 172q-68 0 -115 -48t-55 -124h327z" />
    <glyph glyph-name="Ecaron" unicode="&#x11a;" horiz-adv-x="1239" 
d="M1159 1487v-359h-627v-198h570v-359h-570v-213h627v-358h-1048v1487h1048zM514 1878l125 -135l127 135h305l-215 -274h-442l-215 274h315z" />
    <glyph glyph-name="ecaron" unicode="&#x11b;" horiz-adv-x="1243" 
d="M1188 328q-47 -174 -195.5 -268.5t-376.5 -94.5q-263 0 -416 150.5t-153 412.5q0 246 162 405t418 159q275 0 421 -160t146 -451q0 -26 -2 -49h-735q0 -102 45 -154.5t125 -52.5q97 0 141 103h420zM786 659q-12 172 -157 172q-68 0 -115 -48t-55 -124h327zM504 1487
l123 -152l125 152h295l-207 -295h-428l-207 295h299z" />
    <glyph glyph-name="Gcircumflex" unicode="&#x11c;" horiz-adv-x="1486" 
d="M1038 150q-53 -90 -150.5 -135.5t-225.5 -45.5q-290 0 -446.5 206t-156.5 564q0 368 182.5 575.5t516.5 207.5q128 0 239 -31.5t200 -94t142.5 -166t59.5 -237.5h-443q-8 87 -63 140t-139 53q-122 0 -189 -118.5t-67 -317.5q0 -220 64.5 -337.5t193.5 -117.5
q108 0 173 63.5t72 194.5h-262v313h660v-866h-361v150zM766 1741l-127 -137h-307l215 274h440l217 -274h-315z" />
    <glyph glyph-name="gcircumflex" unicode="&#x11d;" horiz-adv-x="1234" 
d="M473 -72q0 -57 40.5 -84.5t102.5 -27.5q152 0 152 235v164q-94 -166 -305 -166q-192 0 -300 134.5t-108 375.5q0 235 114.5 377.5t305.5 142.5q108 0 189.5 -48.5t119.5 -139.5v166h361v-922q0 -157 -33.5 -264t-104.5 -171t-172 -92t-247 -28q-230 0 -357.5 88
t-140.5 260h383zM610 780q-67 0 -106 -62t-39 -165q0 -99 38.5 -158t106.5 -59q69 0 108.5 61.5t39.5 167.5q0 99 -39.5 157t-108.5 58zM735 1192l-123 151l-125 -151h-294l206 295h428l207 -295h-299z" />
    <glyph glyph-name="Gbreve" unicode="&#x11e;" horiz-adv-x="1486" 
d="M1038 150q-53 -90 -150.5 -135.5t-225.5 -45.5q-290 0 -446.5 206t-156.5 564q0 368 182.5 575.5t516.5 207.5q128 0 239 -31.5t200 -94t142.5 -166t59.5 -237.5h-443q-8 87 -63 140t-139 53q-122 0 -189 -118.5t-67 -317.5q0 -220 64.5 -337.5t193.5 -117.5
q108 0 173 63.5t72 194.5h-262v313h660v-866h-361v150zM760 1581q-183 0 -284 79.5t-107 217.5h280q8 -109 111 -109q99 0 110 109h281q-8 -138 -109 -217.5t-282 -79.5z" />
    <glyph glyph-name="gbreve" unicode="&#x11f;" horiz-adv-x="1234" 
d="M473 -72q0 -57 40.5 -84.5t102.5 -27.5q152 0 152 235v164q-94 -166 -305 -166q-192 0 -300 134.5t-108 375.5q0 235 114.5 377.5t305.5 142.5q108 0 189.5 -48.5t119.5 -139.5v166h361v-922q0 -157 -33.5 -264t-104.5 -171t-172 -92t-247 -28q-230 0 -357.5 88
t-140.5 260h383zM610 780q-67 0 -106 -62t-39 -165q0 -99 38.5 -158t106.5 -59q69 0 108.5 61.5t39.5 167.5q0 99 -39.5 157t-108.5 58zM604 1171q-179 0 -278.5 83.5t-104.5 232.5h281q0 -65 27.5 -96t74.5 -31q45 0 73.5 31.5t29.5 95.5h280q-5 -149 -104.5 -232.5
t-278.5 -83.5z" />
    <glyph glyph-name="Gdotaccent" unicode="&#x120;" horiz-adv-x="1486" 
d="M1038 150q-53 -90 -150.5 -135.5t-225.5 -45.5q-290 0 -446.5 206t-156.5 564q0 368 182.5 575.5t516.5 207.5q128 0 239 -31.5t200 -94t142.5 -166t59.5 -237.5h-443q-8 87 -63 140t-139 53q-122 0 -189 -118.5t-67 -317.5q0 -220 64.5 -337.5t193.5 -117.5
q108 0 173 63.5t72 194.5h-262v313h660v-866h-361v150zM559 1878h410v-291h-410v291z" />
    <glyph glyph-name="gdotaccent" unicode="&#x121;" horiz-adv-x="1234" 
d="M473 -72q0 -57 40.5 -84.5t102.5 -27.5q152 0 152 235v164q-94 -166 -305 -166q-192 0 -300 134.5t-108 375.5q0 235 114.5 377.5t305.5 142.5q108 0 189.5 -48.5t119.5 -139.5v166h361v-922q0 -157 -33.5 -264t-104.5 -171t-172 -92t-247 -28q-230 0 -357.5 88
t-140.5 260h383zM610 780q-67 0 -106 -62t-39 -165q0 -99 38.5 -158t106.5 -59q69 0 108.5 61.5t39.5 167.5q0 99 -39.5 157t-108.5 58zM410 1487h399v-322h-399v322z" />
    <glyph glyph-name="uni0122" unicode="&#x122;" horiz-adv-x="1486" 
d="M1038 150q-53 -90 -150.5 -135.5t-225.5 -45.5q-290 0 -446.5 206t-156.5 564q0 368 182.5 575.5t516.5 207.5q128 0 239 -31.5t200 -94t142.5 -166t59.5 -237.5h-443q-8 87 -63 140t-139 53q-122 0 -189 -118.5t-67 -317.5q0 -220 64.5 -337.5t193.5 -117.5
q108 0 173 63.5t72 194.5h-262v313h660v-866h-361v150zM700 -371h-102v267h344v-263l-162 -223h-176z" />
    <glyph glyph-name="uni0123" unicode="&#x123;" horiz-adv-x="1234" 
d="M473 -72q0 -57 40.5 -84.5t102.5 -27.5q152 0 152 235v164q-94 -166 -305 -166q-192 0 -300 134.5t-108 375.5q0 235 114.5 377.5t305.5 142.5q108 0 189.5 -48.5t119.5 -139.5v166h361v-922q0 -157 -33.5 -264t-104.5 -171t-172 -92t-247 -28q-230 0 -357.5 88
t-140.5 260h383zM610 780q-67 0 -106 -62t-39 -165q0 -99 38.5 -158t106.5 -59q69 0 108.5 61.5t39.5 167.5q0 99 -39.5 157t-108.5 58zM442 1436l162 223h176l-110 -219h114v-281h-342v277z" />
    <glyph glyph-name="Hcircumflex" unicode="&#x124;" horiz-adv-x="1466" 
d="M532 1487v-535h402v535h422v-1487h-422v588h-402v-588h-421v1487h421zM754 1741l-127 -137h-308l216 274h440l217 -274h-315z" />
    <glyph glyph-name="hcircumflex" unicode="&#x125;" horiz-adv-x="1232" 
d="M483 924q89 155 299 155q228 0 316 -172q30 -60 40.5 -128t10.5 -210v-569h-391v580q0 109 -31 157.5t-100 48.5q-88 0 -125 -106q-19 -53 -19 -199v-481h-391v1487h391v-563zM709 1604h-293l-111 143l-110 -143h-291l188 274h428z" />
    <glyph glyph-name="Hbar" unicode="&#x126;" horiz-adv-x="1585" 
d="M1542 1329v-276h-127v-1053h-422v504h-401v-504h-422v1053h-127v276h127v158h422v-158h401v158h422v-158h127zM993 848v205h-401v-205h401z" />
    <glyph glyph-name="hbar" unicode="&#x127;" horiz-adv-x="1232" 
d="M1098 887q30 -59 40.5 -128t10.5 -210v-549h-391v559q0 109 -31 158t-100 49q-88 0 -125 -107q-19 -53 -19 -198v-461h-391v1149h-125v213h125v125h391v-125h211v-213h-211v-246q89 156 299 156q110 0 192 -43.5t124 -128.5z" />
    <glyph glyph-name="Itilde" unicode="&#x128;" horiz-adv-x="643" 
d="M532 1487v-1487h-421v1487h421zM-82 1581q1 144 61.5 220.5t161.5 76.5q63 0 165 -37t130 -37q36 0 57 19.5t21 54.5h188q0 -139 -60 -218t-161 -79q-63 0 -164.5 36t-132.5 36q-78 0 -78 -72h-188z" />
    <glyph glyph-name="itilde" unicode="&#x129;" horiz-adv-x="575" 
d="M483 1057v-1057h-391v1057h391zM-43 1190q8 147 55 225t131 78q40 0 85 -20t82.5 -40t60.5 -20q33 0 49 23.5t16 52.5h182q-11 -151 -54.5 -227t-127.5 -76q-42 0 -86 20t-82 40t-65 20q-66 0 -66 -76h-180z" />
    <glyph glyph-name="Imacron" unicode="&#x12a;" horiz-adv-x="643" 
d="M532 1487v-1487h-421v1487h421zM-18 1858h680v-250h-680v250z" />
    <glyph glyph-name="imacron" unicode="&#x12b;" horiz-adv-x="575" 
d="M483 1057v-1057h-391v1057h391zM-6 1450h588v-248h-588v248z" />
    <glyph glyph-name="Ibreve" unicode="&#x12c;" horiz-adv-x="643" 
d="M532 1487v-1487h-421v1487h421zM317 1581q-183 0 -284 79.5t-107 217.5h281q8 -109 110 -109q100 0 111 109h281q-8 -138 -109.5 -217.5t-282.5 -79.5z" />
    <glyph glyph-name="ibreve" unicode="&#x12d;" horiz-adv-x="575" 
d="M483 1057v-1057h-391v1057h391zM291 1171q-164 0 -252.5 82.5t-93.5 233.5h254q0 -69 23 -98t67 -29q90 0 90 127h252q-5 -152 -91 -234t-249 -82z" />
    <glyph glyph-name="Iogonek" unicode="&#x12e;" horiz-adv-x="643" 
d="M532 1487v-1487q-163 -64 -163 -141q0 -62 82 -62q36 0 81 15v-215q-61 -25 -167 -25q-120 0 -194.5 55t-74.5 146q0 133 154 227h-139v1487h421z" />
    <glyph glyph-name="iogonek" unicode="&#x12f;" horiz-adv-x="575" 
d="M483 1057v-1057q-164 -64 -164 -141q0 -62 82 -62q37 0 82 15v-215q-61 -25 -168 -25q-120 0 -194 55t-74 146q0 133 154 227h-109v1057h391zM483 1487v-328h-391v328h391z" />
    <glyph glyph-name="Idot" unicode="&#x130;" horiz-adv-x="643" 
d="M532 1487v-1487h-421v1487h421zM117 1878h409v-291h-409v291z" />
    <glyph glyph-name="dotlessi" unicode="&#x131;" horiz-adv-x="575" 
d="M483 1057v-1057h-391v1057h391z" />
    <glyph glyph-name="IJ" unicode="&#x132;" horiz-adv-x="1429" 
d="M532 1487v-1487h-421v1487h421zM623 354q55 -14 102 -14q49 0 82 14t53 38t30.5 69t13.5 93t3 124v809h422v-928q0 -155 -13.5 -238t-47.5 -147q-60 -109 -156 -153t-235 -44q-126 0 -254 25v352z" />
    <glyph glyph-name="ij" unicode="&#x133;" horiz-adv-x="1146" 
d="M483 1057v-1057h-391v1057h391zM483 1487v-328h-391v328h391zM467 -129q23 -6 61 -6q79 0 107.5 57t28.5 160v975h391v-1041q0 -436 -416 -436q-95 0 -172 17v274zM1055 1487v-328h-391v328h391z" />
    <glyph glyph-name="Jcircumflex" unicode="&#x134;" horiz-adv-x="831" 
d="M25 354q55 -14 102 -14q49 0 82 14t53 38t30.5 69t13.5 93t3 124v809h422v-928q0 -155 -13.5 -238t-47.5 -147q-60 -109 -156 -153t-235 -44q-126 0 -254 25v352zM518 1741l-127 -137h-307l215 274h440l217 -274h-315z" />
    <glyph glyph-name="jcircumflex" unicode="&#x135;" horiz-adv-x="575" 
d="M90 1487h395l183 -295h-275l-106 147l-107 -147h-272zM-104 -129q23 -6 61 -6q42 0 69.5 16.5t41.5 48.5t19 67.5t5 84.5v975h391v-1041q0 -226 -106.5 -331t-308.5 -105q-96 0 -172 17v274z" />
    <glyph glyph-name="uni0136" unicode="&#x136;" horiz-adv-x="1384" 
d="M532 1487q-5 -563 -8 -629l15 2l354 627h481l-444 -713l483 -774h-502l-372 680h-15q8 -383 8 -680h-421v1487h421zM633 -371h-103v267h344v-263l-161 -223h-176z" />
    <glyph glyph-name="uni0137" unicode="&#x137;" horiz-adv-x="1169" 
d="M483 1487v-432q0 -262 -8 -393h19q31 75 109.5 212.5t101.5 182.5h452l-332 -490l381 -567h-473q-26 49 -78 141t-92 166.5t-69 141.5h-19q8 -150 8 -449h-391v1487h391zM766 -367l-162 -223h-174l96 219h-102v267h342v-263z" />
    <glyph glyph-name="kgreenlandic" unicode="&#x138;" horiz-adv-x="1169" 
d="M483 1057v-33q0 -231 -8 -362h19q31 75 109.5 212.5t101.5 182.5h452l-332 -490l381 -567h-473q-26 49 -78 141t-92 166.5t-69 141.5h-19q8 -150 8 -449h-391v1057h391z" />
    <glyph glyph-name="Lacute" unicode="&#x139;" horiz-adv-x="1179" 
d="M532 1487v-1122h627v-365h-1048v1487h421zM319 1878h400l-303 -274h-310z" />
    <glyph glyph-name="lacute" unicode="&#x13a;" horiz-adv-x="575" 
d="M483 1487v-1487h-391v1487h391zM301 1878h399l-303 -274h-309z" />
    <glyph glyph-name="uni013B" unicode="&#x13b;" horiz-adv-x="1179" 
d="M532 1487v-1122h627v-365h-1048v1487h421zM578 -371h-103v267h344v-263l-162 -223h-176z" />
    <glyph glyph-name="uni013C" unicode="&#x13c;" horiz-adv-x="575" 
d="M483 1487v-1487h-391v1487h391zM463 -367l-162 -223h-174l96 219h-102v267h342v-263z" />
    <glyph glyph-name="Lcaron" unicode="&#x13d;" horiz-adv-x="1185" 
d="M532 1487v-1122h627v-365h-1048v1487h421zM762 1487h307v-82l-78 -270h-233z" />
    <glyph glyph-name="lcaron" unicode="&#x13e;" horiz-adv-x="624" 
d="M483 1487v-1487h-391v1487h391zM608 1487h307v-82l-77 -270h-234z" />
    <glyph glyph-name="Ldot" unicode="&#x13f;" horiz-adv-x="1189" 
d="M721 963h375v-338h-375v338zM532 1487v-1122h627v-365h-1048v1487h421z" />
    <glyph glyph-name="ldot" unicode="&#x140;" horiz-adv-x="942" 
d="M573 954h371v-327h-371v327zM483 1487v-1487h-391v1487h391z" />
    <glyph glyph-name="Lslash" unicode="&#x141;" horiz-adv-x="1296" 
d="M53 643l172 98v746h422v-555l330 196v-340l-330 -188v-235h627v-365h-1049v414l-172 -101v330z" />
    <glyph glyph-name="lslash" unicode="&#x142;" horiz-adv-x="788" 
d="M49 645l150 100v742h391v-529l149 103v-291l-149 -100v-670h-391v457l-150 -103v291z" />
    <glyph glyph-name="Nacute" unicode="&#x143;" horiz-adv-x="1540" 
d="M1430 0h-613q-87 259 -127.5 383.5t-106 349t-98.5 383.5h-20q2 -115 7.5 -346t9 -424t3.5 -346h-374v1487h614q30 -95 113 -337t139 -423.5t90 -335.5h20q-3 108 -11.5 340t-13.5 416t-5 340h373v-1487zM795 1878h399l-303 -274h-309z" />
    <glyph glyph-name="nacute" unicode="&#x144;" horiz-adv-x="1232" 
d="M457 909q108 170 325 170q110 0 192 -43.5t124 -128.5q30 -59 40.5 -128t10.5 -210v-569h-391v580q0 109 -31 157.5t-100 48.5q-88 0 -125 -106q-19 -53 -19 -199v-481h-391v1057h365v-148zM625 1487h385l-285 -295h-301z" />
    <glyph glyph-name="uni0145" unicode="&#x145;" horiz-adv-x="1540" 
d="M1430 0h-613q-87 259 -127.5 383.5t-106 349t-98.5 383.5h-20q2 -115 7.5 -346t9 -424t3.5 -346h-374v1487h614q30 -95 113 -337t139 -423.5t90 -335.5h20q-3 108 -11.5 340t-13.5 416t-5 340h373v-1487zM721 -371h-103v267h345v-263l-162 -223h-176z" />
    <glyph glyph-name="uni0146" unicode="&#x146;" horiz-adv-x="1232" 
d="M457 909q108 170 325 170q110 0 192 -43.5t124 -128.5q30 -59 40.5 -128t10.5 -210v-569h-391v580q0 109 -31 157.5t-100 48.5q-88 0 -125 -106q-19 -53 -19 -199v-481h-391v1057h365v-148zM793 -367l-162 -223h-174l96 219h-102v267h342v-263z" />
    <glyph glyph-name="Ncaron" unicode="&#x147;" horiz-adv-x="1540" 
d="M1430 0h-613q-87 259 -127.5 383.5t-106 349t-98.5 383.5h-20q2 -115 7.5 -346t9 -424t3.5 -346h-374v1487h614q30 -95 113 -337t139 -423.5t90 -335.5h20q-3 108 -11.5 340t-13.5 416t-5 340h373v-1487zM674 1878l125 -135l127 135h305l-215 -274h-443l-215 274h316z
" />
    <glyph glyph-name="ncaron" unicode="&#x148;" horiz-adv-x="1232" 
d="M457 909q108 170 325 170q110 0 192 -43.5t124 -128.5q30 -59 40.5 -128t10.5 -210v-569h-391v580q0 109 -31 157.5t-100 48.5q-88 0 -125 -106q-19 -53 -19 -199v-481h-391v1057h365v-148zM498 1487l123 -152l124 152h295l-206 -295h-428l-207 295h299z" />
    <glyph glyph-name="napostrophe" unicode="&#x149;" horiz-adv-x="1497" 
d="M721 909q108 170 326 170q110 0 191.5 -43.5t123.5 -128.5q30 -59 40.5 -128t10.5 -210v-569h-391v580q0 109 -31 157.5t-100 48.5q-88 0 -125 -106q-18 -50 -18 -199v-481h-392v1057h365v-148zM129 1253h-102v269h331v-265l-165 -256h-166z" />
    <glyph glyph-name="Eng" unicode="&#x14a;" horiz-adv-x="1533" 
d="M952 -420q-93 0 -219 17v274q65 -10 117 -10q43 0 75.5 6.5t61 22t44.5 46.5t18 76l-582 946h-16l8 -96q12 -176 12 -456v-406h-360v1487h467l493 -864h14q-22 363 -22 577v287h360v-1399q0 -114 -22.5 -202t-62.5 -145.5t-100 -93.5t-129.5 -51.5t-156.5 -15.5z" />
    <glyph glyph-name="eng" unicode="&#x14b;" horiz-adv-x="1232" 
d="M561 -129q23 -6 62 -6q42 0 69.5 16.5t41.5 48.5t19 67.5t5 84.5v496q0 109 -31 158.5t-100 49.5q-89 0 -125 -104q-19 -53 -19 -201v-481h-391v1057h365v-148q108 170 325 170q222 0 316 -172q31 -55 41 -123.5t10 -214.5v-553q0 -436 -416 -436q-95 0 -172 17v274z" />
    <glyph glyph-name="Omacron" unicode="&#x14c;" horiz-adv-x="1519" 
d="M760 1522q322 0 512 -214t190 -571q0 -354 -188.5 -563t-513.5 -209q-331 0 -517 204.5t-186 567.5q0 360 189 572.5t514 212.5zM760 1157q-129 0 -196.5 -105t-67.5 -309q0 -195 68.5 -306t195.5 -111q129 0 196.5 108.5t67.5 308.5q0 194 -69 304t-195 110zM420 1858
h680v-250h-680v250z" />
    <glyph glyph-name="omacron" unicode="&#x14d;" horiz-adv-x="1241" 
d="M625 1092q275 0 421 -154t146 -416q0 -259 -148.5 -408t-422.5 -149q-280 0 -426 149.5t-146 411.5q0 257 152 411.5t424 154.5zM621 799q-73 0 -117.5 -71.5t-44.5 -197.5q0 -128 43.5 -200t118.5 -72t118 71t43 199q0 123 -44.5 197t-116.5 74zM299 1450h637v-248h-637
v248z" />
    <glyph glyph-name="Obreve" unicode="&#x14e;" horiz-adv-x="1519" 
d="M760 1522q322 0 512 -214t190 -571q0 -354 -188.5 -563t-513.5 -209q-331 0 -517 204.5t-186 567.5q0 360 189 572.5t514 212.5zM760 1157q-129 0 -196.5 -105t-67.5 -309q0 -195 68.5 -306t195.5 -111q129 0 196.5 108.5t67.5 308.5q0 194 -69 304t-195 110zM756 1581
q-183 0 -284 79.5t-107 217.5h280q8 -109 111 -109q99 0 110 109h281q-8 -138 -109 -217.5t-282 -79.5z" />
    <glyph glyph-name="obreve" unicode="&#x14f;" horiz-adv-x="1241" 
d="M625 1092q275 0 421 -154t146 -416q0 -259 -148.5 -408t-422.5 -149q-280 0 -426 149.5t-146 411.5q0 257 152 411.5t424 154.5zM621 799q-73 0 -117.5 -71.5t-44.5 -197.5q0 -128 43.5 -200t118.5 -72t118 71t43 199q0 123 -44.5 197t-116.5 74zM614 1171
q-179 0 -278.5 83.5t-104.5 232.5h281q0 -65 27.5 -96t74.5 -31q45 0 73.5 31.5t29.5 95.5h280q-5 -149 -104.5 -232.5t-278.5 -83.5z" />
    <glyph glyph-name="Ohungarumlaut" unicode="&#x150;" horiz-adv-x="1519" 
d="M760 1522q322 0 512 -214t190 -571q0 -354 -188.5 -563t-513.5 -209q-331 0 -517 204.5t-186 567.5q0 360 189 572.5t514 212.5zM760 1157q-129 0 -196.5 -105t-67.5 -309q0 -195 68.5 -306t195.5 -111q129 0 196.5 108.5t67.5 308.5q0 194 -69 304t-195 110zM553 1878
h352l-262 -274h-283zM1059 1878h375l-293 -274h-301z" />
    <glyph glyph-name="ohungarumlaut" unicode="&#x151;" horiz-adv-x="1241" 
d="M625 1092q275 0 421 -154t146 -416q0 -259 -148.5 -408t-422.5 -149q-280 0 -426 149.5t-146 411.5q0 257 152 411.5t424 154.5zM621 799q-73 0 -117.5 -71.5t-44.5 -197.5q0 -128 43.5 -200t118.5 -72t118 71t43 199q0 123 -44.5 197t-116.5 74zM893 1487h356l-278 -295
h-281zM410 1487h340l-254 -295h-269z" />
    <glyph glyph-name="OE" unicode="&#x152;" horiz-adv-x="2054" 
d="M844 0q-233 0 -353 33t-217 127q-215 203 -215 585q0 200 66.5 357t191.5 256q101 79 234.5 104t331.5 25h1085v-359h-608v-196h559v-361h-559v-213h620v-358h-1136zM856 1124q-354 0 -354 -383q0 -198 83.5 -288.5t272.5 -90.5h82v762h-84z" />
    <glyph glyph-name="oe" unicode="&#x153;" horiz-adv-x="1921" 
d="M586 -31q-244 0 -390.5 151t-146.5 404q0 255 148 409t393 154q242 0 377 -151q151 154 381 154q122 0 222.5 -45t165 -122t99.5 -178t35 -215q0 -59 -2 -98h-699q0 -94 39.5 -149.5t126.5 -55.5q108 0 140 99h389q-48 -174 -187.5 -266.5t-333.5 -92.5q-249 0 -387 148
q-136 -146 -370 -146zM1487 662q0 77 -43.5 123t-110.5 46q-70 0 -114.5 -47.5t-49.5 -121.5h318zM616 799q-73 0 -116 -71.5t-43 -199.5q0 -127 42.5 -198.5t116.5 -71.5q75 0 118.5 71.5t43.5 194.5q0 127 -44.5 201t-117.5 74z" />
    <glyph glyph-name="Racute" unicode="&#x154;" horiz-adv-x="1361" 
d="M705 1487q149 0 243 -25t166 -80q71 -56 108.5 -136.5t37.5 -172.5q0 -88 -34.5 -167t-110 -137t-179.5 -69v-16q55 -3 97 -20.5t70.5 -42.5t52.5 -69t39 -85t34 -105l106 -362h-448l-45 201q-16 73 -27 116.5t-26 81.5t-28.5 56.5t-35.5 32t-46.5 17t-62.5 3.5h-84v-508
h-421v1487h594zM637 846q213 0 213 147q0 78 -50 112t-163 34h-105v-293h105zM639 1878h399l-303 -274h-309z" />
    <glyph glyph-name="racute" unicode="&#x155;" horiz-adv-x="897" 
d="M455 1057v-178q54 104 126.5 147t190.5 43q40 0 105 -12v-344q-61 12 -105 12q-96 0 -155.5 -26.5t-94.5 -88.5q-23 -43 -31 -99t-8 -179v-332h-391v1057h363zM526 1487h385l-284 -295h-301z" />
    <glyph glyph-name="uni0156" unicode="&#x156;" horiz-adv-x="1361" 
d="M705 1487q149 0 243 -25t166 -80q71 -56 108.5 -136.5t37.5 -172.5q0 -88 -34.5 -167t-110 -137t-179.5 -69v-16q55 -3 97 -20.5t70.5 -42.5t52.5 -69t39 -85t34 -105l106 -362h-448l-45 201q-16 73 -27 116.5t-26 81.5t-28.5 56.5t-35.5 32t-46.5 17t-62.5 3.5h-84v-508
h-421v1487h594zM637 846q213 0 213 147q0 78 -50 112t-163 34h-105v-293h105zM635 -371h-103v267h345v-263l-162 -223h-176z" />
    <glyph glyph-name="uni0157" unicode="&#x157;" horiz-adv-x="897" 
d="M455 1057v-178q54 104 126.5 147t190.5 43q40 0 105 -12v-344q-61 12 -105 12q-96 0 -155.5 -26.5t-94.5 -88.5q-23 -43 -31 -99t-8 -179v-332h-391v1057h363zM455 -367l-162 -223h-174l96 219h-102v267h342v-263z" />
    <glyph glyph-name="Rcaron" unicode="&#x158;" horiz-adv-x="1361" 
d="M705 1487q149 0 243 -25t166 -80q71 -56 108.5 -136.5t37.5 -172.5q0 -88 -34.5 -167t-110 -137t-179.5 -69v-16q55 -3 97 -20.5t70.5 -42.5t52.5 -69t39 -85t34 -105l106 -362h-448l-45 201q-16 73 -27 116.5t-26 81.5t-28.5 56.5t-35.5 32t-46.5 17t-62.5 3.5h-84v-508
h-421v1487h594zM637 846q213 0 213 147q0 78 -50 112t-163 34h-105v-293h105zM518 1878l125 -135l127 135h305l-215 -274h-442l-215 274h315z" />
    <glyph glyph-name="rcaron" unicode="&#x159;" horiz-adv-x="897" 
d="M455 1057v-178q54 104 126.5 147t190.5 43q40 0 105 -12v-344q-61 12 -105 12q-96 0 -155.5 -26.5t-94.5 -88.5q-23 -43 -31 -99t-8 -179v-332h-391v1057h363zM72 1487h286l125 -154l121 154h283l-207 -301h-399z" />
    <glyph glyph-name="Sacute" unicode="&#x15a;" horiz-adv-x="1351" 
d="M500 479q5 -94 47.5 -137t134.5 -43q75 0 123.5 33.5t48.5 87.5q0 59 -52.5 90t-226.5 76q-164 42 -246 77t-141 91q-118 106 -118 303q0 212 159.5 338.5t434.5 126.5q160 0 290 -43t203 -121q58 -61 84.5 -139t26.5 -193h-447q-5 88 -42 125t-122 37q-66 0 -106.5 -30
t-40.5 -79q0 -64 63 -90q50 -25 224 -67q153 -40 237.5 -76t139.5 -88q124 -116 124 -316q0 -222 -169.5 -349.5t-466.5 -127.5q-303 0 -458 132t-155 382h451zM664 1878h399l-303 -274h-309z" />
    <glyph glyph-name="sacute" unicode="&#x15b;" horiz-adv-x="1183" 
d="M455 358q0 -76 33 -112.5t106 -36.5q59 0 93 21t34 57q0 25 -14.5 44.5t-35.5 31.5t-58.5 23.5t-68.5 18.5t-81.5 18t-83.5 19q-67 16 -118 37.5t-99 57t-73.5 90.5t-25.5 127q0 152 149.5 245t381.5 93q99 0 181.5 -16t157.5 -53.5t122 -109t57 -172.5h-401
q-12 107 -131 107q-53 0 -81 -21t-28 -53q0 -18 7.5 -32.5t27 -26.5t35 -19.5t51.5 -15.5l54 -12t64 -12q25 -5 38 -7q47 -9 80.5 -17.5t77.5 -23.5t75 -31.5t64 -43.5t52.5 -58.5t32.5 -76t13 -97.5q0 -155 -147 -245.5t-402 -90.5q-275 0 -409.5 97t-145.5 296h416z
M596 1487h385l-285 -295h-301z" />
    <glyph glyph-name="Scircumflex" unicode="&#x15c;" horiz-adv-x="1351" 
d="M500 479q5 -94 47.5 -137t134.5 -43q75 0 123.5 33.5t48.5 87.5q0 59 -52.5 90t-226.5 76q-164 42 -246 77t-141 91q-118 106 -118 303q0 212 159.5 338.5t434.5 126.5q160 0 290 -43t203 -121q58 -61 84.5 -139t26.5 -193h-447q-5 88 -42 125t-122 37q-66 0 -106.5 -30
t-40.5 -79q0 -64 63 -90q50 -25 224 -67q153 -40 237.5 -76t139.5 -88q124 -116 124 -316q0 -222 -169.5 -349.5t-466.5 -127.5q-303 0 -458 132t-155 382h451zM666 1741l-127 -137h-308l215 274h441l217 -274h-316z" />
    <glyph glyph-name="scircumflex" unicode="&#x15d;" horiz-adv-x="1183" 
d="M455 358q0 -76 33 -112.5t106 -36.5q59 0 93 21t34 57q0 25 -14.5 44.5t-35.5 31.5t-58.5 23.5t-68.5 18.5t-81.5 18t-83.5 19q-67 16 -118 37.5t-99 57t-73.5 90.5t-25.5 127q0 152 149.5 245t381.5 93q99 0 181.5 -16t157.5 -53.5t122 -109t57 -172.5h-401
q-12 107 -131 107q-53 0 -81 -21t-28 -53q0 -18 7.5 -32.5t27 -26.5t35 -19.5t51.5 -15.5l54 -12t64 -12q25 -5 38 -7q47 -9 80.5 -17.5t77.5 -23.5t75 -31.5t64 -43.5t52.5 -58.5t32.5 -76t13 -97.5q0 -155 -147 -245.5t-402 -90.5q-275 0 -409.5 97t-145.5 296h416z
M713 1192l-123 151l-125 -151h-295l207 295h428l207 -295h-299z" />
    <glyph glyph-name="Scedilla" unicode="&#x15e;" horiz-adv-x="1351" 
d="M500 479q5 -94 47.5 -137t134.5 -43q75 0 123.5 33.5t48.5 87.5q0 59 -52.5 90t-226.5 76q-164 42 -246 77t-141 91q-118 106 -118 303q0 212 159.5 338.5t434.5 126.5q160 0 290 -43t203 -121q58 -61 84.5 -139t26.5 -193h-447q-5 88 -42 125t-122 37q-66 0 -106.5 -30
t-40.5 -79q0 -64 63 -90q50 -25 224 -67q153 -40 237.5 -76t139.5 -88q124 -116 124 -316q0 -222 -169.5 -349.5t-466.5 -127.5q-303 0 -458 132t-155 382h451zM637 -428q-98 0 -139 10v135q9 -4 55 -4q100 0 100 74q0 33 -19.5 54.5t-58.5 21.5q-22 0 -36 -2v159h196v-79
q79 -4 118.5 -52.5t39.5 -111.5q0 -96 -73 -150.5t-183 -54.5z" />
    <glyph glyph-name="scedilla" unicode="&#x15f;" horiz-adv-x="1183" 
d="M455 358q0 -76 33 -112.5t106 -36.5q59 0 93 21t34 57q0 25 -14.5 44.5t-35.5 31.5t-58.5 23.5t-68.5 18.5t-81.5 18t-83.5 19q-67 16 -118 37.5t-99 57t-73.5 90.5t-25.5 127q0 152 149.5 245t381.5 93q99 0 181.5 -16t157.5 -53.5t122 -109t57 -172.5h-401
q-12 107 -131 107q-53 0 -81 -21t-28 -53q0 -18 7.5 -32.5t27 -26.5t35 -19.5t51.5 -15.5l54 -12t64 -12q25 -5 38 -7q47 -9 80.5 -17.5t77.5 -23.5t75 -31.5t64 -43.5t52.5 -58.5t32.5 -76t13 -97.5q0 -155 -147 -245.5t-402 -90.5q-275 0 -409.5 97t-145.5 296h416z
M559 -428q-98 0 -139 10v135q9 -4 55 -4q52 0 77.5 20t25.5 54q0 33 -20.5 54.5t-59.5 21.5q-23 0 -37 -2v159h194v-79q80 -4 120 -52.5t40 -111.5q0 -96 -73 -150.5t-183 -54.5z" />
    <glyph glyph-name="Scaron" unicode="&#x160;" horiz-adv-x="1351" 
d="M500 479q5 -94 47.5 -137t134.5 -43q75 0 123.5 33.5t48.5 87.5q0 59 -52.5 90t-226.5 76q-164 42 -246 77t-141 91q-118 106 -118 303q0 212 159.5 338.5t434.5 126.5q160 0 290 -43t203 -121q58 -61 84.5 -139t26.5 -193h-447q-5 88 -42 125t-122 37q-66 0 -106.5 -30
t-40.5 -79q0 -64 63 -90q50 -25 224 -67q153 -40 237.5 -76t139.5 -88q124 -116 124 -316q0 -222 -169.5 -349.5t-466.5 -127.5q-303 0 -458 132t-155 382h451zM543 1878l125 -135l127 135h305l-215 -274h-443l-215 274h316z" />
    <glyph glyph-name="scaron" unicode="&#x161;" horiz-adv-x="1183" 
d="M455 358q0 -76 33 -112.5t106 -36.5q59 0 93 21t34 57q0 25 -14.5 44.5t-35.5 31.5t-58.5 23.5t-68.5 18.5t-81.5 18t-83.5 19q-67 16 -118 37.5t-99 57t-73.5 90.5t-25.5 127q0 152 149.5 245t381.5 93q99 0 181.5 -16t157.5 -53.5t122 -109t57 -172.5h-401
q-12 107 -131 107q-53 0 -81 -21t-28 -53q0 -18 7.5 -32.5t27 -26.5t35 -19.5t51.5 -15.5l54 -12t64 -12q25 -5 38 -7q47 -9 80.5 -17.5t77.5 -23.5t75 -31.5t64 -43.5t52.5 -58.5t32.5 -76t13 -97.5q0 -155 -147 -245.5t-402 -90.5q-275 0 -409.5 97t-145.5 296h416z
M469 1487l123 -152l125 152h295l-207 -295h-428l-207 295h299z" />
    <glyph glyph-name="uni0162" unicode="&#x162;" horiz-adv-x="1331" 
d="M20 1122v365h1291v-365h-434v-1122h-422v1122h-435zM625 -428q-99 0 -140 10v135q9 -4 56 -4q100 0 100 74q0 33 -19.5 54.5t-58.5 21.5q-23 0 -37 -2v159h197v-79q79 -4 118.5 -52.5t39.5 -111.5q0 -96 -73 -150.5t-183 -54.5z" />
    <glyph glyph-name="uni0163" unicode="&#x163;" horiz-adv-x="800" 
d="M758 0q-114 -12 -207 -12q-98 0 -165 17.5t-115.5 59t-71.5 113t-23 178.5v416h-162v285h162v289h391v-289h191v-285h-191v-293q0 -108 26.5 -147t98.5 -39q27 0 66 10v-303zM463 -428q-98 0 -139 10v135q9 -4 55 -4q102 0 102 74q0 33 -20.5 54.5t-59.5 21.5
q-22 0 -36 -2v159h194v-79q80 -4 120 -52.5t40 -111.5q0 -96 -73 -150.5t-183 -54.5z" />
    <glyph glyph-name="Tcaron" unicode="&#x164;" horiz-adv-x="1331" 
d="M20 1122v365h1291v-365h-434v-1122h-422v1122h-435zM553 1878l125 -135l127 135h305l-215 -274h-442l-215 274h315z" />
    <glyph glyph-name="tcaron" unicode="&#x165;" horiz-adv-x="800" 
d="M678 1487h307v-82l-78 -270h-233zM758 0q-114 -12 -207 -12q-98 0 -165 17.5t-115.5 59t-71.5 113t-23 178.5v416h-162v285h162v289h391v-289h191v-285h-191v-293q0 -108 26.5 -147t98.5 -39q27 0 66 10v-303z" />
    <glyph glyph-name="Tbar" unicode="&#x166;" horiz-adv-x="1347" 
d="M885 1122v-256h264v-303h-264v-563h-422v563h-264v303h264v256h-434v365h1290v-365h-434z" />
    <glyph glyph-name="tbar" unicode="&#x167;" horiz-adv-x="817" 
d="M575 829v-139h197v-227h-197q1 -98 29.5 -134t102.5 -36q26 0 65 10v-303q-114 -12 -207 -12q-98 0 -165 17.5t-115.5 59t-71.5 113t-23 178.5v107h-161v227h161v139h-161v228h161v289h385v-289h197v-228h-197z" />
    <glyph glyph-name="Utilde" unicode="&#x168;" horiz-adv-x="1441" 
d="M1346 586q0 -306 -157.5 -463.5t-463.5 -157.5q-303 0 -466 160t-163 459v903h422v-856q0 -164 46 -234.5t151 -70.5q106 0 157.5 72t51.5 233v856h422v-901zM324 1581q1 144 61.5 220.5t161.5 76.5q63 0 165 -37t130 -37q36 0 57 19.5t21 54.5h188q0 -139 -60 -218
t-161 -79q-63 0 -164.5 36t-132.5 36q-78 0 -78 -72h-188z" />
    <glyph glyph-name="utilde" unicode="&#x169;" horiz-adv-x="1232" 
d="M776 147q-55 -88 -134 -129t-189 -41q-229 0 -318 173q-31 56 -41 123.5t-10 213.5v570h391v-580q0 -110 30.5 -158.5t96.5 -48.5q45 0 81.5 29t49.5 76q17 47 17 200v482h391v-1057h-365v147zM215 1190q6 146 64 224.5t161 78.5q52 0 155 -40t148 -40q25 0 48.5 19.5
t23.5 56.5h195q-6 -147 -64 -225t-162 -78q-53 0 -155 40t-148 40q-24 0 -46.5 -19t-22.5 -57h-197z" />
    <glyph glyph-name="Umacron" unicode="&#x16a;" horiz-adv-x="1441" 
d="M1346 586q0 -306 -157.5 -463.5t-463.5 -157.5q-303 0 -466 160t-163 459v903h422v-856q0 -164 46 -234.5t151 -70.5q106 0 157.5 72t51.5 233v856h422v-901zM387 1858h680v-250h-680v250z" />
    <glyph glyph-name="umacron" unicode="&#x16b;" horiz-adv-x="1232" 
d="M776 147q-55 -88 -134 -129t-189 -41q-229 0 -318 173q-31 56 -41 123.5t-10 213.5v570h391v-580q0 -110 30.5 -158.5t96.5 -48.5q45 0 81.5 29t49.5 76q17 47 17 200v482h391v-1057h-365v147zM293 1450h637v-248h-637v248z" />
    <glyph glyph-name="Ubreve" unicode="&#x16c;" horiz-adv-x="1441" 
d="M1346 586q0 -306 -157.5 -463.5t-463.5 -157.5q-303 0 -466 160t-163 459v903h422v-856q0 -164 46 -234.5t151 -70.5q106 0 157.5 72t51.5 233v856h422v-901zM723 1581q-183 0 -284 79.5t-107 217.5h280q8 -109 111 -109q100 0 111 109h280q-8 -138 -109 -217.5
t-282 -79.5z" />
    <glyph glyph-name="ubreve" unicode="&#x16d;" horiz-adv-x="1232" 
d="M776 147q-55 -88 -134 -129t-189 -41q-229 0 -318 173q-31 56 -41 123.5t-10 213.5v570h391v-580q0 -110 30.5 -158.5t96.5 -48.5q45 0 81.5 29t49.5 76q17 47 17 200v482h391v-1057h-365v147zM608 1171q-179 0 -278.5 83.5t-104.5 232.5h281q0 -65 27.5 -96t74.5 -31
q45 0 73.5 31.5t29.5 95.5h280q-5 -149 -104.5 -232.5t-278.5 -83.5z" />
    <glyph glyph-name="Uring" unicode="&#x16e;" horiz-adv-x="1441" 
d="M1346 586q0 -306 -157.5 -463.5t-463.5 -157.5q-303 0 -466 160t-163 459v903h422v-856q0 -164 46 -234.5t151 -70.5q106 0 157.5 72t51.5 233v856h422v-901zM721 1516q-118 0 -197.5 71.5t-79.5 186.5t79.5 186.5t197.5 71.5q117 0 196.5 -73.5t79.5 -184.5
t-79.5 -184.5t-196.5 -73.5zM721 1661q51 0 83 31t32 82t-32 81.5t-83 30.5t-83 -30.5t-32 -81.5t32 -82t83 -31z" />
    <glyph glyph-name="uring" unicode="&#x16f;" horiz-adv-x="1232" 
d="M776 147q-55 -88 -134 -129t-189 -41q-229 0 -318 173q-31 56 -41 123.5t-10 213.5v570h391v-580q0 -110 30.5 -158.5t96.5 -48.5q45 0 81.5 29t49.5 76q17 47 17 200v482h391v-1057h-365v147zM616 1145q-114 0 -191 70.5t-77 179.5q0 113 76.5 181.5t191.5 68.5
q112 0 190.5 -71.5t78.5 -178.5q0 -106 -79 -178t-190 -72zM616 1288q47 0 78 30t31 77t-30.5 76.5t-78.5 29.5q-47 0 -77.5 -29.5t-30.5 -76.5t30.5 -77t77.5 -30z" />
    <glyph glyph-name="Uhungarumlaut" unicode="&#x170;" horiz-adv-x="1441" 
d="M1346 586q0 -306 -157.5 -463.5t-463.5 -157.5q-303 0 -466 160t-163 459v903h422v-856q0 -164 46 -234.5t151 -70.5q106 0 157.5 72t51.5 233v856h422v-901zM520 1878h352l-262 -274h-282zM1026 1878h375l-293 -274h-301z" />
    <glyph glyph-name="uhungarumlaut" unicode="&#x171;" horiz-adv-x="1232" 
d="M776 147q-55 -88 -134 -129t-189 -41q-229 0 -318 173q-31 56 -41 123.5t-10 213.5v570h391v-580q0 -110 30.5 -158.5t96.5 -48.5q45 0 81.5 29t49.5 76q17 47 17 200v482h391v-1057h-365v147zM887 1487h356l-278 -295h-281zM403 1487h340l-254 -295h-268z" />
    <glyph glyph-name="Uogonek" unicode="&#x172;" horiz-adv-x="1441" 
d="M725 -35q-303 0 -466 160t-163 459v903h422v-856q0 -164 46 -234.5t151 -70.5q106 0 157.5 72t51.5 233v856h422v-901q0 -191 -62 -319.5t-194 -227.5q-71 -54 -106.5 -94t-35.5 -76q0 -70 88 -70q37 0 82 15v-217q-64 -25 -170 -25q-124 0 -198 53.5t-74 143.5
q0 116 121 198q-12 0 -35.5 -1t-36.5 -1z" />
    <glyph glyph-name="uogonek" unicode="&#x173;" horiz-adv-x="1232" 
d="M776 147q-55 -88 -134 -129t-189 -41q-229 0 -318 173q-31 56 -41 123.5t-10 213.5v570h391v-580q0 -110 30.5 -158.5t96.5 -48.5q45 0 81.5 29t49.5 76q17 47 17 200v482h391v-1057h-365v147zM973 -428q-122 0 -196.5 54.5t-74.5 146.5q0 81 57.5 146.5t153.5 109.5
l228 -29q-164 -65 -164 -141q0 -62 80 -62q39 0 84 15v-215q-61 -25 -168 -25z" />
    <glyph glyph-name="Wcircumflex" unicode="&#x174;" horiz-adv-x="2076" 
d="M1204 0l-137 1061h-20l-175 -1061h-581l-268 1487h423l146 -1079h20q13 146 43 335l123 744h559l131 -744q26 -153 50 -335h20l131 1079h385l-270 -1487h-580zM1057 1741l-127 -137h-307l215 274h440l217 -274h-315z" />
    <glyph glyph-name="wcircumflex" unicode="&#x175;" horiz-adv-x="1843" 
d="M1200 1057q98 -454 137 -715h21q26 247 94 715h375l-232 -1057h-540q-4 23 -24.5 124.5t-29 147.5t-23.5 130.5t-26 156t-20 141.5h-21q-41 -291 -125 -700h-540l-230 1057h404q49 -300 92 -715h20q27 181 142 715h526zM1044 1192l-122 151l-125 -151h-295l207 295h428
l206 -295h-299z" />
    <glyph glyph-name="Ycircumflex" unicode="&#x176;" horiz-adv-x="1329" 
d="M883 0h-437v526l-456 961h481q22 -58 68.5 -172t80 -205t54.5 -172h14q25 107 98 308.5t86 240.5h469l-458 -957v-530zM682 1741l-127 -137h-307l215 274h440l217 -274h-315z" />
    <glyph glyph-name="ycircumflex" unicode="&#x177;" horiz-adv-x="1167" 
d="M829 -18q-70 -222 -179.5 -312t-303.5 -90q-114 0 -211 17v284q36 -8 80 -8q139 0 139 129q0 34 -24 102l-334 953h446l93 -395l59 -314h20l60 314l96 395h391zM727 1192l-123 151l-125 -151h-295l207 295h428l207 -295h-299z" />
    <glyph glyph-name="Ydieresis" unicode="&#x178;" horiz-adv-x="1329" 
d="M883 0h-437v526l-456 961h481q22 -58 68.5 -172t80 -205t54.5 -172h14q25 107 98 308.5t86 240.5h469l-458 -957v-530zM750 1878h348v-295h-348v295zM258 1878h346v-295h-346v295z" />
    <glyph glyph-name="Zacute" unicode="&#x179;" horiz-adv-x="1267" 
d="M315 686q3 4 57 67.5t83 96.5t80 91.5t93.5 104.5t78.5 82l-9 11q-202 -11 -610 -11v359h1096v-369l-260 -315q-210 -263 -375 -445l6 -12q244 12 664 12v-358h-1162v371zM637 1878h399l-303 -274h-309z" />
    <glyph glyph-name="zacute" unicode="&#x17a;" horiz-adv-x="1114" 
d="M45 289q38 37 126 123t138.5 135t124 115t133.5 114l-8 6q-110 -10 -315 -10h-174v285h972v-287q-43 -41 -127.5 -123.5t-137.5 -133t-126.5 -116.5t-134.5 -114l4 -9q108 9 342 9h219v-283h-1036v289zM567 1487h385l-284 -295h-301z" />
    <glyph glyph-name="Zdotaccent" unicode="&#x17b;" horiz-adv-x="1267" 
d="M315 686q3 4 57 67.5t83 96.5t80 91.5t93.5 104.5t78.5 82l-9 11q-202 -11 -610 -11v359h1096v-369l-260 -315q-210 -263 -375 -445l6 -12q244 12 664 12v-358h-1162v371zM432 1878h410v-291h-410v291z" />
    <glyph glyph-name="zdotaccent" unicode="&#x17c;" horiz-adv-x="1114" 
d="M45 289q38 37 126 123t138.5 135t124 115t133.5 114l-8 6q-110 -10 -315 -10h-174v285h972v-287q-43 -41 -127.5 -123.5t-137.5 -133t-126.5 -116.5t-134.5 -114l4 -9q108 9 342 9h219v-283h-1036v289zM358 1487h400v-322h-400v322z" />
    <glyph glyph-name="Zcaron" unicode="&#x17d;" horiz-adv-x="1267" 
d="M315 686q3 4 57 67.5t83 96.5t80 91.5t93.5 104.5t78.5 82l-9 11q-202 -11 -610 -11v359h1096v-369l-260 -315q-210 -263 -375 -445l6 -12q244 12 664 12v-358h-1162v371zM516 1878l125 -135l127 135h305l-215 -274h-442l-215 274h315z" />
    <glyph glyph-name="zcaron" unicode="&#x17e;" horiz-adv-x="1114" 
d="M45 289q38 37 126 123t138.5 135t124 115t133.5 114l-8 6q-110 -10 -315 -10h-174v285h972v-287q-43 -41 -127.5 -123.5t-137.5 -133t-126.5 -116.5t-134.5 -114l4 -9q108 9 342 9h219v-283h-1036v289zM440 1487l123 -152l125 152h295l-207 -295h-428l-207 295h299z" />
    <glyph glyph-name="longs" unicode="&#x17f;" horiz-adv-x="573" 
d="M92 1094q0 200 95.5 311t297.5 111q77 0 189 -23v-268q-42 10 -60 10q-62 0 -97.5 -35t-35.5 -106v-1094h-389v1094z" />
    <glyph glyph-name="uni018F" unicode="&#x18f;" horiz-adv-x="1503" 
d="M1006 829q-11 175 -83.5 256.5t-185.5 81.5q-175 0 -217 -163h-436q36 255 210.5 386.5t440.5 131.5q332 0 520.5 -203.5t188.5 -570.5q0 -366 -187 -574.5t-518 -208.5q-326 0 -504 215.5t-178 648.5h949zM745 309q94 0 162 61.5t84 194.5h-475q4 -71 25 -122.5
t54 -79.5t70.5 -41t79.5 -13z" />
    <glyph glyph-name="uni0190" unicode="&#x190;" horiz-adv-x="1304" 
d="M1262 485q0 -113 -30.5 -202t-83.5 -148.5t-129.5 -98t-164 -55t-192.5 -16.5q-601 0 -601 436q0 139 77 240t210 127v10q-262 71 -262 326q0 194 151.5 306t424.5 112q571 0 583 -502h-399q-1 102 -49.5 156.5t-134.5 54.5q-73 0 -117.5 -41t-44.5 -109q0 -93 41 -133.5
t145 -40.5h111v-305h-123q-104 0 -150.5 -43.5t-46.5 -132.5q0 -83 48 -126.5t132 -43.5q92 0 143 59t56 170h406z" />
    <glyph glyph-name="florin" unicode="&#x192;" 
d="M532 1028q34 182 166 292t316 110q153 0 239 -27v-275q-79 27 -153 27t-115.5 -38t-58.5 -124l-37 -192h215v-279h-268l-58 -301q-57 -299 -167 -424t-314 -125q-139 0 -262 35v258q97 -31 149 -31q80 0 123 55t68 193l63 340h-196v279h247z" />
    <glyph glyph-name="uni0194" unicode="&#x194;" horiz-adv-x="1327" 
d="M-18 1487h409l273 -551l272 551h410l-496 -932l57 -113q27 -55 72 -138.5t69 -131t44 -108.5t20 -113q0 -100 -34.5 -173.5t-97.5 -116t-141.5 -62t-174.5 -19.5t-174.5 19.5t-141.5 62t-98 116t-35 173.5q0 52 20 113t44 108.5t69 131t72 138.5l65 133zM664 -182
q36 0 58.5 22t30 50t7.5 61q0 67 -88 270q-37 -76 -54 -112.5t-34 -84t-17 -73.5q0 -33 8 -61t30.5 -50t58.5 -22z" />
    <glyph glyph-name="uni0197" unicode="&#x197;" horiz-adv-x="856" 
d="M51 901h166v586h422v-586h166v-303h-166v-598h-422v598h-166v303z" />
    <glyph glyph-name="uni019D" unicode="&#x19d;" horiz-adv-x="1540" 
d="M485 16q0 -227 -103 -331.5t-304 -104.5q-96 0 -172 17v274q23 -6 61 -6q81 0 112.5 58t31.5 159v1405h614q30 -95 113 -337t139 -423.5t90 -335.5h20q-3 108 -11.5 340t-13.5 416t-5 340h373v-1487h-613q-87 259 -127.5 383.5t-106 349t-98.5 383.5h-20
q20 -875 20 -1100z" />
    <glyph glyph-name="uni01B5" unicode="&#x1b5;" horiz-adv-x="1282" 
d="M279 627h-164v243h366q131 156 238 258l-8 11q-205 -11 -615 -11v359h1096v-365l-213 -252h184v-243h-385q-16 -20 -52.5 -66.5t-57.5 -72.5t-53.5 -63.5t-61.5 -66.5l6 -12q241 12 668 12v-358h-1161v367z" />
    <glyph glyph-name="uni01B6" unicode="&#x1b6;" horiz-adv-x="1120" 
d="M106 639h310q127 113 159 137l-8 6q-110 -10 -319 -10h-174v285h973v-283q-59 -54 -140 -135h88v-190h-288q-110 -103 -191 -166l4 -9q108 9 346 9h219v-283h-1036v285l166 164h-109v190z" />
    <glyph glyph-name="uni01CD" unicode="&#x1cd;" horiz-adv-x="1560" 
d="M1061 1487l508 -1487h-467l-74 260h-520l-76 -260h-440l508 1487h561zM758 1153q-22 -81 -76.5 -269t-81.5 -290h332q-98 335 -154 559h-20zM647 1878l125 -135l127 135h305l-215 -274h-442l-215 274h315z" />
    <glyph glyph-name="uni01CE" unicode="&#x1ce;" horiz-adv-x="1202" 
d="M768 0q-7 38 -10 121q-85 -85 -156 -114.5t-182 -29.5q-173 0 -275 87t-102 233q0 183 163.5 270t512.5 92v46q0 141 -113 141q-107 0 -127 -123h-395q10 99 55.5 172t118 115t158.5 62t188 20q141 0 234.5 -22.5t158.5 -79t94 -151.5t29 -239v-330q0 -180 25 -270h-377z
M719 438q-129 -7 -172 -18q-100 -28 -101 -105q0 -90 115 -90q76 0 117 45.5t41 135.5v32zM481 1487l123 -152l125 152h295l-207 -295h-428l-207 295h299z" />
    <glyph glyph-name="uni01CF" unicode="&#x1cf;" horiz-adv-x="643" 
d="M532 1487v-1487h-421v1487h421zM201 1878l125 -135l127 135h305l-215 -274h-443l-215 274h316z" />
    <glyph glyph-name="uni01D0" unicode="&#x1d0;" horiz-adv-x="575" 
d="M483 1057v-1057h-391v1057h391zM485 1192h-395l-182 295h274l107 -148l106 148h273z" />
    <glyph glyph-name="uni01D1" unicode="&#x1d1;" horiz-adv-x="1519" 
d="M760 1522q322 0 512 -214t190 -571q0 -354 -188.5 -563t-513.5 -209q-331 0 -517 204.5t-186 567.5q0 360 189 572.5t514 212.5zM760 1157q-129 0 -196.5 -105t-67.5 -309q0 -195 68.5 -306t195.5 -111q129 0 196.5 108.5t67.5 308.5q0 194 -69 304t-195 110zM639 1878
l125 -135l127 135h305l-215 -274h-442l-215 274h315z" />
    <glyph glyph-name="uni01D2" unicode="&#x1d2;" horiz-adv-x="1241" 
d="M625 1092q275 0 421 -154t146 -416q0 -259 -148.5 -408t-422.5 -149q-280 0 -426 149.5t-146 411.5q0 257 152 411.5t424 154.5zM621 799q-73 0 -117.5 -71.5t-44.5 -197.5q0 -128 43.5 -200t118.5 -72t118 71t43 199q0 123 -44.5 197t-116.5 74zM504 1487l123 -152
l125 152h295l-207 -295h-428l-207 295h299z" />
    <glyph glyph-name="uni01D3" unicode="&#x1d3;" horiz-adv-x="1441" 
d="M1346 586q0 -306 -157.5 -463.5t-463.5 -157.5q-303 0 -466 160t-163 459v903h422v-856q0 -164 46 -234.5t151 -70.5q106 0 157.5 72t51.5 233v856h422v-901zM606 1878l125 -135l127 135h305l-215 -274h-442l-215 274h315z" />
    <glyph glyph-name="uni01D4" unicode="&#x1d4;" horiz-adv-x="1232" 
d="M776 147q-55 -88 -134 -129t-189 -41q-229 0 -318 173q-31 56 -41 123.5t-10 213.5v570h391v-580q0 -110 30.5 -158.5t96.5 -48.5q45 0 81.5 29t49.5 76q17 47 17 200v482h391v-1057h-365v147zM496 1487l122 -152l125 152h295l-207 -295h-428l-206 295h299z" />
    <glyph glyph-name="Gcaron" unicode="&#x1e6;" horiz-adv-x="1486" 
d="M1038 150q-53 -90 -150.5 -135.5t-225.5 -45.5q-290 0 -446.5 206t-156.5 564q0 368 182.5 575.5t516.5 207.5q128 0 239 -31.5t200 -94t142.5 -166t59.5 -237.5h-443q-8 87 -63 140t-139 53q-122 0 -189 -118.5t-67 -317.5q0 -220 64.5 -337.5t193.5 -117.5
q108 0 173 63.5t72 194.5h-262v313h660v-866h-361v150zM637 1878l125 -135l127 135h305l-215 -274h-442l-215 274h315z" />
    <glyph glyph-name="gcaron" unicode="&#x1e7;" horiz-adv-x="1234" 
d="M473 -72q0 -57 40.5 -84.5t102.5 -27.5q152 0 152 235v164q-94 -166 -305 -166q-192 0 -300 134.5t-108 375.5q0 235 114.5 377.5t305.5 142.5q108 0 189.5 -48.5t119.5 -139.5v166h361v-922q0 -157 -33.5 -264t-104.5 -171t-172 -92t-247 -28q-230 0 -357.5 88
t-140.5 260h383zM610 780q-67 0 -106 -62t-39 -165q0 -99 38.5 -158t106.5 -59q69 0 108.5 61.5t39.5 167.5q0 99 -39.5 157t-108.5 58zM516 1487l123 -152l125 152h295l-207 -295h-428l-207 295h299z" />
    <glyph glyph-name="uni01E8" unicode="&#x1e8;" horiz-adv-x="1384" 
d="M532 1487q-5 -563 -8 -629l15 2l354 627h481l-444 -713l483 -774h-502l-372 680h-15q8 -383 8 -680h-421v1487h421zM584 1878l125 -135l127 135h305l-215 -274h-443l-215 274h316z" />
    <glyph glyph-name="uni01E9" unicode="&#x1e9;" horiz-adv-x="1169" 
d="M483 1487v-432q0 -262 -8 -393h19q31 75 109.5 212.5t101.5 182.5h452l-332 -490l381 -567h-473q-26 49 -78 141t-92 166.5t-69 141.5h-19q8 -150 8 -449h-391v1487h391zM-113 1878h293l111 -143l110 143h291l-188 -274h-428z" />
    <glyph glyph-name="uni01EA" unicode="&#x1ea;" horiz-adv-x="1519" 
d="M1087 31q-91 -48 -139.5 -88.5t-48.5 -83.5q0 -62 82 -62q31 0 82 17v-217q-61 -25 -168 -25q-122 0 -197 53.5t-75 143.5q0 116 118 196q-323 4 -503.5 209.5t-180.5 562.5q0 360 189 572.5t514 212.5q322 0 512 -214t190 -571q0 -251 -97 -432t-278 -274zM760 1157
q-129 0 -196.5 -105t-67.5 -309q0 -195 68.5 -306t195.5 -111q129 0 196.5 108.5t67.5 308.5q0 194 -69 304t-195 110z" />
    <glyph glyph-name="uni01EB" unicode="&#x1eb;" horiz-adv-x="1241" 
d="M621 -35q-280 0 -426 149.5t-146 411.5q0 257 152 411.5t424 154.5q275 0 421 -154t146 -416q0 -164 -59 -278.5t-183 -200.5q-119 -80 -152.5 -112t-33.5 -72q0 -27 22 -44.5t62 -17.5q33 0 84 17v-213q-63 -29 -170 -29q-123 0 -198 52.5t-75 142.5q0 112 134 198h-2z
M621 799q-73 0 -117.5 -71.5t-44.5 -197.5q0 -128 43.5 -200t118.5 -72t118 71t43 199q0 123 -44.5 197t-116.5 74z" />
    <glyph glyph-name="uni01F8" unicode="&#x1f8;" horiz-adv-x="1540" 
d="M1430 0h-613q-87 259 -127.5 383.5t-106 349t-98.5 383.5h-20q2 -115 7.5 -346t9 -424t3.5 -346h-374v1487h614q30 -95 113 -337t139 -423.5t90 -335.5h20q-3 108 -11.5 340t-13.5 416t-5 340h373v-1487zM319 1878h402l211 -274h-314z" />
    <glyph glyph-name="uni01F9" unicode="&#x1f9;" horiz-adv-x="1232" 
d="M457 909q108 170 325 170q110 0 192 -43.5t124 -128.5q30 -59 40.5 -128t10.5 -210v-569h-391v580q0 109 -31 157.5t-100 48.5q-88 0 -125 -106q-19 -53 -19 -199v-481h-391v1057h365v-148zM250 1487h389l201 -295h-308z" />
    <glyph glyph-name="Aringacute" unicode="&#x1fa;" horiz-adv-x="1560" 
d="M608 1487q-102 76 -102 205q0 80 41 140.5t110 90.5l166 244h367l-264 -254q61 -33 97 -91t36 -130q0 -127 -105 -205h107l508 -1487h-467l-74 260h-520l-76 -260h-440l508 1487h108zM758 1153q-22 -81 -76.5 -269t-81.5 -290h332q-98 335 -154 559h-20zM782 1579
q51 0 83 31t32 82t-32 81.5t-83 30.5t-82.5 -30.5t-31.5 -81.5t31.5 -82t82.5 -31z" />
    <glyph glyph-name="aringacute" unicode="&#x1fb;" horiz-adv-x="1202" 
d="M768 0q-7 38 -10 121q-85 -85 -156 -114.5t-182 -29.5q-173 0 -275 87t-102 233q0 183 163.5 270t512.5 92v46q0 141 -113 141q-107 0 -127 -123h-395q10 99 55.5 172t118 115t158.5 62t188 20q141 0 234.5 -22.5t158.5 -79t94 -151.5t29 -239v-330q0 -180 25 -270h-377z
M602 1145q-114 0 -191 70.5t-77 179.5q0 71 32.5 126.5t90.5 86.5l192 274h363l-281 -268q63 -32 101 -89.5t38 -129.5q0 -106 -78.5 -178t-189.5 -72zM719 438q-129 -7 -172 -18q-100 -28 -101 -105q0 -90 115 -90q76 0 117 45.5t41 135.5v32zM602 1288q47 0 78 30t31 77
t-30.5 76.5t-78.5 29.5q-47 0 -77.5 -29.5t-30.5 -76.5t30.5 -77t77.5 -30z" />
    <glyph glyph-name="AEacute" unicode="&#x1fc;" horiz-adv-x="2023" 
d="M1946 358v-358h-930l-33 285h-446l-113 -285h-440l616 1487h1344v-359h-644l25 -198h561v-359h-518l25 -213h553zM856 1139l-199 -506h283l-57 506h-27zM1079 1878h400l-303 -274h-310z" />
    <glyph glyph-name="aeacute" unicode="&#x1fd;" horiz-adv-x="1857" 
d="M580 1092q228 0 354 -123q144 121 348 121q98 0 183 -29.5t147 -81t106 -122t66 -153.5t22 -174q0 -59 -2 -98h-702q0 -93 40 -149t130 -56q107 0 139 99h389q-48 -175 -188 -267t-338 -92q-265 0 -412 174q-142 -168 -405 -168q-181 0 -295.5 82.5t-114.5 241.5
q0 80 32 141t86.5 101t137 67t173 40t204.5 18l43 2v39q0 135 -127 135q-126 0 -129 -119h-383q11 126 80.5 211t174.5 122.5t241 37.5zM561 217q74 0 118 49.5t44 128.5v60h-10q-129 0 -202 -38t-73 -104q0 -46 33.5 -71t89.5 -25zM1423 662q-1 77 -44 123t-111 46
q-71 0 -116 -47.5t-50 -121.5h321zM973 1487h385l-285 -295h-301z" />
    <glyph glyph-name="Oslashacute" unicode="&#x1fe;" horiz-adv-x="1519" 
d="M1288 1288q174 -211 174 -551q0 -354 -188.5 -563t-513.5 -209q-201 0 -357 86l-120 -168l-177 113l136 184q-185 207 -185 557q0 360 189 572.5t514 212.5q208 0 368 -97l125 172l172 -118zM756 1167q-142 0 -216.5 -109t-74.5 -319q0 -138 29 -221l428 596
q-71 53 -166 53zM758 315q146 0 221.5 110t75.5 310q0 107 -25 205l-426 -580q62 -45 154 -45zM760 1878h399l-303 -274h-309z" />
    <glyph glyph-name="oslashacute" unicode="&#x1ff;" horiz-adv-x="1251" 
d="M1042 946q162 -149 162 -416q0 -258 -155 -409.5t-422 -151.5q-165 0 -299 62l-109 -142l-131 95l111 139q-150 150 -150 403q0 257 156 409t422 152q154 0 280 -55l109 135l129 -94zM623 825q-187 0 -187 -303q0 -46 6 -84l281 359q-47 28 -100 28zM625 231
q91 0 141.5 72t50.5 221q0 69 -10 121l-291 -373q51 -41 109 -41zM633 1487h385l-285 -295h-301z" />
    <glyph glyph-name="uni0218" unicode="&#x218;" horiz-adv-x="1351" 
d="M500 479q5 -94 47.5 -137t134.5 -43q75 0 123.5 33.5t48.5 87.5q0 59 -52.5 90t-226.5 76q-164 42 -246 77t-141 91q-118 106 -118 303q0 212 159.5 338.5t434.5 126.5q160 0 290 -43t203 -121q58 -61 84.5 -139t26.5 -193h-447q-5 88 -42 125t-122 37q-66 0 -106.5 -30
t-40.5 -79q0 -64 63 -90q50 -25 224 -67q153 -40 237.5 -76t139.5 -88q124 -116 124 -316q0 -222 -169.5 -349.5t-466.5 -127.5q-303 0 -458 132t-155 382h451zM625 -371h-103v267h344v-263l-161 -223h-177z" />
    <glyph glyph-name="uni0219" unicode="&#x219;" horiz-adv-x="1183" 
d="M455 358q0 -76 33 -112.5t106 -36.5q59 0 93 21t34 57q0 25 -14.5 44.5t-35.5 31.5t-58.5 23.5t-68.5 18.5t-81.5 18t-83.5 19q-67 16 -118 37.5t-99 57t-73.5 90.5t-25.5 127q0 152 149.5 245t381.5 93q99 0 181.5 -16t157.5 -53.5t122 -109t57 -172.5h-401
q-12 107 -131 107q-53 0 -81 -21t-28 -53q0 -18 7.5 -32.5t27 -26.5t35 -19.5t51.5 -15.5l54 -12t64 -12q25 -5 38 -7q47 -9 80.5 -17.5t77.5 -23.5t75 -31.5t64 -43.5t52.5 -58.5t32.5 -76t13 -97.5q0 -155 -147 -245.5t-402 -90.5q-275 0 -409.5 97t-145.5 296h416z
M778 -367l-162 -223h-174l97 219h-103v267h342v-263z" />
    <glyph glyph-name="uni021A" unicode="&#x21a;" horiz-adv-x="1331" 
d="M20 1122v365h1291v-365h-434v-1122h-422v1122h-435zM594 -371h-102v267h344v-263l-162 -223h-176z" />
    <glyph glyph-name="uni021B" unicode="&#x21b;" horiz-adv-x="800" 
d="M758 0q-114 -12 -207 -12q-98 0 -165 17.5t-115.5 59t-71.5 113t-23 178.5v416h-162v285h162v289h391v-289h191v-285h-191v-293q0 -108 26.5 -147t98.5 -39q27 0 66 10v-303zM678 -367l-162 -223h-174l96 219h-102v267h342v-263z" />
    <glyph glyph-name="uni021E" unicode="&#x21e;" horiz-adv-x="1466" 
d="M532 1487v-535h402v535h422v-1487h-422v588h-402v-588h-421v1487h421zM610 1878l125 -135l127 135h305l-215 -274h-442l-215 274h315z" />
    <glyph glyph-name="uni021F" unicode="&#x21f;" horiz-adv-x="1232" 
d="M483 924q89 155 299 155q228 0 316 -172q30 -60 40.5 -128t10.5 -210v-569h-391v580q0 109 -31 157.5t-100 48.5q-88 0 -125 -106q-19 -53 -19 -199v-481h-391v1487h391v-563zM-113 1878h293l111 -143l110 143h291l-188 -274h-428z" />
    <glyph glyph-name="uni022E" unicode="&#x22e;" horiz-adv-x="1519" 
d="M760 1522q322 0 512 -214t190 -571q0 -354 -188.5 -563t-513.5 -209q-331 0 -517 204.5t-186 567.5q0 360 189 572.5t514 212.5zM760 1157q-129 0 -196.5 -105t-67.5 -309q0 -195 68.5 -306t195.5 -111q129 0 196.5 108.5t67.5 308.5q0 194 -69 304t-195 110zM559 1878
h410v-291h-410v291z" />
    <glyph glyph-name="uni022F" unicode="&#x22f;" horiz-adv-x="1241" 
d="M625 1092q275 0 421 -154t146 -416q0 -259 -148.5 -408t-422.5 -149q-280 0 -426 149.5t-146 411.5q0 257 152 411.5t424 154.5zM621 799q-73 0 -117.5 -71.5t-44.5 -197.5q0 -128 43.5 -200t118.5 -72t118 71t43 199q0 123 -44.5 197t-116.5 74zM426 1487h399v-322h-399
v322z" />
    <glyph glyph-name="uni0232" unicode="&#x232;" horiz-adv-x="1329" 
d="M883 0h-437v526l-456 961h481q22 -58 68.5 -172t80 -205t54.5 -172h14q25 107 98 308.5t86 240.5h469l-458 -957v-530zM344 1858h680v-250h-680v250z" />
    <glyph glyph-name="uni0233" unicode="&#x233;" horiz-adv-x="1167" 
d="M829 -18q-70 -222 -179.5 -312t-303.5 -90q-114 0 -211 17v284q36 -8 80 -8q139 0 139 129q0 34 -24 102l-334 953h446l93 -395l59 -314h20l60 314l96 395h391zM285 1450h637v-248h-637v248z" />
    <glyph glyph-name="uni0237" unicode="&#x237;" horiz-adv-x="575" 
d="M-104 -129q23 -6 61 -6q42 0 69.5 16.5t41.5 48.5t19 67.5t5 84.5v975h391v-1041q0 -226 -106.5 -331t-308.5 -105q-96 0 -172 17v274z" />
    <glyph glyph-name="uni0244" unicode="&#x244;" horiz-adv-x="1576" 
d="M1413 586q0 -306 -157 -463.5t-463 -157.5q-303 0 -466 160t-163 459v104h-127v277h127v522h422v-522h405v522h422v-522h127v-277h-127v-102zM782 326q106 0 157.5 72t51.5 233v57h-405v-57q0 -164 45.5 -234.5t150.5 -70.5z" />
    <glyph glyph-name="uni0259" unicode="&#x259;" horiz-adv-x="1247" 
d="M59 729q47 174 195.5 268.5t376.5 94.5q263 0 416 -151t153 -413q0 -246 -161.5 -404.5t-417.5 -158.5q-275 0 -421.5 159.5t-146.5 450.5q0 27 2 50h736q0 102 -45 154t-125 52q-99 0 -142 -102h-420zM461 397q12 -172 157 -172q68 0 115 48t55 124h-327z" />
    <glyph glyph-name="uni025B" unicode="&#x25b;" horiz-adv-x="1169" 
d="M565 -35q-247 0 -381.5 84t-134.5 242q0 99 53.5 160t173.5 90v8q-107 26 -155.5 80t-48.5 141q0 158 136.5 239t387.5 81q250 0 377.5 -99.5t146.5 -304.5h-362q-8 162 -160 162q-74 0 -110.5 -29t-36.5 -69q0 -97 141 -97h108v-241h-106q-158 0 -158 -105q0 -44 39 -70
t121 -26q174 0 182 176h361q-14 -214 -152 -318t-422 -104z" />
    <glyph glyph-name="uni0263" unicode="&#x263;" horiz-adv-x="1097" 
d="M936 -109q0 -311 -387 -311t-387 311q0 118 90 275l115 201l-414 690h393l205 -365l209 365h385l-412 -688l113 -203q90 -164 90 -275zM477 -125q0 -33 18 -54.5t54 -21.5t54 21.5t18 54.5q0 56 -72 186q-72 -130 -72 -186z" />
    <glyph glyph-name="uni0268" unicode="&#x268;" horiz-adv-x="759" 
d="M575 1057v-355h140v-233h-140v-469h-391v469h-139v233h139v355h391zM575 1487v-328h-391v328h391z" />
    <glyph glyph-name="uni0272" unicode="&#x272;" horiz-adv-x="1232" 
d="M1098 907q30 -59 40.5 -128t10.5 -210v-569h-391v580q0 109 -31 157.5t-100 48.5q-88 0 -125 -106q-19 -53 -19 -199v-489q0 -209 -107 -310.5t-308 -101.5q-96 0 -172 17v274q30 -6 61 -6q81 0 108 46t27 146v1000h365v-148q108 170 325 170q110 0 192 -43.5t124 -128.5
z" />
    <glyph glyph-name="uni0289" unicode="&#x289;" horiz-adv-x="1413" 
d="M43 702h129v355h391v-355h275v355h391v-355h139v-233h-139v-469h-365v147q-55 -88 -134 -129t-189 -41q-229 0 -318 173q-30 60 -40.5 123.5t-10.5 195.5h-129v233zM821 375q9 30 15 94h-273q1 -103 32 -151t95 -48q46 0 82.5 28.5t48.5 76.5z" />
    <glyph glyph-name="uni02BC" unicode="&#x2bc;" horiz-adv-x="440" 
d="M170 1253h-102v269h331v-265l-166 -256h-165z" />
    <glyph glyph-name="circumflex" unicode="&#x2c6;" horiz-adv-x="1196" 
d="M723 1192l-123 151l-125 -151h-295l207 295h428l207 -295h-299z" />
    <glyph glyph-name="caron" unicode="&#x2c7;" horiz-adv-x="1196" 
d="M479 1487l123 -152l125 152h295l-207 -295h-428l-207 295h299z" />
    <glyph glyph-name="uni02C9" unicode="&#x2c9;" horiz-adv-x="1148" 
d="M256 1450h637v-248h-637v248z" />
    <glyph glyph-name="breve" unicode="&#x2d8;" horiz-adv-x="1144" 
d="M571 1171q-179 0 -278.5 83.5t-104.5 232.5h281q0 -65 27.5 -96t74.5 -31q45 0 73.5 31.5t29.5 95.5h280q-5 -149 -104.5 -232.5t-278.5 -83.5z" />
    <glyph glyph-name="dotaccent" unicode="&#x2d9;" horiz-adv-x="1302" 
d="M451 1487h399v-322h-399v322z" />
    <glyph glyph-name="ring" unicode="&#x2da;" horiz-adv-x="1243" 
d="M623 1145q-114 0 -191.5 70.5t-77.5 179.5q0 113 77 181.5t192 68.5q112 0 190 -71.5t78 -178.5q0 -106 -78.5 -178t-189.5 -72zM623 1288q47 0 77.5 30t30.5 77t-30.5 76.5t-77.5 29.5q-48 0 -78.5 -29.5t-30.5 -76.5t31 -77t78 -30z" />
    <glyph glyph-name="ogonek" unicode="&#x2db;" horiz-adv-x="1249" 
d="M676 -428q-122 0 -196 54.5t-74 146.5q0 81 57 146.5t153 109.5l228 -29q-164 -65 -164 -141q0 -62 80 -62q39 0 84 15v-215q-61 -25 -168 -25z" />
    <glyph glyph-name="tilde" unicode="&#x2dc;" horiz-adv-x="1155" 
d="M180 1190q6 146 64.5 224.5t161.5 78.5q52 0 155 -40t148 -40q25 0 48 19.5t23 56.5h195q-6 -147 -63.5 -225t-161.5 -78q-53 0 -155.5 40t-148.5 40q-24 0 -46.5 -19t-22.5 -57h-197z" />
    <glyph glyph-name="hungarumlaut" unicode="&#x2dd;" horiz-adv-x="1327" 
d="M940 1487h356l-278 -295h-281zM457 1487h340l-254 -295h-269z" />
    <glyph glyph-name="gravecomb" unicode="&#x300;" horiz-adv-x="0" 
d="M-819 1487h389l201 -295h-308z" />
    <glyph glyph-name="acutecomb" unicode="&#x301;" horiz-adv-x="0" 
d="M-588 1487h385l-284 -295h-301z" />
    <glyph glyph-name="uni0302" unicode="&#x302;" horiz-adv-x="0" 
d="M-389 1192l-123 151l-125 -151h-295l207 295h428l207 -295h-299z" />
    <glyph glyph-name="tildecomb" unicode="&#x303;" horiz-adv-x="0" 
d="M-909 1190q6 146 64 224.5t161 78.5q52 0 155 -40t148 -40q25 0 48.5 19.5t23.5 56.5h194q-6 -147 -63.5 -225t-161.5 -78q-53 0 -155 40t-148 40q-24 0 -47 -19t-23 -57h-196z" />
    <glyph glyph-name="uni0304" unicode="&#x304;" horiz-adv-x="0" 
d="M-831 1450h636v-248h-636v248z" />
    <glyph glyph-name="uni0306" unicode="&#x306;" horiz-adv-x="0" 
d="M-516 1171q-179 0 -278.5 83.5t-104.5 232.5h281q0 -65 27.5 -96t74.5 -31q45 0 73 31t29 96h281q-5 -149 -104.5 -232.5t-278.5 -83.5z" />
    <glyph glyph-name="uni0307" unicode="&#x307;" horiz-adv-x="0" 
d="M-711 1487h400v-322h-400v322z" />
    <glyph glyph-name="uni0308" unicode="&#x308;" horiz-adv-x="0" 
d="M-434 1487h340v-309h-340v309zM-926 1487h340v-309h-340v309z" />
    <glyph glyph-name="uni030A" unicode="&#x30a;" horiz-adv-x="0" 
d="M-510 1145q-114 0 -191 70.5t-77 179.5q0 113 76.5 181.5t191.5 68.5q112 0 190 -71.5t78 -178.5q0 -106 -78.5 -178t-189.5 -72zM-510 1288q47 0 78 30t31 77t-30.5 76.5t-78.5 29.5q-47 0 -77.5 -29.5t-30.5 -76.5t30.5 -77t77.5 -30z" />
    <glyph glyph-name="uni030B" unicode="&#x30b;" horiz-adv-x="0" 
d="M-360 1487h356l-279 -295h-280zM-844 1487h340l-254 -295h-268z" />
    <glyph glyph-name="uni030C" unicode="&#x30c;" horiz-adv-x="0" 
d="M-633 1487l123 -152l125 152h295l-207 -295h-428l-207 295h299z" />
    <glyph glyph-name="uni0312" unicode="&#x312;" horiz-adv-x="0" 
d="M-682 1436l162 223h176l-111 -219h115v-281h-342v277z" />
    <glyph glyph-name="uni0313" unicode="&#x313;" horiz-adv-x="0" 
d="M-608 1253h-103v269h332v-265l-166 -256h-166z" />
    <glyph glyph-name="dotbelowcomb" unicode="&#x323;" horiz-adv-x="0" 
d="M-707 -104h392v-304h-392v304z" />
    <glyph glyph-name="uni0326" unicode="&#x326;" horiz-adv-x="0" 
d="M-340 -367l-162 -223h-174l96 219h-102v267h342v-263z" />
    <glyph glyph-name="uni0327" unicode="&#x327;" horiz-adv-x="0" 
d="M-465 -428q-98 0 -139 10v135q9 -4 55 -4q52 0 77.5 20t25.5 54q0 33 -20.5 54.5t-59.5 21.5q-23 0 -37 -2v159h194v-79q80 -4 120 -52.5t40 -111.5q0 -96 -73 -150.5t-183 -54.5z" />
    <glyph glyph-name="uni0328" unicode="&#x328;" horiz-adv-x="0" 
d="M-477 -428q-122 0 -196.5 54.5t-74.5 146.5q0 81 57.5 146.5t153.5 109.5l228 -29q-164 -65 -164 -141q0 -62 80 -62q39 0 84 15v-215q-61 -25 -168 -25z" />
    <glyph glyph-name="uni032E" unicode="&#x32e;" horiz-adv-x="0" 
d="M-518 -412q-179 0 -278.5 83.5t-104.5 232.5h280q0 -64 28 -95.5t75 -31.5q45 0 73 31t29 96h281q-5 -149 -104.5 -232.5t-278.5 -83.5z" />
    <glyph glyph-name="uni0331" unicode="&#x331;" horiz-adv-x="0" 
d="M-829 -127h636v-248h-636v248z" />
    <glyph glyph-name="uni037E" unicode="&#x37e;" horiz-adv-x="579" 
d="M498 1057v-414h-406v414h406zM92 33v381h406v-420l-176 -385h-238l131 424h-123z" />
    <glyph glyph-name="dieresistonos" unicode="&#x385;" horiz-adv-x="1638" 
d="M1030 1544l-108 -352h-273l13 352h368zM559 1487v-295h-326v295h326zM1405 1487v-295h-324v295h324z" />
    <glyph glyph-name="anoteleia" unicode="&#x387;" horiz-adv-x="569" 
d="M492 1079v-413h-410v413h410z" />
    <glyph glyph-name="uni0394" unicode="&#x394;" horiz-adv-x="1472" 
d="M457 1487h559l428 -1254v-233h-1417v233zM846 745q-14 52 -39 140t-43.5 156.5t-32.5 123.5h-16l-119 -417l-113 -412h475z" />
    <glyph glyph-name="Sigma" unicode="&#x3a3;" horiz-adv-x="1280" 
d="M82 340l387 401l-389 383v363h1114v-357h-369q-153 0 -237 7l354 -332v-57l-387 -402q88 12 268 12h400v-358h-1141v340z" />
    <glyph glyph-name="uni03A9" unicode="&#x3a9;" horiz-adv-x="1572" 
d="M76 842q0 197 85.5 350.5t247.5 240.5t377 87q162 0 295.5 -50.5t224.5 -140t141 -215t50 -272.5q0 -352 -231 -545h229v-295h-623v277q185 204 185 495q0 179 -67 282t-204 103t-203.5 -103t-66.5 -282q0 -57 7.5 -113t25.5 -124.5t57 -136t94 -121.5v-277h-622v295h229
q-231 193 -231 545z" />
    <glyph glyph-name="uni03BC" unicode="&#x3bc;" horiz-adv-x="1316" 
d="M483 1057v-580q0 -100 28 -153.5t101 -53.5q71 0 108.5 63t37.5 171v553h391v-695q0 -53 18 -73.5t56 -20.5q44 0 67 6v-272q-71 -18 -155 -18q-109 0 -178 23t-103 77l-14 22q-58 -118 -199 -118q-104 0 -158 57v-457h-391v1469h391z" />
    <glyph glyph-name="pi" unicode="&#x3c0;" horiz-adv-x="1443" 
d="M1184 -16q-77 0 -139 17.5t-112 54.5t-77 102.5t-27 154.5v443h-239v-756h-391v756h-158v301h1341v-301h-161v-379q0 -62 14.5 -85.5t62.5 -23.5q41 0 64 6v-272q-93 -18 -178 -18z" />
    <glyph glyph-name="uni1E02" unicode="&#x1e02;" horiz-adv-x="1351" 
d="M750 1487q520 0 520 -395q0 -127 -74.5 -211t-216.5 -119v-8q149 -12 233 -100.5t84 -235.5q0 -211 -142.5 -314.5t-436.5 -103.5h-606v1487h639zM643 324q120 0 172.5 34t52.5 107t-50 104t-171 31h-115v-276h111zM637 899q121 0 169 30.5t48 100.5q0 72 -47.5 102.5
t-163.5 30.5h-111v-264h105zM475 1878h410v-291h-410v291z" />
    <glyph glyph-name="uni1E03" unicode="&#x1e03;" horiz-adv-x="1234" 
d="M92 0v1487h391v-547q53 78 119 108.5t158 30.5q188 0 305 -148t117 -399q0 -260 -116.5 -407.5t-309.5 -147.5q-101 0 -174.5 40.5t-128.5 129.5v-147h-361zM614 786q-73 0 -115 -68t-42 -190q0 -128 40.5 -193t116.5 -65t117 66t41 194q0 125 -41.5 190.5t-116.5 65.5z
M596 1487h399v-322h-399v322z" />
    <glyph glyph-name="uni1E0A" unicode="&#x1e0a;" horiz-adv-x="1470" 
d="M719 1487q326 0 510 -197.5t184 -541.5q0 -127 -25.5 -237.5t-81.5 -205.5t-139 -162t-204.5 -105t-272.5 -38h-579v1487h608zM647 365q174 0 251 94.5t77 283.5q0 192 -76.5 285.5t-251.5 93.5h-115v-757h115zM547 1878h409v-291h-409v291z" />
    <glyph glyph-name="uni1E0B" unicode="&#x1e0b;" horiz-adv-x="1234" 
d="M782 147q-55 -89 -129 -129.5t-176 -40.5q-193 0 -308.5 147t-115.5 408q0 251 115.5 399t306.5 148q92 0 159 -30.5t118 -108.5v547h391v-1487h-361v147zM618 786q-74 0 -114.5 -65t-40.5 -191q0 -128 40.5 -194t114.5 -66q160 0 160 258q0 122 -43 190t-117 68z
M240 1487h399v-322h-399v322z" />
    <glyph glyph-name="uni1E0C" unicode="&#x1e0c;" horiz-adv-x="1470" 
d="M719 1487q326 0 510 -197.5t184 -541.5q0 -127 -25.5 -237.5t-81.5 -205.5t-139 -162t-204.5 -105t-272.5 -38h-579v1487h608zM647 365q174 0 251 94.5t77 283.5q0 192 -76.5 285.5t-251.5 93.5h-115v-757h115zM461 -104h401v-304h-401v304z" />
    <glyph glyph-name="uni1E0D" unicode="&#x1e0d;" horiz-adv-x="1234" 
d="M782 147q-55 -89 -129 -129.5t-176 -40.5q-193 0 -308.5 147t-115.5 408q0 251 115.5 399t306.5 148q92 0 159 -30.5t118 -108.5v547h391v-1487h-361v147zM618 786q-74 0 -114.5 -65t-40.5 -191q0 -128 40.5 -194t114.5 -66q160 0 160 258q0 122 -43 190t-117 68z
M365 -104h391v-304h-391v304z" />
    <glyph glyph-name="uni1E0E" unicode="&#x1e0e;" horiz-adv-x="1470" 
d="M719 1487q326 0 510 -197.5t184 -541.5q0 -127 -25.5 -237.5t-81.5 -205.5t-139 -162t-204.5 -105t-272.5 -38h-579v1487h608zM647 365q174 0 251 94.5t77 283.5q0 192 -76.5 285.5t-251.5 93.5h-115v-757h115zM299 -125h637v-250h-637v250z" />
    <glyph glyph-name="uni1E0F" unicode="&#x1e0f;" horiz-adv-x="1234" 
d="M782 147q-55 -89 -129 -129.5t-176 -40.5q-193 0 -308.5 147t-115.5 408q0 251 115.5 399t306.5 148q92 0 159 -30.5t118 -108.5v547h391v-1487h-361v147zM618 786q-74 0 -114.5 -65t-40.5 -191q0 -128 40.5 -194t114.5 -66q160 0 160 258q0 122 -43 190t-117 68z
M242 -127h637v-248h-637v248z" />
    <glyph glyph-name="uni1E10" unicode="&#x1e10;" horiz-adv-x="1470" 
d="M719 1487q326 0 510 -197.5t184 -541.5q0 -127 -25.5 -237.5t-81.5 -205.5t-139 -162t-204.5 -105t-272.5 -38h-579v1487h608zM647 365q174 0 251 94.5t77 283.5q0 192 -76.5 285.5t-251.5 93.5h-115v-757h115zM590 -371h-103v267h344v-263l-161 -223h-176z" />
    <glyph glyph-name="uni1E11" unicode="&#x1e11;" horiz-adv-x="1234" 
d="M782 147q-55 -89 -129 -129.5t-176 -40.5q-193 0 -308.5 147t-115.5 408q0 251 115.5 399t306.5 148q92 0 159 -30.5t118 -108.5v547h391v-1487h-361v147zM618 786q-74 0 -114.5 -65t-40.5 -191q0 -128 40.5 -194t114.5 -66q160 0 160 258q0 122 -43 190t-117 68z
M731 -367l-162 -223h-174l97 219h-103v267h342v-263z" />
    <glyph glyph-name="uni1E1E" unicode="&#x1e1e;" horiz-adv-x="1210" 
d="M1157 1487v-359h-625v-233h588v-358h-588v-537h-421v1487h1046zM453 1878h409v-291h-409v291z" />
    <glyph glyph-name="uni1E1F" unicode="&#x1e1f;" horiz-adv-x="776" 
d="M23 772v285h159v37q0 200 95.5 311t297.5 111q77 0 189 -23v-268q-42 10 -68 10q-57 0 -91 -35t-34 -106v-37h193v-285h-191v-772h-391v772h-159zM319 1878h396v-291h-396v291z" />
    <glyph glyph-name="uni1E20" unicode="&#x1e20;" horiz-adv-x="1486" 
d="M1038 150q-53 -90 -150.5 -135.5t-225.5 -45.5q-290 0 -446.5 206t-156.5 564q0 368 182.5 575.5t516.5 207.5q128 0 239 -31.5t200 -94t142.5 -166t59.5 -237.5h-443q-8 87 -63 140t-139 53q-122 0 -189 -118.5t-67 -317.5q0 -220 64.5 -337.5t193.5 -117.5
q108 0 173 63.5t72 194.5h-262v313h660v-866h-361v150zM422 1858h680v-250h-680v250z" />
    <glyph glyph-name="uni1E21" unicode="&#x1e21;" horiz-adv-x="1234" 
d="M473 -72q0 -57 40.5 -84.5t102.5 -27.5q152 0 152 235v164q-94 -166 -305 -166q-192 0 -300 134.5t-108 375.5q0 235 114.5 377.5t305.5 142.5q108 0 189.5 -48.5t119.5 -139.5v166h361v-922q0 -157 -33.5 -264t-104.5 -171t-172 -92t-247 -28q-230 0 -357.5 88
t-140.5 260h383zM610 780q-67 0 -106 -62t-39 -165q0 -99 38.5 -158t106.5 -59q69 0 108.5 61.5t39.5 167.5q0 99 -39.5 157t-108.5 58zM283 1450h637v-248h-637v248z" />
    <glyph glyph-name="uni1E22" unicode="&#x1e22;" horiz-adv-x="1466" 
d="M532 1487v-535h402v535h422v-1487h-422v588h-402v-588h-421v1487h421zM530 1878h410v-291h-410v291z" />
    <glyph glyph-name="uni1E23" unicode="&#x1e23;" horiz-adv-x="1232" 
d="M483 924q89 155 299 155q228 0 316 -172q30 -60 40.5 -128t10.5 -210v-569h-391v580q0 109 -31 157.5t-100 48.5q-88 0 -125 -106q-19 -53 -19 -199v-481h-391v1487h391v-563zM596 1487h399v-322h-399v322z" />
    <glyph glyph-name="uni1E24" unicode="&#x1e24;" horiz-adv-x="1466" 
d="M532 1487v-535h402v535h422v-1487h-422v588h-402v-588h-421v1487h421zM535 -104h401v-304h-401v304z" />
    <glyph glyph-name="uni1E25" unicode="&#x1e25;" horiz-adv-x="1232" 
d="M483 924q89 155 299 155q228 0 316 -172q30 -60 40.5 -128t10.5 -210v-569h-391v580q0 109 -31 157.5t-100 48.5q-88 0 -125 -106q-19 -53 -19 -199v-481h-391v1487h391v-563zM426 -104h391v-304h-391v304z" />
    <glyph glyph-name="uni1E2A" unicode="&#x1e2a;" horiz-adv-x="1466" 
d="M532 1487v-535h402v535h422v-1487h-422v588h-402v-588h-421v1487h421zM727 -412q-184 0 -283.5 83t-105.5 233h278q4 -69 32.5 -98t78.5 -29q100 0 111 127h278q-8 -150 -107.5 -233t-281.5 -83z" />
    <glyph glyph-name="uni1E2B" unicode="&#x1e2b;" horiz-adv-x="1232" 
d="M483 924q89 155 299 155q228 0 316 -172q30 -60 40.5 -128t10.5 -210v-569h-391v580q0 109 -31 157.5t-100 48.5q-88 0 -125 -106q-19 -53 -19 -199v-481h-391v1487h391v-563zM614 -412q-179 0 -278.5 83.5t-104.5 232.5h281q0 -65 27.5 -96t74.5 -31q45 0 73.5 31.5
t29.5 95.5h280q-5 -149 -104.5 -232.5t-278.5 -83.5z" />
    <glyph glyph-name="uni1E36" unicode="&#x1e36;" horiz-adv-x="1179" 
d="M532 1487v-1122h627v-365h-1048v1487h421zM444 -104h402v-304h-402v304z" />
    <glyph glyph-name="uni1E37" unicode="&#x1e37;" horiz-adv-x="575" 
d="M483 1487v-1487h-391v1487h391zM92 -104h391v-304h-391v304z" />
    <glyph glyph-name="uni1E38" unicode="&#x1e38;" horiz-adv-x="1179" 
d="M532 1487v-1122h627v-365h-1048v1487h421zM444 -104h402v-304h-402v304zM-16 1858h680v-250h-680v250z" />
    <glyph glyph-name="uni1E39" unicode="&#x1e39;" horiz-adv-x="575" 
d="M-6 1858h588v-250h-588v250zM483 1487v-1487h-391v1487h391zM92 -104h391v-304h-391v304z" />
    <glyph glyph-name="uni1E3A" unicode="&#x1e3a;" horiz-adv-x="1179" 
d="M532 1487v-1122h627v-365h-1048v1487h421zM324 -125h637v-250h-637v250z" />
    <glyph glyph-name="uni1E3B" unicode="&#x1e3b;" horiz-adv-x="575" 
d="M483 1487v-1487h-391v1487h391zM-6 -127h588v-248h-588v248z" />
    <glyph glyph-name="uni1E3E" unicode="&#x1e3e;" horiz-adv-x="2004" 
d="M487 1116q7 -431 7 -1116h-383v1487h698q8 -36 40.5 -188t47.5 -225t39.5 -198t40 -224.5t24.5 -188.5h21q12 109 35.5 256t42 247.5t54 281.5t46.5 239h694v-1487h-389q0 747 6 1116h-24q-41 -212 -130 -609t-112 -507h-493q-8 38 -103 467.5t-135 648.5h-27zM1079 1878
h400l-303 -274h-310z" />
    <glyph glyph-name="uni1E3F" unicode="&#x1e3f;" horiz-adv-x="1810" 
d="M457 930q115 149 311 149q112 0 175 -40t106 -130q108 170 321 170q203 0 299 -159q31 -54 44 -143.5t13 -250.5v-526h-391v592q0 104 -25.5 149t-82.5 45q-66 0 -94.5 -63t-28.5 -205v-518h-391v594q0 107 -23.5 149.5t-79.5 42.5q-66 0 -96.5 -63t-30.5 -199v-524h-391
v1057h365v-127zM993 1487h385l-284 -295h-301z" />
    <glyph glyph-name="uni1E40" unicode="&#x1e40;" horiz-adv-x="2004" 
d="M487 1116q7 -431 7 -1116h-383v1487h698q8 -36 40.5 -188t47.5 -225t39.5 -198t40 -224.5t24.5 -188.5h21q12 109 35.5 256t42 247.5t54 281.5t46.5 239h694v-1487h-389q0 747 6 1116h-24q-41 -212 -130 -609t-112 -507h-493q-8 38 -103 467.5t-135 648.5h-27zM809 1878
h410v-291h-410v291z" />
    <glyph glyph-name="uni1E41" unicode="&#x1e41;" horiz-adv-x="1810" 
d="M457 930q115 149 311 149q112 0 175 -40t106 -130q108 170 321 170q203 0 299 -159q31 -54 44 -143.5t13 -250.5v-526h-391v592q0 104 -25.5 149t-82.5 45q-66 0 -94.5 -63t-28.5 -205v-518h-391v594q0 107 -23.5 149.5t-79.5 42.5q-66 0 -96.5 -63t-30.5 -199v-524h-391
v1057h365v-127zM727 1487h399v-322h-399v322z" />
    <glyph glyph-name="uni1E42" unicode="&#x1e42;" horiz-adv-x="2004" 
d="M487 1116q7 -431 7 -1116h-383v1487h698q8 -36 40.5 -188t47.5 -225t39.5 -198t40 -224.5t24.5 -188.5h21q12 109 35.5 256t42 247.5t54 281.5t46.5 239h694v-1487h-389q0 747 6 1116h-24q-41 -212 -130 -609t-112 -507h-493q-8 38 -103 467.5t-135 648.5h-27zM811 -104
h401v-304h-401v304z" />
    <glyph glyph-name="uni1E43" unicode="&#x1e43;" horiz-adv-x="1810" 
d="M457 930q115 149 311 149q112 0 175 -40t106 -130q108 170 321 170q203 0 299 -159q31 -54 44 -143.5t13 -250.5v-526h-391v592q0 104 -25.5 149t-82.5 45q-66 0 -94.5 -63t-28.5 -205v-518h-391v594q0 107 -23.5 149.5t-79.5 42.5q-66 0 -96.5 -63t-30.5 -199v-524h-391
v1057h365v-127zM715 -104h391v-304h-391v304z" />
    <glyph glyph-name="uni1E44" unicode="&#x1e44;" horiz-adv-x="1540" 
d="M1430 0h-613q-87 259 -127.5 383.5t-106 349t-98.5 383.5h-20q2 -115 7.5 -346t9 -424t3.5 -346h-374v1487h614q30 -95 113 -337t139 -423.5t90 -335.5h20q-3 108 -11.5 340t-13.5 416t-5 340h373v-1487zM573 1878h410v-291h-410v291z" />
    <glyph glyph-name="uni1E45" unicode="&#x1e45;" horiz-adv-x="1232" 
d="M457 909q108 170 325 170q110 0 192 -43.5t124 -128.5q30 -59 40.5 -128t10.5 -210v-569h-391v580q0 109 -31 157.5t-100 48.5q-88 0 -125 -106q-19 -53 -19 -199v-481h-391v1057h365v-148zM502 1487h399v-322h-399v322z" />
    <glyph glyph-name="uni1E46" unicode="&#x1e46;" horiz-adv-x="1540" 
d="M1430 0h-613q-87 259 -127.5 383.5t-106 349t-98.5 383.5h-20q2 -115 7.5 -346t9 -424t3.5 -346h-374v1487h614q30 -95 113 -337t139 -423.5t90 -335.5h20q-3 108 -11.5 340t-13.5 416t-5 340h373v-1487zM567 -104h402v-304h-402v304z" />
    <glyph glyph-name="uni1E47" unicode="&#x1e47;" horiz-adv-x="1232" 
d="M457 909q108 170 325 170q110 0 192 -43.5t124 -128.5q30 -59 40.5 -128t10.5 -210v-569h-391v580q0 109 -31 157.5t-100 48.5q-88 0 -125 -106q-19 -53 -19 -199v-481h-391v1057h365v-148zM422 -104h391v-304h-391v304z" />
    <glyph glyph-name="uni1E48" unicode="&#x1e48;" horiz-adv-x="1540" 
d="M1430 0h-613q-87 259 -127.5 383.5t-106 349t-98.5 383.5h-20q2 -115 7.5 -346t9 -424t3.5 -346h-374v1487h614q30 -95 113 -337t139 -423.5t90 -335.5h20q-3 108 -11.5 340t-13.5 416t-5 340h373v-1487zM446 -125h637v-250h-637v250z" />
    <glyph glyph-name="uni1E49" unicode="&#x1e49;" horiz-adv-x="1232" 
d="M457 909q108 170 325 170q110 0 192 -43.5t124 -128.5q30 -59 40.5 -128t10.5 -210v-569h-391v580q0 109 -31 157.5t-100 48.5q-88 0 -125 -106q-19 -53 -19 -199v-481h-391v1057h365v-148zM299 -127h637v-248h-637v248z" />
    <glyph glyph-name="uni1E56" unicode="&#x1e56;" horiz-adv-x="1335" 
d="M717 1487q175 0 305.5 -54t207.5 -171t77 -287q0 -257 -155.5 -385.5t-434.5 -128.5h-185v-461h-421v1487h606zM647 815q125 0 177.5 35.5t52.5 124.5q0 87 -53.5 123.5t-176.5 36.5h-115v-320h115zM479 1878h410v-291h-410v291z" />
    <glyph glyph-name="uni1E57" unicode="&#x1e57;" horiz-adv-x="1234" 
d="M453 909q55 87 129 128.5t174 41.5q193 0 309.5 -147.5t116.5 -407.5q0 -254 -116.5 -400.5t-305.5 -146.5q-91 0 -157.5 31t-119.5 107v-527h-391v1469h361v-148zM614 270q75 0 116.5 65.5t41.5 190.5q0 128 -41 194t-117 66t-116.5 -65t-40.5 -193q0 -122 42 -190
t115 -68zM455 1487h399v-322h-399v322z" />
    <glyph glyph-name="uni1E5A" unicode="&#x1e5a;" horiz-adv-x="1361" 
d="M705 1487q149 0 243 -25t166 -80q71 -56 108.5 -136.5t37.5 -172.5q0 -88 -34.5 -167t-110 -137t-179.5 -69v-16q55 -3 97 -20.5t70.5 -42.5t52.5 -69t39 -85t34 -105l106 -362h-448l-45 201q-16 73 -27 116.5t-26 81.5t-28.5 56.5t-35.5 32t-46.5 17t-62.5 3.5h-84v-508
h-421v1487h594zM637 846q213 0 213 147q0 78 -50 112t-163 34h-105v-293h105zM502 -104h401v-304h-401v304z" />
    <glyph glyph-name="uni1E5B" unicode="&#x1e5b;" horiz-adv-x="897" 
d="M455 1057v-178q54 104 126.5 147t190.5 43q40 0 105 -12v-344q-61 12 -105 12q-96 0 -155.5 -26.5t-94.5 -88.5q-23 -43 -31 -99t-8 -179v-332h-391v1057h363zM84 -104h391v-304h-391v304z" />
    <glyph glyph-name="uni1E5C" unicode="&#x1e5c;" horiz-adv-x="1361" 
d="M705 1487q149 0 243 -25t166 -80q71 -56 108.5 -136.5t37.5 -172.5q0 -88 -34.5 -167t-110 -137t-179.5 -69v-16q55 -3 97 -20.5t70.5 -42.5t52.5 -69t39 -85t34 -105l106 -362h-448l-45 201q-16 73 -27 116.5t-26 81.5t-28.5 56.5t-35.5 32t-46.5 17t-62.5 3.5h-84v-508
h-421v1487h594zM637 846q213 0 213 147q0 78 -50 112t-163 34h-105v-293h105zM502 -104h401v-304h-401v304zM324 1858h680v-250h-680v250z" />
    <glyph glyph-name="uni1E5D" unicode="&#x1e5d;" horiz-adv-x="897" 
d="M455 1057v-178q54 104 126.5 147t190.5 43q40 0 105 -12v-344q-61 12 -105 12q-96 0 -155.5 -26.5t-94.5 -88.5q-23 -43 -31 -99t-8 -179v-332h-391v1057h363zM84 -104h391v-304h-391v304zM168 1450h637v-248h-637v248z" />
    <glyph glyph-name="uni1E5E" unicode="&#x1e5e;" horiz-adv-x="1361" 
d="M705 1487q149 0 243 -25t166 -80q71 -56 108.5 -136.5t37.5 -172.5q0 -88 -34.5 -167t-110 -137t-179.5 -69v-16q55 -3 97 -20.5t70.5 -42.5t52.5 -69t39 -85t34 -105l106 -362h-448l-45 201q-16 73 -27 116.5t-26 81.5t-28.5 56.5t-35.5 32t-46.5 17t-62.5 3.5h-84v-508
h-421v1487h594zM637 846q213 0 213 147q0 78 -50 112t-163 34h-105v-293h105zM381 -125h637v-250h-637v250z" />
    <glyph glyph-name="uni1E5F" unicode="&#x1e5f;" horiz-adv-x="897" 
d="M455 1057v-178q54 104 126.5 147t190.5 43q40 0 105 -12v-344q-61 12 -105 12q-96 0 -155.5 -26.5t-94.5 -88.5q-23 -43 -31 -99t-8 -179v-332h-391v1057h363zM-14 -127h587v-248h-587v248z" />
    <glyph glyph-name="uni1E60" unicode="&#x1e60;" horiz-adv-x="1351" 
d="M500 479q5 -94 47.5 -137t134.5 -43q75 0 123.5 33.5t48.5 87.5q0 59 -52.5 90t-226.5 76q-164 42 -246 77t-141 91q-118 106 -118 303q0 212 159.5 338.5t434.5 126.5q160 0 290 -43t203 -121q58 -61 84.5 -139t26.5 -193h-447q-5 88 -42 125t-122 37q-66 0 -106.5 -30
t-40.5 -79q0 -64 63 -90q50 -25 224 -67q153 -40 237.5 -76t139.5 -88q124 -116 124 -316q0 -222 -169.5 -349.5t-466.5 -127.5q-303 0 -458 132t-155 382h451zM463 1878h409v-291h-409v291z" />
    <glyph glyph-name="uni1E61" unicode="&#x1e61;" horiz-adv-x="1183" 
d="M455 358q0 -76 33 -112.5t106 -36.5q59 0 93 21t34 57q0 25 -14.5 44.5t-35.5 31.5t-58.5 23.5t-68.5 18.5t-81.5 18t-83.5 19q-67 16 -118 37.5t-99 57t-73.5 90.5t-25.5 127q0 152 149.5 245t381.5 93q99 0 181.5 -16t157.5 -53.5t122 -109t57 -172.5h-401
q-12 107 -131 107q-53 0 -81 -21t-28 -53q0 -18 7.5 -32.5t27 -26.5t35 -19.5t51.5 -15.5l54 -12t64 -12q25 -5 38 -7q47 -9 80.5 -17.5t77.5 -23.5t75 -31.5t64 -43.5t52.5 -58.5t32.5 -76t13 -97.5q0 -155 -147 -245.5t-402 -90.5q-275 0 -409.5 97t-145.5 296h416z
M393 1487h400v-322h-400v322z" />
    <glyph glyph-name="uni1E62" unicode="&#x1e62;" horiz-adv-x="1351" 
d="M500 479q5 -94 47.5 -137t134.5 -43q75 0 123.5 33.5t48.5 87.5q0 59 -52.5 90t-226.5 76q-164 42 -246 77t-141 91q-118 106 -118 303q0 212 159.5 338.5t434.5 126.5q160 0 290 -43t203 -121q58 -61 84.5 -139t26.5 -193h-447q-5 88 -42 125t-122 37q-66 0 -106.5 -30
t-40.5 -79q0 -64 63 -90q50 -25 224 -67q153 -40 237.5 -76t139.5 -88q124 -116 124 -316q0 -222 -169.5 -349.5t-466.5 -127.5q-303 0 -458 132t-155 382h451zM465 -104h401v-304h-401v304z" />
    <glyph glyph-name="uni1E63" unicode="&#x1e63;" horiz-adv-x="1183" 
d="M455 358q0 -76 33 -112.5t106 -36.5q59 0 93 21t34 57q0 25 -14.5 44.5t-35.5 31.5t-58.5 23.5t-68.5 18.5t-81.5 18t-83.5 19q-67 16 -118 37.5t-99 57t-73.5 90.5t-25.5 127q0 152 149.5 245t381.5 93q99 0 181.5 -16t157.5 -53.5t122 -109t57 -172.5h-401
q-12 107 -131 107q-53 0 -81 -21t-28 -53q0 -18 7.5 -32.5t27 -26.5t35 -19.5t51.5 -15.5l54 -12t64 -12q25 -5 38 -7q47 -9 80.5 -17.5t77.5 -23.5t75 -31.5t64 -43.5t52.5 -58.5t32.5 -76t13 -97.5q0 -155 -147 -245.5t-402 -90.5q-275 0 -409.5 97t-145.5 296h416z
M399 -104h392v-304h-392v304z" />
    <glyph glyph-name="uni1E6A" unicode="&#x1e6a;" horiz-adv-x="1331" 
d="M20 1122v365h1291v-365h-434v-1122h-422v1122h-435zM473 1878h410v-291h-410v291z" />
    <glyph glyph-name="uni1E6B" unicode="&#x1e6b;" horiz-adv-x="800" 
d="M758 0q-114 -12 -207 -12q-98 0 -165 17.5t-115.5 59t-71.5 113t-23 178.5v416h-162v285h162v289h391v-289h191v-285h-191v-293q0 -108 26.5 -147t98.5 -39q27 0 66 10v-303zM174 1761h395v-313h-395v313z" />
    <glyph glyph-name="uni1E6C" unicode="&#x1e6c;" horiz-adv-x="1331" 
d="M20 1122v365h1291v-365h-434v-1122h-422v1122h-435zM469 -104h401v-304h-401v304z" />
    <glyph glyph-name="uni1E6D" unicode="&#x1e6d;" horiz-adv-x="800" 
d="M758 0q-114 -12 -207 -12q-98 0 -165 17.5t-115.5 59t-71.5 113t-23 178.5v416h-162v285h162v289h391v-289h191v-285h-191v-293q0 -108 26.5 -147t98.5 -39q27 0 66 10v-303zM266 -104h391v-304h-391v304z" />
    <glyph glyph-name="uni1E6E" unicode="&#x1e6e;" horiz-adv-x="1331" 
d="M20 1122v365h1291v-365h-434v-1122h-422v1122h-435zM348 -125h637v-250h-637v250z" />
    <glyph glyph-name="uni1E6F" unicode="&#x1e6f;" horiz-adv-x="800" 
d="M758 0q-114 -12 -207 -12q-98 0 -165 17.5t-115.5 59t-71.5 113t-23 178.5v416h-162v285h162v289h391v-289h191v-285h-191v-293q0 -108 26.5 -147t98.5 -39q27 0 66 10v-303zM168 -127h588v-248h-588v248z" />
    <glyph glyph-name="uni1E7C" unicode="&#x1e7c;" horiz-adv-x="1394" 
d="M461 1487l170 -750l65 -329h21l67 323l177 756h432l-412 -1487h-567l-412 1487h459zM313 1581q1 144 62 220.5t162 76.5q63 0 164.5 -37t129.5 -37q36 0 57 19.5t21 54.5h189q0 -139 -60 -218t-161 -79q-63 0 -164.5 36t-132.5 36q-78 0 -78 -72h-189z" />
    <glyph glyph-name="uni1E7D" unicode="&#x1e7d;" horiz-adv-x="1179" 
d="M434 1057l88 -383q34 -146 62 -326h20l62 314l90 395h418l-320 -1057h-528l-318 1057h426zM197 1190q6 146 64 224.5t161 78.5q52 0 155 -40t148 -40q25 0 48.5 19.5t23.5 56.5h194q-6 -147 -63.5 -225t-161.5 -78q-53 0 -155 40t-148 40q-24 0 -47 -19t-23 -57h-196z
" />
    <glyph glyph-name="Wgrave" unicode="&#x1e80;" horiz-adv-x="2076" 
d="M1204 0l-137 1061h-20l-175 -1061h-581l-268 1487h423l146 -1079h20q13 146 43 335l123 744h559l131 -744q26 -153 50 -335h20l131 1079h385l-270 -1487h-580zM653 1878h402l211 -274h-314z" />
    <glyph glyph-name="wgrave" unicode="&#x1e81;" horiz-adv-x="1843" 
d="M1200 1057q98 -454 137 -715h21q26 247 94 715h375l-232 -1057h-540q-4 23 -24.5 124.5t-29 147.5t-23.5 130.5t-26 156t-20 141.5h-21q-41 -291 -125 -700h-540l-230 1057h404q49 -300 92 -715h20q27 181 142 715h526zM524 1487h389l201 -295h-307z" />
    <glyph glyph-name="Wacute" unicode="&#x1e82;" horiz-adv-x="2076" 
d="M1204 0l-137 1061h-20l-175 -1061h-581l-268 1487h423l146 -1079h20q13 146 43 335l123 744h559l131 -744q26 -153 50 -335h20l131 1079h385l-270 -1487h-580zM1055 1878h399l-303 -274h-309z" />
    <glyph glyph-name="wacute" unicode="&#x1e83;" horiz-adv-x="1843" 
d="M1200 1057q98 -454 137 -715h21q26 247 94 715h375l-232 -1057h-540q-4 23 -24.5 124.5t-29 147.5t-23.5 130.5t-26 156t-20 141.5h-21q-41 -291 -125 -700h-540l-230 1057h404q49 -300 92 -715h20q27 181 142 715h526zM928 1487h385l-285 -295h-301z" />
    <glyph glyph-name="Wdieresis" unicode="&#x1e84;" horiz-adv-x="2076" 
d="M1204 0l-137 1061h-20l-175 -1061h-581l-268 1487h423l146 -1079h20q13 146 43 335l123 744h559l131 -744q26 -153 50 -335h20l131 1079h385l-270 -1487h-580zM1124 1878h349v-295h-349v295zM633 1878h346v-295h-346v295z" />
    <glyph glyph-name="wdieresis" unicode="&#x1e85;" horiz-adv-x="1843" 
d="M1200 1057q98 -454 137 -715h21q26 247 94 715h375l-232 -1057h-540q-4 23 -24.5 124.5t-29 147.5t-23.5 130.5t-26 156t-20 141.5h-21q-41 -291 -125 -700h-540l-230 1057h404q49 -300 92 -715h20q27 181 142 715h526zM995 1487h340v-309h-340v309zM504 1487h340v-309
h-340v309z" />
    <glyph glyph-name="uni1E8A" unicode="&#x1e8a;" horiz-adv-x="1423" 
d="M1442 0h-510q-34 61 -73.5 142t-93 198t-58.5 127h-17q-8 -17 -45.5 -98t-61 -131t-59 -120.5t-61.5 -117.5h-488l455 772l-401 715h501q91 -170 191 -422h18q105 266 189 422h477l-406 -699zM524 1878h410v-291h-410v291z" />
    <glyph glyph-name="uni1E8B" unicode="&#x1e8b;" horiz-adv-x="1148" 
d="M23 1057h442q68 -162 115 -305h20q52 162 105 305h421l-272 -504l313 -553h-446q-115 251 -143 332h-19q-26 -78 -139 -332h-438l315 553zM389 1487h399v-322h-399v322z" />
    <glyph glyph-name="uni1E92" unicode="&#x1e92;" horiz-adv-x="1267" 
d="M315 686q3 4 57 67.5t83 96.5t80 91.5t93.5 104.5t78.5 82l-9 11q-202 -11 -610 -11v359h1096v-369l-260 -315q-210 -263 -375 -445l6 -12q244 12 664 12v-358h-1162v371zM438 -104h402v-304h-402v304z" />
    <glyph glyph-name="uni1E93" unicode="&#x1e93;" horiz-adv-x="1114" 
d="M45 289q38 37 126 123t138.5 135t124 115t133.5 114l-8 6q-110 -10 -315 -10h-174v285h972v-287q-43 -41 -127.5 -123.5t-137.5 -133t-126.5 -116.5t-134.5 -114l4 -9q108 9 342 9h219v-283h-1036v289zM369 -104h391v-304h-391v304z" />
    <glyph glyph-name="uni1E97" unicode="&#x1e97;" horiz-adv-x="800" 
d="M758 0q-114 -12 -207 -12q-98 0 -165 17.5t-115.5 59t-71.5 113t-23 178.5v416h-162v285h162v289h391v-289h191v-285h-191v-293q0 -108 26.5 -147t98.5 -39q27 0 66 10v-303zM444 1761h301v-315h-301v315zM57 1761h301v-315h-301v315z" />
    <glyph glyph-name="Germandbls" unicode="&#x1e9e;" horiz-adv-x="1699" 
d="M983 455q4 -86 41.5 -127t95.5 -41q66 0 96.5 29.5t30.5 80.5q0 46 -80 91q-21 11 -104 51q-50 24 -89.5 46t-86 57t-77.5 72t-52 88t-21 107q0 66 41 123t127 84v14h-373v-1130h-421v1487h1325v-340q-101 -19 -153 -49t-52 -82q0 -61 36 -99.5t115 -82.5q33 -19 45 -26
t44 -27.5t45.5 -32.5t40 -35.5t39 -42.5t30.5 -48t26 -58t14.5 -66t6.5 -78q0 -211 -153 -333t-422 -122q-258 0 -388.5 127.5t-113.5 362.5h387z" />
    <glyph glyph-name="uni1EA0" unicode="&#x1ea0;" horiz-adv-x="1560" 
d="M1061 1487l508 -1487h-467l-74 260h-520l-76 -260h-440l508 1487h561zM758 1153q-22 -81 -76.5 -269t-81.5 -290h332q-98 335 -154 559h-20zM567 -104h402v-304h-402v304z" />
    <glyph glyph-name="uni1EA1" unicode="&#x1ea1;" horiz-adv-x="1202" 
d="M768 0q-7 38 -10 121q-85 -85 -156 -114.5t-182 -29.5q-173 0 -275 87t-102 233q0 183 163.5 270t512.5 92v46q0 141 -113 141q-107 0 -127 -123h-395q10 99 55.5 172t118 115t158.5 62t188 20q141 0 234.5 -22.5t158.5 -79t94 -151.5t29 -239v-330q0 -180 25 -270h-377z
M719 438q-129 -7 -172 -18q-100 -28 -101 -105q0 -90 115 -90q76 0 117 45.5t41 135.5v32zM408 -104h391v-304h-391v304z" />
    <glyph glyph-name="uni1EB8" unicode="&#x1eb8;" horiz-adv-x="1239" 
d="M1159 1487v-359h-627v-198h570v-359h-570v-213h627v-358h-1048v1487h1048zM436 -104h402v-304h-402v304z" />
    <glyph glyph-name="uni1EB9" unicode="&#x1eb9;" horiz-adv-x="1243" 
d="M1188 328q-47 -174 -195.5 -268.5t-376.5 -94.5q-263 0 -416 150.5t-153 412.5q0 246 162 405t418 159q275 0 421 -160t146 -451q0 -26 -2 -49h-735q0 -102 45 -154.5t125 -52.5q97 0 141 103h420zM786 659q-12 172 -157 172q-68 0 -115 -48t-55 -124h327zM424 -104h391
v-304h-391v304z" />
    <glyph glyph-name="uni1EBC" unicode="&#x1ebc;" horiz-adv-x="1239" 
d="M1159 1487v-359h-627v-198h570v-359h-570v-213h627v-358h-1048v1487h1048zM262 1581q1 144 61.5 220.5t161.5 76.5q63 0 165 -37t130 -37q36 0 57 19.5t21 54.5h189q0 -139 -60.5 -218t-161.5 -79q-63 0 -164.5 36t-132.5 36q-77 0 -77 -72h-189z" />
    <glyph glyph-name="uni1EBD" unicode="&#x1ebd;" horiz-adv-x="1243" 
d="M1188 328q-47 -174 -195.5 -268.5t-376.5 -94.5q-263 0 -416 150.5t-153 412.5q0 246 162 405t418 159q275 0 421 -160t146 -451q0 -26 -2 -49h-735q0 -102 45 -154.5t125 -52.5q97 0 141 103h420zM786 659q-12 172 -157 172q-68 0 -115 -48t-55 -124h327zM229 1190
q6 146 64.5 224.5t161.5 78.5q52 0 155 -40t148 -40q25 0 48 19.5t23 56.5h195q-6 -147 -63.5 -225t-161.5 -78q-53 0 -155 40t-148 40q-24 0 -47 -19t-23 -57h-197z" />
    <glyph glyph-name="uni1ECA" unicode="&#x1eca;" horiz-adv-x="643" 
d="M532 1487v-1487h-421v1487h421zM121 -104h401v-304h-401v304z" />
    <glyph glyph-name="uni1ECB" unicode="&#x1ecb;" horiz-adv-x="575" 
d="M483 1057v-1057h-391v1057h391zM483 1487v-328h-391v328h391zM92 -104h391v-304h-391v304z" />
    <glyph glyph-name="uni1ECC" unicode="&#x1ecc;" horiz-adv-x="1519" 
d="M760 1522q322 0 512 -214t190 -571q0 -354 -188.5 -563t-513.5 -209q-331 0 -517 204.5t-186 567.5q0 360 189 572.5t514 212.5zM760 1157q-129 0 -196.5 -105t-67.5 -309q0 -195 68.5 -306t195.5 -111q129 0 196.5 108.5t67.5 308.5q0 194 -69 304t-195 110zM561 -104
h402v-304h-402v304z" />
    <glyph glyph-name="uni1ECD" unicode="&#x1ecd;" horiz-adv-x="1241" 
d="M625 1092q275 0 421 -154t146 -416q0 -259 -148.5 -408t-422.5 -149q-280 0 -426 149.5t-146 411.5q0 257 152 411.5t424 154.5zM621 799q-73 0 -117.5 -71.5t-44.5 -197.5q0 -128 43.5 -200t118.5 -72t118 71t43 199q0 123 -44.5 197t-116.5 74zM426 -104h391v-304h-391
v304z" />
    <glyph glyph-name="uni1EE4" unicode="&#x1ee4;" horiz-adv-x="1441" 
d="M1346 586q0 -306 -157.5 -463.5t-463.5 -157.5q-303 0 -466 160t-163 459v903h422v-856q0 -164 46 -234.5t151 -70.5q106 0 157.5 72t51.5 233v856h422v-901zM528 -104h402v-304h-402v304z" />
    <glyph glyph-name="uni1EE5" unicode="&#x1ee5;" horiz-adv-x="1232" 
d="M776 147q-55 -88 -134 -129t-189 -41q-229 0 -318 173q-31 56 -41 123.5t-10 213.5v570h391v-580q0 -110 30.5 -158.5t96.5 -48.5q45 0 81.5 29t49.5 76q17 47 17 200v482h391v-1057h-365v147zM408 -104h391v-304h-391v304z" />
    <glyph glyph-name="Ygrave" unicode="&#x1ef2;" horiz-adv-x="1329" 
d="M883 0h-437v526l-456 961h481q22 -58 68.5 -172t80 -205t54.5 -172h14q25 107 98 308.5t86 240.5h469l-458 -957v-530zM279 1878h401l211 -274h-313z" />
    <glyph glyph-name="ygrave" unicode="&#x1ef3;" horiz-adv-x="1167" 
d="M829 -18q-70 -222 -179.5 -312t-303.5 -90q-114 0 -211 17v284q36 -8 80 -8q139 0 139 129q0 34 -24 102l-334 953h446l93 -395l59 -314h20l60 314l96 395h391zM207 1487h389l201 -295h-308z" />
    <glyph glyph-name="uni1EF8" unicode="&#x1ef8;" horiz-adv-x="1329" 
d="M883 0h-437v526l-456 961h481q22 -58 68.5 -172t80 -205t54.5 -172h14q25 107 98 308.5t86 240.5h469l-458 -957v-530zM287 1581q1 144 61.5 220.5t161.5 76.5q63 0 165 -37t130 -37q36 0 57 19.5t21 54.5h188q0 -139 -60 -218t-161 -79q-63 0 -164.5 36t-132.5 36
q-78 0 -78 -72h-188z" />
    <glyph glyph-name="uni1EF9" unicode="&#x1ef9;" horiz-adv-x="1167" 
d="M829 -18q-70 -222 -179.5 -312t-303.5 -90q-114 0 -211 17v284q36 -8 80 -8q139 0 139 129q0 34 -24 102l-334 953h446l93 -395l59 -314h20l60 314l96 395h391zM207 1190q6 146 64 224.5t161 78.5q52 0 155 -40t148 -40q25 0 48.5 19.5t23.5 56.5h194q-6 -147 -63.5 -225
t-161.5 -78q-53 0 -155 40t-148 40q-24 0 -47 -19t-23 -57h-196z" />
    <glyph glyph-name="uni2000" unicode="&#x2000;" horiz-adv-x="1024" 
 />
    <glyph glyph-name="uni2001" unicode="&#x2001;" horiz-adv-x="2048" 
 />
    <glyph glyph-name="uni2002" unicode="&#x2002;" horiz-adv-x="1024" 
 />
    <glyph glyph-name="uni2003" unicode="&#x2003;" horiz-adv-x="2048" 
 />
    <glyph glyph-name="uni2004" unicode="&#x2004;" horiz-adv-x="681" 
 />
    <glyph glyph-name="uni2005" unicode="&#x2005;" horiz-adv-x="512" 
 />
    <glyph glyph-name="uni2006" unicode="&#x2006;" horiz-adv-x="342" 
 />
    <glyph glyph-name="uni2007" unicode="&#x2007;" 
 />
    <glyph glyph-name="uni2008" unicode="&#x2008;" horiz-adv-x="569" 
 />
    <glyph glyph-name="uni2009" unicode="&#x2009;" horiz-adv-x="256" 
 />
    <glyph glyph-name="uni200A" unicode="&#x200a;" horiz-adv-x="86" 
 />
    <glyph glyph-name="uni200B" unicode="&#x200b;" horiz-adv-x="0" 
 />
    <glyph glyph-name="figuredash" unicode="&#x2012;" 
d="M1096 735v-313h-901v313h901z" />
    <glyph glyph-name="endash" unicode="&#x2013;" horiz-adv-x="1077" 
d="M989 735v-313h-901v313h901z" />
    <glyph glyph-name="emdash" unicode="&#x2014;" horiz-adv-x="1650" 
d="M1563 735v-313h-1475v313h1475z" />
    <glyph glyph-name="uni2015" unicode="&#x2015;" horiz-adv-x="1650" 
d="M1563 735v-313h-1475v313h1475z" />
    <glyph glyph-name="quoteleft" unicode="&#x2018;" horiz-adv-x="524" 
d="M449 1128v-362h-381v381l141 340h240l-134 -359h134z" />
    <glyph glyph-name="quoteright" unicode="&#x2019;" horiz-adv-x="514" 
d="M76 1124v363h381v-381l-142 -340h-239l133 358h-133z" />
    <glyph glyph-name="quotesinglbase" unicode="&#x201a;" horiz-adv-x="540" 
d="M80 0v362h381v-380l-142 -340h-239l133 358h-133z" />
    <glyph glyph-name="quotereversed" unicode="&#x201b;" horiz-adv-x="514" 
d="M438 766h-239l-142 340v381h381v-363h-133z" />
    <glyph glyph-name="quotedblleft" unicode="&#x201c;" horiz-adv-x="974" 
d="M899 1128v-362h-381v383l141 338h240l-133 -359h133zM449 1128v-362h-381v383l143 338h238l-134 -359h134z" />
    <glyph glyph-name="quotedblright" unicode="&#x201d;" horiz-adv-x="964" 
d="M76 1124v363h381v-383l-142 -338h-239l133 358h-133zM526 1124v363h381v-383l-143 -338h-238l133 358h-133z" />
    <glyph glyph-name="quotedblbase" unicode="&#x201e;" horiz-adv-x="991" 
d="M80 0v362h381v-382l-142 -338h-239l133 358h-133zM530 0v362h381v-382l-143 -338h-238l134 358h-134z" />
    <glyph glyph-name="uni201F" unicode="&#x201f;" horiz-adv-x="964" 
d="M889 766h-240l-141 338v383h381v-363h-133zM438 766h-237l-144 338v383h381v-363h-133z" />
    <glyph glyph-name="dagger" unicode="&#x2020;" horiz-adv-x="1181" 
d="M43 795v325h336v367h409v-367h351v-325h-351v-795h-409v795h-336z" />
    <glyph glyph-name="daggerdbl" unicode="&#x2021;" horiz-adv-x="1251" 
d="M78 795v325h336v367h409v-367h351v-325h-351v-355h351v-325h-351v-351h-409v351h-336v325h336v355h-336z" />
    <glyph glyph-name="bullet" unicode="&#x2022;" horiz-adv-x="714" 
d="M618 725q0 -115 -73.5 -189.5t-186.5 -74.5q-116 0 -189 74t-73 190t72.5 188t189.5 72q113 0 186.5 -73t73.5 -187z" />
    <glyph glyph-name="ellipsis" unicode="&#x2026;" horiz-adv-x="1675" 
d="M489 414v-414h-409v414h409zM1042 414v-414h-409v414h409zM1595 414v-414h-409v414h409z" />
    <glyph glyph-name="perthousand" unicode="&#x2030;" horiz-adv-x="2828" 
d="M313 997q0 -237 107 -237q104 0 104 237q0 236 -104 236q-107 0 -107 -236zM786 997q0 -213 -93.5 -321.5t-272.5 -108.5q-180 0 -274.5 108.5t-94.5 321.5q0 212 94.5 321t274.5 109q178 0 272 -109t94 -321zM1487 1427l-756 -1456h-229l753 1456h232zM1466 401
q0 -237 107 -237q104 0 104 237q0 236 -104 236q-107 0 -107 -236zM1939 401q0 -213 -93.5 -321.5t-272.5 -108.5q-180 0 -274.5 108.5t-94.5 321.5q0 212 94.5 321t274.5 109q178 0 272 -109t94 -321zM2304 401q0 -237 106 -237q105 0 105 237q0 236 -105 236
q-106 0 -106 -236zM2777 401q0 -213 -94 -321.5t-273 -108.5q-180 0 -274 108t-94 322q0 212 94 321t274 109q178 0 272.5 -109t94.5 -321z" />
    <glyph glyph-name="minute" unicode="&#x2032;" horiz-adv-x="462" 
d="M408 1399l-78 -721h-195l-80 721h353z" />
    <glyph glyph-name="second" unicode="&#x2033;" horiz-adv-x="909" 
d="M406 1399l-78 -721h-193l-80 721h351zM854 1399l-78 -721h-194l-78 721h350z" />
    <glyph glyph-name="guilsinglleft" unicode="&#x2039;" horiz-adv-x="626" 
d="M575 963l-196 -416l196 -414h-313l-225 414l225 416h313z" />
    <glyph glyph-name="guilsinglright" unicode="&#x203a;" horiz-adv-x="626" 
d="M365 133h-314l197 414l-197 416h314l225 -416z" />
    <glyph glyph-name="fraction" unicode="&#x2044;" horiz-adv-x="368" 
d="M672 1427l-756 -1456h-229l753 1456h232z" />
    <glyph glyph-name="uni2070" unicode="&#x2070;" horiz-adv-x="837" 
d="M313 1380q0 -237 107 -237q104 0 104 237q0 236 -104 236q-107 0 -107 -236zM786 1380q0 -213 -93.5 -321.5t-272.5 -108.5q-180 0 -274.5 108.5t-94.5 321.5q0 212 94.5 321t274.5 109q178 0 272 -109t94 -321z" />
    <glyph glyph-name="uni2074" unicode="&#x2074;" horiz-adv-x="829" 
d="M35 1145v190l307 447h315v-447h136v-190h-136v-166h-258v166h-364zM408 1559q-16 -31 -39 -67t-36 -55t-41.5 -58.5t-31.5 -43.5h158v224h-10z" />
    <glyph glyph-name="uni2075" unicode="&#x2075;" horiz-adv-x="800" 
d="M315 1591l-10 -108q64 45 160 45q114 0 202.5 -74t88.5 -199q0 -143 -96.5 -224t-266.5 -81q-152 0 -245 71t-93 198h254q9 -84 90 -84q42 0 68.5 31.5t26.5 84.5q0 49 -27 76t-70 27q-66 0 -88 -70l-254 14l43 484h619v-191h-402z" />
    <glyph glyph-name="uni2076" unicode="&#x2076;" horiz-adv-x="796" 
d="M473 1550q-11 70 -76 70q-43 0 -68.5 -40t-25.5 -116q67 56 160 56q123 0 204 -71.5t81 -186.5q0 -140 -96 -226t-251 -86q-184 0 -266 102.5t-82 319.5q0 216 93 327t272 111q298 0 311 -260h-256zM401 1350q-38 0 -62 -27.5t-24 -75.5q0 -54 22.5 -83t63.5 -29
q84 0 84 112q0 47 -23 75t-61 28z" />
    <glyph glyph-name="uni2077" unicode="&#x2077;" horiz-adv-x="714" 
d="M152 979q72 342 254 612h-375v191h651v-172q-113 -164 -167 -290.5t-97 -340.5h-266z" />
    <glyph glyph-name="uni2078" unicode="&#x2078;" horiz-adv-x="794" 
d="M397 1303q-40 0 -65 -24t-25 -60t24 -59t66 -23t66 22.5t24 59.5q0 36 -25 60t-65 24zM397 950q-164 0 -255 60t-91 180q0 71 41 124t115 79v8q-77 29 -109 69t-32 107q0 109 88.5 171t242.5 62t243 -62t89 -171q0 -63 -33 -106t-106 -72v-6q70 -31 111.5 -82.5
t41.5 -120.5q0 -120 -91 -180t-255 -60zM397 1632q-40 0 -63 -22t-23 -56q0 -36 22 -56.5t64 -20.5t64 20.5t22 56.5q0 34 -23 56t-63 22z" />
    <glyph glyph-name="uni2079" unicode="&#x2079;" horiz-adv-x="788" 
d="M303 1214q5 -35 26.5 -56t53.5 -21q50 0 76 40t26 134q-75 -60 -151 -60q-134 0 -206.5 75.5t-72.5 182.5q0 119 88 210t242 91q184 0 267 -104t83 -322q0 -226 -81 -330t-269 -104q-150 0 -237 66t-99 198h254zM389 1624q-39 0 -62.5 -27.5t-23.5 -74.5t25.5 -73
t60.5 -26q37 0 62.5 26t25.5 73q0 46 -25 74t-63 28z" />
    <glyph glyph-name="uni2080" unicode="&#x2080;" horiz-adv-x="837" 
d="M313 100q0 -237 107 -237q104 0 104 237q0 236 -104 236q-107 0 -107 -236zM786 100q0 -213 -93.5 -321.5t-272.5 -108.5q-180 0 -274.5 108.5t-94.5 321.5q0 212 94.5 321t274.5 109q178 0 272 -109t94 -321z" />
    <glyph glyph-name="uni2081" unicode="&#x2081;" horiz-adv-x="575" 
d="M31 195v161q46 0 76.5 2.5t60 11t46.5 24.5t27.5 42.5t10.5 65.5h244v-803h-254v496h-211z" />
    <glyph glyph-name="uni2082" unicode="&#x2082;" horiz-adv-x="796" 
d="M51 -301v61q0 66 23.5 119.5t61 89t83 64.5t91 53.5t83 49.5t61 58.5t23.5 73.5q0 35 -21.5 56.5t-56.5 21.5q-43 0 -66.5 -31t-27.5 -102h-254q2 154 90.5 235.5t264.5 81.5q165 0 249 -66.5t84 -180.5q0 -58 -22 -106t-64 -86t-83 -66t-101 -65t-96 -64v-7h366v-190
h-688z" />
    <glyph glyph-name="uni2083" unicode="&#x2083;" horiz-adv-x="811" 
d="M303 -27q0 -58 26 -88t72 -30q43 0 70 23.5t27 58.5q0 37 -28 54t-89 17h-43v187h47q59 0 81.5 15.5t22.5 53.5q0 74 -88 74q-96 0 -96 -115h-254q0 153 91.5 230t258.5 77q347 0 347 -235q0 -54 -39.5 -110t-96.5 -70v-6q58 -8 102 -60.5t44 -118.5q0 -127 -91 -193.5
t-257 -66.5q-184 0 -273.5 71t-89.5 232h256z" />
    <glyph glyph-name="uni2084" unicode="&#x2084;" horiz-adv-x="829" 
d="M35 -135v190l307 447h315v-447h136v-190h-136v-166h-258v166h-364zM408 279q-16 -31 -39 -67t-36 -55t-41.5 -58.5t-31.5 -43.5h158v224h-10z" />
    <glyph glyph-name="uni2085" unicode="&#x2085;" horiz-adv-x="800" 
d="M315 311l-10 -108q64 45 160 45q114 0 202.5 -74t88.5 -199q0 -143 -96.5 -224t-266.5 -81q-152 0 -245 71t-93 198h254q9 -84 90 -84q42 0 68.5 31.5t26.5 84.5q0 49 -27 76t-70 27q-66 0 -88 -70l-254 14l43 484h619v-191h-402z" />
    <glyph glyph-name="uni2086" unicode="&#x2086;" horiz-adv-x="796" 
d="M473 270q-11 70 -76 70q-43 0 -68.5 -40t-25.5 -116q67 56 160 56q123 0 204 -71.5t81 -186.5q0 -140 -96 -226t-251 -86q-184 0 -266 102.5t-82 319.5q0 216 93 327t272 111q298 0 311 -260h-256zM401 70q-38 0 -62 -27.5t-24 -75.5q0 -54 22.5 -83t63.5 -29
q84 0 84 112q0 47 -23 75t-61 28z" />
    <glyph glyph-name="uni2087" unicode="&#x2087;" horiz-adv-x="714" 
d="M152 -301q72 342 254 612h-375v191h651v-172q-113 -164 -167 -290.5t-97 -340.5h-266z" />
    <glyph glyph-name="uni2088" unicode="&#x2088;" horiz-adv-x="794" 
d="M397 23q-40 0 -65 -24t-25 -60t24 -59t66 -23t66 22.5t24 59.5q0 36 -25 60t-65 24zM397 -330q-164 0 -255 60t-91 180q0 71 41 124t115 79v8q-77 29 -109 69t-32 107q0 109 88.5 171t242.5 62t243 -62t89 -171q0 -63 -33 -106t-106 -72v-6q70 -31 111.5 -82.5
t41.5 -120.5q0 -120 -91 -180t-255 -60zM397 352q-40 0 -63 -22t-23 -56q0 -36 22 -56.5t64 -20.5t64 20.5t22 56.5q0 34 -23 56t-63 22z" />
    <glyph glyph-name="uni2089" unicode="&#x2089;" horiz-adv-x="788" 
d="M303 -66q5 -35 26.5 -56t53.5 -21q50 0 76 40t26 134q-75 -60 -151 -60q-134 0 -206.5 75.5t-72.5 182.5q0 119 88 210t242 91q184 0 267 -104t83 -322q0 -226 -81 -330t-269 -104q-150 0 -237 66t-99 198h254zM389 344q-39 0 -62.5 -27.5t-23.5 -74.5t25.5 -73t60.5 -26
q37 0 62.5 26t25.5 73q0 46 -25 74t-63 28z" />
    <glyph glyph-name="colonmonetary" unicode="&#x20a1;" horiz-adv-x="1280" 
d="M1233 516q-20 -368 -285 -493l-20 -230h-250l16 172h-18q-30 0 -84 4l-17 -176h-249l22 248q-289 166 -289 653q0 256 91 430t260 248l20 209h250l-14 -156h10q46 0 92 -6l14 162h250l-22 -242q206 -137 221 -460h-348q0 110 -62.5 171.5t-140.5 61.5q-111 0 -179.5 -101
t-68.5 -317q0 -210 69 -312.5t179 -102.5q93 0 146 61t59 176h348z" />
    <glyph glyph-name="uni20A6" unicode="&#x20a6;" horiz-adv-x="1368" 
d="M160 616v142h-86v219h86v422h491l209 -979h17q-37 327 -37 647v332h368v-422h86v-219h-86v-142h86v-219h-86v-397h-491l-209 979h-16q36 -321 36 -647v-332h-368v397h-86v219h86z" />
    <glyph glyph-name="Euro" unicode="&#x20ac;" horiz-adv-x="1357" 
d="M1311 475q-11 -109 -48.5 -197t-90.5 -145.5t-122 -96t-140 -55t-148 -16.5q-513 0 -596 518h-117l17 168h84v43v35h-101l17 168h100q44 254 198 391t398 137q103 0 195 -31t167 -91.5t124 -159t61 -223.5h-338q-11 96 -70.5 144t-134.5 48q-87 0 -145.5 -47.5
t-85.5 -167.5h307l-17 -168h-309v-35v-43h301l-16 -168h-264q50 -204 229 -204q90 0 145.5 54.5t61.5 141.5h338z" />
    <glyph glyph-name="uni20B2" unicode="&#x20b2;" horiz-adv-x="1275" 
d="M788 1585v-166q172 -30 280.5 -147t131.5 -320h-377q-8 74 -52 121t-114 47q-223 0 -223 -428q0 -422 225 -422q96 0 152.5 62.5t56.5 187.5h-225v281h557v-801h-295v150q-41 -76 -117 -123v-234h-253v178q-230 12 -356 200.5t-126 510.5q0 309 126.5 501.5t355.5 235.5
v166h253z" />
    <glyph glyph-name="uni20B4" unicode="&#x20b4;" horiz-adv-x="1366" 
d="M776 653h539v-180h-750q-43 -52 -43 -108q0 -58 45 -90.5t115 -32.5q86 0 131 32t55 113h406q-18 -108 -69.5 -190t-130 -132t-177 -75t-215.5 -25q-166 0 -291.5 40t-198.5 122.5t-73 198.5q0 82 47 147h-117v180h326q44 25 176 88l29 15h-531v180h758q29 44 29 88
q0 62 -37.5 96.5t-104.5 34.5q-79 0 -120.5 -32.5t-53.5 -106.5h-391q30 206 177.5 310t391.5 104q250 0 394.5 -96.5t144.5 -260.5q0 -70 -41 -137h119v-180h-340z" />
    <glyph glyph-name="uni20B5" unicode="&#x20b5;" horiz-adv-x="1280" 
d="M1233 516q-11 -240 -127.5 -375t-300.5 -166v-182h-275v187q-233 41 -352 221.5t-119 492.5q0 299 123.5 484t347.5 233v172h275v-168q196 -33 306 -167t120 -369h-348q0 110 -62.5 171.5t-140.5 61.5q-111 0 -179.5 -101t-68.5 -317q0 -210 69 -312.5t179 -102.5
q93 0 146 61t59 176h348z" />
    <glyph glyph-name="uni20B8" unicode="&#x20b8;" horiz-adv-x="1345" 
d="M51 768v334h1243v-334h-409v-768h-424v768h-410zM1294 1399v-199h-1243v199h1243z" />
    <glyph glyph-name="uni20B9" unicode="&#x20b9;" horiz-adv-x="1302" 
d="M659 1030q-65 100 -245 100h-365v269h1202v-244h-227q39 -66 49 -125h170v-239h-203q-81 -188 -268 -213v-13q60 -4 105 -25t76 -59t49.5 -76t37.5 -92l103 -313h-449l-65 248q-26 95 -71.5 135.5t-141.5 40.5h-252v268h248q185 0 250 99h-605v239h602z" />
    <glyph glyph-name="uni20BA" unicode="&#x20ba;" horiz-adv-x="1277" 
d="M86 905l102 60v432h387v-203l254 149v-235l-254 -150v-108l254 149v-235l-254 -150v-249h54q135 0 190 77.5t76 262.5h342q0 -156 -35.5 -278t-97 -201.5t-149.5 -131t-186 -73t-214 -21.5h-367v387l-102 -59v233l102 60v110l-102 -59v233z" />
    <glyph glyph-name="uni20BD" unicode="&#x20bd;" horiz-adv-x="1441" 
d="M221 754v645h551q143 0 256.5 -26t197 -78.5t128.5 -137t45 -196.5q0 -150 -80 -250.5t-218 -146.5t-329 -46h-129v-110h428v-220h-428v-188h-422v188h-143v220h143v110h-143v236h143zM643 809h86q117 0 182.5 33.5t65.5 118.5q0 80 -64.5 110.5t-183.5 30.5h-86v-293z
" />
    <glyph glyph-name="uni20BF" unicode="&#x20bf;" horiz-adv-x="1249" 
d="M262 1399v174h234v-174h151v174h234v-195q147 -31 214.5 -118t67.5 -240q0 -236 -282 -301v-8q149 -12 233 -96t84 -224q0 -161 -75.5 -251t-241.5 -122v-225h-234v207h-151v-207h-234v207h-160v1399h160zM602 299q109 0 155 31t46 100t-45.5 104t-151.5 35h-114v-270
h110zM596 836q109 0 150.5 31t41.5 100q0 74 -39.5 103.5t-146.5 29.5h-110v-264h104z" />
    <glyph glyph-name="uni2113" unicode="&#x2113;" horiz-adv-x="1017" 
d="M989 152q-69 -69 -191 -126t-218 -57q-177 0 -261.5 96.5t-101.5 309.5l-119 -68l-63 201q98 56 180 108v385q0 101 31.5 184t85 135.5t122 81t144.5 28.5q146 0 242 -77t96 -214q0 -65 -10 -118.5t-33 -99.5t-48 -81t-67.5 -75t-78 -70t-92.5 -77.5t-99 -85.5
q0 -166 30 -236.5t113 -70.5q121 0 232 121zM506 827q41 34 64.5 57.5t48 57t35 72.5t10.5 88q0 51 -19 79.5t-47 28.5q-92 0 -92 -180v-203z" />
    <glyph glyph-name="uni2116" unicode="&#x2116;" horiz-adv-x="2463" 
d="M2370 563v-188h-730v188h730zM2005 664q-194 0 -302 108t-108 318q0 208 106 314.5t304 106.5t304 -106.5t106 -314.5q0 -210 -108.5 -318t-301.5 -108zM2005 836q83 0 129.5 66t46.5 188q0 121 -46.5 185t-129.5 64t-129.5 -64t-46.5 -185q0 -122 46.5 -188t129.5 -66z
M1432 0h-613q-87 259 -127.5 383.5t-106 349t-98.5 383.5h-20q2 -115 7.5 -346t9 -424t3.5 -346h-374v1487h614q30 -95 113 -337t139 -423.5t90 -335.5h21q-3 114 -12 341.5t-14 413t-5 341.5h373v-1487z" />
    <glyph glyph-name="uni2117" unicode="&#x2117;" horiz-adv-x="1654" 
d="M858 1190q154 0 247 -73.5t93 -211.5q0 -297 -373 -297h-92v-307h-205v889h330zM817 758q80 0 127 34.5t47 106.5q0 139 -172 139h-86v-280h84zM227 741q0 -129 49 -244.5t131 -197t192 -129t228 -47.5t228 47.5t192 129t131 197t49 244.5q0 172 -83.5 314.5
t-220.5 221.5t-296 79t-296 -79t-220.5 -221.5t-83.5 -314.5zM53 741q0 212 101 389t279 280t394 103q162 0 306 -60.5t247 -164t162.5 -246t59.5 -301.5q0 -213 -101 -391t-279.5 -281.5t-394.5 -103.5t-394 103.5t-279 281.5t-101 391z" />
    <glyph glyph-name="trademark" unicode="&#x2122;" horiz-adv-x="1892" 
d="M516 1300v-616h-250v616h-225v187h700v-187h-225zM1305 1016h12l94 471h373v-803h-228l5 477h-19l-106 -477h-254l-129 477h-17l4 -477h-221v803h373z" />
    <glyph glyph-name="estimated" unicode="&#x212e;" horiz-adv-x="1157" 
d="M268 186q141 -153 338 -153q223 0 352 166l50 -45q-73 -96 -171 -137.5t-233 -41.5q-155 0 -280 74t-194 200t-69 277q0 152 69 278.5t194 200.5t280 74q148 0 266 -74.5t183 -204t65 -290.5h-850v-324zM915 870q-126 150 -323 150q-186 0 -324 -150v-301h647v301z" />
    <glyph glyph-name="uni2150" unicode="&#x2150;" horiz-adv-x="1658" 
d="M31 1092v161q46 0 76.5 2.5t60 11t46.5 24.5t27.5 42.5t10.5 65.5h244v-803h-254v496h-211zM1247 1427l-755 -1456h-230l754 1456h231zM1096 0q72 342 254 612h-375v191h651v-172q-113 -164 -167 -290.5t-97 -340.5h-266z" />
    <glyph glyph-name="uni2151" unicode="&#x2151;" horiz-adv-x="1714" 
d="M31 1092v161q46 0 76.5 2.5t60 11t46.5 24.5t27.5 42.5t10.5 65.5h244v-803h-254v496h-211zM1247 1427l-755 -1456h-230l754 1456h231zM1229 236q5 -35 26.5 -56.5t53.5 -21.5q50 0 76 40t26 134q-75 -60 -151 -60q-134 0 -206.5 75.5t-72.5 182.5q0 119 88 210t242 91
q184 0 267 -103.5t83 -321.5q0 -226 -81 -330.5t-269 -104.5q-150 0 -237 66.5t-99 198.5h254zM1315 645q-39 0 -62.5 -27.5t-23.5 -74.5t25.5 -73t60.5 -26q37 0 62.5 26t25.5 73q0 46 -25 74t-63 28z" />
    <glyph glyph-name="uni2152" unicode="&#x2152;" horiz-adv-x="2357" 
d="M31 1092v161q46 0 76.5 2.5t60 11t46.5 24.5t27.5 42.5t10.5 65.5h244v-803h-254v496h-211zM1247 1427l-755 -1456h-230l754 1456h231zM975 496v161q46 0 76.5 2.5t60 11t46.5 24.5t27.5 42.5t10.5 65.5h244v-803h-254v496h-211zM1833 401q0 -237 106 -237q105 0 105 237
q0 236 -105 236q-106 0 -106 -236zM2306 401q0 -213 -94 -321.5t-273 -108.5q-180 0 -274 108t-94 322q0 212 94 321t274 109q178 0 272.5 -109t94.5 -321z" />
    <glyph glyph-name="onethird" unicode="&#x2153;" horiz-adv-x="1755" 
d="M31 1092v161q46 0 76.5 2.5t60 11t46.5 24.5t27.5 42.5t10.5 65.5h244v-803h-254v496h-211zM1247 1427l-755 -1456h-230l754 1456h231zM1247 274q0 -58 26.5 -88t72.5 -30q42 0 69 23t27 59q0 37 -28 54t-89 17h-43v187h47q59 0 82 16t23 53q0 74 -88 74q-97 0 -97 -115
h-254q0 152 91.5 229.5t259.5 77.5q346 0 346 -235q0 -54 -39.5 -110t-96.5 -70v-6q58 -8 102 -60.5t44 -118.5q0 -127 -91 -193.5t-257 -66.5q-184 0 -273.5 71t-89.5 232h256z" />
    <glyph glyph-name="twothirds" unicode="&#x2154;" horiz-adv-x="1976" 
d="M51 596v61q0 66 23.5 119.5t61 89t83 64.5t91 53.5t83 49.5t61 58.5t23.5 73.5q0 35 -21.5 56.5t-56.5 21.5q-43 0 -66.5 -31t-27.5 -102h-254q2 154 90.5 235.5t264.5 81.5q165 0 249 -66.5t84 -180.5q0 -58 -22 -106t-64 -86t-83 -66t-101 -65t-96 -64v-7h366v-190
h-688zM1468 1427l-755 -1456h-230l754 1456h231zM1468 274q0 -58 26.5 -88t72.5 -30q42 0 69 23t27 59q0 37 -28 54t-89 17h-43v187h47q59 0 82 16t23 53q0 74 -88 74q-97 0 -97 -115h-253q0 153 91.5 230t258.5 77q346 0 346 -235q0 -54 -39 -110t-96 -70v-6
q58 -8 101.5 -60.5t43.5 -118.5q0 -127 -91 -193.5t-257 -66.5q-184 0 -273.5 71t-89.5 232h256z" />
    <glyph glyph-name="uni2155" unicode="&#x2155;" horiz-adv-x="1744" 
d="M31 1092v161q46 0 76.5 2.5t60 11t46.5 24.5t27.5 42.5t10.5 65.5h244v-803h-254v496h-211zM1247 1427l-755 -1456h-230l754 1456h231zM1260 612l-11 -108q64 45 160 45q114 0 202.5 -74t88.5 -199q0 -143 -96.5 -224t-266.5 -81q-152 0 -245 71t-93 198h254
q9 -84 90 -84q42 0 68.5 31.5t26.5 84.5q0 49 -27 76t-70 27q-66 0 -88 -70l-254 14l43 484h619v-191h-401z" />
    <glyph glyph-name="uni2156" unicode="&#x2156;" horiz-adv-x="1966" 
d="M51 596v61q0 66 23.5 119.5t61 89t83 64.5t91 53.5t83 49.5t61 58.5t23.5 73.5q0 35 -21.5 56.5t-56.5 21.5q-43 0 -66.5 -31t-27.5 -102h-254q2 154 90.5 235.5t264.5 81.5q165 0 249 -66.5t84 -180.5q0 -58 -22 -106t-64 -86t-83 -66t-101 -65t-96 -64v-7h366v-190
h-688zM1468 1427l-755 -1456h-230l754 1456h231zM1481 612l-11 -108q64 45 160 45q114 0 202.5 -74t88.5 -199q0 -143 -96 -224t-266 -81q-152 0 -245 71t-93 198h254q9 -84 90 -84q42 0 68 31.5t26 84.5q0 49 -26.5 76t-69.5 27q-66 0 -88 -70l-254 14l43 484h618v-191
h-401z" />
    <glyph glyph-name="uni2157" unicode="&#x2157;" horiz-adv-x="1980" 
d="M303 870q0 -58 26 -88t72 -30q43 0 70 23.5t27 58.5q0 37 -28 54t-89 17h-43v187h47q59 0 81.5 15.5t22.5 53.5q0 74 -88 74q-96 0 -96 -115h-254q0 153 91.5 230t258.5 77q347 0 347 -235q0 -54 -39.5 -110t-96.5 -70v-6q58 -8 102 -60.5t44 -118.5q0 -127 -91 -193.5
t-257 -66.5q-184 0 -273.5 71t-89.5 232h256zM1483 1427l-756 -1456h-229l753 1456h232zM1495 612l-10 -108q64 45 160 45q114 0 202 -74t88 -199q0 -143 -96 -224t-266 -81q-152 0 -245 71t-93 198h254q9 -84 90 -84q42 0 68 31.5t26 84.5q0 49 -26.5 76t-69.5 27
q-66 0 -88 -70l-254 14l43 484h618v-191h-401z" />
    <glyph glyph-name="uni2158" unicode="&#x2158;" horiz-adv-x="1998" 
d="M35 762v190l307 447h315v-447h136v-190h-136v-166h-258v166h-364zM408 1176q-16 -31 -39 -67t-36 -55t-41.5 -58.5t-31.5 -43.5h158v224h-10zM1501 1427l-756 -1456h-229l754 1456h231zM1513 612l-10 -108q64 45 160 45q114 0 202.5 -74t88.5 -199q0 -143 -96.5 -224
t-266.5 -81q-152 0 -245 71t-93 198h254q9 -84 90 -84q42 0 68.5 31.5t26.5 84.5q0 49 -27 76t-70 27q-66 0 -88 -70l-254 14l43 484h619v-191h-402z" />
    <glyph glyph-name="uni2159" unicode="&#x2159;" horiz-adv-x="1710" 
d="M31 1092v161q46 0 76.5 2.5t60 11t46.5 24.5t27.5 42.5t10.5 65.5h244v-803h-254v496h-211zM1247 1427l-755 -1456h-230l754 1456h231zM1386 571q-11 70 -75 70q-43 0 -68.5 -40t-25.5 -116q67 56 159 56q123 0 204 -71.5t81 -186.5q0 -140 -95.5 -226t-250.5 -86
q-184 0 -266 102.5t-82 319.5q0 216 92.5 327t271.5 111q298 0 311 -260h-256zM1315 371q-38 0 -62 -27.5t-24 -75.5q0 -54 22.5 -83t63.5 -29q84 0 84 112q0 47 -23 75t-61 28z" />
    <glyph glyph-name="uni215A" unicode="&#x215a;" horiz-adv-x="1935" 
d="M315 1208l-10 -108q64 45 160 45q114 0 202.5 -74t88.5 -199q0 -143 -96.5 -224t-266.5 -81q-152 0 -245 71t-93 198h254q9 -84 90 -84q42 0 68.5 31.5t26.5 84.5q0 49 -27 76t-70 27q-66 0 -88 -70l-254 14l43 484h619v-191h-402zM1473 1427l-756 -1456h-230l754 1456
h232zM1612 571q-11 70 -76 70q-43 0 -68.5 -40t-25.5 -116q67 56 160 56q123 0 203.5 -71.5t80.5 -186.5q0 -140 -95.5 -226t-250.5 -86q-184 0 -266 102.5t-82 319.5q0 216 92.5 327t271.5 111q299 0 312 -260h-256zM1540 371q-38 0 -62 -27.5t-24 -75.5q0 -54 22.5 -83
t63.5 -29q84 0 84 112q0 47 -23 75t-61 28z" />
    <glyph glyph-name="oneeighth" unicode="&#x215b;" horiz-adv-x="1738" 
d="M31 1092v161q46 0 76.5 2.5t60 11t46.5 24.5t27.5 42.5t10.5 65.5h244v-803h-254v496h-211zM1247 1427l-755 -1456h-230l754 1456h231zM1341 324q-40 0 -65 -24t-25 -60t24 -59t66 -23t66.5 22.5t24.5 59.5q0 36 -25 60t-66 24zM1341 -29q-164 0 -255 60t-91 180
q0 71 41 124t115 79v8q-77 29 -109 69t-32 107q0 109 88.5 171t242.5 62t243 -62t89 -171q0 -63 -33 -106t-106 -72v-6q70 -31 112 -82.5t42 -120.5q0 -120 -91.5 -180t-255.5 -60zM1341 653q-40 0 -63 -22t-23 -56q0 -36 22 -56.5t64 -20.5t64 20.5t22 56.5q0 34 -23 56
t-63 22z" />
    <glyph glyph-name="threeeighths" unicode="&#x215c;" horiz-adv-x="1974" 
d="M303 870q0 -58 26 -88t72 -30q43 0 70 23.5t27 58.5q0 37 -28 54t-89 17h-43v187h47q59 0 81.5 15.5t22.5 53.5q0 74 -88 74q-96 0 -96 -115h-254q0 153 91.5 230t258.5 77q347 0 347 -235q0 -54 -39.5 -110t-96.5 -70v-6q58 -8 102 -60.5t44 -118.5q0 -127 -91 -193.5
t-257 -66.5q-184 0 -273.5 71t-89.5 232h256zM1483 1427l-756 -1456h-229l753 1456h232zM1577 324q-40 0 -65 -24t-25 -60t24 -59t66 -23t66 22.5t24 59.5q0 36 -25 60t-65 24zM1577 -29q-164 0 -255 60t-91 180q0 72 40.5 124.5t114.5 78.5v8q-77 29 -109 69t-32 107
q0 109 89 171t243 62t243 -62t89 -171q0 -63 -33.5 -106t-106.5 -72v-6q70 -31 112 -82.5t42 -120.5q0 -120 -91 -180t-255 -60zM1577 653q-40 0 -63 -22t-23 -56q0 -36 22 -56.5t64 -20.5t64 20.5t22 56.5q0 34 -23 56t-63 22z" />
    <glyph glyph-name="fiveeighths" unicode="&#x215d;" horiz-adv-x="1964" 
d="M315 1208l-10 -108q64 45 160 45q114 0 202.5 -74t88.5 -199q0 -143 -96.5 -224t-266.5 -81q-152 0 -245 71t-93 198h254q9 -84 90 -84q42 0 68.5 31.5t26.5 84.5q0 49 -27 76t-70 27q-66 0 -88 -70l-254 14l43 484h619v-191h-402zM1473 1427l-756 -1456h-230l754 1456
h232zM1567 324q-40 0 -65 -24t-25 -60t24 -59t66 -23t66 22.5t24 59.5q0 36 -25 60t-65 24zM1567 -29q-164 0 -255 60t-91 180q0 72 40.5 124.5t114.5 78.5v8q-77 29 -109 69t-32 107q0 109 89 171t243 62t242.5 -62t88.5 -171q0 -63 -33 -106t-106 -72v-6q70 -31 112 -82.5
t42 -120.5q0 -120 -91 -180t-255 -60zM1567 653q-40 0 -63 -22t-23 -56q0 -36 22 -56.5t64 -20.5t64 20.5t22 56.5q0 34 -23 56t-63 22z" />
    <glyph glyph-name="seveneighths" unicode="&#x215e;" horiz-adv-x="1787" 
d="M152 596q72 342 254 612h-375v191h651v-172q-113 -164 -167 -290.5t-97 -340.5h-266zM1296 1427l-755 -1456h-230l754 1456h231zM1391 324q-41 0 -66 -24t-25 -60t24.5 -59t66.5 -23t66 22.5t24 59.5q0 36 -25 60t-65 24zM1391 -29q-164 0 -255.5 60t-91.5 180
q0 71 41 124t115 79v8q-77 29 -109 69t-32 107q0 109 89 171t243 62t242.5 -62t88.5 -171q0 -63 -33 -106t-106 -72v-6q70 -31 112 -82.5t42 -120.5q0 -120 -91 -180t-255 -60zM1391 653q-40 0 -63 -22t-23 -56q0 -36 22 -56.5t64 -20.5t64 20.5t22 56.5q0 34 -23 56t-63 22
z" />
    <glyph glyph-name="uni215F" unicode="&#x215f;" horiz-adv-x="944" 
d="M31 1092v161q46 0 76.5 2.5t60 11t46.5 24.5t27.5 42.5t10.5 65.5h244v-803h-254v496h-211zM1247 1427l-755 -1456h-230l754 1456h231z" />
    <glyph glyph-name="uni2160" unicode="&#x2160;" horiz-adv-x="643" 
d="M532 1487v-1487h-421v1487h421z" />
    <glyph glyph-name="uni2161" unicode="&#x2161;" horiz-adv-x="1261" 
d="M532 1487v-1487h-421v1487h421zM1151 1487v-1487h-422v1487h422z" />
    <glyph glyph-name="uni2162" unicode="&#x2162;" horiz-adv-x="1880" 
d="M532 1487v-1487h-421v1487h421zM1151 1487v-1487h-422v1487h422zM1769 1487v-1487h-421v1487h421z" />
    <glyph glyph-name="uni2163" unicode="&#x2163;" horiz-adv-x="2031" 
d="M532 1487v-1487h-421v1487h421zM1098 1487l170 -750l65 -329h21l67 323l176 756h433l-412 -1487h-567l-412 1487h459z" />
    <glyph glyph-name="uni2164" unicode="&#x2164;" horiz-adv-x="1394" 
d="M461 1487l170 -750l65 -329h21l67 323l177 756h432l-412 -1487h-567l-412 1487h459z" />
    <glyph glyph-name="uni2165" unicode="&#x2165;" horiz-adv-x="2031" 
d="M461 1487l170 -750l65 -329h21l67 323l177 756h432l-412 -1487h-567l-412 1487h459zM1921 1487v-1487h-422v1487h422z" />
    <glyph glyph-name="uni2166" unicode="&#x2166;" horiz-adv-x="2650" 
d="M461 1487l170 -750l65 -329h21l67 323l177 756h432l-412 -1487h-567l-412 1487h459zM1921 1487v-1487h-422v1487h422zM2540 1487v-1487h-422v1487h422z" />
    <glyph glyph-name="uni2167" unicode="&#x2167;" horiz-adv-x="3268" 
d="M461 1487l170 -750l65 -329h21l67 323l177 756h432l-412 -1487h-567l-412 1487h459zM1921 1487v-1487h-422v1487h422zM2540 1487v-1487h-422v1487h422zM3158 1487v-1487h-422v1487h422z" />
    <glyph glyph-name="uni2168" unicode="&#x2168;" horiz-adv-x="2086" 
d="M532 1487v-1487h-421v1487h421zM2105 0h-510q-34 61 -73.5 142t-93 198t-58.5 127h-16q-174 -372 -228 -467h-487l455 772l-402 715h502q88 -163 190 -422h19q108 273 188 422h477l-405 -699z" />
    <glyph glyph-name="uni2169" unicode="&#x2169;" horiz-adv-x="1423" 
d="M1442 0h-510q-34 61 -73.5 142t-93 198t-58.5 127h-17q-8 -17 -45.5 -98t-61 -131t-59 -120.5t-61.5 -117.5h-488l455 772l-401 715h501q91 -170 191 -422h18q105 266 189 422h477l-406 -699z" />
    <glyph glyph-name="uni216A" unicode="&#x216a;" horiz-adv-x="2080" 
d="M1442 0h-510q-34 61 -73.5 142t-93 198t-58.5 127h-17q-8 -17 -45.5 -98t-61 -131t-59 -120.5t-61.5 -117.5h-488l455 772l-401 715h501q91 -170 191 -422h18q105 266 189 422h477l-406 -699zM1970 1487v-1487h-422v1487h422z" />
    <glyph glyph-name="uni216B" unicode="&#x216b;" horiz-adv-x="2699" 
d="M1442 0h-510q-34 61 -73.5 142t-93 198t-58.5 127h-17q-8 -17 -45.5 -98t-61 -131t-59 -120.5t-61.5 -117.5h-488l455 772l-401 715h501q91 -170 191 -422h18q105 266 189 422h477l-406 -699zM1970 1487v-1487h-422v1487h422zM2589 1487v-1487h-422v1487h422z" />
    <glyph glyph-name="uni216C" unicode="&#x216c;" horiz-adv-x="1179" 
d="M532 1487v-1122h627v-365h-1048v1487h421z" />
    <glyph glyph-name="uni216D" unicode="&#x216d;" horiz-adv-x="1452" 
d="M1411 580q-25 -302 -194 -458.5t-469 -156.5q-332 0 -510.5 198t-178.5 572q0 371 184.5 579t510.5 208q148 0 272 -44.5t209 -129.5q80 -77 122 -179.5t48 -248.5h-442q0 110 -57.5 174.5t-151.5 64.5q-123 0 -189.5 -110t-66.5 -314q0 -195 66.5 -302t189.5 -107
q95 0 156 67t61 187h440z" />
    <glyph glyph-name="uni216E" unicode="&#x216e;" horiz-adv-x="1470" 
d="M719 1487q326 0 510 -197.5t184 -541.5q0 -127 -25.5 -237.5t-81.5 -205.5t-139 -162t-204.5 -105t-272.5 -38h-579v1487h608zM647 365q174 0 251 94.5t77 283.5q0 192 -76.5 285.5t-251.5 93.5h-115v-757h115z" />
    <glyph glyph-name="uni216F" unicode="&#x216f;" horiz-adv-x="2004" 
d="M487 1116q7 -431 7 -1116h-383v1487h698q8 -36 40.5 -188t47.5 -225t39.5 -198t40 -224.5t24.5 -188.5h21q12 109 35.5 256t42 247.5t54 281.5t46.5 239h694v-1487h-389q0 747 6 1116h-24q-41 -212 -130 -609t-112 -507h-493q-8 38 -103 467.5t-135 648.5h-27z" />
    <glyph glyph-name="uni2170" unicode="&#x2170;" horiz-adv-x="575" 
d="M483 1057v-1057h-391v1057h391zM483 1487v-328h-391v328h391z" />
    <glyph glyph-name="uni2171" unicode="&#x2171;" horiz-adv-x="1146" 
d="M483 1057v-1057h-391v1057h391zM483 1487v-328h-391v328h391zM1055 1057v-1057h-391v1057h391zM1055 1487v-328h-391v328h391z" />
    <glyph glyph-name="uni2172" unicode="&#x2172;" horiz-adv-x="1718" 
d="M483 1057v-1057h-391v1057h391zM483 1487v-328h-391v328h391zM1055 1057v-1057h-391v1057h391zM1055 1487v-328h-391v328h391zM1626 1057v-1057h-391v1057h391zM1626 1487v-328h-391v328h391z" />
    <glyph glyph-name="uni2173" unicode="&#x2173;" horiz-adv-x="1753" 
d="M483 1057v-1057h-391v1057h391zM483 1487v-328h-391v328h391zM1008 1057l88 -383q31 -134 61 -326h21l61 314l90 395h418l-320 -1057h-528l-317 1057h426z" />
    <glyph glyph-name="uni2174" unicode="&#x2174;" horiz-adv-x="1179" 
d="M434 1057l88 -383q34 -146 62 -326h20l62 314l90 395h418l-320 -1057h-528l-318 1057h426z" />
    <glyph glyph-name="uni2175" unicode="&#x2175;" horiz-adv-x="1755" 
d="M434 1057l88 -383q34 -146 62 -326h20l62 314l90 395h418l-320 -1057h-528l-318 1057h426zM1663 1057v-1057h-391v1057h391zM1663 1487v-328h-391v328h391z" />
    <glyph glyph-name="uni2176" unicode="&#x2176;" horiz-adv-x="2326" 
d="M434 1057l88 -383q34 -146 62 -326h20l62 314l90 395h418l-320 -1057h-528l-318 1057h426zM1663 1057v-1057h-391v1057h391zM1663 1487v-328h-391v328h391zM2234 1057v-1057h-391v1057h391zM2234 1487v-328h-391v328h391z" />
    <glyph glyph-name="uni2177" unicode="&#x2177;" horiz-adv-x="2897" 
d="M434 1057l88 -383q34 -146 62 -326h20l62 314l90 395h418l-320 -1057h-528l-318 1057h426zM1663 1057v-1057h-391v1057h391zM1663 1487v-328h-391v328h391zM2234 1057v-1057h-391v1057h391zM2234 1487v-328h-391v328h391zM2806 1057v-1057h-391v1057h391zM2806 1487v-328
h-391v328h391z" />
    <glyph glyph-name="uni2178" unicode="&#x2178;" horiz-adv-x="1740" 
d="M483 1057v-1057h-391v1057h391zM483 1487v-328h-391v328h391zM614 1057h443q63 -151 114 -305h21q57 180 104 305h422l-272 -504l313 -553h-446q-119 260 -144 332h-18q-26 -78 -139 -332h-439l316 553z" />
    <glyph glyph-name="uni2179" unicode="&#x2179;" horiz-adv-x="1148" 
d="M23 1057h442q68 -162 115 -305h20q52 162 105 305h421l-272 -504l313 -553h-446q-115 251 -143 332h-19q-26 -78 -139 -332h-438l315 553z" />
    <glyph glyph-name="uni217A" unicode="&#x217a;" horiz-adv-x="1740" 
d="M23 1057h442q68 -162 115 -305h20q52 162 105 305h421l-272 -504l313 -553h-446q-115 251 -143 332h-19q-26 -78 -139 -332h-438l315 553zM1649 1057v-1057h-392v1057h392zM1649 1487v-328h-392v328h392z" />
    <glyph glyph-name="uni217B" unicode="&#x217b;" horiz-adv-x="2312" 
d="M23 1057h442q68 -162 115 -305h20q52 162 105 305h421l-272 -504l313 -553h-446q-115 251 -143 332h-19q-26 -78 -139 -332h-438l315 553zM1649 1057v-1057h-392v1057h392zM1649 1487v-328h-392v328h392zM2220 1057v-1057h-391v1057h391zM2220 1487v-328h-391v328h391z
" />
    <glyph glyph-name="uni217C" unicode="&#x217c;" horiz-adv-x="575" 
d="M483 1487v-1487h-391v1487h391z" />
    <glyph glyph-name="uni217D" unicode="&#x217d;" horiz-adv-x="1208" 
d="M1171 438q-26 -223 -173 -348t-386 -125q-257 0 -411 152t-154 403q0 255 154.5 413.5t406.5 158.5q147 0 268 -50.5t198.5 -155t82.5 -247.5h-397q-5 74 -41 117t-96 43q-77 0 -118.5 -75t-41.5 -210q0 -123 39 -189.5t112 -66.5q61 0 99 46.5t49 133.5h409z" />
    <glyph glyph-name="uni217E" unicode="&#x217e;" horiz-adv-x="1234" 
d="M782 147q-55 -89 -129 -129.5t-176 -40.5q-193 0 -308.5 147t-115.5 408q0 251 115.5 399t306.5 148q92 0 159 -30.5t118 -108.5v547h391v-1487h-361v147zM618 786q-74 0 -114.5 -65t-40.5 -191q0 -128 40.5 -194t114.5 -66q160 0 160 258q0 122 -43 190t-117 68z" />
    <glyph glyph-name="uni217F" unicode="&#x217f;" horiz-adv-x="1810" 
d="M457 930q115 149 311 149q112 0 175 -40t106 -130q108 170 321 170q203 0 299 -159q31 -54 44 -143.5t13 -250.5v-526h-391v592q0 104 -25.5 149t-82.5 45q-66 0 -94.5 -63t-28.5 -205v-518h-391v594q0 107 -23.5 149.5t-79.5 42.5q-66 0 -96.5 -63t-30.5 -199v-524h-391
v1057h365v-127z" />
    <glyph glyph-name="uni2189" unicode="&#x2189;" horiz-adv-x="1994" 
d="M313 997q0 -237 107 -237q104 0 104 237q0 236 -104 236q-107 0 -107 -236zM786 997q0 -213 -93.5 -321.5t-272.5 -108.5q-180 0 -274.5 108.5t-94.5 321.5q0 212 94.5 321t274.5 109q178 0 272 -109t94 -321zM1487 1427l-756 -1456h-229l753 1456h232zM1487 274
q0 -58 26 -88t72 -30q42 0 69 23t27 59q0 37 -27.5 54t-88.5 17h-43v187h47q59 0 81.5 15.5t22.5 53.5q0 74 -88 74q-96 0 -96 -115h-254q0 153 91.5 230t258.5 77q346 0 346 -235q0 -54 -39 -110t-96 -70v-6q58 -8 102 -60.5t44 -118.5q0 -127 -91.5 -193.5t-257.5 -66.5
q-184 0 -273 71t-89 232h256z" />
    <glyph glyph-name="arrowleft" unicode="&#x2190;" horiz-adv-x="1345" 
d="M629 1174l186 -187l-293 -272h772v-275h-772l293 -272l-186 -186l-596 596z" />
    <glyph glyph-name="arrowup" unicode="&#x2191;" horiz-adv-x="1245" 
d="M1219 635l-187 -186l-272 292v-772h-275v772l-272 -292l-186 186l596 596z" />
    <glyph glyph-name="arrowright" unicode="&#x2192;" horiz-adv-x="1345" 
d="M530 168l293 272h-772v275h772l-293 272l187 187l596 -596l-596 -596z" />
    <glyph glyph-name="arrowdown" unicode="&#x2193;" horiz-adv-x="1245" 
d="M27 475l186 187l272 -293v772h275v-772l272 293l187 -187l-596 -596z" />
    <glyph glyph-name="uni2196" unicode="&#x2196;" horiz-adv-x="1124" 
d="M930 750l-400 14l545 -545l-194 -194l-545 544l14 -399h-264v844h844v-264z" />
    <glyph glyph-name="uni2197" unicode="&#x2197;" horiz-adv-x="1124" 
d="M1038 170h-264l14 399l-544 -544l-195 194l545 545l-399 -14v264h843v-844z" />
    <glyph glyph-name="uni2198" unicode="&#x2198;" horiz-adv-x="1126" 
d="M86 868h264l-14 -399l545 545l194 -195l-545 -545l400 15v-264h-844v843z" />
    <glyph glyph-name="uni2199" unicode="&#x2199;" horiz-adv-x="1126" 
d="M197 289l399 -15l-545 545l195 195l545 -545l-15 399h264v-843h-843v264z" />
    <glyph glyph-name="partialdiff" unicode="&#x2202;" horiz-adv-x="1148" 
d="M305 1427q378 0 580 -198.5t202 -542.5q0 -356 -134.5 -536.5t-417.5 -180.5q-239 0 -375.5 129.5t-136.5 360.5q0 137 69 242t178 157.5t238 52.5q147 0 258 -57q-75 350 -526 350zM543 190q86 0 139 74t53 191q0 106 -50 175.5t-144 69.5q-91 0 -144 -72t-53 -177
q0 -113 52.5 -187t146.5 -74z" />
    <glyph glyph-name="increment" unicode="&#x2206;" horiz-adv-x="1499" 
d="M471 1487h559l428 -1254v-233h-1417v233zM860 745q-14 52 -39 140t-43.5 156.5t-32.5 123.5h-16l-119 -417l-112 -412h475z" />
    <glyph glyph-name="product" unicode="&#x220f;" horiz-adv-x="1462" 
d="M1413 1149h-162v-1397h-346v1397h-342v-1397h-348v1397h-166v250h1364v-250z" />
    <glyph glyph-name="summation" unicode="&#x2211;" horiz-adv-x="1247" 
d="M604 598l-534 592v209h1101v-250h-661l500 -553l-525 -598h711v-250h-1151v207z" />
    <glyph glyph-name="minus" unicode="&#x2212;" 
d="M117 684h1054v-272h-1054v272z" />
    <glyph glyph-name="uni2215" unicode="&#x2215;" horiz-adv-x="368" 
d="M672 1427l-756 -1456h-229l753 1456h232z" />
    <glyph glyph-name="uni2219" unicode="&#x2219;" 
d="M850 915v-413h-410v413h410z" />
    <glyph glyph-name="radical" unicode="&#x221a;" horiz-adv-x="1245" 
d="M205 760l-168 -80l-76 182l438 187l191 -627l422 1276h278l-604 -1721h-229z" />
    <glyph glyph-name="infinity" unicode="&#x221e;" 
d="M645 350q-24 -34 -36 -49.5t-37.5 -41.5t-47 -37.5t-55.5 -21.5t-74 -10q-129 0 -218 100t-89 253q0 170 82 260t211 90q48 0 87.5 -11.5t72 -36t53 -46.5t51.5 -60q30 37 51.5 59.5t54 47t71.5 36t87 11.5q129 0 211 -90t82 -260q0 -153 -89 -253t-218 -100q-35 0 -66 8
t-51 17t-43 30.5t-32.5 32t-30.5 38t-27 34.5zM907 446q35 0 55.5 30t20.5 69q0 44 -21.5 76t-58.5 32q-35 0 -69.5 -27.5t-57.5 -74.5q17 -43 55.5 -74t75.5 -31zM383 446q37 0 75.5 31t55.5 74q-23 47 -58 74.5t-71 27.5q-35 0 -56.5 -32t-21.5 -76q0 -39 20.5 -69
t55.5 -30z" />
    <glyph glyph-name="integral" unicode="&#x222b;" horiz-adv-x="866" 
d="M563 178q-3 -51 -6 -86t-10 -84.5t-16 -84.5t-24 -77t-34.5 -71t-48.5 -58t-64 -46.5t-82 -28.5t-102 -11q-112 0 -217 45l74 226q58 -21 96 -21q60 0 86.5 64.5t38.5 236.5l47 699q3 51 6 86t10 84.5t16 84.5t24 77.5t34.5 71.5t48 58.5t63.5 47t81.5 28.5t101.5 11
q110 0 217 -46l-74 -225q-58 21 -96 21q-60 0 -87.5 -64.5t-37.5 -234.5z" />
    <glyph glyph-name="approxequal" unicode="&#x2248;" 
d="M862 549q-48 0 -109 23.5t-109 51t-107 51t-105 23.5q-98 0 -170 -116l-168 157q66 116 149 165.5t187 49.5q49 0 109.5 -23.5t108 -51t105 -51t101.5 -23.5q95 0 168 117l176 -158q-69 -117 -151 -166t-185 -49zM862 127q-48 0 -109 23.5t-109 51t-107 51t-105 23.5
q-96 0 -170 -118l-168 159q66 116 149 165.5t187 49.5q49 0 109.5 -23.5t108 -52t105 -52t101.5 -23.5q94 0 168 119l176 -158q-69 -117 -151 -166t-185 -49z" />
    <glyph glyph-name="notequal" unicode="&#x2260;" 
d="M119 496h342l55 120h-397v265h516l88 194h291l-90 -194h250v-265h-369l-57 -120h426v-265h-545l-97 -211h-284l94 211h-223v265z" />
    <glyph glyph-name="equivalence" unicode="&#x2261;" 
d="M119 659h1055v-247h-1055v247zM119 262h1055v-248h-1055v248zM119 1057h1055v-248h-1055v248z" />
    <glyph glyph-name="lessequal" unicode="&#x2264;" 
d="M160 0v244h956v-244h-956zM1116 936l-657 -186l657 -205v-254l-956 330v245l956 328v-258z" />
    <glyph glyph-name="greaterequal" unicode="&#x2265;" 
d="M1130 244v-244h-956v244h956zM1130 621l-956 -330v254l660 205l-660 186v258l956 -328v-245z" />
    <glyph glyph-name="uni25AF" unicode="&#x25af;" horiz-adv-x="1198" 
d="M111 0v1487h976v-1487h-976zM971 109v1269h-744v-1269h744z" />
    <glyph glyph-name="triagup" unicode="&#x25b2;" horiz-adv-x="1124" 
d="M129 1065l967 -516l-967 -524v1040z" />
    <glyph glyph-name="triagrt" unicode="&#x25ba;" horiz-adv-x="1093" 
d="M27 68l516 1032l524 -1032h-1040z" />
    <glyph glyph-name="triagdn" unicode="&#x25bc;" horiz-adv-x="1091" 
d="M27 1075h1040l-524 -1032z" />
    <glyph glyph-name="triaglf" unicode="&#x25c4;" horiz-adv-x="1124" 
d="M995 1065v-1040l-966 524z" />
    <glyph glyph-name="lozenge" unicode="&#x25ca;" horiz-adv-x="1132" 
d="M451 0l-408 700l408 699h235l406 -699l-406 -700h-235zM391 698l178 -319l181 323l-181 320z" />
    <glyph glyph-name="uniFB00" unicode="&#xfb00;" horiz-adv-x="1427" 
d="M573 772v-772h-391v772h-159v285h159v37q0 200 95.5 311t297.5 111q77 0 189 -23v-268q-42 10 -68 10q-57 0 -91 -35t-34 -106v-37h263v37q0 200 95.5 311t297.5 111q76 0 188 -23v-268q-42 10 -67 10q-57 0 -91 -35t-34 -106v-37h192v-285h-190v-772h-391v772h-261z" />
    <glyph glyph-name="fi" unicode="&#xfb01;" horiz-adv-x="1316" 
d="M23 772v285h159v37q0 200 95.5 311t297.5 111q77 0 189 -23v-268q-42 10 -68 10q-57 0 -91 -35t-34 -106v-37h193v-285h-191v-772h-391v772h-159zM1225 1057v-1057h-391v1057h391zM1225 1487v-328h-391v328h391z" />
    <glyph glyph-name="fl" unicode="&#xfb02;" horiz-adv-x="1316" 
d="M23 772v285h159v37q0 200 95.5 311t297.5 111q77 0 189 -23v-268q-42 10 -68 10q-57 0 -91 -35t-34 -106v-37h193v-285h-191v-772h-391v772h-159zM1225 1487v-1487h-391v1487h391z" />
    <glyph glyph-name="uniFB03" unicode="&#xfb03;" horiz-adv-x="1968" 
d="M1876 1057v-1057h-391v1057h391zM1876 1487v-328h-391v328h391zM573 772v-772h-391v772h-159v285h159v37q0 200 95.5 311t297.5 111q77 0 189 -23v-268q-42 10 -68 10q-57 0 -91 -35t-34 -106v-37h263v37q0 200 95.5 311t297.5 111q76 0 188 -23v-268q-42 10 -67 10
q-57 0 -91 -35t-34 -106v-37h192v-285h-190v-772h-391v772h-261z" />
    <glyph glyph-name="uniFB04" unicode="&#xfb04;" horiz-adv-x="1968" 
d="M1876 1487v-1487h-391v1487h391zM573 772v-772h-391v772h-159v285h159v37q0 200 95.5 311t297.5 111q77 0 189 -23v-268q-42 10 -68 10q-57 0 -91 -35t-34 -106v-37h263v37q0 200 95.5 311t297.5 111q76 0 188 -23v-268q-42 10 -67 10q-57 0 -91 -35t-34 -106v-37h192
v-285h-190v-772h-391v772h-261z" />
    <glyph glyph-name="uniFEFF" unicode="&#xfeff;" horiz-adv-x="0" 
 />
    <glyph glyph-name="i.latn_TRK" horiz-adv-x="575" 
d="M483 1057v-1057h-391v1057h391zM483 1487v-328h-391v328h391z" />
    <glyph glyph-name="Ldot.latn_CAT" horiz-adv-x="1189" 
d="M721 963h375v-338h-375v338zM532 1487v-1122h627v-365h-1048v1487h421z" />
    <glyph glyph-name="ldot.latn_CAT" horiz-adv-x="942" 
d="M573 954h371v-327h-371v327zM483 1487v-1487h-391v1487h391z" />
    <glyph glyph-name="zero.numr" horiz-adv-x="837" 
d="M313 997q0 -237 107 -237q104 0 104 237q0 236 -104 236q-107 0 -107 -236zM786 997q0 -213 -93.5 -321.5t-272.5 -108.5q-180 0 -274.5 108.5t-94.5 321.5q0 212 94.5 321t274.5 109q178 0 272 -109t94 -321z" />
    <glyph glyph-name="one.numr" horiz-adv-x="575" 
d="M31 1092v161q46 0 76.5 2.5t60 11t46.5 24.5t27.5 42.5t10.5 65.5h244v-803h-254v496h-211z" />
    <glyph glyph-name="two.numr" horiz-adv-x="796" 
d="M51 596v61q0 66 23.5 119.5t61 89t83 64.5t91 53.5t83 49.5t61 58.5t23.5 73.5q0 35 -21.5 56.5t-56.5 21.5q-43 0 -66.5 -31t-27.5 -102h-254q2 154 90.5 235.5t264.5 81.5q165 0 249 -66.5t84 -180.5q0 -58 -22 -106t-64 -86t-83 -66t-101 -65t-96 -64v-7h366v-190
h-688z" />
    <glyph glyph-name="three.numr" horiz-adv-x="811" 
d="M303 870q0 -58 26 -88t72 -30q43 0 70 23.5t27 58.5q0 37 -28 54t-89 17h-43v187h47q59 0 81.5 15.5t22.5 53.5q0 74 -88 74q-96 0 -96 -115h-254q0 153 91.5 230t258.5 77q347 0 347 -235q0 -54 -39.5 -110t-96.5 -70v-6q58 -8 102 -60.5t44 -118.5q0 -127 -91 -193.5
t-257 -66.5q-184 0 -273.5 71t-89.5 232h256z" />
    <glyph glyph-name="four.numr" horiz-adv-x="829" 
d="M35 762v190l307 447h315v-447h136v-190h-136v-166h-258v166h-364zM408 1176q-16 -31 -39 -67t-36 -55t-41.5 -58.5t-31.5 -43.5h158v224h-10z" />
    <glyph glyph-name="five.numr" horiz-adv-x="800" 
d="M315 1208l-10 -108q64 45 160 45q114 0 202.5 -74t88.5 -199q0 -143 -96.5 -224t-266.5 -81q-152 0 -245 71t-93 198h254q9 -84 90 -84q42 0 68.5 31.5t26.5 84.5q0 49 -27 76t-70 27q-66 0 -88 -70l-254 14l43 484h619v-191h-402z" />
    <glyph glyph-name="six.numr" horiz-adv-x="796" 
d="M473 1167q-11 70 -76 70q-43 0 -68.5 -40t-25.5 -116q67 56 160 56q123 0 204 -71.5t81 -186.5q0 -140 -96 -226t-251 -86q-184 0 -266 102.5t-82 319.5q0 216 93 327t272 111q298 0 311 -260h-256zM401 967q-38 0 -62 -27.5t-24 -75.5q0 -54 22.5 -83t63.5 -29
q84 0 84 112q0 47 -23 75t-61 28z" />
    <glyph glyph-name="seven.numr" horiz-adv-x="714" 
d="M152 596q72 342 254 612h-375v191h651v-172q-113 -164 -167 -290.5t-97 -340.5h-266z" />
    <glyph glyph-name="eight.numr" horiz-adv-x="794" 
d="M397 920q-40 0 -65 -24t-25 -60t24 -59t66 -23t66 22.5t24 59.5q0 36 -25 60t-65 24zM397 567q-164 0 -255 60t-91 180q0 71 41 124t115 79v8q-77 29 -109 69t-32 107q0 109 88.5 171t242.5 62t243 -62t89 -171q0 -63 -33 -106t-106 -72v-6q70 -31 111.5 -82.5
t41.5 -120.5q0 -120 -91 -180t-255 -60zM397 1249q-40 0 -63 -22t-23 -56q0 -36 22 -56.5t64 -20.5t64 20.5t22 56.5q0 34 -23 56t-63 22z" />
    <glyph glyph-name="nine.numr" horiz-adv-x="788" 
d="M303 831q5 -35 26.5 -56t53.5 -21q50 0 76 40t26 134q-75 -60 -151 -60q-134 0 -206.5 75.5t-72.5 182.5q0 119 88 210t242 91q184 0 267 -104t83 -322q0 -226 -81 -330t-269 -104q-150 0 -237 66t-99 198h254zM389 1241q-39 0 -62.5 -27.5t-23.5 -74.5t25.5 -73
t60.5 -26q37 0 62.5 26t25.5 73q0 46 -25 74t-63 28z" />
    <glyph glyph-name="zero.dnom" horiz-adv-x="837" 
d="M313 401q0 -237 107 -237q104 0 104 237q0 236 -104 236q-107 0 -107 -236zM786 401q0 -213 -93.5 -321.5t-272.5 -108.5q-180 0 -274.5 108.5t-94.5 321.5q0 212 94.5 321t274.5 109q178 0 272 -109t94 -321z" />
    <glyph glyph-name="one.dnom" horiz-adv-x="575" 
d="M31 496v161q46 0 76.5 2.5t60 11t46.5 24.5t27.5 42.5t10.5 65.5h244v-803h-254v496h-211z" />
    <glyph glyph-name="two.dnom" horiz-adv-x="796" 
d="M51 0v61q0 66 23.5 119.5t61 89t83 64.5t91 53.5t83 49.5t61 58.5t23.5 73.5q0 35 -21.5 56.5t-56.5 21.5q-43 0 -66.5 -31t-27.5 -102h-254q2 154 90.5 235.5t264.5 81.5q165 0 249 -66.5t84 -180.5q0 -58 -22 -106t-64 -86t-83 -66t-101 -65t-96 -64v-7h366v-190h-688z
" />
    <glyph glyph-name="three.dnom" horiz-adv-x="811" 
d="M303 274q0 -58 26 -88t72 -30q43 0 70 23.5t27 58.5q0 37 -28 54t-89 17h-43v187h47q59 0 81.5 15.5t22.5 53.5q0 74 -88 74q-96 0 -96 -115h-254q0 153 91.5 230t258.5 77q347 0 347 -235q0 -54 -39.5 -110t-96.5 -70v-6q58 -8 102 -60.5t44 -118.5q0 -127 -91 -193.5
t-257 -66.5q-184 0 -273.5 71t-89.5 232h256z" />
    <glyph glyph-name="four.dnom" horiz-adv-x="829" 
d="M35 166v190l307 447h315v-447h136v-190h-136v-166h-258v166h-364zM408 580q-16 -31 -39 -67t-36 -55t-41.5 -58.5t-31.5 -43.5h158v224h-10z" />
    <glyph glyph-name="five.dnom" horiz-adv-x="800" 
d="M315 612l-10 -108q64 45 160 45q114 0 202.5 -74t88.5 -199q0 -143 -96.5 -224t-266.5 -81q-152 0 -245 71t-93 198h254q9 -84 90 -84q42 0 68.5 31.5t26.5 84.5q0 49 -27 76t-70 27q-66 0 -88 -70l-254 14l43 484h619v-191h-402z" />
    <glyph glyph-name="six.dnom" horiz-adv-x="796" 
d="M473 571q-11 70 -76 70q-43 0 -68.5 -40t-25.5 -116q67 56 160 56q123 0 204 -71.5t81 -186.5q0 -140 -96 -226t-251 -86q-184 0 -266 102.5t-82 319.5q0 216 93 327t272 111q298 0 311 -260h-256zM401 371q-38 0 -62 -27.5t-24 -75.5q0 -54 22.5 -83t63.5 -29
q84 0 84 112q0 47 -23 75t-61 28z" />
    <glyph glyph-name="seven.dnom" horiz-adv-x="714" 
d="M152 0q72 342 254 612h-375v191h651v-172q-113 -164 -167 -290.5t-97 -340.5h-266z" />
    <glyph glyph-name="eight.dnom" horiz-adv-x="794" 
d="M397 324q-40 0 -65 -24t-25 -60t24 -59t66 -23t66 22.5t24 59.5q0 36 -25 60t-65 24zM397 -29q-164 0 -255 60t-91 180q0 71 41 124t115 79v8q-77 29 -109 69t-32 107q0 109 88.5 171t242.5 62t243 -62t89 -171q0 -63 -33 -106t-106 -72v-6q70 -31 111.5 -82.5
t41.5 -120.5q0 -120 -91 -180t-255 -60zM397 653q-40 0 -63 -22t-23 -56q0 -36 22 -56.5t64 -20.5t64 20.5t22 56.5q0 34 -23 56t-63 22z" />
    <glyph glyph-name="nine.dnom" horiz-adv-x="788" 
d="M303 236q5 -35 26.5 -56.5t53.5 -21.5q50 0 76 40t26 134q-75 -60 -151 -60q-134 0 -206.5 75.5t-72.5 182.5q0 119 88 210t242 91q184 0 267 -103.5t83 -321.5q0 -226 -81 -330.5t-269 -104.5q-150 0 -237 66.5t-99 198.5h254zM389 645q-39 0 -62.5 -27.5t-23.5 -74.5
t25.5 -73t60.5 -26q37 0 62.5 26t25.5 73q0 46 -25 74t-63 28z" />
    <glyph glyph-name="space.frac" horiz-adv-x="77" 
 />
    <glyph glyph-name="space.tf" 
 />
    <glyph glyph-name="numbersign.tf" 
d="M500 395l-105 -395h-254l105 395h-209l47 187h211l72 270h-207l47 186h211l96 361h254l-96 -361h123l96 361h254l-96 -361h204l-49 -186h-207l-71 -270h204l-49 -187h-204l-105 -395h-254l105 395h-123zM672 582l71 270h-122l-72 -270h123z" />
    <glyph glyph-name="dollar.tf" 
d="M760 1403q196 -7 305 -128t109 -306h-404v24q0 60 -36.5 92.5t-104.5 32.5q-63 0 -97 -25.5t-34 -72.5q0 -43 36.5 -68.5t141.5 -54.5l84 -23q244 -70 346 -170t102 -276q0 -188 -123 -307.5t-325 -126.5v-291h-254v291q-92 9 -167 40t-133.5 87t-91 144t-32.5 202h416
q-2 -6 -2 -25q0 -66 42 -102.5t121 -36.5q63 0 102.5 29t39.5 78q0 58 -64 88q-34 15 -239 73q-102 29 -152 49t-90 48q-72 50 -113 134.5t-41 186.5q0 173 106 282t298 132v248h254v-248z" />
    <glyph glyph-name="percent.tf" 
d="M106 209l926 1100l150 -119l-926 -1100zM305 1075q0 -108 76 -108q34 0 51 29.5t17 78.5q0 50 -17 79.5t-51 29.5q-76 0 -76 -109zM84 1075q0 134 84.5 204.5t212.5 70.5t212.5 -70.5t84.5 -204.5t-84.5 -204t-212.5 -70t-212.5 70t-84.5 204zM831 324q0 -109 76 -109
q34 0 51 29.5t17 79.5q0 49 -17 78.5t-51 29.5q-76 0 -76 -108zM610 324q0 134 84.5 204t212.5 70t212.5 -70t84.5 -204t-84.5 -204.5t-212.5 -70.5t-212.5 70.5t-84.5 204.5z" />
    <glyph glyph-name="comma.tf" 
d="M436 33v381h418v-420l-180 -385h-238l131 424h-131z" />
    <glyph glyph-name="period.tf" 
d="M850 414v-414h-410v414h410z" />
    <glyph glyph-name="zero.tf" 
d="M657 1434q281 0 437.5 -198t156.5 -544q0 -343 -157.5 -535t-444.5 -192q-297 0 -453.5 190.5t-156.5 544.5q0 341 163.5 537.5t454.5 196.5zM645 1133q-93 0 -134.5 -101t-41.5 -334q0 -236 41 -334t135 -98q95 0 135.5 98t40.5 334q0 233 -41.5 334t-134.5 101z" />
    <glyph glyph-name="one.tf" 
d="M498 313v543h-355v291q188 0 273.5 51t113.5 201h379v-1086h267v-313h-943v313h265z" />
    <glyph glyph-name="two.tf" horiz-adv-x="1292" 
d="M49 0q0 175 26 284.5t87 196.5q55 80 122 129.5t246 147.5q147 77 196.5 128t49.5 120q0 60 -35.5 94.5t-95.5 34.5q-147 0 -156 -201h-419q0 232 158.5 364t435.5 132q239 0 386.5 -110t147.5 -288q0 -152 -78 -262.5t-246 -196.5l-67 -34q-143 -71 -200.5 -121.5
t-69.5 -114.5q100 10 208 10h492v-313h-1188z" />
    <glyph glyph-name="three.tf" 
d="M459 469q5 -103 53.5 -158t136.5 -55q75 0 119.5 39.5t44.5 105.5q0 152 -205 152h-57v305h45q104 0 149.5 36.5t45.5 113.5q0 60 -43 97.5t-111 37.5q-79 0 -122.5 -51t-45.5 -144h-408q6 230 158 358t426 128q266 0 412.5 -103t146.5 -284q0 -125 -65.5 -207
t-196.5 -111v-10q142 -29 214.5 -114t72.5 -220q0 -196 -155.5 -308t-436.5 -112q-104 0 -191 16.5t-162 54.5t-127.5 96t-82 143.5t-29.5 193.5h414z" />
    <glyph glyph-name="four.tf" 
d="M20 272v314l523 813h510v-824h200v-303h-200v-272h-396v272h-637zM358 575h328v48.5v50.5v47t0.5 51.5t1.5 48.5t2 53.5t2.5 51.5t3.5 57t5 56t6 61l-19 6z" />
    <glyph glyph-name="five.tf" 
d="M485 422q5 -72 48.5 -115t115.5 -43t117 59.5t45 147.5q0 89 -44.5 142t-121.5 53q-109 0 -160 -125l-407 28l82 830h993v-314h-422q-138 0 -237 11q-1 -8 -4 -39.5t-4.5 -46.5t-5.5 -44t-7.5 -48t-9.5 -42.5t-12 -41.5h14q101 110 299 110q209 0 345 -134t136 -337
q0 -228 -161.5 -368t-430.5 -140q-262 0 -426 125.5t-172 331.5h430z" />
    <glyph glyph-name="six.tf" 
d="M795 995q0 78 -34.5 121t-96.5 43q-54 0 -94.5 -30.5t-63.5 -80.5t-34 -107t-11 -118q0 -31 2 -47h16q112 131 305 131q204 0 324.5 -122.5t120.5 -333.5q0 -215 -162.5 -350.5t-419.5 -135.5q-281 0 -434.5 187t-153.5 518q0 363 165 563.5t464 200.5
q235 0 378.5 -117.5t150.5 -321.5h-422zM643 616q-67 0 -110.5 -49t-43.5 -123q0 -78 44.5 -130t111.5 -52q72 0 115 48.5t43 127.5q0 78 -45.5 128t-114.5 50z" />
    <glyph glyph-name="seven.tf" 
d="M305 0q65 307 191 590t288 495h-704v314h1128v-318q-292 -370 -434 -1007l-16 -74h-453z" />
    <glyph glyph-name="eight.tf" 
d="M369 723q-135 24 -208 108.5t-73 210.5q0 172 155.5 282t401.5 110q252 0 406.5 -109.5t154.5 -282.5q0 -125 -70.5 -207.5t-205.5 -111.5v-6q152 -32 230.5 -120t78.5 -220q0 -193 -156.5 -302.5t-437.5 -109.5q-285 0 -439.5 107t-154.5 299q0 127 86.5 218.5
t231.5 127.5v6zM645 557q-75 0 -127.5 -45t-52.5 -111q0 -63 51 -104t129 -41q77 0 125.5 41t48.5 104q0 67 -48.5 111.5t-125.5 44.5zM645 1149q-72 0 -118 -42t-46 -103q0 -58 46.5 -99t117.5 -41q73 0 120.5 41t47.5 101t-48 101.5t-120 41.5z" />
    <glyph glyph-name="nine.tf" 
d="M489 414q0 -77 40.5 -122.5t103.5 -45.5q33 0 60 11.5t45.5 31t32 48.5t21 59.5t12 70t6 73t1.5 74.5l-8 7q-65 -65 -130.5 -94t-160.5 -29q-200 0 -322 125.5t-122 324.5q0 216 153 351t410 135q282 0 440 -188.5t158 -516.5q0 -364 -165 -564t-464 -200
q-233 0 -380.5 123t-151.5 326h421zM623 1147q-69 0 -113.5 -48.5t-44.5 -123.5q0 -77 46.5 -127.5t115.5 -50.5t111 46t42 124q0 79 -43 129.5t-114 50.5z" />
    <glyph glyph-name="colon.tf" 
d="M850 414v-414h-410v414h410zM850 1057v-414h-410v414h410z" />
    <glyph glyph-name="semicolon.tf" 
d="M850 1057v-414h-406v414h406zM444 33v381h406v-420l-176 -385h-238l131 424h-123z" />
    <glyph glyph-name="cent.tf" 
d="M1219 657q-23 -194 -138 -312.5t-305 -147.5v-228h-244v230q-207 37 -325.5 179.5t-118.5 360.5q0 222 119.5 370t324.5 185v224h244v-222q188 -31 304.5 -142.5t123.5 -295.5h-399q-5 74 -40 115t-95 41q-78 0 -119 -73.5t-41 -207.5q0 -123 39 -187.5t113 -64.5
q61 0 98.5 45.5t48.5 130.5h410z" />
    <glyph glyph-name="sterling.tf" 
d="M59 317q89 5 127.5 63t42.5 206h-170v270h170v62q0 266 133.5 389t397.5 123q236 0 357 -113.5t126 -327.5h-377q-5 73 -31 107t-81 34q-64 0 -92.5 -44.5t-28.5 -133.5v-96h252v-270h-252q0 -126 -16.5 -180t-53.5 -91l4 -12q85 10 301 10h375v-313h-1184v317z" />
    <glyph glyph-name="currency.tf" 
d="M643 1040q118 0 201 -47l141 142l193 -187l-154 -131q45 -99 45 -192q0 -126 -49 -207l141 -139l-184 -179l-139 142q-110 -45 -199 -45q-112 0 -199 43l-135 -142l-180 181l137 131q-51 90 -51 204q0 111 53 203l-149 133l194 187l131 -142q91 45 203 45zM641 799
q-66 0 -102.5 -51t-36.5 -132q0 -85 42.5 -131.5t94.5 -46.5q54 0 95.5 46.5t41.5 138.5q0 72 -36 124t-99 52z" />
    <glyph glyph-name="yen.tf" 
d="M860 530h324v-223h-324v-307h-436v307h-322v223h320l-41 91h-279v223h177l-273 555h459q40 -99 97.5 -254.5t88.5 -237.5h17q117 354 168 492h452l-278 -555h174v-223h-281z" />
    <glyph glyph-name="section.tf" 
d="M526 102q0 -106 113 -106q100 0 100 80q0 31 -27 55t-94 53l-178 74q-338 138 -338 377q0 104 55 176.5t154 101.5q-114 71 -114 209q0 148 123 237t331 89q210 0 326.5 -89t122.5 -255h-361q-6 88 -104 88q-41 0 -65.5 -18.5t-24.5 -49.5t19.5 -52t66.5 -40l217 -86
q178 -69 258 -159t80 -220q0 -168 -164 -260q60 -48 85.5 -97t25.5 -120q0 -155 -136.5 -252.5t-353.5 -97.5q-219 0 -353 99t-134 263h370zM831 426q39 45 39 100q0 54 -44 92.5t-169 86.5l-192 77q-35 -47 -35 -96q0 -61 44.5 -97t197.5 -97z" />
    <glyph glyph-name="florin.tf" 
d="M532 1028q37 184 167 293t315 109q146 0 239 -27v-275q-83 27 -153 27q-74 0 -115.5 -38t-58.5 -124l-37 -192h215v-279h-268l-60 -307q-58 -294 -165 -418.5t-314 -124.5q-139 0 -262 35v258q100 -31 149 -31q80 0 122 55t71 204l61 329h-196v279h247z" />
    <glyph glyph-name="uni2007.tf" 
 />
    <glyph glyph-name="uni2008.tf" 
 />
    <glyph glyph-name="perthousand.tf" 
d="M295 258q0 134 84.5 204t212.5 70q93 0 170 -57q75 57 174 57q128 0 212.5 -70t84.5 -204t-84.5 -204t-212.5 -70q-98 0 -170 57q-72 -57 -174 -57q-128 0 -212.5 70t-84.5 204zM82 1075q0 134 84.5 204.5t212.5 70.5t212.5 -70.5t84.5 -204.5t-84.5 -204t-212.5 -70
t-212.5 70t-84.5 204zM25 541l1163 534l65 -157l-1163 -535zM303 1075q0 -108 76 -108q67 0 67 108q0 109 -67 109q-76 0 -76 -109zM508 258q0 -108 76 -108q67 0 67 108q0 109 -67 109q-76 0 -76 -109zM868 258q0 -108 76 -108q34 0 51 29.5t17 78.5q0 50 -17 79.5
t-51 29.5q-76 0 -76 -109z" />
    <glyph glyph-name="colonmonetary.tf" 
d="M1239 516q-20 -368 -285 -493l-20 -230h-250l16 172h-18q-30 0 -84 4l-16 -176h-250l22 248q-288 165 -288 653q0 256 91 430t259 248l20 209h250l-14 -156h10q46 0 92 -6l14 162h250l-22 -242q206 -137 221 -460h-348q0 110 -62.5 171.5t-140.5 61.5q-111 0 -179.5 -101
t-68.5 -317q0 -210 69 -312.5t179 -102.5q93 0 146 61t59 176h348z" />
    <glyph glyph-name="uni20A6.tf" 
d="M121 616v142h-86v219h86v422h491l209 -979h17q-37 327 -37 647v332h368v-422h86v-219h-86v-142h86v-219h-86v-397h-491l-209 979l-16 -49q36 -321 36 -598v-332h-368v397h-86v219h86z" />
    </font>
</defs>
</svg>
