<?xml version="1.0" standalone="no"?>
<!DOCTYPE svg PUBLIC "-//W3C//DTD SVG 1.1//EN" "http://www.w3.org/Graphics/SVG/1.1/DTD/svg11.dtd" >
<svg xmlns="http://www.w3.org/2000/svg" xmlns:xlink="http://www.w3.org/1999/xlink" version="1.1">
<metadata>
Created by FontForge 20170731 at Sat Jul 18 17:22:46 2020
 By Aleksey,,,
(c) 2012-2019, Copyright by Lineto GmbH. All rights reserved.
</metadata>
<defs>
<font id="Unica77LL-ExtraBlack" horiz-adv-x="1290" >
  <font-face 
    font-family="Unica77 LL ExtraBlack"
    font-weight="950"
    font-stretch="normal"
    units-per-em="2048"
    panose-1="2 11 11 4 3 1 1 1 1 2"
    ascent="1536"
    descent="-512"
    x-height="1057"
    cap-height="1487"
    bbox="-1085 -604 3465 2183"
    underline-thickness="102"
    underline-position="-409"
    unicode-range="U+000D-FEFF"
  />
<missing-glyph horiz-adv-x="1181" 
d="M102 0v1487h977v-1487h-977zM963 109v1269h-744v-1269h744z" />
    <glyph glyph-name="f_f" unicode="ff" horiz-adv-x="1546" 
d="M23 745v312h147v33q0 99 22.5 173t60.5 120t94.5 74.5t117.5 39t137 10.5q69 0 221 -20v-291q-25 8 -69 8q-60 -2 -88.5 -34t-28.5 -113h186v-312h-186v-745h-467v745h-147zM731 745v312h148v33q0 99 22.5 173t60.5 120t94.5 74.5t117.5 39t137 10.5q69 0 221 -20v-291
q-25 8 -70 8q-60 -2 -88 -34t-28 -113h186v-312h-186v-745h-467v745h-148z" />
    <glyph glyph-name="f_f_i" unicode="ffi" horiz-adv-x="2146" 
d="M731 745v312h148v33q0 99 22.5 173t60.5 120t94.5 74.5t117.5 39t137 10.5q69 0 221 -20v-291q-25 8 -70 8q-60 -2 -88 -34t-28 -113h186v-312h-186v-745h-467v745h-148zM1595 1057h467v-1057h-467v1057zM1595 1487h467v-344h-467v344zM23 745v312h147v33q0 99 22.5 173
t60.5 120t94.5 74.5t117.5 39t137 10.5q69 0 221 -20v-291q-25 8 -69 8q-60 -2 -88.5 -34t-28.5 -113h186v-312h-186v-745h-467v745h-147z" />
    <glyph glyph-name="f_f_l" unicode="ffl" horiz-adv-x="2146" 
d="M1595 1487h467v-1487h-467v1487zM731 745v312h148v33q0 99 22.5 173t60.5 120t94.5 74.5t117.5 39t137 10.5q69 0 221 -20v-291q-25 8 -70 8q-60 -2 -88 -34t-28 -113h186v-312h-186v-745h-467v745h-148zM23 745v312h147v33q0 99 22.5 173t60.5 120t94.5 74.5t117.5 39
t137 10.5q69 0 221 -20v-291q-25 8 -69 8q-60 -2 -88.5 -34t-28.5 -113h186v-312h-186v-745h-467v745h-147z" />
    <glyph glyph-name="f_i" unicode="fi" horiz-adv-x="1449" 
d="M23 745v312h147v33q0 99 22.5 173t60.5 120t94.5 74.5t117.5 39t137 10.5q69 0 221 -20v-291q-25 8 -69 8q-60 -2 -88.5 -34t-28.5 -113h186v-312h-186v-745h-467v745h-147zM899 1057h467v-1057h-467v1057zM899 1487h467v-344h-467v344z" />
    <glyph glyph-name="f_l" unicode="fl" horiz-adv-x="1447" 
d="M23 745v312h147v33q0 99 22.5 173t60.5 120t94.5 74.5t117.5 39t137 10.5q69 0 221 -20v-291q-25 8 -69 8q-60 -2 -88.5 -34t-28.5 -113h186v-312h-186v-745h-467v745h-147zM897 1487h467v-1487h-467v1487z" />
    <glyph glyph-name=".notdef" horiz-adv-x="1181" 
d="M102 0v1487h977v-1487h-977zM963 109v1269h-744v-1269h744z" />
    <glyph glyph-name=".null" horiz-adv-x="0" 
 />
    <glyph glyph-name="nonmarkingreturn" horiz-adv-x="682" 
 />
    <glyph glyph-name="NULL" horiz-adv-x="0" 
 />
    <glyph glyph-name="NULL" horiz-adv-x="0" 
 />
    <glyph glyph-name="CR" unicode="&#xd;" horiz-adv-x="409" 
 />
    <glyph glyph-name="space" unicode=" " horiz-adv-x="409" 
 />
    <glyph glyph-name="exclam" unicode="!" horiz-adv-x="663" 
d="M565 418v-418h-467v418h467zM70 1487h524l-72 -983h-383z" />
    <glyph glyph-name="quotedbl" unicode="&#x22;" horiz-adv-x="1019" 
d="M463 1399l-78 -721h-258l-80 721h416zM969 1399l-70 -721h-260l-78 721h408z" />
    <glyph glyph-name="numbersign" unicode="#" horiz-adv-x="1435" 
d="M899 0h-305l108 377h-151l-109 -377h-303l107 377h-211l61 205h209l74 258h-229l63 204h223l103 353h305l-103 -353h152l102 353h303l-102 -353h207l-62 -204h-202l-74 -258h223l-63 -205h-219zM760 582l74 258h-152l-74 -258h152z" />
    <glyph glyph-name="dollar" unicode="$" horiz-adv-x="1345" 
d="M496 -20q-224 35 -339.5 158.5t-115.5 332.5h508q4 -92 35.5 -129t101.5 -37q53 0 85 23t32 59q0 51 -29 78.5t-112 50.5l-236 62q-63 17 -108 34t-97 49.5t-84.5 73t-54 104t-21.5 144.5q0 172 106 282.5t304 147.5v238h336v-228q461 -58 469 -479h-488q0 148 -112 148
q-55 0 -86 -24t-31 -67q0 -42 29 -66.5t100 -41.5l182 -41q112 -26 190 -59t135.5 -83t84.5 -120t27 -164q0 -394 -476 -451v-270h-335v275z" />
    <glyph glyph-name="percent" unicode="%" horiz-adv-x="1976" 
d="M313 997q0 -237 107 -237q104 0 104 237q0 236 -104 236q-107 0 -107 -236zM786 997q0 -213 -93.5 -321.5t-272.5 -108.5q-180 0 -274.5 108.5t-94.5 321.5q0 212 94.5 321t274.5 109q178 0 272 -109t94 -321zM1481 1427l-756 -1456h-229l753 1456h232zM1452 401
q0 -237 107 -237q104 0 104 237q0 236 -104 236q-107 0 -107 -236zM1925 401q0 -213 -93.5 -321.5t-272.5 -108.5q-180 0 -274.5 108.5t-94.5 321.5q0 212 94.5 321t274.5 109q178 0 272 -109t94 -321z" />
    <glyph glyph-name="ampersand" unicode="&#x26;" horiz-adv-x="1566" 
d="M1137 0l-72 80q-199 -111 -428 -111q-277 0 -436.5 119t-159.5 350q0 126 72 233t219 167q-55 41 -88.5 77t-56.5 94.5t-23 133.5q0 109 72 195.5t197 134t278 47.5q216 0 353.5 -102t137.5 -259q0 -105 -84 -219.5t-215 -177.5l174 -191q45 85 45 222h396
q-20 -283 -189 -496l270 -297h-462zM688 975q131 82 131 162q0 44 -33.5 74t-87.5 30t-88.5 -30t-34.5 -74q0 -71 113 -162zM504 428q0 -65 45.5 -103t114.5 -38q80 0 165 51l-239 264q-49 -37 -67.5 -77t-18.5 -97z" />
    <glyph glyph-name="quotesingle" unicode="'" horiz-adv-x="512" 
d="M465 1399l-78 -721h-260l-80 721h418z" />
    <glyph glyph-name="parenleft" unicode="(" horiz-adv-x="661" 
d="M305 -240q-148 283 -202 491.5t-54 422.5q0 407 256 862h328q-90 -240 -133 -448.5t-43 -419.5q0 -476 176 -908h-328z" />
    <glyph glyph-name="parenright" unicode=")" horiz-adv-x="661" 
d="M29 -240q94 241 135 476.5t41 431.5q0 215 -42.5 424t-133.5 444h329q254 -457 254 -862q0 -213 -54 -423t-200 -491h-329z" />
    <glyph glyph-name="asterisk" unicode="*" horiz-adv-x="1060" 
d="M123 741l233 226l-321 45l100 311l287 -154l-55 318h327l-55 -318l285 150l102 -309l-321 -47l231 -226l-264 -192l-142 295l-141 -291z" />
    <glyph glyph-name="plus" unicode="+" 
d="M117 666h368v391h316v-391h370v-275h-370v-391h-316v391h-368v275z" />
    <glyph glyph-name="comma" unicode="," horiz-adv-x="616" 
d="M76 33v409h467v-434l-189 -401h-258l148 426h-168z" />
    <glyph glyph-name="hyphen" unicode="-" horiz-adv-x="802" 
d="M721 754v-353h-639v353h639z" />
    <glyph glyph-name="period" unicode="." horiz-adv-x="614" 
d="M541 442v-442h-467v442h467z" />
    <glyph glyph-name="slash" unicode="/" horiz-adv-x="974" 
d="M952 1487l-530 -1487h-395l532 1487h393z" />
    <glyph glyph-name="zero" unicode="0" horiz-adv-x="1396" 
d="M698 295q78 0 110 94t32 316q0 221 -32 311t-110 90t-110.5 -94t-32.5 -316q0 -221 32.5 -311t110.5 -90zM680 -33q-298 0 -460.5 184t-162.5 545t165.5 549.5t475.5 188.5t475.5 -188.5t165.5 -549.5q0 -359 -173 -544t-486 -185z" />
    <glyph glyph-name="one" unicode="1" horiz-adv-x="954" 
d="M29 1147q185 0 262 50t106 202h455v-1399h-492v823h-331v324z" />
    <glyph glyph-name="two" unicode="2" horiz-adv-x="1280" 
d="M55 0q-2 23 -2 61q0 123 23.5 224t63.5 169t91.5 122.5t108.5 91t114 67t108.5 57.5t91.5 56t63.5 68.5t23.5 89.5t-29.5 77t-78.5 27q-135 0 -135 -201h-445q0 250 156 385.5t453 135.5q257 0 408 -103.5t151 -294.5q0 -78 -18.5 -143t-44.5 -109t-71.5 -85t-82.5 -65.5
t-93 -56.5q-41 -23 -109.5 -55t-107 -51t-73.5 -51.5t-43 -69.5h632v-346h-1155z" />
    <glyph glyph-name="three" unicode="3" horiz-adv-x="1308" 
d="M487 494q6 -111 37.5 -162t106.5 -51q64 0 99.5 35t35.5 92q0 73 -37.5 108t-118.5 35h-55v307h43q85 0 120.5 34.5t35.5 111.5q0 114 -119 114q-67 0 -101 -51.5t-34 -142.5h-441q4 239 166.5 374.5t427.5 135.5q130 0 232.5 -22t179.5 -67.5t118.5 -121t41.5 -176.5
q0 -124 -68 -206.5t-196 -111.5v-10q140 -29 215 -114.5t75 -219.5q0 -204 -163 -312t-441 -108q-279 0 -444.5 134t-165.5 395h450z" />
    <glyph glyph-name="four" unicode="4" horiz-adv-x="1380" 
d="M35 272v367l504 760h606v-799h192v-328h-192v-272h-483v272h-627zM401 600h287q0 176 12 422l-18 6z" />
    <glyph glyph-name="five" unicode="5" horiz-adv-x="1327" 
d="M549 434q8 -83 33 -119t86 -36q64 0 90 45t26 137q0 170 -116 170q-45 0 -73.5 -25t-45.5 -84l-490 60l103 817h1018v-338h-619l-41 -238h17q99 111 305 111q115 0 200.5 -33.5t137.5 -96t77 -145t25 -186.5q0 -231 -161.5 -369.5t-450.5 -138.5q-288 0 -447.5 129
t-167.5 340h494z" />
    <glyph glyph-name="six" unicode="6" horiz-adv-x="1327" 
d="M782 971q0 79 -29 121.5t-85 42.5q-42 0 -71.5 -28.5t-43.5 -76t-19.5 -93t-5.5 -95.5q0 -15 1 -37t1 -29h15q40 65 131 98t168 33q215 0 319.5 -118t104.5 -338q0 -226 -162.5 -356t-437.5 -130q-302 0 -456.5 185t-154.5 520q0 185 35 323.5t111 238.5t200 151t297 51
q265 0 408 -122.5t149 -340.5h-475zM664 592q-55 0 -87 -38.5t-32 -109.5q0 -76 32.5 -116.5t88.5 -40.5q55 0 87.5 39t32.5 112t-33.5 113.5t-88.5 40.5z" />
    <glyph glyph-name="seven" unicode="7" horiz-adv-x="1218" 
d="M229 0q46 321 149 568.5t263 480.5h-608v350h1151v-318q-331 -419 -420 -1081h-535z" />
    <glyph glyph-name="eight" unicode="8" horiz-adv-x="1339" 
d="M670 844q60 0 90 38.5t28 96.5q-3 135 -118 135q-61 0 -93 -36.5t-32 -98.5t32 -98.5t93 -36.5zM670 287q63 0 97 37.5t34 105.5t-34 105.5t-97 37.5q-62 0 -93.5 -37t-31.5 -106t31.5 -106t93.5 -37zM670 1434q261 0 423 -105.5t162 -275.5q0 -78 -20 -141.5t-75 -115.5
t-142 -71v-10q135 -35 200.5 -127.5t65.5 -216.5q0 -181 -159 -293.5t-455 -112.5q-298 0 -456.5 112.5t-158.5 293.5q0 124 66 216.5t201 127.5v10q-66 14 -113.5 46.5t-74 78t-38.5 95.5t-12 108q0 170 162.5 275.5t423.5 105.5z" />
    <glyph glyph-name="nine" unicode="9" horiz-adv-x="1325" 
d="M551 428q0 -164 111 -164q42 0 70 26t41 74t17.5 96.5t4.5 114.5q0 32 -2 48h-15q-40 -66 -120 -98.5t-154 -32.5q-445 0 -445 456q0 226 161.5 356t438.5 130q303 0 456 -184.5t153 -520.5q0 -185 -35 -323.5t-110 -239t-199 -151t-297 -50.5q-265 0 -407 122.5
t-148 340.5h479zM664 807q55 0 86.5 38t31.5 109q0 76 -32.5 117t-87.5 41q-56 0 -88.5 -39t-32.5 -112t34 -113.5t89 -40.5z" />
    <glyph glyph-name="colon" unicode=":" horiz-adv-x="630" 
d="M549 426v-426h-467v426h467zM549 1057v-426h-467v426h467z" />
    <glyph glyph-name="semicolon" unicode=";" horiz-adv-x="630" 
d="M549 1057v-426h-467v426h467zM82 33v393h467v-418l-189 -401h-258l148 426h-168z" />
    <glyph glyph-name="less" unicode="&#x3c;" 
d="M1126 1077v-289l-630 -260l630 -260v-291l-981 439v227z" />
    <glyph glyph-name="equal" unicode="=" 
d="M119 881h1055v-265h-1055v265zM119 496h1055v-265h-1055v265z" />
    <glyph glyph-name="greater" unicode="&#x3e;" 
d="M164 -23v291l631 260l-631 260v289l981 -434v-227z" />
    <glyph glyph-name="question" unicode="?" horiz-adv-x="1249" 
d="M33 1008q0 136 43.5 235.5t125.5 159t190.5 87.5t248.5 28q274 0 421.5 -100t147.5 -279q0 -71 -21 -129.5t-55 -99t-75 -76.5t-83 -70t-77 -69.5t-59 -85t-27 -107.5h-410v39q0 81 17 146.5t44.5 107.5t61 76.5t67 59.5t61 48.5t44.5 53t17 63.5q0 45 -26.5 74.5
t-74.5 29.5q-65 0 -98 -42.5t-33 -149.5h-450zM844 416v-416h-467v416h467z" />
    <glyph glyph-name="at" unicode="@" horiz-adv-x="1906" 
d="M973 891q-62 0 -108.5 -51t-67.5 -126t-21 -159q0 -101 33 -158t88 -57q49 0 88.5 37t62 95t34.5 121.5t12 123.5q0 46 -9.5 82.5t-38 64t-73.5 27.5zM1329 541q-10 -38 -10 -99q0 -108 78 -108q95 0 155 102.5t60 308.5q0 134 -48 241t-131 173.5t-190.5 101.5
t-230.5 35q-139 0 -262.5 -51t-215 -141.5t-145 -225t-53.5 -292.5q0 -147 34 -265.5t93 -198t141 -133t175 -77t198 -23.5q293 0 534 152l109 -225q-292 -170 -676 -170q-138 0 -267 34.5t-245 108.5t-202 180t-136.5 258.5t-50.5 333.5q0 205 70.5 382.5t196 306
t309.5 201.5t401 73q182 0 340 -50.5t278 -146t189 -246t69 -338.5q0 -170 -57 -302.5t-156 -221.5q-140 -127 -301 -127q-160 0 -227 152q-58 -80 -133.5 -115t-147.5 -35q-184 0 -281 123t-97 348q0 110 31 208t88.5 173.5t145.5 119.5t195 44q132 0 215 -86l11 70h256z
" />
    <glyph glyph-name="A" unicode="A" horiz-adv-x="1554" 
d="M1100 1487l461 -1487h-531l-57 231h-410l-57 -231h-512l461 1487h645zM784 1102h-20l-113 -486h244z" />
    <glyph glyph-name="B" unicode="B" horiz-adv-x="1409" 
d="M819 1487q267 0 388.5 -98.5t121.5 -298.5q0 -258 -285 -328v-8q149 -12 233.5 -100.5t84.5 -235.5q0 -215 -125 -316.5t-414 -101.5h-721v1487h717zM709 354q73 0 111 31.5t38 89.5q0 121 -147 121h-117v-242h115zM700 903q148 0 148 113q0 117 -148 117h-106v-230h106z
" />
    <glyph glyph-name="C" unicode="C" horiz-adv-x="1480" 
d="M778 -35q-342 0 -534.5 204t-192.5 572q0 370 192.5 575.5t534.5 205.5q593 0 664 -633h-486q-3 241 -174 241q-104 0 -152 -97.5t-48 -291.5q0 -385 200 -385q83 0 128.5 68t45.5 180h488q-64 -639 -666 -639z" />
    <glyph glyph-name="D" unicode="D" horiz-adv-x="1497" 
d="M668 1487q395 0 585.5 -192t190.5 -550q0 -375 -187.5 -560t-588.5 -185h-566v1487h566zM668 377q148 0 205 88.5t57 279.5q0 185 -59 275t-203 90h-70v-733h70z" />
    <glyph glyph-name="E" unicode="E" horiz-adv-x="1249" 
d="M1176 1487v-385h-578v-168h512v-369h-512v-180h578v-385h-1074v1487h1074z" />
    <glyph glyph-name="F" unicode="F" horiz-adv-x="1202" 
d="M1151 1487v-385h-553v-230h516v-385h-516v-487h-496v1487h1049z" />
    <glyph glyph-name="G" unicode="G" horiz-adv-x="1525" 
d="M684 -35q-102 0 -193.5 28.5t-172 89.5t-139 150.5t-92.5 219.5t-34 288q0 371 189 576t530 205q114 0 212 -18t183.5 -59t146.5 -102.5t95.5 -153t34.5 -206.5h-481q-19 88 -60 125t-119 37q-108 0 -158.5 -98t-50.5 -306q0 -202 48.5 -304.5t152.5 -102.5
q84 0 126.5 42.5t66.5 143.5h-176v346h651v-866h-422v111q-72 -76 -149.5 -111t-188.5 -35z" />
    <glyph glyph-name="H" unicode="H" horiz-adv-x="1511" 
d="M598 1487v-529h315v529h496v-1487h-496v557h-315v-557h-496v1487h496z" />
    <glyph glyph-name="I" unicode="I" horiz-adv-x="704" 
d="M102 1487h500v-1487h-500v1487z" />
    <glyph glyph-name="J" unicode="J" horiz-adv-x="915" 
d="M285 -23q-134 0 -262 25v385q55 -14 110 -14q49 0 83 14t55 38.5t33 68t16 93.5t4 124v776h499v-928q0 -103 -12.5 -183.5t-48 -158t-94 -128.5t-155.5 -81.5t-228 -30.5z" />
    <glyph glyph-name="K" unicode="K" horiz-adv-x="1423" 
d="M598 1487q-5 -481 -8 -574h16l279 574h520l-381 -699l432 -788h-555l-295 627h-16q8 -341 8 -627h-496v1487h496z" />
    <glyph glyph-name="L" unicode="L" horiz-adv-x="1173" 
d="M598 1487v-1094h557v-393h-1053v1487h496z" />
    <glyph glyph-name="M" unicode="M" horiz-adv-x="1986" 
d="M836 1487l67 -432q46 -317 84 -523h21q13 67 42 264t35 259l66 432h733v-1487h-397v410q0 418 6 645h-20l-211 -1055h-545l-215 1055h-21q11 -416 11 -645v-410h-390v1487h734z" />
    <glyph glyph-name="N" unicode="N" horiz-adv-x="1574" 
d="M815 1487l250 -998h20q-8 105 -15 288t-7 280v430h410v-1487h-703l-250 997h-20q14 -334 14 -581v-416h-412v1487h713z" />
    <glyph glyph-name="O" unicode="O" horiz-adv-x="1566" 
d="M788 -35q-356 0 -546.5 205t-190.5 571q0 367 191 574t546 207q352 0 540 -205t188 -572t-188 -573.5t-540 -206.5zM788 354q106 0 153.5 97.5t47.5 293.5t-47.5 292t-153.5 96q-210 0 -210 -392q0 -387 210 -387z" />
    <glyph glyph-name="P" unicode="P" horiz-adv-x="1372" 
d="M733 1487q284 0 450.5 -134t166.5 -386t-166.5 -386.5t-450.5 -134.5h-145v-446h-486v1487h631zM659 815q102 0 152.5 35t50.5 117t-50.5 116.5t-152.5 34.5h-71v-303h71z" />
    <glyph glyph-name="Q" unicode="Q" horiz-adv-x="1564" 
d="M1169 47q-167 -82 -376 -82q-345 0 -544.5 207.5t-199.5 568.5q0 362 200 571.5t544 209.5q339 0 529.5 -206.5t190.5 -570.5q0 -319 -124 -501l120 -109l-198 -221zM793 342q9 0 33 5t26 5l-156 131l203 222l86 -74q10 58 10 112q0 198 -46.5 294t-155.5 96t-167.5 -106
t-58.5 -298q0 -190 58 -288.5t168 -98.5z" />
    <glyph glyph-name="R" unicode="R" horiz-adv-x="1423" 
d="M782 1487q543 0 543 -397q0 -67 -17 -128.5t-51 -115.5t-94 -89.5t-139 -43.5l-4 -17q30 -1 57 -8.5t47.5 -17t39 -26.5t32 -31.5t26.5 -39.5t21 -42.5t18 -47.5t15.5 -48t14.5 -51t14 -50l98 -334h-518l-41 180q-43 196 -49 217q-23 77 -63 99q-31 16 -87 16h-57v-512
h-486v1487h680zM639 868q106 0 152.5 31.5t46.5 108.5q0 71 -47 96.5t-156 25.5h-47v-262h51z" />
    <glyph glyph-name="S" unicode="S" horiz-adv-x="1384" 
d="M690 -35q-300 0 -472.5 145.5t-172.5 393.5h512q5 -97 34.5 -139.5t102.5 -42.5q65 0 99 26t34 64q0 48 -28 70.5t-113 49.5l-252 78q-368 111 -368 447q0 212 167 338.5t455 126.5q128 0 235.5 -30t193.5 -90.5t136 -163t52 -237.5h-492q0 86 -25 125t-98 39
q-60 0 -91.5 -24t-31.5 -66q0 -41 28 -64.5t101 -43.5l199 -58q90 -26 154 -52.5t121 -65t91.5 -86t54 -113.5t19.5 -150q0 -226 -162.5 -351.5t-482.5 -125.5z" />
    <glyph glyph-name="T" unicode="T" horiz-adv-x="1316" 
d="M18 1094v393h1280v-393h-393v-1094h-495v1094h-392z" />
    <glyph glyph-name="U" unicode="U" horiz-adv-x="1486" 
d="M748 -35q-322 0 -490 154t-168 465v903h496v-879q0 -144 37.5 -199t119.5 -55q81 0 119.5 55.5t38.5 198.5v879h496v-903q0 -311 -165.5 -465t-483.5 -154z" />
    <glyph glyph-name="V" unicode="V" horiz-adv-x="1433" 
d="M520 1487l117 -586q12 -60 39.5 -204.5t44.5 -225.5h20l84 430l119 586h490l-385 -1487h-664l-385 1487h520z" />
    <glyph glyph-name="W" unicode="W" horiz-adv-x="2127" 
d="M483 1487l90 -637q23 -163 35 -334h21q37 234 49 334l88 637h659l91 -637q20 -143 30 -334h21q10 143 37 334l94 637h418l-279 -1487h-606l-94 657q-22 157 -37 318h-21q-20 -154 -43 -318l-98 -657h-651l-269 1487h465z" />
    <glyph glyph-name="X" unicode="X" horiz-adv-x="1431" 
d="M16 1487h562l145 -389h18l144 389h530l-395 -699l438 -788h-563l-180 434h-17l-182 -434h-541l433 772z" />
    <glyph glyph-name="Y" unicode="Y" horiz-adv-x="1357" 
d="M-16 1487h520l182 -516h14l164 516h512l-438 -973v-514h-518v510z" />
    <glyph glyph-name="Z" unicode="Z" horiz-adv-x="1284" 
d="M653 1094h-567v393h1114v-402l-588 -692h623v-393h-1180v403z" />
    <glyph glyph-name="bracketleft" unicode="[" horiz-adv-x="768" 
d="M98 1516h635v-263h-235v-1210h235v-264h-635v1737z" />
    <glyph glyph-name="backslash" unicode="\" horiz-adv-x="974" 
d="M553 0l-530 1487h393l532 -1487h-395z" />
    <glyph glyph-name="bracketright" unicode="]" horiz-adv-x="768" 
d="M35 43h235v1210h-235v263h635v-1737h-635v264z" />
    <glyph glyph-name="asciicircum" unicode="^" 
d="M1104 623h-266l-191 510l-192 -510h-271l351 864h221z" />
    <glyph glyph-name="underscore" unicode="_" horiz-adv-x="976" 
d="M0 -37h977v-215h-977v215z" />
    <glyph glyph-name="grave" unicode="`" horiz-adv-x="1304" 
d="M203 1487h442l213 -303h-350z" />
    <glyph glyph-name="a" unicode="a" horiz-adv-x="1241" 
d="M412 -25q-76 0 -141 19t-116 57.5t-80.5 103t-29.5 148.5q0 95 43.5 164t128 110.5t194 63t257.5 27.5l43 2v51q0 115 -101 115q-104 0 -104 -123h-430q0 377 573 377q149 0 249.5 -29t160.5 -92.5t85 -154.5t25 -224v-590h-419v123q-53 -75 -143 -111.5t-195 -36.5z
M606 238q44 0 74.5 28.5t30.5 79.5v123l-39 -2q-172 -12 -172 -137q0 -48 29.5 -70t76.5 -22z" />
    <glyph glyph-name="b" unicode="b" horiz-adv-x="1302" 
d="M829 -23q-205 0 -307 129v-106h-438v1487h467v-516q56 54 121.5 81t167.5 27q184 0 299.5 -145t115.5 -402q0 -259 -118 -407t-308 -148zM649 793q-62 0 -88 -62.5t-26 -198.5q0 -137 26 -201.5t88 -64.5t88.5 64.5t26.5 201.5q0 136 -26.5 198.5t-88.5 62.5z" />
    <glyph glyph-name="c" unicode="c" horiz-adv-x="1234" 
d="M528 528q0 -136 29 -194t86 -58q42 0 62.5 39.5t25.5 122.5h469q-63 -469 -557 -469q-277 0 -438.5 150.5t-161.5 408.5t162 410t438 152q495 0 557 -459h-469q-4 82 -24.5 116.5t-63.5 34.5q-57 0 -86 -59t-29 -195z" />
    <glyph glyph-name="d" unicode="d" horiz-adv-x="1302" 
d="M473 -23q-190 0 -308 148t-118 407q0 257 116.5 402t299.5 145q182 0 289 -104v512h467v-1487h-439v106q-53 -73 -129 -101t-178 -28zM653 793q-62 0 -88 -62.5t-26 -198.5q0 -137 26 -201.5t88 -64.5t88.5 64.5t26.5 201.5q0 136 -26.5 198.5t-88.5 62.5z" />
    <glyph glyph-name="e" unicode="e" horiz-adv-x="1267" 
d="M633 -33q-282 0 -436 148.5t-154 408.5t157 413t433 153q290 0 440 -148.5t150 -417.5q0 -46 -9 -96h-692q0 -101 24.5 -145.5t88.5 -44.5q86 0 115 102h464q-38 -123 -104 -202.5t-185 -125t-292 -45.5zM758 672q0 71 -25.5 109t-93.5 38q-53 0 -85 -41.5t-32 -105.5
h236z" />
    <glyph glyph-name="f" unicode="f" horiz-adv-x="837" 
d="M23 745v312h147v33q0 99 22.5 173t60.5 120t94.5 74.5t117.5 39t137 10.5q69 0 221 -20v-291q-25 8 -69 8q-60 -2 -88.5 -34t-28.5 -113h186v-312h-186v-745h-467v745h-147z" />
    <glyph glyph-name="g" unicode="g" horiz-adv-x="1302" 
d="M635 -420q-519 0 -529 375h453q0 -61 24.5 -93t63.5 -32q107 0 107 125v186q-103 -106 -279 -106q-185 0 -305.5 136.5t-120.5 379.5q0 246 126 387t317 141q108 0 176 -29t125 -98v105h428v-955q0 -265 -137 -393.5t-449 -128.5zM655 324q61 0 87 60.5t26 182.5
q0 118 -25.5 172t-87.5 54q-61 0 -86.5 -56.5t-25.5 -177.5q0 -120 25.5 -177.5t86.5 -57.5z" />
    <glyph glyph-name="h" unicode="h" 
d="M84 1487h467v-526q121 118 295 118q113 0 187 -31.5t113 -98.5t53.5 -150.5t14.5 -208.5v-590h-466v573q0 49 -3 79t-12 57.5t-27.5 40t-48.5 12.5q-60 0 -83 -41.5t-23 -122.5v-598h-467v1487z" />
    <glyph glyph-name="i" unicode="i" horiz-adv-x="634" 
d="M84 1057h467v-1057h-467v1057zM84 1487h467v-344h-467v344z" />
    <glyph glyph-name="j" unicode="j" horiz-adv-x="636" 
d="M59 -410q-74 0 -186 17v323q23 -6 68 -6q82 0 113.5 53.5t31.5 155.5v924h467v-1051q0 -96 -26 -169t-70 -119.5t-108 -75.5t-134.5 -40.5t-155.5 -11.5zM553 1487v-344h-467v344h467z" />
    <glyph glyph-name="k" unicode="k" horiz-adv-x="1255" 
d="M551 1487v-430q0 -190 -8 -365h16l182 365h498l-281 -484l330 -573h-532l-197 422h-16q8 -150 8 -422h-467v1487h467z" />
    <glyph glyph-name="l" unicode="l" horiz-adv-x="634" 
d="M84 1487h467v-1487h-467v1487z" />
    <glyph glyph-name="m" unicode="m" horiz-adv-x="1925" 
d="M1386 573q0 97 -17.5 143t-70.5 46q-62 0 -81 -45t-19 -144v-573h-463v573q0 97 -17.5 143t-70.5 46q-62 0 -81 -45t-19 -144v-573h-463v1057h438v-119q55 64 139 102.5t175 38.5q130 0 198 -37.5t107 -115.5q103 153 350 153q92 0 156.5 -22t104 -60t61 -102.5t29 -134
t7.5 -170.5v-590h-463v573z" />
    <glyph glyph-name="n" unicode="n" horiz-adv-x="1288" 
d="M846 1079q79 0 138 -14t99 -44.5t65.5 -69.5t39.5 -97.5t19 -119t5 -144.5v-590h-467v580q0 101 -17 141.5t-75 40.5q-59 0 -80.5 -42.5t-21.5 -139.5v-580h-467v1057h440v-119q57 65 141.5 103t180.5 38z" />
    <glyph glyph-name="o" unicode="o" horiz-adv-x="1294" 
d="M647 268q62 0 88.5 64t26.5 200t-26.5 198.5t-88.5 62.5t-88.5 -62.5t-26.5 -198.5t26.5 -200t88.5 -64zM649 1090q284 0 443 -149.5t159 -408.5q0 -260 -161.5 -412.5t-442.5 -152.5t-442.5 152.5t-161.5 412.5q0 258 160.5 408t445.5 150z" />
    <glyph glyph-name="p" unicode="p" horiz-adv-x="1302" 
d="M829 1079q190 0 308 -148t118 -407q0 -257 -115.5 -402t-299.5 -145q-181 0 -289 105v-475h-467v1450h438v-107q53 73 129 101t178 28zM649 793q-62 0 -88 -62.5t-26 -198.5q0 -137 26 -201.5t88 -64.5t88.5 64.5t26.5 201.5q0 136 -26.5 198.5t-88.5 62.5z" />
    <glyph glyph-name="q" unicode="q" horiz-adv-x="1302" 
d="M473 1079q102 0 178 -28t129 -101v107h439v-1450h-467v475q-108 -105 -289 -105q-184 0 -300 145t-116 402q0 259 118 407t308 148zM651 793q-62 0 -88 -62.5t-26 -198.5q0 -137 26 -201.5t88 -64.5t88.5 64.5t26.5 201.5q0 136 -26.5 198.5t-88.5 62.5z" />
    <glyph glyph-name="r" unicode="r" horiz-adv-x="921" 
d="M502 1057v-160q75 176 301 176q59 0 100 -8v-381q-68 10 -110 10q-117 0 -176.5 -63t-65.5 -211v-420h-467v1057h418z" />
    <glyph glyph-name="s" unicode="s" horiz-adv-x="1196" 
d="M588 -33q-102 0 -183 11t-151 37t-116.5 68t-72.5 105.5t-26 147.5h455q1 -60 30 -87.5t84 -27.5q107 0 107 74q0 30 -17.5 49.5t-72.5 30.5l-250 51q-54 11 -95 24.5t-84.5 39t-72 59.5t-46.5 86.5t-18 118.5q0 163 144 249.5t397 86.5q525 0 533 -361h-426
q0 107 -103 107q-44 0 -72 -17t-28 -51q0 -35 30.5 -52t110.5 -36l238 -51q270 -58 270 -324q0 -111 -76 -188.5t-201 -113.5t-288 -36z" />
    <glyph glyph-name="t" unicode="t" horiz-adv-x="854" 
d="M582 -16q-79 0 -139 11t-114 39t-88.5 74t-54.5 120t-20 173v344h-152v312h152v286h467v-286h184v-312h-184v-315q0 -62 22 -88.5t80 -26.5q47 0 82 9v-324q-141 -16 -235 -16z" />
    <glyph glyph-name="u" unicode="u" horiz-adv-x="1288" 
d="M442 -23q-68 0 -121 11.5t-91 31.5t-65.5 53t-44.5 71t-27 91.5t-13.5 107t-3.5 124.5v590h467v-580q0 -100 18 -141t76 -41q59 0 79.5 42t20.5 140v580h467v-1057h-440v119q-57 -65 -141.5 -103.5t-180.5 -38.5z" />
    <glyph glyph-name="v" unicode="v" horiz-adv-x="1269" 
d="M537 1057l57 -385l43 -275h20l43 275l58 385h508l-308 -1057h-647l-307 1057h533z" />
    <glyph glyph-name="w" unicode="w" horiz-adv-x="1890" 
d="M465 1057q11 -103 38.5 -314t39.5 -331h20q43 308 109 645h590q63 -320 108 -645h21q12 120 39 331t38 314h406l-213 -1057h-612l-9 51q-6 40 -29 172.5t-35 219t-20 180.5h-20q-8 -79 -21.5 -168.5t-22.5 -140t-30.5 -165t-27.5 -149.5h-605l-213 1057h449z" />
    <glyph glyph-name="x" unicode="x" horiz-adv-x="1232" 
d="M31 1057h493l97 -318h16l90 318h477l-256 -525l295 -532h-508l-125 299h-16l-113 -299h-491l295 532z" />
    <glyph glyph-name="y" unicode="y" horiz-adv-x="1251" 
d="M369 -414q-94 0 -226 21v305q39 -6 74 -6q57 0 88 18t31 74q0 26 -15 81.5t-92.5 289t-234.5 688.5h532l58 -385q7 -38 21 -133t22 -142h20q8 47 22 142t21 133l58 385h503l-307 -1000q-53 -173 -121.5 -273t-177.5 -149t-276 -49z" />
    <glyph glyph-name="z" unicode="z" horiz-adv-x="1136" 
d="M502 750h-432v307h993v-299l-461 -451h500v-307h-1057v305z" />
    <glyph glyph-name="braceleft" unicode="{" horiz-adv-x="772" 
d="M317 639q68 -13 114 -35.5t73 -51t41 -74.5t18 -90.5t4 -115.5v-100q0 -33 1 -51.5t5.5 -42t14.5 -36t27.5 -24.5t44.5 -17t65 -5h16v-221q-13 0 -29 -1t-28 -1q-263 0 -374 83t-111 296v145q0 117 -46.5 174t-158.5 74v200q112 17 158.5 74t46.5 174v146
q0 211 115.5 295t369.5 84q12 0 28 -1t29 -1v-222h-16q-38 0 -65 -5t-44.5 -17t-27.5 -24.5t-14.5 -36t-5.5 -42t-1 -51.5v-98q0 -70 -4 -114.5t-18 -91.5t-41 -76t-73.5 -52.5t-113.5 -34.5v-12z" />
    <glyph glyph-name="bar" unicode="|" horiz-adv-x="538" 
d="M98 0v1487h342v-1487h-342z" />
    <glyph glyph-name="braceright" unicode="}" horiz-adv-x="772" 
d="M455 651q-67 11 -113.5 34.5t-73.5 52.5t-41 76t-18 91.5t-4 114.5v98q0 33 -1 51.5t-5.5 42t-14.5 36t-27.5 24.5t-44.5 17t-65 5h-16v222q13 0 29 1t28 1q254 0 369.5 -84t115.5 -295v-146q0 -117 46.5 -174t158.5 -74v-200q-112 -17 -158.5 -74t-46.5 -174v-145
q0 -213 -111 -296t-374 -83q-12 0 -28 1t-29 1v221h16q38 0 65 5t44.5 17t27.5 24.5t14.5 36t5.5 42t1 51.5v100q0 71 4 115.5t18 90.5t41 74.5t73 51t114 35.5v12z" />
    <glyph glyph-name="asciitilde" unicode="~" 
d="M860 344q-56 2 -133 37.5t-152 69.5t-129 34q-113 0 -186 -141l-168 174q132 232 336 232q46 0 105 -22.5t106.5 -49.5t104.5 -49.5t100 -22.5q110 0 176 146l176 -177q-135 -231 -336 -231z" />
    <glyph glyph-name="uni00A0" unicode="&#xa0;" horiz-adv-x="409" 
 />
    <glyph glyph-name="exclamdown" unicode="&#xa1;" horiz-adv-x="643" 
d="M88 680v418h467v-418h-467zM584 -389h-525l72 983h383z" />
    <glyph glyph-name="cent" unicode="&#xa2;" horiz-adv-x="1236" 
d="M465 207q-199 44 -306.5 183.5t-107.5 354.5t108 357.5t306 189.5v224h336v-220q345 -64 397 -436h-459q-10 81 -32.5 112.5t-65.5 31.5q-106 0 -106 -259q0 -249 106 -249q44 0 65.5 35.5t32.5 123.5h459q-20 -185 -120.5 -300t-276.5 -152v-234h-336v238z" />
    <glyph glyph-name="sterling" unicode="&#xa3;" horiz-adv-x="1370" 
d="M82 350q62 3 92 19t43.5 58t13.5 126h-170v311h170v54q0 512 584 512q237 0 371.5 -120t138.5 -345h-426q-4 71 -30 102t-78 31q-42 0 -70.5 -33t-28.5 -82v-119h271v-311h-271q0 -83 -14.5 -122.5t-54.5 -84.5h682v-346h-1223v350z" />
    <glyph glyph-name="currency" unicode="&#xa4;" horiz-adv-x="1196" 
d="M156 614q0 101 37 174l-152 146l229 221l138 -160q99 45 190 45q92 0 188 -45l140 160l229 -221l-151 -146q36 -77 36 -174q0 -96 -36 -176l151 -143l-229 -221l-140 159q-96 -45 -188 -45q-91 0 -190 45l-138 -159l-229 221l152 143q-37 75 -37 176zM471 614
q0 -64 33 -103.5t94 -39.5t94 39.5t33 103.5t-33 104t-94 40t-94 -40t-33 -104z" />
    <glyph glyph-name="yen" unicode="&#xa5;" horiz-adv-x="1409" 
d="M965 0h-519v283h-315v247h299l-41 88h-258v248h143l-235 533h522l154 -502h14l156 502h489l-237 -533h135v-248h-252l-41 -88h293v-247h-307v-283z" />
    <glyph glyph-name="brokenbar" unicode="&#xa6;" horiz-adv-x="538" 
d="M98 0v606h342v-606h-342zM98 819v606h342v-606h-342z" />
    <glyph glyph-name="section" unicode="&#xa7;" horiz-adv-x="1216" 
d="M489 111q3 -115 113 -115q49 0 74.5 21.5t25.5 58.5q0 31 -25.5 53.5t-90.5 46.5l-197 74q-183 70 -263.5 152t-80.5 227q0 104 55 179.5t154 104.5q-115 71 -115 209q0 146 133 236t342 90q211 0 336.5 -94t132.5 -258h-381q-10 96 -104 96q-41 0 -65.5 -18.5
t-24.5 -49.5t18 -48.5t62 -35.5l174 -65q168 -63 254.5 -118.5t119.5 -117.5t33 -159q0 -185 -163 -273q60 -46 85 -97t25 -120q0 -102 -67 -182t-183 -124t-260 -44q-219 0 -363.5 103.5t-144.5 267.5h391zM797 432q37 40 37 84q0 60 -46 95t-190 96l-170 69
q-20 -27 -27.5 -43t-7.5 -41q0 -62 43.5 -95t204.5 -101z" />
    <glyph glyph-name="dieresis" unicode="&#xa8;" 
d="M733 1487h385v-336h-385v336zM172 1487h385v-336h-385v336z" />
    <glyph glyph-name="copyright" unicode="&#xa9;" horiz-adv-x="1642" 
d="M246 741q0 -125 47 -236.5t126 -189.5t184 -123t218 -45t218.5 45t184 123t126 189.5t47.5 236.5q0 166 -80.5 303t-212 212t-283.5 75q-113 0 -218 -44.5t-184 -121.5t-126 -188t-47 -236zM47 741q0 212 101 389t279 280t394 103t394 -103t279 -280t101 -389
q0 -213 -101 -391t-279 -281.5t-394 -103.5t-394 103.5t-279 281.5t-101 391zM1225 623q-20 -166 -125 -262.5t-269 -96.5q-192 0 -306.5 128.5t-114.5 342.5q0 209 117 335t309 126q158 0 265 -97t124 -255h-234q-24 174 -157 174q-94 0 -141.5 -74.5t-47.5 -208.5
q0 -140 46 -216.5t138 -76.5q135 0 162 181h234z" />
    <glyph glyph-name="ordfeminine" unicode="&#xaa;" horiz-adv-x="862" 
d="M291 664q-110 0 -183 59.5t-73 181.5q0 123 121.5 196t373.5 73v53q0 104 -102 104q-45 0 -75.5 -26t-37.5 -74h-249q4 128 104 204t256 76q108 0 178 -20.5t109.5 -67.5t55 -111.5t15.5 -162.5v-262q0 -129 19 -201h-236q-8 23 -8 96q-81 -118 -268 -118zM395 838
q65 0 100 40.5t35 108.5v39q-239 0 -239 -106q0 -33 25.5 -57.5t78.5 -24.5z" />
    <glyph glyph-name="guillemotleft" unicode="&#xab;" horiz-adv-x="1202" 
d="M623 963l-197 -416l197 -414h-363l-225 414l225 416h363zM1155 963l-197 -416l197 -414h-362l-226 414l226 416h362z" />
    <glyph glyph-name="logicalnot" unicode="&#xac;" 
d="M127 838h1016v-666h-316v391h-700v275z" />
    <glyph glyph-name="uni00AD" unicode="&#xad;" horiz-adv-x="802" 
d="M721 754v-353h-639v353h639z" />
    <glyph glyph-name="registered" unicode="&#xae;" horiz-adv-x="1642" 
d="M844 1190q154 0 234.5 -60.5t80.5 -191.5q0 -77 -50 -135t-124 -76v-10q30 -2 52 -15t37 -39.5t24 -50t21 -63.5q1 -5 2.5 -9t2.5 -8l64 -231h-225l-54 180q-15 51 -27 79t-30 41t-32.5 15t-47.5 2h-45v-317h-221v889h338zM799 807q70 0 103.5 25t33.5 83q0 59 -31 83
t-104 24h-74v-215h72zM246 741q0 -125 47 -236.5t126 -189.5t184 -123t218 -45t218.5 45t184 123t126 189.5t47.5 236.5q0 166 -80.5 303t-212 212t-283.5 75q-113 0 -218 -44.5t-184 -121.5t-126 -188t-47 -236zM47 741q0 212 101 389t279 280t394 103t394 -103t279 -280
t101 -389q0 -213 -101 -391t-279 -281.5t-394 -103.5t-394 103.5t-279 281.5t-101 391z" />
    <glyph glyph-name="overscore" unicode="&#xaf;" horiz-adv-x="1216" 
d="M276 1456h664v-280h-664v280z" />
    <glyph glyph-name="degree" unicode="&#xb0;" horiz-adv-x="782" 
d="M244 1067q0 -65 41 -114.5t106 -49.5t106.5 49.5t41.5 114.5t-41.5 114.5t-106.5 49.5t-106 -49.5t-41 -114.5zM31 1067q0 152 99 256t261 104t261.5 -104t99.5 -256t-99.5 -256t-261.5 -104t-261 104t-99 256z" />
    <glyph glyph-name="plusminus" unicode="&#xb1;" 
d="M156 244h977v-244h-977v244zM156 881h340v331h295v-331h342v-246h-342v-332h-295v332h-340v246z" />
    <glyph glyph-name="twosuperior" unicode="&#xb2;" horiz-adv-x="796" 
d="M51 979v61q0 66 23.5 119.5t61 89t83 64.5t91 53.5t83 49.5t61 58.5t23.5 73.5q0 35 -21.5 56.5t-56.5 21.5q-43 0 -66.5 -31t-27.5 -102h-254q2 154 90.5 235.5t264.5 81.5q165 0 249 -66.5t84 -180.5q0 -58 -22 -106t-64 -86t-83 -66t-101 -65t-96 -64v-7h366v-190
h-688z" />
    <glyph glyph-name="threesuperior" unicode="&#xb3;" horiz-adv-x="811" 
d="M303 1253q0 -58 26 -88t72 -30q43 0 70 23.5t27 58.5q0 37 -28 54t-89 17h-43v187h47q59 0 81.5 15.5t22.5 53.5q0 74 -88 74q-96 0 -96 -115h-254q0 153 91.5 230t258.5 77q347 0 347 -235q0 -54 -39.5 -110t-96.5 -70v-6q58 -8 102 -60.5t44 -118.5q0 -127 -91 -193.5
t-257 -66.5q-184 0 -273.5 71t-89.5 232h256z" />
    <glyph glyph-name="acute" unicode="&#xb4;" horiz-adv-x="1300" 
d="M678 1487h438l-305 -303h-346z" />
    <glyph glyph-name="mu" unicode="&#xb5;" horiz-adv-x="1396" 
d="M561 451q0 -79 19 -117.5t71 -38.5q63 0 85 46t22 142v574h467v-674q0 -51 16.5 -69.5t48.5 -18.5q31 0 58 8v-295q-99 -24 -207 -24q-183 0 -258 86q-12 10 -23 28q-52 -106 -178 -106q-83 0 -121 28v-411h-467v1448h467v-606z" />
    <glyph glyph-name="paragraph" unicode="&#xb6;" horiz-adv-x="1421" 
d="M903 -264v1462h-125v-1462h-336v739q-188 20 -297.5 160.5t-109.5 341.5q0 159 68.5 276t183.5 175.5t260 58.5h815v-289h-121v-1462h-338z" />
    <glyph glyph-name="middot" unicode="&#xb7;" horiz-adv-x="626" 
d="M547 918v-443h-467v443h467z" />
    <glyph glyph-name="cedilla" unicode="&#xb8;" horiz-adv-x="1255" 
d="M471 -432q-99 0 -143 10v143q9 -4 61 -4q47 0 70.5 21t23.5 53q0 31 -20.5 52.5t-56.5 21.5q-23 0 -37 -2v157h217v-73q76 -7 113.5 -58.5t37.5 -117.5q0 -54 -22.5 -94.5t-61.5 -63.5t-84.5 -34t-97.5 -11z" />
    <glyph glyph-name="onesuperior" unicode="&#xb9;" horiz-adv-x="577" 
d="M33 1475v161q46 0 76.5 2.5t60 11t46.5 24.5t27.5 42.5t10.5 65.5h244v-803h-254v496h-211z" />
    <glyph glyph-name="ordmasculine" unicode="&#xba;" horiz-adv-x="905" 
d="M453 664q-197 0 -307.5 107.5t-110.5 318.5t107 316t311 105t310.5 -105t106.5 -316t-110 -318.5t-307 -107.5zM453 856q70 0 112.5 60.5t42.5 173.5t-42 170t-113 57t-113.5 -57t-42.5 -170t43 -173.5t113 -60.5z" />
    <glyph glyph-name="guillemotright" unicode="&#xbb;" horiz-adv-x="1202" 
d="M942 133h-362l196 414l-196 416h362l225 -416zM410 133h-363l197 414l-197 416h363l225 -416z" />
    <glyph glyph-name="onequarter" unicode="&#xbc;" horiz-adv-x="1708" 
d="M33 1092v161q46 0 76.5 2.5t60 11t46.5 24.5t27.5 42.5t10.5 65.5h244v-803h-254v496h-211zM1249 1427l-755 -1456h-230l754 1456h231zM913 166v190l308 447h315v-447h135v-190h-135v-166h-258v166h-365zM1286 580q-36 -68 -147 -224h157v224h-10z" />
    <glyph glyph-name="onehalf" unicode="&#xbd;" horiz-adv-x="1710" 
d="M33 1092v161q46 0 76.5 2.5t60 11t46.5 24.5t27.5 42.5t10.5 65.5h244v-803h-254v496h-211zM1249 1427l-755 -1456h-230l754 1456h231zM965 0v61q0 66 23.5 119.5t61 89t83 64.5t91 53.5t83 49.5t61 58.5t23.5 73.5q0 35 -21.5 56.5t-56.5 21.5q-43 0 -66.5 -31
t-27.5 -102h-254q2 155 90 236t264 81q165 0 249.5 -66.5t84.5 -180.5q0 -58 -22 -106t-64.5 -86t-83.5 -66t-101 -65t-96 -64v-7h367v-190h-688z" />
    <glyph glyph-name="threequarters" unicode="&#xbe;" horiz-adv-x="1941" 
d="M303 870q0 -58 26 -88t72 -30q43 0 70 23.5t27 58.5q0 37 -28 54t-89 17h-43v187h47q59 0 81.5 15.5t22.5 53.5q0 74 -88 74q-96 0 -96 -115h-254q0 153 91.5 230t258.5 77q347 0 347 -235q0 -54 -39.5 -110t-96.5 -70v-6q58 -8 102 -60.5t44 -118.5q0 -127 -91 -193.5
t-257 -66.5q-184 0 -273.5 71t-89.5 232h256zM1483 1427l-756 -1456h-229l753 1456h232zM1147 166v190l307 447h315v-447h136v-190h-136v-166h-258v166h-364zM1520 580q-16 -31 -39 -67t-36 -55t-41.5 -58.5t-31.5 -43.5h158v224h-10z" />
    <glyph glyph-name="questiondown" unicode="&#xbf;" horiz-adv-x="1243" 
d="M1212 90q0 -136 -43.5 -235.5t-125.5 -159t-190.5 -87.5t-248.5 -28q-274 0 -421.5 100t-147.5 279q0 71 21 129.5t55 99.5t75 77t83 70t77 69.5t59 84.5t27 107h410v-39q0 -81 -17 -146.5t-44.5 -108t-61 -76.5t-67 -59t-61 -48.5t-44.5 -52.5t-17 -64q0 -45 26.5 -74.5
t74.5 -29.5q65 0 98 42.5t33 149.5h450zM401 682v416h467v-416h-467z" />
    <glyph glyph-name="Agrave" unicode="&#xc0;" horiz-adv-x="1554" 
d="M1100 1487l461 -1487h-531l-57 231h-410l-57 -231h-512l461 1487h645zM784 1102h-20l-113 -486h244zM317 1890h457l219 -291h-360z" />
    <glyph glyph-name="Aacute" unicode="&#xc1;" horiz-adv-x="1554" 
d="M1100 1487l461 -1487h-531l-57 231h-410l-57 -231h-512l461 1487h645zM784 1102h-20l-113 -486h244zM791 1890h452l-315 -291h-357z" />
    <glyph glyph-name="Acircumflex" unicode="&#xc2;" horiz-adv-x="1554" 
d="M1100 1487l461 -1487h-531l-57 231h-410l-57 -231h-512l461 1487h645zM784 1102h-20l-113 -486h244zM526 1890h508l228 -299h-349l-133 144l-135 -144h-346z" />
    <glyph glyph-name="Atilde" unicode="&#xc3;" horiz-adv-x="1554" 
d="M1100 1487l461 -1487h-531l-57 231h-410l-57 -231h-512l461 1487h645zM784 1102h-20l-113 -486h244zM360 1579q2 148 63 229.5t171 81.5q56 0 159.5 -36.5t155.5 -36.5q25 0 50.5 18t25.5 55h215q-2 -148 -62.5 -229.5t-170.5 -81.5q-56 0 -160.5 37t-155.5 37
q-25 0 -50.5 -18.5t-25.5 -55.5h-215z" />
    <glyph glyph-name="Adieresis" unicode="&#xc4;" horiz-adv-x="1554" 
d="M1100 1487l461 -1487h-531l-57 231h-410l-57 -231h-512l461 1487h645zM784 1102h-20l-113 -486h244zM862 1890h400v-319h-400v319zM295 1890h399v-319h-399v319z" />
    <glyph glyph-name="Aring" unicode="&#xc5;" horiz-adv-x="1554" 
d="M1100 1487l461 -1487h-531l-57 231h-410l-57 -231h-512l461 1487h645zM784 1102h-20l-113 -486h244zM778 1425q-125 0 -211 75.5t-86 197.5q0 121 86 196.5t211 75.5q123 0 210 -78t87 -194t-87 -194.5t-210 -78.5zM778 1581q54 0 87.5 33t33.5 84q0 54 -33.5 85.5
t-87.5 31.5t-87.5 -31.5t-33.5 -85.5q0 -51 33.5 -84t87.5 -33z" />
    <glyph glyph-name="AE" unicode="&#xc6;" horiz-adv-x="2039" 
d="M1966 1487v-385h-643l25 -168h553v-369h-502l24 -180h543v-385h-979l-37 274h-381l-88 -274h-495l546 1487h1434zM858 1096h-22l-152 -441h215z" />
    <glyph glyph-name="Ccedilla" unicode="&#xc7;" horiz-adv-x="1480" 
d="M778 -35q-342 0 -534.5 204t-192.5 572q0 370 192.5 575.5t534.5 205.5q593 0 664 -633h-486q-3 241 -174 241q-104 0 -152 -97.5t-48 -291.5q0 -385 200 -385q83 0 128.5 68t45.5 180h488q-64 -639 -666 -639zM739 -432q-99 0 -143 10v143q9 -4 61 -4q47 0 71 21t24 53
q0 31 -20.5 52.5t-57.5 21.5q-23 0 -37 -2v137h217v-53q76 -7 114 -58.5t38 -117.5q0 -71 -40.5 -118.5t-98 -66t-128.5 -18.5z" />
    <glyph glyph-name="Egrave" unicode="&#xc8;" horiz-adv-x="1249" 
d="M1176 1487v-385h-578v-168h512v-369h-512v-180h578v-385h-1074v1487h1074zM188 1890h457l219 -291h-360z" />
    <glyph glyph-name="Eacute" unicode="&#xc9;" horiz-adv-x="1249" 
d="M1176 1487v-385h-578v-168h512v-369h-512v-180h578v-385h-1074v1487h1074zM662 1890h452l-315 -291h-357z" />
    <glyph glyph-name="Ecircumflex" unicode="&#xca;" horiz-adv-x="1249" 
d="M1176 1487v-385h-578v-168h512v-369h-512v-180h578v-385h-1074v1487h1074zM397 1890h508l228 -299h-349l-133 144l-135 -144h-346z" />
    <glyph glyph-name="Edieresis" unicode="&#xcb;" horiz-adv-x="1249" 
d="M1176 1487v-385h-578v-168h512v-369h-512v-180h578v-385h-1074v1487h1074zM733 1890h400v-319h-400v319zM166 1890h399v-319h-399v319z" />
    <glyph glyph-name="Igrave" unicode="&#xcc;" horiz-adv-x="704" 
d="M102 1487h500v-1487h-500v1487zM-109 1890h457l219 -291h-360z" />
    <glyph glyph-name="Iacute" unicode="&#xcd;" horiz-adv-x="704" 
d="M102 1487h500v-1487h-500v1487zM365 1890h452l-315 -291h-357z" />
    <glyph glyph-name="Icircumflex" unicode="&#xce;" horiz-adv-x="704" 
d="M102 1487h500v-1487h-500v1487zM100 1890h508l228 -299h-349l-133 144l-135 -144h-346z" />
    <glyph glyph-name="Idieresis" unicode="&#xcf;" horiz-adv-x="704" 
d="M102 1487h500v-1487h-500v1487zM401 1890h390v-319h-390v319zM-86 1890h389v-319h-389v319z" />
    <glyph glyph-name="Eth" unicode="&#xd0;" horiz-adv-x="1579" 
d="M750 1487q395 0 585.5 -192t190.5 -550q0 -375 -187.5 -560t-588.5 -185h-566v598h-143v305h143v584h566zM750 377q148 0 205 88.5t57 279.5q0 185 -59 275t-203 90h-70v-207h160v-305h-160v-221h70z" />
    <glyph glyph-name="Ntilde" unicode="&#xd1;" horiz-adv-x="1574" 
d="M815 1487l250 -998h20q-8 105 -15 288t-7 280v430h410v-1487h-703l-250 997h-20q14 -334 14 -581v-416h-412v1487h713zM377 1579q2 148 62.5 229.5t170.5 81.5q56 0 160 -36.5t156 -36.5q25 0 50 18t25 55h216q-2 -148 -63 -229.5t-171 -81.5q-56 0 -160 37t-155 37
q-25 0 -50.5 -18.5t-25.5 -55.5h-215z" />
    <glyph glyph-name="Ograve" unicode="&#xd2;" horiz-adv-x="1566" 
d="M788 -35q-356 0 -546.5 205t-190.5 571q0 367 191 574t546 207q352 0 540 -205t188 -572t-188 -573.5t-540 -206.5zM788 354q106 0 153.5 97.5t47.5 293.5t-47.5 292t-153.5 96q-210 0 -210 -392q0 -387 210 -387zM326 1890h456l219 -291h-360z" />
    <glyph glyph-name="Oacute" unicode="&#xd3;" horiz-adv-x="1566" 
d="M788 -35q-356 0 -546.5 205t-190.5 571q0 367 191 574t546 207q352 0 540 -205t188 -572t-188 -573.5t-540 -206.5zM788 354q106 0 153.5 97.5t47.5 293.5t-47.5 292t-153.5 96q-210 0 -210 -392q0 -387 210 -387zM799 1890h452l-315 -291h-356z" />
    <glyph glyph-name="Ocircumflex" unicode="&#xd4;" horiz-adv-x="1566" 
d="M788 -35q-356 0 -546.5 205t-190.5 571q0 367 191 574t546 207q352 0 540 -205t188 -572t-188 -573.5t-540 -206.5zM788 354q106 0 153.5 97.5t47.5 293.5t-47.5 292t-153.5 96q-210 0 -210 -392q0 -387 210 -387zM535 1890h507l228 -299h-348l-134 144l-135 -144h-346z
" />
    <glyph glyph-name="Otilde" unicode="&#xd5;" horiz-adv-x="1566" 
d="M788 -35q-356 0 -546.5 205t-190.5 571q0 367 191 574t546 207q352 0 540 -205t188 -572t-188 -573.5t-540 -206.5zM788 354q106 0 153.5 97.5t47.5 293.5t-47.5 292t-153.5 96q-210 0 -210 -392q0 -387 210 -387zM369 1579q2 148 62.5 229.5t170.5 81.5q56 0 160 -36.5
t156 -36.5q25 0 50 18t25 55h215q-2 -148 -62.5 -229.5t-170.5 -81.5q-56 0 -160.5 37t-155.5 37q-25 0 -50 -18.5t-25 -55.5h-215z" />
    <glyph glyph-name="Odieresis" unicode="&#xd6;" horiz-adv-x="1566" 
d="M788 -35q-356 0 -546.5 205t-190.5 571q0 367 191 574t546 207q352 0 540 -205t188 -572t-188 -573.5t-540 -206.5zM788 354q106 0 153.5 97.5t47.5 293.5t-47.5 292t-153.5 96q-210 0 -210 -392q0 -387 210 -387zM870 1890h400v-319h-400v319zM303 1890h399v-319h-399
v319z" />
    <glyph glyph-name="multiply" unicode="&#xd7;" 
d="M920 78l-275 272l-270 -272l-203 201l274 272l-272 272l201 199l270 -272l273 272l202 -199l-274 -274l272 -270z" />
    <glyph glyph-name="Oslash" unicode="&#xd8;" horiz-adv-x="1566" 
d="M1335 1300q181 -206 181 -555q0 -369 -193.5 -574.5t-534.5 -205.5q-194 0 -342 68l-114 -162l-201 133l117 166q-197 200 -197 571q0 370 195 575.5t542 205.5q194 0 355 -76l112 160l197 -140zM782 1143q-117 0 -173 -96t-56 -297q0 -99 6 -154l336 504q-49 43 -113 43
zM786 344q117 0 172.5 95t55.5 296q0 97 -8 162l-340 -506q55 -47 120 -47z" />
    <glyph glyph-name="Ugrave" unicode="&#xd9;" horiz-adv-x="1486" 
d="M748 -35q-322 0 -490 154t-168 465v903h496v-879q0 -144 37.5 -199t119.5 -55q81 0 119.5 55.5t38.5 198.5v879h496v-903q0 -311 -165.5 -465t-483.5 -154zM283 1890h456l219 -291h-360z" />
    <glyph glyph-name="Uacute" unicode="&#xda;" horiz-adv-x="1486" 
d="M748 -35q-322 0 -490 154t-168 465v903h496v-879q0 -144 37.5 -199t119.5 -55q81 0 119.5 55.5t38.5 198.5v879h496v-903q0 -311 -165.5 -465t-483.5 -154zM756 1890h452l-315 -291h-356z" />
    <glyph glyph-name="Ucircumflex" unicode="&#xdb;" horiz-adv-x="1486" 
d="M748 -35q-322 0 -490 154t-168 465v903h496v-879q0 -144 37.5 -199t119.5 -55q81 0 119.5 55.5t38.5 198.5v879h496v-903q0 -311 -165.5 -465t-483.5 -154zM492 1890h507l228 -299h-348l-134 144l-135 -144h-346z" />
    <glyph glyph-name="Udieresis" unicode="&#xdc;" horiz-adv-x="1486" 
d="M748 -35q-322 0 -490 154t-168 465v903h496v-879q0 -144 37.5 -199t119.5 -55q81 0 119.5 55.5t38.5 198.5v879h496v-903q0 -311 -165.5 -465t-483.5 -154zM827 1890h400v-319h-400v319zM260 1890h399v-319h-399v319z" />
    <glyph glyph-name="Yacute" unicode="&#xdd;" horiz-adv-x="1357" 
d="M-16 1487h520l182 -516h14l164 516h512l-438 -973v-514h-518v510zM696 1890h453l-315 -291h-357z" />
    <glyph glyph-name="Thorn" unicode="&#xde;" horiz-adv-x="1392" 
d="M588 1487v-189h145q284 0 450.5 -134t166.5 -386t-166.5 -386t-450.5 -134h-145v-258h-486v1487h486zM659 627q102 0 152.5 34.5t50.5 116.5t-50.5 117t-152.5 35h-71v-303h71z" />
    <glyph glyph-name="germandbls" unicode="&#xdf;" horiz-adv-x="1314" 
d="M748 -8q-48 0 -113 8v303q88 0 122 39.5t34 142.5q0 91 -33 132.5t-123 41.5v312q135 0 135 137q0 113 -111 113q-56 0 -82 -45t-26 -144v-1032h-467v977q0 271 139.5 405t450.5 134q262 0 403.5 -98.5t141.5 -278.5q0 -123 -72 -206t-199 -106v-16q166 -25 244 -119.5
t78 -271.5q0 -210 -139 -319t-383 -109z" />
    <glyph glyph-name="agrave" unicode="&#xe0;" horiz-adv-x="1241" 
d="M412 -25q-76 0 -141 19t-116 57.5t-80.5 103t-29.5 148.5q0 95 43.5 164t128 110.5t194 63t257.5 27.5l43 2v51q0 115 -101 115q-104 0 -104 -123h-430q0 377 573 377q149 0 249.5 -29t160.5 -92.5t85 -154.5t25 -224v-590h-419v123q-53 -75 -143 -111.5t-195 -36.5z
M606 238q44 0 74.5 28.5t30.5 79.5v123l-39 -2q-172 -12 -172 -137q0 -48 29.5 -70t76.5 -22zM193 1487h442l213 -303h-350z" />
    <glyph glyph-name="aacute" unicode="&#xe1;" horiz-adv-x="1241" 
d="M412 -25q-76 0 -141 19t-116 57.5t-80.5 103t-29.5 148.5q0 95 43.5 164t128 110.5t194 63t257.5 27.5l43 2v51q0 115 -101 115q-104 0 -104 -123h-430q0 377 573 377q149 0 249.5 -29t160.5 -92.5t85 -154.5t25 -224v-590h-419v123q-53 -75 -143 -111.5t-195 -36.5z
M606 238q44 0 74.5 28.5t30.5 79.5v123l-39 -2q-172 -12 -172 -137q0 -48 29.5 -70t76.5 -22zM635 1487h438l-305 -303h-346z" />
    <glyph glyph-name="acircumflex" unicode="&#xe2;" horiz-adv-x="1241" 
d="M412 -25q-76 0 -141 19t-116 57.5t-80.5 103t-29.5 148.5q0 95 43.5 164t128 110.5t194 63t257.5 27.5l43 2v51q0 115 -101 115q-104 0 -104 -123h-430q0 377 573 377q149 0 249.5 -29t160.5 -92.5t85 -154.5t25 -224v-590h-419v123q-53 -75 -143 -111.5t-195 -36.5z
M606 238q44 0 74.5 28.5t30.5 79.5v123l-39 -2q-172 -12 -172 -137q0 -48 29.5 -70t76.5 -22zM643 1327l-131 -158h-334l219 318h492l219 -318h-334z" />
    <glyph glyph-name="atilde" unicode="&#xe3;" horiz-adv-x="1241" 
d="M412 -25q-76 0 -141 19t-116 57.5t-80.5 103t-29.5 148.5q0 95 43.5 164t128 110.5t194 63t257.5 27.5l43 2v51q0 115 -101 115q-104 0 -104 -123h-430q0 377 573 377q149 0 249.5 -29t160.5 -92.5t85 -154.5t25 -224v-590h-419v123q-53 -75 -143 -111.5t-195 -36.5z
M606 238q44 0 74.5 28.5t30.5 79.5v123l-39 -2q-172 -12 -172 -137q0 -48 29.5 -70t76.5 -22zM219 1176q22 311 234 311q56 0 159.5 -37t155.5 -37q22 0 44 18.5t22 55.5h225q-22 -311 -234 -311q-56 0 -160 36.5t-155 36.5q-23 0 -44.5 -18t-21.5 -55h-225z" />
    <glyph glyph-name="adieresis" unicode="&#xe4;" horiz-adv-x="1241" 
d="M412 -25q-76 0 -141 19t-116 57.5t-80.5 103t-29.5 148.5q0 95 43.5 164t128 110.5t194 63t257.5 27.5l43 2v51q0 115 -101 115q-104 0 -104 -123h-430q0 377 573 377q149 0 249.5 -29t160.5 -92.5t85 -154.5t25 -224v-590h-419v123q-53 -75 -143 -111.5t-195 -36.5z
M606 238q44 0 74.5 28.5t30.5 79.5v123l-39 -2q-172 -12 -172 -137q0 -48 29.5 -70t76.5 -22zM719 1487h385v-336h-385v336zM158 1487h385v-336h-385v336z" />
    <glyph glyph-name="aring" unicode="&#xe5;" horiz-adv-x="1241" 
d="M412 -25q-76 0 -141 19t-116 57.5t-80.5 103t-29.5 148.5q0 95 43.5 164t128 110.5t194 63t257.5 27.5l43 2v51q0 115 -101 115q-104 0 -104 -123h-430q0 377 573 377q149 0 249.5 -29t160.5 -92.5t85 -154.5t25 -224v-590h-419v123q-53 -75 -143 -111.5t-195 -36.5z
M606 238q44 0 74.5 28.5t30.5 79.5v123l-39 -2q-172 -12 -172 -137q0 -48 29.5 -70t76.5 -22zM631 1141q-120 0 -202.5 72.5t-82.5 189.5t82.5 189.5t202.5 72.5q118 0 201 -75.5t83 -186.5t-83 -186.5t-201 -75.5zM631 1294q48 0 80 31t32 78t-32 77.5t-80 30.5
t-80.5 -30.5t-32.5 -77.5t32.5 -78t80.5 -31z" />
    <glyph glyph-name="ae" unicode="&#xe6;" horiz-adv-x="1875" 
d="M1286 -33q-292 0 -440 158q-153 -150 -391 -150q-116 0 -206.5 32t-148 106.5t-57.5 183.5q0 82 30.5 144t83 102.5t133 67t170 39.5t204.5 18l43 2v51q0 115 -101 115q-102 0 -102 -123h-430q7 83 37 148t76.5 107.5t110.5 70t134.5 39.5t151.5 12q230 0 366 -105
q75 53 155.5 79t186.5 26q139 0 244.5 -41.5t168.5 -117t94.5 -173t31.5 -217.5q0 -63 -8 -107h-686q0 -102 24.5 -149t87.5 -47q89 0 119 106h453q-52 -187 -176.5 -282t-358.5 -95zM1370 672q0 147 -117 147q-53 0 -83.5 -42t-30.5 -105h231zM604 238q44 0 73.5 28
t29.5 80v123l-39 -2q-90 -4 -131 -42t-41 -95q0 -48 30.5 -70t77.5 -22z" />
    <glyph glyph-name="ccedilla" unicode="&#xe7;" horiz-adv-x="1234" 
d="M528 528q0 -136 29 -194t86 -58q42 0 62.5 39.5t25.5 122.5h469q-63 -469 -557 -469q-277 0 -438.5 150.5t-161.5 408.5t162 410t438 152q495 0 557 -459h-469q-4 82 -24.5 116.5t-63.5 34.5q-57 0 -86 -59t-29 -195zM592 -432q-99 0 -143 10v143q9 -4 61 -4
q47 0 70.5 21t23.5 53q0 31 -20.5 52.5t-57.5 21.5q-23 0 -37 -2v157h218v-73q76 -7 113.5 -58.5t37.5 -117.5q0 -54 -22.5 -94.5t-61.5 -63.5t-84.5 -34t-97.5 -11z" />
    <glyph glyph-name="egrave" unicode="&#xe8;" horiz-adv-x="1267" 
d="M633 -33q-282 0 -436 148.5t-154 408.5t157 413t433 153q290 0 440 -148.5t150 -417.5q0 -46 -9 -96h-692q0 -101 24.5 -145.5t88.5 -44.5q86 0 115 102h464q-38 -123 -104 -202.5t-185 -125t-292 -45.5zM758 672q0 71 -25.5 109t-93.5 38q-53 0 -85 -41.5t-32 -105.5
h236zM195 1487h442l213 -303h-350z" />
    <glyph glyph-name="eacute" unicode="&#xe9;" horiz-adv-x="1267" 
d="M633 -33q-282 0 -436 148.5t-154 408.5t157 413t433 153q290 0 440 -148.5t150 -417.5q0 -46 -9 -96h-692q0 -101 24.5 -145.5t88.5 -44.5q86 0 115 102h464q-38 -123 -104 -202.5t-185 -125t-292 -45.5zM758 672q0 71 -25.5 109t-93.5 38q-53 0 -85 -41.5t-32 -105.5
h236zM657 1487h439l-305 -303h-347z" />
    <glyph glyph-name="ecircumflex" unicode="&#xea;" horiz-adv-x="1267" 
d="M633 -33q-282 0 -436 148.5t-154 408.5t157 413t433 153q290 0 440 -148.5t150 -417.5q0 -46 -9 -96h-692q0 -101 24.5 -145.5t88.5 -44.5q86 0 115 102h464q-38 -123 -104 -202.5t-185 -125t-292 -45.5zM758 672q0 71 -25.5 109t-93.5 38q-53 0 -85 -41.5t-32 -105.5
h236zM645 1327l-131 -158h-334l219 318h492l219 -318h-334z" />
    <glyph glyph-name="edieresis" unicode="&#xeb;" horiz-adv-x="1267" 
d="M633 -33q-282 0 -436 148.5t-154 408.5t157 413t433 153q290 0 440 -148.5t150 -417.5q0 -46 -9 -96h-692q0 -101 24.5 -145.5t88.5 -44.5q86 0 115 102h464q-38 -123 -104 -202.5t-185 -125t-292 -45.5zM758 672q0 71 -25.5 109t-93.5 38q-53 0 -85 -41.5t-32 -105.5
h236zM721 1487h385v-336h-385v336zM160 1487h385v-336h-385v336z" />
    <glyph glyph-name="igrave" unicode="&#xec;" horiz-adv-x="634" 
d="M84 1057h467v-1057h-467v1057zM-51 1487h424l182 -303h-336z" />
    <glyph glyph-name="iacute" unicode="&#xed;" horiz-adv-x="634" 
d="M84 1057h467v-1057h-467v1057zM262 1487h424l-270 -303h-336z" />
    <glyph glyph-name="icircumflex" unicode="&#xee;" horiz-adv-x="634" 
d="M84 1057h467v-1057h-467v1057zM90 1487h453l194 -318h-311l-111 154l-108 -154h-309z" />
    <glyph glyph-name="idieresis" unicode="&#xef;" horiz-adv-x="634" 
d="M84 1057h467v-1057h-467v1057zM358 1487h369v-342h-369v342zM-92 1487h368v-342h-368v342z" />
    <glyph glyph-name="eth" unicode="&#xf0;" horiz-adv-x="1298" 
d="M645 -33q-175 0 -309.5 64t-212.5 191.5t-78 301.5q0 239 139 371.5t361 132.5q87 0 143 -20l-139 137l-180 -72l-131 160l163 65q-105 112 -188 189h453l49 -39l172 70l139 -148l-154 -70q208 -203 294.5 -374.5t86.5 -354.5q0 -278 -163 -441t-445 -163zM647 266
q35 0 59 20.5t35.5 59.5t16 81.5t4.5 100.5q0 51 -4.5 90.5t-16 77t-35.5 58t-59 20.5q-37 0 -61.5 -19.5t-35.5 -57.5t-14.5 -76t-3.5 -93q0 -262 115 -262z" />
    <glyph glyph-name="ntilde" unicode="&#xf1;" horiz-adv-x="1288" 
d="M846 1079q79 0 138 -14t99 -44.5t65.5 -69.5t39.5 -97.5t19 -119t5 -144.5v-590h-467v580q0 101 -17 141.5t-75 40.5q-59 0 -80.5 -42.5t-21.5 -139.5v-580h-467v1057h440v-119q57 65 141.5 103t180.5 38zM231 1176q22 311 234 311q56 0 159.5 -37t155.5 -37
q22 0 44 18.5t22 55.5h225q-22 -311 -233 -311q-56 0 -160.5 36.5t-155.5 36.5q-22 0 -43.5 -18t-21.5 -55h-226z" />
    <glyph glyph-name="ograve" unicode="&#xf2;" horiz-adv-x="1294" 
d="M647 268q62 0 88.5 64t26.5 200t-26.5 198.5t-88.5 62.5t-88.5 -62.5t-26.5 -198.5t26.5 -200t88.5 -64zM649 1090q284 0 443 -149.5t159 -408.5q0 -260 -161.5 -412.5t-442.5 -152.5t-442.5 152.5t-161.5 412.5q0 258 160.5 408t445.5 150zM209 1487h442l213 -303h-350z
" />
    <glyph glyph-name="oacute" unicode="&#xf3;" horiz-adv-x="1294" 
d="M647 268q62 0 88.5 64t26.5 200t-26.5 198.5t-88.5 62.5t-88.5 -62.5t-26.5 -198.5t26.5 -200t88.5 -64zM649 1090q284 0 443 -149.5t159 -408.5q0 -260 -161.5 -412.5t-442.5 -152.5t-442.5 152.5t-161.5 412.5q0 258 160.5 408t445.5 150zM672 1487h438l-305 -303h-346
z" />
    <glyph glyph-name="ocircumflex" unicode="&#xf4;" horiz-adv-x="1294" 
d="M647 268q62 0 88.5 64t26.5 200t-26.5 198.5t-88.5 62.5t-88.5 -62.5t-26.5 -198.5t26.5 -200t88.5 -64zM649 1090q284 0 443 -149.5t159 -408.5q0 -260 -161.5 -412.5t-442.5 -152.5t-442.5 152.5t-161.5 412.5q0 258 160.5 408t445.5 150zM659 1327l-131 -158h-333
l219 318h491l219 -318h-333z" />
    <glyph glyph-name="otilde" unicode="&#xf5;" horiz-adv-x="1294" 
d="M647 268q62 0 88.5 64t26.5 200t-26.5 198.5t-88.5 62.5t-88.5 -62.5t-26.5 -198.5t26.5 -200t88.5 -64zM649 1090q284 0 443 -149.5t159 -408.5q0 -260 -161.5 -412.5t-442.5 -152.5t-442.5 152.5t-161.5 412.5q0 258 160.5 408t445.5 150zM236 1176q22 311 233 311
q56 0 159.5 -37t155.5 -37q22 0 44 18.5t22 55.5h225q-22 -311 -233 -311q-56 0 -160.5 36.5t-155.5 36.5q-22 0 -43.5 -18t-21.5 -55h-225z" />
    <glyph glyph-name="odieresis" unicode="&#xf6;" horiz-adv-x="1294" 
d="M647 268q62 0 88.5 64t26.5 200t-26.5 198.5t-88.5 62.5t-88.5 -62.5t-26.5 -198.5t26.5 -200t88.5 -64zM649 1090q284 0 443 -149.5t159 -408.5q0 -260 -161.5 -412.5t-442.5 -152.5t-442.5 152.5t-161.5 412.5q0 258 160.5 408t445.5 150zM735 1487h385v-336h-385v336z
M174 1487h385v-336h-385v336z" />
    <glyph glyph-name="divide" unicode="&#xf7;" 
d="M506 317h282v-274h-282v274zM788 772h-282v275h282v-275zM119 684h1055v-272h-1055v272z" />
    <glyph glyph-name="oslash" unicode="&#xf8;" horiz-adv-x="1294" 
d="M90 -14l109 133q-156 150 -156 405q0 259 162 412.5t442 153.5q156 0 285 -52l108 131l138 -98l-99 -119q172 -150 172 -420q0 -259 -162 -412t-442 -153q-174 0 -309 60l-109 -140zM647 246q144 0 144 272q0 38 -3 72l-231 -289q28 -55 90 -55zM717 766q-30 41 -80 41
q-69 0 -102 -66t-33 -221v-20z" />
    <glyph glyph-name="ugrave" unicode="&#xf9;" horiz-adv-x="1288" 
d="M442 -23q-68 0 -121 11.5t-91 31.5t-65.5 53t-44.5 71t-27 91.5t-13.5 107t-3.5 124.5v590h467v-580q0 -100 18 -141t76 -41q59 0 79.5 42t20.5 140v580h467v-1057h-440v119q-57 -65 -141.5 -103.5t-180.5 -38.5zM203 1487h442l213 -303h-350z" />
    <glyph glyph-name="uacute" unicode="&#xfa;" horiz-adv-x="1288" 
d="M442 -23q-68 0 -121 11.5t-91 31.5t-65.5 53t-44.5 71t-27 91.5t-13.5 107t-3.5 124.5v590h467v-580q0 -100 18 -141t76 -41q59 0 79.5 42t20.5 140v580h467v-1057h-440v119q-57 -65 -141.5 -103.5t-180.5 -38.5zM666 1487h438l-305 -303h-346z" />
    <glyph glyph-name="ucircumflex" unicode="&#xfb;" horiz-adv-x="1288" 
d="M442 -23q-68 0 -121 11.5t-91 31.5t-65.5 53t-44.5 71t-27 91.5t-13.5 107t-3.5 124.5v590h467v-580q0 -100 18 -141t76 -41q59 0 79.5 42t20.5 140v580h467v-1057h-440v119q-57 -65 -141.5 -103.5t-180.5 -38.5zM653 1327l-131 -158h-334l220 318h491l219 -318h-334z
" />
    <glyph glyph-name="udieresis" unicode="&#xfc;" horiz-adv-x="1288" 
d="M442 -23q-68 0 -121 11.5t-91 31.5t-65.5 53t-44.5 71t-27 91.5t-13.5 107t-3.5 124.5v590h467v-580q0 -100 18 -141t76 -41q59 0 79.5 42t20.5 140v580h467v-1057h-440v119q-57 -65 -141.5 -103.5t-180.5 -38.5zM729 1487h385v-336h-385v336zM168 1487h385v-336h-385
v336z" />
    <glyph glyph-name="yacute" unicode="&#xfd;" horiz-adv-x="1251" 
d="M369 -414q-94 0 -226 21v305q39 -6 74 -6q57 0 88 18t31 74q0 26 -15 81.5t-92.5 289t-234.5 688.5h532l58 -385q7 -38 21 -133t22 -142h20q8 47 22 142t21 133l58 385h503l-307 -1000q-53 -173 -121.5 -273t-177.5 -149t-276 -49zM649 1487h438l-305 -303h-346z" />
    <glyph glyph-name="thorn" unicode="&#xfe;" horiz-adv-x="1302" 
d="M551 1487v-520q51 63 119 88.5t159 25.5q185 0 305.5 -150t120.5 -407q0 -256 -119.5 -400t-306.5 -144q-173 0 -278 102v-473h-467v1878h467zM649 793q-61 0 -86.5 -65.5t-25.5 -203.5q0 -137 25 -198.5t87 -61.5q61 0 87 65t26 203q0 137 -25.5 199t-87.5 62z" />
    <glyph glyph-name="ydieresis" unicode="&#xff;" horiz-adv-x="1251" 
d="M369 -414q-94 0 -226 21v305q39 -6 74 -6q57 0 88 18t31 74q0 26 -15 81.5t-92.5 289t-234.5 688.5h532l58 -385q7 -38 21 -133t22 -142h20q8 47 22 142t21 133l58 385h503l-307 -1000q-53 -173 -121.5 -273t-177.5 -149t-276 -49zM713 1487h385v-336h-385v336zM152 1487
h385v-336h-385v336z" />
    <glyph glyph-name="Amacron" unicode="&#x100;" horiz-adv-x="1554" 
d="M1100 1487l461 -1487h-531l-57 231h-410l-57 -231h-512l461 1487h645zM784 1102h-20l-113 -486h244zM418 1880h721v-281h-721v281z" />
    <glyph glyph-name="amacron" unicode="&#x101;" horiz-adv-x="1241" 
d="M412 -25q-76 0 -141 19t-116 57.5t-80.5 103t-29.5 148.5q0 95 43.5 164t128 110.5t194 63t257.5 27.5l43 2v51q0 115 -101 115q-104 0 -104 -123h-430q0 377 573 377q149 0 249.5 -29t160.5 -92.5t85 -154.5t25 -224v-590h-419v123q-53 -75 -143 -111.5t-195 -36.5z
M606 238q44 0 74.5 28.5t30.5 79.5v123l-39 -2q-172 -12 -172 -137q0 -48 29.5 -70t76.5 -22zM299 1456h664v-280h-664v280z" />
    <glyph glyph-name="Abreve" unicode="&#x102;" horiz-adv-x="1554" 
d="M1100 1487l461 -1487h-531l-57 231h-410l-57 -231h-512l461 1487h645zM784 1102h-20l-113 -486h244zM778 1569q-196 0 -304 85t-116 236h318q8 -112 102 -112q95 0 103 112h317q-8 -151 -116 -236t-304 -85z" />
    <glyph glyph-name="abreve" unicode="&#x103;" horiz-adv-x="1241" 
d="M412 -25q-76 0 -141 19t-116 57.5t-80.5 103t-29.5 148.5q0 95 43.5 164t128 110.5t194 63t257.5 27.5l43 2v51q0 115 -101 115q-104 0 -104 -123h-430q0 377 573 377q149 0 249.5 -29t160.5 -92.5t85 -154.5t25 -224v-590h-419v123q-53 -75 -143 -111.5t-195 -36.5z
M606 238q44 0 74.5 28.5t30.5 79.5v123l-39 -2q-172 -12 -172 -137q0 -48 29.5 -70t76.5 -22zM631 1151q-195 0 -301 89.5t-111 246.5h318q3 -123 94 -123t94 123h317q-5 -157 -110.5 -246.5t-300.5 -89.5z" />
    <glyph glyph-name="Aogonek" unicode="&#x104;" horiz-adv-x="1554" 
d="M1100 1487l461 -1487h-531l-57 231h-410l-57 -231h-512l461 1487h645zM784 1102h-20l-113 -486h244zM1374 -432q-127 0 -204.5 54t-77.5 142q0 83 60 149.5t155 96.5l254 -10q-158 -58 -158 -129q0 -53 80 -53q44 0 80 12v-238q-65 -24 -189 -24z" />
    <glyph glyph-name="aogonek" unicode="&#x105;" horiz-adv-x="1241" 
d="M412 -25q-76 0 -141 19t-116 57.5t-80.5 103t-29.5 148.5q0 95 43.5 164t128 110.5t194 63t257.5 27.5l43 2v51q0 115 -101 115q-104 0 -104 -123h-430q0 377 573 377q149 0 249.5 -29t160.5 -92.5t85 -154.5t25 -224v-590h-419v123q-53 -75 -143 -111.5t-195 -36.5z
M606 238q44 0 74.5 28.5t30.5 79.5v123l-39 -2q-172 -12 -172 -137q0 -48 29.5 -70t76.5 -22zM983 -432q-127 0 -204 54t-77 142q0 83 59.5 149.5t153.5 96.5l254 -10q-157 -58 -157 -129q0 -53 80 -53q43 0 79 12v-238q-64 -24 -188 -24z" />
    <glyph glyph-name="Cacute" unicode="&#x106;" horiz-adv-x="1480" 
d="M778 -35q-342 0 -534.5 204t-192.5 572q0 370 192.5 575.5t534.5 205.5q593 0 664 -633h-486q-3 241 -174 241q-104 0 -152 -97.5t-48 -291.5q0 -385 200 -385q83 0 128.5 68t45.5 180h488q-64 -639 -666 -639zM780 1890h453l-315 -291h-357z" />
    <glyph glyph-name="cacute" unicode="&#x107;" horiz-adv-x="1234" 
d="M528 528q0 -136 29 -194t86 -58q42 0 62.5 39.5t25.5 122.5h469q-63 -469 -557 -469q-277 0 -438.5 150.5t-161.5 408.5t162 410t438 152q495 0 557 -459h-469q-4 82 -24.5 116.5t-63.5 34.5q-57 0 -86 -59t-29 -195zM657 1487h439l-305 -303h-347z" />
    <glyph glyph-name="Ccircumflex" unicode="&#x108;" horiz-adv-x="1480" 
d="M778 -35q-342 0 -534.5 204t-192.5 572q0 370 192.5 575.5t534.5 205.5q593 0 664 -633h-486q-3 241 -174 241q-104 0 -152 -97.5t-48 -291.5q0 -385 200 -385q83 0 128.5 68t45.5 180h488q-64 -639 -666 -639zM516 1890h508l227 -299h-348l-133 144l-135 -144h-346z" />
    <glyph glyph-name="ccircumflex" unicode="&#x109;" horiz-adv-x="1234" 
d="M528 528q0 -136 29 -194t86 -58q42 0 62.5 39.5t25.5 122.5h469q-63 -469 -557 -469q-277 0 -438.5 150.5t-161.5 408.5t162 410t438 152q495 0 557 -459h-469q-4 82 -24.5 116.5t-63.5 34.5q-57 0 -86 -59t-29 -195zM645 1327l-131 -158h-334l219 318h492l219 -318h-334
z" />
    <glyph glyph-name="Cdotaccent" unicode="&#x10a;" horiz-adv-x="1480" 
d="M778 -35q-342 0 -534.5 204t-192.5 572q0 370 192.5 575.5t534.5 205.5q593 0 664 -633h-486q-3 241 -174 241q-104 0 -152 -97.5t-48 -291.5q0 -385 200 -385q83 0 128.5 68t45.5 180h488q-64 -639 -666 -639zM524 1890h488v-319h-488v319z" />
    <glyph glyph-name="cdotaccent" unicode="&#x10b;" horiz-adv-x="1234" 
d="M528 528q0 -136 29 -194t86 -58q42 0 62.5 39.5t25.5 122.5h469q-63 -469 -557 -469q-277 0 -438.5 150.5t-161.5 408.5t162 410t438 152q495 0 557 -459h-469q-4 82 -24.5 116.5t-63.5 34.5q-57 0 -86 -59t-29 -195zM401 1487h463v-338h-463v338z" />
    <glyph glyph-name="Ccaron" unicode="&#x10c;" horiz-adv-x="1480" 
d="M778 -35q-342 0 -534.5 204t-192.5 572q0 370 192.5 575.5t534.5 205.5q593 0 664 -633h-486q-3 241 -174 241q-104 0 -152 -97.5t-48 -291.5q0 -385 200 -385q83 0 128.5 68t45.5 180h488q-64 -639 -666 -639zM287 1890h348l133 -143l135 143h346l-227 -299h-508z" />
    <glyph glyph-name="ccaron" unicode="&#x10d;" horiz-adv-x="1234" 
d="M528 528q0 -136 29 -194t86 -58q42 0 62.5 39.5t25.5 122.5h469q-63 -469 -557 -469q-277 0 -438.5 150.5t-161.5 408.5t162 410t438 152q495 0 557 -459h-469q-4 82 -24.5 116.5t-63.5 34.5q-57 0 -86 -59t-29 -195zM502 1487l131 -160l131 160h334l-219 -318h-492
l-219 318h334z" />
    <glyph glyph-name="Dcaron" unicode="&#x10e;" horiz-adv-x="1497" 
d="M668 1487q395 0 585.5 -192t190.5 -550q0 -375 -187.5 -560t-588.5 -185h-566v1487h566zM668 377q148 0 205 88.5t57 279.5q0 185 -59 275t-203 90h-70v-733h70zM205 1890h348l133 -143l135 143h346l-227 -299h-508z" />
    <glyph glyph-name="dcaron" unicode="&#x10f;" horiz-adv-x="1351" 
d="M473 -23q-190 0 -308 148t-118 407q0 257 116.5 402t299.5 145q182 0 289 -104v512h467v-1487h-439v106q-53 -73 -129 -101t-178 -28zM653 793q-62 0 -88 -62.5t-26 -198.5q0 -137 26 -201.5t88 -64.5t88.5 64.5t26.5 201.5q0 136 -26.5 198.5t-88.5 62.5zM1305 1487h348
v-107l-80 -256h-268v363z" />
    <glyph glyph-name="Dcroat" unicode="&#x110;" horiz-adv-x="1579" 
d="M750 1487q395 0 585.5 -192t190.5 -550q0 -375 -187.5 -560t-588.5 -185h-566v598h-143v305h143v584h566zM750 377q148 0 205 88.5t57 279.5q0 185 -59 275t-203 90h-70v-207h160v-305h-160v-221h70z" />
    <glyph glyph-name="dslash" unicode="&#x111;" horiz-adv-x="1300" 
d="M471 -25q-184 0 -305 148t-121 399q0 249 120.5 393t305.5 144q171 0 279 -105v179h-197v229h197v125h467v-125h116v-229h-116v-1133h-439v106q-53 -73 -129 -102t-178 -29zM651 264q61 0 88 64.5t27 193.5q0 128 -26.5 189t-88.5 61q-61 0 -87.5 -64.5t-26.5 -193.5
q0 -128 26.5 -189t87.5 -61z" />
    <glyph glyph-name="Emacron" unicode="&#x112;" horiz-adv-x="1249" 
d="M1176 1487v-385h-578v-168h512v-369h-512v-180h578v-385h-1074v1487h1074zM289 1880h721v-281h-721v281z" />
    <glyph glyph-name="emacron" unicode="&#x113;" horiz-adv-x="1267" 
d="M633 -33q-282 0 -436 148.5t-154 408.5t157 413t433 153q290 0 440 -148.5t150 -417.5q0 -46 -9 -96h-692q0 -101 24.5 -145.5t88.5 -44.5q86 0 115 102h464q-38 -123 -104 -202.5t-185 -125t-292 -45.5zM758 672q0 71 -25.5 109t-93.5 38q-53 0 -85 -41.5t-32 -105.5
h236zM301 1456h664v-280h-664v280z" />
    <glyph glyph-name="Ebreve" unicode="&#x114;" horiz-adv-x="1249" 
d="M1176 1487v-385h-578v-168h512v-369h-512v-180h578v-385h-1074v1487h1074zM649 1569q-196 0 -304 85t-116 236h318q8 -112 102 -112q95 0 103 112h317q-8 -151 -116 -236t-304 -85z" />
    <glyph glyph-name="ebreve" unicode="&#x115;" horiz-adv-x="1267" 
d="M633 -33q-282 0 -436 148.5t-154 408.5t157 413t433 153q290 0 440 -148.5t150 -417.5q0 -46 -9 -96h-692q0 -101 24.5 -145.5t88.5 -44.5q86 0 115 102h464q-38 -123 -104 -202.5t-185 -125t-292 -45.5zM758 672q0 71 -25.5 109t-93.5 38q-53 0 -85 -41.5t-32 -105.5
h236zM633 1151q-195 0 -301 89.5t-111 246.5h318q3 -123 94 -123t94 123h317q-5 -157 -110.5 -246.5t-300.5 -89.5z" />
    <glyph glyph-name="Edotaccent" unicode="&#x116;" horiz-adv-x="1249" 
d="M1176 1487v-385h-578v-168h512v-369h-512v-180h578v-385h-1074v1487h1074zM406 1890h487v-319h-487v319z" />
    <glyph glyph-name="edotaccent" unicode="&#x117;" horiz-adv-x="1267" 
d="M633 -33q-282 0 -436 148.5t-154 408.5t157 413t433 153q290 0 440 -148.5t150 -417.5q0 -46 -9 -96h-692q0 -101 24.5 -145.5t88.5 -44.5q86 0 115 102h464q-38 -123 -104 -202.5t-185 -125t-292 -45.5zM758 672q0 71 -25.5 109t-93.5 38q-53 0 -85 -41.5t-32 -105.5
h236zM401 1487h463v-338h-463v338z" />
    <glyph glyph-name="Eogonek" unicode="&#x118;" horiz-adv-x="1249" 
d="M1176 1487v-385h-578v-168h512v-369h-512v-180h578v-385h-1074v1487h1074zM989 -432q-127 0 -204.5 54t-77.5 142q0 83 60 149.5t155 96.5l254 -10q-158 -58 -158 -129q0 -53 80 -53q44 0 80 12v-238q-65 -24 -189 -24z" />
    <glyph glyph-name="eogonek" unicode="&#x119;" horiz-adv-x="1267" 
d="M1079 90q-25 -21 -72 -51.5t-80.5 -52t-60 -53t-26.5 -62.5q0 -22 20.5 -37.5t61.5 -15.5q43 0 79 12v-233q-78 -29 -188 -29q-129 0 -205 52t-76 140q0 63 41 116.5t111 90.5h-31q-282 0 -436 148.5t-154 408.5t157 413t433 153q290 0 440 -148.5t150 -417.5
q0 -52 -8 -96h-692q0 -101 24 -145.5t88 -44.5q86 0 115 102h465q-44 -157 -156 -250zM778 672q0 71 -25.5 109t-93.5 38q-53 0 -84.5 -41.5t-31.5 -105.5h235z" />
    <glyph glyph-name="Ecaron" unicode="&#x11a;" horiz-adv-x="1249" 
d="M1176 1487v-385h-578v-168h512v-369h-512v-180h578v-385h-1074v1487h1074zM168 1890h348l133 -143l135 143h346l-227 -299h-508z" />
    <glyph glyph-name="ecaron" unicode="&#x11b;" horiz-adv-x="1267" 
d="M633 -33q-282 0 -436 148.5t-154 408.5t157 413t433 153q290 0 440 -148.5t150 -417.5q0 -46 -9 -96h-692q0 -101 24.5 -145.5t88.5 -44.5q86 0 115 102h464q-38 -123 -104 -202.5t-185 -125t-292 -45.5zM758 672q0 71 -25.5 109t-93.5 38q-53 0 -85 -41.5t-32 -105.5
h236zM502 1487l131 -160l131 160h334l-219 -318h-492l-219 318h334z" />
    <glyph glyph-name="Gcircumflex" unicode="&#x11c;" horiz-adv-x="1525" 
d="M684 -35q-102 0 -193.5 28.5t-172 89.5t-139 150.5t-92.5 219.5t-34 288q0 371 189 576t530 205q114 0 212 -18t183.5 -59t146.5 -102.5t95.5 -153t34.5 -206.5h-481q-19 88 -60 125t-119 37q-108 0 -158.5 -98t-50.5 -306q0 -202 48.5 -304.5t152.5 -102.5
q84 0 126.5 42.5t66.5 143.5h-176v346h651v-866h-422v111q-72 -76 -149.5 -111t-188.5 -35zM528 1890h508l228 -299h-349l-133 144l-135 -144h-346z" />
    <glyph glyph-name="gcircumflex" unicode="&#x11d;" horiz-adv-x="1302" 
d="M635 -420q-519 0 -529 375h453q0 -61 24.5 -93t63.5 -32q107 0 107 125v186q-103 -106 -279 -106q-185 0 -305.5 136.5t-120.5 379.5q0 246 126 387t317 141q108 0 176 -29t125 -98v105h428v-955q0 -265 -137 -393.5t-449 -128.5zM655 324q61 0 87 60.5t26 182.5
q0 118 -25.5 172t-87.5 54q-61 0 -86.5 -56.5t-25.5 -177.5q0 -120 25.5 -177.5t86.5 -57.5zM670 1327l-131 -158h-334l219 318h491l220 -318h-334z" />
    <glyph glyph-name="Gbreve" unicode="&#x11e;" horiz-adv-x="1525" 
d="M684 -35q-102 0 -193.5 28.5t-172 89.5t-139 150.5t-92.5 219.5t-34 288q0 371 189 576t530 205q114 0 212 -18t183.5 -59t146.5 -102.5t95.5 -153t34.5 -206.5h-481q-19 88 -60 125t-119 37q-108 0 -158.5 -98t-50.5 -306q0 -202 48.5 -304.5t152.5 -102.5
q84 0 126.5 42.5t66.5 143.5h-176v346h651v-866h-422v111q-72 -76 -149.5 -111t-188.5 -35zM780 1569q-196 0 -304 85t-116 236h318q8 -112 102 -112q95 0 103 112h317q-8 -151 -116 -236t-304 -85z" />
    <glyph glyph-name="gbreve" unicode="&#x11f;" horiz-adv-x="1302" 
d="M635 -420q-519 0 -529 375h453q0 -61 24.5 -93t63.5 -32q107 0 107 125v186q-103 -106 -279 -106q-185 0 -305.5 136.5t-120.5 379.5q0 246 126 387t317 141q108 0 176 -29t125 -98v105h428v-955q0 -265 -137 -393.5t-449 -128.5zM655 324q61 0 87 60.5t26 182.5
q0 118 -25.5 172t-87.5 54q-61 0 -86.5 -56.5t-25.5 -177.5q0 -120 25.5 -177.5t86.5 -57.5zM657 1151q-195 0 -300.5 89.5t-110.5 246.5h317q3 -123 94 -123q92 0 95 123h317q-5 -157 -111 -246.5t-301 -89.5z" />
    <glyph glyph-name="Gdotaccent" unicode="&#x120;" horiz-adv-x="1525" 
d="M684 -35q-102 0 -193.5 28.5t-172 89.5t-139 150.5t-92.5 219.5t-34 288q0 371 189 576t530 205q114 0 212 -18t183.5 -59t146.5 -102.5t95.5 -153t34.5 -206.5h-481q-19 88 -60 125t-119 37q-108 0 -158.5 -98t-50.5 -306q0 -202 48.5 -304.5t152.5 -102.5
q84 0 126.5 42.5t66.5 143.5h-176v346h651v-866h-422v111q-72 -76 -149.5 -111t-188.5 -35zM537 1890h487v-319h-487v319z" />
    <glyph glyph-name="gdotaccent" unicode="&#x121;" horiz-adv-x="1302" 
d="M635 -420q-519 0 -529 375h453q0 -61 24.5 -93t63.5 -32q107 0 107 125v186q-103 -106 -279 -106q-185 0 -305.5 136.5t-120.5 379.5q0 246 126 387t317 141q108 0 176 -29t125 -98v105h428v-955q0 -265 -137 -393.5t-449 -128.5zM655 324q61 0 87 60.5t26 182.5
q0 118 -25.5 172t-87.5 54q-61 0 -86.5 -56.5t-25.5 -177.5q0 -120 25.5 -177.5t86.5 -57.5zM426 1487h463v-338h-463v338z" />
    <glyph glyph-name="uni0122" unicode="&#x122;" horiz-adv-x="1525" 
d="M684 -35q-102 0 -193.5 28.5t-172 89.5t-139 150.5t-92.5 219.5t-34 288q0 371 189 576t530 205q114 0 212 -18t183.5 -59t146.5 -102.5t95.5 -153t34.5 -206.5h-481q-19 88 -60 125t-119 37q-108 0 -158.5 -98t-50.5 -306q0 -202 48.5 -304.5t152.5 -102.5
q84 0 126.5 42.5t66.5 143.5h-176v346h651v-866h-422v111q-72 -76 -149.5 -111t-188.5 -35zM717 -379h-125v297h403v-299l-180 -223h-201z" />
    <glyph glyph-name="uni0123" unicode="&#x123;" horiz-adv-x="1302" 
d="M635 -420q-519 0 -529 375h453q0 -61 24.5 -93t63.5 -32q107 0 107 125v186q-103 -106 -279 -106q-185 0 -305.5 136.5t-120.5 379.5q0 246 126 387t317 141q108 0 176 -29t125 -98v105h428v-955q0 -265 -137 -393.5t-449 -128.5zM655 324q61 0 87 60.5t26 182.5
q0 118 -25.5 172t-87.5 54q-61 0 -86.5 -56.5t-25.5 -177.5q0 -120 25.5 -177.5t86.5 -57.5zM469 1442l178 223h199l-121 -225h123v-307h-379v309z" />
    <glyph glyph-name="Hcircumflex" unicode="&#x124;" horiz-adv-x="1511" 
d="M598 1487v-529h315v529h496v-1487h-496v557h-315v-557h-496v1487h496zM504 1890h508l227 -299h-348l-133 144l-135 -144h-347z" />
    <glyph glyph-name="hcircumflex" unicode="&#x125;" 
d="M84 1487h467v-526q121 118 295 118q113 0 187 -31.5t113 -98.5t53.5 -150.5t14.5 -208.5v-590h-466v573q0 49 -3 79t-12 57.5t-27.5 40t-48.5 12.5q-60 0 -83 -41.5t-23 -122.5v-598h-467v1487zM770 1591h-326l-114 144l-113 -144h-328l191 299h500z" />
    <glyph glyph-name="Hbar" unicode="&#x126;" horiz-adv-x="1638" 
d="M1595 1341v-305h-122v-1036h-496v489h-315v-489h-496v1036h-123v305h123v146h496v-146h315v146h496v-146h122zM977 1036h-315v-174h315v174z" />
    <glyph glyph-name="hbar" unicode="&#x127;" horiz-adv-x="1288" 
d="M549 940q122 119 295 119q91 0 156.5 -22t106.5 -60.5t64.5 -102t32 -135t8.5 -170.5v-569h-467v553q0 39 -1.5 64.5t-6.5 51t-14.5 40t-26.5 23.5t-41 9q-60 0 -83 -41t-23 -122v-578h-465v1133h-111v229h111v125h465v-125h205v-229h-205v-193z" />
    <glyph glyph-name="Itilde" unicode="&#x128;" horiz-adv-x="704" 
d="M102 1487h500v-1487h-500v1487zM-66 1579q2 148 63 229.5t171 81.5q56 0 159.5 -36.5t155.5 -36.5q25 0 50.5 18t25.5 55h215q-2 -148 -62.5 -229.5t-170.5 -81.5q-56 0 -160.5 37t-155.5 37q-25 0 -50 -18.5t-25 -55.5h-216z" />
    <glyph glyph-name="itilde" unicode="&#x129;" horiz-adv-x="634" 
d="M84 1057h467v-1057h-467v1057zM-63 1176q11 153 60 232t146 79q51 0 139 -37t142 -37q16 0 32.5 18.5t16.5 55.5h225q-13 -156 -60 -233.5t-146 -77.5q-51 0 -140.5 36.5t-140.5 36.5q-16 0 -33.5 -18.5t-17.5 -54.5h-223z" />
    <glyph glyph-name="Imacron" unicode="&#x12a;" horiz-adv-x="704" 
d="M102 1487h500v-1487h-500v1487zM-8 1880h721v-281h-721v281z" />
    <glyph glyph-name="imacron" unicode="&#x12b;" horiz-adv-x="634" 
d="M84 1057h467v-1057h-467v1057zM-10 1456h655v-280h-655v280z" />
    <glyph glyph-name="Ibreve" unicode="&#x12c;" horiz-adv-x="704" 
d="M102 1487h500v-1487h-500v1487zM352 1569q-196 0 -304 85t-116 236h318q8 -112 102 -112q95 0 103 112h317q-8 -151 -116 -236t-304 -85z" />
    <glyph glyph-name="ibreve" unicode="&#x12d;" horiz-adv-x="634" 
d="M84 1057h467v-1057h-467v1057zM317 1151q-181 0 -273 88.5t-97 247.5h286q0 -66 20.5 -94.5t63.5 -28.5q84 0 84 123h287q-5 -159 -97.5 -247.5t-273.5 -88.5z" />
    <glyph glyph-name="Iogonek" unicode="&#x12e;" horiz-adv-x="704" 
d="M524 -182q44 0 80 12v-238q-64 -24 -188 -24q-127 0 -205 54t-78 142q0 76 52 139.5t134 96.5h-217v1487h500v-1487q-158 -58 -158 -129q0 -53 80 -53z" />
    <glyph glyph-name="iogonek" unicode="&#x12f;" horiz-adv-x="634" 
d="M551 1143h-467v344h467v-344zM473 -182q44 0 80 12v-238q-64 -24 -188 -24q-127 0 -204 54t-77 142q0 76 51 139.5t133 96.5h-184v1057h467v-1057q-158 -58 -158 -129q0 -53 80 -53z" />
    <glyph glyph-name="Idot" unicode="&#x130;" horiz-adv-x="704" 
d="M102 1487h500v-1487h-500v1487zM109 1890h487v-319h-487v319z" />
    <glyph glyph-name="dotlessi" unicode="&#x131;" horiz-adv-x="634" 
d="M84 1057h467v-1057h-467v1057z" />
    <glyph glyph-name="IJ" unicode="&#x132;" horiz-adv-x="1626" 
d="M102 1487h500v-1487h-500v1487zM995 -23q-134 0 -262 25v385q55 -14 111 -14q49 0 83 14t55 38.5t32.5 68.5t15.5 93.5t4 123.5v776h500v-928q0 -103 -12.5 -184t-48 -158t-94.5 -128t-156 -81.5t-228 -30.5z" />
    <glyph glyph-name="ij" unicode="&#x133;" horiz-adv-x="1282" 
d="M84 1057h467v-1057h-467v1057zM84 1487h467v-344h-467v344zM705 -410q-75 0 -187 17v323q23 -6 68 -6q82 0 113.5 53.5t31.5 155.5v924h467v-1051q0 -96 -26 -169t-69.5 -119.5t-107.5 -75.5t-134.5 -40.5t-155.5 -11.5zM1198 1487v-344h-467v344h467z" />
    <glyph glyph-name="Jcircumflex" unicode="&#x134;" horiz-adv-x="915" 
d="M285 -23q-134 0 -262 25v385q55 -14 110 -14q49 0 83 14t55 38.5t33 68t16 93.5t4 124v776h499v-928q0 -103 -12.5 -183.5t-48 -158t-94 -128.5t-155.5 -81.5t-228 -30.5zM313 1890h508l228 -299h-349l-133 144l-135 -144h-346z" />
    <glyph glyph-name="jcircumflex" unicode="&#x135;" horiz-adv-x="636" 
d="M92 1487h453l194 -318h-311l-111 154l-108 -154h-309zM59 -410q-74 0 -186 17v323q23 -6 68 -6q82 0 113.5 53.5t31.5 155.5v924h467v-1051q0 -96 -26 -169t-70 -119.5t-108 -75.5t-134.5 -40.5t-155.5 -11.5z" />
    <glyph glyph-name="uni0136" unicode="&#x136;" horiz-adv-x="1423" 
d="M598 1487q-5 -481 -8 -574h16l279 574h520l-381 -699l432 -788h-555l-295 627h-16q8 -341 8 -627h-496v1487h496zM653 -379h-125v297h404v-299l-180 -223h-201z" />
    <glyph glyph-name="uni0137" unicode="&#x137;" horiz-adv-x="1255" 
d="M551 1487v-430q0 -190 -8 -365h16l182 365h498l-281 -484l330 -573h-532l-197 422h-16q8 -150 8 -422h-467v1487h467zM557 -377h-102v295h379v-297l-179 -223h-198z" />
    <glyph glyph-name="kgreenlandic" unicode="&#x138;" horiz-adv-x="1255" 
d="M551 1057q0 -190 -8 -365h16l182 365h498l-281 -490l330 -567h-532l-197 422h-16q8 -150 8 -422h-467v1057h467z" />
    <glyph glyph-name="Lacute" unicode="&#x139;" horiz-adv-x="1173" 
d="M598 1487v-1094h557v-393h-1053v1487h496zM362 1890h453l-315 -291h-357z" />
    <glyph glyph-name="lacute" unicode="&#x13a;" horiz-adv-x="634" 
d="M84 1487h467v-1487h-467v1487zM346 1890h453l-316 -291h-356z" />
    <glyph glyph-name="uni013B" unicode="&#x13b;" horiz-adv-x="1173" 
d="M598 1487v-1094h557v-393h-1053v1487h496zM563 -379h-125v297h404v-299l-180 -223h-201z" />
    <glyph glyph-name="uni013C" unicode="&#x13c;" horiz-adv-x="634" 
d="M84 1487h467v-1487h-467v1487zM231 -377h-102v295h379v-297l-178 -223h-199z" />
    <glyph glyph-name="Lcaron" unicode="&#x13d;" horiz-adv-x="1187" 
d="M598 1487v-1094h557v-393h-1053v1487h496zM778 1487h348v-107l-79 -256h-269v363z" />
    <glyph glyph-name="lcaron" unicode="&#x13e;" horiz-adv-x="684" 
d="M84 1487h467v-1487h-467v1487zM637 1487h348v-107l-80 -256h-268v363z" />
    <glyph glyph-name="Ldot" unicode="&#x13f;" horiz-adv-x="1202" 
d="M1153 983v-377h-430v377h430zM598 1487v-1094h557v-393h-1053v1487h496z" />
    <glyph glyph-name="ldot" unicode="&#x140;" horiz-adv-x="1060" 
d="M84 1487h467v-1487h-467v1487zM633 971h430v-363h-430v363z" />
    <glyph glyph-name="Lslash" unicode="&#x141;" horiz-adv-x="1298" 
d="M49 668l178 100v719h496v-504l305 176v-373l-305 -168v-225h557v-393h-1053v403l-178 -102v367z" />
    <glyph glyph-name="lslash" unicode="&#x142;" horiz-adv-x="858" 
d="M47 676l150 86v725h467v-514l149 88v-309l-149 -88v-664h-467v455l-150 -88v309z" />
    <glyph glyph-name="Nacute" unicode="&#x143;" horiz-adv-x="1574" 
d="M815 1487l250 -998h20q-8 105 -15 288t-7 280v430h410v-1487h-703l-250 997h-20q14 -334 14 -581v-416h-412v1487h713zM807 1890h453l-316 -291h-356z" />
    <glyph glyph-name="nacute" unicode="&#x144;" horiz-adv-x="1288" 
d="M846 1079q79 0 138 -14t99 -44.5t65.5 -69.5t39.5 -97.5t19 -119t5 -144.5v-590h-467v580q0 101 -17 141.5t-75 40.5q-59 0 -80.5 -42.5t-21.5 -139.5v-580h-467v1057h440v-119q57 65 141.5 103t180.5 38zM668 1487h438l-305 -303h-346z" />
    <glyph glyph-name="uni0145" unicode="&#x145;" horiz-adv-x="1574" 
d="M815 1487l250 -998h20q-8 105 -15 288t-7 280v430h410v-1487h-703l-250 997h-20q14 -334 14 -581v-416h-412v1487h713zM713 -379h-125v297h403v-299l-180 -223h-201z" />
    <glyph glyph-name="uni0146" unicode="&#x146;" horiz-adv-x="1288" 
d="M846 1079q79 0 138 -14t99 -44.5t65.5 -69.5t39.5 -97.5t19 -119t5 -144.5v-590h-467v580q0 101 -17 141.5t-75 40.5q-59 0 -80.5 -42.5t-21.5 -139.5v-580h-467v1057h440v-119q57 65 141.5 103t180.5 38zM563 -377h-102v295h379v-297l-178 -223h-199z" />
    <glyph glyph-name="Ncaron" unicode="&#x147;" horiz-adv-x="1574" 
d="M815 1487l250 -998h20q-8 105 -15 288t-7 280v430h410v-1487h-703l-250 997h-20q14 -334 14 -581v-416h-412v1487h713zM313 1890h349l133 -143l135 143h346l-227 -299h-508z" />
    <glyph glyph-name="ncaron" unicode="&#x148;" horiz-adv-x="1288" 
d="M846 1079q79 0 138 -14t99 -44.5t65.5 -69.5t39.5 -97.5t19 -119t5 -144.5v-590h-467v580q0 101 -17 141.5t-75 40.5q-59 0 -80.5 -42.5t-21.5 -139.5v-580h-467v1057h440v-119q57 65 141.5 103t180.5 38zM512 1487l131 -160l131 160h334l-219 -318h-492l-219 318h334z
" />
    <glyph glyph-name="napostrophe" unicode="&#x149;" horiz-adv-x="1601" 
d="M1159 1079q94 0 160.5 -22t106.5 -60t62.5 -102.5t30 -134t7.5 -170.5v-590h-467v580q0 101 -17 141.5t-75 40.5q-59 0 -81 -42.5t-22 -139.5v-580h-467v1057h441v-119q57 65 141 103t180 38zM150 1223h-123v303h368v-305l-178 -265h-188z" />
    <glyph glyph-name="Eng" unicode="&#x14a;" horiz-adv-x="1554" 
d="M946 -410q-116 0 -227 19v299q65 -10 119 -10q185 0 192 122l-528 832h-15l11 -109q10 -117 10 -397v-346h-406v1487h506l449 -782h14q-24 322 -24 552v230h405v-1399q0 -117 -26 -205t-69.5 -143t-109.5 -89.5t-138.5 -47.5t-162.5 -13z" />
    <glyph glyph-name="eng" unicode="&#x14b;" horiz-adv-x="1288" 
d="M719 -410q-60 0 -172 17v299q30 -6 55 -6q83 0 113 44.5t30 143.5v485q0 49 -2.5 79t-11 57.5t-27 40t-47.5 12.5q-60 0 -83 -41.5t-23 -122.5v-598h-467v1057h438v-121q56 65 141 104t181 39q113 0 187 -31.5t113 -98.5t53.5 -150.5t14.5 -208.5v-572
q0 -96 -25.5 -170.5t-69.5 -122.5t-108 -78.5t-135 -43.5t-155 -13z" />
    <glyph glyph-name="Omacron" unicode="&#x14c;" horiz-adv-x="1566" 
d="M788 -35q-356 0 -546.5 205t-190.5 571q0 367 191 574t546 207q352 0 540 -205t188 -572t-188 -573.5t-540 -206.5zM788 354q106 0 153.5 97.5t47.5 293.5t-47.5 292t-153.5 96q-210 0 -210 -392q0 -387 210 -387zM426 1880h721v-281h-721v281z" />
    <glyph glyph-name="omacron" unicode="&#x14d;" horiz-adv-x="1294" 
d="M647 268q62 0 88.5 64t26.5 200t-26.5 198.5t-88.5 62.5t-88.5 -62.5t-26.5 -198.5t26.5 -200t88.5 -64zM649 1090q284 0 443 -149.5t159 -408.5q0 -260 -161.5 -412.5t-442.5 -152.5t-442.5 152.5t-161.5 412.5q0 258 160.5 408t445.5 150zM315 1456h664v-280h-664v280z
" />
    <glyph glyph-name="Obreve" unicode="&#x14e;" horiz-adv-x="1566" 
d="M788 -35q-356 0 -546.5 205t-190.5 571q0 367 191 574t546 207q352 0 540 -205t188 -572t-188 -573.5t-540 -206.5zM788 354q106 0 153.5 97.5t47.5 293.5t-47.5 292t-153.5 96q-210 0 -210 -392q0 -387 210 -387zM786 1569q-195 0 -303 85t-116 236h317q8 -112 102 -112
q95 0 103 112h317q-8 -151 -116 -236t-304 -85z" />
    <glyph glyph-name="obreve" unicode="&#x14f;" horiz-adv-x="1294" 
d="M647 268q62 0 88.5 64t26.5 200t-26.5 198.5t-88.5 62.5t-88.5 -62.5t-26.5 -198.5t26.5 -200t88.5 -64zM649 1090q284 0 443 -149.5t159 -408.5q0 -260 -161.5 -412.5t-442.5 -152.5t-442.5 152.5t-161.5 412.5q0 258 160.5 408t445.5 150zM647 1151q-195 0 -300.5 89.5
t-110.5 246.5h317q3 -123 94 -123t94 123h318q-5 -157 -111 -246.5t-301 -89.5z" />
    <glyph glyph-name="Ohungarumlaut" unicode="&#x150;" horiz-adv-x="1566" 
d="M788 -35q-356 0 -546.5 205t-190.5 571q0 367 191 574t546 207q352 0 540 -205t188 -572t-188 -573.5t-540 -206.5zM788 354q106 0 153.5 97.5t47.5 293.5t-47.5 292t-153.5 96q-210 0 -210 -392q0 -387 210 -387zM1114 1890h422l-289 -293h-348zM561 1890h393l-254 -293
h-331z" />
    <glyph glyph-name="ohungarumlaut" unicode="&#x151;" horiz-adv-x="1294" 
d="M647 268q62 0 88.5 64t26.5 200t-26.5 198.5t-88.5 62.5t-88.5 -62.5t-26.5 -198.5t26.5 -200t88.5 -64zM649 1090q284 0 443 -149.5t159 -408.5q0 -260 -161.5 -412.5t-442.5 -152.5t-442.5 152.5t-161.5 412.5q0 258 160.5 408t445.5 150zM940 1487h393l-264 -303h-336
zM395 1487h379l-233 -303h-322z" />
    <glyph glyph-name="OE" unicode="&#x152;" horiz-adv-x="1998" 
d="M1368 1102v-168h492v-369h-492v-180h557v-385h-1094q-401 0 -589.5 185t-188.5 560q0 358 190.5 550t587.5 192h1094v-385h-557zM893 1110h-62q-144 0 -203 -90t-59 -275q0 -191 57 -279.5t205 -88.5h62v733z" />
    <glyph glyph-name="oe" unicode="&#x153;" horiz-adv-x="1945" 
d="M610 1090q234 0 363 -129q138 129 383 129q141 0 247.5 -41.5t170.5 -117t95.5 -173t31.5 -217.5q0 -57 -9 -107h-686q0 -101 25.5 -148.5t89.5 -47.5q92 0 121 104h446q-26 -92 -65.5 -158.5t-102.5 -116.5t-155 -75t-215 -25q-255 0 -392 115q-124 -115 -350 -115
q-259 0 -411 150t-152 407q0 258 153.5 412t411.5 154zM649 268q62 0 88.5 64t26.5 200t-26.5 198.5t-88.5 62.5t-88 -62.5t-26 -198.5q0 -137 26 -200.5t88 -63.5zM1440 672q0 147 -117 147q-53 0 -84 -42t-31 -105h232z" />
    <glyph glyph-name="Racute" unicode="&#x154;" horiz-adv-x="1423" 
d="M782 1487q543 0 543 -397q0 -67 -17 -128.5t-51 -115.5t-94 -89.5t-139 -43.5l-4 -17q30 -1 57 -8.5t47.5 -17t39 -26.5t32 -31.5t26.5 -39.5t21 -42.5t18 -47.5t15.5 -48t14.5 -51t14 -50l98 -334h-518l-41 180q-43 196 -49 217q-23 77 -63 99q-31 16 -87 16h-57v-512
h-486v1487h680zM639 868q106 0 152.5 31.5t46.5 108.5q0 71 -47 96.5t-156 25.5h-47v-262h51zM684 1890h453l-316 -291h-356z" />
    <glyph glyph-name="racute" unicode="&#x155;" horiz-adv-x="921" 
d="M502 1057v-160q75 176 301 176q59 0 100 -8v-381q-68 10 -110 10q-117 0 -176.5 -63t-65.5 -211v-420h-467v1057h418zM506 1487h438l-305 -303h-346z" />
    <glyph glyph-name="uni0156" unicode="&#x156;" horiz-adv-x="1423" 
d="M782 1487q543 0 543 -397q0 -67 -17 -128.5t-51 -115.5t-94 -89.5t-139 -43.5l-4 -17q30 -1 57 -8.5t47.5 -17t39 -26.5t32 -31.5t26.5 -39.5t21 -42.5t18 -47.5t15.5 -48t14.5 -51t14 -50l98 -334h-518l-41 180q-43 196 -49 217q-23 77 -63 99q-31 16 -87 16h-57v-512
h-486v1487h680zM639 868q106 0 152.5 31.5t46.5 108.5q0 71 -47 96.5t-156 25.5h-47v-262h51zM627 -379h-125v297h403v-299l-180 -223h-201z" />
    <glyph glyph-name="uni0157" unicode="&#x157;" horiz-adv-x="921" 
d="M502 1057v-160q75 176 301 176q59 0 100 -8v-381q-68 10 -110 10q-117 0 -176.5 -63t-65.5 -211v-420h-467v1057h418zM231 -377h-102v295h379v-297l-178 -223h-199z" />
    <glyph glyph-name="Rcaron" unicode="&#x158;" horiz-adv-x="1423" 
d="M782 1487q543 0 543 -397q0 -67 -17 -128.5t-51 -115.5t-94 -89.5t-139 -43.5l-4 -17q30 -1 57 -8.5t47.5 -17t39 -26.5t32 -31.5t26.5 -39.5t21 -42.5t18 -47.5t15.5 -48t14.5 -51t14 -50l98 -334h-518l-41 180q-43 196 -49 217q-23 77 -63 99q-31 16 -87 16h-57v-512
h-486v1487h680zM639 868q106 0 152.5 31.5t46.5 108.5q0 71 -47 96.5t-156 25.5h-47v-262h51zM190 1890h349l133 -143l135 143h346l-227 -299h-508z" />
    <glyph glyph-name="rcaron" unicode="&#x159;" horiz-adv-x="921" 
d="M502 1057v-160q75 176 301 176q59 0 100 -8v-381q-68 10 -110 10q-117 0 -176.5 -63t-65.5 -211v-420h-467v1057h418zM385 1487l123 -154l121 154h313l-213 -318h-444l-215 318h315z" />
    <glyph glyph-name="Sacute" unicode="&#x15a;" horiz-adv-x="1384" 
d="M690 -35q-300 0 -472.5 145.5t-172.5 393.5h512q5 -97 34.5 -139.5t102.5 -42.5q65 0 99 26t34 64q0 48 -28 70.5t-113 49.5l-252 78q-368 111 -368 447q0 212 167 338.5t455 126.5q128 0 235.5 -30t193.5 -90.5t136 -163t52 -237.5h-492q0 86 -25 125t-98 39
q-60 0 -91.5 -24t-31.5 -66q0 -41 28 -64.5t101 -43.5l199 -58q90 -26 154 -52.5t121 -65t91.5 -86t54 -113.5t19.5 -150q0 -226 -162.5 -351.5t-482.5 -125.5zM694 1890h453l-316 -291h-356z" />
    <glyph glyph-name="sacute" unicode="&#x15b;" horiz-adv-x="1196" 
d="M588 -33q-102 0 -183 11t-151 37t-116.5 68t-72.5 105.5t-26 147.5h455q1 -60 30 -87.5t84 -27.5q107 0 107 74q0 30 -17.5 49.5t-72.5 30.5l-250 51q-54 11 -95 24.5t-84.5 39t-72 59.5t-46.5 86.5t-18 118.5q0 163 144 249.5t397 86.5q525 0 533 -361h-426
q0 107 -103 107q-44 0 -72 -17t-28 -51q0 -35 30.5 -52t110.5 -36l238 -51q270 -58 270 -324q0 -111 -76 -188.5t-201 -113.5t-288 -36zM616 1487h439l-305 -303h-347z" />
    <glyph glyph-name="Scircumflex" unicode="&#x15c;" horiz-adv-x="1384" 
d="M690 -35q-300 0 -472.5 145.5t-172.5 393.5h512q5 -97 34.5 -139.5t102.5 -42.5q65 0 99 26t34 64q0 48 -28 70.5t-113 49.5l-252 78q-368 111 -368 447q0 212 167 338.5t455 126.5q128 0 235.5 -30t193.5 -90.5t136 -163t52 -237.5h-492q0 86 -25 125t-98 39
q-60 0 -91.5 -24t-31.5 -66q0 -41 28 -64.5t101 -43.5l199 -58q90 -26 154 -52.5t121 -65t91.5 -86t54 -113.5t19.5 -150q0 -226 -162.5 -351.5t-482.5 -125.5zM430 1890h508l227 -299h-348l-133 144l-135 -144h-346z" />
    <glyph glyph-name="scircumflex" unicode="&#x15d;" horiz-adv-x="1196" 
d="M588 -33q-102 0 -183 11t-151 37t-116.5 68t-72.5 105.5t-26 147.5h455q1 -60 30 -87.5t84 -27.5q107 0 107 74q0 30 -17.5 49.5t-72.5 30.5l-250 51q-54 11 -95 24.5t-84.5 39t-72 59.5t-46.5 86.5t-18 118.5q0 163 144 249.5t397 86.5q525 0 533 -361h-426
q0 107 -103 107q-44 0 -72 -17t-28 -51q0 -35 30.5 -52t110.5 -36l238 -51q270 -58 270 -324q0 -111 -76 -188.5t-201 -113.5t-288 -36zM604 1327l-131 -158h-334l219 318h492l219 -318h-334z" />
    <glyph glyph-name="Scedilla" unicode="&#x15e;" horiz-adv-x="1384" 
d="M690 -35q-300 0 -472.5 145.5t-172.5 393.5h512q5 -97 34.5 -139.5t102.5 -42.5q65 0 99 26t34 64q0 48 -28 70.5t-113 49.5l-252 78q-368 111 -368 447q0 212 167 338.5t455 126.5q128 0 235.5 -30t193.5 -90.5t136 -163t52 -237.5h-492q0 86 -25 125t-98 39
q-60 0 -91.5 -24t-31.5 -66q0 -41 28 -64.5t101 -43.5l199 -58q90 -26 154 -52.5t121 -65t91.5 -86t54 -113.5t19.5 -150q0 -226 -162.5 -351.5t-482.5 -125.5zM653 -432q-99 0 -143 10v143q9 -4 61 -4q47 0 71 21t24 53q0 31 -20.5 52.5t-57.5 21.5q-23 0 -37 -2v137h217
v-53q76 -7 114 -58.5t38 -117.5q0 -71 -40.5 -118.5t-98 -66t-128.5 -18.5z" />
    <glyph glyph-name="scedilla" unicode="&#x15f;" horiz-adv-x="1196" 
d="M588 -33q-102 0 -183 11t-151 37t-116.5 68t-72.5 105.5t-26 147.5h455q1 -60 30 -87.5t84 -27.5q107 0 107 74q0 30 -17.5 49.5t-72.5 30.5l-250 51q-54 11 -95 24.5t-84.5 39t-72 59.5t-46.5 86.5t-18 118.5q0 163 144 249.5t397 86.5q525 0 533 -361h-426
q0 107 -103 107q-44 0 -72 -17t-28 -51q0 -35 30.5 -52t110.5 -36l238 -51q270 -58 270 -324q0 -111 -76 -188.5t-201 -113.5t-288 -36zM561 -432q-99 0 -143 10v143q9 -4 61 -4q47 0 70.5 21t23.5 53q0 31 -20.5 52.5t-56.5 21.5q-23 0 -37 -2v157h217v-73
q76 -7 113.5 -58.5t37.5 -117.5q0 -54 -22.5 -94.5t-61.5 -63.5t-84.5 -34t-97.5 -11z" />
    <glyph glyph-name="Scaron" unicode="&#x160;" horiz-adv-x="1384" 
d="M690 -35q-300 0 -472.5 145.5t-172.5 393.5h512q5 -97 34.5 -139.5t102.5 -42.5q65 0 99 26t34 64q0 48 -28 70.5t-113 49.5l-252 78q-368 111 -368 447q0 212 167 338.5t455 126.5q128 0 235.5 -30t193.5 -90.5t136 -163t52 -237.5h-492q0 86 -25 125t-98 39
q-60 0 -91.5 -24t-31.5 -66q0 -41 28 -64.5t101 -43.5l199 -58q90 -26 154 -52.5t121 -65t91.5 -86t54 -113.5t19.5 -150q0 -226 -162.5 -351.5t-482.5 -125.5zM201 1890h348l133 -143l135 143h346l-227 -299h-508z" />
    <glyph glyph-name="scaron" unicode="&#x161;" horiz-adv-x="1196" 
d="M588 -33q-102 0 -183 11t-151 37t-116.5 68t-72.5 105.5t-26 147.5h455q1 -60 30 -87.5t84 -27.5q107 0 107 74q0 30 -17.5 49.5t-72.5 30.5l-250 51q-54 11 -95 24.5t-84.5 39t-72 59.5t-46.5 86.5t-18 118.5q0 163 144 249.5t397 86.5q525 0 533 -361h-426
q0 107 -103 107q-44 0 -72 -17t-28 -51q0 -35 30.5 -52t110.5 -36l238 -51q270 -58 270 -324q0 -111 -76 -188.5t-201 -113.5t-288 -36zM461 1487l131 -160l131 160h334l-219 -318h-492l-219 318h334z" />
    <glyph glyph-name="uni0162" unicode="&#x162;" horiz-adv-x="1316" 
d="M18 1094v393h1280v-393h-393v-1094h-495v1094h-392zM618 -432q-99 0 -143 10v143q9 -4 62 -4q47 0 70.5 21t23.5 53q0 31 -20.5 52.5t-57.5 21.5q-23 0 -37 -2v137h217v-53q76 -7 114 -58.5t38 -117.5q0 -71 -40.5 -118.5t-98 -66t-128.5 -18.5z" />
    <glyph glyph-name="uni0163" unicode="&#x163;" horiz-adv-x="858" 
d="M586 -16q-79 0 -139 11t-114 39t-88.5 74t-54.5 120t-20 173v344h-152v312h152v286h467v-286h184v-312h-184v-315q0 -62 22 -88.5t80 -26.5q47 0 82 9v-324q-141 -16 -235 -16zM494 -432q-100 0 -144 10v143q9 -4 62 -4q47 0 70.5 21t23.5 53q0 31 -20.5 52.5t-57.5 21.5
q-23 0 -37 -2v157h217v-73q76 -7 114 -58.5t38 -117.5q0 -54 -22.5 -94.5t-61.5 -63.5t-84.5 -34t-97.5 -11z" />
    <glyph glyph-name="Tcaron" unicode="&#x164;" horiz-adv-x="1316" 
d="M18 1094v393h1280v-393h-393v-1094h-495v1094h-392zM176 1890h348l133 -143l136 143h346l-228 -299h-508z" />
    <glyph glyph-name="tcaron" unicode="&#x165;" horiz-adv-x="854" 
d="M582 -16q-79 0 -139 11t-114 39t-88.5 74t-54.5 120t-20 173v344h-152v312h152v286h467v-286h184v-312h-184v-315q0 -62 22 -88.5t80 -26.5q47 0 82 9v-324q-141 -16 -235 -16zM715 1487h348v-107l-80 -256h-268v363z" />
    <glyph glyph-name="Tbar" unicode="&#x166;" horiz-adv-x="1337" 
d="M915 1094v-226h242v-348h-242v-520h-495v520h-242v348h242v226h-391v393h1280v-393h-394z" />
    <glyph glyph-name="tbar" unicode="&#x167;" horiz-adv-x="870" 
d="M592 -16q-137 0 -228 37t-139 129q-49 91 -49 251v45h-151v252h151v107h-151v252h151v286h459v-286h192v-252h-192v-107h192v-252h-192v-32q0 -99 115 -99q46 0 81 9v-324q-141 -16 -239 -16z" />
    <glyph glyph-name="Utilde" unicode="&#x168;" horiz-adv-x="1486" 
d="M748 -35q-322 0 -490 154t-168 465v903h496v-879q0 -144 37.5 -199t119.5 -55q81 0 119.5 55.5t38.5 198.5v879h496v-903q0 -311 -165.5 -465t-483.5 -154zM326 1579q2 148 62.5 229.5t170.5 81.5q56 0 159.5 -36.5t155.5 -36.5q25 0 50.5 18t25.5 55h215
q-2 -148 -62.5 -229.5t-170.5 -81.5q-56 0 -160.5 37t-155.5 37q-25 0 -50 -18.5t-25 -55.5h-215z" />
    <glyph glyph-name="utilde" unicode="&#x169;" horiz-adv-x="1288" 
d="M442 -23q-68 0 -121 11.5t-91 31.5t-65.5 53t-44.5 71t-27 91.5t-13.5 107t-3.5 124.5v590h467v-580q0 -100 18 -141t76 -41q59 0 79.5 42t20.5 140v580h467v-1057h-440v119q-57 -65 -141.5 -103.5t-180.5 -38.5zM229 1176q22 311 234 311q56 0 159.5 -37t155.5 -37
q22 0 44 18.5t22 55.5h225q-22 -311 -233 -311q-56 0 -160.5 36.5t-155.5 36.5q-22 0 -43.5 -18t-21.5 -55h-226z" />
    <glyph glyph-name="Umacron" unicode="&#x16a;" horiz-adv-x="1486" 
d="M748 -35q-322 0 -490 154t-168 465v903h496v-879q0 -144 37.5 -199t119.5 -55q81 0 119.5 55.5t38.5 198.5v879h496v-903q0 -311 -165.5 -465t-483.5 -154zM383 1880h721v-281h-721v281z" />
    <glyph glyph-name="umacron" unicode="&#x16b;" horiz-adv-x="1288" 
d="M442 -23q-68 0 -121 11.5t-91 31.5t-65.5 53t-44.5 71t-27 91.5t-13.5 107t-3.5 124.5v590h467v-580q0 -100 18 -141t76 -41q59 0 79.5 42t20.5 140v580h467v-1057h-440v119q-57 -65 -141.5 -103.5t-180.5 -38.5zM309 1456h664v-280h-664v280z" />
    <glyph glyph-name="Ubreve" unicode="&#x16c;" horiz-adv-x="1486" 
d="M748 -35q-322 0 -490 154t-168 465v903h496v-879q0 -144 37.5 -199t119.5 -55q81 0 119.5 55.5t38.5 198.5v879h496v-903q0 -311 -165.5 -465t-483.5 -154zM743 1569q-195 0 -303 85t-116 236h317q8 -112 102 -112q95 0 103 112h317q-8 -151 -116 -236t-304 -85z" />
    <glyph glyph-name="ubreve" unicode="&#x16d;" horiz-adv-x="1288" 
d="M442 -23q-68 0 -121 11.5t-91 31.5t-65.5 53t-44.5 71t-27 91.5t-13.5 107t-3.5 124.5v590h467v-580q0 -100 18 -141t76 -41q59 0 79.5 42t20.5 140v580h467v-1057h-440v119q-57 -65 -141.5 -103.5t-180.5 -38.5zM641 1151q-195 0 -301 89.5t-111 246.5h318
q3 -123 94 -123t94 123h318q-5 -157 -111 -246.5t-301 -89.5z" />
    <glyph glyph-name="Uring" unicode="&#x16e;" horiz-adv-x="1486" 
d="M752 1518q-125 0 -211 75.5t-86 196.5t86 196.5t211 75.5q123 0 210 -78t87 -194t-87 -194t-210 -78zM752 1673q54 0 87 33t33 84q0 54 -33 85.5t-87 31.5t-87.5 -31.5t-33.5 -85.5q0 -51 33.5 -84t87.5 -33zM748 -35q-322 0 -490 154t-168 465v903h496v-879
q0 -144 37.5 -199t119.5 -55q81 0 119.5 55.5t38.5 198.5v879h496v-903q0 -311 -165.5 -465t-483.5 -154z" />
    <glyph glyph-name="uring" unicode="&#x16f;" horiz-adv-x="1288" 
d="M442 -23q-68 0 -121 11.5t-91 31.5t-65.5 53t-44.5 71t-27 91.5t-13.5 107t-3.5 124.5v590h467v-580q0 -100 18 -141t76 -41q59 0 79.5 42t20.5 140v580h467v-1057h-440v119q-57 -65 -141.5 -103.5t-180.5 -38.5zM641 1141q-120 0 -202.5 72.5t-82.5 189.5t82.5 189.5
t202.5 72.5q118 0 201.5 -75.5t83.5 -186.5t-83.5 -186.5t-201.5 -75.5zM641 1294q48 0 80.5 31t32.5 78t-32.5 77.5t-80.5 30.5t-80.5 -30.5t-32.5 -77.5t32.5 -78t80.5 -31z" />
    <glyph glyph-name="Uhungarumlaut" unicode="&#x170;" horiz-adv-x="1486" 
d="M748 -35q-322 0 -490 154t-168 465v903h496v-879q0 -144 37.5 -199t119.5 -55q81 0 119.5 55.5t38.5 198.5v879h496v-903q0 -311 -165.5 -465t-483.5 -154zM1071 1890h422l-289 -293h-348zM518 1890h393l-254 -293h-331z" />
    <glyph glyph-name="uhungarumlaut" unicode="&#x171;" horiz-adv-x="1288" 
d="M442 -23q-68 0 -121 11.5t-91 31.5t-65.5 53t-44.5 71t-27 91.5t-13.5 107t-3.5 124.5v590h467v-580q0 -100 18 -141t76 -41q59 0 79.5 42t20.5 140v580h467v-1057h-440v119q-57 -65 -141.5 -103.5t-180.5 -38.5zM934 1487h393l-264 -303h-336zM389 1487h379l-233 -303
h-322z" />
    <glyph glyph-name="Uogonek" unicode="&#x172;" horiz-adv-x="1486" 
d="M1397 1487v-903q0 -230 -88 -369q-23 -35 -59.5 -73t-57 -55t-68.5 -56q-104 -83 -104 -144q0 -67 90 -67q24 0 70 12v-244q-67 -20 -179 -20q-135 0 -213.5 53.5t-78.5 142.5q0 60 35.5 113.5t97.5 91.5q-62 -4 -94 -4q-322 0 -490 154t-168 465v903h496v-879
q0 -144 37.5 -199t119.5 -55q81 0 119.5 55.5t38.5 198.5v879h496z" />
    <glyph glyph-name="uogonek" unicode="&#x173;" horiz-adv-x="1288" 
d="M442 -23q-68 0 -121 11.5t-91 31.5t-65.5 53t-44.5 71t-27 91.5t-13.5 107t-3.5 124.5v590h467v-580q0 -100 18 -141t76 -41q59 0 79.5 42t20.5 140v580h467v-1057h-440v119q-57 -65 -141.5 -103.5t-180.5 -38.5zM1018 -432q-127 0 -204 54t-77 142q0 83 59.5 149.5
t153.5 96.5l254 -10q-157 -58 -157 -129q0 -53 79 -53q44 0 80 12v-238q-64 -24 -188 -24z" />
    <glyph glyph-name="Wcircumflex" unicode="&#x174;" horiz-adv-x="2127" 
d="M483 1487l90 -637q23 -163 35 -334h21q37 234 49 334l88 637h659l91 -637q20 -143 30 -334h21q10 143 37 334l94 637h418l-279 -1487h-606l-94 657q-22 157 -37 318h-21q-20 -154 -43 -318l-98 -657h-651l-269 1487h465zM827 1890h508l228 -299h-349l-133 144l-135 -144
h-346z" />
    <glyph glyph-name="wcircumflex" unicode="&#x175;" horiz-adv-x="1890" 
d="M465 1057q11 -103 38.5 -314t39.5 -331h20q43 308 109 645h590q63 -320 108 -645h21q12 120 39 331t38 314h406l-213 -1057h-612l-9 51q-6 40 -29 172.5t-35 219t-20 180.5h-20q-8 -79 -21.5 -168.5t-22.5 -140t-30.5 -165t-27.5 -149.5h-605l-213 1057h449zM958 1327
l-131 -158h-333l219 318h491l219 -318h-333z" />
    <glyph glyph-name="Ycircumflex" unicode="&#x176;" horiz-adv-x="1357" 
d="M-16 1487h520l182 -516h14l164 516h512l-438 -973v-514h-518v510zM432 1890h508l227 -299h-348l-133 144l-135 -144h-346z" />
    <glyph glyph-name="ycircumflex" unicode="&#x177;" horiz-adv-x="1251" 
d="M369 -414q-94 0 -226 21v305q39 -6 74 -6q57 0 88 18t31 74q0 26 -15 81.5t-92.5 289t-234.5 688.5h532l58 -385q7 -38 21 -133t22 -142h20q8 47 22 142t21 133l58 385h503l-307 -1000q-53 -173 -121.5 -273t-177.5 -149t-276 -49zM637 1327l-131 -158h-334l219 318h492
l219 -318h-334z" />
    <glyph glyph-name="Ydieresis" unicode="&#x178;" horiz-adv-x="1357" 
d="M-16 1487h520l182 -516h14l164 516h512l-438 -973v-514h-518v510zM768 1890h399v-319h-399v319zM201 1890h399v-319h-399v319z" />
    <glyph glyph-name="Zacute" unicode="&#x179;" horiz-adv-x="1284" 
d="M653 1094h-567v393h1114v-402l-588 -692h623v-393h-1180v403zM672 1890h452l-315 -291h-356z" />
    <glyph glyph-name="zacute" unicode="&#x17a;" horiz-adv-x="1136" 
d="M502 750h-432v307h993v-299l-461 -451h500v-307h-1057v305zM598 1487h438l-305 -303h-346z" />
    <glyph glyph-name="Zdotaccent" unicode="&#x17b;" horiz-adv-x="1284" 
d="M653 1094h-567v393h1114v-402l-588 -692h623v-393h-1180v403zM416 1890h487v-319h-487v319z" />
    <glyph glyph-name="zdotaccent" unicode="&#x17c;" horiz-adv-x="1136" 
d="M502 750h-432v307h993v-299l-461 -451h500v-307h-1057v305zM342 1487h463v-338h-463v338z" />
    <glyph glyph-name="Zcaron" unicode="&#x17d;" horiz-adv-x="1284" 
d="M653 1094h-567v393h1114v-402l-588 -692h623v-393h-1180v403zM178 1890h348l133 -143l136 143h346l-228 -299h-507z" />
    <glyph glyph-name="zcaron" unicode="&#x17e;" horiz-adv-x="1136" 
d="M502 750h-432v307h993v-299l-461 -451h500v-307h-1057v305zM442 1487l131 -160l132 160h333l-219 -318h-491l-219 318h333z" />
    <glyph glyph-name="longs" unicode="&#x17f;" horiz-adv-x="634" 
d="M84 1094q0 114 34 195.5t98 128t145 67t186 20.5q72 0 194 -18v-303q-52 10 -79 10q-52 0 -81.5 -27t-29.5 -94v-1073h-467v1094z" />
    <glyph glyph-name="uni018F" unicode="&#x18f;" horiz-adv-x="1490" 
d="M741 -35q-330 0 -509 202.5t-179 573.5q0 61 2 88h877q-4 161 -50 232.5t-134 71.5q-55 0 -91.5 -35t-62.5 -105h-514q49 259 219 394t436 135q331 0 518 -204.5t187 -572.5q0 -370 -184.5 -575t-514.5 -205zM737 338q160 0 183 211h-353q17 -114 57 -162.5t113 -48.5z
" />
    <glyph glyph-name="uni0190" unicode="&#x190;" horiz-adv-x="1386" 
d="M713 -35q-300 0 -480 114.5t-180 330.5q0 142 73.5 231.5t215.5 118.5v10q-65 10 -112.5 32t-76 51.5t-45.5 72.5t-22.5 85.5t-5.5 98.5q0 134 82.5 228t223.5 139t327 45q294 0 455.5 -138.5t166.5 -371.5h-471q0 76 -41.5 125t-117.5 49q-78 0 -117 -35t-39 -90
q0 -81 45 -113.5t151 -32.5h111v-337h-123q-196 0 -196 -142q0 -60 43 -97.5t125 -37.5q152 0 165 193h484q0 -262 -171.5 -395.5t-469.5 -133.5z" />
    <glyph glyph-name="florin" unicode="&#x192;" 
d="M254 -328q-135 0 -242 37v285q92 -27 152 -27q75 0 111 49.5t57 165.5l59 307h-192v312h247l35 182q43 235 180.5 339.5t360.5 104.5q59 0 83.5 -0.5t69 -5.5t97.5 -16v-307q-108 24 -154 24q-67 0 -99 -28.5t-46 -100.5l-37 -192h215v-312h-272l-50 -245
q-42 -211 -111 -334.5t-180 -180.5t-284 -57z" />
    <glyph glyph-name="uni0194" unicode="&#x194;" horiz-adv-x="1355" 
d="M678 -420q-465 0 -465 369q0 159 246 606l-479 932h475l223 -475l223 475h475l-481 -932q248 -456 248 -606q0 -369 -465 -369zM678 -166q38 0 58 30t20 70q0 91 -78 244q-78 -153 -78 -244q0 -40 20 -70t58 -30z" />
    <glyph glyph-name="uni0197" unicode="&#x197;" horiz-adv-x="860" 
d="M41 920h139v567h500v-567h139v-338h-139v-582h-500v582h-139v338z" />
    <glyph glyph-name="uni019D" unicode="&#x19d;" horiz-adv-x="1576" 
d="M1475 1487v-1487h-703l-250 997h-20q20 -438 20 -970q0 -119 -34 -206t-96.5 -136t-140 -72t-173.5 -23q-75 0 -187 17v323q30 -6 56 -6q79 0 118 56.5t39 152.5v1354h713l250 -998h20q-8 105 -15 288t-7 280v430h410z" />
    <glyph glyph-name="uni01B5" unicode="&#x1b5;" horiz-adv-x="1300" 
d="M246 614h-152v271h385l183 209h-568v393h1114v-402l-172 -200h174v-271h-403l-186 -221h622v-393h-1180v403z" />
    <glyph glyph-name="uni01B6" unicode="&#x1b6;" horiz-adv-x="1142" 
d="M188 442h-88v211h303l101 97h-432v307h993v-299l-107 -105h84v-211h-301l-137 -135h500v-307h-1057v305z" />
    <glyph glyph-name="uni01CD" unicode="&#x1cd;" horiz-adv-x="1554" 
d="M1100 1487l461 -1487h-531l-57 231h-410l-57 -231h-512l461 1487h645zM784 1102h-20l-113 -486h244zM297 1890h348l133 -143l135 143h347l-228 -299h-508z" />
    <glyph glyph-name="uni01CE" unicode="&#x1ce;" horiz-adv-x="1241" 
d="M412 -25q-76 0 -141 19t-116 57.5t-80.5 103t-29.5 148.5q0 95 43.5 164t128 110.5t194 63t257.5 27.5l43 2v51q0 115 -101 115q-104 0 -104 -123h-430q0 377 573 377q149 0 249.5 -29t160.5 -92.5t85 -154.5t25 -224v-590h-419v123q-53 -75 -143 -111.5t-195 -36.5z
M606 238q44 0 74.5 28.5t30.5 79.5v123l-39 -2q-172 -12 -172 -137q0 -48 29.5 -70t76.5 -22zM500 1487l131 -160l131 160h334l-219 -318h-492l-219 318h334z" />
    <glyph glyph-name="uni01CF" unicode="&#x1cf;" horiz-adv-x="704" 
d="M102 1487h500v-1487h-500v1487zM-129 1890h348l133 -143l135 143h347l-228 -299h-508z" />
    <glyph glyph-name="uni01D0" unicode="&#x1d0;" horiz-adv-x="634" 
d="M84 1057h467v-1057h-467v1057zM545 1169h-453l-194 318h311l110 -154l109 154h309z" />
    <glyph glyph-name="uni01D1" unicode="&#x1d1;" horiz-adv-x="1566" 
d="M788 -35q-356 0 -546.5 205t-190.5 571q0 367 191 574t546 207q352 0 540 -205t188 -572t-188 -573.5t-540 -206.5zM788 354q106 0 153.5 97.5t47.5 293.5t-47.5 292t-153.5 96q-210 0 -210 -392q0 -387 210 -387zM305 1890h348l133 -143l136 143h346l-228 -299h-508z
" />
    <glyph glyph-name="uni01D2" unicode="&#x1d2;" horiz-adv-x="1294" 
d="M647 268q62 0 88.5 64t26.5 200t-26.5 198.5t-88.5 62.5t-88.5 -62.5t-26.5 -198.5t26.5 -200t88.5 -64zM649 1090q284 0 443 -149.5t159 -408.5q0 -260 -161.5 -412.5t-442.5 -152.5t-442.5 152.5t-161.5 412.5q0 258 160.5 408t445.5 150zM516 1487l131 -160l131 160
h334l-219 -318h-492l-219 318h334z" />
    <glyph glyph-name="uni01D3" unicode="&#x1d3;" horiz-adv-x="1486" 
d="M748 -35q-322 0 -490 154t-168 465v903h496v-879q0 -144 37.5 -199t119.5 -55q81 0 119.5 55.5t38.5 198.5v879h496v-903q0 -311 -165.5 -465t-483.5 -154zM262 1890h348l133 -143l136 143h346l-228 -299h-508z" />
    <glyph glyph-name="uni01D4" unicode="&#x1d4;" horiz-adv-x="1288" 
d="M442 -23q-68 0 -121 11.5t-91 31.5t-65.5 53t-44.5 71t-27 91.5t-13.5 107t-3.5 124.5v590h467v-580q0 -100 18 -141t76 -41q59 0 79.5 42t20.5 140v580h467v-1057h-440v119q-57 -65 -141.5 -103.5t-180.5 -38.5zM510 1487l131 -160l131 160h334l-219 -318h-492l-219 318
h334z" />
    <glyph glyph-name="Gcaron" unicode="&#x1e6;" horiz-adv-x="1525" 
d="M684 -35q-102 0 -193.5 28.5t-172 89.5t-139 150.5t-92.5 219.5t-34 288q0 371 189 576t530 205q114 0 212 -18t183.5 -59t146.5 -102.5t95.5 -153t34.5 -206.5h-481q-19 88 -60 125t-119 37q-108 0 -158.5 -98t-50.5 -306q0 -202 48.5 -304.5t152.5 -102.5
q84 0 126.5 42.5t66.5 143.5h-176v346h651v-866h-422v111q-72 -76 -149.5 -111t-188.5 -35zM299 1890h348l133 -143l135 143h347l-228 -299h-508z" />
    <glyph glyph-name="gcaron" unicode="&#x1e7;" horiz-adv-x="1302" 
d="M635 -420q-519 0 -529 375h453q0 -61 24.5 -93t63.5 -32q107 0 107 125v186q-103 -106 -279 -106q-185 0 -305.5 136.5t-120.5 379.5q0 246 126 387t317 141q108 0 176 -29t125 -98v105h428v-955q0 -265 -137 -393.5t-449 -128.5zM655 324q61 0 87 60.5t26 182.5
q0 118 -25.5 172t-87.5 54q-61 0 -86.5 -56.5t-25.5 -177.5q0 -120 25.5 -177.5t86.5 -57.5zM526 1487l131 -160l131 160h334l-219 -318h-491l-219 318h333z" />
    <glyph glyph-name="uni01E8" unicode="&#x1e8;" horiz-adv-x="1423" 
d="M598 1487q-5 -481 -8 -574h16l279 574h520l-381 -699l432 -788h-555l-295 627h-16q8 -341 8 -627h-496v1487h496zM254 1890h348l133 -143l135 143h347l-228 -299h-508z" />
    <glyph glyph-name="uni01E9" unicode="&#x1e9;" horiz-adv-x="1255" 
d="M551 1487v-430q0 -190 -8 -365h16l182 365h498l-281 -484l330 -573h-532l-197 422h-16q8 -150 8 -422h-467v1487h467zM-119 1890h326l115 -143l112 143h328l-191 -299h-499z" />
    <glyph glyph-name="uni01EA" unicode="&#x1ea;" horiz-adv-x="1566" 
d="M641 -236q0 59 33 112t90 91q-345 7 -529 210.5t-184 563.5q0 367 191 574t546 207q352 0 540 -205t188 -572q0 -261 -93 -435t-280 -273q-90 -46 -140.5 -85t-50.5 -81q0 -53 80 -53q44 0 80 12v-238q-64 -24 -188 -24q-127 0 -205 54t-78 142zM788 354
q106 0 153.5 97.5t47.5 293.5t-47.5 292t-153.5 96q-210 0 -210 -392q0 -387 210 -387z" />
    <glyph glyph-name="uni01EB" unicode="&#x1eb;" horiz-adv-x="1294" 
d="M1251 532q0 -309 -223 -460q-9 -7 -28 -19t-27 -18q-75 -46 -115.5 -83.5t-40.5 -80.5q0 -22 20.5 -37.5t61.5 -15.5q44 0 80 12v-233q-78 -29 -188 -29q-130 0 -207.5 52t-77.5 140q0 63 41.5 116.5t111.5 90.5h-12q-281 0 -442.5 152.5t-161.5 412.5q0 258 160.5 408
t445.5 150q284 0 443 -149.5t159 -408.5zM645 268q62 0 88.5 64t26.5 200t-26.5 198.5t-88.5 62.5t-88.5 -62.5t-26.5 -198.5t26.5 -200t88.5 -64z" />
    <glyph glyph-name="uni01F8" unicode="&#x1f8;" horiz-adv-x="1574" 
d="M815 1487l250 -998h20q-8 105 -15 288t-7 280v430h410v-1487h-703l-250 997h-20q14 -334 14 -581v-416h-412v1487h713zM352 1890h457l219 -291h-360z" />
    <glyph glyph-name="uni01F9" unicode="&#x1f9;" horiz-adv-x="1288" 
d="M846 1079q79 0 138 -14t99 -44.5t65.5 -69.5t39.5 -97.5t19 -119t5 -144.5v-590h-467v580q0 101 -17 141.5t-75 40.5q-59 0 -80.5 -42.5t-21.5 -139.5v-580h-467v1057h440v-119q57 65 141.5 103t180.5 38zM205 1487h442l213 -303h-350z" />
    <glyph glyph-name="Aringacute" unicode="&#x1fa;" horiz-adv-x="1554" 
d="M582 1487q-101 75 -101 209q0 84 44 147.5t118 95.5l164 244h416l-281 -260q61 -38 97 -97.5t36 -129.5q0 -128 -104 -209h129l461 -1487h-531l-57 231h-410l-57 -231h-512l461 1487h127zM784 1102h-20l-113 -486h244zM778 1579q54 0 87.5 33t33.5 84q0 53 -33 84.5
t-88 31.5t-88 -31.5t-33 -84.5q0 -51 33.5 -84t87.5 -33z" />
    <glyph glyph-name="aringacute" unicode="&#x1fb;" horiz-adv-x="1241" 
d="M412 -25q-76 0 -141 19t-116 57.5t-80.5 103t-29.5 148.5q0 95 43.5 164t128 110.5t194 63t257.5 27.5l43 2v51q0 115 -101 115q-104 0 -104 -123h-430q0 377 573 377q149 0 249.5 -29t160.5 -92.5t85 -154.5t25 -224v-590h-419v123q-53 -75 -143 -111.5t-195 -36.5z
M623 1141q-120 0 -202.5 72.5t-82.5 189.5q0 80 38.5 139.5t106.5 91.5l185 262h409l-297 -276q59 -36 93 -93t34 -124q0 -111 -83 -186.5t-201 -75.5zM606 238q44 0 74.5 28.5t30.5 79.5v123l-39 -2q-172 -12 -172 -137q0 -48 29.5 -70t76.5 -22zM623 1294q48 0 80 31
t32 78t-32 77.5t-80 30.5t-80.5 -30.5t-32.5 -77.5t32.5 -78t80.5 -31z" />
    <glyph glyph-name="AEacute" unicode="&#x1fc;" horiz-adv-x="2039" 
d="M1966 1487v-385h-643l25 -168h553v-369h-502l24 -180h543v-385h-979l-37 274h-381l-88 -274h-495l546 1487h1434zM858 1096h-22l-152 -441h215zM1100 1890h452l-315 -291h-356z" />
    <glyph glyph-name="aeacute" unicode="&#x1fd;" horiz-adv-x="1875" 
d="M1286 -33q-292 0 -440 158q-153 -150 -391 -150q-116 0 -206.5 32t-148 106.5t-57.5 183.5q0 82 30.5 144t83 102.5t133 67t170 39.5t204.5 18l43 2v51q0 115 -101 115q-102 0 -102 -123h-430q7 83 37 148t76.5 107.5t110.5 70t134.5 39.5t151.5 12q230 0 366 -105
q75 53 155.5 79t186.5 26q139 0 244.5 -41.5t168.5 -117t94.5 -173t31.5 -217.5q0 -63 -8 -107h-686q0 -102 24.5 -149t87.5 -47q89 0 119 106h453q-52 -187 -176.5 -282t-358.5 -95zM1370 672q0 147 -117 147q-53 0 -83.5 -42t-30.5 -105h231zM604 238q44 0 73.5 28
t29.5 80v123l-39 -2q-90 -4 -131 -42t-41 -95q0 -48 30.5 -70t77.5 -22zM981 1487h438l-305 -303h-346z" />
    <glyph glyph-name="Oslashacute" unicode="&#x1fe;" horiz-adv-x="1566" 
d="M1335 1300q181 -206 181 -555q0 -369 -193.5 -574.5t-534.5 -205.5q-194 0 -342 68l-114 -162l-201 133l117 166q-197 200 -197 571q0 370 195 575.5t542 205.5q194 0 355 -76l112 160l197 -140zM782 1143q-117 0 -173 -96t-56 -297q0 -99 6 -154l336 504q-49 43 -113 43
zM786 344q117 0 172.5 95t55.5 296q0 97 -8 162l-340 -506q55 -47 120 -47zM795 1890h452l-315 -291h-357z" />
    <glyph glyph-name="oslashacute" unicode="&#x1ff;" horiz-adv-x="1294" 
d="M90 -14l109 133q-156 150 -156 405q0 259 162 412.5t442 153.5q156 0 285 -52l108 131l138 -98l-99 -119q172 -150 172 -420q0 -259 -162 -412t-442 -153q-174 0 -309 60l-109 -140zM647 246q144 0 144 272q0 38 -3 72l-231 -289q28 -55 90 -55zM717 766q-30 41 -80 41
q-69 0 -102 -66t-33 -221v-20zM672 1487h438l-305 -303h-346z" />
    <glyph glyph-name="uni0218" unicode="&#x218;" horiz-adv-x="1384" 
d="M690 -35q-300 0 -472.5 145.5t-172.5 393.5h512q5 -97 34.5 -139.5t102.5 -42.5q65 0 99 26t34 64q0 48 -28 70.5t-113 49.5l-252 78q-368 111 -368 447q0 212 167 338.5t455 126.5q128 0 235.5 -30t193.5 -90.5t136 -163t52 -237.5h-492q0 86 -25 125t-98 39
q-60 0 -91.5 -24t-31.5 -66q0 -41 28 -64.5t101 -43.5l199 -58q90 -26 154 -52.5t121 -65t91.5 -86t54 -113.5t19.5 -150q0 -226 -162.5 -351.5t-482.5 -125.5zM629 -379h-125v297h403v-299l-180 -223h-201z" />
    <glyph glyph-name="uni0219" unicode="&#x219;" horiz-adv-x="1196" 
d="M588 -33q-102 0 -183 11t-151 37t-116.5 68t-72.5 105.5t-26 147.5h455q1 -60 30 -87.5t84 -27.5q107 0 107 74q0 30 -17.5 49.5t-72.5 30.5l-250 51q-54 11 -95 24.5t-84.5 39t-72 59.5t-46.5 86.5t-18 118.5q0 163 144 249.5t397 86.5q525 0 533 -361h-426
q0 107 -103 107q-44 0 -72 -17t-28 -51q0 -35 30.5 -52t110.5 -36l238 -51q270 -58 270 -324q0 -111 -76 -188.5t-201 -113.5t-288 -36zM506 -377h-103v295h379v-297l-178 -223h-198z" />
    <glyph glyph-name="uni021A" unicode="&#x21a;" horiz-adv-x="1316" 
d="M18 1094v393h1280v-393h-393v-1094h-495v1094h-392zM582 -379h-125v297h403v-299l-180 -223h-201z" />
    <glyph glyph-name="uni021B" unicode="&#x21b;" horiz-adv-x="854" 
d="M582 -16q-79 0 -139 11t-114 39t-88.5 74t-54.5 120t-20 173v344h-152v312h152v286h467v-286h184v-312h-184v-315q0 -62 22 -88.5t80 -26.5q47 0 82 9v-324q-141 -16 -235 -16zM420 -377h-103v295h379v-297l-178 -223h-199z" />
    <glyph glyph-name="uni021E" unicode="&#x21e;" horiz-adv-x="1511" 
d="M598 1487v-529h315v529h496v-1487h-496v557h-315v-557h-496v1487h496zM274 1890h349l133 -143l135 143h346l-227 -299h-508z" />
    <glyph glyph-name="uni021F" unicode="&#x21f;" 
d="M84 1487h467v-526q121 118 295 118q113 0 187 -31.5t113 -98.5t53.5 -150.5t14.5 -208.5v-590h-466v573q0 49 -3 79t-12 57.5t-27.5 40t-48.5 12.5q-60 0 -83 -41.5t-23 -122.5v-598h-467v1487zM-123 1890h326l114 -143l113 143h328l-191 -299h-499z" />
    <glyph glyph-name="uni022E" unicode="&#x22e;" horiz-adv-x="1566" 
d="M788 -35q-356 0 -546.5 205t-190.5 571q0 367 191 574t546 207q352 0 540 -205t188 -572t-188 -573.5t-540 -206.5zM788 354q106 0 153.5 97.5t47.5 293.5t-47.5 292t-153.5 96q-210 0 -210 -392q0 -387 210 -387zM543 1890h487v-319h-487v319z" />
    <glyph glyph-name="uni022F" unicode="&#x22f;" horiz-adv-x="1294" 
d="M647 268q62 0 88.5 64t26.5 200t-26.5 198.5t-88.5 62.5t-88.5 -62.5t-26.5 -198.5t26.5 -200t88.5 -64zM649 1090q284 0 443 -149.5t159 -408.5q0 -260 -161.5 -412.5t-442.5 -152.5t-442.5 152.5t-161.5 412.5q0 258 160.5 408t445.5 150zM416 1487h463v-338h-463v338z
" />
    <glyph glyph-name="uni0232" unicode="&#x232;" horiz-adv-x="1357" 
d="M-16 1487h520l182 -516h14l164 516h512l-438 -973v-514h-518v510zM324 1880h720v-281h-720v281z" />
    <glyph glyph-name="uni0233" unicode="&#x233;" horiz-adv-x="1251" 
d="M369 -414q-94 0 -226 21v305q39 -6 74 -6q57 0 88 18t31 74q0 26 -15 81.5t-92.5 289t-234.5 688.5h532l58 -385q7 -38 21 -133t22 -142h20q8 47 22 142t21 133l58 385h503l-307 -1000q-53 -173 -121.5 -273t-177.5 -149t-276 -49zM293 1456h663v-280h-663v280z" />
    <glyph glyph-name="uni0237" unicode="&#x237;" horiz-adv-x="636" 
d="M59 -410q-74 0 -186 17v323q23 -6 68 -6q82 0 113.5 53.5t31.5 155.5v924h467v-1051q0 -96 -26 -169t-70 -119.5t-108 -75.5t-134.5 -40.5t-155.5 -11.5z" />
    <glyph glyph-name="uni0244" unicode="&#x244;" horiz-adv-x="1646" 
d="M39 928h131v559h496v-559h315v559h496v-559h131v-305h-131v-39q0 -311 -166 -465t-484 -154q-322 0 -489.5 154t-167.5 465v39h-131v305zM823 354q81 0 119.5 55.5t38.5 198.5v15h-315v-15q0 -144 37.5 -199t119.5 -55z" />
    <glyph glyph-name="uni0259" unicode="&#x259;" horiz-adv-x="1273" 
d="M639 1090q282 0 436 -149t154 -409t-157 -412.5t-433 -152.5q-290 0 -440 148t-150 417q0 53 8 97h693q0 101 -24.5 145.5t-88.5 44.5q-86 0 -115 -102h-465q28 92 72 158.5t112.5 116t167.5 74t230 24.5zM514 385q0 -71 25.5 -109t93.5 -38q53 0 85 41.5t32 105.5h-236z
" />
    <glyph glyph-name="uni025B" unicode="&#x25b;" horiz-adv-x="1208" 
d="M604 -35q-268 0 -415.5 79.5t-147.5 234.5q0 95 61 162t172 98v8q-98 26 -153 89.5t-55 149.5q0 144 141.5 224t404.5 80q273 0 406.5 -103.5t144.5 -306.5h-399q-5 67 -41.5 106t-101.5 39q-57 0 -90 -25t-33 -69q0 -63 96 -63h127v-262h-129q-61 0 -89 -19t-28 -61
q0 -97 135 -97q156 0 170 164h400q0 -203 -141.5 -315.5t-434.5 -112.5z" />
    <glyph glyph-name="uni0263" unicode="&#x263;" horiz-adv-x="1101" 
d="M551 -420q-220 0 -325 88.5t-105 251.5q0 118 80 262l127 230l-377 645h463l137 -246l137 246h463l-379 -645l129 -230q80 -144 80 -262q0 -163 -105 -251.5t-325 -88.5zM496 -127q0 -56 55 -59q55 3 55 59t-47 147l-8 15l-8 -15q-47 -91 -47 -147z" />
    <glyph glyph-name="uni0268" unicode="&#x268;" horiz-adv-x="798" 
d="M43 715h123v342h467v-342h123v-252h-123v-463h-467v463h-123v252zM166 1487h467v-344h-467v344z" />
    <glyph glyph-name="uni0272" unicode="&#x272;" horiz-adv-x="1288" 
d="M846 1079q79 0 138 -14t99 -44.5t65.5 -69.5t39.5 -97.5t19 -119t5 -144.5v-590h-467v580q0 101 -17 141.5t-75 40.5q-59 0 -80.5 -42.5t-21.5 -139.5v-570q0 -92 -27 -164.5t-72.5 -119.5t-110 -78.5t-135.5 -44.5t-153 -13q-63 0 -170 17v323q30 -6 56 -6
q74 0 109.5 40t35.5 130v963h440v-119q57 65 141.5 103t180.5 38z" />
    <glyph glyph-name="uni0289" unicode="&#x289;" horiz-adv-x="1454" 
d="M43 715h115v342h467v-342h194v342h467v-342h125v-252h-125v-463h-440v119q-57 -65 -141.5 -103.5t-180.5 -38.5q-79 0 -138 14t-99 44.5t-65.5 69.5t-39.5 97.5t-19 118t-5 142.5h-115v252zM719 295q57 0 77.5 38.5t22.5 129.5h-194q0 -92 18.5 -130t75.5 -38z" />
    <glyph glyph-name="uni02BC" unicode="&#x2bc;" horiz-adv-x="471" 
d="M186 1223h-123v303h369v-305l-178 -265h-188z" />
    <glyph glyph-name="circumflex" unicode="&#x2c6;" horiz-adv-x="1257" 
d="M629 1327l-131 -158h-334l219 318h491l220 -318h-334z" />
    <glyph glyph-name="caron" unicode="&#x2c7;" horiz-adv-x="1257" 
d="M498 1487l131 -160l131 160h334l-220 -318h-491l-219 318h334z" />
    <glyph glyph-name="uni02C9" unicode="&#x2c9;" horiz-adv-x="1216" 
d="M276 1456h664v-280h-664v280z" />
    <glyph glyph-name="breve" unicode="&#x2d8;" horiz-adv-x="1232" 
d="M616 1151q-195 0 -300.5 89.5t-110.5 246.5h317q3 -123 94 -123q92 0 95 123h317q-5 -157 -111 -246.5t-301 -89.5z" />
    <glyph glyph-name="dotaccent" unicode="&#x2d9;" horiz-adv-x="1331" 
d="M434 1487h463v-338h-463v338z" />
    <glyph glyph-name="ring" unicode="&#x2da;" horiz-adv-x="1286" 
d="M643 1141q-120 0 -202.5 72.5t-82.5 189.5t82.5 189.5t202.5 72.5q118 0 201.5 -75.5t83.5 -186.5t-83.5 -186.5t-201.5 -75.5zM643 1294q48 0 80.5 31t32.5 78t-32.5 77.5t-80.5 30.5t-80.5 -30.5t-32.5 -77.5t32.5 -78t80.5 -31z" />
    <glyph glyph-name="ogonek" unicode="&#x2db;" horiz-adv-x="1318" 
d="M711 -432q-127 0 -204 54t-77 142q0 83 59.5 149.5t153.5 96.5l254 -10q-158 -58 -158 -129q0 -53 80 -53q44 0 80 12v-238q-65 -24 -188 -24z" />
    <glyph glyph-name="tilde" unicode="&#x2dc;" horiz-adv-x="1314" 
d="M238 1176q22 311 233 311q56 0 159.5 -37t155.5 -37q22 0 44 18.5t22 55.5h225q-22 -311 -233 -311q-56 0 -160.5 36.5t-155.5 36.5q-22 0 -43.5 -18t-21.5 -55h-225z" />
    <glyph glyph-name="hungarumlaut" unicode="&#x2dd;" horiz-adv-x="1335" 
d="M971 1487h393l-264 -303h-336zM426 1487h379l-234 -303h-321z" />
    <glyph glyph-name="gravecomb" unicode="&#x300;" horiz-adv-x="0" 
d="M-836 1487h443l213 -303h-350z" />
    <glyph glyph-name="acutecomb" unicode="&#x301;" horiz-adv-x="0" 
d="M-625 1487h439l-306 -303h-346z" />
    <glyph glyph-name="uni0302" unicode="&#x302;" horiz-adv-x="0" 
d="M-510 1327l-131 -158h-334l219 318h492l219 -318h-334z" />
    <glyph glyph-name="tildecomb" unicode="&#x303;" horiz-adv-x="0" 
d="M-930 1176q22 311 234 311q56 0 159.5 -37t155.5 -37q22 0 44 18.5t22 55.5h225q-22 -311 -234 -311q-56 0 -160 36.5t-155 36.5q-23 0 -44.5 -18t-21.5 -55h-225z" />
    <glyph glyph-name="uni0304" unicode="&#x304;" horiz-adv-x="0" 
d="M-844 1456h664v-280h-664v280z" />
    <glyph glyph-name="uni0306" unicode="&#x306;" horiz-adv-x="0" 
d="M-514 1151q-195 0 -301 89.5t-111 246.5h318q3 -123 94 -123t94 123h318q-5 -157 -111 -246.5t-301 -89.5z" />
    <glyph glyph-name="uni0307" unicode="&#x307;" horiz-adv-x="0" 
d="M-743 1487h462v-338h-462v338z" />
    <glyph glyph-name="uni0308" unicode="&#x308;" horiz-adv-x="0" 
d="M-424 1487h385v-336h-385v336zM-985 1487h385v-336h-385v336z" />
    <glyph glyph-name="uni030A" unicode="&#x30a;" horiz-adv-x="0" 
d="M-512 1141q-120 0 -202.5 72.5t-82.5 189.5t82.5 189.5t202.5 72.5q118 0 201.5 -75.5t83.5 -186.5t-83.5 -186.5t-201.5 -75.5zM-512 1294q48 0 80.5 31t32.5 78t-32.5 77.5t-80.5 30.5t-80.5 -30.5t-32.5 -77.5t32.5 -78t80.5 -31z" />
    <glyph glyph-name="uni030B" unicode="&#x30b;" horiz-adv-x="0" 
d="M-365 1487h394l-265 -303h-335zM-909 1487h379l-234 -303h-321z" />
    <glyph glyph-name="uni030C" unicode="&#x30c;" horiz-adv-x="0" 
d="M-643 1487l131 -160l131 160h334l-219 -318h-492l-219 318h334z" />
    <glyph glyph-name="uni0312" unicode="&#x312;" horiz-adv-x="0" 
d="M-700 1442l178 223h198l-120 -225h122v-307h-378v309z" />
    <glyph glyph-name="uni0313" unicode="&#x313;" horiz-adv-x="0" 
d="M-598 1223h-123v303h369v-305l-178 -265h-189z" />
    <glyph glyph-name="dotbelowcomb" unicode="&#x323;" horiz-adv-x="0" 
d="M-745 -82h466v-332h-466v332z" />
    <glyph glyph-name="uni0326" unicode="&#x326;" horiz-adv-x="0" 
d="M-598 -377h-102v295h378v-297l-178 -223h-198z" />
    <glyph glyph-name="uni0327" unicode="&#x327;" horiz-adv-x="0" 
d="M-477 -432q-100 0 -144 10v143q9 -4 62 -4q47 0 70.5 21t23.5 53q0 31 -20.5 52.5t-57.5 21.5q-23 0 -37 -2v157h218v-73q76 -7 113.5 -58.5t37.5 -117.5q0 -54 -22.5 -94.5t-61.5 -63.5t-84.5 -34t-97.5 -11z" />
    <glyph glyph-name="uni0328" unicode="&#x328;" horiz-adv-x="0" 
d="M-469 -432q-127 0 -204 54t-77 142q0 83 59.5 149.5t153.5 96.5l254 -10q-157 -58 -157 -129q0 -53 80 -53q43 0 79 12v-238q-64 -24 -188 -24z" />
    <glyph glyph-name="uni032E" unicode="&#x32e;" horiz-adv-x="0" 
d="M-514 -420q-194 0 -300.5 89.5t-111.5 244.5h318q3 -121 94 -121t94 121h318q-5 -155 -111.5 -244.5t-300.5 -89.5z" />
    <glyph glyph-name="uni0331" unicode="&#x331;" horiz-adv-x="0" 
d="M-844 -111h664v-280h-664v280z" />
    <glyph glyph-name="uni037E" unicode="&#x37e;" horiz-adv-x="634" 
d="M559 1057v-426h-467v426h467zM92 33v393h467v-418l-188 -401h-258l147 426h-168z" />
    <glyph glyph-name="dieresistonos" unicode="&#x385;" horiz-adv-x="1609" 
d="M1071 1548l-158 -364h-292l30 364h420zM520 1487v-303h-334v303h334zM1448 1487v-303h-334v303h334z" />
    <glyph glyph-name="anoteleia" unicode="&#x387;" horiz-adv-x="614" 
d="M543 1061v-443h-467v443h467z" />
    <glyph glyph-name="uni0394" unicode="&#x394;" horiz-adv-x="1492" 
d="M1044 1487l426 -1225v-262h-1450v262l431 1225h593zM856 651q-85 318 -111 471h-20q-45 -220 -113 -471l-80 -286h404z" />
    <glyph glyph-name="Sigma" unicode="&#x3a3;" horiz-adv-x="1267" 
d="M389 741l-309 344v402h1108v-393h-537l271 -279v-59l-306 -363h596v-393h-1138v369z" />
    <glyph glyph-name="uni03A9" unicode="&#x3a9;" horiz-adv-x="1691" 
d="M303 336q-114 83 -171.5 223.5t-57.5 267.5q0 221 99.5 380t272.5 238t400 79t400 -79t272.5 -238t99.5 -380q0 -78 -24.5 -165t-80.5 -178t-135 -148h248v-336h-713v287q52 14 91.5 51.5t62.5 84.5t37 108.5t19 116t5 114.5q0 86 -15 159.5t-46.5 135t-88 96.5
t-132.5 35t-132.5 -35t-88.5 -96.5t-47 -135t-15 -159.5q0 -60 5 -114.5t19 -116t37 -108.5t62.5 -84.5t91.5 -51.5v-287h-712v336h237z" />
    <glyph glyph-name="uni03BC" unicode="&#x3bc;" horiz-adv-x="1370" 
d="M551 451q0 -79 19 -117.5t71 -38.5q63 0 85 46t22 142v574h466v-674q0 -50 17 -69t49 -19q30 0 57 8v-295q-99 -24 -207 -24q-183 0 -258 86q-10 8 -22 28q-52 -106 -178 -106q-83 0 -121 28v-411h-467v1448h467v-606z" />
    <glyph glyph-name="pi" unicode="&#x3c0;" horiz-adv-x="1503" 
d="M1200 -16q-366 0 -366 360v393h-175v-737h-469v737h-143v320h1397v-320h-144v-315q0 -64 18 -94.5t60 -30.5q21 0 45 6v-297q-110 -22 -223 -22z" />
    <glyph glyph-name="uni1E02" unicode="&#x1e02;" horiz-adv-x="1409" 
d="M819 1487q267 0 388.5 -98.5t121.5 -298.5q0 -258 -285 -328v-8q149 -12 233.5 -100.5t84.5 -235.5q0 -215 -125 -316.5t-414 -101.5h-721v1487h717zM709 354q73 0 111 31.5t38 89.5q0 121 -147 121h-117v-242h115zM700 903q148 0 148 113q0 117 -148 117h-106v-230h106z
M444 1890h488v-319h-488v319z" />
    <glyph glyph-name="uni1E03" unicode="&#x1e03;" horiz-adv-x="1302" 
d="M829 -23q-205 0 -307 129v-106h-438v1487h467v-516q56 54 121.5 81t167.5 27q184 0 299.5 -145t115.5 -402q0 -259 -118 -407t-308 -148zM649 793q-62 0 -88 -62.5t-26 -198.5q0 -137 26 -201.5t88 -64.5t88.5 64.5t26.5 201.5q0 136 -26.5 198.5t-88.5 62.5zM662 1487
h462v-338h-462v338z" />
    <glyph glyph-name="uni1E0A" unicode="&#x1e0a;" horiz-adv-x="1497" 
d="M668 1487q395 0 585.5 -192t190.5 -550q0 -375 -187.5 -560t-588.5 -185h-566v1487h566zM668 377q148 0 205 88.5t57 279.5q0 185 -59 275t-203 90h-70v-733h70zM442 1890h488v-319h-488v319z" />
    <glyph glyph-name="uni1E0B" unicode="&#x1e0b;" horiz-adv-x="1302" 
d="M473 -23q-190 0 -308 148t-118 407q0 257 116.5 402t299.5 145q182 0 289 -104v512h467v-1487h-439v106q-53 -73 -129 -101t-178 -28zM653 793q-62 0 -88 -62.5t-26 -198.5q0 -137 26 -201.5t88 -64.5t88.5 64.5t26.5 201.5q0 136 -26.5 198.5t-88.5 62.5zM178 1487h463
v-338h-463v338z" />
    <glyph glyph-name="uni1E0C" unicode="&#x1e0c;" horiz-adv-x="1497" 
d="M668 1487q395 0 585.5 -192t190.5 -550q0 -375 -187.5 -560t-588.5 -185h-566v1487h566zM668 377q148 0 205 88.5t57 279.5q0 185 -59 275t-203 90h-70v-733h70zM444 -82h484v-332h-484v332z" />
    <glyph glyph-name="uni1E0D" unicode="&#x1e0d;" horiz-adv-x="1302" 
d="M473 -23q-190 0 -308 148t-118 407q0 257 116.5 402t299.5 145q182 0 289 -104v512h467v-1487h-439v106q-53 -73 -129 -101t-178 -28zM653 793q-62 0 -88 -62.5t-26 -198.5q0 -137 26 -201.5t88 -64.5t88.5 64.5t26.5 201.5q0 136 -26.5 198.5t-88.5 62.5zM418 -82h467
v-332h-467v332z" />
    <glyph glyph-name="uni1E0E" unicode="&#x1e0e;" horiz-adv-x="1497" 
d="M668 1487q395 0 585.5 -192t190.5 -550q0 -375 -187.5 -560t-588.5 -185h-566v1487h566zM668 377q148 0 205 88.5t57 279.5q0 185 -59 275t-203 90h-70v-733h70zM326 -111h721v-280h-721v280z" />
    <glyph glyph-name="uni1E0F" unicode="&#x1e0f;" horiz-adv-x="1302" 
d="M473 -23q-190 0 -308 148t-118 407q0 257 116.5 402t299.5 145q182 0 289 -104v512h467v-1487h-439v106q-53 -73 -129 -101t-178 -28zM653 793q-62 0 -88 -62.5t-26 -198.5q0 -137 26 -201.5t88 -64.5t88.5 64.5t26.5 201.5q0 136 -26.5 198.5t-88.5 62.5zM319 -111h664
v-280h-664v280z" />
    <glyph glyph-name="uni1E10" unicode="&#x1e10;" horiz-adv-x="1497" 
d="M668 1487q395 0 585.5 -192t190.5 -550q0 -375 -187.5 -560t-588.5 -185h-566v1487h566zM668 377q148 0 205 88.5t57 279.5q0 185 -59 275t-203 90h-70v-733h70zM610 -379h-125v297h404v-299l-180 -223h-201z" />
    <glyph glyph-name="uni1E11" unicode="&#x1e11;" horiz-adv-x="1302" 
d="M473 -23q-190 0 -308 148t-118 407q0 257 116.5 402t299.5 145q182 0 289 -104v512h467v-1487h-439v106q-53 -73 -129 -101t-178 -28zM653 793q-62 0 -88 -62.5t-26 -198.5q0 -137 26 -201.5t88 -64.5t88.5 64.5t26.5 201.5q0 136 -26.5 198.5t-88.5 62.5zM565 -377h-102
v295h379v-297l-178 -223h-199z" />
    <glyph glyph-name="uni1E1E" unicode="&#x1e1e;" horiz-adv-x="1202" 
d="M1151 1487v-385h-553v-230h516v-385h-516v-487h-496v1487h1049zM389 1890h488v-319h-488v319z" />
    <glyph glyph-name="uni1E1F" unicode="&#x1e1f;" horiz-adv-x="837" 
d="M23 745v312h147v33q0 99 22.5 173t60.5 120t94.5 74.5t117.5 39t137 10.5q69 0 221 -20v-291q-25 8 -69 8q-60 -2 -88.5 -34t-28.5 -113h186v-312h-186v-745h-467v745h-147zM311 1890h463v-319h-463v319z" />
    <glyph glyph-name="uni1E20" unicode="&#x1e20;" horiz-adv-x="1525" 
d="M684 -35q-102 0 -193.5 28.5t-172 89.5t-139 150.5t-92.5 219.5t-34 288q0 371 189 576t530 205q114 0 212 -18t183.5 -59t146.5 -102.5t95.5 -153t34.5 -206.5h-481q-19 88 -60 125t-119 37q-108 0 -158.5 -98t-50.5 -306q0 -202 48.5 -304.5t152.5 -102.5
q84 0 126.5 42.5t66.5 143.5h-176v346h651v-866h-422v111q-72 -76 -149.5 -111t-188.5 -35zM420 1880h721v-281h-721v281z" />
    <glyph glyph-name="uni1E21" unicode="&#x1e21;" horiz-adv-x="1302" 
d="M635 -420q-519 0 -529 375h453q0 -61 24.5 -93t63.5 -32q107 0 107 125v186q-103 -106 -279 -106q-185 0 -305.5 136.5t-120.5 379.5q0 246 126 387t317 141q108 0 176 -29t125 -98v105h428v-955q0 -265 -137 -393.5t-449 -128.5zM655 324q61 0 87 60.5t26 182.5
q0 118 -25.5 172t-87.5 54q-61 0 -86.5 -56.5t-25.5 -177.5q0 -120 25.5 -177.5t86.5 -57.5zM326 1456h663v-280h-663v280z" />
    <glyph glyph-name="uni1E22" unicode="&#x1e22;" horiz-adv-x="1511" 
d="M598 1487v-529h315v529h496v-1487h-496v557h-315v-557h-496v1487h496zM512 1890h487v-319h-487v319z" />
    <glyph glyph-name="uni1E23" unicode="&#x1e23;" 
d="M84 1487h467v-526q121 118 295 118q113 0 187 -31.5t113 -98.5t53.5 -150.5t14.5 -208.5v-590h-466v573q0 49 -3 79t-12 57.5t-27.5 40t-48.5 12.5q-60 0 -83 -41.5t-23 -122.5v-598h-467v1487zM662 1487h462v-338h-462v338z" />
    <glyph glyph-name="uni1E24" unicode="&#x1e24;" horiz-adv-x="1511" 
d="M598 1487v-529h315v529h496v-1487h-496v557h-315v-557h-496v1487h496zM514 -82h483v-332h-483v332z" />
    <glyph glyph-name="uni1E25" unicode="&#x1e25;" 
d="M84 1487h467v-526q121 118 295 118q113 0 187 -31.5t113 -98.5t53.5 -150.5t14.5 -208.5v-590h-466v573q0 49 -3 79t-12 57.5t-27.5 40t-48.5 12.5q-60 0 -83 -41.5t-23 -122.5v-598h-467v1487zM412 -82h467v-332h-467v332z" />
    <glyph glyph-name="uni1E2A" unicode="&#x1e2a;" horiz-adv-x="1511" 
d="M598 1487v-529h315v529h496v-1487h-496v557h-315v-557h-496v1487h496zM756 -420q-197 0 -304.5 86.5t-115.5 247.5h317q7 -125 103 -125q94 0 102 125h318q-8 -161 -115.5 -247.5t-304.5 -86.5z" />
    <glyph glyph-name="uni1E2B" unicode="&#x1e2b;" 
d="M84 1487h467v-526q121 118 295 118q113 0 187 -31.5t113 -98.5t53.5 -150.5t14.5 -208.5v-590h-466v573q0 49 -3 79t-12 57.5t-27.5 40t-48.5 12.5q-60 0 -83 -41.5t-23 -122.5v-598h-467v1487zM645 -420q-194 0 -300.5 89.5t-111.5 244.5h318q3 -121 94 -121t94 121h318
q-5 -155 -111.5 -244.5t-300.5 -89.5z" />
    <glyph glyph-name="uni1E36" unicode="&#x1e36;" horiz-adv-x="1173" 
d="M598 1487v-1094h557v-393h-1053v1487h496zM397 -82h484v-332h-484v332z" />
    <glyph glyph-name="uni1E37" unicode="&#x1e37;" horiz-adv-x="634" 
d="M84 1487h467v-1487h-467v1487zM84 -82h467v-332h-467v332z" />
    <glyph glyph-name="uni1E38" unicode="&#x1e38;" horiz-adv-x="1173" 
d="M598 1487v-1094h557v-393h-1053v1487h496zM397 -82h484v-332h-484v332zM-10 1880h721v-281h-721v281z" />
    <glyph glyph-name="uni1E39" unicode="&#x1e39;" horiz-adv-x="634" 
d="M84 1487h467v-1487h-467v1487zM84 -82h467v-332h-467v332zM-10 1880h655v-281h-655v281z" />
    <glyph glyph-name="uni1E3A" unicode="&#x1e3a;" horiz-adv-x="1173" 
d="M598 1487v-1094h557v-393h-1053v1487h496zM279 -111h720v-280h-720v280z" />
    <glyph glyph-name="uni1E3B" unicode="&#x1e3b;" horiz-adv-x="634" 
d="M84 1487h467v-1487h-467v1487zM-10 -111h655v-280h-655v280z" />
    <glyph glyph-name="uni1E3E" unicode="&#x1e3e;" horiz-adv-x="1986" 
d="M836 1487l67 -432q46 -317 84 -523h21q13 67 42 264t35 259l66 432h733v-1487h-397v410q0 418 6 645h-20l-211 -1055h-545l-215 1055h-21q11 -416 11 -645v-410h-390v1487h734zM1006 1890h452l-315 -291h-357z" />
    <glyph glyph-name="uni1E3F" unicode="&#x1e3f;" horiz-adv-x="1925" 
d="M1386 573q0 97 -17.5 143t-70.5 46q-62 0 -81 -45t-19 -144v-573h-463v573q0 97 -17.5 143t-70.5 46q-62 0 -81 -45t-19 -144v-573h-463v1057h438v-119q55 64 139 102.5t175 38.5q130 0 198 -37.5t107 -115.5q103 153 350 153q92 0 156.5 -22t104 -60t61 -102.5t29 -134
t7.5 -170.5v-590h-463v573zM987 1487h438l-305 -303h-346z" />
    <glyph glyph-name="uni1E40" unicode="&#x1e40;" horiz-adv-x="1986" 
d="M836 1487l67 -432q46 -317 84 -523h21q13 67 42 264t35 259l66 432h733v-1487h-397v410q0 418 6 645h-20l-211 -1055h-545l-215 1055h-21q11 -416 11 -645v-410h-390v1487h734zM750 1890h487v-319h-487v319z" />
    <glyph glyph-name="uni1E41" unicode="&#x1e41;" horiz-adv-x="1925" 
d="M1386 573q0 97 -17.5 143t-70.5 46q-62 0 -81 -45t-19 -144v-573h-463v573q0 97 -17.5 143t-70.5 46q-62 0 -81 -45t-19 -144v-573h-463v1057h438v-119q55 64 139 102.5t175 38.5q130 0 198 -37.5t107 -115.5q103 153 350 153q92 0 156.5 -22t104 -60t61 -102.5t29 -134
t7.5 -170.5v-590h-463v573zM731 1487h463v-338h-463v338z" />
    <glyph glyph-name="uni1E42" unicode="&#x1e42;" horiz-adv-x="1986" 
d="M836 1487l67 -432q46 -317 84 -523h21q13 67 42 264t35 259l66 432h733v-1487h-397v410q0 418 6 645h-20l-211 -1055h-545l-215 1055h-21q11 -416 11 -645v-410h-390v1487h734zM752 -82h483v-332h-483v332z" />
    <glyph glyph-name="uni1E43" unicode="&#x1e43;" horiz-adv-x="1925" 
d="M1386 573q0 97 -17.5 143t-70.5 46q-62 0 -81 -45t-19 -144v-573h-463v573q0 97 -17.5 143t-70.5 46q-62 0 -81 -45t-19 -144v-573h-463v1057h438v-119q55 64 139 102.5t175 38.5q130 0 198 -37.5t107 -115.5q103 153 350 153q92 0 156.5 -22t104 -60t61 -102.5t29 -134
t7.5 -170.5v-590h-463v573zM733 -82h467v-332h-467v332z" />
    <glyph glyph-name="uni1E44" unicode="&#x1e44;" horiz-adv-x="1574" 
d="M815 1487l250 -998h20q-8 105 -15 288t-7 280v430h410v-1487h-703l-250 997h-20q14 -334 14 -581v-416h-412v1487h713zM551 1890h487v-319h-487v319z" />
    <glyph glyph-name="uni1E45" unicode="&#x1e45;" horiz-adv-x="1288" 
d="M846 1079q79 0 138 -14t99 -44.5t65.5 -69.5t39.5 -97.5t19 -119t5 -144.5v-590h-467v580q0 101 -17 141.5t-75 40.5q-59 0 -80.5 -42.5t-21.5 -139.5v-580h-467v1057h440v-119q57 65 141.5 103t180.5 38zM412 1487h462v-338h-462v338z" />
    <glyph glyph-name="uni1E46" unicode="&#x1e46;" horiz-adv-x="1574" 
d="M815 1487l250 -998h20q-8 105 -15 288t-7 280v430h410v-1487h-703l-250 997h-20q14 -334 14 -581v-416h-412v1487h713zM547 -82h483v-332h-483v332z" />
    <glyph glyph-name="uni1E47" unicode="&#x1e47;" horiz-adv-x="1288" 
d="M846 1079q79 0 138 -14t99 -44.5t65.5 -69.5t39.5 -97.5t19 -119t5 -144.5v-590h-467v580q0 101 -17 141.5t-75 40.5q-59 0 -80.5 -42.5t-21.5 -139.5v-580h-467v1057h440v-119q57 65 141.5 103t180.5 38zM416 -82h467v-332h-467v332z" />
    <glyph glyph-name="uni1E48" unicode="&#x1e48;" horiz-adv-x="1574" 
d="M815 1487l250 -998h20q-8 105 -15 288t-7 280v430h410v-1487h-703l-250 997h-20q14 -334 14 -581v-416h-412v1487h713zM428 -111h721v-280h-721v280z" />
    <glyph glyph-name="uni1E49" unicode="&#x1e49;" horiz-adv-x="1288" 
d="M846 1079q79 0 138 -14t99 -44.5t65.5 -69.5t39.5 -97.5t19 -119t5 -144.5v-590h-467v580q0 101 -17 141.5t-75 40.5q-59 0 -80.5 -42.5t-21.5 -139.5v-580h-467v1057h440v-119q57 65 141.5 103t180.5 38zM317 -111h664v-280h-664v280z" />
    <glyph glyph-name="uni1E56" unicode="&#x1e56;" horiz-adv-x="1372" 
d="M733 1487q284 0 450.5 -134t166.5 -386t-166.5 -386.5t-450.5 -134.5h-145v-446h-486v1487h631zM659 815q102 0 152.5 35t50.5 117t-50.5 116.5t-152.5 34.5h-71v-303h71zM457 1890h487v-319h-487v319z" />
    <glyph glyph-name="uni1E57" unicode="&#x1e57;" horiz-adv-x="1302" 
d="M829 1079q190 0 308 -148t118 -407q0 -257 -115.5 -402t-299.5 -145q-181 0 -289 105v-475h-467v1450h438v-107q53 73 129 101t178 28zM649 793q-62 0 -88 -62.5t-26 -198.5q0 -137 26 -201.5t88 -64.5t88.5 64.5t26.5 201.5q0 136 -26.5 198.5t-88.5 62.5zM446 1487h463
v-338h-463v338z" />
    <glyph glyph-name="uni1E5A" unicode="&#x1e5a;" horiz-adv-x="1423" 
d="M782 1487q543 0 543 -397q0 -67 -17 -128.5t-51 -115.5t-94 -89.5t-139 -43.5l-4 -17q30 -1 57 -8.5t47.5 -17t39 -26.5t32 -31.5t26.5 -39.5t21 -42.5t18 -47.5t15.5 -48t14.5 -51t14 -50l98 -334h-518l-41 180q-43 196 -49 217q-23 77 -63 99q-31 16 -87 16h-57v-512
h-486v1487h680zM639 868q106 0 152.5 31.5t46.5 108.5q0 71 -47 96.5t-156 25.5h-47v-262h51zM461 -82h483v-332h-483v332z" />
    <glyph glyph-name="uni1E5B" unicode="&#x1e5b;" horiz-adv-x="921" 
d="M502 1057v-160q75 176 301 176q59 0 100 -8v-381q-68 10 -110 10q-117 0 -176.5 -63t-65.5 -211v-420h-467v1057h418zM84 -82h467v-332h-467v332z" />
    <glyph glyph-name="uni1E5C" unicode="&#x1e5c;" horiz-adv-x="1423" 
d="M782 1487q543 0 543 -397q0 -67 -17 -128.5t-51 -115.5t-94 -89.5t-139 -43.5l-4 -17q30 -1 57 -8.5t47.5 -17t39 -26.5t32 -31.5t26.5 -39.5t21 -42.5t18 -47.5t15.5 -48t14.5 -51t14 -50l98 -334h-518l-41 180q-43 196 -49 217q-23 77 -63 99q-31 16 -87 16h-57v-512
h-486v1487h680zM639 868q106 0 152.5 31.5t46.5 108.5q0 71 -47 96.5t-156 25.5h-47v-262h51zM461 -82h483v-332h-483v332zM311 1880h721v-281h-721v281z" />
    <glyph glyph-name="uni1E5D" unicode="&#x1e5d;" horiz-adv-x="921" 
d="M502 1057v-160q75 176 301 176q59 0 100 -8v-381q-68 10 -110 10q-117 0 -176.5 -63t-65.5 -211v-420h-467v1057h418zM84 -82h467v-332h-467v332zM150 1456h663v-280h-663v280z" />
    <glyph glyph-name="uni1E5E" unicode="&#x1e5e;" horiz-adv-x="1423" 
d="M782 1487q543 0 543 -397q0 -67 -17 -128.5t-51 -115.5t-94 -89.5t-139 -43.5l-4 -17q30 -1 57 -8.5t47.5 -17t39 -26.5t32 -31.5t26.5 -39.5t21 -42.5t18 -47.5t15.5 -48t14.5 -51t14 -50l98 -334h-518l-41 180q-43 196 -49 217q-23 77 -63 99q-31 16 -87 16h-57v-512
h-486v1487h680zM639 868q106 0 152.5 31.5t46.5 108.5q0 71 -47 96.5t-156 25.5h-47v-262h51zM342 -111h721v-280h-721v280z" />
    <glyph glyph-name="uni1E5F" unicode="&#x1e5f;" horiz-adv-x="921" 
d="M502 1057v-160q75 176 301 176q59 0 100 -8v-381q-68 10 -110 10q-117 0 -176.5 -63t-65.5 -211v-420h-467v1057h418zM-10 -111h655v-280h-655v280z" />
    <glyph glyph-name="uni1E60" unicode="&#x1e60;" horiz-adv-x="1384" 
d="M690 -35q-300 0 -472.5 145.5t-172.5 393.5h512q5 -97 34.5 -139.5t102.5 -42.5q65 0 99 26t34 64q0 48 -28 70.5t-113 49.5l-252 78q-368 111 -368 447q0 212 167 338.5t455 126.5q128 0 235.5 -30t193.5 -90.5t136 -163t52 -237.5h-492q0 86 -25 125t-98 39
q-60 0 -91.5 -24t-31.5 -66q0 -41 28 -64.5t101 -43.5l199 -58q90 -26 154 -52.5t121 -65t91.5 -86t54 -113.5t19.5 -150q0 -226 -162.5 -351.5t-482.5 -125.5zM438 1890h488v-319h-488v319z" />
    <glyph glyph-name="uni1E61" unicode="&#x1e61;" horiz-adv-x="1196" 
d="M588 -33q-102 0 -183 11t-151 37t-116.5 68t-72.5 105.5t-26 147.5h455q1 -60 30 -87.5t84 -27.5q107 0 107 74q0 30 -17.5 49.5t-72.5 30.5l-250 51q-54 11 -95 24.5t-84.5 39t-72 59.5t-46.5 86.5t-18 118.5q0 163 144 249.5t397 86.5q525 0 533 -361h-426
q0 107 -103 107q-44 0 -72 -17t-28 -51q0 -35 30.5 -52t110.5 -36l238 -51q270 -58 270 -324q0 -111 -76 -188.5t-201 -113.5t-288 -36zM360 1487h463v-338h-463v338z" />
    <glyph glyph-name="uni1E62" unicode="&#x1e62;" horiz-adv-x="1384" 
d="M690 -35q-300 0 -472.5 145.5t-172.5 393.5h512q5 -97 34.5 -139.5t102.5 -42.5q65 0 99 26t34 64q0 48 -28 70.5t-113 49.5l-252 78q-368 111 -368 447q0 212 167 338.5t455 126.5q128 0 235.5 -30t193.5 -90.5t136 -163t52 -237.5h-492q0 86 -25 125t-98 39
q-60 0 -91.5 -24t-31.5 -66q0 -41 28 -64.5t101 -43.5l199 -58q90 -26 154 -52.5t121 -65t91.5 -86t54 -113.5t19.5 -150q0 -226 -162.5 -351.5t-482.5 -125.5zM463 -82h483v-332h-483v332z" />
    <glyph glyph-name="uni1E63" unicode="&#x1e63;" horiz-adv-x="1196" 
d="M588 -33q-102 0 -183 11t-151 37t-116.5 68t-72.5 105.5t-26 147.5h455q1 -60 30 -87.5t84 -27.5q107 0 107 74q0 30 -17.5 49.5t-72.5 30.5l-250 51q-54 11 -95 24.5t-84.5 39t-72 59.5t-46.5 86.5t-18 118.5q0 163 144 249.5t397 86.5q525 0 533 -361h-426
q0 107 -103 107q-44 0 -72 -17t-28 -51q0 -35 30.5 -52t110.5 -36l238 -51q270 -58 270 -324q0 -111 -76 -188.5t-201 -113.5t-288 -36zM358 -82h467v-332h-467v332z" />
    <glyph glyph-name="uni1E6A" unicode="&#x1e6a;" horiz-adv-x="1316" 
d="M18 1094v393h1280v-393h-393v-1094h-495v1094h-392zM414 1890h487v-319h-487v319z" />
    <glyph glyph-name="uni1E6B" unicode="&#x1e6b;" horiz-adv-x="854" 
d="M582 -16q-79 0 -139 11t-114 39t-88.5 74t-54.5 120t-20 173v344h-152v312h152v286h467v-286h184v-312h-184v-315q0 -62 22 -88.5t80 -26.5q47 0 82 9v-324q-141 -16 -235 -16zM166 1772h467v-342h-467v342z" />
    <glyph glyph-name="uni1E6C" unicode="&#x1e6c;" horiz-adv-x="1316" 
d="M18 1094v393h1280v-393h-393v-1094h-495v1094h-392zM416 -82h483v-332h-483v332z" />
    <glyph glyph-name="uni1E6D" unicode="&#x1e6d;" horiz-adv-x="854" 
d="M582 -16q-79 0 -139 11t-114 39t-88.5 74t-54.5 120t-20 173v344h-152v312h152v286h467v-286h184v-312h-184v-315q0 -62 22 -88.5t80 -26.5q47 0 82 9v-324q-141 -16 -235 -16zM272 -82h467v-332h-467v332z" />
    <glyph glyph-name="uni1E6E" unicode="&#x1e6e;" horiz-adv-x="1316" 
d="M18 1094v393h1280v-393h-393v-1094h-495v1094h-392zM297 -111h721v-280h-721v280z" />
    <glyph glyph-name="uni1E6F" unicode="&#x1e6f;" horiz-adv-x="854" 
d="M582 -16q-79 0 -139 11t-114 39t-88.5 74t-54.5 120t-20 173v344h-152v312h152v286h467v-286h184v-312h-184v-315q0 -62 22 -88.5t80 -26.5q47 0 82 9v-324q-141 -16 -235 -16zM178 -111h656v-280h-656v280z" />
    <glyph glyph-name="uni1E7C" unicode="&#x1e7c;" horiz-adv-x="1433" 
d="M520 1487l117 -586q12 -60 39.5 -204.5t44.5 -225.5h20l84 430l119 586h490l-385 -1487h-664l-385 1487h520zM315 1579q2 148 63 229.5t171 81.5q56 0 159.5 -36.5t155.5 -36.5q25 0 50.5 18t25.5 55h215q-2 -148 -62.5 -229.5t-170.5 -81.5q-56 0 -160.5 37t-155.5 37
q-25 0 -50.5 -18.5t-25.5 -55.5h-215z" />
    <glyph glyph-name="uni1E7D" unicode="&#x1e7d;" horiz-adv-x="1269" 
d="M537 1057l57 -385l43 -275h20l43 275l58 385h508l-308 -1057h-647l-307 1057h533zM231 1176q22 311 234 311q56 0 159.5 -37t155.5 -37q22 0 44 18.5t22 55.5h225q-22 -311 -233 -311q-56 0 -160.5 36.5t-155.5 36.5q-22 0 -43.5 -18t-21.5 -55h-226z" />
    <glyph glyph-name="Wgrave" unicode="&#x1e80;" horiz-adv-x="2127" 
d="M483 1487l90 -637q23 -163 35 -334h21q37 234 49 334l88 637h659l91 -637q20 -143 30 -334h21q10 143 37 334l94 637h418l-279 -1487h-606l-94 657q-22 157 -37 318h-21q-20 -154 -43 -318l-98 -657h-651l-269 1487h465zM618 1890h457l219 -291h-360z" />
    <glyph glyph-name="wgrave" unicode="&#x1e81;" horiz-adv-x="1890" 
d="M465 1057q11 -103 38.5 -314t39.5 -331h20q43 308 109 645h590q63 -320 108 -645h21q12 120 39 331t38 314h406l-213 -1057h-612l-9 51q-6 40 -29 172.5t-35 219t-20 180.5h-20q-8 -79 -21.5 -168.5t-22.5 -140t-30.5 -165t-27.5 -149.5h-605l-213 1057h449zM508 1487
h442l213 -303h-350z" />
    <glyph glyph-name="Wacute" unicode="&#x1e82;" horiz-adv-x="2127" 
d="M483 1487l90 -637q23 -163 35 -334h21q37 234 49 334l88 637h659l91 -637q20 -143 30 -334h21q10 143 37 334l94 637h418l-279 -1487h-606l-94 657q-22 157 -37 318h-21q-20 -154 -43 -318l-98 -657h-651l-269 1487h465zM1092 1890h452l-315 -291h-357z" />
    <glyph glyph-name="wacute" unicode="&#x1e83;" horiz-adv-x="1890" 
d="M465 1057q11 -103 38.5 -314t39.5 -331h20q43 308 109 645h590q63 -320 108 -645h21q12 120 39 331t38 314h406l-213 -1057h-612l-9 51q-6 40 -29 172.5t-35 219t-20 180.5h-20q-8 -79 -21.5 -168.5t-22.5 -140t-30.5 -165t-27.5 -149.5h-605l-213 1057h449zM971 1487
h438l-305 -303h-346z" />
    <glyph glyph-name="Wdieresis" unicode="&#x1e84;" horiz-adv-x="2127" 
d="M483 1487l90 -637q23 -163 35 -334h21q37 234 49 334l88 637h659l91 -637q20 -143 30 -334h21q10 143 37 334l94 637h418l-279 -1487h-606l-94 657q-22 157 -37 318h-21q-20 -154 -43 -318l-98 -657h-651l-269 1487h465zM1163 1890h400v-319h-400v319zM596 1890h399v-319
h-399v319z" />
    <glyph glyph-name="wdieresis" unicode="&#x1e85;" horiz-adv-x="1890" 
d="M465 1057q11 -103 38.5 -314t39.5 -331h20q43 308 109 645h590q63 -320 108 -645h21q12 120 39 331t38 314h406l-213 -1057h-612l-9 51q-6 40 -29 172.5t-35 219t-20 180.5h-20q-8 -79 -21.5 -168.5t-22.5 -140t-30.5 -165t-27.5 -149.5h-605l-213 1057h449zM1034 1487
h385v-336h-385v336zM473 1487h385v-336h-385v336z" />
    <glyph glyph-name="uni1E8A" unicode="&#x1e8a;" horiz-adv-x="1431" 
d="M16 1487h562l145 -389h18l144 389h530l-395 -699l438 -788h-563l-180 434h-17l-182 -434h-541l433 772zM481 1890h488v-319h-488v319z" />
    <glyph glyph-name="uni1E8B" unicode="&#x1e8b;" horiz-adv-x="1232" 
d="M31 1057h493l97 -318h16l90 318h477l-256 -525l295 -532h-508l-125 299h-16l-113 -299h-491l295 532zM395 1487h463v-338h-463v338z" />
    <glyph glyph-name="uni1E92" unicode="&#x1e92;" horiz-adv-x="1284" 
d="M653 1094h-567v393h1114v-402l-588 -692h623v-393h-1180v403zM418 -82h483v-332h-483v332z" />
    <glyph glyph-name="uni1E93" unicode="&#x1e93;" horiz-adv-x="1136" 
d="M502 750h-432v307h993v-299l-461 -451h500v-307h-1057v305zM340 -82h467v-332h-467v332z" />
    <glyph glyph-name="uni1E97" unicode="&#x1e97;" horiz-adv-x="854" 
d="M582 -16q-79 0 -139 11t-114 39t-88.5 74t-54.5 120t-20 173v344h-152v312h152v286h467v-286h184v-312h-184v-315q0 -62 22 -88.5t80 -26.5q47 0 82 9v-324q-141 -16 -235 -16zM465 1772h369v-342h-369v342zM14 1772h369v-342h-369v342z" />
    <glyph glyph-name="Germandbls" unicode="&#x1e9e;" horiz-adv-x="1796" 
d="M1194 -25q-508 0 -532 484h430q8 -154 110 -154q92 0 92 78q0 11 -3 21.5t-11 20t-15 17t-21.5 16t-24 14t-30 14.5t-31.5 13.5t-35.5 14t-35.5 14.5l-51 21t-50 22.5t-51.5 26t-46 28.5t-43 34t-35 39t-29 46t-16.5 53t-7 62q0 76 43.5 135t113.5 90v17h-317v-1102h-496
v1487h1442v-371q-118 -11 -169.5 -39t-51.5 -84q0 -24 10 -43.5t35.5 -39.5t44 -31.5t60.5 -34.5q147 -78 225 -176.5t78 -239.5q0 -214 -146.5 -333.5t-435.5 -119.5z" />
    <glyph glyph-name="uni1EA0" unicode="&#x1ea0;" horiz-adv-x="1554" 
d="M1100 1487l461 -1487h-531l-57 231h-410l-57 -231h-512l461 1487h645zM784 1102h-20l-113 -486h244zM537 -82h483v-332h-483v332z" />
    <glyph glyph-name="uni1EA1" unicode="&#x1ea1;" horiz-adv-x="1241" 
d="M412 -25q-76 0 -141 19t-116 57.5t-80.5 103t-29.5 148.5q0 95 43.5 164t128 110.5t194 63t257.5 27.5l43 2v51q0 115 -101 115q-104 0 -104 -123h-430q0 377 573 377q149 0 249.5 -29t160.5 -92.5t85 -154.5t25 -224v-590h-419v123q-53 -75 -143 -111.5t-195 -36.5z
M606 238q44 0 74.5 28.5t30.5 79.5v123l-39 -2q-172 -12 -172 -137q0 -48 29.5 -70t76.5 -22zM391 -82h467v-332h-467v332z" />
    <glyph glyph-name="uni1EB8" unicode="&#x1eb8;" horiz-adv-x="1249" 
d="M1176 1487v-385h-578v-168h512v-369h-512v-180h578v-385h-1074v1487h1074zM373 -82h483v-332h-483v332z" />
    <glyph glyph-name="uni1EB9" unicode="&#x1eb9;" horiz-adv-x="1267" 
d="M633 -33q-282 0 -436 148.5t-154 408.5t157 413t433 153q290 0 440 -148.5t150 -417.5q0 -46 -9 -96h-692q0 -101 24.5 -145.5t88.5 -44.5q86 0 115 102h464q-38 -123 -104 -202.5t-185 -125t-292 -45.5zM758 672q0 71 -25.5 109t-93.5 38q-53 0 -85 -41.5t-32 -105.5
h236zM399 -82h467v-332h-467v332z" />
    <glyph glyph-name="uni1EBC" unicode="&#x1ebc;" horiz-adv-x="1249" 
d="M1176 1487v-385h-578v-168h512v-369h-512v-180h578v-385h-1074v1487h1074zM231 1579q2 148 63 229.5t171 81.5q56 0 159.5 -36.5t155.5 -36.5q25 0 50.5 18t25.5 55h215q-2 -148 -62.5 -229.5t-170.5 -81.5q-56 0 -160.5 37t-155.5 37q-25 0 -50.5 -18.5t-25.5 -55.5
h-215z" />
    <glyph glyph-name="uni1EBD" unicode="&#x1ebd;" horiz-adv-x="1267" 
d="M633 -33q-282 0 -436 148.5t-154 408.5t157 413t433 153q290 0 440 -148.5t150 -417.5q0 -46 -9 -96h-692q0 -101 24.5 -145.5t88.5 -44.5q86 0 115 102h464q-38 -123 -104 -202.5t-185 -125t-292 -45.5zM758 672q0 71 -25.5 109t-93.5 38q-53 0 -85 -41.5t-32 -105.5
h236zM221 1176q22 311 234 311q56 0 159.5 -37t155.5 -37q22 0 44 18.5t22 55.5h225q-22 -311 -234 -311q-56 0 -160 36.5t-155 36.5q-23 0 -44.5 -18t-21.5 -55h-225z" />
    <glyph glyph-name="uni1ECA" unicode="&#x1eca;" horiz-adv-x="704" 
d="M102 1487h500v-1487h-500v1487zM111 -82h483v-332h-483v332z" />
    <glyph glyph-name="uni1ECB" unicode="&#x1ecb;" horiz-adv-x="634" 
d="M84 1057h467v-1057h-467v1057zM84 1487h467v-344h-467v344zM84 -82h467v-332h-467v332z" />
    <glyph glyph-name="uni1ECC" unicode="&#x1ecc;" horiz-adv-x="1566" 
d="M788 -35q-356 0 -546.5 205t-190.5 571q0 367 191 574t546 207q352 0 540 -205t188 -572t-188 -573.5t-540 -206.5zM788 354q106 0 153.5 97.5t47.5 293.5t-47.5 292t-153.5 96q-210 0 -210 -392q0 -387 210 -387zM543 -82h483v-332h-483v332z" />
    <glyph glyph-name="uni1ECD" unicode="&#x1ecd;" horiz-adv-x="1294" 
d="M647 268q62 0 88.5 64t26.5 200t-26.5 198.5t-88.5 62.5t-88.5 -62.5t-26.5 -198.5t26.5 -200t88.5 -64zM649 1090q284 0 443 -149.5t159 -408.5q0 -260 -161.5 -412.5t-442.5 -152.5t-442.5 152.5t-161.5 412.5q0 258 160.5 408t445.5 150zM414 -82h467v-332h-467v332z
" />
    <glyph glyph-name="uni1EE4" unicode="&#x1ee4;" horiz-adv-x="1486" 
d="M748 -35q-322 0 -490 154t-168 465v903h496v-879q0 -144 37.5 -199t119.5 -55q81 0 119.5 55.5t38.5 198.5v879h496v-903q0 -311 -165.5 -465t-483.5 -154zM502 -82h483v-332h-483v332z" />
    <glyph glyph-name="uni1EE5" unicode="&#x1ee5;" horiz-adv-x="1288" 
d="M442 -23q-68 0 -121 11.5t-91 31.5t-65.5 53t-44.5 71t-27 91.5t-13.5 107t-3.5 124.5v590h467v-580q0 -100 18 -141t76 -41q59 0 79.5 42t20.5 140v580h467v-1057h-440v119q-57 -65 -141.5 -103.5t-180.5 -38.5zM412 -82h467v-332h-467v332z" />
    <glyph glyph-name="Ygrave" unicode="&#x1ef2;" horiz-adv-x="1357" 
d="M-16 1487h520l182 -516h14l164 516h512l-438 -973v-514h-518v510zM223 1890h457l219 -291h-360z" />
    <glyph glyph-name="ygrave" unicode="&#x1ef3;" horiz-adv-x="1251" 
d="M369 -414q-94 0 -226 21v305q39 -6 74 -6q57 0 88 18t31 74q0 26 -15 81.5t-92.5 289t-234.5 688.5h532l58 -385q7 -38 21 -133t22 -142h20q8 47 22 142t21 133l58 385h503l-307 -1000q-53 -173 -121.5 -273t-177.5 -149t-276 -49zM186 1487h443l213 -303h-350z" />
    <glyph glyph-name="uni1EF8" unicode="&#x1ef8;" horiz-adv-x="1357" 
d="M-16 1487h520l182 -516h14l164 516h512l-438 -973v-514h-518v510zM266 1579q2 148 63 229.5t171 81.5q56 0 159.5 -36.5t155.5 -36.5q25 0 50.5 18t25.5 55h215q-2 -148 -63 -229.5t-171 -81.5q-56 0 -160 37t-155 37q-25 0 -50.5 -18.5t-25.5 -55.5h-215z" />
    <glyph glyph-name="uni1EF9" unicode="&#x1ef9;" horiz-adv-x="1251" 
d="M369 -414q-94 0 -226 21v305q39 -6 74 -6q57 0 88 18t31 74q0 26 -15 81.5t-92.5 289t-234.5 688.5h532l58 -385q7 -38 21 -133t22 -142h20q8 47 22 142t21 133l58 385h503l-307 -1000q-53 -173 -121.5 -273t-177.5 -149t-276 -49zM213 1176q22 311 233 311q56 0 160 -37
t156 -37q22 0 43.5 18.5t21.5 55.5h226q-22 -311 -234 -311q-56 0 -160 36.5t-155 36.5q-23 0 -44.5 -18t-21.5 -55h-225z" />
    <glyph glyph-name="uni2000" unicode="&#x2000;" horiz-adv-x="1024" 
 />
    <glyph glyph-name="uni2001" unicode="&#x2001;" horiz-adv-x="2048" 
 />
    <glyph glyph-name="uni2002" unicode="&#x2002;" horiz-adv-x="1024" 
 />
    <glyph glyph-name="uni2003" unicode="&#x2003;" horiz-adv-x="2048" 
 />
    <glyph glyph-name="uni2004" unicode="&#x2004;" horiz-adv-x="681" 
 />
    <glyph glyph-name="uni2005" unicode="&#x2005;" horiz-adv-x="512" 
 />
    <glyph glyph-name="uni2006" unicode="&#x2006;" horiz-adv-x="342" 
 />
    <glyph glyph-name="uni2007" unicode="&#x2007;" 
 />
    <glyph glyph-name="uni2008" unicode="&#x2008;" horiz-adv-x="614" 
 />
    <glyph glyph-name="uni2009" unicode="&#x2009;" horiz-adv-x="256" 
 />
    <glyph glyph-name="uni200A" unicode="&#x200a;" horiz-adv-x="86" 
 />
    <glyph glyph-name="uni200B" unicode="&#x200b;" horiz-adv-x="0" 
 />
    <glyph glyph-name="figuredash" unicode="&#x2012;" 
d="M1096 760v-363h-901v363h901z" />
    <glyph glyph-name="endash" unicode="&#x2013;" horiz-adv-x="1064" 
d="M983 760v-363h-901v363h901z" />
    <glyph glyph-name="emdash" unicode="&#x2014;" horiz-adv-x="1638" 
d="M1556 760v-363h-1474v363h1474z" />
    <glyph glyph-name="uni2015" unicode="&#x2015;" horiz-adv-x="1638" 
d="M1556 760v-363h-1474v363h1474z" />
    <glyph glyph-name="quoteleft" unicode="&#x2018;" horiz-adv-x="569" 
d="M502 1118v-389h-443v397l179 361h258l-144 -369h150z" />
    <glyph glyph-name="quoteright" unicode="&#x2019;" horiz-adv-x="559" 
d="M70 1098v389h442v-397l-178 -361h-258l143 369h-149z" />
    <glyph glyph-name="quotesinglbase" unicode="&#x201a;" horiz-adv-x="589" 
d="M74 0v389h442v-397l-178 -361h-258l143 369h-149z" />
    <glyph glyph-name="quotereversed" unicode="&#x201b;" horiz-adv-x="559" 
d="M483 729h-258l-178 361v397h442v-389h-149z" />
    <glyph glyph-name="quotedblleft" unicode="&#x201c;" horiz-adv-x="1081" 
d="M1014 1118v-389h-443v397l179 361h254l-144 -369h154zM502 1118v-389h-443v397l179 361h254l-144 -369h154z" />
    <glyph glyph-name="quotedblright" unicode="&#x201d;" horiz-adv-x="1071" 
d="M70 1098v389h442v-397l-178 -361h-254l143 369h-153zM582 1098v389h442v-397l-178 -361h-254l143 369h-153z" />
    <glyph glyph-name="quotedblbase" unicode="&#x201e;" horiz-adv-x="1101" 
d="M74 0v389h442v-397l-178 -361h-254l143 369h-153zM586 0v389h442v-397l-178 -361h-254l143 369h-153z" />
    <glyph glyph-name="uni201F" unicode="&#x201f;" horiz-adv-x="1071" 
d="M991 729h-254l-178 361v397h442v-389h-153zM479 729h-254l-178 361v397h442v-389h-153z" />
    <glyph glyph-name="dagger" unicode="&#x2020;" horiz-adv-x="1226" 
d="M41 729v391h336v367h459v-367h350v-391h-350v-729h-459v729h-336z" />
    <glyph glyph-name="daggerdbl" unicode="&#x2021;" horiz-adv-x="1292" 
d="M410 729h-336v391h336v367h458v-367h351v-391h-351v-223h351v-391h-351v-353h-458v353h-336v391h336v223z" />
    <glyph glyph-name="bullet" unicode="&#x2022;" horiz-adv-x="768" 
d="M684 725q0 -131 -85 -217t-214 -86q-130 0 -215.5 86t-85.5 217q0 129 85.5 214t215.5 85q129 0 214 -85t85 -214z" />
    <glyph glyph-name="ellipsis" unicode="&#x2026;" horiz-adv-x="1777" 
d="M541 442v-442h-467v442h467zM1122 442v-442h-467v442h467zM1704 442v-442h-467v442h467z" />
    <glyph glyph-name="perthousand" unicode="&#x2030;" horiz-adv-x="2813" 
d="M313 997q0 -237 107 -237q104 0 104 237q0 236 -104 236q-107 0 -107 -236zM786 997q0 -213 -93.5 -321.5t-272.5 -108.5q-180 0 -274.5 108.5t-94.5 321.5q0 212 94.5 321t274.5 109q178 0 272 -109t94 -321zM1481 1427l-756 -1456h-229l753 1456h232zM1452 401
q0 -237 107 -237q104 0 104 237q0 236 -104 236q-107 0 -107 -236zM1925 401q0 -213 -93.5 -321.5t-272.5 -108.5q-180 0 -274.5 108.5t-94.5 321.5q0 212 94.5 321t274.5 109q178 0 272 -109t94 -321zM2290 401q0 -237 106 -237q105 0 105 237q0 236 -105 236
q-106 0 -106 -236zM2763 401q0 -213 -94 -321.5t-273 -108.5q-180 0 -274 108t-94 322q0 212 94 321t274 109q178 0 272.5 -109t94.5 -321z" />
    <glyph glyph-name="minute" unicode="&#x2032;" horiz-adv-x="512" 
d="M465 1399l-78 -721h-260l-80 721h418z" />
    <glyph glyph-name="second" unicode="&#x2033;" horiz-adv-x="1019" 
d="M463 1399l-78 -721h-258l-80 721h416zM969 1399l-70 -721h-260l-78 721h408z" />
    <glyph glyph-name="guilsinglleft" unicode="&#x2039;" horiz-adv-x="669" 
d="M623 963l-197 -416l197 -414h-363l-225 414l225 416h363z" />
    <glyph glyph-name="guilsinglright" unicode="&#x203a;" horiz-adv-x="669" 
d="M410 133h-363l197 414l-197 416h363l225 -416z" />
    <glyph glyph-name="fraction" unicode="&#x2044;" horiz-adv-x="368" 
d="M672 1427l-756 -1456h-229l753 1456h232z" />
    <glyph glyph-name="uni2070" unicode="&#x2070;" horiz-adv-x="837" 
d="M313 1380q0 -237 107 -237q104 0 104 237q0 236 -104 236q-107 0 -107 -236zM786 1380q0 -213 -93.5 -321.5t-272.5 -108.5q-180 0 -274.5 108.5t-94.5 321.5q0 212 94.5 321t274.5 109q178 0 272 -109t94 -321z" />
    <glyph glyph-name="uni2074" unicode="&#x2074;" horiz-adv-x="829" 
d="M35 1145v190l307 447h315v-447h136v-190h-136v-166h-258v166h-364zM408 1559q-16 -31 -39 -67t-36 -55t-41.5 -58.5t-31.5 -43.5h158v224h-10z" />
    <glyph glyph-name="uni2075" unicode="&#x2075;" horiz-adv-x="798" 
d="M313 1591l-10 -108q64 45 160 45q114 0 202.5 -74t88.5 -199q0 -143 -96.5 -224t-266.5 -81q-152 0 -245 71t-93 198h254q9 -84 90 -84q42 0 68.5 31.5t26.5 84.5q0 49 -27 76t-70 27q-66 0 -88 -70l-254 14l43 484h619v-191h-402z" />
    <glyph glyph-name="uni2076" unicode="&#x2076;" horiz-adv-x="796" 
d="M473 1550q-11 70 -76 70q-43 0 -68.5 -40t-25.5 -116q67 56 160 56q123 0 204 -71.5t81 -186.5q0 -140 -96 -226t-251 -86q-184 0 -266 102.5t-82 319.5q0 216 93 327t272 111q298 0 311 -260h-256zM401 1350q-38 0 -62 -27.5t-24 -75.5q0 -54 22.5 -83t63.5 -29
q84 0 84 112q0 47 -23 75t-61 28z" />
    <glyph glyph-name="uni2077" unicode="&#x2077;" horiz-adv-x="712" 
d="M150 979q73 344 253 612h-374v191h651v-172q-113 -164 -167 -290.5t-97 -340.5h-266z" />
    <glyph glyph-name="uni2078" unicode="&#x2078;" horiz-adv-x="794" 
d="M397 1303q-40 0 -65 -24t-25 -60t24 -59t66 -23t66 22.5t24 59.5q0 36 -25 60t-65 24zM397 950q-164 0 -255 60t-91 180q0 71 41 124t115 79v8q-77 29 -109 69t-32 107q0 109 88.5 171t242.5 62t243 -62t89 -171q0 -63 -33 -106t-106 -72v-6q70 -31 111.5 -82.5
t41.5 -120.5q0 -120 -91 -180t-255 -60zM397 1632q-40 0 -63 -22t-23 -56q0 -36 22 -56.5t64 -20.5t64 20.5t22 56.5q0 34 -23 56t-63 22z" />
    <glyph glyph-name="uni2079" unicode="&#x2079;" horiz-adv-x="788" 
d="M303 1214q5 -35 26.5 -56t53.5 -21q50 0 76 40t26 134q-75 -60 -151 -60q-134 0 -206.5 75.5t-72.5 182.5q0 119 88 210t242 91q184 0 267 -104t83 -322q0 -226 -81 -330t-269 -104q-150 0 -237 66t-99 198h254zM389 1624q-39 0 -62.5 -27.5t-23.5 -74.5t25.5 -73
t60.5 -26q37 0 62.5 26t25.5 73q0 46 -25 74t-63 28z" />
    <glyph glyph-name="uni2080" unicode="&#x2080;" horiz-adv-x="837" 
d="M313 100q0 -237 107 -237q104 0 104 237q0 236 -104 236q-107 0 -107 -236zM786 100q0 -213 -93.5 -321.5t-272.5 -108.5q-180 0 -274.5 108.5t-94.5 321.5q0 212 94.5 321t274.5 109q178 0 272 -109t94 -321z" />
    <glyph glyph-name="uni2081" unicode="&#x2081;" horiz-adv-x="577" 
d="M33 195v161q46 0 76.5 2.5t60 11t46.5 24.5t27.5 42.5t10.5 65.5h244v-803h-254v496h-211z" />
    <glyph glyph-name="uni2082" unicode="&#x2082;" horiz-adv-x="796" 
d="M51 -301v61q0 66 23.5 119.5t61 89t83 64.5t91 53.5t83 49.5t61 58.5t23.5 73.5q0 35 -21.5 56.5t-56.5 21.5q-43 0 -66.5 -31t-27.5 -102h-254q2 154 90.5 235.5t264.5 81.5q165 0 249 -66.5t84 -180.5q0 -58 -22 -106t-64 -86t-83 -66t-101 -65t-96 -64v-7h366v-190
h-688z" />
    <glyph glyph-name="uni2083" unicode="&#x2083;" horiz-adv-x="811" 
d="M303 -27q0 -58 26 -88t72 -30q43 0 70 23.5t27 58.5q0 37 -28 54t-89 17h-43v187h47q59 0 81.5 15.5t22.5 53.5q0 74 -88 74q-96 0 -96 -115h-254q0 153 91.5 230t258.5 77q347 0 347 -235q0 -54 -39.5 -110t-96.5 -70v-6q58 -8 102 -60.5t44 -118.5q0 -127 -91 -193.5
t-257 -66.5q-184 0 -273.5 71t-89.5 232h256z" />
    <glyph glyph-name="uni2084" unicode="&#x2084;" horiz-adv-x="829" 
d="M35 -135v190l307 447h315v-447h136v-190h-136v-166h-258v166h-364zM408 279q-16 -31 -39 -67t-36 -55t-41.5 -58.5t-31.5 -43.5h158v224h-10z" />
    <glyph glyph-name="uni2085" unicode="&#x2085;" horiz-adv-x="798" 
d="M313 311l-10 -108q64 45 160 45q114 0 202.5 -74t88.5 -199q0 -143 -96.5 -224t-266.5 -81q-152 0 -245 71t-93 198h254q9 -84 90 -84q42 0 68.5 31.5t26.5 84.5q0 49 -27 76t-70 27q-66 0 -88 -70l-254 14l43 484h619v-191h-402z" />
    <glyph glyph-name="uni2086" unicode="&#x2086;" horiz-adv-x="796" 
d="M473 270q-11 70 -76 70q-43 0 -68.5 -40t-25.5 -116q67 56 160 56q123 0 204 -71.5t81 -186.5q0 -140 -96 -226t-251 -86q-184 0 -266 102.5t-82 319.5q0 216 93 327t272 111q298 0 311 -260h-256zM401 70q-38 0 -62 -27.5t-24 -75.5q0 -54 22.5 -83t63.5 -29
q84 0 84 112q0 47 -23 75t-61 28z" />
    <glyph glyph-name="uni2087" unicode="&#x2087;" horiz-adv-x="712" 
d="M150 -301q73 344 253 612h-374v191h651v-172q-113 -164 -167 -290.5t-97 -340.5h-266z" />
    <glyph glyph-name="uni2088" unicode="&#x2088;" horiz-adv-x="794" 
d="M397 23q-40 0 -65 -24t-25 -60t24 -59t66 -23t66 22.5t24 59.5q0 36 -25 60t-65 24zM397 -330q-164 0 -255 60t-91 180q0 71 41 124t115 79v8q-77 29 -109 69t-32 107q0 109 88.5 171t242.5 62t243 -62t89 -171q0 -63 -33 -106t-106 -72v-6q70 -31 111.5 -82.5
t41.5 -120.5q0 -120 -91 -180t-255 -60zM397 352q-40 0 -63 -22t-23 -56q0 -36 22 -56.5t64 -20.5t64 20.5t22 56.5q0 34 -23 56t-63 22z" />
    <glyph glyph-name="uni2089" unicode="&#x2089;" horiz-adv-x="788" 
d="M303 -66q5 -35 26.5 -56t53.5 -21q50 0 76 40t26 134q-75 -60 -151 -60q-134 0 -206.5 75.5t-72.5 182.5q0 119 88 210t242 91q184 0 267 -104t83 -322q0 -226 -81 -330t-269 -104q-150 0 -237 66t-99 198h254zM389 344q-39 0 -62.5 -27.5t-23.5 -74.5t25.5 -73t60.5 -26
q37 0 62.5 26t25.5 73q0 46 -25 74t-63 28z" />
    <glyph glyph-name="colonmonetary" unicode="&#x20a1;" horiz-adv-x="1296" 
d="M1255 565q-37 -432 -327 -555l-19 -217h-254l15 172q-54 0 -95 8l-14 -180h-254l23 268q-133 88 -204 248.5t-71 384.5q0 257 92.5 430.5t264.5 247.5l18 209h254l-14 -156h8q32 0 86 -4l14 160h254l-20 -248q203 -136 241 -502h-391q-4 114 -51 171t-129 57
q-104 0 -153.5 -87.5t-49.5 -277.5q0 -185 50 -273.5t153 -88.5q81 0 130.5 65t49.5 168h393z" />
    <glyph glyph-name="uni20A6" unicode="&#x20a6;" horiz-adv-x="1406" 
d="M156 633v108h-88v252h88v406h532l193 -930h16q-37 330 -37 559v371h393v-406h86v-252h-86v-108h86v-252h-86v-381h-532l-193 842h-16q37 -330 37 -559v-283h-393v381h-88v252h88z" />
    <glyph glyph-name="Euro" unicode="&#x20ac;" horiz-adv-x="1378" 
d="M1335 496q-36 -264 -183 -397.5t-386 -133.5q-241 0 -397.5 133t-206.5 381h-117l16 172h82v43v33h-98l16 172h99q47 253 204 389.5t402 136.5q487 0 567 -526h-391q-17 82 -61 125t-111 43q-143 0 -188 -168h256l-17 -172h-262v-33v-43h254l-16 -172h-211
q46 -155 184 -155q65 0 110.5 47.5t63.5 124.5h391z" />
    <glyph glyph-name="uni20B2" unicode="&#x20b2;" horiz-adv-x="1327" 
d="M924 127q-27 -62 -82 -96v-238h-353v180q-93 17 -171.5 67.5t-140 135t-96 212.5t-34.5 288q0 295 117.5 486.5t333.5 248.5v174h352v-170q169 -38 271.5 -154.5t138.5 -326.5h-416q-40 143 -162 143q-87 0 -133.5 -100.5t-46.5 -300.5q0 -176 45 -269.5t127 -93.5
q153 0 172 158h-156v330h570v-801h-336v127z" />
    <glyph glyph-name="uni20B4" unicode="&#x20b4;" horiz-adv-x="1429" 
d="M1026 748l-160 -80h518v-193h-753q-35 -47 -35 -96q0 -45 33.5 -69.5t83.5 -24.5q73 0 107 23.5t38 88.5h477q-18 -113 -74 -198t-141 -135t-187.5 -74.5t-223.5 -24.5q-269 0 -430.5 95.5t-161.5 271.5q0 78 45 143h-115v193h354q27 14 76.5 37t63.5 30l24 13h-518v192
h764q16 37 16 68q0 47 -27.5 74.5t-72.5 27.5q-66 0 -98 -24t-43 -78h-459q32 207 187.5 314.5t414.5 107.5q266 0 421 -98t155 -259q0 -74 -41 -133h120v-192h-358z" />
    <glyph glyph-name="uni20B5" unicode="&#x20b5;" horiz-adv-x="1296" 
d="M512 -16q-219 51 -338 233.5t-119 476.5q0 292 119 475.5t338 237.5v176h336v-178q357 -88 405 -574h-391q-4 114 -51 171t-129 57q-104 0 -153.5 -87.5t-49.5 -277.5q0 -185 50 -273.5t153 -88.5q81 0 130.5 65t49.5 168h393q-20 -245 -124 -390.5t-283 -188.5v-193
h-336v191z" />
    <glyph glyph-name="uni20B8" unicode="&#x20b8;" horiz-adv-x="1357" 
d="M1309 1104v-393h-381v-711h-500v711h-379v393h1260zM1309 1399v-213h-1260v213h1260z" />
    <glyph glyph-name="uni20B9" unicode="&#x20b9;" horiz-adv-x="1347" 
d="M631 1038q-62 74 -197 74h-389v287h1255v-256h-221q31 -49 43 -105h170v-256h-211q-82 -171 -256 -190v-17q60 -4 105 -25.5t76 -63.5t49.5 -80.5t40.5 -100.5l112 -305h-532l-66 238q-29 95 -44 120q-39 57 -120 58h-286v286h278q138 0 197 80h-582v256h578z" />
    <glyph glyph-name="uni20BA" unicode="&#x20ba;" horiz-adv-x="1404" 
d="M80 940l125 66v393h493v-133l213 112v-268l-213 -113v-75l213 112v-268l-213 -113v-260h54q106 0 169.5 89t63.5 247h383q0 -356 -154 -542.5t-462 -186.5h-547v395l-125 -65v266l125 66v77l-125 -65v266z" />
    <glyph glyph-name="uni20BD" unicode="&#x20bd;" horiz-adv-x="1505" 
d="M221 754v645h574q205 0 352.5 -47t233 -150t85.5 -256q0 -115 -48 -202.5t-137.5 -142t-211 -82t-274.5 -27.5h-74v-82h395v-256h-395v-154h-500v154h-147v256h147v82h-147v262h147zM721 797h24q51 0 87.5 5.5t69 21t49 46t16.5 76.5q0 44 -16.5 73.5t-49.5 43.5
t-68.5 19t-87.5 5h-24v-290z" />
    <glyph glyph-name="uni20BF" unicode="&#x20bf;" horiz-adv-x="1259" 
d="M270 1399v174h250v-174h111v174h250v-197q151 -36 228 -126.5t77 -221.5q0 -121 -77.5 -201.5t-213.5 -103.5v-8q149 -12 233 -96t84 -224q0 -155 -81 -247.5t-250 -127.5v-227h-250v207h-111v-207h-250v207h-178v1399h178zM616 315q99 0 142 28t43 91q0 127 -180 127
h-123v-246h118zM602 852q97 0 140.5 27.5t43.5 87.5q0 61 -43 88.5t-135 27.5h-110v-231h104z" />
    <glyph glyph-name="uni2113" unicode="&#x2113;" horiz-adv-x="1048" 
d="M1020 152q-69 -69 -191.5 -126t-218.5 -57q-181 0 -279.5 99t-115.5 307l-119 -68l-63 201q98 56 180 108v385q0 203 116.5 316t299.5 113q177 0 269.5 -80.5t92.5 -212.5q0 -65 -12 -121t-38.5 -105t-55.5 -88.5t-77 -84t-88 -77t-103 -81.5q-11 -9 -17 -13l-45 -35
q0 -165 23 -219.5t104 -54.5q120 0 231 121zM553 860q69 57 97 110.5t28 131.5q0 76 -49 76q-41 0 -58.5 -36t-17.5 -112v-170z" />
    <glyph glyph-name="uni2116" unicode="&#x2116;" horiz-adv-x="2492" 
d="M2398 352h-737v213h737v-213zM2030 856q70 0 112.5 60.5t42.5 173.5t-42 170t-113 57t-113.5 -57t-42.5 -170t43 -173.5t113 -60.5zM2030 664q-197 0 -307.5 107.5t-110.5 318.5t107 316t311 105t310.5 -105t106.5 -316t-110 -318.5t-307 -107.5zM819 1487l250 -998h21
q-23 315 -23 568v430h410v-1487h-703l-250 997h-20q14 -334 14 -581v-416h-412v1487h713z" />
    <glyph glyph-name="uni2117" unicode="&#x2117;" horiz-adv-x="1642" 
d="M860 1190q155 0 243.5 -71.5t88.5 -213.5q0 -303 -377 -303h-72v-301h-221v889h338zM815 774q154 0 154 125q0 66 -38 94.5t-114 28.5h-74v-248h72zM246 741q0 -125 47 -236.5t126 -189.5t184 -123t218 -45t218.5 45t184 123t126 189.5t47.5 236.5q0 166 -80.5 303
t-212 212t-283.5 75q-113 0 -218 -44.5t-184 -121.5t-126 -188t-47 -236zM47 741q0 212 101 389t279 280t394 103t394 -103t279 -280t101 -389q0 -213 -101 -391t-279 -281.5t-394 -103.5t-394 103.5t-279 281.5t-101 391z" />
    <glyph glyph-name="trademark" unicode="&#x2122;" horiz-adv-x="1906" 
d="M522 1284v-600h-258v600h-225v203h709v-203h-226zM1319 1016h12l94 471h381v-803h-235l4 477h-19l-106 -477h-254l-129 477h-16l4 -477h-230v803h381z" />
    <glyph glyph-name="estimated" unicode="&#x212e;" horiz-adv-x="1150" 
d="M264 186q141 -153 338 -153q223 0 352 166l50 -45q-73 -96 -171 -137.5t-233 -41.5q-155 0 -280 74t-194 200t-69 277q0 152 69 278.5t194 200.5t280 74q148 0 266 -74.5t183 -204t65 -290.5h-850v-324zM911 870q-126 150 -323 150q-186 0 -324 -150v-301h647v301z" />
    <glyph glyph-name="uni2150" unicode="&#x2150;" horiz-adv-x="1658" 
d="M33 1092v161q46 0 76.5 2.5t60 11t46.5 24.5t27.5 42.5t10.5 65.5h244v-803h-254v496h-211zM1249 1427l-755 -1456h-230l754 1456h231zM1096 0q72 342 254 612h-375v191h651v-172q-113 -164 -167 -290.5t-97 -340.5h-266z" />
    <glyph glyph-name="uni2151" unicode="&#x2151;" horiz-adv-x="1710" 
d="M33 1092v161q46 0 76.5 2.5t60 11t46.5 24.5t27.5 42.5t10.5 65.5h244v-803h-254v496h-211zM1249 1427l-755 -1456h-230l754 1456h231zM1225 236q5 -35 26.5 -56.5t53.5 -21.5q50 0 76 40t26 134q-75 -60 -152 -60q-133 0 -205.5 75t-72.5 183q0 119 88 210t242 91
q184 0 267 -103.5t83 -321.5q0 -226 -81 -330.5t-269 -104.5q-150 0 -237 66.5t-99 198.5h254zM1311 645q-39 0 -62.5 -27.5t-23.5 -74.5t25.5 -73t60.5 -26q37 0 62.5 26t25.5 73q0 46 -25 74t-63 28z" />
    <glyph glyph-name="uni2152" unicode="&#x2152;" horiz-adv-x="2361" 
d="M33 1092v161q46 0 76.5 2.5t60 11t46.5 24.5t27.5 42.5t10.5 65.5h244v-803h-254v496h-211zM1249 1427l-755 -1456h-230l754 1456h231zM979 496v161q46 0 76.5 2.5t60 11t46.5 24.5t27.5 42.5t10.5 65.5h244v-803h-254v496h-211zM1837 401q0 -237 107 -237q104 0 104 237
q0 236 -104 236q-107 0 -107 -236zM2310 401q0 -213 -93.5 -321.5t-272.5 -108.5q-180 0 -274.5 108.5t-94.5 321.5q0 212 94.5 321t274.5 109q178 0 272 -109t94 -321z" />
    <glyph glyph-name="onethird" unicode="&#x2153;" horiz-adv-x="1738" 
d="M33 1092v161q46 0 76.5 2.5t60 11t46.5 24.5t27.5 42.5t10.5 65.5h244v-803h-254v496h-211zM1249 1427l-755 -1456h-230l754 1456h231zM1231 274q0 -58 26 -88t72 -30q42 0 69 23t27 59q0 37 -27.5 54t-88.5 17h-43v187h47q59 0 81.5 15.5t22.5 53.5q0 74 -88 74
q-96 0 -96 -115h-254q0 153 91.5 230t258.5 77q346 0 346 -235q0 -54 -39 -110t-96 -70v-6q58 -8 102 -60.5t44 -118.5q0 -127 -91.5 -193.5t-257.5 -66.5q-184 0 -273 71t-89 232h256z" />
    <glyph glyph-name="twothirds" unicode="&#x2154;" horiz-adv-x="1957" 
d="M51 596v61q0 66 23.5 119.5t61 89t83 64.5t91 53.5t83 49.5t61 58.5t23.5 73.5q0 35 -21.5 56.5t-56.5 21.5q-43 0 -66.5 -31t-27.5 -102h-254q2 154 90.5 235.5t264.5 81.5q165 0 249 -66.5t84 -180.5q0 -58 -22 -106t-64 -86t-83 -66t-101 -65t-96 -64v-7h366v-190
h-688zM1468 1427l-755 -1456h-230l754 1456h231zM1450 274q0 -58 26 -88t72 -30q43 0 70 23.5t27 58.5q0 37 -28 54t-89 17h-43v187h47q59 0 81.5 15.5t22.5 53.5q0 74 -88 74q-96 0 -96 -115h-254q0 153 91.5 230t258.5 77q346 0 346 -235q0 -54 -39 -110t-96 -70v-6
q58 -8 102 -60.5t44 -118.5q0 -127 -91.5 -193.5t-257.5 -66.5q-184 0 -273 71t-89 232h256z" />
    <glyph glyph-name="uni2155" unicode="&#x2155;" horiz-adv-x="1744" 
d="M33 1092v161q46 0 76.5 2.5t60 11t46.5 24.5t27.5 42.5t10.5 65.5h244v-803h-254v496h-211zM1249 1427l-755 -1456h-230l754 1456h231zM1260 612l-11 -108q64 45 160 45q114 0 202.5 -74t88.5 -199q0 -143 -96.5 -224t-266.5 -81q-152 0 -245 71t-93 198h254
q9 -84 90 -84q42 0 68.5 31.5t26.5 84.5q0 49 -27 76t-70 27q-66 0 -88 -70l-254 14l43 484h619v-191h-401z" />
    <glyph glyph-name="uni2156" unicode="&#x2156;" horiz-adv-x="1964" 
d="M51 596v61q0 66 23.5 119.5t61 89t83 64.5t91 53.5t83 49.5t61 58.5t23.5 73.5q0 35 -21.5 56.5t-56.5 21.5q-43 0 -66.5 -31t-27.5 -102h-254q2 154 90.5 235.5t264.5 81.5q165 0 249 -66.5t84 -180.5q0 -58 -22 -106t-64 -86t-83 -66t-101 -65t-96 -64v-7h366v-190
h-688zM1468 1427l-755 -1456h-230l754 1456h231zM1479 612l-11 -108q64 45 160 45q114 0 202.5 -74t88.5 -199q0 -143 -96.5 -224t-266.5 -81q-152 0 -244.5 71t-92.5 198h254q9 -84 90 -84q42 0 68 31.5t26 84.5q0 49 -26.5 76t-69.5 27q-66 0 -88 -70l-254 14l43 484h618
v-191h-401z" />
    <glyph glyph-name="uni2157" unicode="&#x2157;" horiz-adv-x="1978" 
d="M303 870q0 -58 26 -88t72 -30q43 0 70 23.5t27 58.5q0 37 -28 54t-89 17h-43v187h47q59 0 81.5 15.5t22.5 53.5q0 74 -88 74q-96 0 -96 -115h-254q0 153 91.5 230t258.5 77q347 0 347 -235q0 -54 -39.5 -110t-96.5 -70v-6q58 -8 102 -60.5t44 -118.5q0 -127 -91 -193.5
t-257 -66.5q-184 0 -273.5 71t-89.5 232h256zM1483 1427l-756 -1456h-229l753 1456h232zM1493 612l-10 -108q64 45 159 45q114 0 202.5 -74t88.5 -199q0 -143 -96 -224t-266 -81q-152 0 -245 71t-93 198h254q9 -84 90 -84q42 0 68 31.5t26 84.5q0 49 -26.5 76t-69.5 27
q-66 0 -88 -70l-254 14l43 484h618v-191h-401z" />
    <glyph glyph-name="uni2158" unicode="&#x2158;" horiz-adv-x="1996" 
d="M35 762v190l307 447h315v-447h136v-190h-136v-166h-258v166h-364zM408 1176q-16 -31 -39 -67t-36 -55t-41.5 -58.5t-31.5 -43.5h158v224h-10zM1501 1427l-756 -1456h-229l754 1456h231zM1511 612l-10 -108q64 45 160 45q114 0 202.5 -74t88.5 -199q0 -143 -96.5 -224
t-266.5 -81q-152 0 -245 71t-93 198h254q9 -84 90 -84q42 0 68.5 31.5t26.5 84.5q0 49 -27 76t-70 27q-66 0 -88 -70l-254 14l43 484h619v-191h-402z" />
    <glyph glyph-name="uni2159" unicode="&#x2159;" horiz-adv-x="1703" 
d="M33 1092v161q46 0 76.5 2.5t60 11t46.5 24.5t27.5 42.5t10.5 65.5h244v-803h-254v496h-211zM1249 1427l-755 -1456h-230l754 1456h231zM1380 571q-11 70 -75 70q-43 0 -69 -40t-26 -116q67 56 160 56q123 0 204 -71.5t81 -186.5q0 -140 -95.5 -226t-250.5 -86
q-184 0 -266 102.5t-82 319.5q0 216 92.5 327t271.5 111q298 0 311 -260h-256zM1309 371q-38 0 -62 -27.5t-24 -75.5q0 -54 22.5 -83t63.5 -29q84 0 84 112q0 47 -23 75t-61 28z" />
    <glyph glyph-name="uni215A" unicode="&#x215a;" horiz-adv-x="1925" 
d="M313 1208l-10 -108q64 45 160 45q114 0 202.5 -74t88.5 -199q0 -143 -96.5 -224t-266.5 -81q-152 0 -245 71t-93 198h254q9 -84 90 -84q42 0 68.5 31.5t26.5 84.5q0 49 -27 76t-70 27q-66 0 -88 -70l-254 14l43 484h619v-191h-402zM1470 1427l-755 -1456h-230l754 1456
h231zM1602 571q-11 70 -76 70q-43 0 -68.5 -40t-25.5 -116q67 56 159 56q123 0 204 -71.5t81 -186.5q0 -140 -95.5 -226t-250.5 -86q-184 0 -266 102.5t-82 319.5q0 216 92.5 327t271.5 111q299 0 312 -260h-256zM1530 371q-38 0 -62 -27.5t-24 -75.5q0 -54 22.5 -83
t63.5 -29q84 0 84 112q0 47 -23 75t-61 28z" />
    <glyph glyph-name="oneeighth" unicode="&#x215b;" horiz-adv-x="1722" 
d="M33 1092v161q46 0 76.5 2.5t60 11t46.5 24.5t27.5 42.5t10.5 65.5h244v-803h-254v496h-211zM1249 1427l-755 -1456h-230l754 1456h231zM1325 324q-40 0 -65 -24t-25 -60t24 -59t66 -23t66 22.5t24 59.5q0 36 -25 60t-65 24zM1325 -29q-164 0 -255 60t-91 180q0 71 41 124
t115 79v8q-78 29 -110 69.5t-32 106.5q0 109 89 171t243 62t243 -62t89 -171q0 -63 -33 -106t-106 -72v-6q70 -31 111.5 -82.5t41.5 -120.5q0 -120 -91 -180t-255 -60zM1325 653q-40 0 -63 -22t-23 -56q0 -36 22 -56.5t64 -20.5t64 20.5t22 56.5q0 34 -23 56t-63 22z" />
    <glyph glyph-name="threeeighths" unicode="&#x215c;" horiz-adv-x="1955" 
d="M303 870q0 -58 26 -88t72 -30q43 0 70 23.5t27 58.5q0 37 -28 54t-89 17h-43v187h47q59 0 81.5 15.5t22.5 53.5q0 74 -88 74q-96 0 -96 -115h-254q0 153 91.5 230t258.5 77q347 0 347 -235q0 -54 -39.5 -110t-96.5 -70v-6q58 -8 102 -60.5t44 -118.5q0 -127 -91 -193.5
t-257 -66.5q-184 0 -273.5 71t-89.5 232h256zM1483 1427l-756 -1456h-229l753 1456h232zM1559 324q-41 0 -66 -24t-25 -60t24.5 -59t66.5 -23t66 22.5t24 59.5q0 36 -25 60t-65 24zM1559 -29q-164 0 -255.5 60t-91.5 180q0 71 41 124t115 79v8q-77 29 -109 69t-32 107
q0 109 89 171t243 62t242.5 -62t88.5 -171q0 -63 -33 -106t-106 -72v-6q70 -31 112 -82.5t42 -120.5q0 -120 -91 -180t-255 -60zM1559 653q-40 0 -63 -22t-23 -56q0 -36 22 -56.5t64 -20.5t64 20.5t22 56.5q0 34 -23 56t-63 22z" />
    <glyph glyph-name="fiveeighths" unicode="&#x215d;" horiz-adv-x="1943" 
d="M313 1208l-10 -108q64 45 160 45q114 0 202.5 -74t88.5 -199q0 -143 -96.5 -224t-266.5 -81q-152 0 -245 71t-93 198h254q9 -84 90 -84q42 0 68.5 31.5t26.5 84.5q0 49 -27 76t-70 27q-66 0 -88 -70l-254 14l43 484h619v-191h-402zM1470 1427l-755 -1456h-230l754 1456
h231zM1546 324q-40 0 -65 -24t-25 -60t24 -59t66 -23t66 22.5t24 59.5q0 36 -25 60t-65 24zM1546 -29q-164 0 -255 60t-91 180q0 71 41 124t115 79v8q-78 29 -110 69.5t-32 106.5q0 109 89 171t243 62t243 -62t89 -171q0 -63 -33 -106t-106 -72v-6q70 -31 111.5 -82.5
t41.5 -120.5q0 -120 -91 -180t-255 -60zM1546 653q-40 0 -63 -22t-23 -56q0 -36 22 -56.5t64 -20.5t64 20.5t22 56.5q0 34 -23 56t-63 22z" />
    <glyph glyph-name="seveneighths" unicode="&#x215e;" horiz-adv-x="1761" 
d="M152 596q72 342 254 612h-375v191h651v-172q-113 -164 -167 -290.5t-97 -340.5h-266zM1288 1427l-756 -1456h-229l754 1456h231zM1364 324q-40 0 -65 -24t-25 -60t24 -59t66 -23t66 22.5t24 59.5q0 36 -25 60t-65 24zM1364 -29q-164 0 -255 60t-91 180q0 71 41 124
t115 79v8q-78 29 -110 69.5t-32 106.5q0 109 89 171t243 62t243 -62t89 -171q0 -63 -33.5 -106t-106.5 -72v-6q70 -31 112 -82.5t42 -120.5q0 -120 -91 -180t-255 -60zM1364 653q-40 0 -63 -22t-23 -56q0 -36 22 -56.5t64 -20.5t64 20.5t22 56.5q0 34 -23 56t-63 22z" />
    <glyph glyph-name="uni215F" unicode="&#x215f;" horiz-adv-x="946" 
d="M33 1092v161q46 0 76.5 2.5t60 11t46.5 24.5t27.5 42.5t10.5 65.5h244v-803h-254v496h-211zM1249 1427l-755 -1456h-230l754 1456h231z" />
    <glyph glyph-name="uni2160" unicode="&#x2160;" horiz-adv-x="704" 
d="M102 1487h500v-1487h-500v1487z" />
    <glyph glyph-name="uni2161" unicode="&#x2161;" horiz-adv-x="1417" 
d="M102 1487h500v-1487h-500v1487zM815 1487h500v-1487h-500v1487z" />
    <glyph glyph-name="uni2162" unicode="&#x2162;" horiz-adv-x="2129" 
d="M102 1487h500v-1487h-500v1487zM815 1487h500v-1487h-500v1487zM1528 1487h500v-1487h-500v1487z" />
    <glyph glyph-name="uni2163" unicode="&#x2163;" horiz-adv-x="2142" 
d="M102 1487h500v-1487h-500v1487zM1229 1487l117 -586q12 -60 39.5 -204.5t44.5 -225.5h20l84 430l119 586h489l-385 -1487h-663l-385 1487h520z" />
    <glyph glyph-name="uni2164" unicode="&#x2164;" horiz-adv-x="1433" 
d="M520 1487l117 -586q12 -60 39.5 -204.5t44.5 -225.5h20l84 430l119 586h490l-385 -1487h-664l-385 1487h520z" />
    <glyph glyph-name="uni2165" unicode="&#x2165;" horiz-adv-x="2142" 
d="M520 1487l117 -586q12 -60 39.5 -204.5t44.5 -225.5h20l84 430l119 586h490l-385 -1487h-664l-385 1487h520zM1540 1487h500v-1487h-500v1487z" />
    <glyph glyph-name="uni2166" unicode="&#x2166;" horiz-adv-x="2854" 
d="M520 1487l117 -586q12 -60 39.5 -204.5t44.5 -225.5h20l84 430l119 586h490l-385 -1487h-664l-385 1487h520zM1540 1487h500v-1487h-500v1487zM2253 1487h500v-1487h-500v1487z" />
    <glyph glyph-name="uni2167" unicode="&#x2167;" horiz-adv-x="3567" 
d="M520 1487l117 -586q12 -60 39.5 -204.5t44.5 -225.5h20l84 430l119 586h490l-385 -1487h-664l-385 1487h520zM1540 1487h500v-1487h-500v1487zM2253 1487h500v-1487h-500v1487zM2966 1487h499v-1487h-499v1487z" />
    <glyph glyph-name="uni2168" unicode="&#x2168;" horiz-adv-x="2164" 
d="M102 1487h500v-1487h-500v1487zM750 1487h561l145 -389h19l143 389h530l-395 -699l438 -788h-563l-180 434h-16l-183 -434h-540l432 772z" />
    <glyph glyph-name="uni2169" unicode="&#x2169;" horiz-adv-x="1431" 
d="M16 1487h562l145 -389h18l144 389h530l-395 -699l438 -788h-563l-180 434h-17l-182 -434h-541l433 772z" />
    <glyph glyph-name="uni216A" unicode="&#x216a;" horiz-adv-x="2166" 
d="M16 1487h562l145 -389h18l144 389h530l-395 -699l438 -788h-563l-180 434h-17l-182 -434h-541l433 772zM1565 1487h499v-1487h-499v1487z" />
    <glyph glyph-name="uni216B" unicode="&#x216b;" horiz-adv-x="2879" 
d="M16 1487h562l145 -389h18l144 389h530l-395 -699l438 -788h-563l-180 434h-17l-182 -434h-541l433 772zM1565 1487h499v-1487h-499v1487zM2277 1487h500v-1487h-500v1487z" />
    <glyph glyph-name="uni216C" unicode="&#x216c;" horiz-adv-x="1173" 
d="M598 1487v-1094h557v-393h-1053v1487h496z" />
    <glyph glyph-name="uni216D" unicode="&#x216d;" horiz-adv-x="1480" 
d="M778 -35q-342 0 -534.5 204t-192.5 572q0 370 192.5 575.5t534.5 205.5q593 0 664 -633h-486q-3 241 -174 241q-104 0 -152 -97.5t-48 -291.5q0 -385 200 -385q83 0 128.5 68t45.5 180h488q-64 -639 -666 -639z" />
    <glyph glyph-name="uni216E" unicode="&#x216e;" horiz-adv-x="1497" 
d="M668 1487q395 0 585.5 -192t190.5 -550q0 -375 -187.5 -560t-588.5 -185h-566v1487h566zM668 377q148 0 205 88.5t57 279.5q0 185 -59 275t-203 90h-70v-733h70z" />
    <glyph glyph-name="uni216F" unicode="&#x216f;" horiz-adv-x="1986" 
d="M836 1487l67 -432q46 -317 84 -523h21q13 67 42 264t35 259l66 432h733v-1487h-397v410q0 418 6 645h-20l-211 -1055h-545l-215 1055h-21q11 -416 11 -645v-410h-390v1487h734z" />
    <glyph glyph-name="uni2170" unicode="&#x2170;" horiz-adv-x="634" 
d="M84 1057h467v-1057h-467v1057zM84 1487h467v-344h-467v344z" />
    <glyph glyph-name="uni2171" unicode="&#x2171;" horiz-adv-x="1282" 
d="M84 1057h467v-1057h-467v1057zM84 1487h467v-344h-467v344zM731 1057h467v-1057h-467v1057zM731 1487h467v-344h-467v344z" />
    <glyph glyph-name="uni2172" unicode="&#x2172;" horiz-adv-x="1929" 
d="M84 1057h467v-1057h-467v1057zM84 1487h467v-344h-467v344zM731 1057h467v-1057h-467v1057zM731 1487h467v-344h-467v344zM1378 1057h467v-1057h-467v1057zM1378 1487h467v-344h-467v344z" />
    <glyph glyph-name="uni2173" unicode="&#x2173;" horiz-adv-x="1914" 
d="M84 1057h467v-1057h-467v1057zM84 1487h467v-344h-467v344zM1182 1057l57 -385l43 -275h21l43 275l57 385h508l-307 -1057h-648l-307 1057h533z" />
    <glyph glyph-name="uni2174" unicode="&#x2174;" horiz-adv-x="1269" 
d="M537 1057l57 -385l43 -275h20l43 275l58 385h508l-308 -1057h-647l-307 1057h533z" />
    <glyph glyph-name="uni2175" unicode="&#x2175;" horiz-adv-x="1914" 
d="M537 1057l57 -385l43 -275h20l43 275l58 385h508l-308 -1057h-647l-307 1057h533zM1364 1057h467v-1057h-467v1057zM1364 1487h467v-344h-467v344z" />
    <glyph glyph-name="uni2176" unicode="&#x2176;" horiz-adv-x="2562" 
d="M537 1057l57 -385l43 -275h20l43 275l58 385h508l-308 -1057h-647l-307 1057h533zM1364 1057h467v-1057h-467v1057zM1364 1487h467v-344h-467v344zM2011 1057h467v-1057h-467v1057zM2011 1487h467v-344h-467v344z" />
    <glyph glyph-name="uni2177" unicode="&#x2177;" horiz-adv-x="3209" 
d="M537 1057l57 -385l43 -275h20l43 275l58 385h508l-308 -1057h-647l-307 1057h533zM1364 1057h467v-1057h-467v1057zM1364 1487h467v-344h-467v344zM2011 1057h467v-1057h-467v1057zM2011 1487h467v-344h-467v344zM2658 1057h467v-1057h-467v1057zM2658 1487h467v-344
h-467v344z" />
    <glyph glyph-name="uni2178" unicode="&#x2178;" horiz-adv-x="1884" 
d="M84 1057h467v-1057h-467v1057zM84 1487h467v-344h-467v344zM682 1057h494l96 -318h16l90 318h477l-256 -525l295 -532h-508l-124 299h-17l-112 -299h-492l295 532z" />
    <glyph glyph-name="uni2179" unicode="&#x2179;" horiz-adv-x="1232" 
d="M31 1057h493l97 -318h16l90 318h477l-256 -525l295 -532h-508l-125 299h-16l-113 -299h-491l295 532z" />
    <glyph glyph-name="uni217A" unicode="&#x217a;" horiz-adv-x="1884" 
d="M31 1057h493l97 -318h16l90 318h477l-256 -525l295 -532h-508l-125 299h-16l-113 -299h-491l295 532zM1333 1057h467v-1057h-467v1057zM1333 1487h467v-344h-467v344z" />
    <glyph glyph-name="uni217B" unicode="&#x217b;" horiz-adv-x="2531" 
d="M31 1057h493l97 -318h16l90 318h477l-256 -525l295 -532h-508l-125 299h-16l-113 -299h-491l295 532zM1333 1057h467v-1057h-467v1057zM1333 1487h467v-344h-467v344zM1980 1057h467v-1057h-467v1057zM1980 1487h467v-344h-467v344z" />
    <glyph glyph-name="uni217C" unicode="&#x217c;" horiz-adv-x="634" 
d="M84 1487h467v-1487h-467v1487z" />
    <glyph glyph-name="uni217D" unicode="&#x217d;" horiz-adv-x="1234" 
d="M528 528q0 -136 29 -194t86 -58q42 0 62.5 39.5t25.5 122.5h469q-63 -469 -557 -469q-277 0 -438.5 150.5t-161.5 408.5t162 410t438 152q495 0 557 -459h-469q-4 82 -24.5 116.5t-63.5 34.5q-57 0 -86 -59t-29 -195z" />
    <glyph glyph-name="uni217E" unicode="&#x217e;" horiz-adv-x="1302" 
d="M473 -23q-190 0 -308 148t-118 407q0 257 116.5 402t299.5 145q182 0 289 -104v512h467v-1487h-439v106q-53 -73 -129 -101t-178 -28zM653 793q-62 0 -88 -62.5t-26 -198.5q0 -137 26 -201.5t88 -64.5t88.5 64.5t26.5 201.5q0 136 -26.5 198.5t-88.5 62.5z" />
    <glyph glyph-name="uni217F" unicode="&#x217f;" horiz-adv-x="1925" 
d="M1386 573q0 97 -17.5 143t-70.5 46q-62 0 -81 -45t-19 -144v-573h-463v573q0 97 -17.5 143t-70.5 46q-62 0 -81 -45t-19 -144v-573h-463v1057h438v-119q55 64 139 102.5t175 38.5q130 0 198 -37.5t107 -115.5q103 153 350 153q92 0 156.5 -22t104 -60t61 -102.5t29 -134
t7.5 -170.5v-590h-463v573z" />
    <glyph glyph-name="uni2189" unicode="&#x2189;" horiz-adv-x="1970" 
d="M313 997q0 -237 107 -237q104 0 104 237q0 236 -104 236q-107 0 -107 -236zM786 997q0 -213 -93.5 -321.5t-272.5 -108.5q-180 0 -274.5 108.5t-94.5 321.5q0 212 94.5 321t274.5 109q178 0 272 -109t94 -321zM1481 1427l-756 -1456h-229l753 1456h232zM1462 274
q0 -58 26.5 -88t72.5 -30q42 0 69 23t27 59q0 37 -28 54t-89 17h-43v187h47q59 0 82 16t23 53q0 74 -88 74q-97 0 -97 -115h-254q0 152 91.5 229.5t259.5 77.5q346 0 346 -235q0 -54 -39 -110t-96 -70v-6q58 -8 101.5 -60.5t43.5 -118.5q0 -127 -91 -193.5t-257 -66.5
q-184 0 -273.5 71t-89.5 232h256z" />
    <glyph glyph-name="arrowleft" unicode="&#x2190;" horiz-adv-x="1337" 
d="M633 1182l194 -195l-284 -264h747v-291h-747l284 -264l-194 -195l-604 605z" />
    <glyph glyph-name="arrowup" unicode="&#x2191;" horiz-adv-x="1253" 
d="M1231 627l-195 -195l-264 285v-748h-291v748l-264 -285l-194 195l604 604z" />
    <glyph glyph-name="arrowright" unicode="&#x2192;" horiz-adv-x="1337" 
d="M510 168l285 264h-748v291h748l-285 264l195 195l604 -604l-604 -605z" />
    <glyph glyph-name="arrowdown" unicode="&#x2193;" horiz-adv-x="1253" 
d="M23 483l194 195l264 -285v748h291v-748l264 285l195 -195l-604 -604z" />
    <glyph glyph-name="uni2196" unicode="&#x2196;" horiz-adv-x="1122" 
d="M934 1014v-277l-387 17l528 -531l-205 -205l-530 529l16 -387h-276v854h854z" />
    <glyph glyph-name="uni2197" unicode="&#x2197;" horiz-adv-x="1122" 
d="M766 160l16 387l-530 -529l-205 205l528 531l-387 -17v277h854v-854h-276z" />
    <glyph glyph-name="uni2198" unicode="&#x2198;" horiz-adv-x="1118" 
d="M356 879l-16 -387l530 528l205 -205l-528 -530l387 16v-276h-854v854h276z" />
    <glyph glyph-name="uni2199" unicode="&#x2199;" horiz-adv-x="1118" 
d="M184 25v276l387 -16l-528 530l205 205l530 -528l-16 387h276v-854h-854z" />
    <glyph glyph-name="partialdiff" unicode="&#x2202;" horiz-adv-x="1286" 
d="M377 1427q419 0 637.5 -198t218.5 -543q0 -356 -152.5 -536.5t-474.5 -180.5q-269 0 -431.5 131t-162.5 359q0 222 135.5 341.5t368.5 119.5q89 0 156.5 -16.5t124.5 -65.5q-16 72 -46.5 122.5t-87.5 90.5t-150.5 59.5t-225.5 19.5zM614 272q58 0 90.5 47t32.5 121
q0 80 -33 129t-92 49q-58 0 -90.5 -46.5t-32.5 -120.5q0 -80 33 -129.5t92 -49.5z" />
    <glyph glyph-name="increment" unicode="&#x2206;" horiz-adv-x="1527" 
d="M1063 1487l426 -1225v-262h-1450v262l430 1225h594zM874 651q-83 308 -110 471h-21q-49 -236 -112 -471l-80 -286h403z" />
    <glyph glyph-name="product" unicode="&#x220f;" horiz-adv-x="1572" 
d="M1528 1067h-162v-1315h-465v1315h-223v-1315h-467v1315h-166v332h1483v-332z" />
    <glyph glyph-name="summation" unicode="&#x2211;" horiz-adv-x="1245" 
d="M70 1399h1101v-312h-587l442 -491l-467 -537h637v-311h-1151v270l504 576l-479 534v271z" />
    <glyph glyph-name="minus" unicode="&#x2212;" 
d="M119 684h1055v-272h-1055v272z" />
    <glyph glyph-name="uni2215" unicode="&#x2215;" horiz-adv-x="368" 
d="M672 1427l-756 -1456h-229l753 1456h232z" />
    <glyph glyph-name="uni2219" unicode="&#x2219;" 
d="M879 918v-443h-467v443h467z" />
    <glyph glyph-name="radical" unicode="&#x221a;" horiz-adv-x="1312" 
d="M219 702l-168 -79l-92 239l504 187l190 -627l340 1276h361l-539 -1721h-360z" />
    <glyph glyph-name="infinity" unicode="&#x221e;" 
d="M639 342q-28 -39 -46 -60t-47.5 -45.5t-66.5 -35.5t-84 -11q-129 0 -218 100t-89 253q0 170 82 260t211 90q45 0 81.5 -10t67.5 -31t52.5 -42.5t50.5 -55.5l12 -15l12 15q38 40 52.5 54t49 40t70 35.5t80.5 9.5q129 0 211 -90t82 -260q0 -153 -89 -253t-218 -100
q-37 0 -69.5 9t-53.5 20t-45 34t-36 37.5t-34 43.5l-12 16zM907 446q35 0 55.5 30t20.5 69q0 44 -21.5 76t-58.5 32q-35 0 -69.5 -27.5t-57.5 -74.5q17 -43 55.5 -74t75.5 -31zM383 446q37 0 75.5 31t55.5 74q-23 47 -58 74.5t-71 27.5q-35 0 -56.5 -32t-21.5 -76
q0 -39 20.5 -69t55.5 -30z" />
    <glyph glyph-name="integral" unicode="&#x222b;" horiz-adv-x="1001" 
d="M303 881q35 549 516 549q110 0 217 -46l-73 -266q-84 25 -109 25q-54 0 -78 -56.5t-35 -205.5l-47 -699q-35 -549 -516 -549q-112 0 -217 45l74 267q84 -25 108 -25q55 0 78 54t35 208z" />
    <glyph glyph-name="approxequal" unicode="&#x2248;" 
d="M862 549q-48 0 -109 23.5t-109 51t-107 51t-105 23.5q-98 0 -170 -116l-168 157q66 116 149 165.5t187 49.5q49 0 109.5 -23.5t108 -51t105 -51t101.5 -23.5q95 0 168 117l176 -158q-69 -117 -151 -166t-185 -49zM862 127q-48 0 -109 23.5t-109 51t-107 51t-105 23.5
q-96 0 -170 -118l-168 159q66 116 149 165.5t187 49.5q49 0 109.5 -23.5t108 -52t105 -52t101.5 -23.5q94 0 168 119l176 -158q-69 -117 -151 -166t-185 -49z" />
    <glyph glyph-name="notequal" unicode="&#x2260;" 
d="M117 496h342l55 120h-397v265h516l88 194h291l-90 -194h249v-265h-368l-58 -120h426v-265h-544l-97 -211h-284l94 211h-223v265z" />
    <glyph glyph-name="equivalence" unicode="&#x2261;" 
d="M117 672h1054v-248h-1054v248zM117 287h1054v-248h-1054v248zM117 1057h1054v-248h-1054v248z" />
    <glyph glyph-name="lessequal" unicode="&#x2264;" 
d="M160 0v244h956v-244h-956zM1116 936l-657 -186l657 -205v-254l-956 330v245l956 328v-258z" />
    <glyph glyph-name="greaterequal" unicode="&#x2265;" 
d="M1130 244v-244h-956v244h956zM1130 621l-956 -330v254l660 205l-660 186v258l956 -328v-245z" />
    <glyph glyph-name="uni25AF" unicode="&#x25af;" horiz-adv-x="1181" 
d="M102 0v1487h977v-1487h-977zM963 109v1269h-744v-1269h744z" />
    <glyph glyph-name="triagup" unicode="&#x25b2;" horiz-adv-x="1112" 
d="M123 1065l967 -516l-967 -524v1040z" />
    <glyph glyph-name="triagrt" unicode="&#x25ba;" horiz-adv-x="1085" 
d="M23 68l516 1032l524 -1032h-1040z" />
    <glyph glyph-name="triagdn" unicode="&#x25bc;" horiz-adv-x="1085" 
d="M23 1075h1040l-524 -1032z" />
    <glyph glyph-name="triaglf" unicode="&#x25c4;" horiz-adv-x="1112" 
d="M989 1065v-1040l-966 524z" />
    <glyph glyph-name="lozenge" unicode="&#x25ca;" horiz-adv-x="1282" 
d="M641 989l-162 -291l162 -286l162 286zM33 700l456 699h304l456 -699l-456 -700h-304z" />
    <glyph glyph-name="uniFB00" unicode="&#xfb00;" horiz-adv-x="1546" 
d="M23 745v312h147v33q0 99 22.5 173t60.5 120t94.5 74.5t117.5 39t137 10.5q69 0 221 -20v-291q-25 8 -69 8q-60 -2 -88.5 -34t-28.5 -113h186v-312h-186v-745h-467v745h-147zM731 745v312h148v33q0 99 22.5 173t60.5 120t94.5 74.5t117.5 39t137 10.5q69 0 221 -20v-291
q-25 8 -70 8q-60 -2 -88 -34t-28 -113h186v-312h-186v-745h-467v745h-148z" />
    <glyph glyph-name="fi" unicode="&#xfb01;" horiz-adv-x="1449" 
d="M23 745v312h147v33q0 99 22.5 173t60.5 120t94.5 74.5t117.5 39t137 10.5q69 0 221 -20v-291q-25 8 -69 8q-60 -2 -88.5 -34t-28.5 -113h186v-312h-186v-745h-467v745h-147zM899 1057h467v-1057h-467v1057zM899 1487h467v-344h-467v344z" />
    <glyph glyph-name="fl" unicode="&#xfb02;" horiz-adv-x="1447" 
d="M23 745v312h147v33q0 99 22.5 173t60.5 120t94.5 74.5t117.5 39t137 10.5q69 0 221 -20v-291q-25 8 -69 8q-60 -2 -88.5 -34t-28.5 -113h186v-312h-186v-745h-467v745h-147zM897 1487h467v-1487h-467v1487z" />
    <glyph glyph-name="uniFB03" unicode="&#xfb03;" horiz-adv-x="2146" 
d="M731 745v312h148v33q0 99 22.5 173t60.5 120t94.5 74.5t117.5 39t137 10.5q69 0 221 -20v-291q-25 8 -70 8q-60 -2 -88 -34t-28 -113h186v-312h-186v-745h-467v745h-148zM1595 1057h467v-1057h-467v1057zM1595 1487h467v-344h-467v344zM23 745v312h147v33q0 99 22.5 173
t60.5 120t94.5 74.5t117.5 39t137 10.5q69 0 221 -20v-291q-25 8 -69 8q-60 -2 -88.5 -34t-28.5 -113h186v-312h-186v-745h-467v745h-147z" />
    <glyph glyph-name="uniFB04" unicode="&#xfb04;" horiz-adv-x="2146" 
d="M1595 1487h467v-1487h-467v1487zM731 745v312h148v33q0 99 22.5 173t60.5 120t94.5 74.5t117.5 39t137 10.5q69 0 221 -20v-291q-25 8 -70 8q-60 -2 -88 -34t-28 -113h186v-312h-186v-745h-467v745h-148zM23 745v312h147v33q0 99 22.5 173t60.5 120t94.5 74.5t117.5 39
t137 10.5q69 0 221 -20v-291q-25 8 -69 8q-60 -2 -88.5 -34t-28.5 -113h186v-312h-186v-745h-467v745h-147z" />
    <glyph glyph-name="uniFEFF" unicode="&#xfeff;" horiz-adv-x="0" 
 />
    <glyph glyph-name="i.latn_TRK" horiz-adv-x="634" 
d="M84 1057h467v-1057h-467v1057zM84 1487h467v-344h-467v344z" />
    <glyph glyph-name="Ldot.latn_CAT" horiz-adv-x="1202" 
d="M1153 983v-377h-430v377h430zM598 1487v-1094h557v-393h-1053v1487h496z" />
    <glyph glyph-name="ldot.latn_CAT" horiz-adv-x="1060" 
d="M84 1487h467v-1487h-467v1487zM633 971h430v-363h-430v363z" />
    <glyph glyph-name="zero.numr" horiz-adv-x="837" 
d="M313 997q0 -237 107 -237q104 0 104 237q0 236 -104 236q-107 0 -107 -236zM786 997q0 -213 -93.5 -321.5t-272.5 -108.5q-180 0 -274.5 108.5t-94.5 321.5q0 212 94.5 321t274.5 109q178 0 272 -109t94 -321z" />
    <glyph glyph-name="one.numr" horiz-adv-x="577" 
d="M33 1092v161q46 0 76.5 2.5t60 11t46.5 24.5t27.5 42.5t10.5 65.5h244v-803h-254v496h-211z" />
    <glyph glyph-name="two.numr" horiz-adv-x="796" 
d="M51 596v61q0 66 23.5 119.5t61 89t83 64.5t91 53.5t83 49.5t61 58.5t23.5 73.5q0 35 -21.5 56.5t-56.5 21.5q-43 0 -66.5 -31t-27.5 -102h-254q2 154 90.5 235.5t264.5 81.5q165 0 249 -66.5t84 -180.5q0 -58 -22 -106t-64 -86t-83 -66t-101 -65t-96 -64v-7h366v-190
h-688z" />
    <glyph glyph-name="three.numr" horiz-adv-x="811" 
d="M303 870q0 -58 26 -88t72 -30q43 0 70 23.5t27 58.5q0 37 -28 54t-89 17h-43v187h47q59 0 81.5 15.5t22.5 53.5q0 74 -88 74q-96 0 -96 -115h-254q0 153 91.5 230t258.5 77q347 0 347 -235q0 -54 -39.5 -110t-96.5 -70v-6q58 -8 102 -60.5t44 -118.5q0 -127 -91 -193.5
t-257 -66.5q-184 0 -273.5 71t-89.5 232h256z" />
    <glyph glyph-name="four.numr" horiz-adv-x="829" 
d="M35 762v190l307 447h315v-447h136v-190h-136v-166h-258v166h-364zM408 1176q-16 -31 -39 -67t-36 -55t-41.5 -58.5t-31.5 -43.5h158v224h-10z" />
    <glyph glyph-name="five.numr" horiz-adv-x="798" 
d="M313 1208l-10 -108q64 45 160 45q114 0 202.5 -74t88.5 -199q0 -143 -96.5 -224t-266.5 -81q-152 0 -245 71t-93 198h254q9 -84 90 -84q42 0 68.5 31.5t26.5 84.5q0 49 -27 76t-70 27q-66 0 -88 -70l-254 14l43 484h619v-191h-402z" />
    <glyph glyph-name="six.numr" horiz-adv-x="796" 
d="M473 1167q-11 70 -76 70q-43 0 -68.5 -40t-25.5 -116q67 56 160 56q123 0 204 -71.5t81 -186.5q0 -140 -96 -226t-251 -86q-184 0 -266 102.5t-82 319.5q0 216 93 327t272 111q298 0 311 -260h-256zM401 967q-38 0 -62 -27.5t-24 -75.5q0 -54 22.5 -83t63.5 -29
q84 0 84 112q0 47 -23 75t-61 28z" />
    <glyph glyph-name="seven.numr" horiz-adv-x="712" 
d="M152 596q72 342 254 612h-375v191h651v-172q-113 -164 -167 -290.5t-97 -340.5h-266z" />
    <glyph glyph-name="eight.numr" horiz-adv-x="794" 
d="M397 920q-40 0 -65 -24t-25 -60t24 -59t66 -23t66 22.5t24 59.5q0 36 -25 60t-65 24zM397 567q-164 0 -255 60t-91 180q0 71 41 124t115 79v8q-77 29 -109 69t-32 107q0 109 88.5 171t242.5 62t243 -62t89 -171q0 -63 -33 -106t-106 -72v-6q70 -31 111.5 -82.5
t41.5 -120.5q0 -120 -91 -180t-255 -60zM397 1249q-40 0 -63 -22t-23 -56q0 -36 22 -56.5t64 -20.5t64 20.5t22 56.5q0 34 -23 56t-63 22z" />
    <glyph glyph-name="nine.numr" horiz-adv-x="788" 
d="M303 831q5 -35 26.5 -56t53.5 -21q50 0 76 40t26 134q-75 -60 -151 -60q-134 0 -206.5 75.5t-72.5 182.5q0 119 88 210t242 91q184 0 267 -104t83 -322q0 -226 -81 -330t-269 -104q-150 0 -237 66t-99 198h254zM389 1241q-39 0 -62.5 -27.5t-23.5 -74.5t25.5 -73
t60.5 -26q37 0 62.5 26t25.5 73q0 46 -25 74t-63 28z" />
    <glyph glyph-name="zero.dnom" horiz-adv-x="837" 
d="M313 401q0 -237 107 -237q104 0 104 237q0 236 -104 236q-107 0 -107 -236zM786 401q0 -213 -93.5 -321.5t-272.5 -108.5q-180 0 -274.5 108.5t-94.5 321.5q0 212 94.5 321t274.5 109q178 0 272 -109t94 -321z" />
    <glyph glyph-name="one.dnom" horiz-adv-x="577" 
d="M33 496v161q46 0 76.5 2.5t60 11t46.5 24.5t27.5 42.5t10.5 65.5h244v-803h-254v496h-211z" />
    <glyph glyph-name="two.dnom" horiz-adv-x="796" 
d="M51 0v61q0 66 23.5 119.5t61 89t83 64.5t91 53.5t83 49.5t61 58.5t23.5 73.5q0 35 -21.5 56.5t-56.5 21.5q-43 0 -66.5 -31t-27.5 -102h-254q2 154 90.5 235.5t264.5 81.5q165 0 249 -66.5t84 -180.5q0 -58 -22 -106t-64 -86t-83 -66t-101 -65t-96 -64v-7h366v-190h-688z
" />
    <glyph glyph-name="three.dnom" horiz-adv-x="811" 
d="M303 274q0 -58 26 -88t72 -30q43 0 70 23.5t27 58.5q0 37 -28 54t-89 17h-43v187h47q59 0 81.5 15.5t22.5 53.5q0 74 -88 74q-96 0 -96 -115h-254q0 153 91.5 230t258.5 77q347 0 347 -235q0 -54 -39.5 -110t-96.5 -70v-6q58 -8 102 -60.5t44 -118.5q0 -127 -91 -193.5
t-257 -66.5q-184 0 -273.5 71t-89.5 232h256z" />
    <glyph glyph-name="four.dnom" horiz-adv-x="829" 
d="M35 166v190l307 447h315v-447h136v-190h-136v-166h-258v166h-364zM408 580q-16 -31 -39 -67t-36 -55t-41.5 -58.5t-31.5 -43.5h158v224h-10z" />
    <glyph glyph-name="five.dnom" horiz-adv-x="798" 
d="M313 612l-10 -108q64 45 160 45q114 0 202.5 -74t88.5 -199q0 -143 -96.5 -224t-266.5 -81q-152 0 -245 71t-93 198h254q9 -84 90 -84q42 0 68.5 31.5t26.5 84.5q0 49 -27 76t-70 27q-66 0 -88 -70l-254 14l43 484h619v-191h-402z" />
    <glyph glyph-name="six.dnom" horiz-adv-x="796" 
d="M473 571q-11 70 -76 70q-43 0 -68.5 -40t-25.5 -116q67 56 160 56q123 0 204 -71.5t81 -186.5q0 -140 -96 -226t-251 -86q-184 0 -266 102.5t-82 319.5q0 216 93 327t272 111q298 0 311 -260h-256zM401 371q-38 0 -62 -27.5t-24 -75.5q0 -54 22.5 -83t63.5 -29
q84 0 84 112q0 47 -23 75t-61 28z" />
    <glyph glyph-name="seven.dnom" horiz-adv-x="712" 
d="M150 0q73 344 253 612h-374v191h651v-172q-113 -164 -167 -290.5t-97 -340.5h-266z" />
    <glyph glyph-name="eight.dnom" horiz-adv-x="794" 
d="M397 324q-40 0 -65 -24t-25 -60t24 -59t66 -23t66 22.5t24 59.5q0 36 -25 60t-65 24zM397 -29q-164 0 -255 60t-91 180q0 71 41 124t115 79v8q-77 29 -109 69t-32 107q0 109 88.5 171t242.5 62t243 -62t89 -171q0 -63 -33 -106t-106 -72v-6q70 -31 111.5 -82.5
t41.5 -120.5q0 -120 -91 -180t-255 -60zM397 653q-40 0 -63 -22t-23 -56q0 -36 22 -56.5t64 -20.5t64 20.5t22 56.5q0 34 -23 56t-63 22z" />
    <glyph glyph-name="nine.dnom" horiz-adv-x="788" 
d="M303 236q5 -35 26.5 -56.5t53.5 -21.5q50 0 76 40t26 134q-75 -60 -151 -60q-134 0 -206.5 75.5t-72.5 182.5q0 119 88 210t242 91q184 0 267 -103.5t83 -321.5q0 -226 -81 -330.5t-269 -104.5q-150 0 -237 66.5t-99 198.5h254zM389 645q-39 0 -62.5 -27.5t-23.5 -74.5
t25.5 -73t60.5 -26q37 0 62.5 26t25.5 73q0 46 -25 74t-63 28z" />
    <glyph glyph-name="space.frac" horiz-adv-x="81" 
 />
    <glyph glyph-name="space.tf" 
 />
    <glyph glyph-name="numbersign.tf" 
d="M520 0l109 377h-152l-108 -377h-303l106 377h-211l62 205h208l74 258h-229l63 204h223l103 355h305l-102 -355h151l103 355h303l-103 -355h207l-61 -204h-203l-74 -258h223l-63 -205h-219l-107 -377h-305zM760 840h-152l-73 -258h151z" />
    <glyph glyph-name="dollar.tf" 
d="M469 -20q-224 35 -339.5 158.5t-115.5 332.5h508q4 -92 35.5 -129t101.5 -37q53 0 85 23t32 59q0 51 -29 78.5t-112 50.5l-236 62q-51 14 -90 28t-84 36.5t-76.5 52.5t-58.5 69.5t-41 95t-14 123.5q0 172 105.5 282.5t303.5 147.5v238h336v-228q461 -58 469 -479h-487
q0 148 -113 148q-55 0 -86 -24t-31 -67q0 -42 29.5 -66.5t100.5 -41.5l182 -41q112 -26 190 -59t135 -83t84 -120t27 -164q0 -395 -475 -451v-270h-336v275z" />
    <glyph glyph-name="percent.tf" 
d="M1034 1309l150 -119l-926 -1100l-149 119zM307 1075q0 -108 76 -108q34 0 51 29.5t17 78.5q0 50 -17 79.5t-51 29.5q-76 0 -76 -109zM86 1075q0 134 84.5 204.5t212.5 70.5t212.5 -70.5t84.5 -204.5t-84.5 -204t-212.5 -70t-212.5 70t-84.5 204zM834 324q0 -109 75 -109
q34 0 51 29.5t17 79.5q0 49 -17 78.5t-51 29.5q-75 0 -75 -108zM612 324q0 134 84.5 204t212.5 70t212.5 -70t84.5 -204t-84.5 -204.5t-212.5 -70.5t-212.5 70.5t-84.5 204.5z" />
    <glyph glyph-name="comma.tf" 
d="M412 33v409h467v-434l-189 -401h-258l148 426h-168z" />
    <glyph glyph-name="period.tf" 
d="M879 442v-442h-467v442h467z" />
    <glyph glyph-name="zero.tf" 
d="M645 295q123 0 123 410q0 401 -123 401t-123 -410q0 -401 123 -401zM645 -33q-290 0 -460.5 192t-170.5 537q0 346 171 542t460 196q290 0 460.5 -192t170.5 -537q0 -346 -171 -542t-460 -196z" />
    <glyph glyph-name="one.tf" 
d="M455 823h-334v324q185 0 262 50t106 202h457v-1045h252v-354h-1008v354h265v469z" />
    <glyph glyph-name="two.tf" 
d="M59 0q-2 23 -2 61q0 123 23.5 224t63.5 169t91.5 122.5t108.5 91t114 67t108.5 57.5t91.5 56t63.5 68.5t23.5 89.5t-29.5 77t-78.5 27q-135 0 -135 -201h-445q0 250 156 385.5t453 135.5q257 0 408 -103.5t151 -294.5q0 -78 -18.5 -143t-44.5 -109t-71.5 -85t-82.5 -65.5
t-93 -56.5q-41 -23 -109.5 -55t-107 -51t-73.5 -51.5t-43 -69.5h632v-346h-1155z" />
    <glyph glyph-name="three.tf" 
d="M479 494q6 -111 37.5 -162t106.5 -51q64 0 99.5 35t35.5 92q0 73 -37.5 108t-118.5 35h-55v307h43q85 0 120 34.5t35 111.5q0 114 -118 114q-67 0 -101 -51.5t-34 -142.5h-441q4 239 166.5 374.5t427.5 135.5q130 0 232.5 -22t179.5 -67.5t118.5 -121t41.5 -176.5
q0 -124 -68.5 -206.5t-196.5 -111.5v-10q141 -29 216 -114.5t75 -219.5q0 -204 -163 -312t-441 -108q-279 0 -444.5 134t-165.5 395h450z" />
    <glyph glyph-name="four.tf" 
d="M0 639l487 760h607v-799h176v-328h-176v-272h-484v272h-610v367zM637 600q0 176 12 422l-18 6l-264 -428h270z" />
    <glyph glyph-name="five.tf" 
d="M532 434q8 -83 33 -119t86 -36q65 0 91 45.5t26 136.5q0 170 -117 170q-45 0 -73.5 -25t-45.5 -84l-489 60l102 817h1018v-338h-618l-41 -238h16q99 111 305 111q115 0 200.5 -33.5t137.5 -96t77.5 -145t25.5 -186.5q0 -231 -162 -369.5t-451 -138.5q-288 0 -447 129
t-167 340h493z" />
    <glyph glyph-name="six.tf" 
d="M766 971q0 79 -29.5 121.5t-85.5 42.5q-42 0 -71.5 -28.5t-43 -76t-19 -93t-5.5 -95.5q0 -15 1 -37t1 -29h14q40 65 131 98t168 33q215 0 319.5 -118t104.5 -338q0 -226 -162.5 -356t-437.5 -130q-302 0 -456 185t-154 520q0 185 35 323.5t111 238.5t200 151t297 51
q265 0 408 -122.5t149 -340.5h-475zM647 592q-55 0 -87 -38.5t-32 -109.5q0 -76 32.5 -116.5t88.5 -40.5t88.5 39t32.5 112t-34 113.5t-89 40.5z" />
    <glyph glyph-name="seven.tf" 
d="M270 0q46 321 149 568.5t263 480.5h-608v350h1151v-318q-331 -419 -420 -1081h-535z" />
    <glyph glyph-name="eight.tf" 
d="M647 844q60 0 90.5 38.5t28.5 96.5q-3 135 -119 135q-61 0 -93 -36.5t-32 -98.5t32 -98.5t93 -36.5zM647 287q63 0 97 37.5t34 105.5t-34 105.5t-97 37.5q-62 0 -93.5 -37t-31.5 -106t31.5 -106t93.5 -37zM647 1434q261 0 423.5 -105.5t162.5 -275.5q0 -58 -12 -108
t-38.5 -95.5t-74 -78t-113.5 -46.5v-10q135 -35 201 -127.5t66 -216.5q0 -180 -159.5 -293t-455.5 -113q-298 0 -456 112.5t-158 293.5q0 124 65.5 216.5t200.5 127.5v10q-66 14 -113.5 46.5t-74 78t-38.5 95.5t-12 108q0 170 162.5 275.5t423.5 105.5z" />
    <glyph glyph-name="nine.tf" 
d="M535 428q0 -164 110 -164q42 0 70 26t41 74t17.5 96.5t4.5 114.5q0 32 -2 48h-14q-40 -66 -120 -98.5t-155 -32.5q-444 0 -444 456q0 226 161.5 356t438.5 130q303 0 455.5 -184.5t152.5 -520.5q0 -185 -35 -323.5t-110 -239t-199 -151t-297 -50.5q-265 0 -407 122.5
t-148 340.5h480zM647 807q55 0 87 38t32 109q0 76 -33 117t-88 41q-56 0 -88.5 -39t-32.5 -112t34 -113.5t89 -40.5z" />
    <glyph glyph-name="colon.tf" 
d="M879 426v-426h-467v426h467zM879 1057v-426h-467v426h467z" />
    <glyph glyph-name="semicolon.tf" 
d="M879 1057v-426h-467v426h467zM412 33v393h467v-418l-189 -401h-258l148 426h-168z" />
    <glyph glyph-name="cent.tf" 
d="M492 207q-199 44 -306.5 183.5t-107.5 354.5t108 357.5t306 189.5v224h335v-220q346 -64 398 -436h-459q-10 81 -32.5 112.5t-65.5 31.5q-107 0 -107 -259q0 -249 107 -249q44 0 65.5 35.5t32.5 123.5h459q-20 -185 -121 -300t-277 -152v-234h-335v238z" />
    <glyph glyph-name="sterling.tf" 
d="M43 350q62 3 92 19t44 58t14 126h-170v311h170v54q0 512 583 512q237 0 371.5 -120t138.5 -345h-426q-4 71 -30 102t-78 31q-42 0 -70.5 -33t-28.5 -82v-119h271v-311h-271q0 -83 -14.5 -122.5t-54.5 -84.5h682v-346h-1223v350z" />
    <glyph glyph-name="currency.tf" 
d="M203 614q0 101 37 174l-152 146l229 221l138 -160q99 45 190 45q93 0 189 -45l139 160l229 -221l-151 -146q36 -77 36 -174q0 -96 -36 -176l151 -143l-229 -221l-139 159q-96 -45 -189 -45q-91 0 -190 45l-138 -159l-229 221l152 143q-37 75 -37 176zM518 614
q0 -64 33 -103.5t94 -39.5t94 39.5t33 103.5t-33 104t-94 40t-94 -40t-33 -104z" />
    <glyph glyph-name="yen.tf" 
d="M905 0h-518v283h-336v247h303l-37 88h-266v248h162l-217 533h522q87 -285 137 -494h15q64 297 118 494h510l-219 -533h154v-248h-258l-39 -88h297v-247h-328v-283z" />
    <glyph glyph-name="section.tf" 
d="M526 111q3 -115 113 -115q49 0 74.5 21.5t25.5 58.5q0 31 -25.5 53.5t-90.5 46.5l-197 74q-182 70 -263 153t-81 226q0 104 55 179.5t154 104.5q-115 71 -115 209q0 146 133 236t342 90q211 0 336.5 -94t132.5 -258h-381q-10 96 -104 96q-41 0 -65.5 -18.5t-24.5 -49.5
q0 -32 19 -51t61 -33l182 -63q125 -43 203 -84t121.5 -89.5t59 -99.5t15.5 -124q0 -184 -164 -273q60 -46 85.5 -97t25.5 -120q0 -102 -67 -182t-183 -124t-260 -44q-219 0 -363.5 103.5t-144.5 267.5h391zM834 432q36 39 36 84q0 60 -46 95.5t-189 95.5l-170 69
q-20 -27 -27.5 -43t-7.5 -41q0 -62 43.5 -95t204.5 -101z" />
    <glyph glyph-name="florin.tf" 
d="M254 -328q-135 0 -242 37v285q92 -27 152 -27q75 0 111 49.5t57 165.5l59 307h-192v312h247l35 182q43 235 180.5 339.5t360.5 104.5q59 0 83.5 -0.5t69 -5.5t97.5 -16v-307q-108 24 -154 24q-67 0 -99 -28.5t-46 -100.5l-37 -192h215v-312h-272l-50 -245
q-42 -211 -111 -334.5t-180 -180.5t-284 -57z" />
    <glyph glyph-name="uni2007.tf" 
 />
    <glyph glyph-name="uni2008.tf" 
 />
    <glyph glyph-name="perthousand.tf" 
d="M295 258q0 134 84.5 204t212.5 70q93 0 170 -57q75 57 174 57q128 0 212.5 -70t84.5 -204t-84.5 -204t-212.5 -70q-98 0 -170 57q-72 -57 -174 -57q-128 0 -212.5 70t-84.5 204zM82 1075q0 134 84.5 204.5t212.5 70.5t212.5 -70.5t84.5 -204.5t-84.5 -204t-212.5 -70
t-212.5 70t-84.5 204zM1188 1075l65 -157l-1163 -535l-65 158zM303 1075q0 -108 76 -108q67 0 67 108q0 109 -67 109q-76 0 -76 -109zM508 258q0 -108 76 -108q67 0 67 108q0 109 -67 109q-76 0 -76 -109zM868 258q0 -108 76 -108q34 0 51 29.5t17 78.5q0 50 -17 79.5
t-51 29.5q-76 0 -76 -109z" />
    <glyph glyph-name="colonmonetary.tf" 
d="M1253 565q-37 -432 -327 -555l-19 -217h-254l15 172q-54 0 -95 8l-14 -180h-254l23 268q-133 88 -204 248.5t-71 384.5q0 257 92.5 430.5t264.5 247.5l18 209h254l-14 -156h8q32 0 86 -4l14 160h254l-20 -248q203 -136 241 -502h-391q-4 114 -51 171t-129 57
q-104 0 -153.5 -87.5t-49.5 -277.5q0 -185 50 -273.5t153 -88.5q81 0 130.5 65t49.5 168h393z" />
    <glyph glyph-name="uni20A6.tf" 
d="M453 842q36 -321 36 -559v-283h-393v381h-88v252h88v108h-88v252h88v406h533l192 -930h17q-37 330 -37 559v371h393v-406h86v-252h-86v-108h86v-252h-86v-381h-532l-193 842h-16z" />
    <glyph glyph-name="Euro.tf" 
d="M1294 496q-36 -264 -183 -397.5t-386 -133.5q-241 0 -397.5 133t-206.5 381h-117l16 172h82v43v33h-98l16 172h99q47 253 204 389.5t402 136.5q487 0 567 -526h-391q-17 82 -61 125t-111 43q-143 0 -188 -168h256l-17 -172h-262v-33v-43h254l-16 -172h-211
q46 -155 184 -155q65 0 110.5 47.5t63.5 124.5h391z" />
    <glyph glyph-name="uni20B2.tf" 
d="M905 127q-27 -62 -82 -96v-238h-352v180q-93 17 -171.5 67.5t-140 135t-96 212.5t-34.5 288q0 295 117 486.5t333 248.5v174h352v-170q169 -38 271.5 -154.5t138.5 -326.5h-416q-40 143 -161 143q-88 0 -134.5 -100.5t-46.5 -300.5q0 -176 45 -269.5t127 -93.5
q153 0 172 158h-155v330h569v-801h-336v127z" />
    <glyph glyph-name="uni20B4.tf" 
d="M938 750l-154 -82h467v-193h-680q-30 -47 -30 -96q0 -45 28.5 -69.5t69.5 -24.5q65 0 95 23.5t34 88.5h475q-18 -113 -72.5 -198t-137.5 -135t-182.5 -74.5t-215.5 -24.5q-170 0 -298 41t-202 125t-74 201q0 75 43 143h-67v193h291l135 69l24 13h-450v192h686
q14 25 14 68q0 46 -23.5 73t-60.5 27q-57 0 -86 -23t-39 -77h-456q30 207 182 313.5t401 106.5q259 0 410.5 -97t151.5 -258q0 -74 -39 -133h73v-192h-313z" />
    <glyph glyph-name="uni20B5.tf" 
d="M512 -16q-219 51 -338 233.5t-119 476.5q0 292 119 475.5t338 237.5v176h336v-178q357 -88 405 -574h-391q-4 114 -51 171t-129 57q-104 0 -153.5 -87.5t-49.5 -277.5q0 -185 50 -273.5t153 -88.5q81 0 130.5 65t49.5 168h393q-20 -245 -124 -390.5t-283 -188.5v-193
h-336v191z" />
    <glyph glyph-name="uni20B8.tf" 
d="M1235 711h-340v-711h-500v711h-338v393h1178v-393zM1235 1186h-1178v213h1178v-213z" />
    <glyph glyph-name="uni20B9.tf" 
d="M602 1038q-62 74 -196 74h-390v287h1256v-256h-221q31 -49 43 -105h170v-256h-211q-82 -171 -256 -190v-17q49 -3 88 -20t65 -39t49.5 -60.5t36.5 -70t31 -80.5l113 -305h-533l-65 238q-29 95 -44 120q-39 57 -120 58h-287v286h279q137 0 196 80h-581v256h577z" />
    <glyph glyph-name="uni20BA.tf" 
d="M147 1006v393h494v-133l213 112v-268l-213 -113v-75l213 112v-268l-213 -113v-260h53q106 0 170 89.5t64 246.5h383q0 -356 -154.5 -542.5t-462.5 -186.5h-547v395l-124 -65v266l124 66v77l-124 -65v266z" />
    <glyph glyph-name="uni20BD.tf" 
d="M143 1399h549q296 0 457.5 -112t161.5 -341t-161 -341.5t-458 -112.5h-57v-82h346v-256h-346v-154h-492v154h-131v256h131v82h-131v262h131v645zM643 797q44 0 76 5.5t61.5 21t44.5 46t15 76.5q0 44 -15 73.5t-44.5 43.5t-61 19t-76.5 5h-8v-290h8z" />
    <glyph glyph-name="uni20BF.tf" 
d="M897 1376q151 -36 228 -126.5t77 -221.5q0 -121 -77.5 -201.5t-213.5 -103.5v-8q149 -12 233.5 -96t84.5 -224q0 -155 -81.5 -247.5t-250.5 -127.5v-227h-250v207h-110v-207h-250v207h-178v1399h178v174h250v-174h110v174h250v-197zM633 315q99 0 141.5 28t42.5 91
q0 127 -180 127h-123v-246h119zM618 852q97 0 141 27.5t44 87.5q0 61 -43 88.5t-135 27.5h-111v-231h104z" />
    <glyph glyph-name="parenleft.case" horiz-adv-x="665" 
d="M307 -145q-148 283 -202 491t-54 422q0 407 256 862h328q-90 -240 -133 -448.5t-43 -419.5q0 -475 176 -907h-328z" />
    <glyph glyph-name="parenright.case" horiz-adv-x="665" 
d="M31 -145q94 241 135 476t41 431q0 215 -42.5 424t-133.5 444h329q254 -457 254 -862q0 -213 -54 -422t-200 -491h-329z" />
    <glyph glyph-name="hyphen.case" horiz-adv-x="802" 
d="M721 920v-353h-639v353h639z" />
    <glyph glyph-name="bracketleft.case" horiz-adv-x="774" 
d="M102 1612h635v-262h-235v-1211h235v-264h-635v1737z" />
    <glyph glyph-name="bracketright.case" horiz-adv-x="774" 
d="M37 139h235v1211h-235v262h635v-1737h-635v264z" />
    <glyph glyph-name="braceleft.case" horiz-adv-x="780" 
d="M322 737q68 -13 114 -35.5t72.5 -50.5t40.5 -74.5t18 -90.5t4 -115v-101q0 -33 1 -51.5t5.5 -42t14.5 -36t27.5 -24.5t44.5 -17t65 -5h16v-221q-13 0 -29 -1t-28 -1q-263 0 -374 83t-111 296v145q0 117 -46.5 174t-158.5 74v201q112 17 158.5 74t46.5 174v145
q0 211 115.5 295t369.5 84q12 0 28 -1t29 -1v-221h-16q-38 0 -65 -5t-44.5 -17t-27.5 -24.5t-14.5 -36t-5.5 -42t-1 -51.5v-99q0 -70 -4 -114.5t-18 -91.5t-40.5 -75.5t-73 -52t-113.5 -34.5v-13z" />
    <glyph glyph-name="braceright.case" horiz-adv-x="780" 
d="M459 750q-56 10 -97.5 26t-69 41.5t-44.5 53.5t-25.5 70t-11 80.5t-2.5 96.5v99q0 33 -1 51.5t-5.5 42t-14.5 36t-27.5 24.5t-44.5 17t-65 5h-16v221q13 0 29 1t28 1q255 0 370.5 -84.5t115.5 -294.5v-145q0 -118 46 -174.5t158 -73.5v-201q-112 -17 -158 -73.5
t-46 -174.5v-145q0 -213 -111.5 -296t-374.5 -83q-12 0 -28 1t-29 1v221h16q38 0 65 5t44.5 17t27.5 24.5t14.5 36t5.5 42t1 51.5v101q0 71 4 115.5t18 90.5t41 74t73 50.5t114 35.5v13z" />
    <glyph glyph-name="guillemotleft.case" horiz-adv-x="1204" 
d="M625 1157l-197 -416l197 -413h-363l-225 413l225 416h363zM1157 1157l-196 -416l196 -413h-362l-226 413l226 416h362z" />
    <glyph glyph-name="uni00AD.case" horiz-adv-x="786" 
d="M715 920v-353h-639v353h639z" />
    <glyph glyph-name="guillemotright.case" horiz-adv-x="1204" 
d="M942 328h-362l196 413l-196 416h362l225 -416zM410 328h-363l197 413l-197 416h363l225 -416z" />
    <glyph glyph-name="gravecomb.case" horiz-adv-x="0" 
d="M-852 1890h457l219 -291h-361z" />
    <glyph glyph-name="acutecomb.case" horiz-adv-x="0" 
d="M-637 1890h453l-316 -291h-356z" />
    <glyph glyph-name="uni0302.case" horiz-adv-x="0" 
d="M-766 1890h508l227 -299h-348l-133 144l-135 -144h-346z" />
    <glyph glyph-name="tildecomb.case" horiz-adv-x="0" 
d="M-928 1579q2 148 63 229.5t171 81.5q56 0 159.5 -36.5t155.5 -36.5q25 0 50.5 18t25.5 55h215q-2 -148 -63 -229.5t-171 -81.5q-56 0 -160 37t-155 37q-25 0 -50.5 -18.5t-25.5 -55.5h-215z" />
    <glyph glyph-name="uni0304.case" horiz-adv-x="0" 
d="M-872 1880h720v-281h-720v281z" />
    <glyph glyph-name="uni0306.case" horiz-adv-x="0" 
d="M-514 1569q-196 0 -304 85t-116 236h318q8 -112 102 -112t102 112h318q-8 -151 -116 -236t-304 -85z" />
    <glyph glyph-name="uni0307.case" horiz-adv-x="0" 
d="M-756 1890h488v-319h-488v319z" />
    <glyph glyph-name="uni0308.case" horiz-adv-x="0" 
d="M-428 1890h399v-319h-399v319zM-995 1890h399v-319h-399v319z" />
    <glyph glyph-name="uni030A.case" horiz-adv-x="0" 
d="M-528 1518q-125 0 -211 75.5t-86 196.5t86 196.5t211 75.5q123 0 210 -78t87 -194t-87 -194t-210 -78zM-528 1673q54 0 87 33t33 84q0 54 -33 85.5t-87 31.5t-87.5 -31.5t-33.5 -85.5q0 -51 33.5 -84t87.5 -33z" />
    <glyph glyph-name="uni030B.case" horiz-adv-x="0" 
d="M-324 1890h422l-288 -293h-349zM-877 1890h394l-254 -293h-332z" />
    <glyph glyph-name="uni030C.case" horiz-adv-x="0" 
d="M-993 1890h348l133 -143l135 143h346l-227 -299h-508z" />
    <glyph glyph-name="dotbelowcomb.case" horiz-adv-x="0" 
d="M-754 -82h484v-332h-484v332z" />
    </font>
</defs>
</svg>
