<svg width="464" height="352" viewBox="0 0 464 352" fill="none" xmlns="http://www.w3.org/2000/svg">
<g clip-path="url(#clip0)">
<path d="M464 112.749C464 112.749 394.603 109.038 372.373 91.0513C350.12 73.0647 395.149 22.2454 395.149 22.2454C395.149 22.2454 326.821 103.756 286.043 105.874C245.241 107.991 305.09 0 305.09 0C305.09 0 215.055 150.864 199.688 145.035C184.322 139.206 215.577 50.2959 215.577 50.2959C215.577 50.2959 151.5 157.978 117.585 159.976C83.6943 161.975 87.3993 106.397 87.3993 106.397C87.3993 106.397 81.5806 144.512 61.4408 166.733C41.3247 188.978 0 208.559 0 208.559C0 208.559 73.6244 187.908 85.2856 203.801C96.9467 219.694 69.3969 291.664 69.3969 291.664C69.3969 291.664 124.497 224.975 145.135 239.798C165.797 254.62 115.472 352.024 115.472 352.024C115.472 352.024 201.28 219.17 252.128 213.865C302.976 208.583 307.228 251.456 307.228 251.456C307.228 251.456 308.296 181.698 336.891 160C365.486 138.278 464 112.749 464 112.749Z" fill="#FF6C2F"/>
</g>
<defs>
<clipPath id="clip0">
<rect width="464" height="352" fill="white"/>
</clipPath>
</defs>
</svg>
