<svg width="337" height="255" viewBox="0 0 337 255" fill="none" xmlns="http://www.w3.org/2000/svg">
<g clip-path="url(#clip0)">
<path d="M332.864 136.55C325.204 123.31 308.367 111.585 291.608 107.768C291.411 102.673 289.678 97.2433 286.409 91.5972C274.259 70.5865 244.72 53.5301 220.537 53.6088C212.877 53.6285 206.359 55.399 201.672 58.7238C191.629 42.651 168.903 29.8243 150.254 29.8833C144.996 29.903 140.507 30.926 136.922 32.9326C120.637 13.7319 92.5747 -0.05883 69.7706 0.000188707C42.5554 0.0788803 31.5275 19.3977 45.2139 43.0641C46.1394 44.6773 47.2028 46.3102 48.3647 47.9627C41.9252 45.72 35.5448 44.5396 29.7945 44.5593C9.55053 44.6183 1.35839 58.9598 11.5198 76.5671C13.3118 79.6754 15.6355 82.764 18.3925 85.7543C0.472223 89.1577 -5.15987 104.286 5.06061 121.972C15.3795 139.815 39.2864 155.18 61.1255 158.131C60.2 163.108 61.4997 168.853 64.9459 174.814C73.1774 189.057 91.8066 201.333 109.471 204.244C110.416 206.861 111.677 209.536 113.213 212.192C126.899 235.858 160.179 255.059 187.395 254.981C206.851 254.922 218.647 245.065 217.82 229.74C232.51 242.095 252.144 249.984 268.312 249.925C290.899 249.866 301.12 234.737 291.982 215.281C298.855 217.818 305.688 219.156 311.793 219.137C332.037 219.077 340.229 204.716 330.068 187.129C325.598 179.397 318.213 172.079 309.095 166.315C311.379 166.649 313.565 166.826 315.594 166.807C334.735 166.767 342.494 153.193 332.864 136.55Z" fill="#FF6C2F"/>
</g>
<defs>
<clipPath id="clip0">
<rect width="337" height="255" fill="white"/>
</clipPath>
</defs>
</svg>
