<svg id="Layer_1" data-name="Layer 1" xmlns="http://www.w3.org/2000/svg" viewBox="0 0 919.51556 865.10572"><defs><style>.cls-1{fill:#fff;}.cls-2{fill:none;stroke:#215bdf;stroke-miterlimit:9.9999;stroke-width:2.99997px;}.cls-3{fill:#215bdf;}</style></defs><g id="Layer0_0_MEMBER_0_FILL" data-name="Layer0 0 MEMBER 0 FILL"><path class="cls-1" d="M641.43813,774.10355V575.6972l272.45545,105.276v-536.361L554.39919,5.72415V204.13041L281.907,98.891V297.04045L9.45157,191.80108V728.12544L368.94605,867.0135v-198.186Z" transform="translate(-7.47997 -3.59977)"/></g><g id="Layer0_0_MEMBER_1_MEMBER_0_MEMBER_0_FILL" data-name="Layer0 0 MEMBER 1 MEMBER 0 MEMBER 0 FILL"><path class="cls-1" d="M368.46891,866.53654V330.17545L8.97461,191.28739V727.64848Z" transform="translate(-7.47997 -3.59977)"/></g><path id="Layer0_0_MEMBER_1_MEMBER_0_MEMBER_1_1_STROKES" data-name="Layer0 0 MEMBER 1 MEMBER 0 MEMBER 1 1 STROKES" class="cls-2" d="M368.47081,633.03418V866.518L8.98,727.63126V191.27547L368.47081,330.16215v66.3427" transform="translate(-7.47997 -3.59977)"/><g id="Layer0_0_MEMBER_1_MEMBER_1_MEMBER_0_FILL" data-name="Layer0 0 MEMBER 1 MEMBER 1 MEMBER 0 FILL"><path class="cls-1" d="M641.29139,773.77333V548.43338L368.46891,668.38713Z" transform="translate(-7.47997 -3.59977)"/></g><path id="Layer0_0_MEMBER_1_MEMBER_1_MEMBER_1_1_STROKES" data-name="Layer0 0 MEMBER 1 MEMBER 1 MEMBER 1 1 STROKES" class="cls-2" d="M641.29049,548.41789V773.75556L368.47081,668.3705" transform="translate(-7.47997 -3.59977)"/><path id="Layer0_0_MEMBER_1_MEMBER_2_MEMBER_0_1_STROKES" data-name="Layer0 0 MEMBER 1 MEMBER 2 MEMBER 0 1 STROKES" class="cls-2" d="M641.29049,506.80692v26.16282" transform="translate(-7.47997 -3.59977)"/><g id="Layer0_0_MEMBER_1_MEMBER_3_MEMBER_0_FILL" data-name="Layer0 0 MEMBER 1 MEMBER 3 MEMBER 0 FILL"><path class="cls-1" d="M641.29139,237.44888l-32.98826-12.733,32.98826,79.07629Z" transform="translate(-7.47997 -3.59977)"/></g><path id="Layer0_0_MEMBER_1_MEMBER_3_MEMBER_1_1_STROKES" data-name="Layer0 0 MEMBER 1 MEMBER 3 MEMBER 1 1 STROKES" class="cls-2" d="M608.3026,224.7037l32.98789,12.73278v66.34273" transform="translate(-7.47997 -3.59977)"/><path id="Layer0_0_MEMBER_1_MEMBER_4_MEMBER_0_1_STROKES" data-name="Layer0 0 MEMBER 1 MEMBER 4 MEMBER 0 1 STROKES" class="cls-2" d="M567.71908,209.03536l25.42888,9.7973" transform="translate(-7.47997 -3.59977)"/><path id="Layer0_0_MEMBER_1_MEMBER_5_MEMBER_0_1_STROKES" data-name="Layer0 0 MEMBER 1 MEMBER 5 MEMBER 0 1 STROKES" class="cls-2" d="M391.69809,141.00473l162.88452,62.93016" transform="translate(-7.47997 -3.59977)"/><path id="Layer0_0_MEMBER_1_MEMBER_6_MEMBER_0_1_STROKES" data-name="Layer0 0 MEMBER 1 MEMBER 6 MEMBER 0 1 STROKES" class="cls-2" d="M363.99414,130.2901l12.109,4.69682" transform="translate(-7.47997 -3.59977)"/><g id="Layer0_0_MEMBER_1_MEMBER_7_MEMBER_0_FILL" data-name="Layer0 0 MEMBER 1 MEMBER 7 MEMBER 0 FILL"><path class="cls-1" d="M914.11378,452.47769,641.29139,575.66047l272.82239,105.3862Z" transform="translate(-7.47997 -3.59977)"/></g><path id="Layer0_0_MEMBER_1_MEMBER_7_MEMBER_1_1_STROKES" data-name="Layer0 0 MEMBER 1 MEMBER 7 MEMBER 1 1 STROKES" class="cls-2" d="M914.11017,452.46316V681.02992L641.29049,575.64486" transform="translate(-7.47997 -3.59977)"/><g id="Layer0_0_MEMBER_1_MEMBER_8_MEMBER_0_FILL" data-name="Layer0 0 MEMBER 1 MEMBER 8 MEMBER 0 FILL"><path class="cls-1" d="M914.11378,440.25846V144.72222L554.58266,5.79752V203.94694Z" transform="translate(-7.47997 -3.59977)"/></g><path id="Layer0_0_MEMBER_1_MEMBER_8_MEMBER_1_1_STROKES" data-name="Layer0 0 MEMBER 1 MEMBER 8 MEMBER 1 1 STROKES" class="cls-2" d="M554.58261,203.93489V5.78745L914.11017,144.71082V440.2441" transform="translate(-7.47997 -3.59977)"/><path id="Layer0_0_MEMBER_1_MEMBER_9_MEMBER_0_1_STROKES" data-name="Layer0 0 MEMBER 1 MEMBER 9 MEMBER 0 1 STROKES" class="cls-2" d="M402.52281,614.17353,926.5127,436.02429" transform="translate(-7.47997 -3.59977)"/><path id="Layer0_0_MEMBER_1_MEMBER_10_MEMBER_0_1_STROKES" data-name="Layer0 0 MEMBER 1 MEMBER 10 MEMBER 0 1 STROKES" class="cls-2" d="M293.17477,422.11727,670.57224,293.79844" transform="translate(-7.47997 -3.59977)"/><path id="Layer0_0_MEMBER_1_MEMBER_11_MEMBER_0_1_STROKES" data-name="Layer0 0 MEMBER 1 MEMBER 11 MEMBER 0 1 STROKES" class="cls-2" d="M414.92537,279.4144l377.3975-128.28213" transform="translate(-7.47997 -3.59977)"/><path id="Layer0_0_MEMBER_1_MEMBER_12_MEMBER_0_1_STROKES" data-name="Layer0 0 MEMBER 1 MEMBER 12 MEMBER 0 1 STROKES" class="cls-2" d="M470.003,552.124l231.24544-78.63514" transform="translate(-7.47997 -3.59977)"/><path id="Layer0_0_MEMBER_1_MEMBER_13_MEMBER_0_1_STROKES" data-name="Layer0 0 MEMBER 1 MEMBER 13 MEMBER 0 1 STROKES" class="cls-2" d="M466.774,233.69372l180.60771-61.389" transform="translate(-7.47997 -3.59977)"/><path id="Layer0_0_MEMBER_1_MEMBER_14_MEMBER_0_1_STROKES" data-name="Layer0 0 MEMBER 1 MEMBER 14 MEMBER 0 1 STROKES" class="cls-2" d="M281.76293,179.82694v116.8703" transform="translate(-7.47997 -3.59977)"/><path id="Layer0_0_MEMBER_1_MEMBER_15_MEMBER_0_1_STROKES" data-name="Layer0 0 MEMBER 1 MEMBER 15 MEMBER 0 1 STROKES" class="cls-2" d="M281.76293,158.14082v8.58638" transform="translate(-7.47997 -3.59977)"/><g id="Layer0_0_MEMBER_1_MEMBER_16_MEMBER_0_FILL" data-name="Layer0 0 MEMBER 1 MEMBER 16 MEMBER 0 FILL"><path class="cls-1" d="M281.76027,146.55694l-5.13721,1.87145,71.59069-24.21826L281.76027,98.56082Z" transform="translate(-7.47997 -3.59977)"/></g><path id="Layer0_0_MEMBER_1_MEMBER_16_MEMBER_1_1_STROKES" data-name="Layer0 0 MEMBER 1 MEMBER 16 MEMBER 1 1 STROKES" class="cls-2" d="M116.93362,202.98086l231.28211-78.782-66.4528-25.64908v47.99571" transform="translate(-7.47997 -3.59977)"/><path id="Layer0_0_MEMBER_1_MEMBER_17_MEMBER_0_1_STROKES" data-name="Layer0 0 MEMBER 1 MEMBER 17 MEMBER 0 1 STROKES" class="cls-2" d="M232.26278,183.9l192.75343-65.53543" transform="translate(-7.47997 -3.59977)"/><g id="Layer0_0_MEMBER_2_MEMBER_0_MEMBER_0_FILL" data-name="Layer0 0 MEMBER 2 MEMBER 0 MEMBER 0 FILL"><path class="cls-3" d="M404.94323,442.8637a22.91827,22.91827,0,0,0-8.10949.22021,60.41546,60.41546,0,0,0-8.62316,2.38513l-19.338,6.64171,20.7323,60.28872,10.45788-3.596-7.63235-22.16344,8.62317-2.97218a56.59344,56.59344,0,0,0,9.32033-3.99974,21.56921,21.56921,0,0,0,5.76108-4.51342,17.85721,17.85721,0,0,0,4.03638-8.58644,20.97785,20.97785,0,0,0-1.02755-10.27441A22.523,22.523,0,0,0,413.603,447.267a16.177,16.177,0,0,0-8.65972-4.40332m-5.06393,9.54053a9.69623,9.69623,0,0,1,5.10048,2.31176,11.03642,11.03642,0,0,1,3.119,4.807q2.23848,6.64152-1.6878,11.08167-2.275,2.45859-8.54989,4.58679l-8.36623,2.89882L382.266,457.06448l8.47643-2.8989Q396.94375,452.03729,399.8793,452.40423Z" transform="translate(-7.47997 -3.59977)"/></g><g id="Layer0_0_MEMBER_2_MEMBER_0_MEMBER_1_FILL" data-name="Layer0 0 MEMBER 2 MEMBER 0 MEMBER 1 FILL"><path class="cls-3" d="M472.49736,459.9633q-3.5226-10.201-11.4118-14.38416-7.99956-4.21976-17.79675-.844-9.72392,3.33918-13.43016,11.55872-3.66935,8.14617-.14674,18.34716t11.37524,14.4209q7.92593,4.21989,17.64983.88063,9.8341-3.37587,13.57691-11.63209,3.66934-8.10948.18347-18.34717m-17.06287-6.34814q4.25658,2.97219,6.67844,9.90747,2.38522,6.97183.8439,11.92566a10.15719,10.15719,0,0,1-6.825,6.82518,9.83,9.83,0,0,1-9.46725-1.2843q-4.18295-3.009-6.56825-9.90747-2.38523-6.97183-.88063-11.92566a9.9515,9.9515,0,0,1,6.715-6.78845A10.078,10.078,0,0,1,455.43449,453.61516Z" transform="translate(-7.47997 -3.59977)"/></g><g id="Layer0_0_MEMBER_2_MEMBER_0_MEMBER_2_FILL" data-name="Layer0 0 MEMBER 2 MEMBER 0 MEMBER 2 FILL"><path class="cls-3" d="M477.23107,437.02934a11.77214,11.77214,0,0,0-1.578,11.08167,10.83047,10.83047,0,0,0,8.43969,7.55907q3.59625.77053,11.96239-.03673a39.34783,39.34783,0,0,1,8.036-.22011q3.59623.55054,4.58679,3.4125a4.80842,4.80842,0,0,1-.77062,4.66025,10.53921,10.53921,0,0,1-5.21049,3.33913q-9.13693,3.15576-11.77891-4.58679L480.717,465.761q2.6787,7.19195,8.95338,9.32033,6.23814,2.0916,15.41163-1.0641,8.43978-2.89895,12.0724-8.10948a12.0944,12.0944,0,0,0,1.54123-11.44862,10.60794,10.60794,0,0,0-7.19213-7.1554q-3.59624-1.10082-10.64135-.62378a76.40547,76.40547,0,0,1-9.614.44031q-4.55007-.40366-5.57743-3.41259a4.36138,4.36138,0,0,1,.69715-4.29322,9.73958,9.73958,0,0,1,4.807-3.15575q4.073-1.431,6.605-.40358,2.60507,1.02746,4.07293,4.73353l9.87092-3.41259q-2.42178-7.00851-8.293-9.06348-5.79791-2.05479-14.38425.88072Q480.86368,431.81877,477.23107,437.02934Z" transform="translate(-7.47997 -3.59977)"/></g><g id="Layer0_0_MEMBER_2_MEMBER_0_MEMBER_3_FILL" data-name="Layer0 0 MEMBER 2 MEMBER 0 MEMBER 3 FILL"><path class="cls-3" d="M524.4933,406.24283l-9.98093,3.4125,3.66944,10.64136-6.89847,2.34849,2.64207,7.63244,6.86173-2.34849,7.63244,22.16343q2.49528,7.302,6.49488,9.54053,3.963,2.275,10.38451.07337a26.91124,26.91124,0,0,0,6.12794-2.93555l-2.642-7.63244a19.53824,19.53824,0,0,1-3.26576,1.50451q-2.899.99076-4.73363-.47705-1.65138-1.35775-3.08229-5.50415l-6.93519-20.14524,8.47634-2.93555-2.642-7.63235-8.47642,2.89882Z" transform="translate(-7.47997 -3.59977)"/></g><g id="Layer0_0_MEMBER_2_MEMBER_0_MEMBER_4_FILL" data-name="Layer0 0 MEMBER 2 MEMBER 0 MEMBER 4 FILL"><path class="cls-3" d="M561.77478,404.00444q-9.54048,3.2658-13.17332,11.66882-3.486,8.146-.1101,17.98022,3.66935,10.71468,11.0083,14.82448,7.59576,4.21976,17.79676.69724,7.88923-2.75194,11.70554-7.88928a18.11045,18.11045,0,0,0,3.19239-12.843l-10.53125,3.63271q.11006,7.37564-6.78846,9.76072a10.32025,10.32025,0,0,1-9.10021-.73388q-3.81623-2.31172-5.94446-7.926l30.49294-10.49462a53.69013,53.69013,0,0,0-3.88955-8.84328,26.57,26.57,0,0,0-5.24731-6.67835,17.51047,17.51047,0,0,0-8.51307-4.21985,21.59179,21.59179,0,0,0-10.8982,1.0641m1.98146,7.3756a9.715,9.715,0,0,1,7.81591.40358q3.85292,1.90818,6.09121,7.082l-20.5121,7.0453q-1.39431-5.46747.51369-9.35706A10.024,10.024,0,0,1,563.75624,411.38Z" transform="translate(-7.47997 -3.59977)"/></g><g id="Layer0_0_MEMBER_2_MEMBER_0_MEMBER_5_FILL" data-name="Layer0 0 MEMBER 2 MEMBER 0 MEMBER 5 FILL"><path class="cls-3" d="M616.22914,386.57463a25.15925,25.15925,0,0,0-4.88036,1.21093q-7.26546,2.532-9.02675,10.71473l-2.20166-6.38478-9.35706,3.229,14.71437,42.82236,9.98085-3.41259-6.45815-18.75084q-2.75208-8.03611-1.54115-12.69619,1.32095-4.99054,7.30214-7.04538a22.75035,22.75035,0,0,1,4.44-1.0641Z" transform="translate(-7.47997 -3.59977)"/></g><g id="Layer0_0_MEMBER_2_MEMBER_0_MEMBER_6_FILL" data-name="Layer0 0 MEMBER 2 MEMBER 0 MEMBER 6 FILL"><path class="cls-3" d="M666.39028,414.60907a12.15171,12.15171,0,0,0,1.50451-11.44862,10.70322,10.70322,0,0,0-7.19213-7.15539q-3.55929-1.10084-10.60463-.66052a74.0288,74.0288,0,0,1-9.6139.477q-4.58675-.40353-5.61425-3.41259a4.36157,4.36157,0,0,1,.69716-4.29322,9.73881,9.73881,0,0,1,4.807-3.15566q4.073-1.43112,6.605-.40367,2.6052,1.02732,4.073,4.73353l9.87083-3.4125q-2.38509-7.00878-8.25622-9.06357-5.83446-2.05479-14.4209.88072-8.18271,2.82545-11.81555,8.036a11.79121,11.79121,0,0,0-1.57788,11.08167,10.84293,10.84293,0,0,0,8.47643,7.55907q3.55929.77067,11.9623-.03673a38.98,38.98,0,0,1,7.99938-.22011q3.596.55041,4.58679,3.41259a4.6905,4.6905,0,0,1-.77061,4.66016,10.30625,10.30625,0,0,1-5.17385,3.33913q-9.17349,3.1559-11.81556-4.58679l-10.201,3.52269q2.6787,7.19208,8.95338,9.32033,6.238,2.0916,15.41162-1.0641Q662.72081,419.81974,666.39028,414.60907Z" transform="translate(-7.47997 -3.59977)"/></g></svg>