<svg id="Layer_1" data-name="Layer 1" xmlns="http://www.w3.org/2000/svg" viewBox="0 0 919.51557 865.10579"><defs><style>.cls-1{fill:#fff;}.cls-2{fill:none;stroke:#215bdf;stroke-miterlimit:9.9999;stroke-width:2.99997px;}.cls-3{fill:#215bdf;}</style></defs><g id="Layer1_0_MEMBER_0_FILL" data-name="Layer1 0 MEMBER 0 FILL"><path class="cls-1" d="M638.31838,775.38835V576.98205L910.77382,682.25811V145.897L551.2427,7.00892V205.41519L278.78726,100.17584V298.32525L6.33181,193.0859V729.41033L365.82629,868.29839V670.11225Z" transform="translate(-4.36062 -4.90279)"/></g><g id="Layer1_0_MEMBER_1_MEMBER_0_MEMBER_0_FILL" data-name="Layer1 0 MEMBER 1 MEMBER 0 MEMBER 0 FILL"><path class="cls-1" d="M365.34916,867.82135V331.46023L5.85486,192.57217V728.93329Z" transform="translate(-4.36062 -4.90279)"/></g><path id="Layer1_0_MEMBER_1_MEMBER_0_MEMBER_1_1_STROKES" data-name="Layer1 0 MEMBER 1 MEMBER 0 MEMBER 1 1 STROKES" class="cls-2" d="M365.35144,634.33733V867.821L5.86061,728.93435V192.57859L365.35144,331.46527V397.808" transform="translate(-4.36062 -4.90279)"/><g id="Layer1_0_MEMBER_1_MEMBER_1_MEMBER_0_FILL" data-name="Layer1 0 MEMBER 1 MEMBER 1 MEMBER 0 FILL"><path class="cls-1" d="M638.17163,775.05805V549.71814L365.34916,669.67193Z" transform="translate(-4.36062 -4.90279)"/></g><path id="Layer1_0_MEMBER_1_MEMBER_1_MEMBER_1_1_STROKES" data-name="Layer1 0 MEMBER 1 MEMBER 1 MEMBER 1 1 STROKES" class="cls-2" d="M638.17112,549.721V775.05871L365.35144,669.67359" transform="translate(-4.36062 -4.90279)"/><path id="Layer1_0_MEMBER_1_MEMBER_2_MEMBER_0_1_STROKES" data-name="Layer1 0 MEMBER 1 MEMBER 2 MEMBER 0 1 STROKES" class="cls-2" d="M638.17112,508.11007v26.16276" transform="translate(-4.36062 -4.90279)"/><g id="Layer1_0_MEMBER_1_MEMBER_3_MEMBER_0_FILL" data-name="Layer1 0 MEMBER 1 MEMBER 3 MEMBER 0 FILL"><path class="cls-1" d="M638.17163,305.077V238.73364l-33.0249-12.73291Z" transform="translate(-4.36062 -4.90279)"/></g><path id="Layer1_0_MEMBER_1_MEMBER_3_MEMBER_1_1_STROKES" data-name="Layer1 0 MEMBER 1 MEMBER 3 MEMBER 1 1 STROKES" class="cls-2" d="M605.14654,226.00679l33.02458,12.73281v66.3427" transform="translate(-4.36062 -4.90279)"/><path id="Layer1_0_MEMBER_1_MEMBER_4_MEMBER_0_1_STROKES" data-name="Layer1 0 MEMBER 1 MEMBER 4 MEMBER 0 1 STROKES" class="cls-2" d="M564.5997,210.33845l25.42895,9.7973" transform="translate(-4.36062 -4.90279)"/><path id="Layer1_0_MEMBER_1_MEMBER_5_MEMBER_0_1_STROKES" data-name="Layer1 0 MEMBER 1 MEMBER 5 MEMBER 0 1 STROKES" class="cls-2" d="M388.57875,142.30783,551.4633,205.238" transform="translate(-4.36062 -4.90279)"/><path id="Layer1_0_MEMBER_1_MEMBER_6_MEMBER_0_1_STROKES" data-name="Layer1 0 MEMBER 1 MEMBER 6 MEMBER 0 1 STROKES" class="cls-2" d="M360.8748,131.5932l12.109,4.69682" transform="translate(-4.36062 -4.90279)"/><g id="Layer1_0_MEMBER_1_MEMBER_7_MEMBER_0_FILL" data-name="Layer1 0 MEMBER 1 MEMBER 7 MEMBER 0 FILL"><path class="cls-1" d="M638.17163,576.94536,910.95729,682.33148v-228.569Z" transform="translate(-4.36062 -4.90279)"/></g><path id="Layer1_0_MEMBER_1_MEMBER_7_MEMBER_1_1_STROKES" data-name="Layer1 0 MEMBER 1 MEMBER 7 MEMBER 1 1 STROKES" class="cls-2" d="M910.95412,453.76625V682.333L638.17112,576.948" transform="translate(-4.36062 -4.90279)"/><g id="Layer1_0_MEMBER_1_MEMBER_8_MEMBER_0_FILL" data-name="Layer1 0 MEMBER 1 MEMBER 8 MEMBER 0 FILL"><path class="cls-1" d="M910.95729,441.54326V146.00706L551.4629,7.08231V205.23172Z" transform="translate(-4.36062 -4.90279)"/></g><path id="Layer1_0_MEMBER_1_MEMBER_8_MEMBER_1_1_STROKES" data-name="Layer1 0 MEMBER 1 MEMBER 8 MEMBER 1 1 STROKES" class="cls-2" d="M551.4633,205.238V7.09055L910.95412,146.01393V441.54719" transform="translate(-4.36062 -4.90279)"/><path id="Layer1_0_MEMBER_1_MEMBER_9_MEMBER_0_1_STROKES" data-name="Layer1 0 MEMBER 1 MEMBER 9 MEMBER 0 1 STROKES" class="cls-2" d="M399.36675,615.47662,923.39339,437.32738" transform="translate(-4.36062 -4.90279)"/><path id="Layer1_0_MEMBER_1_MEMBER_10_MEMBER_0_1_STROKES" data-name="Layer1 0 MEMBER 1 MEMBER 10 MEMBER 0 1 STROKES" class="cls-2" d="M290.01872,423.42036,667.41625,295.10153" transform="translate(-4.36062 -4.90279)"/><path id="Layer1_0_MEMBER_1_MEMBER_11_MEMBER_0_1_STROKES" data-name="Layer1 0 MEMBER 1 MEMBER 11 MEMBER 0 1 STROKES" class="cls-2" d="M411.76931,280.71749,789.2035,152.43537" transform="translate(-4.36062 -4.90279)"/><path id="Layer1_0_MEMBER_1_MEMBER_12_MEMBER_0_1_STROKES" data-name="Layer1 0 MEMBER 1 MEMBER 12 MEMBER 0 1 STROKES" class="cls-2" d="M466.88369,553.42712l231.24539-78.6352" transform="translate(-4.36062 -4.90279)"/><path id="Layer1_0_MEMBER_1_MEMBER_13_MEMBER_0_1_STROKES" data-name="Layer1 0 MEMBER 1 MEMBER 13 MEMBER 0 1 STROKES" class="cls-2" d="M463.61792,234.99681l180.6077-61.389" transform="translate(-4.36062 -4.90279)"/><path id="Layer1_0_MEMBER_1_MEMBER_14_MEMBER_0_1_STROKES" data-name="Layer1 0 MEMBER 1 MEMBER 14 MEMBER 0 1 STROKES" class="cls-2" d="M278.64359,181.13006V298.00037" transform="translate(-4.36062 -4.90279)"/><path id="Layer1_0_MEMBER_1_MEMBER_15_MEMBER_0_1_STROKES" data-name="Layer1 0 MEMBER 1 MEMBER 15 MEMBER 0 1 STROKES" class="cls-2" d="M278.64359,159.44392v8.58639" transform="translate(-4.36062 -4.90279)"/><g id="Layer1_0_MEMBER_1_MEMBER_16_MEMBER_0_FILL" data-name="Layer1 0 MEMBER 1 MEMBER 16 MEMBER 0 FILL"><path class="cls-1" d="M345.094,125.49493,278.64051,99.84559v47.99619l-5.1372,1.87141Z" transform="translate(-4.36062 -4.90279)"/></g><path id="Layer1_0_MEMBER_1_MEMBER_16_MEMBER_1_1_STROKES" data-name="Layer1 0 MEMBER 1 MEMBER 16 MEMBER 1 1 STROKES" class="cls-2" d="M113.77758,204.284l231.31881-78.782-66.4528-25.64908v47.99571" transform="translate(-4.36062 -4.90279)"/><path id="Layer1_0_MEMBER_1_MEMBER_17_MEMBER_0_1_STROKES" data-name="Layer1 0 MEMBER 1 MEMBER 17 MEMBER 0 1 STROKES" class="cls-2" d="M229.14344,185.20308l192.75343-65.53542" transform="translate(-4.36062 -4.90279)"/><g id="Layer1_0_MEMBER_2_MEMBER_0_MEMBER_0_FILL" data-name="Layer1 0 MEMBER 2 MEMBER 0 MEMBER 0 FILL"><path class="cls-3" d="M394.37441,443.56145l-12.76955,4.40332-1.46778,67.88453,10.89811-3.74285-.03655-18.1637,23.99806-8.25623,11.33852,14.3108,11.11831-3.85291-43.07912-52.583m-3.15575,10.75142q3.70617,5.39409,11.37525,15.30156l6.56843,8.3296-18.27389,6.27472.25693-10.678q.07311-4.03641-.11019-9.57721-.22011-6.34812-.33021-9.50385Z" transform="translate(-4.36062 -4.90279)"/></g><g id="Layer1_0_MEMBER_2_MEMBER_0_MEMBER_1_FILL" data-name="Layer1 0 MEMBER 2 MEMBER 0 MEMBER 1 FILL"><path class="cls-3" d="M467.6898,446.3869l8.47625-2.89886-2.64188-7.6324-8.47643,2.89882-.73389-2.16493q-1.43114-4.14645-.91736-6.27477.58724-2.31171,3.70617-3.41254a23.27273,23.27273,0,0,1,3.08229-.77058l-2.60534-7.63244a21.28944,21.28944,0,0,0-5.284,1.13752q-7.77918,2.6787-9.39378,7.8526-1.39431,4.29319,1.24757,11.96234l.95409,2.71539-15.37489,5.284-.73389-2.12829q-1.43113-4.14637-.91736-6.27472.58723-2.34846,3.70617-3.44927a23.27234,23.27234,0,0,1,3.08229-.77058l-2.64207-7.63244a19.277,19.277,0,0,0-5.24722,1.17425q-7.77918,2.642-9.39378,7.81587-1.39431,4.29325,1.24757,11.96239l.95409,2.75207-6.89847,2.3484,2.60534,7.63244,6.89846-2.34844,12.10913,35.18987,9.98093-3.41259-12.10913-35.18983,15.33816-5.284L469.818,485.02605l9.98093-3.41259L467.6898,446.3869m4.5868-29.61231,3.44923,10.05421,9.98075-3.41255-3.486-10.05425-9.944,3.41259m15.962,14.01722-9.98093,3.41259,14.7512,42.859,9.944-3.41255Z" transform="translate(-4.36062 -4.90279)"/></g><g id="Layer1_0_MEMBER_2_MEMBER_0_MEMBER_2_FILL" data-name="Layer1 0 MEMBER 2 MEMBER 0 MEMBER 2 FILL"><path class="cls-3" d="M545.99548,441.94689l-10.12767,3.486a11.24493,11.24493,0,0,1-.62388,7.37555,8.65951,8.65951,0,0,1-5.284,4.29322,8.933,8.933,0,0,1-8.84337-1.61452q-4.14639-3.15574-6.49479-10.01757-2.3484-6.78848-1.02755-11.63209a9.14085,9.14085,0,0,1,6.0913-6.605,8.5992,8.5992,0,0,1,6.67844.11006,10.75528,10.75528,0,0,1,4.84355,5.284l10.2745-3.52264q-2.97233-7.22884-9.35715-9.8341-6.56816-2.67864-15.00794.18347-9.43016,3.2658-12.843,11.522-3.3756,8.07273.11019,18.20038,3.55916,10.34783,11.11831,14.60436,7.70582,4.29327,17.20961,1.02742,8.403-2.89882,11.889-8.9167T545.99548,441.94689Z" transform="translate(-4.36062 -4.90279)"/></g><g id="Layer1_0_MEMBER_2_MEMBER_0_MEMBER_3_FILL" data-name="Layer1 0 MEMBER 2 MEMBER 0 MEMBER 3 FILL"><path class="cls-3" d="M556.30654,413.32531l-7.81592-22.75049-9.9442,3.41255,20.69566,60.28881,9.98084-3.41259-7.44887-21.68634q-2.56853-7.48563-1.28431-11.85225,1.21089-4.18314,6.05457-5.83441,4.69694-1.61455,7.74245,1.43109,2.23835,2.23835,4.21985,7.99934l8.21958,23.92474,9.98085-3.44928-8.4397-24.54852a53.13762,53.13762,0,0,0-3.15575-7.7425,13.85462,13.85462,0,0,0-3.81618-4.73358q-6.018-4.44-14.23742-1.61456Q558.3981,405.72959,556.30654,413.32531Z" transform="translate(-4.36062 -4.90279)"/></g><g id="Layer1_0_MEMBER_2_MEMBER_0_MEMBER_4_FILL" data-name="Layer1 0 MEMBER 2 MEMBER 0 MEMBER 4 FILL"><path class="cls-3" d="M641.21728,411.82085l-10.53134,3.596q.11006,7.41233-6.78846,9.76069a10.24029,10.24029,0,0,1-9.10012-.69716q-3.81623-2.34847-5.94455-7.9627l30.493-10.45788a53.2624,53.2624,0,0,0-3.88964-8.88,26.56979,26.56979,0,0,0-5.284-6.64166,17.30641,17.30641,0,0,0-8.51307-4.21985,21.1711,21.1711,0,0,0-10.86156,1.02741q-9.57715,3.30249-13.17323,11.66882-3.48591,8.14617-.1101,17.98023,3.66948,10.71474,11.0083,14.82452,7.55907,4.21981,17.79676.69715,7.88924-2.71531,11.70545-7.85255a18.17336,18.17336,0,0,0,3.19248-12.843M620.595,395.12493q3.85278,1.9448,6.0913,7.11867l-20.5121,7.04533q-1.43113-5.46746.51369-9.35705a10.02334,10.02334,0,0,1,6.09129-5.17389A9.61741,9.61741,0,0,1,620.595,395.12493Z" transform="translate(-4.36062 -4.90279)"/></g><g id="Layer1_0_MEMBER_2_MEMBER_0_MEMBER_5_FILL" data-name="Layer1 0 MEMBER 2 MEMBER 0 MEMBER 5 FILL"><path class="cls-3" d="M657.10586,379.41974q4.07314-1.43108,6.605-.40363,2.60547,1.02739,4.07311,4.73358l9.87074-3.4126q-2.42178-7.00859-8.29287-9.06348-5.79777-2.05491-14.38416.88063-8.18286,2.82552-11.81565,8.03607a11.77285,11.77285,0,0,0-1.57778,11.08171,10.83021,10.83021,0,0,0,8.43969,7.559q3.59612.77052,11.9623-.03669a39.36827,39.36827,0,0,1,8.03612-.2202q3.5961.55041,4.58679,3.41259a4.80873,4.80873,0,0,1-.77062,4.66017,10.54042,10.54042,0,0,1-5.21058,3.33922q-9.13693,3.15567-11.77891-4.5868L646.648,408.922q2.67872,7.22877,8.95347,9.32037,6.20131,2.09154,15.41163-1.06414,8.43978-2.89889,12.0724-8.10944a12.07623,12.07623,0,0,0,1.54114-11.44866,10.60731,10.60731,0,0,0-7.192-7.1554q-3.5961-1.10082-10.64135-.62378a73.432,73.432,0,0,1-9.6139.477q-4.55021-.4036-5.57761-3.44924a4.36167,4.36167,0,0,1,.69724-4.29326A9.73773,9.73773,0,0,1,657.10586,379.41974Z" transform="translate(-4.36062 -4.90279)"/></g></svg>