<svg id="Layer_1" data-name="Layer 1" xmlns="http://www.w3.org/2000/svg" viewBox="0 0 950.85675 576.84784"><defs><style>.cls-1{fill:#fff;}.cls-2{fill:none;stroke:#0e57e7;stroke-miterlimit:9.9999;stroke-width:2.99997px;}.cls-3{fill:#215bdf;}</style></defs><g id="Layer1_1_MEMBER_0_MEMBER_0_FILL" data-name="Layer1 1 MEMBER 0 MEMBER 0 FILL"><path class="cls-1" d="M950.30419,345.43826,863.52208,278.838l86.78211-20.7323L618.66085,4.95151,7.33321,64.433,93.4548,130.18927,7.33321,150.8115,95.95,218.47586l-2.4585-.88067L7.33321,238.144l87.77284,67.00384-1.61452-.22015L7.33321,325.47653l331.6067,253.15424,611.36428-145.86L863.2286,366.3173Z" transform="translate(-3.35596 -3.42552)"/></g><path id="Layer1_1_MEMBER_0_MEMBER_1_1_STROKES" data-name="Layer1 1 MEMBER 0 MEMBER 1 1 STROKES" class="cls-2" d="M150.626,173.8779,7.29933,64.45647,618.62089,4.97555,950.261,258.12727,338.90277,317.60819" transform="translate(-3.35596 -3.42552)"/><path id="Layer1_1_MEMBER_0_MEMBER_2_1_STROKES" data-name="Layer1 1 MEMBER 0 MEMBER 2 1 STROKES" class="cls-2" d="M863.07616,278.93273l87.18487,66.5262L338.90277,403.98581" transform="translate(-3.35596 -3.42552)"/><path id="Layer1_1_MEMBER_0_MEMBER_3_1_STROKES" data-name="Layer1 1 MEMBER 0 MEMBER 3 1 STROKES" class="cls-2" d="M150.626,347.58714,7.29933,238.16574l86.15745-20.54862" transform="translate(-3.35596 -3.42552)"/><path id="Layer1_1_MEMBER_0_MEMBER_4_1_STROKES" data-name="Layer1 1 MEMBER 0 MEMBER 4 1 STROKES" class="cls-2" d="M950.261,345.45893,338.90277,491.31747" transform="translate(-3.35596 -3.42552)"/><path id="Layer1_1_MEMBER_0_MEMBER_5_1_STROKES" data-name="Layer1 1 MEMBER 0 MEMBER 5 1 STROKES" class="cls-2" d="M863.07616,366.26439,950.261,432.79058,338.90277,491.31747" transform="translate(-3.35596 -3.42552)"/><path id="Layer1_1_MEMBER_0_MEMBER_6_1_STROKES" data-name="Layer1 1 MEMBER 0 MEMBER 6 1 STROKES" class="cls-2" d="M950.261,432.79058,338.90277,578.64912,7.29933,325.4974l86.15745-20.54863" transform="translate(-3.35596 -3.42552)"/><path id="Layer1_1_MEMBER_0_MEMBER_7_1_STROKES" data-name="Layer1 1 MEMBER 0 MEMBER 7 1 STROKES" class="cls-2" d="M150.626,260.25549,7.29933,150.83409l86.15745-20.54863" transform="translate(-3.35596 -3.42552)"/><path id="Layer1_1_MEMBER_0_MEMBER_8_1_STROKES" data-name="Layer1 1 MEMBER 0 MEMBER 8 1 STROKES" class="cls-2" d="M950.261,258.12727,338.90277,403.98581" transform="translate(-3.35596 -3.42552)"/><g id="Layer1_1_MEMBER_1_MEMBER_0_FILL" data-name="Layer1 1 MEMBER 1 MEMBER 0 FILL"><path class="cls-3" d="M320.2258,154.591q-5.68771-2.60534-17.87013-1.43109L282.94441,155.068l6.27467,63.44452,19.04442-1.87141a73.92218,73.92218,0,0,0,9.76064-1.46777,25.72532,25.72532,0,0,0,7.449-2.86218q8.51316-5.284,7.449-15.66846a14.486,14.486,0,0,0-4.36668-9.68731q-3.706-3.44931-10.20095-3.85291v-.29357a15.11575,15.11575,0,0,0,8.29287-6.12794,14.2833,14.2833,0,0,0,2.05491-9.43045q-.844-8.9901-8.47642-12.65954m-7.00857,8.14614q4.29327,1.61454,4.80691,6.97193a7.64105,7.64105,0,0,1-4.14648,8.03607,24.33584,24.33584,0,0,1-9.2836,2.38513l-7.88928.77057L294.94344,162.994l8.21949-.80726q6.82509-.66051,10.0543.55041m-15.63182,27.0804,8.036-.80726q7.81587-.7706,11.33861.73389,4.1097,1.72461,4.62343,7.15539.55027,5.50416-3.66943,8.10944-3.19243,1.98155-10.01749,2.67871l-8.47642.80725Z" transform="translate(-3.35596 -3.42552)"/></g><g id="Layer1_1_MEMBER_1_MEMBER_1_FILL" data-name="Layer1 1 MEMBER 1 MEMBER 1 FILL"><path class="cls-3" d="M354.24143,179.61655q2.38509-4.51338,8.69663-5.17389a23.77471,23.77471,0,0,1,4.58679,0l-.88072-9.10022a25.173,25.173,0,0,0-5.0271.0734q-7.63232.7706-11.26515,8.32962l-.66051-6.71509-9.87074.954,4.44,45.09735,10.49461-1.02742-1.94482-19.74157Q351.9665,183.87306,354.24143,179.61655Z" transform="translate(-3.35596 -3.42552)"/></g><g id="Layer1_1_MEMBER_1_MEMBER_2_FILL" data-name="Layer1 1 MEMBER 1 MEMBER 2 FILL"><path class="cls-3" d="M409.50313,166.51667q-6.7884-5.94451-17.09959-4.91705-10.23765.99077-15.74184,8.14614-5.46745,7.11872-4.40332,17.83344,1.06414,10.75145,7.74254,16.62255,6.75159,5.94451,16.98941,4.917,10.38452-1.02746,15.88866-8.14617,5.46761-7.082,4.40333-17.83343-1.06415-10.71475-7.77919-16.62253m-24.43846,8.18283a9.90235,9.90235,0,0,1,8.10948-5.06384,10.067,10.067,0,0,1,8.99012,3.37591q3.44922,3.88959,4.18312,11.19177.73383,7.33889-1.94473,11.81556a10.16534,10.16534,0,0,1-8.21959,5.06384,9.76947,9.76947,0,0,1-8.88-3.44928q-3.376-3.88959-4.10975-11.15509Q382.45948,179.13948,385.06467,174.6995Z" transform="translate(-3.35596 -3.42552)"/></g><g id="Layer1_1_MEMBER_1_MEMBER_3_FILL" data-name="Layer1 1 MEMBER 1 MEMBER 3 FILL"><path class="cls-3" d="M465.82894,185.04728l-10.67809,1.06415a11.05891,11.05891,0,0,1-2.3484,7.04534,8.58323,8.58323,0,0,1-6.0913,2.97223,8.97817,8.97817,0,0,1-8.21949-3.63275q-3.30249-4.03639-4.03638-11.22846-.69716-7.15539,1.72471-11.5954a8.9345,8.9345,0,0,1,7.41215-5.02715,8.69892,8.69892,0,0,1,6.495,1.688,10.65894,10.65894,0,0,1,3.486,6.238l10.82483-1.0641q-1.211-7.74249-6.86192-11.74221-5.79764-4.10978-14.641-3.2291-9.94429.99075-15.15478,8.21954-5.13729,7.082-4.073,17.76007,1.064,10.82481,7.44888,16.73261,6.45824,5.98113,16.47572,4.99042,8.84346-.88065,13.65037-5.94446Q466.01232,193.26681,465.82894,185.04728Z" transform="translate(-3.35596 -3.42552)"/></g><g id="Layer1_1_MEMBER_1_MEMBER_4_FILL" data-name="Layer1 1 MEMBER 1 MEMBER 4 FILL"><path class="cls-3" d="M512.72423,170.36955a57.48545,57.48545,0,0,0-1.2843-8.2562,13.43525,13.43525,0,0,0-2.64189-5.46747q-4.807-5.72433-13.43016-4.84366-9.17349.91734-12.91648,7.77921l-2.3484-23.92471-10.49462,1.02746,6.238,63.44451,10.49462-1.02746-2.23839-22.82386q-.77053-7.88929,1.46777-11.85228,2.16511-3.74283,7.26559-4.25654,4.95374-.51377,7.22867,3.15571,1.65124,2.71537,2.23839,8.76995l2.49533,25.17231,10.45788-1.02746Z" transform="translate(-3.35596 -3.42552)"/></g><g id="Layer1_1_MEMBER_1_MEMBER_5_FILL" data-name="Layer1 1 MEMBER 1 MEMBER 5 FILL"><path class="cls-3" d="M561.23421,146.188l-10.49461,1.02743,2.27512,22.89728q.77052,7.81593-1.65125,11.889a8.60478,8.60478,0,0,1-7.08211,4.21985q-4.99029.51373-7.30214-3.19243-1.6878-2.71533-2.27494-8.73323l-2.45859-25.24572-10.42116,1.02746,2.53188,25.57593a59.22575,59.22575,0,0,0,1.321,8.403,13.83524,13.83524,0,0,0,2.71534,5.61426q5.02711,5.65089,13.3567,4.84363a19.1989,19.1989,0,0,0,7.63253-2.31176,15.65662,15.65662,0,0,0,5.94438-5.83436l.58714,5.87109,9.76073-.95409Z" transform="translate(-3.35596 -3.42552)"/></g><g id="Layer1_1_MEMBER_1_MEMBER_6_FILL" data-name="Layer1 1 MEMBER 1 MEMBER 6 FILL"><path class="cls-3" d="M583.838,150.7381l-.66061-6.71506-9.87074.954,4.44005,45.09734,10.49462-1.02745-1.94491-19.74153q-.8439-8.43975,1.43123-12.69625,2.38521-4.51341,8.69645-5.17392a23.81,23.81,0,0,1,4.58679,0l-.88063-9.10019a25.15948,25.15948,0,0,0-5.0272.07339Q587.47058,143.179,583.838,150.7381Z" transform="translate(-3.35596 -3.42552)"/></g><g id="Layer1_1_MEMBER_1_MEMBER_7_FILL" data-name="Layer1 1 MEMBER 1 MEMBER 7 FILL"><path class="cls-3" d="M647.2457,153.85712a26.16814,26.16814,0,0,0-3.596-7.66912,17.72515,17.72515,0,0,0-7.30214-6.09126,21.08507,21.08507,0,0,0-10.82483-1.46777q-10.05448.99075-15.48508,8.29291-5.284,7.11872-4.29331,17.46652,1.13764,11.26516,7.30232,16.95277,6.38487,5.87106,17.17287,4.80694,8.293-.80727,13.17324-4.95373a18.33377,18.33377,0,0,0,6.09129-11.77887l-11.11831,1.10083q-1.54133,7.22883-8.84337,7.926a10.07939,10.07939,0,0,1-8.6599-2.78876q-3.15575-3.15567-3.96292-9.10019l32.07082-3.1557a51.97028,51.97028,0,0,0-1.72471-9.54053m-21.50292-7.59573a9.73942,9.73942,0,0,1,7.52234,2.165q3.26595,2.78874,4.29331,8.3296l-21.61293,2.12829q-.11019-5.651,2.64189-8.99011A10.06527,10.06527,0,0,1,625.74278,146.26139Z" transform="translate(-3.35596 -3.42552)"/></g><g id="Layer1_1_MEMBER_1_MEMBER_8_FILL" data-name="Layer1 1 MEMBER 1 MEMBER 8 FILL"><path class="cls-3" d="M679.4267,153.93051a75.98771,75.98771,0,0,1-9.46724-1.72463q-4.32995-1.46775-4.66007-4.6235a4.49067,4.49067,0,0,1,1.688-4.03638,9.76321,9.76321,0,0,1,5.394-1.98148q4.29314-.40368,6.5317,1.13751,2.275,1.57788,2.86209,5.54086l10.42115-1.02746q-.734-7.33888-5.9811-10.71473-5.17411-3.33919-14.20078-2.45852-8.62335.844-13.35671,5.1005a11.61031,11.61031,0,0,0-4.10983,10.38451,10.90429,10.90429,0,0,0,6.495,9.32035q3.30249,1.57788,11.66872,2.75208a38.61662,38.61662,0,0,1,7.85274,1.57785q3.37586,1.3577,3.66943,4.40332a4.7257,4.7257,0,0,1-1.83472,4.32995,10.85414,10.85414,0,0,1-5.83454,2.09156q-9.61372.95409-10.42116-7.19208l-10.75137,1.06414q.95409,7.63238,6.56826,11.11836t15.26487,2.53192q8.87974-.88065,13.61364-5.10052a12.097,12.097,0,0,0,4.14639-10.78813,10.58647,10.58647,0,0,0-5.35741-8.62317Q686.39854,155.14141,679.4267,153.93051Z" transform="translate(-3.35596 -3.42552)"/></g></svg>