<svg id="Layer_1" data-name="Layer 1" xmlns="http://www.w3.org/2000/svg" viewBox="0 0 950.85675 576.84784"><defs><style>.cls-1{fill:#fff;}.cls-2{fill:none;stroke:#0e57e7;stroke-miterlimit:9.9999;stroke-width:2.99997px;}.cls-3{fill:#215bdf;}</style></defs><g id="Layer0_1_MEMBER_0_MEMBER_0_FILL" data-name="Layer0 1 MEMBER 0 MEMBER 0 FILL"><path class="cls-1" d="M951.93314,347.72566,865.151,281.12553l86.7821-20.7323L620.2898,7.239,8.96217,66.7205l86.12159,65.75624L8.96217,153.09894,97.579,220.76334l-2.4585-.91735L8.96217,240.43146,96.735,307.43535l-1.61451-.2202L8.96217,327.764,340.56886,580.91816l611.36428-145.86-87.07559-66.4533Z" transform="translate(-4.98492 -5.68323)"/></g><path id="Layer0_1_MEMBER_0_MEMBER_1_1_STROKES" data-name="Layer0 1 MEMBER 0 MEMBER 1 1 STROKES" class="cls-2" d="M152.25494,176.13561,8.92829,66.71418,620.24984,7.23326,951.89,260.385,340.53173,319.8659" transform="translate(-4.98492 -5.68323)"/><path id="Layer0_1_MEMBER_0_MEMBER_2_1_STROKES" data-name="Layer0 1 MEMBER 0 MEMBER 2 1 STROKES" class="cls-2" d="M864.70512,281.15376,951.89,347.71664,340.53173,406.24353" transform="translate(-4.98492 -5.68323)"/><path id="Layer0_1_MEMBER_0_MEMBER_3_1_STROKES" data-name="Layer0 1 MEMBER 0 MEMBER 3 1 STROKES" class="cls-2" d="M152.25494,349.84485,8.92829,240.42345l86.15745-20.5853" transform="translate(-4.98492 -5.68323)"/><path id="Layer0_1_MEMBER_0_MEMBER_4_1_STROKES" data-name="Layer0 1 MEMBER 0 MEMBER 4 1 STROKES" class="cls-2" d="M951.89,347.71664,340.53173,493.57518" transform="translate(-4.98492 -5.68323)"/><path id="Layer0_1_MEMBER_0_MEMBER_5_1_STROKES" data-name="Layer0 1 MEMBER 0 MEMBER 5 1 STROKES" class="cls-2" d="M864.70512,368.5221,951.89,435.04829,340.53173,493.57518" transform="translate(-4.98492 -5.68323)"/><path id="Layer0_1_MEMBER_0_MEMBER_6_1_STROKES" data-name="Layer0 1 MEMBER 0 MEMBER 6 1 STROKES" class="cls-2" d="M951.89,435.04829,340.53173,580.90683,8.92829,327.75511l86.15745-20.54863" transform="translate(-4.98492 -5.68323)"/><path id="Layer0_1_MEMBER_0_MEMBER_7_1_STROKES" data-name="Layer0 1 MEMBER 0 MEMBER 7 1 STROKES" class="cls-2" d="M152.25494,262.5132,8.92829,153.0918l86.15745-20.5853" transform="translate(-4.98492 -5.68323)"/><path id="Layer0_1_MEMBER_0_MEMBER_8_1_STROKES" data-name="Layer0 1 MEMBER 0 MEMBER 8 1 STROKES" class="cls-2" d="M951.89,260.385,340.53173,406.24353" transform="translate(-4.98492 -5.68323)"/><g id="Layer0_1_MEMBER_1_MEMBER_0_FILL" data-name="Layer0 1 MEMBER 1 MEMBER 0 FILL"><path class="cls-3" d="M419.75526,137.21036l-.88063-9.17358-40.73071,3.99964,6.238,63.44447,11.11832-1.10083-2.53188-25.686,27.52076-2.71535-.91736-9.17358L392.051,159.52044,390.143,140.10918Z" transform="translate(-4.98492 -5.68323)"/></g><g id="Layer0_1_MEMBER_1_MEMBER_1_FILL" data-name="Layer0 1 MEMBER 1 MEMBER 1 FILL"><path class="cls-3" d="M464.9993,147.37467q-6.78853-5.9445-17.09941-4.91709-10.23779,1.02745-15.70529,8.14621-5.46732,7.11858-4.40332,17.8334t7.74254,16.62255q6.75172,5.9445,16.95286,4.917,10.38452-1.02745,15.88857-8.14612,5.46734-7.082,4.40332-17.83339-1.064-10.7147-7.77927-16.62256m-16.29225,3.119a10.06667,10.06667,0,0,1,8.99012,3.37586q3.44922,3.88959,4.18311,11.19178.734,7.33881-1.94472,11.81555a10.16509,10.16509,0,0,1-8.2195,5.06384,9.85948,9.85948,0,0,1-8.91683-3.44923q-3.37586-3.88972-4.07293-11.1184-.734-7.33882,1.87127-11.81556A10.0134,10.0134,0,0,1,448.70705,150.49369Z" transform="translate(-4.98492 -5.68323)"/></g><g id="Layer0_1_MEMBER_1_MEMBER_2_FILL" data-name="Layer0 1 MEMBER 1 MEMBER 2 FILL"><path class="cls-3" d="M488.4104,121.17486l-10.45789,1.02746,6.238,63.44456,10.49461-1.02746Z" transform="translate(-4.98492 -5.68323)"/></g><g id="Layer0_1_MEMBER_1_MEMBER_3_FILL" data-name="Layer0 1 MEMBER 1 MEMBER 3 FILL"><path class="cls-3" d="M540.40616,116.03766l-10.49443,1.02746,2.3484,23.5211q-4.91718-5.61433-13.79711-4.73362a17.02132,17.02132,0,0,0-13.24669,7.70581q-4.55006,6.82523-3.52269,17.50327,1.10083,11.08167,6.89864,16.84266,5.72427,5.65089,14.49426,4.77027a17.32991,17.32991,0,0,0,7.63235-2.53188,15.53258,15.53258,0,0,0,5.46743-5.72435l.62387,6.01784,9.87074-.954-6.27477-63.44456m-26.08953,32.47448a9.32085,9.32085,0,0,1,7.55889-4.88027,9.14961,9.14961,0,0,1,8.25623,3.33913q3.30249,3.81636,3.99983,10.8982.69716,7.19221-1.87145,11.63218a9.3149,9.3149,0,0,1-7.55907,4.8069,9.07682,9.07682,0,0,1-8.2195-3.37586q-3.22938-3.81623-3.92636-10.93493Q511.82122,152.91546,514.31663,148.51214Z" transform="translate(-4.98492 -5.68323)"/></g></svg>