<svg xmlns="http://www.w3.org/2000/svg" viewBox="0 0 972.23457 634.76519"><path d="M268.38318,229.42466l2.49514,13.61363A176.70363,176.70363,0,0,1,272.7865,274.045q-1.57788,46.49166-31.26365,55.62856l-227.358,69.90271V479.5332l372.264,151.54761L983.40887,457.48005V388.568L821.88051,326.77475q15.142,5.4465,34.16246,3.99965a105.40564,105.40564,0,0,0,43.37278-13.06313q24.10806-13.28334,41.83154-38.01537,20.4019-28.47471,30.82324-70.26965-30.383,8.18285-77.425,15.99876-94.0476,15.59519-177.23364,13.61355,54.014-24.95224,80.69081-76.471Q831.75107,97.69212,815.459.01169Z" transform="translate(-12.62871 2.11622)" style="fill:#fff"/><path d="M318.24834,306.06442,14.12869,399.56065v79.95618l372.26036,151.5461L983.36329,457.46376v-68.9113L610.1856,245.73954" transform="translate(-12.62871 2.11622)" style="fill:none;stroke:#0e57e7;stroke-miterlimit:9.999900832772255;stroke-width:2.9999702498316765px"/><path d="M567.43712,270.76481v55.81155L14.12869,479.51683" transform="translate(-12.62871 2.11622)" style="fill:none;stroke:#0e57e7;stroke-miterlimit:9.999900832772255;stroke-width:2.9999702498316765px"/><path d="M845.13707,407.08292l138.22622,50.38084" transform="translate(-12.62871 2.11622)" style="fill:none;stroke:#0e57e7;stroke-miterlimit:9.999900832772255;stroke-width:2.9999702498316765px"/><path d="M820.66221,326.31949q15.55831,5.94447,35.33626,4.44a105.404,105.404,0,0,0,43.37231-13.063q24.108-13.28321,41.83113-38.01494,20.40177-28.47454,30.82294-70.269-30.38257,8.18277-77.42429,15.99856Q800.554,241.006,717.36868,239.02452q54.01356-24.95194,80.69006-76.47022Q831.70706,97.67936,815.415,0L268.34454,229.41073l2.49518,13.61345a176.69361,176.69361,0,0,1,1.90809,31.0064q-1.57785,46.49126-31.26327,55.62805" transform="translate(-12.62871 2.11622)" style="fill:none;stroke:#0e57e7;stroke-miterlimit:9.999900832772255;stroke-width:2.9999702498316765px"/><path d="M310.14126,365.37717q-1.65151-6.01788-5.94437-8.80664-4.25658-2.78862-10.71482-2.09156l-.07328-.25684a15.451,15.451,0,0,0,7.15539-7.449,14.41564,14.41564,0,0,0,.44023-9.65063q-2.38522-8.73325-10.49462-11.04494-6.09138-1.61455-17.8333,1.61452l-18.8243,5.17394,16.87939,61.463,18.45736-5.06384a78.3749,78.3749,0,0,0,9.39361-3.08238,26.39365,26.39365,0,0,0,6.86191-4.10974q7.44888-6.67836,4.6968-16.69593m-22.0166-15.41162q-2.82545,2.275-8.73318,3.92628l-7.63235,2.09165L267.02542,338.627l7.96274-2.20166q6.605-1.79813,9.98093-1.13756,4.51324.88071,5.90764,6.05456a7.66245,7.66245,0,0,1-2.75207,8.62317m-13.9804,14.6411,7.77909-2.12829q7.59562-2.05493,11.302-1.21093,4.32967,1.02732,5.7609,6.27476,1.46767,5.32072-2.27494,8.62317-2.82571,2.49528-9.39379,4.29322l-8.18294,2.275Z" transform="translate(-12.62871 2.11622)" style="fill:#215bdf"/><path d="M316.5995,340.27828q-4.18294,7.92593-1.321,18.31044,2.86227,10.42134,10.45788,15.08141,7.63245,4.73363,17.54,2.01819,10.05421-2.75208,14.27407-10.75146,4.21976-7.88924,1.35776-18.31044-2.86227-10.42121-10.49462-15.04468-7.70582-4.73361-17.68674-1.98154-9.90747,2.71553-14.12732,10.67808m9.28377,15.41162q-1.98155-7.082-.14692-11.96238a10.77713,10.77713,0,0,1,16.54919-4.51343q4.07328,3.22913,6.01783,10.31115,1.98154,7.08189.11019,11.96239a10.11529,10.11529,0,0,1-7.26558,6.38478,9.83883,9.83883,0,0,1-9.35706-1.87145Q327.82809,362.73529,325.88327,355.6899Z" transform="translate(-12.62871 2.11622)" style="fill:#215bdf"/><path d="M364.99929,344.93845q2.86227,10.42119,10.42134,15.0814,7.669,4.73349,17.57655,2.01819,10.05421-2.75193,14.27406-10.75146,4.18322-7.88924,1.321-18.31052-2.86226-10.38452-10.49461-15.04468-7.66926-4.73349-17.65-1.98146-9.944,2.71539-14.12731,10.67809-4.18295,7.88937-1.321,18.31044m10.56808-2.89882q-1.945-7.11872-.11019-11.96239a9.89875,9.89875,0,0,1,7.11884-6.34814,10.13458,10.13458,0,0,1,9.43034,1.83472q4.0362,3.22912,6.01784,10.31114,1.945,7.082.07346,11.9623a10.11214,10.11214,0,0,1-7.22886,6.42151,9.88849,9.88849,0,0,1-9.35706-1.90809Q377.47529,349.08488,375.56737,342.03963Z" transform="translate(-12.62871 2.11622)" style="fill:#215bdf"/><path d="M416.775,288.1356l-10.16423,2.7888,16.8794,61.463,10.16422-2.7888-5.94437-21.6863,21.94314,17.283,12.69627-3.486L437.17712,322.665l11.412-24.14489L436.48,301.8226l-9.87074,22.20007Z" transform="translate(-12.62871 2.11622)" style="fill:#215bdf"/><path d="M471.52306,298.777q4.18293-1.13737,6.605.03673,2.53168,1.1742,3.74271,4.95374l10.091-2.78881q-1.98156-7.1187-7.70581-9.57716-5.68772-2.42192-14.42081,0-8.32959,2.31171-12.2926,7.2654a11.7089,11.7089,0,0,0-2.27512,10.93493,10.99345,10.99345,0,0,0,7.96274,8.10949q3.5226.99063,11.92566.73388a37.68974,37.68974,0,0,1,8.036.25685q3.55941.77066,4.36659,3.70616a4.74183,4.74183,0,0,1-1.0641,4.58679,10.68546,10.68546,0,0,1-5.394,3.00892q-9.35679,2.6052-11.48544-5.32068l-10.42115,2.86218q2.23821,7.3755,8.32968,9.87074,6.12793,2.49514,15.4849-.1101,8.58654-2.3484,12.54954-7.30214a12.04938,12.04938,0,0,0,2.27494-11.30187,10.669,10.669,0,0,0-6.75172-7.63244q-3.48606-1.32094-10.53117-1.28431a72.79059,72.79059,0,0,1-9.65072-.14674q-4.5135-.69729-5.35741-3.7428a4.39741,4.39741,0,0,1,.95409-4.25658A9.86757,9.86757,0,0,1,471.52306,298.777Z" transform="translate(-12.62871 2.11622)" style="fill:#215bdf"/></svg>