<svg id="Layer_1" data-name="Layer 1" xmlns="http://www.w3.org/2000/svg" viewBox="0 0 972.27127 634.80202"><defs><style>.cls-1{fill:#fff;}.cls-2{fill:none;stroke:#0e57e7;stroke-miterlimit:9.9999;stroke-width:2.99997px;}.cls-3{fill:#215bdf;}</style></defs><g id="Layer1_1_MEMBER_0_MEMBER_0_FILL" data-name="Layer1 1 MEMBER 0 MEMBER 0 FILL"><path class="cls-1" d="M788.34812,166.74077q33.64869-64.87557,17.35635-162.5926l-547.03909,229.413,2.49514,13.61361a174.45112,174.45112,0,0,1,1.87145,31.04342q-1.57815,46.455-31.26365,55.59192L4.41018,403.7495v79.92023l372.264,151.58434L973.65451,461.61645V392.7412L812.93332,331.20477q14.8131,5.1166,33.35512,3.70616A105.4053,105.4053,0,0,0,889.661,321.84771q24.10834-13.28332,41.83155-37.97864,20.40245-28.47477,30.82324-70.26963-30.38249,8.18283-77.42505,15.99872-94.04733,15.59509-177.23364,13.61362Q761.67144,218.22292,788.34812,166.74077Z" transform="translate(-2.883 -1.99561)"/></g><path id="Layer1_1_MEMBER_0_MEMBER_1_1_STROKES" data-name="Layer1 1 MEMBER 0 MEMBER 1 1 STROKES" class="cls-2" d="M308.50261,310.17633,4.383,403.70928v79.91949L376.64333,635.21156l597.011-173.63591V392.70109l-373.21444-142.813" transform="translate(-2.883 -1.99561)"/><path id="Layer1_1_MEMBER_0_MEMBER_2_1_STROKES" data-name="Layer1 1 MEMBER 0 MEMBER 2 1 STROKES" class="cls-2" d="M557.69137,274.91344V330.725L4.383,483.62877" transform="translate(-2.883 -1.99561)"/><path id="Layer1_1_MEMBER_0_MEMBER_3_1_STROKES" data-name="Layer1 1 MEMBER 0 MEMBER 3 1 STROKES" class="cls-2" d="M835.39137,411.23154l138.22617,50.34411" transform="translate(-2.883 -1.99561)"/><path id="Layer1_1_MEMBER_0_MEMBER_4_1_STROKES" data-name="Layer1 1 MEMBER 0 MEMBER 4 1 STROKES" class="cls-2" d="M810.9532,330.43141q15.52151,5.94445,35.29957,4.44a105.40435,105.40435,0,0,0,43.37232-13.06307q24.10788-13.28322,41.83112-37.97827,20.40187-28.47453,30.82294-70.26895-30.38266,8.18275-77.42428,15.99859-94.0467,15.595-177.23188,13.61345,54.01347-24.98857,80.69-76.47025,33.64841-64.87492,17.35627-162.591L258.63552,233.52264l2.49519,13.61345a174.44562,174.44562,0,0,1,1.87138,31.04312q-1.57785,46.45459-31.26326,55.59137" transform="translate(-2.883 -1.99561)"/><g id="Layer1_1_MEMBER_1_MEMBER_0_FILL" data-name="Layer1 1 MEMBER 1 MEMBER 0 FILL"><path class="cls-3" d="M439.89867,312.60076q-5.50416-19.88832-21.94332-23.11743-7.669-1.50444-18.34717,1.3944l-17.98023,4.917,16.8794,61.49975,19.228-5.284a36.6735,36.6735,0,0,0,13.43-6.56829,26.443,26.443,0,0,0,7.77927-10.01757,28.71729,28.71729,0,0,0,2.45859-10.86152,40.533,40.533,0,0,0-1.5045-11.96234m-23.92478-13.17328a15.53005,15.53005,0,0,1,7.85255,5.61425,32.07507,32.07507,0,0,1,4.95374,10.8982q3.19256,11.522-1.35759,18.64074-3.96309,6.31143-13.98058,9.06349l-6.605,1.798-11.99912-43.70295,6.67845-1.83471Q410.24963,297.55606,415.97389,299.42748Z" transform="translate(-2.883 -1.99561)"/></g><g id="Layer1_1_MEMBER_1_MEMBER_1_FILL" data-name="Layer1 1 MEMBER 1 MEMBER 1 FILL"><path class="cls-3" d="M464.37368,290.9511q-9.94429,2.71539-14.16387,10.678-4.14666,7.926-1.2843,18.31048,2.862,10.4212,10.42115,15.118,7.669,4.69688,17.57656,1.98151,10.05447-2.75208,14.27406-10.75142,4.1832-7.8893,1.321-18.31048-2.862-10.38452-10.49462-15.04468-7.669-4.73362-17.65-1.9815m-4.99028,14.164a9.99393,9.99393,0,0,1,7.11866-6.38482,10.13483,10.13483,0,0,1,9.43034,1.83472q4.0362,3.22911,6.018,10.31114,1.94446,7.11864.07328,11.999A10.11452,10.11452,0,0,1,474.795,329.26a9.8885,9.8885,0,0,1-9.35706-1.90813q-4.0362-3.26574-5.94455-10.3111Q457.54868,309.95881,459.3834,305.1151Z" transform="translate(-2.883 -1.99561)"/></g><g id="Layer1_1_MEMBER_1_MEMBER_2_FILL" data-name="Layer1 1 MEMBER 1 MEMBER 2 FILL"><path class="cls-3" d="M525.4332,278.14477q-5.68745-2.42178-14.421,0-8.36642,2.31171-12.2926,7.26549a11.71026,11.71026,0,0,0-2.275,10.93489,10.91624,10.91624,0,0,0,7.96257,8.10948q3.52287.9907,11.92566.73389a37.68021,37.68021,0,0,1,8.036.25684q3.55969.7706,4.36677,3.70612a4.70077,4.70077,0,0,1-1.10083,4.58679,10.47932,10.47932,0,0,1-5.39414,3.009q-9.28368,2.60528-11.48525-5.32067l-10.38461,2.86213q2.23848,7.37558,8.32969,9.87078t15.44835-.07337q8.62335-2.38515,12.58608-7.33887a11.9717,11.9717,0,0,0,2.23839-11.30187,10.67244,10.67244,0,0,0-6.71517-7.63244q-3.5226-1.321-10.56789-1.2843a72.79144,72.79144,0,0,1-9.65054-.14674q-4.51351-.69723-5.35741-3.74285a4.47357,4.47357,0,0,1,.99064-4.25653,9.84787,9.84787,0,0,1,4.99046-2.86218q4.18322-1.13751,6.64171.03673,2.532,1.1742,3.7429,4.95373L533.139,287.722Q531.15747,280.60334,525.4332,278.14477Z" transform="translate(-2.883 -1.99561)"/></g><g id="Layer1_1_MEMBER_2_MEMBER_0_FILL" data-name="Layer1 1 MEMBER 2 MEMBER 0 FILL"><path class="cls-3" d="M593.02406,315.24273q-2.16485-7.88931,1.578-18.09028,3.77926-10.27438,10.53117-14.93462,6.82536-4.73356,14.20078-2.01819a13.70929,13.70929,0,0,1,8.036,6.93524,15.95824,15.95824,0,0,1,.88063,11.08172l10.71482,3.92627q2.82518-9.90747-1.688-18.20038T622.453,271.87a26.07569,26.07569,0,0,0-22.934,1.83472q-10.75164,6.12793-15.77857,19.925-5.284,14.42085-.88062,25.35578,4.29312,10.678,16.62246,15.19146,10.64145,3.88959,19.6682.11006,8.43978-3.55935,13.21-12.7696l-10.97157-4.03638q-3.11893,5.98113-7.99947,8.2195a13.89761,13.89761,0,0,1-10.86156.14678A14.70149,14.70149,0,0,1,593.02406,315.24273Z" transform="translate(-2.883 -1.99561)"/></g><g id="Layer1_1_MEMBER_2_MEMBER_1_FILL" data-name="Layer1 1 MEMBER 2 MEMBER 1 FILL"><path class="cls-3" d="M667.10989,307.94059q-9.65028-3.52266-17.68656.51369-7.99957,4.0364-11.70546,14.16405-3.70617,10.16433-.25693,18.34717,3.5226,8.2929,13.17323,11.81555,9.76072,3.59606,17.87021-.477,7.99929-3.99964,11.70546-14.12732,3.70589-10.16433.18347-18.38385-3.5226-8.29292-13.28342-11.85225m-19.08106,18.45723q2.532-6.89847,6.82519-9.79737a10.80894,10.80894,0,0,1,16.1455,5.87109q1.43114,4.99043-1.10083,11.92566-2.53168,6.89847-6.86173,9.79737a10.2072,10.2072,0,0,1-9.614.99078,9.85536,9.85536,0,0,1-6.53152-6.97193Q645.53343,333.25969,648.02883,326.39782Z" transform="translate(-2.883 -1.99561)"/></g><g id="Layer1_1_MEMBER_2_MEMBER_2_FILL" data-name="Layer1 1 MEMBER 2 MEMBER 2 FILL"><path class="cls-3" d="M712.8678,306.36272,702.96033,302.73l-21.86986,59.88518,9.87074,3.596Z" transform="translate(-2.883 -1.99561)"/></g><g id="Layer1_1_MEMBER_2_MEMBER_3_FILL" data-name="Layer1 1 MEMBER 2 MEMBER 3 FILL"><path class="cls-3" d="M734.15051,314.1419l-9.90747-3.6327-21.90659,59.88514,9.90747,3.59606Z" transform="translate(-2.883 -1.99561)"/></g><g id="Layer1_1_MEMBER_2_MEMBER_4_FILL" data-name="Layer1 1 MEMBER 2 MEMBER 4 FILL"><path class="cls-3" d="M768.1295,373.58673a51.20427,51.20427,0,0,0,2.56861-9.32033,26.75587,26.75587,0,0,0,.11-8.47643,17.37856,17.37856,0,0,0-3.92619-8.65985,21.19781,21.19781,0,0,0-9.137-6.05457q-9.467-3.44924-17.57655.77057-7.85256,4.10977-11.412,13.87048-3.88972,10.64137-.77044,18.45727,3.1923,8.07273,13.35671,11.77887,7.816,2.86214,14.01713,1.24762a18.44621,18.44621,0,0,0,10.6048-7.9627L755.47,375.42144q-4.47669,5.83438-11.37525,3.30249a10.25665,10.25665,0,0,1-6.64171-6.27472q-1.46767-4.21989.40367-9.94416l30.27283,11.08168M746.62659,348.231a10.07223,10.07223,0,0,1,7.99929-.14679,9.60122,9.60122,0,0,1,5.83454,5.21062q1.76117,3.92628.25675,9.35706l-20.36535-7.449q2.3484-5.13723,6.27477-6.97192m30.82324-18.27375-10.75137-3.92633-11.44871,8.07276,7.9993,2.93555Z" transform="translate(-2.883 -1.99561)"/></g><g id="Layer1_1_MEMBER_2_MEMBER_5_FILL" data-name="Layer1 1 MEMBER 2 MEMBER 5 FILL"><path class="cls-3" d="M782.11008,384.118l-10.12767-3.70612q-2.45859,7.3022,1.10083,12.8797,3.5226,5.54084,12.62281,8.88,8.40324,3.08238,14.49427,1.321a11.952,11.952,0,0,0,8.403-7.88928,10.755,10.755,0,0,0-1.10083-10.12763q-2.05491-3.0823-7.81582-7.1554a73.84868,73.84868,0,0,1-7.77927-5.7243q-3.30249-3.15569-2.20166-6.16467a4.47466,4.47466,0,0,1,3.30249-2.89882,9.5482,9.5482,0,0,1,5.68762.5871q4.0362,1.46783,5.39414,3.85291,1.3575,2.42177.18347,6.20135l9.79728,3.596q2.532-6.93522-.69715-12.25592-3.22912-5.24728-11.74219-8.36628-8.146-2.97225-14.23733-1.21093a11.7267,11.7267,0,0,0-8.2195,7.59575,10.89038,10.89038,0,0,0,1.798,11.19178q2.3484,2.93556,9.32032,7.52233a41.10525,41.10525,0,0,1,6.38478,4.84364q2.45859,2.71531,1.3945,5.57752a4.79792,4.79792,0,0,1-3.5227,3.119,10.43376,10.43376,0,0,1-6.16475-.66047Q779.32137,391.82384,782.11008,384.118Z" transform="translate(-2.883 -1.99561)"/></g></svg>