<svg width="261" height="262" viewBox="0 0 261 262" fill="none" xmlns="http://www.w3.org/2000/svg">
<g clip-path="url(#clip0)">
<path d="M258.04 202.616C259.481 227.283 205.59 250.497 137.674 254.464C69.7578 258.431 13.5326 241.649 12.0918 216.983C10.6508 192.314 64.5395 169.096 132.456 165.129C200.372 161.162 256.599 177.948 258.04 202.616Z" fill="white" stroke="#215BDF" stroke-miterlimit="10"/>
<path d="M233.187 12.4843L245.654 30.6813C259.698 51.1873 221.349 100.538 159.998 140.917C98.6495 181.303 37.5383 197.412 23.4953 176.917L11.0349 158.719" fill="white"/>
<path d="M233.187 12.4843L245.654 30.6813C259.698 51.1873 221.349 100.538 159.998 140.917C98.6495 181.303 37.5383 197.412 23.4953 176.917L11.0349 158.719" stroke="#215BDF" stroke-miterlimit="10"/>
<path d="M233.187 12.4851C247.229 32.9913 208.88 82.3397 147.533 122.721C86.1866 163.103 25.0736 179.216 11.0348 158.72C-3.00874 138.216 35.34 88.8635 96.6886 48.4819C158.037 8.10025 219.15 -8.01287 233.187 12.4851Z" fill="white" stroke="#215BDF" stroke-miterlimit="10"/>
<path d="M78.1225 187.576V205H83.1625C85.4665 205 87.0505 204.592 88.4185 203.656C90.6265 202.12 91.9465 199.48 91.9465 196.288C91.9465 193.096 90.7705 190.384 88.5625 188.848C87.1945 187.912 85.4665 187.576 83.1625 187.576H78.1225ZM82.8505 203.08H80.4745V189.496H82.8505C84.8665 189.496 86.5705 189.904 87.5545 190.768C88.8265 191.896 89.4745 194.008 89.4745 196.288C89.4745 198.592 88.7305 200.632 87.4585 201.76C86.4265 202.648 84.8665 203.08 82.8505 203.08ZM99.5056 205.36C103.25 205.36 105.554 202.672 105.554 198.808C105.554 194.968 103.25 192.256 99.5296 192.256C95.8576 192.256 93.5536 194.968 93.5536 198.808C93.5536 202.672 95.8336 205.36 99.5056 205.36ZM99.5056 203.608C97.2496 203.608 95.8336 201.664 95.8336 198.784C95.8336 195.904 97.2976 194.032 99.5296 194.032C101.81 194.032 103.274 195.976 103.274 198.832C103.274 201.688 101.834 203.608 99.5056 203.608ZM106.371 192.616L109.827 205H112.683L114.387 198.808C114.771 197.368 115.131 195.736 115.491 194.296H115.635C115.947 195.736 116.307 197.368 116.691 198.808L118.395 205H121.251L124.683 192.616H122.619L120.939 198.808C120.579 200.152 120.267 201.736 120.003 203.08H119.859C119.595 201.736 119.235 200.152 118.851 198.808L117.099 192.616H114.147L112.467 198.808C112.107 200.152 111.675 201.736 111.411 203.08H111.267C111.003 201.736 110.691 200.152 110.331 198.808L108.651 192.616H106.371ZM126.363 192.616V205H128.571V198.52C128.571 195.52 129.771 194.104 131.859 194.104C134.235 194.104 134.499 196.096 134.499 198.016V205H136.707V197.584C136.707 196.408 136.635 195.4 136.275 194.56C135.723 193.144 134.475 192.352 132.339 192.352C131.091 192.352 129.555 192.736 128.403 194.2V192.616H126.363ZM139.688 187.576V205H141.896V187.576H139.688ZM150.132 205.36C153.876 205.36 156.18 202.672 156.18 198.808C156.18 194.968 153.876 192.256 150.156 192.256C146.484 192.256 144.18 194.968 144.18 198.808C144.18 202.672 146.46 205.36 150.132 205.36ZM150.132 203.608C147.876 203.608 146.46 201.664 146.46 198.784C146.46 195.904 147.924 194.032 150.156 194.032C152.436 194.032 153.9 195.976 153.9 198.832C153.9 201.688 152.46 203.608 150.132 203.608ZM161.894 205.264C163.694 205.264 165.038 204.736 166.094 203.32C166.118 204.16 166.19 204.64 166.262 205H168.326C168.062 203.872 168.014 202.696 168.014 201.256V197.872C168.014 195.376 167.798 192.256 163.118 192.256C160.142 192.256 158.054 193.888 158.054 196.432H160.238C160.238 194.776 161.39 193.912 163.118 193.912C165.038 193.912 165.854 194.968 165.854 196.816V197.248C162.782 197.632 157.598 197.464 157.598 201.52C157.598 203.728 159.134 205.264 161.894 205.264ZM162.398 203.656C160.79 203.656 159.83 202.792 159.83 201.568C159.83 199.048 163.982 199.216 165.854 198.952V199.648C165.854 202.912 164.198 203.656 162.398 203.656ZM175.431 205.264C177.135 205.264 178.431 204.64 179.271 203.368V205H181.383V187.576H179.175V194.056C178.335 192.808 177.135 192.352 175.431 192.352C172.215 192.352 170.127 195.112 170.127 198.808C170.127 202.96 172.143 205.264 175.431 205.264ZM175.743 203.512C173.703 203.512 172.407 201.712 172.407 198.808C172.407 195.832 173.703 194.104 175.743 194.104C177.855 194.104 179.223 195.832 179.223 198.808C179.223 201.712 177.855 203.512 175.743 203.512ZM50.0026 231.36C54.8746 231.36 58.0426 227.76 58.0426 222.288C58.0426 216.912 54.8746 213.216 50.0026 213.216C45.1066 213.216 41.9866 216.912 41.9866 222.288C41.9866 227.664 45.1066 231.36 50.0026 231.36ZM50.0026 229.488C46.6186 229.488 44.4346 226.416 44.4346 222.288C44.4346 218.16 46.6186 215.088 50.0026 215.088C53.3866 215.088 55.5946 218.16 55.5946 222.288C55.5946 226.416 53.3866 229.488 50.0026 229.488ZM64.6593 231.264C65.8833 231.264 67.4913 230.88 68.5713 229.416V231H70.6113V218.616H68.4273V225.12C68.4273 228.12 67.2273 229.512 65.1393 229.512C62.7633 229.512 62.5233 227.496 62.5233 225.6V218.616H60.3393V225.816C60.3393 226.992 60.3393 228.216 60.7473 229.056C61.3953 230.376 62.4753 231.264 64.6593 231.264ZM73.7377 218.616V231H75.9457V225.312C75.9457 222.312 76.5697 220.392 79.2337 220.392C79.6897 220.392 80.1457 220.464 80.6977 220.56V218.616C80.2417 218.52 79.7617 218.472 79.3057 218.472C77.9377 218.472 76.7857 218.928 75.8257 220.44V218.616H73.7377ZM93.2902 231.36C97.2022 231.36 99.7462 228.744 100.322 225.216H97.8742C97.4182 227.832 95.7862 229.488 93.2902 229.488C90.0502 229.488 87.8662 226.608 87.8662 222.288C87.8662 217.968 90.0022 215.088 93.2422 215.088C95.7622 215.088 97.4182 216.6 97.8262 219.264H100.25C99.8662 215.712 97.2982 213.216 93.2422 213.216C88.2262 213.216 85.4182 217.224 85.4182 222.288C85.4182 227.352 88.1302 231.36 93.2902 231.36ZM107.527 231.36C111.271 231.36 113.575 228.672 113.575 224.808C113.575 220.968 111.271 218.256 107.551 218.256C103.879 218.256 101.575 220.968 101.575 224.808C101.575 228.672 103.855 231.36 107.527 231.36ZM107.527 229.608C105.271 229.608 103.855 227.664 103.855 224.784C103.855 221.904 105.319 220.032 107.551 220.032C109.831 220.032 111.295 221.976 111.295 224.832C111.295 227.688 109.855 229.608 107.527 229.608ZM115.857 213.576V231H118.065V213.576H115.857ZM126.301 231.36C130.045 231.36 132.349 228.672 132.349 224.808C132.349 220.968 130.045 218.256 126.325 218.256C122.653 218.256 120.349 220.968 120.349 224.808C120.349 228.672 122.629 231.36 126.301 231.36ZM126.301 229.608C124.045 229.608 122.629 227.664 122.629 224.784C122.629 221.904 124.093 220.032 126.325 220.032C128.605 220.032 130.069 221.976 130.069 224.832C130.069 227.688 128.629 229.608 126.301 229.608ZM134.631 218.616V231H136.839V225.312C136.839 222.312 137.463 220.392 140.127 220.392C140.583 220.392 141.039 220.464 141.591 220.56V218.616C141.135 218.52 140.655 218.472 140.199 218.472C138.831 218.472 137.679 218.928 136.719 220.44V218.616H134.631ZM147.272 213.576V231H149.624V224.136H152.408C154.592 224.136 156.2 223.896 157.184 223.296C158.624 222.456 159.536 220.944 159.536 218.832C159.536 216.84 158.744 215.136 157.208 214.344C155.696 213.576 154.016 213.576 152.552 213.576H147.272ZM152.648 222.216H149.624V215.496H152.648C153.872 215.496 154.904 215.544 155.456 215.832C156.536 216.384 157.112 217.512 157.112 218.832C157.112 220.152 156.536 221.304 155.456 221.856C154.904 222.12 153.872 222.216 152.648 222.216ZM164.607 231.264C166.407 231.264 167.751 230.736 168.807 229.32C168.831 230.16 168.903 230.64 168.975 231H171.039C170.775 229.872 170.727 228.696 170.727 227.256V223.872C170.727 221.376 170.511 218.256 165.831 218.256C162.855 218.256 160.767 219.888 160.767 222.432H162.951C162.951 220.776 164.103 219.912 165.831 219.912C167.751 219.912 168.567 220.968 168.567 222.816V223.248C165.495 223.632 160.311 223.464 160.311 227.52C160.311 229.728 161.847 231.264 164.607 231.264ZM165.111 229.656C163.503 229.656 162.543 228.792 162.543 227.568C162.543 225.048 166.695 225.216 168.567 224.952V225.648C168.567 228.912 166.911 229.656 165.111 229.656ZM173.656 213.576V231H175.864V213.576H173.656ZM184.029 231.36C186.885 231.36 189.117 229.992 189.669 227.304H187.341C186.885 228.912 185.709 229.608 184.101 229.608C182.085 229.608 180.573 227.928 180.453 225.504H189.693C189.693 220.896 187.941 218.256 184.077 218.256C180.429 218.256 178.149 221.064 178.149 224.808C178.149 228.912 180.213 231.36 184.029 231.36ZM187.341 223.704H180.501C180.813 221.208 182.085 220.032 183.981 220.032C185.781 220.032 187.077 221.208 187.341 223.704ZM195.663 231.216C196.215 231.216 196.839 231.144 197.487 231V229.224C196.983 229.344 196.599 229.344 196.239 229.344C194.823 229.344 194.751 228.36 194.751 226.608V220.44H197.439V218.616H194.751V215.616H192.543V218.616H190.263V220.44H192.543V227.64C192.543 230.352 193.719 231.216 195.663 231.216ZM203.175 231.216C203.727 231.216 204.351 231.144 204.999 231V229.224C204.495 229.344 204.111 229.344 203.751 229.344C202.335 229.344 202.263 228.36 202.263 226.608V220.44H204.951V218.616H202.263V215.616H200.055V218.616H197.775V220.44H200.055V227.64C200.055 230.352 201.231 231.216 203.175 231.216ZM211.722 231.36C214.578 231.36 216.81 229.992 217.362 227.304H215.034C214.578 228.912 213.402 229.608 211.794 229.608C209.778 229.608 208.266 227.928 208.146 225.504H217.386C217.386 220.896 215.634 218.256 211.77 218.256C208.122 218.256 205.842 221.064 205.842 224.808C205.842 228.912 207.906 231.36 211.722 231.36ZM215.034 223.704H208.194C208.506 221.208 209.778 220.032 211.674 220.032C213.474 220.032 214.77 221.208 215.034 223.704Z" fill="#215BDF"/>
</g>
<defs>
<clipPath id="clip0">
<rect width="247" height="247" fill="white" transform="translate(0 15.4023) rotate(-3.34304)"/>
</clipPath>
</defs>
</svg>
