<svg width="316" height="297" viewBox="0 0 316 297" fill="none" xmlns="http://www.w3.org/2000/svg">
<path d="M126.116 216.144V296.238L3 248.595V64.6213C3 64.6213 96.4302 100.776 96.4181 100.776V60.6872V49.2711V32.8107L119.164 41.6081L134.055 47.3765L189.836 68.9657V1L312.952 48.6436V150.025V154.212V232.617L219.534 196.462V264.415L126.116 228.26" fill="white"/>
<path d="M124.116 216.144V296.238L1 248.594V64.6211L124.116 112.265V135.012" stroke="#215BDF" stroke-miterlimit="10"/>
<path d="M217.533 187.134V264.428L124.115 228.273" stroke="#215BDF" stroke-miterlimit="10"/>
<path d="M217.534 172.857V181.836" stroke="#215BDF" stroke-miterlimit="10"/>
<path d="M206.233 76.0859L217.534 80.4545V103.202" stroke="#215BDF" stroke-miterlimit="10"/>
<path d="M192.342 70.7031L201.04 74.07" stroke="#215BDF" stroke-miterlimit="10"/>
<path d="M132.056 47.377L187.849 68.9662" stroke="#215BDF" stroke-miterlimit="10"/>
<path d="M122.573 43.708L126.73 45.313" stroke="#215BDF" stroke-miterlimit="10"/>
<path d="M310.952 154.213V232.617L217.534 196.462" stroke="#215BDF" stroke-miterlimit="10"/>
<path d="M187.836 68.9657V1L310.952 48.6436V150.025" stroke="#215BDF" stroke-miterlimit="10"/>
<path d="M135.766 209.676L315.205 148.577" stroke="#215BDF" stroke-miterlimit="10"/>
<path d="M98.3213 143.81L227.557 99.7871" stroke="#215BDF" stroke-miterlimit="10"/>
<path d="M140.007 94.8627L269.255 50.8516" stroke="#215BDF" stroke-miterlimit="10"/>
<path d="M158.873 188.4L238.063 161.429" stroke="#215BDF" stroke-miterlimit="10"/>
<path d="M157.766 79.1628L219.619 58.1045" stroke="#215BDF" stroke-miterlimit="10"/>
<path d="M94.418 60.6875V100.777" stroke="#215BDF" stroke-miterlimit="10"/>
<path d="M94.418 53.2539V56.1984" stroke="#215BDF" stroke-miterlimit="10"/>
<path d="M37.9629 68.6398L117.165 41.62L94.4186 32.8105V49.2831" stroke="#215BDF" stroke-miterlimit="10"/>
<path d="M77.4668 62.0877L143.476 39.6055" stroke="#215BDF" stroke-miterlimit="10"/>
<path d="M103.051 154.756L78.5577 163.19L91.5577 200.944L116.779 192.26L114.881 186.747L96.2641 193.158L92.4858 182.185L109.335 176.384L107.455 170.923L90.6057 176.725L87.0423 166.376L104.932 160.216L103.051 154.756ZM90.0857 148.692L87.1202 156.635L92.3726 154.827L97.1582 146.257L90.0857 148.692ZM114.726 177.901C117.788 186.794 124.015 190.35 130.88 187.986C134.208 186.84 136.723 184.346 137.682 181.049L138.917 184.637L144.794 182.614L131.794 144.859L125.553 147.008L130.37 160.997C127.673 159.075 124.558 158.984 121.282 160.112C114.418 162.476 111.808 169.424 114.726 177.901ZM121.175 175.681C119.241 170.064 120.485 165.738 124.49 164.36C128.442 162.999 132.086 165.641 134.02 171.258C136.007 177.03 134.623 181.288 130.671 182.649C126.718 184.01 123.109 181.297 121.175 175.681ZM147.917 151.523L141.676 153.672L150.916 180.506L157.156 178.357L147.917 151.523ZM144.157 140.602L137.916 142.751L140.083 149.044L146.323 146.895L144.157 140.602ZM153.156 142.274L155.448 148.93L151.131 150.416L152.779 155.201L157.095 153.714L161.876 167.599C163.971 173.684 167.085 175.462 172.441 173.618C173.845 173.134 175.005 172.618 176.284 171.771L174.637 166.986C173.72 167.535 173.148 167.732 172.576 167.929C170.08 168.788 168.833 167.531 167.687 164.202L163.335 151.566L168.64 149.739L166.992 144.955L161.688 146.781L159.396 140.125L153.156 142.274ZM176.968 141.52L170.727 143.669L179.967 170.503L186.207 168.354L176.968 141.52ZM173.207 130.599L166.967 132.748L169.134 139.041L175.374 136.892L173.207 130.599ZM194.492 134.671C186.328 137.483 183.079 144.942 185.998 153.418C188.917 161.895 196.017 165.791 204.181 162.979C212.45 160.132 215.699 152.673 212.78 144.197C209.861 135.72 202.709 131.842 194.492 134.671ZM196.14 139.456C200.508 137.952 204.292 140.662 206.279 146.435C208.267 152.207 206.954 156.673 202.534 158.195C198.166 159.699 194.45 156.848 192.499 151.18C190.511 145.408 191.772 140.96 196.14 139.456ZM219.548 130.756L218.348 127.272L212.576 129.259L221.816 156.093L228.056 153.944L223.382 140.371C221.18 133.975 222.417 130.641 226.369 129.28C230.685 127.793 232.493 131.185 233.872 135.189L239.029 150.166L245.269 148.017L239.969 132.624C238.823 129.296 237.474 126.561 235.51 124.911C233.318 123.106 230.65 122.454 226.698 123.815C223.578 124.889 220.695 127.161 219.548 130.756ZM252.56 135.909L246.163 138.112C248.414 144.142 253.789 145.898 261.433 143.266C268.454 140.849 271.748 136.224 269.957 131.024C268.184 125.876 263.401 125.836 258.795 126.142C254.45 126.533 250.247 127.166 249.262 124.305C248.6 122.381 249.956 120.576 252.712 119.627C256.092 118.463 258.152 119.208 259.4 122.327L265.589 120.196C263.565 114.32 258.505 112.63 251.38 115.083C244.516 117.447 241.31 122.157 242.993 127.046C245.016 132.922 250.836 132.256 255.789 131.772C259.56 131.405 262.757 131.06 263.688 133.764C264.404 135.844 262.91 137.755 259.945 138.776C256.149 140.083 253.67 139.133 252.56 135.909Z" fill="#215BDF"/>
</svg>
