
<svg xmlns="http://www.w3.org/2000/svg" version="1.1" xmlns:xlink="http://www.w3.org/1999/xlink" preserveAspectRatio="none" x="0px" y="0px" width="1000px" height="1000px" viewBox="0 0 1000 1000">
<defs>
<g id="Layer0_0_MEMBER_0_FILL">
<path fill="#FFFFFF" stroke="none" d="
M -3103.3 -952.95
L -3103.3 -1683.8 -3593.15 -1873.05 -3593.15 -1602.7 -3964.4 -1746.1 -3964.4 -1476.1 -4335.7 -1619.5 -4335.7 -888.7 -3845.8 -699.45 -3845.8 -969.45 -3474.55 -826.05 -3474.55 -1096.4 -3103.3 -952.95 Z"/>
</g>

<g id="Layer0_0_MEMBER_1_MEMBER_0_MEMBER_0_FILL">
<path fill="#FFFFFF" stroke="none" d="
M -3846.45 -1430.95
L -4336.35 -1620.15 -4336.35 -889.35 -3846.45 -700.1 -3846.45 -1430.95 Z"/>
</g>

<g id="Layer0_0_MEMBER_1_MEMBER_1_MEMBER_0_FILL">
<path fill="#FFFFFF" stroke="none" d="
M -3474.75 -826.5
L -3474.75 -1133.55 -3846.45 -970.1 -3474.75 -826.5 Z"/>
</g>

<g id="Layer0_0_MEMBER_1_MEMBER_3_MEMBER_0_FILL">
<path fill="#FFFFFF" stroke="none" d="
M -3519.7 -1574.65
L -3474.75 -1466.9 -3474.75 -1557.3 -3519.7 -1574.65 Z"/>
</g>

<g id="Layer0_0_MEMBER_1_MEMBER_7_MEMBER_0_FILL">
<path fill="#FFFFFF" stroke="none" d="
M -3103 -952.85
L -3103 -1264.3 -3474.75 -1096.45 -3103 -952.85 Z"/>
</g>

<g id="Layer0_0_MEMBER_1_MEMBER_8_MEMBER_0_FILL">
<path fill="#FFFFFF" stroke="none" d="
M -3103 -1280.95
L -3103 -1683.65 -3592.9 -1872.9 -3592.9 -1602.95 -3103 -1280.95 Z"/>
</g>

<g id="Layer0_0_MEMBER_1_MEMBER_16_MEMBER_0_FILL">
<path fill="#FFFFFF" stroke="none" d="
M -3964.6 -1681.15
L -3971.6 -1678.6 -3874.1 -1711.6 -3964.6 -1746.55 -3964.6 -1681.15 Z"/>
</g>

<g id="Layer0_0_MEMBER_2_MEMBER_0_MEMBER_0_FILL">
<path fill="#215BDF" stroke="none" d="
M -3919.75 -1238.45
L -3926.9 -1259.25 -4020.25 -1227.15 -3970.8 -1083.2 -3874.6 -1116.25 -3881.85 -1137.3 -3952.8 -1112.9 -3967.2 -1154.7 -3902.95 -1176.8 -3910.15 -1197.6 -3974.35 -1175.55 -3987.9 -1215 -3919.75 -1238.45 Z"/>
</g>

<g id="Layer0_0_MEMBER_2_MEMBER_0_MEMBER_1_FILL">
<path fill="#215BDF" stroke="none" d="
M -3813.3 -1298.3
L -3837.1 -1290.1 -3818.75 -1236.8
Q -3833.2 -1247.05 -3853.4 -1240.2 -3873.05 -1233.45 -3879.85 -1215.05 -3886.7 -1196.6 -3878.4 -1172.4 -3869.75 -1147.25 -3853.05 -1137.05 -3836.7 -1127.05 -3816.85 -1133.9 -3807.25 -1137.25 -3800.5 -1144.05 -3793.6 -1151 -3790.9 -1160.35
L -3786.2 -1146.65 -3763.8 -1154.35 -3813.3 -1298.3
M -3841.15 -1224
Q -3829.85 -1227.85 -3820.1 -1220.8 -3810.35 -1213.75 -3804.85 -1197.65 -3799.25 -1181.3 -3802.75 -1169.65 -3806.25 -1158.2 -3817.65 -1154.25 -3828.9 -1150.4 -3838.6 -1157.6 -3848.25 -1164.75 -3853.8 -1180.85 -3859.35 -1196.9 -3856 -1208.5 -3852.6 -1220.05 -3841.15 -1224 Z"/>
</g>

<g id="Layer0_0_MEMBER_2_MEMBER_0_MEMBER_2_FILL">
<path fill="#215BDF" stroke="none" d="
M -3747.85 -1274.25
L -3771.6 -1266.05 -3736.45 -1163.8 -3712.65 -1171.95 -3747.85 -1274.25
M -3753.9 -1291.9
L -3762.15 -1315.9 -3785.95 -1307.7 -3777.7 -1283.7 -3753.9 -1291.9 Z"/>
</g>

<g id="Layer0_0_MEMBER_2_MEMBER_0_MEMBER_3_FILL">
<path fill="#215BDF" stroke="none" d="
M -3700.05 -1319.05
L -3723.85 -1310.85 -3715.1 -1285.5 -3731.55 -1279.85 -3725.3 -1261.6 -3708.85 -1267.25 -3690.65 -1214.35
Q -3684.7 -1196.95 -3675.2 -1191.5 -3665.7 -1186.1 -3650.4 -1191.35 -3641.85 -1194.3 -3635.75 -1198.4
L -3642 -1216.65
Q -3645.45 -1214.6 -3649.85 -1213.05 -3656.8 -1210.7 -3661.1 -1214.15 -3665.15 -1217.4 -3668.5 -1227.25
L -3685.05 -1275.45 -3664.85 -1282.4 -3671.1 -1300.65 -3691.35 -1293.7 -3700.05 -1319.05 Z"/>
</g>

<g id="Layer0_0_MEMBER_2_MEMBER_0_MEMBER_4_FILL">
<path fill="#215BDF" stroke="none" d="
M -3617.7 -1204.6
L -3593.9 -1212.8 -3629.1 -1315.1 -3652.85 -1306.9 -3617.7 -1204.6
M -3635.15 -1332.7
L -3643.4 -1356.7 -3667.2 -1348.55 -3658.95 -1324.55 -3635.15 -1332.7 Z"/>
</g>

<g id="Layer0_0_MEMBER_2_MEMBER_0_MEMBER_5_FILL">
<path fill="#215BDF" stroke="none" d="
M -3488.6 -1306.2
Q -3496.95 -1330.55 -3515.85 -1340.5 -3534.9 -1350.55 -3558.25 -1342.5 -3581.5 -1334.5 -3590.3 -1314.9 -3599.05 -1295.45 -3590.7 -1271.1 -3582.3 -1246.7 -3563.55 -1236.7 -3544.6 -1226.6 -3521.4 -1234.6 -3497.85 -1242.7 -3489 -1262.35 -3480.2 -1281.8 -3488.6 -1306.2
M -3552 -1324.3
Q -3539.6 -1328.55 -3529.3 -1321.35 -3519.1 -1314.25 -3513.35 -1297.65 -3507.65 -1281.05 -3511.35 -1269.15 -3515.1 -1257.15 -3527.65 -1252.85 -3539.95 -1248.6 -3550.2 -1255.95 -3560.25 -1263.15 -3565.9 -1279.6 -3571.6 -1296.25 -3568 -1308.05 -3564.4 -1320 -3552 -1324.3 Z"/>
</g>

<g id="Layer0_0_MEMBER_2_MEMBER_0_MEMBER_6_FILL">
<path fill="#215BDF" stroke="none" d="
M -3432.8 -1364.4
Q -3421.6 -1368.25 -3414.3 -1360.95 -3408.95 -1355.6 -3404.2 -1341.85
L -3384.55 -1284.75 -3360.75 -1292.95 -3380.95 -1351.6
Q -3384.45 -1361.9 -3388.25 -1368.7 -3392.65 -1376.55 -3397.95 -1381 -3404.55 -1386.45 -3412.2 -1387.65 -3420.7 -1388.95 -3431.5 -1385.2 -3441.05 -1381.9 -3447.95 -1375.55 -3455.65 -1368.5 -3458.8 -1358.75
L -3463.35 -1372.05 -3485.35 -1364.5 -3450.2 -1262.2 -3426.4 -1270.35 -3444.2 -1322.1
Q -3450.35 -1340 -3447.25 -1350.45 -3444.35 -1360.4 -3432.8 -1364.4 Z"/>
</g>

<g id="Layer0_0_MEMBER_2_MEMBER_0_MEMBER_7_FILL">
<path fill="#215BDF" stroke="none" d="
M -3339.85 -1395
Q -3336.3 -1399.8 -3328.4 -1402.5 -3318.65 -1405.85 -3312.6 -1403.45 -3306.45 -1401.05 -3302.9 -1392.2
L -3279.3 -1400.3
Q -3285.05 -1417 -3299.1 -1421.95 -3312.95 -1426.85 -3333.45 -1419.8 -3353 -1413.1 -3361.65 -1400.6 -3370.25 -1388.25 -3365.45 -1374.25 -3360.35 -1359.45 -3345.25 -1356.15 -3336.65 -1354.25 -3316.7 -1356.2 -3302.75 -1357.55 -3297.6 -1356.8 -3289 -1355.5 -3286.6 -1348.6 -3284.55 -1342.7 -3288.45 -1337.55 -3292.3 -1332.45 -3300.85 -1329.5 -3322.7 -1321.95 -3329 -1340.45
L -3353.4 -1332.05
Q -3346.95 -1314.85 -3332 -1309.8 -3317.1 -1304.85 -3295.2 -1312.35 -3275.05 -1319.3 -3266.35 -1331.7 -3257.6 -1344.2 -3262.7 -1359 -3267.25 -1372.2 -3279.9 -1376.1 -3288.4 -1378.75 -3305.2 -1377.65 -3323 -1376.05 -3328.2 -1376.5 -3339.05 -1377.45 -3341.55 -1384.65 -3343.4 -1390.15 -3339.85 -1395 Z"/>
</g>

<path id="Layer0_0_MEMBER_1_MEMBER_0_MEMBER_1_1_STROKES" stroke="#215BDF" stroke-width="3" stroke-linejoin="miter" stroke-linecap="butt" stroke-miterlimit="10" fill="none" d="
M 408.1414306640627 714.9198486328125
L 408.1414306640627 948.405908203125 48.610327148437136 809.5178466796875 48.610327148437136 273.19343261718745 408.1414306640627 412.0447998046875 408.1414306640627 478.3881591796876"/>

<path id="Layer0_0_MEMBER_1_MEMBER_1_MEMBER_1_1_STROKES" stroke="#215BDF" stroke-width="3" stroke-linejoin="miter" stroke-linecap="butt" stroke-miterlimit="10" fill="none" d="
M 680.9271240234375 630.3027099609376
L 680.9271240234375 855.642626953125 408.1414306640627 750.256494140625"/>

<path id="Layer0_0_MEMBER_1_MEMBER_2_MEMBER_0_1_STROKES" stroke="#215BDF" stroke-width="3" stroke-linejoin="miter" stroke-linecap="butt" stroke-miterlimit="10" fill="none" d="
M 680.9271240234375 588.6913330078125
L 680.9271240234375 614.8543945312501"/>

<path id="Layer0_0_MEMBER_1_MEMBER_3_MEMBER_1_1_STROKES" stroke="#215BDF" stroke-width="3" stroke-linejoin="miter" stroke-linecap="butt" stroke-miterlimit="10" fill="none" d="
M 647.9389160156252 306.58527832031245
L 680.9271240234375 319.3182128906251 680.9271240234375 385.66157226562495"/>

<path id="Layer0_0_MEMBER_1_MEMBER_4_MEMBER_0_1_STROKES" stroke="#215BDF" stroke-width="3" stroke-linejoin="miter" stroke-linecap="butt" stroke-miterlimit="10" fill="none" d="
M 607.3916748046877 290.91679687500005
L 632.7841552734376 300.71418457031245"/>

<path id="Layer0_0_MEMBER_1_MEMBER_5_MEMBER_0_1_STROKES" stroke="#215BDF" stroke-width="3" stroke-linejoin="miter" stroke-linecap="butt" stroke-miterlimit="10" fill="none" d="
M 431.3322509765626 222.885498046875
L 594.2551025390626 285.8162841796875"/>

<path id="Layer0_0_MEMBER_1_MEMBER_6_MEMBER_0_1_STROKES" stroke="#215BDF" stroke-width="3" stroke-linejoin="miter" stroke-linecap="butt" stroke-miterlimit="10" fill="none" d="
M 403.6280273437501 212.1707519531251
L 415.7738525390623 216.86762695312495"/>

<path id="Layer0_0_MEMBER_1_MEMBER_7_MEMBER_1_1_STROKES" stroke="#215BDF" stroke-width="3" stroke-linejoin="miter" stroke-linecap="butt" stroke-miterlimit="10" fill="none" d="
M 953.74951171875 534.3470214843751
L 953.74951171875 762.9160400390625 680.9271240234375 657.5299072265625"/>

<path id="Layer0_0_MEMBER_1_MEMBER_8_MEMBER_1_1_STROKES" stroke="#215BDF" stroke-width="3" stroke-linejoin="miter" stroke-linecap="butt" stroke-miterlimit="10" fill="none" d="
M 594.2184082031249 285.8162841796875
L 594.2184082031249 87.70356445312495 953.74951171875 226.59162597656245 953.74951171875 522.1278076171875"/>

<path id="Layer0_0_MEMBER_1_MEMBER_9_MEMBER_0_1_STROKES" stroke="#215BDF" stroke-width="3" stroke-linejoin="miter" stroke-linecap="butt" stroke-miterlimit="10" fill="none" d="
M 442.1570800781251 696.0589599609375
L 966.1521972656251 517.907958984375"/>

<path id="Layer0_0_MEMBER_1_MEMBER_10_MEMBER_0_1_STROKES" stroke="#215BDF" stroke-width="3" stroke-linejoin="miter" stroke-linecap="butt" stroke-miterlimit="10" fill="none" d="
M 332.8079589843751 504.00080566406245
L 710.2092041015626 375.68071289062505"/>

<path id="Layer0_0_MEMBER_1_MEMBER_11_MEMBER_0_1_STROKES" stroke="#215BDF" stroke-width="3" stroke-linejoin="miter" stroke-linecap="butt" stroke-miterlimit="10" fill="none" d="
M 454.5597656250002 361.29653320312514
L 831.9610107421877 233.01313476562495"/>

<path id="Layer0_0_MEMBER_1_MEMBER_12_MEMBER_0_1_STROKES" stroke="#215BDF" stroke-width="3" stroke-linejoin="miter" stroke-linecap="butt" stroke-miterlimit="10" fill="none" d="
M 509.6379638671874 634.008837890625
L 740.8856689453123 555.4095703125001"/>

<path id="Layer0_0_MEMBER_1_MEMBER_13_MEMBER_0_1_STROKES" stroke="#215BDF" stroke-width="3" stroke-linejoin="miter" stroke-linecap="butt" stroke-miterlimit="10" fill="none" d="
M 506.4088623046873 315.57539062499995
L 687.0183837890627 254.1857666015626"/>

<path id="Layer0_0_MEMBER_1_MEMBER_14_MEMBER_0_1_STROKES" stroke="#215BDF" stroke-width="3" stroke-linejoin="miter" stroke-linecap="butt" stroke-miterlimit="10" fill="none" d="
M 321.4327148437501 261.7081054687501
L 321.4327148437501 378.5795654296876"/>

<path id="Layer0_0_MEMBER_1_MEMBER_15_MEMBER_0_1_STROKES" stroke="#215BDF" stroke-width="3" stroke-linejoin="miter" stroke-linecap="butt" stroke-miterlimit="10" fill="none" d="
M 321.4327148437501 240.02175292968764
L 321.4327148437501 248.60822753906245"/>

<path id="Layer0_0_MEMBER_1_MEMBER_16_MEMBER_1_1_STROKES" stroke="#215BDF" stroke-width="3" stroke-linejoin="miter" stroke-linecap="butt" stroke-miterlimit="10" fill="none" d="
M 156.5650634765625 284.86223144531255
L 387.8494628906251 206.07949218750014 321.4327148437501 180.4301513671876 321.4327148437501 228.42634277343745"/>

<path id="Layer0_0_MEMBER_1_MEMBER_17_MEMBER_0_1_STROKES" stroke="#215BDF" stroke-width="3" stroke-linejoin="miter" stroke-linecap="butt" stroke-miterlimit="10" fill="none" d="
M 271.8953613281251 265.78117675781255
L 464.6874023437499 200.2450927734376"/>
</defs>

<g transform="matrix( 0.73388671875, 0, 0, 0.73388671875, 3231,1462.2) ">
<use xlink:href="#Layer0_0_MEMBER_0_FILL"/>
</g>

<g transform="matrix( 0.73388671875, 0, 0, 0.73388671875, 3231,1462.2) ">
<use xlink:href="#Layer0_0_MEMBER_1_MEMBER_0_MEMBER_0_FILL"/>
</g>

<g transform="matrix( 0.73388671875, 0, 0, 0.73388671875, 3231,1462.2) ">
<use xlink:href="#Layer0_0_MEMBER_1_MEMBER_0_MEMBER_1_1_STROKES" transform="matrix( 1.3625946044921875, 0, 0, 1.3625946044921875, -4402.55,-1992.4) "/>
</g>

<g transform="matrix( 0.73388671875, 0, 0, 0.73388671875, 3231,1462.2) ">
<use xlink:href="#Layer0_0_MEMBER_1_MEMBER_1_MEMBER_0_FILL"/>
</g>

<g transform="matrix( 0.73388671875, 0, 0, 0.73388671875, 3231,1462.2) ">
<use xlink:href="#Layer0_0_MEMBER_1_MEMBER_1_MEMBER_1_1_STROKES" transform="matrix( 1.3625946044921875, 0, 0, 1.3625946044921875, -4402.55,-1992.4) "/>
</g>

<g transform="matrix( 0.73388671875, 0, 0, 0.73388671875, 3231,1462.2) ">
<use xlink:href="#Layer0_0_MEMBER_1_MEMBER_2_MEMBER_0_1_STROKES" transform="matrix( 1.3625946044921875, 0, 0, 1.3625946044921875, -4402.55,-1992.4) "/>
</g>

<g transform="matrix( 0.73388671875, 0, 0, 0.73388671875, 3231,1462.2) ">
<use xlink:href="#Layer0_0_MEMBER_1_MEMBER_3_MEMBER_0_FILL"/>
</g>

<g transform="matrix( 0.73388671875, 0, 0, 0.73388671875, 3231,1462.2) ">
<use xlink:href="#Layer0_0_MEMBER_1_MEMBER_3_MEMBER_1_1_STROKES" transform="matrix( 1.3625946044921875, 0, 0, 1.3625946044921875, -4402.55,-1992.4) "/>
</g>

<g transform="matrix( 0.73388671875, 0, 0, 0.73388671875, 3231,1462.2) ">
<use xlink:href="#Layer0_0_MEMBER_1_MEMBER_4_MEMBER_0_1_STROKES" transform="matrix( 1.3625946044921875, 0, 0, 1.3625946044921875, -4402.55,-1992.4) "/>
</g>

<g transform="matrix( 0.73388671875, 0, 0, 0.73388671875, 3231,1462.2) ">
<use xlink:href="#Layer0_0_MEMBER_1_MEMBER_5_MEMBER_0_1_STROKES" transform="matrix( 1.3625946044921875, 0, 0, 1.3625946044921875, -4402.55,-1992.4) "/>
</g>

<g transform="matrix( 0.73388671875, 0, 0, 0.73388671875, 3231,1462.2) ">
<use xlink:href="#Layer0_0_MEMBER_1_MEMBER_6_MEMBER_0_1_STROKES" transform="matrix( 1.3625946044921875, 0, 0, 1.3625946044921875, -4402.55,-1992.4) "/>
</g>

<g transform="matrix( 0.73388671875, 0, 0, 0.73388671875, 3231,1462.2) ">
<use xlink:href="#Layer0_0_MEMBER_1_MEMBER_7_MEMBER_0_FILL"/>
</g>

<g transform="matrix( 0.73388671875, 0, 0, 0.73388671875, 3231,1462.2) ">
<use xlink:href="#Layer0_0_MEMBER_1_MEMBER_7_MEMBER_1_1_STROKES" transform="matrix( 1.3625946044921875, 0, 0, 1.3625946044921875, -4402.55,-1992.4) "/>
</g>

<g transform="matrix( 0.73388671875, 0, 0, 0.73388671875, 3231,1462.2) ">
<use xlink:href="#Layer0_0_MEMBER_1_MEMBER_8_MEMBER_0_FILL"/>
</g>

<g transform="matrix( 0.73388671875, 0, 0, 0.73388671875, 3231,1462.2) ">
<use xlink:href="#Layer0_0_MEMBER_1_MEMBER_8_MEMBER_1_1_STROKES" transform="matrix( 1.3625946044921875, 0, 0, 1.3625946044921875, -4402.55,-1992.4) "/>
</g>

<g transform="matrix( 0.73388671875, 0, 0, 0.73388671875, 3231,1462.2) ">
<use xlink:href="#Layer0_0_MEMBER_1_MEMBER_9_MEMBER_0_1_STROKES" transform="matrix( 1.3625946044921875, 0, 0, 1.3625946044921875, -4402.55,-1992.4) "/>
</g>

<g transform="matrix( 0.73388671875, 0, 0, 0.73388671875, 3231,1462.2) ">
<use xlink:href="#Layer0_0_MEMBER_1_MEMBER_10_MEMBER_0_1_STROKES" transform="matrix( 1.3625946044921875, 0, 0, 1.3625946044921875, -4402.55,-1992.4) "/>
</g>

<g transform="matrix( 0.73388671875, 0, 0, 0.73388671875, 3231,1462.2) ">
<use xlink:href="#Layer0_0_MEMBER_1_MEMBER_11_MEMBER_0_1_STROKES" transform="matrix( 1.3625946044921875, 0, 0, 1.3625946044921875, -4402.55,-1992.4) "/>
</g>

<g transform="matrix( 0.73388671875, 0, 0, 0.73388671875, 3231,1462.2) ">
<use xlink:href="#Layer0_0_MEMBER_1_MEMBER_12_MEMBER_0_1_STROKES" transform="matrix( 1.3625946044921875, 0, 0, 1.3625946044921875, -4402.55,-1992.4) "/>
</g>

<g transform="matrix( 0.73388671875, 0, 0, 0.73388671875, 3231,1462.2) ">
<use xlink:href="#Layer0_0_MEMBER_1_MEMBER_13_MEMBER_0_1_STROKES" transform="matrix( 1.3625946044921875, 0, 0, 1.3625946044921875, -4402.55,-1992.4) "/>
</g>

<g transform="matrix( 0.73388671875, 0, 0, 0.73388671875, 3231,1462.2) ">
<use xlink:href="#Layer0_0_MEMBER_1_MEMBER_14_MEMBER_0_1_STROKES" transform="matrix( 1.3625946044921875, 0, 0, 1.3625946044921875, -4402.55,-1992.4) "/>
</g>

<g transform="matrix( 0.73388671875, 0, 0, 0.73388671875, 3231,1462.2) ">
<use xlink:href="#Layer0_0_MEMBER_1_MEMBER_15_MEMBER_0_1_STROKES" transform="matrix( 1.3625946044921875, 0, 0, 1.3625946044921875, -4402.55,-1992.4) "/>
</g>

<g transform="matrix( 0.73388671875, 0, 0, 0.73388671875, 3231,1462.2) ">
<use xlink:href="#Layer0_0_MEMBER_1_MEMBER_16_MEMBER_0_FILL"/>
</g>

<g transform="matrix( 0.73388671875, 0, 0, 0.73388671875, 3231,1462.2) ">
<use xlink:href="#Layer0_0_MEMBER_1_MEMBER_16_MEMBER_1_1_STROKES" transform="matrix( 1.3625946044921875, 0, 0, 1.3625946044921875, -4402.55,-1992.4) "/>
</g>

<g transform="matrix( 0.73388671875, 0, 0, 0.73388671875, 3231,1462.2) ">
<use xlink:href="#Layer0_0_MEMBER_1_MEMBER_17_MEMBER_0_1_STROKES" transform="matrix( 1.3625946044921875, 0, 0, 1.3625946044921875, -4402.55,-1992.4) "/>
</g>

<g transform="matrix( 0.73388671875, 0, 0, 0.73388671875, 3231,1462.2) ">
<use xlink:href="#Layer0_0_MEMBER_2_MEMBER_0_MEMBER_0_FILL"/>
</g>

<g transform="matrix( 0.73388671875, 0, 0, 0.73388671875, 3231,1462.2) ">
<use xlink:href="#Layer0_0_MEMBER_2_MEMBER_0_MEMBER_1_FILL"/>
</g>

<g transform="matrix( 0.73388671875, 0, 0, 0.73388671875, 3231,1462.2) ">
<use xlink:href="#Layer0_0_MEMBER_2_MEMBER_0_MEMBER_2_FILL"/>
</g>

<g transform="matrix( 0.73388671875, 0, 0, 0.73388671875, 3231,1462.2) ">
<use xlink:href="#Layer0_0_MEMBER_2_MEMBER_0_MEMBER_3_FILL"/>
</g>

<g transform="matrix( 0.73388671875, 0, 0, 0.73388671875, 3231,1462.2) ">
<use xlink:href="#Layer0_0_MEMBER_2_MEMBER_0_MEMBER_4_FILL"/>
</g>

<g transform="matrix( 0.73388671875, 0, 0, 0.73388671875, 3231,1462.2) ">
<use xlink:href="#Layer0_0_MEMBER_2_MEMBER_0_MEMBER_5_FILL"/>
</g>

<g transform="matrix( 0.73388671875, 0, 0, 0.73388671875, 3231,1462.2) ">
<use xlink:href="#Layer0_0_MEMBER_2_MEMBER_0_MEMBER_6_FILL"/>
</g>

<g transform="matrix( 0.73388671875, 0, 0, 0.73388671875, 3231,1462.2) ">
<use xlink:href="#Layer0_0_MEMBER_2_MEMBER_0_MEMBER_7_FILL"/>
</g>
</svg>
