
<svg xmlns="http://www.w3.org/2000/svg" version="1.1" xmlns:xlink="http://www.w3.org/1999/xlink" preserveAspectRatio="none" x="0px" y="0px" width="1000px" height="1000px" viewBox="0 0 1000 1000">
<defs>
<g id="Layer1_0_MEMBER_0_FILL">
<path fill="#FFFFFF" stroke="none" d="
M -3964.4 -3106.1
L -3964.4 -2836.1 -4335.7 -2979.5 -4335.7 -2248.7 -3845.8 -2059.45 -3845.8 -2329.45 -3474.55 -2186.05 -3474.55 -2456.4 -3103.3 -2312.95 -3103.3 -3043.8 -3593.15 -3233.05 -3593.15 -2962.7 -3964.4 -3106.1 Z"/>
</g>

<g id="Layer1_0_MEMBER_1_MEMBER_0_MEMBER_0_FILL">
<path fill="#FFFFFF" stroke="none" d="
M -3846.45 -2790.95
L -4336.35 -2980.15 -4336.35 -2249.35 -3846.45 -2060.1 -3846.45 -2790.95 Z"/>
</g>

<g id="Layer1_0_MEMBER_1_MEMBER_1_MEMBER_0_FILL">
<path fill="#FFFFFF" stroke="none" d="
M -3846.45 -2330.1
L -3474.75 -2186.5 -3474.75 -2493.55 -3846.45 -2330.1 Z"/>
</g>

<g id="Layer1_0_MEMBER_1_MEMBER_3_MEMBER_0_FILL">
<path fill="#FFFFFF" stroke="none" d="
M -3519.7 -2934.65
L -3474.75 -2826.9 -3474.75 -2917.3 -3519.7 -2934.65 Z"/>
</g>

<g id="Layer1_0_MEMBER_1_MEMBER_7_MEMBER_0_FILL">
<path fill="#FFFFFF" stroke="none" d="
M -3103 -2624.3
L -3474.75 -2456.45 -3103 -2312.85 -3103 -2624.3 Z"/>
</g>

<g id="Layer1_0_MEMBER_1_MEMBER_8_MEMBER_0_FILL">
<path fill="#FFFFFF" stroke="none" d="
M -3592.9 -3232.9
L -3592.9 -2962.95 -3103 -2640.95 -3103 -3043.65 -3592.9 -3232.9 Z"/>
</g>

<g id="Layer1_0_MEMBER_1_MEMBER_16_MEMBER_0_FILL">
<path fill="#FFFFFF" stroke="none" d="
M -3964.6 -3041.15
L -3971.6 -3038.6 -3874.1 -3071.6 -3964.6 -3106.55 -3964.6 -3041.15 Z"/>
</g>

<g id="Layer1_0_MEMBER_2_MEMBER_0_MEMBER_0_FILL">
<path fill="#215BDF" stroke="none" d="
M -3919.75 -2598.45
L -3926.9 -2619.25 -4020.25 -2587.15 -3970.8 -2443.2 -3874.6 -2476.25 -3881.85 -2497.3 -3952.8 -2472.9 -3967.2 -2514.7 -3902.95 -2536.8 -3910.15 -2557.6 -3974.35 -2535.55 -3987.9 -2575 -3919.75 -2598.45
M -3976.3 -2642.4
L -3987.6 -2612.1 -3967.6 -2619 -3949.35 -2651.65 -3976.3 -2642.4 Z"/>
</g>

<g id="Layer1_0_MEMBER_2_MEMBER_0_MEMBER_1_FILL">
<path fill="#215BDF" stroke="none" d="
M -3813.3 -2658.3
L -3837.1 -2650.1 -3818.75 -2596.8
Q -3833.2 -2607.05 -3853.4 -2600.2 -3873.05 -2593.45 -3879.85 -2575.05 -3886.7 -2556.6 -3878.4 -2532.4 -3869.75 -2507.25 -3853.05 -2497.05 -3836.7 -2487.05 -3816.85 -2493.9 -3807.25 -2497.25 -3800.5 -2504.05 -3793.6 -2511 -3790.9 -2520.35
L -3786.2 -2506.65 -3763.8 -2514.35 -3813.3 -2658.3
M -3841.15 -2584
Q -3829.85 -2587.85 -3820.1 -2580.8 -3810.35 -2573.75 -3804.85 -2557.65 -3799.25 -2541.3 -3802.75 -2529.65 -3806.25 -2518.2 -3817.65 -2514.25 -3828.9 -2510.4 -3838.6 -2517.6 -3848.25 -2524.75 -3853.8 -2540.85 -3859.35 -2556.9 -3856 -2568.5 -3852.6 -2580.05 -3841.15 -2584 Z"/>
</g>

<g id="Layer1_0_MEMBER_2_MEMBER_0_MEMBER_2_FILL">
<path fill="#215BDF" stroke="none" d="
M -3747.85 -2634.25
L -3771.6 -2626.05 -3736.45 -2523.8 -3712.65 -2531.95 -3747.85 -2634.25
M -3785.95 -2667.7
L -3777.7 -2643.7 -3753.9 -2651.9 -3762.15 -2675.9 -3785.95 -2667.7 Z"/>
</g>

<g id="Layer1_0_MEMBER_2_MEMBER_0_MEMBER_3_FILL">
<path fill="#215BDF" stroke="none" d="
M -3685.05 -2635.45
L -3664.85 -2642.4 -3671.1 -2660.65 -3691.35 -2653.7 -3700.05 -2679.05 -3723.85 -2670.85 -3715.1 -2645.5 -3731.55 -2639.85 -3725.3 -2621.6 -3708.85 -2627.25 -3690.65 -2574.35
Q -3684.7 -2556.95 -3675.2 -2551.5 -3665.7 -2546.1 -3650.4 -2551.35 -3641.85 -2554.3 -3635.75 -2558.4
L -3642 -2576.65
Q -3645.45 -2574.6 -3649.85 -2573.05 -3656.8 -2570.7 -3661.1 -2574.15 -3665.15 -2577.4 -3668.5 -2587.25
L -3685.05 -2635.45 Z"/>
</g>

<g id="Layer1_0_MEMBER_2_MEMBER_0_MEMBER_4_FILL">
<path fill="#215BDF" stroke="none" d="
M -3629.1 -2675.1
L -3652.85 -2666.9 -3617.7 -2564.6 -3593.9 -2572.8 -3629.1 -2675.1
M -3635.15 -2692.7
L -3643.4 -2716.7 -3667.2 -2708.55 -3658.95 -2684.55 -3635.15 -2692.7 Z"/>
</g>

<g id="Layer1_0_MEMBER_2_MEMBER_0_MEMBER_5_FILL">
<path fill="#215BDF" stroke="none" d="
M -3590.3 -2674.9
Q -3599.05 -2655.45 -3590.7 -2631.1 -3582.3 -2606.7 -3563.55 -2596.7 -3544.6 -2586.6 -3521.4 -2594.6 -3497.85 -2602.7 -3489 -2622.35 -3480.2 -2641.8 -3488.6 -2666.2 -3496.95 -2690.55 -3515.85 -2700.5 -3534.9 -2710.55 -3558.25 -2702.5 -3581.5 -2694.5 -3590.3 -2674.9
M -3565.9 -2639.6
Q -3571.6 -2656.25 -3568 -2668.05 -3564.4 -2680 -3552 -2684.3 -3539.6 -2688.55 -3529.3 -2681.35 -3519.1 -2674.25 -3513.35 -2657.65 -3507.65 -2641.05 -3511.35 -2629.15 -3515.1 -2617.15 -3527.65 -2612.85 -3539.95 -2608.6 -3550.2 -2615.95 -3560.25 -2623.15 -3565.9 -2639.6 Z"/>
</g>

<g id="Layer1_0_MEMBER_2_MEMBER_0_MEMBER_6_FILL">
<path fill="#215BDF" stroke="none" d="
M -3388.25 -2728.7
Q -3392.65 -2736.55 -3397.95 -2741 -3404.55 -2746.45 -3412.2 -2747.65 -3420.7 -2748.95 -3431.5 -2745.2 -3441.05 -2741.95 -3447.95 -2735.6 -3455.65 -2728.55 -3458.8 -2718.75
L -3463.35 -2732.05 -3485.35 -2724.5 -3450.2 -2622.2 -3426.4 -2630.35 -3444.2 -2682.1
Q -3450.35 -2700 -3447.25 -2710.45 -3444.35 -2720.4 -3432.8 -2724.4 -3421.6 -2728.25 -3414.3 -2720.95 -3408.95 -2715.6 -3404.2 -2701.85
L -3384.55 -2644.75 -3360.75 -2652.95 -3380.95 -2711.6
Q -3384.45 -2721.9 -3388.25 -2728.7 Z"/>
</g>

<g id="Layer1_0_MEMBER_2_MEMBER_0_MEMBER_7_FILL">
<path fill="#215BDF" stroke="none" d="
M -3299.1 -2781.95
Q -3312.95 -2786.85 -3333.45 -2779.8 -3353 -2773.1 -3361.65 -2760.6 -3370.25 -2748.25 -3365.45 -2734.25 -3360.35 -2719.45 -3345.25 -2716.15 -3336.65 -2714.25 -3316.7 -2716.2 -3302.75 -2717.55 -3297.6 -2716.8 -3289 -2715.5 -3286.6 -2708.6 -3284.55 -2702.7 -3288.45 -2697.55 -3292.3 -2692.45 -3300.85 -2689.5 -3322.7 -2681.95 -3329 -2700.45
L -3353.4 -2692.05
Q -3346.95 -2674.85 -3332 -2669.8 -3317.1 -2664.85 -3295.2 -2672.35 -3275.05 -2679.3 -3266.35 -2691.7 -3257.6 -2704.2 -3262.7 -2719 -3267.25 -2732.2 -3279.9 -2736.1 -3288.4 -2738.75 -3305.2 -2737.65 -3323 -2736.05 -3328.2 -2736.5 -3339.05 -2737.45 -3341.55 -2744.65 -3343.4 -2750.15 -3339.85 -2755 -3336.3 -2759.8 -3328.4 -2762.5 -3318.65 -2765.85 -3312.6 -2763.45 -3306.45 -2761.05 -3302.9 -2752.2
L -3279.3 -2760.3
Q -3285.05 -2777 -3299.1 -2781.95 Z"/>
</g>

<path id="Layer1_0_MEMBER_1_MEMBER_0_MEMBER_1_1_STROKES" stroke="#215BDF" stroke-width="3" stroke-linejoin="miter" stroke-linecap="butt" stroke-miterlimit="10" fill="none" d="
M 408.08273849487296 714.8976219177248
L 408.08273849487296 948.3885360717775 48.544159698486055 809.4975868225099 48.544159698486055 273.1620216369629 408.08273849487296 412.0162757873536 408.08273849487296 478.3610145568848"/>

<path id="Layer1_0_MEMBER_1_MEMBER_1_MEMBER_1_1_STROKES" stroke="#215BDF" stroke-width="3" stroke-linejoin="miter" stroke-linecap="butt" stroke-miterlimit="10" fill="none" d="
M 680.8741035461426 630.2787239074707
L 680.8741035461426 855.62332611084 408.08273849487296 750.2350021362306"/>

<path id="Layer1_0_MEMBER_1_MEMBER_2_MEMBER_0_1_STROKES" stroke="#215BDF" stroke-width="3" stroke-linejoin="miter" stroke-linecap="butt" stroke-miterlimit="10" fill="none" d="
M 680.8741035461426 588.666481781006
L 680.8741035461426 614.8300872802736"/>

<path id="Layer1_0_MEMBER_1_MEMBER_3_MEMBER_1_1_STROKES" stroke="#215BDF" stroke-width="3" stroke-linejoin="miter" stroke-linecap="butt" stroke-miterlimit="10" fill="none" d="
M 647.8852096557616 306.55456161499023
L 680.8741035461426 319.28776092529324 680.8741035461426 385.6324996948242"/>

<path id="Layer1_0_MEMBER_1_MEMBER_4_MEMBER_0_1_STROKES" stroke="#215BDF" stroke-width="3" stroke-linejoin="miter" stroke-linecap="butt" stroke-miterlimit="10" fill="none" d="
M 607.3371253967284 290.88575439453143
L 632.7301338195803 300.68334579467773"/>

<path id="Layer1_0_MEMBER_1_MEMBER_5_MEMBER_0_1_STROKES" stroke="#215BDF" stroke-width="3" stroke-linejoin="miter" stroke-linecap="butt" stroke-miterlimit="10" fill="none" d="
M 431.2740409851076 222.85304107666025
L 594.2002799987795 285.78513565063486"/>

<path id="Layer1_0_MEMBER_1_MEMBER_6_MEMBER_0_1_STROKES" stroke="#215BDF" stroke-width="3" stroke-linejoin="miter" stroke-linecap="butt" stroke-miterlimit="10" fill="none" d="
M 403.569241333008 212.13807220459012
L 415.7153190612794 216.83504486083984"/>

<path id="Layer1_0_MEMBER_1_MEMBER_7_MEMBER_1_1_STROKES" stroke="#215BDF" stroke-width="3" stroke-linejoin="miter" stroke-linecap="butt" stroke-miterlimit="10" fill="none" d="
M 953.7021636962891 534.3210403442383
L 953.7021636962891 762.8948112487794 680.8741035461426 657.5064872741702"/>

<path id="Layer1_0_MEMBER_1_MEMBER_8_MEMBER_1_1_STROKES" stroke="#215BDF" stroke-width="3" stroke-linejoin="miter" stroke-linecap="butt" stroke-miterlimit="10" fill="none" d="
M 594.1635848999022 285.78513565063486
L 594.1635848999022 87.66829681396484 953.7021636962891 226.55924606323242 953.7021636962891 522.1015724182132"/>

<path id="Layer1_0_MEMBER_1_MEMBER_9_MEMBER_0_1_STROKES" stroke="#215BDF" stroke-width="3" stroke-linejoin="miter" stroke-linecap="butt" stroke-miterlimit="10" fill="none" d="
M 442.0990951538088 696.036341094971
L 966.1051071166994 517.8816360473636"/>

<path id="Layer1_0_MEMBER_1_MEMBER_10_MEMBER_0_1_STROKES" stroke="#215BDF" stroke-width="3" stroke-linejoin="miter" stroke-linecap="butt" stroke-miterlimit="10" fill="none" d="
M 332.74770050048846 503.9741935729983
L 710.1567924499514 375.65143280029315"/>

<path id="Layer1_0_MEMBER_1_MEMBER_11_MEMBER_0_1_STROKES" stroke="#215BDF" stroke-width="3" stroke-linejoin="miter" stroke-linecap="butt" stroke-miterlimit="10" fill="none" d="
M 454.50203857421866 361.2669540405277
L 831.9111305236815 232.98088836669922"/>

<path id="Layer1_0_MEMBER_1_MEMBER_12_MEMBER_0_1_STROKES" stroke="#215BDF" stroke-width="3" stroke-linejoin="miter" stroke-linecap="butt" stroke-miterlimit="10" fill="none" d="
M 509.5813819885252 633.9849288940432
L 740.8338951110841 555.3840270996095"/>

<path id="Layer1_0_MEMBER_1_MEMBER_13_MEMBER_0_1_STROKES" stroke="#215BDF" stroke-width="3" stroke-linejoin="miter" stroke-linecap="butt" stroke-miterlimit="10" fill="none" d="
M 506.3522132873536 315.54486083984375
L 686.9654899597167 254.15396041870144"/>

<path id="Layer1_0_MEMBER_1_MEMBER_14_MEMBER_0_1_STROKES" stroke="#215BDF" stroke-width="3" stroke-linejoin="miter" stroke-linecap="butt" stroke-miterlimit="10" fill="none" d="
M 321.372219848633 261.67645568847684
L 321.372219848633 378.55034561157254"/>

<path id="Layer1_0_MEMBER_1_MEMBER_15_MEMBER_0_1_STROKES" stroke="#215BDF" stroke-width="3" stroke-linejoin="miter" stroke-linecap="butt" stroke-miterlimit="10" fill="none" d="
M 321.372219848633 239.98965225219763
L 321.372219848633 248.5763053894043"/>

<path id="Layer1_0_MEMBER_1_MEMBER_16_MEMBER_1_1_STROKES" stroke="#215BDF" stroke-width="3" stroke-linejoin="miter" stroke-linecap="butt" stroke-miterlimit="10" fill="none" d="
M 156.50114059448242 284.83106307983417
L 387.79034881591815 206.046685791016 321.372219848633 180.39681167602566 321.372219848633 228.39400100708008"/>

<path id="Layer1_0_MEMBER_1_MEMBER_17_MEMBER_0_1_STROKES" stroke="#215BDF" stroke-width="3" stroke-linejoin="miter" stroke-linecap="butt" stroke-miterlimit="10" fill="none" d="
M 271.8338363647463 265.74961166381854
L 464.62988586425763 200.21216506958035"/>
</defs>

<g transform="matrix( 0.7339019775390625, 0, 0, 0.7339019775390625, 3231,2460.3) ">
<use xlink:href="#Layer1_0_MEMBER_0_FILL"/>
</g>

<g transform="matrix( 0.7339019775390625, 0, 0, 0.7339019775390625, 3231,2460.3) ">
<use xlink:href="#Layer1_0_MEMBER_1_MEMBER_0_MEMBER_0_FILL"/>
</g>

<g transform="matrix( 0.7339019775390625, 0, 0, 0.7339019775390625, 3231,2460.3) ">
<use xlink:href="#Layer1_0_MEMBER_1_MEMBER_0_MEMBER_1_1_STROKES" transform="matrix( 1.362579345703125, 0, 0, 1.362579345703125, -4402.45,-3352.35) "/>
</g>

<g transform="matrix( 0.7339019775390625, 0, 0, 0.7339019775390625, 3231,2460.3) ">
<use xlink:href="#Layer1_0_MEMBER_1_MEMBER_1_MEMBER_0_FILL"/>
</g>

<g transform="matrix( 0.7339019775390625, 0, 0, 0.7339019775390625, 3231,2460.3) ">
<use xlink:href="#Layer1_0_MEMBER_1_MEMBER_1_MEMBER_1_1_STROKES" transform="matrix( 1.362579345703125, 0, 0, 1.362579345703125, -4402.45,-3352.35) "/>
</g>

<g transform="matrix( 0.7339019775390625, 0, 0, 0.7339019775390625, 3231,2460.3) ">
<use xlink:href="#Layer1_0_MEMBER_1_MEMBER_2_MEMBER_0_1_STROKES" transform="matrix( 1.362579345703125, 0, 0, 1.362579345703125, -4402.45,-3352.35) "/>
</g>

<g transform="matrix( 0.7339019775390625, 0, 0, 0.7339019775390625, 3231,2460.3) ">
<use xlink:href="#Layer1_0_MEMBER_1_MEMBER_3_MEMBER_0_FILL"/>
</g>

<g transform="matrix( 0.7339019775390625, 0, 0, 0.7339019775390625, 3231,2460.3) ">
<use xlink:href="#Layer1_0_MEMBER_1_MEMBER_3_MEMBER_1_1_STROKES" transform="matrix( 1.362579345703125, 0, 0, 1.362579345703125, -4402.45,-3352.35) "/>
</g>

<g transform="matrix( 0.7339019775390625, 0, 0, 0.7339019775390625, 3231,2460.3) ">
<use xlink:href="#Layer1_0_MEMBER_1_MEMBER_4_MEMBER_0_1_STROKES" transform="matrix( 1.362579345703125, 0, 0, 1.362579345703125, -4402.45,-3352.35) "/>
</g>

<g transform="matrix( 0.7339019775390625, 0, 0, 0.7339019775390625, 3231,2460.3) ">
<use xlink:href="#Layer1_0_MEMBER_1_MEMBER_5_MEMBER_0_1_STROKES" transform="matrix( 1.362579345703125, 0, 0, 1.362579345703125, -4402.45,-3352.35) "/>
</g>

<g transform="matrix( 0.7339019775390625, 0, 0, 0.7339019775390625, 3231,2460.3) ">
<use xlink:href="#Layer1_0_MEMBER_1_MEMBER_6_MEMBER_0_1_STROKES" transform="matrix( 1.362579345703125, 0, 0, 1.362579345703125, -4402.45,-3352.35) "/>
</g>

<g transform="matrix( 0.7339019775390625, 0, 0, 0.7339019775390625, 3231,2460.3) ">
<use xlink:href="#Layer1_0_MEMBER_1_MEMBER_7_MEMBER_0_FILL"/>
</g>

<g transform="matrix( 0.7339019775390625, 0, 0, 0.7339019775390625, 3231,2460.3) ">
<use xlink:href="#Layer1_0_MEMBER_1_MEMBER_7_MEMBER_1_1_STROKES" transform="matrix( 1.362579345703125, 0, 0, 1.362579345703125, -4402.45,-3352.35) "/>
</g>

<g transform="matrix( 0.7339019775390625, 0, 0, 0.7339019775390625, 3231,2460.3) ">
<use xlink:href="#Layer1_0_MEMBER_1_MEMBER_8_MEMBER_0_FILL"/>
</g>

<g transform="matrix( 0.7339019775390625, 0, 0, 0.7339019775390625, 3231,2460.3) ">
<use xlink:href="#Layer1_0_MEMBER_1_MEMBER_8_MEMBER_1_1_STROKES" transform="matrix( 1.362579345703125, 0, 0, 1.362579345703125, -4402.45,-3352.35) "/>
</g>

<g transform="matrix( 0.7339019775390625, 0, 0, 0.7339019775390625, 3231,2460.3) ">
<use xlink:href="#Layer1_0_MEMBER_1_MEMBER_9_MEMBER_0_1_STROKES" transform="matrix( 1.362579345703125, 0, 0, 1.362579345703125, -4402.45,-3352.35) "/>
</g>

<g transform="matrix( 0.7339019775390625, 0, 0, 0.7339019775390625, 3231,2460.3) ">
<use xlink:href="#Layer1_0_MEMBER_1_MEMBER_10_MEMBER_0_1_STROKES" transform="matrix( 1.362579345703125, 0, 0, 1.362579345703125, -4402.45,-3352.35) "/>
</g>

<g transform="matrix( 0.7339019775390625, 0, 0, 0.7339019775390625, 3231,2460.3) ">
<use xlink:href="#Layer1_0_MEMBER_1_MEMBER_11_MEMBER_0_1_STROKES" transform="matrix( 1.362579345703125, 0, 0, 1.362579345703125, -4402.45,-3352.35) "/>
</g>

<g transform="matrix( 0.7339019775390625, 0, 0, 0.7339019775390625, 3231,2460.3) ">
<use xlink:href="#Layer1_0_MEMBER_1_MEMBER_12_MEMBER_0_1_STROKES" transform="matrix( 1.362579345703125, 0, 0, 1.362579345703125, -4402.45,-3352.35) "/>
</g>

<g transform="matrix( 0.7339019775390625, 0, 0, 0.7339019775390625, 3231,2460.3) ">
<use xlink:href="#Layer1_0_MEMBER_1_MEMBER_13_MEMBER_0_1_STROKES" transform="matrix( 1.362579345703125, 0, 0, 1.362579345703125, -4402.45,-3352.35) "/>
</g>

<g transform="matrix( 0.7339019775390625, 0, 0, 0.7339019775390625, 3231,2460.3) ">
<use xlink:href="#Layer1_0_MEMBER_1_MEMBER_14_MEMBER_0_1_STROKES" transform="matrix( 1.362579345703125, 0, 0, 1.362579345703125, -4402.45,-3352.35) "/>
</g>

<g transform="matrix( 0.7339019775390625, 0, 0, 0.7339019775390625, 3231,2460.3) ">
<use xlink:href="#Layer1_0_MEMBER_1_MEMBER_15_MEMBER_0_1_STROKES" transform="matrix( 1.362579345703125, 0, 0, 1.362579345703125, -4402.45,-3352.35) "/>
</g>

<g transform="matrix( 0.7339019775390625, 0, 0, 0.7339019775390625, 3231,2460.3) ">
<use xlink:href="#Layer1_0_MEMBER_1_MEMBER_16_MEMBER_0_FILL"/>
</g>

<g transform="matrix( 0.7339019775390625, 0, 0, 0.7339019775390625, 3231,2460.3) ">
<use xlink:href="#Layer1_0_MEMBER_1_MEMBER_16_MEMBER_1_1_STROKES" transform="matrix( 1.362579345703125, 0, 0, 1.362579345703125, -4402.45,-3352.35) "/>
</g>

<g transform="matrix( 0.7339019775390625, 0, 0, 0.7339019775390625, 3231,2460.3) ">
<use xlink:href="#Layer1_0_MEMBER_1_MEMBER_17_MEMBER_0_1_STROKES" transform="matrix( 1.362579345703125, 0, 0, 1.362579345703125, -4402.45,-3352.35) "/>
</g>

<g transform="matrix( 0.7339019775390625, 0, 0, 0.7339019775390625, 3231,2460.3) ">
<use xlink:href="#Layer1_0_MEMBER_2_MEMBER_0_MEMBER_0_FILL"/>
</g>

<g transform="matrix( 0.7339019775390625, 0, 0, 0.7339019775390625, 3231,2460.3) ">
<use xlink:href="#Layer1_0_MEMBER_2_MEMBER_0_MEMBER_1_FILL"/>
</g>

<g transform="matrix( 0.7339019775390625, 0, 0, 0.7339019775390625, 3231,2460.3) ">
<use xlink:href="#Layer1_0_MEMBER_2_MEMBER_0_MEMBER_2_FILL"/>
</g>

<g transform="matrix( 0.7339019775390625, 0, 0, 0.7339019775390625, 3231,2460.3) ">
<use xlink:href="#Layer1_0_MEMBER_2_MEMBER_0_MEMBER_3_FILL"/>
</g>

<g transform="matrix( 0.7339019775390625, 0, 0, 0.7339019775390625, 3231,2460.3) ">
<use xlink:href="#Layer1_0_MEMBER_2_MEMBER_0_MEMBER_4_FILL"/>
</g>

<g transform="matrix( 0.7339019775390625, 0, 0, 0.7339019775390625, 3231,2460.3) ">
<use xlink:href="#Layer1_0_MEMBER_2_MEMBER_0_MEMBER_5_FILL"/>
</g>

<g transform="matrix( 0.7339019775390625, 0, 0, 0.7339019775390625, 3231,2460.3) ">
<use xlink:href="#Layer1_0_MEMBER_2_MEMBER_0_MEMBER_6_FILL"/>
</g>

<g transform="matrix( 0.7339019775390625, 0, 0, 0.7339019775390625, 3231,2460.3) ">
<use xlink:href="#Layer1_0_MEMBER_2_MEMBER_0_MEMBER_7_FILL"/>
</g>
</svg>
