<svg id="Layer_1" data-name="Layer 1" xmlns="http://www.w3.org/2000/svg" viewBox="0 0 921.96378 758.10825"><defs><style>.cls-1{fill:#fff;}.cls-2{fill:none;stroke:#0e57e7;stroke-miterlimit:9.9999;stroke-width:2.99997px;}.cls-3{fill:#215bdf;}</style></defs><g id="Layer0_0_MEMBER_0_MEMBER_0_FILL" data-name="Layer0 0 MEMBER 0 MEMBER 0 FILL"><path class="cls-1" d="M591.93056,20.51209Q570.868,32.6946,549.80545,56.39917q-44.58363,50.23437-82.45216,143.14455-37.86852-92.91-82.45215-143.14455Q363.83856,32.69451,342.776,20.51209,322.04374,8.513,302.44894,8.403V56.39917l.03668.03664q-42.08833-23.74122-84.25014-35.92372Q176.73411,8.513,137.54458,8.403V64.43519q-29.5023-2.97233-63.95824-4.25658-28.51154-1.064-65.71951-1.13747V622.556q69.20542.10992,116.87146,4.18312,61.24283,5.24749,112.87177,18.49391A565.35765,565.35765,0,0,1,350.48183,687.505q58.93116,29.61249,116.87146,75.59033,57.94039-45.97794,116.87146-75.59033a565.357,565.357,0,0,1,112.87177-42.27195q51.66561-13.24652,112.87179-18.49391,47.666-4.073,116.87145-4.18312V59.04114q-37.20805.07338-65.71955,1.13747-34.456,1.28427-63.95823,4.25658V8.403q-39.15283.11006-80.69083,12.10913-42.1251,12.18251-84.2135,35.88708V8.403Q612.69957,8.513,591.93056,20.51209Z" transform="translate(-6.36923 -6.88833)"/></g><path id="Layer0_0_MEMBER_0_MEMBER_1_1_STROKES" data-name="Layer0 0 MEMBER 0 MEMBER 1 1 STROKES" class="cls-2" d="M697.09208,81.71135q51.66507-13.24653,112.90739-18.49378,47.62883-4.073,116.83356-4.18311V622.54378q-69.20485.11015-116.87031,4.18313-61.20551,5.2472-112.87064,18.49377a565.35256,565.35256,0,0,0-112.87065,42.27143q-58.93053,29.61207-116.8703,75.58959-57.93981-45.97752-116.8703-75.58959a565.35132,565.35132,0,0,0-112.87064-42.27143q-51.62844-13.24644-112.87068-18.49377Q77.074,622.65386,7.86922,622.54378V59.03446q69.20483.1101,116.87029,4.18311,61.24224,5.24725,112.87068,18.49378a562.36974,562.36974,0,0,1,112.87064,42.27146q58.9305,29.57532,116.8703,75.55287" transform="translate(-6.36923 -6.88833)"/><path id="Layer0_0_MEMBER_0_MEMBER_2_1_STROKES" data-name="Layer0 0 MEMBER 0 MEMBER 2 1 STROKES" class="cls-2" d="M137.54572,64.68533V8.39678q48.03242.14679,99.1838,18.01675,52.25224,18.23691,103.29353,53.4998" transform="translate(-6.36923 -6.88833)"/><path id="Layer0_0_MEMBER_0_MEMBER_3_1_STROKES" data-name="Layer0 0 MEMBER 0 MEMBER 3 1 STROKES" class="cls-2" d="M797.15658,64.68533V8.39678q-39.15241.1101-80.65338,12.109-42.12473,12.1824-84.24935,35.88672-89.23977,50.27076-164.90272,143.14317" transform="translate(-6.36923 -6.88833)"/><path id="Layer0_0_MEMBER_0_MEMBER_4_1_STROKES" data-name="Layer0 0 MEMBER 0 MEMBER 4 1 STROKES" class="cls-2" d="M302.44841,56.39251V8.39678q19.59456.1101,40.32669,12.109,21.06237,12.1824,42.12467,35.88672,44.58318,50.234,82.45136,143.14317" transform="translate(-6.36923 -6.88833)"/><path id="Layer0_0_MEMBER_0_MEMBER_5_1_STROKES" data-name="Layer0 0 MEMBER 0 MEMBER 5 1 STROKES" class="cls-2" d="M632.25385,56.39251V8.39678q-19.55793.1101-40.32668,12.109-21.06232,12.1824-42.12471,35.88672-44.58317,50.234-82.45133,143.14317" transform="translate(-6.36923 -6.88833)"/><path id="Layer0_0_MEMBER_0_MEMBER_6_1_STROKES" data-name="Layer0 0 MEMBER 0 MEMBER 6 1 STROKES" class="cls-2" d="M467.35113,199.53568V8.39678" transform="translate(-6.36923 -6.88833)"/><path id="Layer0_0_MEMBER_0_MEMBER_7_1_STROKES" data-name="Layer0 0 MEMBER 0 MEMBER 7 1 STROKES" class="cls-2" d="M467.35113,199.53568,517.98881,8.39678" transform="translate(-6.36923 -6.88833)"/><path id="Layer0_0_MEMBER_0_MEMBER_8_1_STROKES" data-name="Layer0 0 MEMBER 0 MEMBER 8 1 STROKES" class="cls-2" d="M467.35113,199.53568,416.71345,8.39678" transform="translate(-6.36923 -6.88833)"/><g id="Layer0_0_MEMBER_1_MEMBER_0_FILL" data-name="Layer0 0 MEMBER 1 MEMBER 0 FILL"><path class="cls-3" d="M324.86917,362.53994a62.63024,62.63024,0,0,0-10.16432-.69715H295.22017v63.738h19.11774a81.82542,81.82542,0,0,0,9.90747-.47705,25.14579,25.14579,0,0,0,7.66913-2.12819q8.95338-4.44015,8.95342-14.86121.00007-6.238-3.3759-10.0543t-9.79737-4.88037v-.25684a15.3983,15.3983,0,0,0,8.84332-5.284,14.41966,14.41966,0,0,0,3.00892-9.21031q-.00006-9.06343-7.19208-13.43008a22.99244,22.99244,0,0,0-7.48565-2.45859m-.29353,9.90747q4.10978,2.05506,4.10975,7.41233a7.60383,7.60383,0,0,1-4.95374,7.559q-3.33918,1.46769-9.46711,1.46777h-7.88928V370.90627h8.25622q6.86178,0,9.94416,1.54114M306.37526,397.84H314.448q7.81587.00014,11.19177,1.83472,3.88959,2.12829,3.88959,7.559,0,5.50415-4.44,7.74254-3.37593,1.65124-10.201,1.65125h-8.51307Z" transform="translate(-6.36923 -6.88833)"/></g><g id="Layer0_0_MEMBER_1_MEMBER_1_FILL" data-name="Layer0 0 MEMBER 1 MEMBER 1 FILL"><path class="cls-3" d="M386.73585,385.62073q-6.20137-6.56842-16.54918-6.56834-10.27446-.00014-16.439,6.56834-6.128,6.53162-6.128,17.31971t6.09129,17.31971q6.12787,6.56842,16.40235,6.56834,10.42113.00014,16.62255-6.56834,6.12787-6.53162,6.12794-17.31971t-6.12794-17.31971m-25.09893,5.761a9.907,9.907,0,0,1,8.54975-4.25658,10.097,10.097,0,0,1,8.62317,4.25658q3.08231,4.21989,3.08233,11.55871,0,7.37565-3.08233,11.55872a10.22864,10.22864,0,0,1-8.69654,4.25658,9.81922,9.81922,0,0,1-8.51307-4.32995q-3.00894-4.18322-3.009-11.48535Q358.59127,395.56481,361.63692,391.38173Z" transform="translate(-6.36923 -6.88833)"/></g><g id="Layer0_0_MEMBER_1_MEMBER_2_FILL" data-name="Layer0 0 MEMBER 1 MEMBER 2 FILL"><path class="cls-3" d="M438.25466,385.62073q-6.16461-6.56842-16.51245-6.56834-10.31108-.00014-16.439,6.56834-6.128,6.53162-6.128,17.31971t6.09129,17.31971q6.12788,6.56842,16.40235,6.56834,10.38452.00014,16.58582-6.56834,6.128-6.53162,6.128-17.31971t-6.128-17.31971m-16.51245,1.50442a10.00174,10.00174,0,0,1,8.58649,4.25658q3.08238,4.18306,3.08233,11.55871t-3.08233,11.55872a10.13263,10.13263,0,0,1-8.65986,4.25658,9.81922,9.81922,0,0,1-8.51307-4.32995q-3.00894-4.18322-3.009-11.48535,0-7.37564,3.04565-11.55871A9.907,9.907,0,0,1,421.74221,387.12515Z" transform="translate(-6.36923 -6.88833)"/></g><g id="Layer0_0_MEMBER_1_MEMBER_3_FILL" data-name="Layer0 0 MEMBER 1 MEMBER 3 FILL"><path class="cls-3" d="M464.1609,361.84279H453.6296v63.738h10.5313V403.12391l16.58582,22.45692H493.92l-19.22784-25.02552,17.39312-20.25526H479.49911L464.1609,399.08754Z" transform="translate(-6.36923 -6.88833)"/></g><g id="Layer0_0_MEMBER_1_MEMBER_4_FILL" data-name="Layer0 0 MEMBER 1 MEMBER 4 FILL"><path class="cls-3" d="M509.62515,361.84279H499.09389v63.738h10.53126Z" transform="translate(-6.36923 -6.88833)"/></g><g id="Layer0_0_MEMBER_1_MEMBER_5_FILL" data-name="Layer0 0 MEMBER 1 MEMBER 5 FILL"><path class="cls-3" d="M561.18069,396.37219a26.3956,26.3956,0,0,0-2.82545-7.99938,17.12559,17.12559,0,0,0-6.64166-6.75181,21.15468,21.15468,0,0,0-10.64136-2.56861q-10.09089-.00014-16.25561,6.75181-5.98113,6.56831-5.98115,16.95277,0,11.33847,5.61421,17.61328,5.79769,6.45824,16.62255,6.45824,8.3296.00014,13.61359-3.66943a18.34948,18.34948,0,0,0,7.19208-11.08176H550.7228q-2.275,7.00878-9.57721,7.00865a10.26753,10.26753,0,0,1-8.36628-3.6327q-2.8622-3.44937-3.04565-9.43052h32.21765a52.60058,52.60058,0,0,0-.77062-9.65054m-20.65888-9.68736a9.8233,9.8233,0,0,1,7.30218,2.89891q2.97225,3.08225,3.41254,8.69654H529.55019q.44029-5.61433,3.52265-8.69654A10.08344,10.08344,0,0,1,540.52181,386.68483Z" transform="translate(-6.36923 -6.88833)"/></g><g id="Layer0_0_MEMBER_1_MEMBER_6_FILL" data-name="Layer0 0 MEMBER 1 MEMBER 6 FILL"><path class="cls-3" d="M565.54733,380.30005v8.07276h7.30218v23.44764q0,7.70581,3.00891,11.15514,3.04563,3.41255,9.79742,3.4125a26.76954,26.76954,0,0,0,6.78845-.80726v-8.07275a16.90612,16.90612,0,0,1-3.59606.36694q-3.08232,0-4.32991-1.98146-1.13757-1.83466-1.13756-6.2014V388.37281h8.95343v-8.07276h-8.95343V369.03491H572.84951v11.26514Z" transform="translate(-6.36923 -6.88833)"/></g><g id="Layer0_0_MEMBER_1_MEMBER_7_FILL" data-name="Layer0 0 MEMBER 1 MEMBER 7 FILL"><path class="cls-3" d="M622.38686,399.60122a69.5288,69.5288,0,0,1-9.28366-2.67861q-4.18314-1.83468-4.18314-5.0272a4.44668,4.44668,0,0,1,2.09156-3.8529,9.61,9.61,0,0,1,5.57754-1.431q4.29323,0,6.3848,1.76135,2.09157,1.798,2.31176,5.79772H635.7069q0-7.41219-4.88034-11.30187-4.807-3.81636-13.90716-3.81627-8.65985-.00014-13.76038,3.77954a11.64606,11.64606,0,0,0-5.10052,9.90747,10.93242,10.93242,0,0,0,5.54088,9.9442q3.119,1.908,11.30183,3.8529a39.07079,39.07079,0,0,1,7.66912,2.38514q3.22912,1.68778,3.2291,4.73353a4.79393,4.79393,0,0,1-2.23835,4.14648,10.846,10.846,0,0,1-6.01788,1.46777q-9.65059,0-9.6506-8.14612H597.06777q.22019,7.66913,5.46746,11.70545,5.21061,3.99978,14.93458,3.99974,8.91674.00014,14.05395-3.74289a12.03044,12.03044,0,0,0,5.17389-10.31106,10.59712,10.59712,0,0,0-4.5134-9.10021Q629.212,401.47268,622.38686,399.60122Z" transform="translate(-6.36923 -6.88833)"/></g></svg>