<svg id="Layer_1" data-name="Layer 1" xmlns="http://www.w3.org/2000/svg" viewBox="0 0 921.96381 758.07158"><defs><style>.cls-1{fill:#fff;}.cls-2{fill:none;stroke:#0e57e7;stroke-miterlimit:9.9999;stroke-width:2.99997px;}.cls-3{fill:#215bdf;}</style></defs><g id="Layer1_0_MEMBER_0_MEMBER_0_FILL" data-name="Layer1 0 MEMBER 0 MEMBER 0 FILL"><path class="cls-1" d="M859.10887,56.60128q-34.3826,1.28428-63.95822,4.25654V4.86226q-39.11619.0734-80.65415,12.07244Q672.37142,29.11722,630.283,52.82176V4.86226q-19.55808.11008-40.32708,12.07244Q568.85665,29.11722,547.8308,52.82176q-44.6203,50.27126-82.45215,143.1813Q427.54675,103.093,382.92649,52.82176,361.86391,29.11722,340.80138,16.9347q-20.769-11.96235-40.32709-12.07244v47.9595l.03669.0367q-42.16179-23.74123-84.25014-35.88707Q174.72278,4.93566,135.56994,4.86226V60.85782q-29.5023-2.97223-63.95825-4.25654-28.51152-1.06413-65.7195-1.13753V619.01536q69.20542.11006,116.87146,4.18316,61.24281,5.24729,112.87172,18.49395a562.375,562.375,0,0,1,112.87182,42.27186q58.93116,29.5756,116.87146,75.55365,57.94032-45.97807,116.87146-75.55365a562.37467,562.37467,0,0,1,112.87176-42.27186q51.66561-13.24663,112.8718-18.49395,47.70264-4.07309,116.87145-4.18316V55.46375Q887.84053,55.53715,859.10887,56.60128Z" transform="translate(-4.4113 -3.35401)"/></g><path id="Layer1_0_MEMBER_0_MEMBER_1_1_STROKES" data-name="Layer1 0 MEMBER 0 MEMBER 1 1 STROKES" class="cls-2" d="M695.13418,78.14033Q746.76264,64.8938,808.00482,59.64657q47.62884-4.07305,116.8703-4.18311v563.546q-69.16823.11-116.8703,4.18312-61.2056,5.2472-112.87064,18.49377a562.36711,562.36711,0,0,0-112.87065,42.27144Q523.333,713.53316,465.3932,759.51071q-57.93976-45.97752-116.8703-75.5529a562.36711,562.36711,0,0,0-112.87065-42.27144q-51.62842-13.24653-112.87066-18.49377-47.66547-4.07295-116.8703-4.18312V55.46346q69.20483.11007,116.8703,4.18311,61.24222,5.24724,112.87066,18.49376A565.34944,565.34944,0,0,1,348.5229,120.41179q58.93053,29.612,116.8703,75.58958" transform="translate(-4.4113 -3.35401)"/><path id="Layer1_0_MEMBER_0_MEMBER_2_1_STROKES" data-name="Layer1 0 MEMBER 0 MEMBER 2 1 STROKES" class="cls-2" d="M135.58779,61.11433V4.86246q47.99569.11009,99.14711,17.98005,52.2155,18.2736,103.29354,53.49982" transform="translate(-4.4113 -3.35401)"/><path id="Layer1_0_MEMBER_0_MEMBER_3_1_STROKES" data-name="Layer1 0 MEMBER 0 MEMBER 3 1 STROKES" class="cls-2" d="M795.16193,61.11433V4.86246q-39.15241.11009-80.65337,12.07233-42.12465,12.18239-84.21267,35.8867Q541.05621,103.09222,465.3932,196.00137" transform="translate(-4.4113 -3.35401)"/><path id="Layer1_0_MEMBER_0_MEMBER_4_1_STROKES" data-name="Layer1 0 MEMBER 0 MEMBER 4 1 STROKES" class="cls-2" d="M300.49051,52.82149V4.86246q19.5579.11009,40.32665,12.07233,21.06232,12.18239,42.12468,35.8867,44.61988,50.27073,82.45136,143.17988" transform="translate(-4.4113 -3.35401)"/><path id="Layer1_0_MEMBER_0_MEMBER_5_1_STROKES" data-name="Layer1 0 MEMBER 0 MEMBER 5 1 STROKES" class="cls-2" d="M630.29589,52.82149V4.86246q-19.55784.11009-40.32662,12.07233-21.099,12.18239-42.12471,35.8867-44.61988,50.27073-82.45136,143.17988" transform="translate(-4.4113 -3.35401)"/><path id="Layer1_0_MEMBER_0_MEMBER_6_1_STROKES" data-name="Layer1 0 MEMBER 0 MEMBER 6 1 STROKES" class="cls-2" d="M465.3932,196.00137V4.86246" transform="translate(-4.4113 -3.35401)"/><path id="Layer1_0_MEMBER_0_MEMBER_7_1_STROKES" data-name="Layer1 0 MEMBER 0 MEMBER 7 1 STROKES" class="cls-2" d="M465.3932,196.00137l50.601-191.13891" transform="translate(-4.4113 -3.35401)"/><path id="Layer1_0_MEMBER_0_MEMBER_8_1_STROKES" data-name="Layer1 0 MEMBER 0 MEMBER 8 1 STROKES" class="cls-2" d="M465.3932,196.00137,414.75552,4.86246" transform="translate(-4.4113 -3.35401)"/><g id="Layer1_0_MEMBER_1_MEMBER_0_FILL" data-name="Layer1 0 MEMBER 1 MEMBER 0 FILL"><path class="cls-3" d="M293.24553,358.26541v63.77478h11.11835V396.20737h27.66754V386.9971H304.36388V367.51237h29.79583v-9.247Z" transform="translate(-4.4113 -3.35401)"/></g><g id="Layer1_0_MEMBER_1_MEMBER_1_FILL" data-name="Layer1 0 MEMBER 1 MEMBER 1 FILL"><path class="cls-3" d="M374.11985,380.75906q-4.40325-5.284-14.67773-5.284-8.91676,0-14.20074,3.99969a14.00209,14.00209,0,0,0-5.57752,11.11836h10.82483a7.22471,7.22471,0,0,1,2.34845-5.65094q2.31171-1.98149,6.605-1.98146,8.25628,0,8.25622,8.58644V393.492q-2.86219.36691-9.50384,1.06414a52.956,52.956,0,0,0-9.65063,2.01819q-10.53126,3.5226-10.53125,12.8797,0,6.38481,4.07306,9.90747,4.10976,3.55937,11.63208,3.55934a20.89176,20.89176,0,0,0,8.84338-1.68793,18.00962,18.00962,0,0,0,6.34809-5.10053q.18342,4.21983.44036,5.90783h9.57721a89.622,89.622,0,0,1-.954-14.23742V395.14322q.00006-9.76067-3.85291-14.38416m-12.69628,20.65888q4.29327-.44036,6.27477-.73388v1.94482q.00008,6.972-3.15575,10.201-2.75214,2.78883-8.10944,2.78881a8.28738,8.28738,0,0,1-5.6142-1.72466,5.74375,5.74375,0,0,1-1.90813-4.58679q0-4.99043,6.4215-6.78846A43.742,43.742,0,0,1,361.42357,401.41794Z" transform="translate(-4.4113 -3.35401)"/></g><g id="Layer1_0_MEMBER_1_MEMBER_2_FILL" data-name="Layer1 0 MEMBER 1 MEMBER 2 FILL"><path class="cls-3" d="M426.26249,382.08005a12.46343,12.46343,0,0,0-4.77026-4.55011,16.768,16.768,0,0,0-7.9627-1.68793,19.49589,19.49589,0,0,0-7.85255,1.57783,16.28754,16.28754,0,0,0-6.5683,5.17394v-5.8711h-9.724v45.31751h10.53125v-22.934q0-7.926,2.642-11.63213,2.49521-3.55937,7.6324-3.55934,4.95373,0,6.86186,3.8896,1.39438,2.8622,1.39436,8.95342v25.28241h10.5313V396.0239Q428.978,386.66684,426.26249,382.08005Z" transform="translate(-4.4113 -3.35401)"/></g><g id="Layer1_0_MEMBER_1_MEMBER_3_FILL" data-name="Layer1 0 MEMBER 1 MEMBER 3 FILL"><path class="cls-3" d="M472.8643,376.72268H437.67442v8.14613H451.178q2.09153,0,5.43073-.1101,4.10983-.14674,5.3941-.33022l-25.3191,29.61232v7.99938H473.745v-8.18286H459.17729q-8.036,0-11.33855.367L472.8643,384.612Z" transform="translate(-4.4113 -3.35401)"/></g><g id="Layer1_0_MEMBER_1_MEMBER_4_FILL" data-name="Layer1 0 MEMBER 1 MEMBER 4 FILL"><path class="cls-3" d="M492.45908,368.90677V358.26541h-10.5313v10.64136h10.5313m0,7.81591h-10.5313v45.31751h10.5313Z" transform="translate(-4.4113 -3.35401)"/></g><g id="Layer1_0_MEMBER_1_MEMBER_5_FILL" data-name="Layer1 0 MEMBER 1 MEMBER 5 FILL"><path class="cls-3" d="M541.446,382.08005a12.20691,12.20691,0,0,0-4.73358-4.55011,16.99222,16.99222,0,0,0-7.99938-1.68793,19.23675,19.23675,0,0,0-7.81587,1.57783,16.28751,16.28751,0,0,0-6.56829,5.17394v-5.8711h-9.76068v45.31751h10.53125v-22.934q0-7.926,2.642-11.63213,2.4952-3.55937,7.63244-3.55934,4.99041,0,6.86182,3.8896,1.39438,2.82545,1.3944,8.95342v25.28241h10.53126V396.0239Q544.16137,386.5934,541.446,382.08005Z" transform="translate(-4.4113 -3.35401)"/></g><g id="Layer1_0_MEMBER_1_MEMBER_6_FILL" data-name="Layer1 0 MEMBER 1 MEMBER 6 FILL"><path class="cls-3" d="M585.69938,378.04367a21.07934,21.07934,0,0,0-10.60467-2.5686q-10.12765,0-16.25561,6.75176-5.98113,6.605-5.98115,16.98945,0,11.30186,5.61421,17.5766,5.79769,6.45817,16.62255,6.45819,8.32961,0,13.61359-3.63274A18.36607,18.36607,0,0,0,595.90038,408.5h-11.155q-2.2751,7.04533-9.57726,7.04529a10.26744,10.26744,0,0,1-8.36628-3.63274q-2.86213-3.44923-3.04565-9.46712H595.9738a52.97917,52.97917,0,0,0-.77057-9.65062,26.87831,26.87831,0,0,0-2.8255-7.99934,17.37328,17.37328,0,0,0-6.67835-6.75177m-11.15508,5.10052a9.70246,9.70246,0,0,1,7.26549,2.89882q3.00894,3.04563,3.44923,8.6599H563.57268q.44036-5.61427,3.52265-8.6599A10.08369,10.08369,0,0,1,574.5443,383.14419Z" transform="translate(-4.4113 -3.35401)"/></g><g id="Layer1_0_MEMBER_1_MEMBER_7_FILL" data-name="Layer1 0 MEMBER 1 MEMBER 7 FILL"><path class="cls-3" d="M621.80662,375.47507q-8.6599,0-13.79711,3.77949a11.67978,11.67978,0,0,0-5.10047,9.9442,10.84947,10.84947,0,0,0,5.54083,9.90747q3.15569,1.90811,11.33856,3.8529a40.21024,40.21024,0,0,1,7.6324,2.38514q3.22911,1.68792,3.22911,4.73353a4.73648,4.73648,0,0,1-2.23834,4.14648,10.73525,10.73525,0,0,1-6.01788,1.46777q-9.65061,0-9.65063-8.14612H601.955q.18349,7.66905,5.43078,11.70545,5.2106,3.99972,14.93457,3.99969,8.91677,0,14.05395-3.70611a12.1253,12.1253,0,0,0,5.17389-10.34779,10.62593,10.62593,0,0,0-4.47669-9.10021q-3.00894-2.20167-9.8341-4.07306a67.22625,67.22625,0,0,1-9.24695-2.67871q-4.18322-1.83474-4.18316-5.02711a4.40931,4.40931,0,0,1,2.05487-3.8529,9.716,9.716,0,0,1,5.57757-1.43109q4.32987,0,6.38477,1.76135,2.12829,1.798,2.31176,5.79768H640.5941q0-7.37552-4.88034-11.26515Q630.87011,375.47507,621.80662,375.47507Z" transform="translate(-4.4113 -3.35401)"/></g></svg>