<svg width="568" height="440" viewBox="0 0 568 440" fill="none" xmlns="http://www.w3.org/2000/svg">
<path d="M473.395 319.085L473.307 317.849H565.945L376.993 197.198H189.717L4.08789 314.139H99.8426L4.08789 374.464H99.8426L4.08789 434.819H191.364L277.299 380.676L367.879 438.499H565.945L471.454 378.174H565.945L473.395 319.085ZM471.161 377.968L471.219 377.879L471.425 378.144L471.161 377.968Z" fill="white"/>
<path d="M281.268 317.848H376.993" stroke="#215BDF" stroke-miterlimit="10"/>
<path d="M277.299 380.675L367.879 438.527H565.945L376.993 317.848L191.393 434.818H4.08789L99.8426 374.463" stroke="#215BDF" stroke-miterlimit="10"/>
<path d="M281.268 257.522H376.993" stroke="#215BDF" stroke-miterlimit="10"/>
<path d="M471.455 378.173H565.945L376.993 257.522L191.393 374.463H4.08789L99.8426 314.138" stroke="#215BDF" stroke-miterlimit="10"/>
<path d="M471.455 317.849H565.945L376.993 197.198L191.393 314.139H4.08789L189.717 197.198H376.993" stroke="#215BDF" stroke-miterlimit="10"/>
<path d="M272.477 77.6068C243.695 30.1769 206.181 1.47168 165.139 1.47168C74.5878 1.47168 1.14746 143.202 1.14746 315.522" stroke="#215BDF" stroke-miterlimit="10"/>
<path d="M317.34 197.196C310.167 163.25 299.936 132.249 287.323 105.428" stroke="#215BDF" stroke-miterlimit="10"/>
<path d="M192.715 336.955C191.863 349.556 191.422 362.098 191.422 374.463" stroke="#215BDF" stroke-miterlimit="10"/>
<path d="M566.004 252.311C548.776 109.286 472.278 1.47168 380.551 1.47168C295.262 1.47168 223.145 135.341 199.566 278.308" stroke="#215BDF" stroke-miterlimit="10"/>
<path d="M1.55859 397.428C1.73499 413.944 1.94079 428.635 2.29359 436.32" stroke="#215BDF" stroke-miterlimit="10"/>
<path d="M1.20508 339.722C1.23448 349.997 1.29328 362.833 1.38148 375.905" stroke="#215BDF" stroke-miterlimit="10"/>
<path d="M90.9931 231.007L92.2583 233.037L96.4354 230.433L86.922 215.169L75.9522 222.006L78.4826 226.066L84.7678 222.149C87.8675 227.209 86.6818 231.743 82.5828 234.297C77.781 237.29 72.2644 234.874 68.2985 228.511C64.1135 221.797 64.5064 215.644 69.4253 212.578C72.7045 210.534 76.4342 210.865 79.0687 213.614L84.1437 210.451C80.2344 205.57 73.2921 204.693 67.0069 208.611C58.8088 213.72 57.9923 223.281 63.1505 231.557C68.8683 240.731 76.9202 243.301 84.4546 238.605C87.89 236.464 90.0348 233.122 90.0391 229.65L90.2049 229.655C90.4335 230.109 90.7011 230.538 90.9931 231.007ZM112.242 216.95L113.872 219.566L118.244 216.841L105.69 196.697L101.005 199.617L107.38 209.845C108.937 212.343 109.49 214.275 109.367 215.815C109.243 217.356 108.466 218.545 107.022 219.445C103.742 221.489 101.61 219.024 99.7606 216.057L92.7289 204.775L88.0833 207.67L95.2123 219.108C97.0372 222.036 98.5219 223.984 100.349 224.742C102.669 225.681 105.098 225.577 107.752 223.922C110.095 222.462 112.019 220.071 112.242 216.95ZM115.371 190.663L110.687 193.582L123.242 213.726L127.926 210.806L115.371 190.663ZM110.262 182.465L105.577 185.384L108.521 190.108L113.206 187.188L110.262 182.465ZM125.365 198.364C129.526 205.04 135.267 206.773 140.42 203.561C142.919 202.004 144.502 199.5 144.666 196.633L146.345 199.327L150.756 196.577L133.092 168.235L128.408 171.155L134.953 181.657C132.394 180.595 129.838 181.104 127.379 182.637C122.226 185.849 121.399 192.001 125.365 198.364ZM130.206 195.347C127.578 191.131 127.783 187.372 130.789 185.498C133.755 183.649 137.22 185.121 139.848 189.337C142.549 193.671 142.218 197.4 139.251 199.25C136.284 201.099 132.833 199.563 130.206 195.347ZM148.128 184.123C152.24 190.72 158.152 192.727 164.672 188.663C169.552 185.622 171.493 181.431 169.836 176.338L164.878 179.428C165.504 181.911 164.756 183.841 162.57 185.204C159.291 187.247 156.128 185.912 153.869 182.55L168.197 173.62C166.25 170.497 164.254 168.164 161.705 166.771C158.743 165.149 155.183 165.091 151.436 167.426C145.346 171.222 144.357 178.072 148.128 184.123ZM161.293 173.153L151.65 179.163C149.782 175.558 150.703 172.599 153.318 170.969C155.856 169.387 158.878 169.888 161.293 173.153Z" fill="#215BDF"/>
<path d="M188.702 165.086C188.702 172.952 192.658 177.46 198.73 177.46C201.674 177.46 204.342 176.172 205.998 173.826V177H211.196V143.604H205.676V155.978C204.066 153.724 201.628 152.804 198.73 152.804C192.658 152.804 188.702 157.588 188.702 165.086ZM194.406 165.086C194.406 160.118 196.568 157.036 200.11 157.036C203.606 157.036 205.768 160.118 205.768 165.086C205.768 170.192 203.514 173.182 200.018 173.182C196.522 173.182 194.406 170.054 194.406 165.086ZM216.105 149.4H218.589L216.151 156.714H219.417L222.269 149.906V143.604H216.105V149.4ZM232.884 143.604H227.088V177H232.884V143.604ZM244.164 153.264H239.196V177H244.716V165.316C244.716 160.808 245.82 157.036 249.73 157.036C252.996 157.036 253.824 159.934 253.824 163.062V177H259.344V165.316C259.344 160.808 260.448 157.036 264.404 157.036C267.67 157.036 268.406 159.934 268.406 163.062V177H273.926V162.142C273.926 159.014 273.328 156.576 271.902 154.92C270.66 153.494 268.774 152.804 266.244 152.804C262.794 152.804 259.85 153.908 258.148 156.806C256.86 153.908 254.56 152.804 251.432 152.804C248.304 152.804 245.544 154.184 244.118 156.438L244.164 153.264ZM301.973 165.132C301.973 157.634 298.155 152.804 292.083 152.804C288.955 152.804 286.379 154.092 284.677 156.438V153.264H279.525V186.246H285.045V174.286C286.517 176.494 289.093 177.46 291.991 177.46C297.879 177.46 301.973 172.952 301.973 165.132ZM296.315 165.132C296.315 170.146 294.199 173.228 290.565 173.228C287.069 173.228 284.907 170.054 284.907 165.132C284.907 160.164 287.161 157.082 290.657 157.082C294.153 157.082 296.315 160.164 296.315 165.132ZM311.576 153.264H306.378V177H311.898V166.604C311.898 160.854 313.554 157.818 318.108 157.818C318.844 157.818 319.626 157.864 320.5 158.048V153.264C319.718 153.08 318.66 153.034 317.878 153.034C315.164 153.034 313.094 154.276 311.576 156.806V153.264ZM321.83 165.04C321.83 172.814 325.786 177.644 333.468 177.644C339.218 177.644 343.082 175.114 344.37 169.916H338.528C337.746 172.354 336.09 173.596 333.514 173.596C329.65 173.596 327.672 170.79 327.534 166.742H344.416C344.416 163.062 343.956 160.026 342.53 157.496C340.874 154.552 337.884 152.62 333.468 152.62C326.292 152.62 321.83 157.91 321.83 165.04ZM338.804 162.694H327.442C327.764 158.646 330.11 156.622 333.192 156.622C336.182 156.622 338.482 158.646 338.804 162.694ZM352.762 169.41H347.104C347.242 174.792 351.014 177.644 357.776 177.644C363.986 177.644 367.85 174.884 367.85 170.284C367.85 165.73 364.078 164.396 360.352 163.384C356.81 162.51 353.314 161.866 353.314 159.336C353.314 157.634 354.878 156.576 357.316 156.576C360.306 156.576 361.732 157.726 361.87 160.532H367.344C367.344 155.334 363.802 152.62 357.5 152.62C351.428 152.62 347.61 155.472 347.61 159.796C347.61 164.994 352.394 166.052 356.442 167.018C359.524 167.754 362.146 168.352 362.146 170.744C362.146 172.584 360.444 173.688 357.822 173.688C354.464 173.688 352.762 172.262 352.762 169.41ZM375.931 169.41H370.273C370.411 174.792 374.183 177.644 380.945 177.644C387.155 177.644 391.019 174.884 391.019 170.284C391.019 165.73 387.247 164.396 383.521 163.384C379.979 162.51 376.483 161.866 376.483 159.336C376.483 157.634 378.047 156.576 380.485 156.576C383.475 156.576 384.901 157.726 385.039 160.532H390.513C390.513 155.334 386.971 152.62 380.669 152.62C374.597 152.62 370.779 155.472 370.779 159.796C370.779 164.994 375.563 166.052 379.611 167.018C382.693 167.754 385.315 168.352 385.315 170.744C385.315 172.584 383.613 173.688 380.991 173.688C377.633 173.688 375.931 172.262 375.931 169.41ZM400.71 153.264H395.19V177H400.71V153.264ZM400.71 143.604H395.19V149.17H400.71V143.604ZM416.894 152.62C409.672 152.62 405.072 157.634 405.072 165.132C405.072 172.63 409.626 177.644 416.848 177.644C424.162 177.644 428.762 172.63 428.762 165.132C428.762 157.634 424.162 152.62 416.894 152.62ZM416.894 156.852C420.758 156.852 423.012 160.026 423.012 165.132C423.012 170.238 420.758 173.412 416.848 173.412C412.984 173.412 410.822 170.146 410.822 165.132C410.822 160.026 413.03 156.852 416.894 156.852ZM438.234 156.346V153.264H433.128V177H438.648V164.994C438.648 159.336 440.534 157.036 444.03 157.036C447.848 157.036 448.354 160.21 448.354 163.752V177H453.874V163.384C453.874 160.44 453.552 157.91 452.448 156.07C451.206 154.046 449.274 152.804 445.778 152.804C443.018 152.804 440.12 153.816 438.234 156.346Z" fill="#215BDF"/>
</svg>
