<svg xmlns="http://www.w3.org/2000/svg" viewBox="0 0 930.22955 716.6977"><path d="M675.27871,277.59773a13.97275,13.97275,0,0,1,17.98023,7.926,11.753,11.753,0,0,1-.25693,8.403l8.25622,5.32068A18.08353,18.08353,0,0,0,702.139,284.9a23.60782,23.60782,0,0,0-10.1275-12.366q-9.72417-6.2748-20.10878-3.08237-9.944,3.04569-16.62246,13.39343-7.19194,11.15517-5.98111,20.91577,1.211,9.68736,10.42134,15.63182a20.43283,20.43283,0,0,0,8.76973,3.30249,15.10784,15.10784,0,0,0,8.40315-1.24766l.11.2202q-.55042.73384-1.43122,2.12829l-2.1282,3.30249,6.78845,4.36659,15.962-24.76867-17.79675-11.522-4.2564,6.605,10.201,6.56825q-3.88947,5.98119-9.2836,7.30223a13.7372,13.7372,0,0,1-16.40244-12.65955q-.33057-6.82522,4.73371-14.64109Q668.67374,280.16633,675.27871,277.59773Z" transform="translate(-7.2669 -5.17248)" style="fill:#215bdf"/><path d="M716.33982,308.4577l-7.55925-4.88036-11.99876,18.604a48.795,48.795,0,0,0-3.59633,6.34814,11.8008,11.8008,0,0,0-1.17394,5.21057q.40368,6.5683,6.42151,10.42125a16.10718,16.10718,0,0,0,6.34805,2.49523,13.521,13.521,0,0,0,7.11849-.73388l-2.75208,4.25648,7.11885,4.5868,21.13579-32.73133-7.63235-4.88037L719.055,333.74006q-3.63252,5.68758-7.48543,7.11876a7.40167,7.40167,0,0,1-7.00883-.91736q-3.63252-2.34854-3.19212-6.05456.33-2.71553,3.15557-7.11876Z" transform="translate(-7.2669 -5.17248)" style="fill:#215bdf"/><path d="M725.03645,360.41692l7.59544,4.917L753.768,332.60259l-7.63235-4.91709-21.09924,32.73142m32.36411-33.46531,4.95374-7.66908-7.59544-4.917-4.95374,7.70581Z" transform="translate(-7.2669 -5.17248)" style="fill:#215bdf"/><path d="M774.72036,345.22541a14.72581,14.72581,0,0,0-13.02649-1.87136q-6.75118,2.16485-11.74218,9.90747-5.21067,8.036-4.36641,15.04468.84389,6.82509,7.19194,10.93484a14.97219,14.97219,0,0,0,6.495,2.38513,13.49187,13.49187,0,0,0,6.75154-.91736l-2.82517,4.36668,7.15539,4.62344,29.72241-46.0514-7.5958-4.917-11.0083,17.06287q-.29347-6.38474-6.7519-10.568m-9.54052,6.34814a8.3221,8.3221,0,0,1,11.4487,7.41224q.1833,4.32994-3.15557,9.46715-3.37613,5.21067-7.44924,6.82518a8.09171,8.09171,0,0,1-7.6689-.80734,7.7721,7.7721,0,0,1-3.74289-6.64162q-.11019-4.33,3.19248-9.50389Q761.14345,353.188,765.17984,351.57355Z" transform="translate(-7.2669 -5.17248)" style="fill:#215bdf"/><path d="M822.93686,385.51581a14.96764,14.96764,0,0,0-1.68815-7.99939,18.60829,18.60829,0,0,0-6.49461-6.78845q-7.2656-4.6968-14.86121-2.6787-7.37577,1.94486-12.2195,9.46715-5.28377,8.18286-4.14639,15.30153,1.13793,7.37564,8.95356,12.43943,6.01749,3.88945,11.52181,3.70607a15.83732,15.83732,0,0,0,10.38479-4.66016l-8.03621-5.21058a7.99175,7.99175,0,0,1-10.201.62379,8.71336,8.71336,0,0,1-4.32986-6.56825,13.08953,13.08953,0,0,1,2.20166-8.21959l23.264,15.04468a45.84141,45.84141,0,0,0,3.92637-7.33887,22.86525,22.86525,0,0,0,1.7247-7.11866m-12.10913-9.5038a8.44333,8.44333,0,0,1,3.88946,5.46742,11.59851,11.59851,0,0,1-1.57779,7.88928l-15.63164-10.09094a11.31078,11.31078,0,0,1,6.56807-4.66016A8.73647,8.73647,0,0,1,810.82773,376.012Z" transform="translate(-7.2669 -5.17248)" style="fill:#215bdf"/><path d="M377.98113,242.995a20.01079,20.01079,0,0,0-6.64153-2.09165,50.846,50.846,0,0,0-7.70581-.47695H346.05706V295.211h9.504V275.06586h7.85273a50.86728,50.86728,0,0,0,8.73318-.62379,18.23061,18.23061,0,0,0,5.90764-2.09156,15.3959,15.3959,0,0,0,5.68762-5.87109,17.88858,17.88858,0,0,0,2.01819-8.62317,19.30557,19.30557,0,0,0-1.94473-8.8801,13.78165,13.78165,0,0,0-5.83454-5.98111M355.561,267.28668V248.20562h7.70581q5.68743,0,7.92583,1.13747a8.22552,8.22552,0,0,1,3.52287,3.30249,9.449,9.449,0,0,1,1.17429,4.77027q0,5.98119-4.47678,8.51315-2.45859,1.35764-8.21967,1.35768Z" transform="translate(-7.2669 -5.17248)" style="fill:#215bdf"/><path d="M400.87854,262.0761v-5.79773h-8.54971V295.211h9.06357V278.14815q0-7.302,2.31168-10.71473,2.422-3.66948,7.88928-3.66944a19.65192,19.65192,0,0,1,3.92636.36695v-7.85256a20.12318,20.12318,0,0,0-4.29331-.36694Q404.58435,255.91143,400.87854,262.0761Z" transform="translate(-7.2669 -5.17248)" style="fill:#215bdf"/><path d="M430.74787,256.27837H421.6843V295.211h9.06357V256.27837m0-6.71508v-9.13685H421.6843v9.13685Z" transform="translate(-7.2669 -5.17248)" style="fill:#215bdf"/><path d="M461.93806,255.50776a16.47471,16.47471,0,0,0-6.71535,1.35767,13.73865,13.73865,0,0,0-5.65071,4.47678v-5.06384h-8.40315V295.211h9.06357V275.50617q0-6.82509,2.27512-9.98084,2.128-3.04555,6.56807-3.04565,4.29314,0,5.908,3.33922,1.17393,2.42178,1.17429,7.66908v21.723h9.06321V272.8642q0-8.10949-2.34822-11.999a10.778,10.778,0,0,0-4.07329-3.92628A14.77027,14.77027,0,0,0,461.93806,255.50776Z" transform="translate(-7.2669 -5.17248)" style="fill:#215bdf"/><path d="M480.43179,256.27837v6.9352h6.275v20.14524q0,6.64167,2.60515,9.57717,2.56878,2.97219,8.40315,2.97228a22.15183,22.15183,0,0,0,5.79763-.69725v-6.93519a15.33823,15.33823,0,0,1-3.08247.29357,4.03282,4.03282,0,0,1-3.706-1.688q-.95463-1.57788-.95427-5.32068V263.21357h7.66926v-6.9352H495.77v-9.65062h-9.06321v9.65062Z" transform="translate(-7.2669 -5.17248)" style="fill:#215bdf"/><path d="M519.4378,256.27837h-9.02667V295.211h9.02667V256.27837m-9.02667-15.85193v9.13685h9.02667v-9.13685Z" transform="translate(-7.2669 -5.17248)" style="fill:#215bdf"/><path d="M538.26228,261.34221v-5.06384h-8.40315V295.211h9.06357V275.50617q0-6.78854,2.27512-9.98084a7.52057,7.52057,0,0,1,6.56808-3.04565q4.29366,0,5.908,3.33922,1.17393,2.42178,1.17393,7.66908v21.723h9.06357V272.8642q0-8.10949-2.34822-11.999a10.778,10.778,0,0,0-4.07329-3.92628,14.77081,14.77081,0,0,0-6.86191-1.43113,16.473,16.473,0,0,0-6.715,1.35767A13.741,13.741,0,0,0,538.26228,261.34221Z" transform="translate(-7.2669 -5.17248)" style="fill:#215bdf"/><path d="M587.83618,255.50776a14.46037,14.46037,0,0,0-11.81565,5.79772,21.5108,21.5108,0,0,0-4.47678,13.90712q0,8.58652,4.44023,13.7971a14.30356,14.30356,0,0,0,11.4118,5.10048,14.26723,14.26723,0,0,0,11.92566-5.83436v3.99964q0,6.27481-2.31167,9.17359-2.20167,2.75195-6.825,2.75207a8.31817,8.31817,0,0,1-5.35759-1.54114,5.71572,5.71572,0,0,1-2.1282-4.40332h-9.35705a12.60224,12.60224,0,0,0,4.88027,9.28368q4.25712,3.15576,11.81565,3.15575,10.16441.00014,14.4208-5.68762,3.63254-4.88037,3.63289-15.375V256.27837h-8.32969v5.06384q-3.81636-5.83445-11.92566-5.83445m-6.93537,19.26452a14.86907,14.86907,0,0,1,2.38513-8.76991,7.79087,7.79087,0,0,1,6.67844-3.52269,7.89238,7.89238,0,0,1,6.7519,3.55933,15.07972,15.07972,0,0,1,2.45859,8.95348,13.89786,13.89786,0,0,1-2.5686,8.76991,8.0374,8.0374,0,0,1-6.64189,3.22912,7.8752,7.8752,0,0,1-6.605-3.22912Q580.90081,280.45991,580.90081,274.77228Z" transform="translate(-7.2669 -5.17248)" style="fill:#215bdf"/><path d="M780.99531,525.358l-.14692-2.01819H932.35927L623.39314,326.32783H317.10544L13.56982,517.2852H170.14463L13.56982,615.8095H170.14463L13.56982,714.33379h306.2877l140.5024-88.39662,148.09855,94.45118h323.9008L777.83938,621.86406H932.35927l-151.364-96.5061m-3.22939,96.46937-.44-.29348.11-.14692Z" transform="translate(-7.2669 -5.17248)" style="fill:#fff"/><path d="M466.81775,523.32356H623.39093" transform="translate(-7.2669 -5.17248)" style="fill:none;stroke:#215bdf;stroke-miterlimit:9.999900832772255;stroke-width:2.9999702498316765px"/><path d="M460.35959,625.90159l148.09686,94.4686H932.35417L623.39093,523.32356Zm0,0-140.5012,88.4141H13.5738L170.147,615.79237" transform="translate(-7.2669 -5.17248)" style="fill:none;stroke:#215bdf;stroke-miterlimit:9.999900832772255;stroke-width:2.9999702498316765px"/><path d="M466.81775,424.80025H623.39093" transform="translate(-7.2669 -5.17248)" style="fill:none;stroke:#215bdf;stroke-miterlimit:9.999900832772255;stroke-width:2.9999702498316765px"/><path d="M777.79913,621.84688h154.555L623.39093,424.80025,319.85839,615.79237H13.5738L170.147,517.26906" transform="translate(-7.2669 -5.17248)" style="fill:none;stroke:#215bdf;stroke-miterlimit:9.999900832772255;stroke-width:2.9999702498316765px"/><path d="M777.79913,523.32356h154.555L623.39093,326.31365,319.85839,517.26906H13.5738L317.10634,326.31365H623.39093" transform="translate(-7.2669 -5.17248)" style="fill:none;stroke:#215bdf;stroke-miterlimit:9.999900832772255;stroke-width:2.9999702498316765px"/><path d="M452.4337,130.99164q-35.96008-59.18739-80.213-91.18452Q326.3899,6.67248,276.92644,6.67247q-54.49054,0-104.39435,40.54684Q124.463,86.33508,87.32868,157.55809,50.23107,228.671,29.82923,320.66279,8.76689,415.81022,8.76689,519.50744" transform="translate(-7.2669 -5.17248)" style="fill:none;stroke:#215bdf;stroke-miterlimit:9.999900832772255;stroke-width:2.9999702498316765px"/><path d="M525.82165,326.31365a755.41745,755.41745,0,0,0-21.1724-79.29567,617.76,617.76,0,0,0-27.88745-70.5625" transform="translate(-7.2669 -5.17248)" style="fill:none;stroke:#215bdf;stroke-miterlimit:9.999900832772255;stroke-width:2.9999702498316765px"/><path d="M322.02331,554.51344q-2.09154,31.70358-2.09153,61.27893" transform="translate(-7.2669 -5.17248)" style="fill:none;stroke:#215bdf;stroke-miterlimit:9.999900832772255;stroke-width:2.9999702498316765px"/><path d="M932.42754,416.324q-10.45779-86.6712-38.19841-162.55429-27.15354-74.342-67.73706-129.85995Q785.54158,67.95143,735.858,37.82565,684.44968,6.67246,629.18854,6.67247q-50.711,0-99.6975,37.79479Q483.58687,79.91363,443.3336,145.1555q-38.56537,62.48985-67.22336,144.46417A1006.4883,1006.4883,0,0,0,333.215,458.74217" transform="translate(-7.2669 -5.17248)" style="fill:none;stroke:#215bdf;stroke-miterlimit:9.999900832772255;stroke-width:2.9999702498316765px"/><path d="M9.42738,653.29365q.44032,46.96829,1.17421,63.48057" transform="translate(-7.2669 -5.17248)" style="fill:none;stroke:#215bdf;stroke-miterlimit:9.999900832772255;stroke-width:2.9999702498316765px"/><path d="M8.84027,559.0635q.0367,23.99795.29356,59.0773" transform="translate(-7.2669 -5.17248)" style="fill:none;stroke:#215bdf;stroke-miterlimit:9.999900832772255;stroke-width:2.9999702498316765px"/></svg>