<svg id="Layer_1" data-name="Layer 1" xmlns="http://www.w3.org/2000/svg" viewBox="0 0 930.23 716.7">
  <defs>
    <style>
      .cls-1 {
        fill: #215bdf;
      }

      .cls-2 {
        fill: #fff;
      }

      .cls-3 {
        fill: none;
        stroke: #215bdf;
        stroke-miterlimit: 10;
        stroke-width: 3px;
      }
    </style>
  </defs>
  <g id="Layer1_0_MEMBER_0_MEMBER_0_MEMBER_0_FILL" data-name="Layer1 0 MEMBER 0 MEMBER 0 MEMBER 0 FILL">
    <path class="cls-1" d="M110.38,370a13.12,13.12,0,0,1,6.5-10.86,12.73,12.73,0,0,1,8.29-2.13,11.7,11.7,0,0,1,7.52,3.78l8.3-5.21a18,18,0,0,0-12.63-6.9,23.86,23.86,0,0,0-15.48,4q-9.84,6.17-11.34,16.92-1.42,10.31,5.14,20.77,7,11.22,16.4,14.27t18.6-2.82a20.68,20.68,0,0,0,6.68-6.57,15,15,0,0,0,2.42-8.18h.3c.22.46.65,1.21,1.28,2.23l2.09,3.31,6.83-4.3-15.71-25-17.94,11.31,4.18,6.64,10.28-6.46q3.78,6.06,2.68,11.49a13.75,13.75,0,0,1-18.42,9.5q-6.28-2.57-11.23-10.46Q109.9,377,110.38,370Z" transform="translate(-4.71 -4.59)"/>
  </g>
  <g id="Layer1_0_MEMBER_0_MEMBER_0_MEMBER_1_FILL" data-name="Layer1 0 MEMBER 0 MEMBER 0 MEMBER 1 FILL">
    <path class="cls-1" d="M169.28,337.24,179.77,354q3.63,5.83,3.3,9.8a7.52,7.52,0,0,1-3.81,6q-3.63,2.31-6.83.33-2.34-1.47-5.1-5.87L155.7,345.75l-7.6,4.77,11.78,18.75a56.09,56.09,0,0,0,4.22,6,12.19,12.19,0,0,0,4.22,3.26q6.09,2.38,12.15-1.39a16.41,16.41,0,0,0,5-4.73,13.11,13.11,0,0,0,2.35-6.76l2.68,4.3,7.15-4.52L177,332.43Z" transform="translate(-4.71 -4.59)"/>
  </g>
  <g id="Layer1_0_MEMBER_0_MEMBER_0_MEMBER_2_FILL" data-name="Layer1 0 MEMBER 0 MEMBER 0 MEMBER 2 FILL">
    <path class="cls-1" d="M189.86,316.36,185,308.62l-7.67,4.84,4.88,7.71,7.67-4.81m3.56,5.69-7.67,4.8,20.74,33,7.66-4.8Z" transform="translate(-4.71 -4.59)"/>
  </g>
  <g id="Layer1_0_MEMBER_0_MEMBER_0_MEMBER_3_FILL" data-name="Layer1 0 MEMBER 0 MEMBER 0 MEMBER 3 FILL">
    <path class="cls-1" d="M223,284.73l-7.66,4.81,10.78,17.21q-5.94-2.43-12.44,1.65a14.58,14.58,0,0,0-7.19,11q-.87,7,4,14.82,5.1,8.11,11.78,10.31t12.95-1.87a15.21,15.21,0,0,0,4.92-4.92,13.49,13.49,0,0,0,2-6.49l2.75,4.4,7.23-4.51L223,284.73m2.65,51.41c-2.65-1.15-5.05-3.45-7.23-6.9s-3.18-6.62-3-9.5A8.3,8.3,0,0,1,227,312.47q4,1.69,7.23,6.86t3,9.65a8.05,8.05,0,0,1-4,6.61A7.81,7.81,0,0,1,225.68,336.14Z" transform="translate(-4.71 -4.59)"/>
  </g>
  <g id="Layer1_0_MEMBER_0_MEMBER_0_MEMBER_4_FILL" data-name="Layer1 0 MEMBER 0 MEMBER 0 MEMBER 4 FILL">
    <path class="cls-1" d="M281.31,293a46.18,46.18,0,0,0-5-6.68,22.42,22.42,0,0,0-5.72-4.51,15.07,15.07,0,0,0-8-1.87,18.35,18.35,0,0,0-8.88,3q-7.36,4.59-8.73,12.33-1.35,7.53,3.38,15.08,5.17,8.22,12.14,10.24,7.15,2.06,15.05-2.9,6.09-3.81,8.22-8.88a15.53,15.53,0,0,0,.18-11.37l-8.11,5.1q1.54,6.12-3.78,9.5a8.76,8.76,0,0,1-7.74,1.18,13.2,13.2,0,0,1-6.53-5.47L281.31,293m-24.44-4.26a8.49,8.49,0,0,1,6.64-1.21,11.39,11.39,0,0,1,6.46,4.73l-15.78,9.91a11.38,11.38,0,0,1-1.4-7.92A8.71,8.71,0,0,1,256.87,288.69Z" transform="translate(-4.71 -4.59)"/>
  </g>
  <g id="Layer1_0_MEMBER_1_MEMBER_0_MEMBER_0_FILL" data-name="Layer1 0 MEMBER 1 MEMBER 0 MEMBER 0 FILL">
    <path class="cls-1" d="M311.87,264q-4.47,5.5-4.47,14.72,0,9.54,4.47,15a14.7,14.7,0,0,0,12,5.32,14.89,14.89,0,0,0,6.76-1.54,13.78,13.78,0,0,0,5.17-4.44v5.21h8.55V243.48h-9.06v20.3q-3.71-5.22-11.42-5.21a14.68,14.68,0,0,0-12,5.46M326,292a7.76,7.76,0,0,1-6.75-3.59q-2.46-3.57-2.46-9.69t2.5-9.69a8,8,0,0,1,6.86-3.52,7.9,7.9,0,0,1,6.79,3.52q2.49,3.56,2.49,9.69t-2.57,9.8A8,8,0,0,1,326,292Z" transform="translate(-4.71 -4.59)"/>
  </g>
  <g id="Layer1_0_MEMBER_1_MEMBER_0_MEMBER_1_FILL" data-name="Layer1 0 MEMBER 1 MEMBER 0 MEMBER 1 FILL">
    <path class="cls-1" d="M363.24,253.83V243.48H353.12V253h4.11l-4,12h5.35Z" transform="translate(-4.71 -4.59)"/>
  </g>
  <g id="Layer1_0_MEMBER_1_MEMBER_0_MEMBER_2_FILL" data-name="Layer1 0 MEMBER 1 MEMBER 0 MEMBER 2 FILL">
    <path class="cls-1" d="M381.44,243.48h-9.5v54.79h9.5Z" transform="translate(-4.71 -4.59)"/>
  </g>
  <g id="Layer1_0_MEMBER_1_MEMBER_0_MEMBER_3_FILL" data-name="Layer1 0 MEMBER 1 MEMBER 0 MEMBER 3 FILL">
    <path class="cls-1" d="M446.21,262.05q-3-3.48-9.28-3.48-9.44,0-13.29,6.56a10.44,10.44,0,0,0-4.4-5.06,13.22,13.22,0,0,0-6.61-1.5,15.34,15.34,0,0,0-7,1.61,11.92,11.92,0,0,0-5,4.37l.07-5.21h-8.14v38.93h9.06V279.11q0-13.58,8.22-13.57,6.72,0,6.71,9.87v22.86h9.07V279.11q0-13.58,8.33-13.57a5.48,5.48,0,0,1,5.28,3,14.67,14.67,0,0,1,1.29,6.86v22.86h9V273.9Q449.51,265.88,446.21,262.05Z" transform="translate(-4.71 -4.59)"/>
  </g>
  <g id="Layer1_0_MEMBER_1_MEMBER_0_MEMBER_4_FILL" data-name="Layer1 0 MEMBER 1 MEMBER 0 MEMBER 4 FILL">
    <path class="cls-1" d="M467.93,259.34h-8.44v54.12h9.07V293.83a10.76,10.76,0,0,0,4.84,4A16.35,16.35,0,0,0,480,299a14.59,14.59,0,0,0,11.81-5.32q4.56-5.43,4.55-14.9,0-9.24-4.36-14.75a14.39,14.39,0,0,0-11.85-5.5,15.67,15.67,0,0,0-7,1.54,14.29,14.29,0,0,0-5.21,4.44v-5.21m9.69,32.76a7.84,7.84,0,0,1-6.79-3.59q-2.49-3.6-2.49-9.69t2.56-9.69a8,8,0,0,1,6.87-3.52,7.92,7.92,0,0,1,6.79,3.52q2.49,3.57,2.49,9.69t-2.49,9.73A8,8,0,0,1,477.62,292.1Z" transform="translate(-4.71 -4.59)"/>
  </g>
  <g id="Layer1_0_MEMBER_1_MEMBER_0_MEMBER_5_FILL" data-name="Layer1 0 MEMBER 1 MEMBER 0 MEMBER 5 FILL">
    <path class="cls-1" d="M527.52,259.34a19.92,19.92,0,0,0-4.33-.37q-6.63,0-10.34,6.16v-5.79h-8.52v38.93h9.07v-17q0-7.31,2.31-10.75c1.61-2.44,4.24-3.67,7.89-3.67a19.55,19.55,0,0,1,3.92.37Z" transform="translate(-4.71 -4.59)"/>
  </g>
  <g id="Layer1_0_MEMBER_1_MEMBER_0_MEMBER_6_FILL" data-name="Layer1 0 MEMBER 1 MEMBER 0 MEMBER 6 FILL">
    <path class="cls-1" d="M558.68,260.47a18.35,18.35,0,0,0-9.14-2.2q-8.7,0-13.94,5.8t-5.14,14.6q0,9.74,4.81,15.12,5,5.55,14.27,5.54,7.15,0,11.71-3.12a15.78,15.78,0,0,0,6.2-9.54h-9.62q-1.86,6-8.22,6a8.79,8.79,0,0,1-7.19-3.12,13.26,13.26,0,0,1-2.6-8.11h27.7a45.56,45.56,0,0,0-.66-8.29,22.5,22.5,0,0,0-2.46-6.9,15.18,15.18,0,0,0-5.72-5.8m-3.34,6.87a11.77,11.77,0,0,1,3,7.48H539.67a11.42,11.42,0,0,1,3-7.48,8.66,8.66,0,0,1,6.42-2.5A8.31,8.31,0,0,1,555.34,267.34Z" transform="translate(-4.71 -4.59)"/>
  </g>
  <g id="Layer1_0_MEMBER_1_MEMBER_0_MEMBER_7_FILL" data-name="Layer1 0 MEMBER 1 MEMBER 0 MEMBER 7 FILL">
    <path class="cls-1" d="M589.72,258.27c-5,0-8.92,1.08-11.85,3.23a10.08,10.08,0,0,0-4.4,8.55,9.36,9.36,0,0,0,4.77,8.51q2.71,1.69,9.72,3.34a32.49,32.49,0,0,1,6.57,2.06,4.44,4.44,0,0,1,2.79,4.07,4,4,0,0,1-2,3.52,9,9,0,0,1-5.14,1.29q-8.28,0-8.29-7h-9.28q.18,6.6,4.7,10.05t12.8,3.45q7.67,0,12.07-3.19a10.38,10.38,0,0,0,4.44-8.88,9.18,9.18,0,0,0-3.85-7.85q-2.57-1.87-8.44-3.49a65.87,65.87,0,0,1-8-2.27c-2.4-1.08-3.6-2.53-3.6-4.37a3.79,3.79,0,0,1,1.8-3.3,8.28,8.28,0,0,1,4.77-1.21c2.5,0,4.33.5,5.51,1.5s1.88,2.69,2,5h9q0-6.35-4.22-9.69T589.72,258.27Z" transform="translate(-4.71 -4.59)"/>
  </g>
  <g id="Layer1_0_MEMBER_1_MEMBER_0_MEMBER_8_FILL" data-name="Layer1 0 MEMBER 1 MEMBER 0 MEMBER 8 FILL">
    <path class="cls-1" d="M640.47,261.57q-4.14-3.3-12-3.3-7.46,0-11.86,3.23a10.07,10.07,0,0,0-4.36,8.55,9.36,9.36,0,0,0,4.77,8.51q2.72,1.69,9.72,3.34a32.49,32.49,0,0,1,6.57,2.06,4.44,4.44,0,0,1,2.79,4.07,4,4,0,0,1-1.95,3.52,9.09,9.09,0,0,1-5.17,1.29q-8.29,0-8.29-7h-9.29q.19,6.6,4.7,10.05c3,2.3,7.25,3.45,12.81,3.45q7.66,0,12.11-3.19a10.38,10.38,0,0,0,4.44-8.88,9.18,9.18,0,0,0-3.86-7.85q-2.57-1.87-8.44-3.49a66.47,66.47,0,0,1-8-2.27c-2.4-1.08-3.59-2.53-3.59-4.37a3.78,3.78,0,0,1,1.79-3.3,8.3,8.3,0,0,1,4.77-1.21c2.47,0,4.3.5,5.47,1.5s1.89,2.69,2,5h9Q644.65,264.89,640.47,261.57Z" transform="translate(-4.71 -4.59)"/>
  </g>
  <g id="Layer1_0_MEMBER_1_MEMBER_0_MEMBER_9_FILL" data-name="Layer1 0 MEMBER 1 MEMBER 0 MEMBER 9 FILL">
    <path class="cls-1" d="M662.16,298.27V259.34h-9v38.93h9m0-45.65v-9.14h-9v9.14Z" transform="translate(-4.71 -4.59)"/>
  </g>
  <g id="Layer1_0_MEMBER_1_MEMBER_0_MEMBER_10_FILL" data-name="Layer1 0 MEMBER 1 MEMBER 0 MEMBER 10 FILL">
    <path class="cls-1" d="M708.94,278.82q0-9.29-5.28-14.9t-14.2-5.65q-8.85,0-14.13,5.65t-5.25,14.9q0,9.29,5.21,14.86t14.09,5.65q9,0,14.28-5.65t5.28-14.86m-19.48-13.61a8.67,8.67,0,0,1,7.41,3.67q2.64,3.58,2.64,9.94t-2.64,9.95a8.84,8.84,0,0,1-7.49,3.63,8.38,8.38,0,0,1-7.26-3.71q-2.57-3.6-2.57-9.87t2.6-9.94A8.45,8.45,0,0,1,689.46,265.21Z" transform="translate(-4.71 -4.59)"/>
  </g>
  <g id="Layer1_0_MEMBER_1_MEMBER_0_MEMBER_11_FILL" data-name="Layer1 0 MEMBER 1 MEMBER 0 MEMBER 11 FILL">
    <path class="cls-1" d="M750.92,298.27V275.92q0-8-2.35-12A10.82,10.82,0,0,0,744.5,260a14.7,14.7,0,0,0-6.86-1.43,16.83,16.83,0,0,0-6.76,1.35,14.23,14.23,0,0,0-5.65,4.48v-5.06h-8.36v38.93h9.06V278.56q0-6.82,2.28-10,2.12-3,6.53-3t5.91,3.34c.8,1.64,1.21,4.19,1.21,7.67v21.72Z" transform="translate(-4.71 -4.59)"/>
  </g>
  <g id="Layer1_0_MEMBER_2_MEMBER_0_FILL" data-name="Layer1 0 MEMBER 2 MEMBER 0 FILL">
    <path class="cls-2" d="M778.44,524.75l-.15-2H929.8l-309-197H314.55L11,516.67H167.59L11,615.2H167.59L11,713.72H317.3l140.5-88.39,148.1,94.45H929.8L775.28,621.25H929.8l-151.36-96.5m-3.23,96.47-.44-.3.11-.14Z" transform="translate(-4.71 -4.59)"/>
  </g>
  <path id="Layer1_0_MEMBER_2_MEMBER_1_1_STROKES" data-name="Layer1 0 MEMBER 2 MEMBER 1 1 STROKES" class="cls-3" d="M464.26,522.74H620.84" transform="translate(-4.71 -4.59)"/>
  <path id="Layer1_0_MEMBER_2_MEMBER_2_1_STROKES" data-name="Layer1 0 MEMBER 2 MEMBER 2 1 STROKES" class="cls-3" d="M457.8,625.32l148.1,94.47H929.8l-309-197Zm0,0L317.3,713.74H11l156.57-98.53" transform="translate(-4.71 -4.59)"/>
  <path id="Layer1_0_MEMBER_2_MEMBER_3_1_STROKES" data-name="Layer1 0 MEMBER 2 MEMBER 3 1 STROKES" class="cls-3" d="M464.26,424.26H620.84" transform="translate(-4.71 -4.59)"/>
  <path id="Layer1_0_MEMBER_2_MEMBER_4_1_STROKES" data-name="Layer1 0 MEMBER 2 MEMBER 4 1 STROKES" class="cls-3" d="M775.24,621.27H929.8l-309-197-303.54,191H11l156.57-98.52" transform="translate(-4.71 -4.59)"/>
  <path id="Layer1_0_MEMBER_2_MEMBER_5_1_STROKES" data-name="Layer1 0 MEMBER 2 MEMBER 5 1 STROKES" class="cls-3" d="M775.24,522.74H929.8l-309-197-303.54,191H11l303.53-191H620.84" transform="translate(-4.71 -4.59)"/>
  <path id="Layer1_0_MEMBER_2_MEMBER_6_1_STROKES" data-name="Layer1 0 MEMBER 2 MEMBER 6 1 STROKES" class="cls-3" d="M449.88,130.41Q414,71.22,369.67,39.23,323.83,6.1,274.37,6.09,219.88,6.09,170,46.64,121.91,85.76,84.77,157t-57.5,163.1Q6.21,415.24,6.21,518.93" transform="translate(-4.71 -4.59)"/>
  <path id="Layer1_0_MEMBER_2_MEMBER_7_1_STROKES" data-name="Layer1 0 MEMBER 2 MEMBER 7 1 STROKES" class="cls-3" d="M523.27,325.73a755.8,755.8,0,0,0-21.18-79.29,617.4,617.4,0,0,0-27.88-70.56" transform="translate(-4.71 -4.59)"/>
  <path id="Layer1_0_MEMBER_2_MEMBER_8_1_STROKES" data-name="Layer1 0 MEMBER 2 MEMBER 8 1 STROKES" class="cls-3" d="M319.5,553.93q-2.12,31.41-2.12,61.28" transform="translate(-4.71 -4.59)"/>
  <path id="Layer1_0_MEMBER_2_MEMBER_9_1_STROKES" data-name="Layer1 0 MEMBER 2 MEMBER 9 1 STROKES" class="cls-3" d="M929.91,415.74q-10.45-86.67-38.2-162.55Q864.56,178.88,824,123.33q-41-55.95-90.63-86.08Q681.94,6.09,626.63,6.09q-50.7,0-99.66,37.8-45.9,35.44-86.19,100.69Q402.25,207.07,373.55,289a1011.55,1011.55,0,0,0-42.89,169.12" transform="translate(-4.71 -4.59)"/>
  <path id="Layer1_0_MEMBER_2_MEMBER_10_1_STROKES" data-name="Layer1 0 MEMBER 2 MEMBER 10 1 STROKES" class="cls-3" d="M6.87,652.71q.45,47,1.18,63.49" transform="translate(-4.71 -4.59)"/>
  <path id="Layer1_0_MEMBER_2_MEMBER_11_1_STROKES" data-name="Layer1 0 MEMBER 2 MEMBER 11 1 STROKES" class="cls-3" d="M6.28,558.48q.19,45.06.3,59.08" transform="translate(-4.71 -4.59)"/>
</svg>
