<svg width="217" height="63" viewBox="0 0 217 63" fill="none" xmlns="http://www.w3.org/2000/svg">
<path d="M196.468 23.9453C196.445 23.9453 196.422 23.9471 196.398 23.9471C201.834 23.9776 206.009 27.6988 206.597 35.1145H206.734C206.144 27.6684 201.937 23.9453 196.468 23.9453Z" fill="#215BDF"/>
<path d="M131.988 23.9453C126.348 23.9453 122.055 27.6684 121.467 35.1145H121.469C122.057 27.6684 126.349 23.9453 131.988 23.9453Z" fill="#215BDF"/>
<path d="M0 61.4288H10.6867V37.0103H36.752V26.7728H10.6867V10.2375H39.2166V0H0V61.4288Z" fill="#215BDF"/>
<path d="M56.539 0H46.4404V10.2375H56.539V0Z" fill="#215BDF"/>
<path d="M56.539 17.501H46.4404V61.4289H56.539V17.501Z" fill="#215BDF"/>
<path d="M136.909 0H126.811V10.2375H136.909V0Z" fill="#215BDF"/>
<path d="M94.4868 22.7612C91.5429 18.6153 87.0808 16.9222 81.7793 16.9222C70.6721 16.9222 63.4336 25.7211 63.4336 39.5151C63.4336 53.9827 70.6721 62.2745 81.7793 62.2745C87.1645 62.2745 92.0472 59.9059 95.0749 55.5898V61.4289H104.585V43.403V33.1654V0H94.4868V22.7612ZM84.1369 54.4055C77.7395 54.4055 73.869 48.6525 73.869 39.5133C73.869 30.3758 77.8233 24.707 84.3026 24.707C90.7 24.707 94.6543 30.3758 94.6543 39.5133C94.6561 48.9052 90.5325 54.4055 84.1369 54.4055Z" fill="#215BDF"/>
<path d="M169.052 0H158.953V61.4288H169.052V0Z" fill="#215BDF"/>
<path d="M213.55 25.553C210.523 20.1386 205.052 16.584 196.972 16.584C183.842 16.584 175.683 26.3145 175.683 39.4276C175.683 53.7269 182.919 62.6117 196.972 62.6117C207.491 62.6117 214.561 57.957 216.916 48.3967H206.23C204.799 52.8794 201.771 55.1656 197.058 55.1656C189.987 55.1656 186.371 50.0038 186.116 42.5577H217C217.002 35.7924 216.159 30.2078 213.55 25.553ZM206.597 35.1151H185.949H185.812C186.4 27.669 190.692 23.9459 196.332 23.9459C196.356 23.9459 196.377 23.9477 196.4 23.9477C196.423 23.9477 196.447 23.9459 196.47 23.9459C201.939 23.9459 206.146 27.669 206.736 35.1151H206.597Z" fill="#215BDF"/>
<path d="M196.398 23.9471C196.375 23.9471 196.354 23.9453 196.331 23.9453C190.69 23.9453 186.398 27.6684 185.81 35.1145H185.947C186.535 27.6988 190.794 23.9776 196.398 23.9471Z" fill="#215BDF"/>
<path d="M149.07 25.553C146.042 20.1386 140.571 16.584 132.492 16.584C119.362 16.584 111.202 26.3145 111.202 39.4276C111.202 53.7269 118.439 62.6117 132.492 62.6117C143.011 62.6117 150.08 57.957 152.436 48.3967H141.749C140.318 52.8794 137.291 55.1656 132.577 55.1656C125.506 55.1656 121.891 50.0038 121.636 42.5577H152.52C152.52 35.7924 151.677 30.2078 149.07 25.553ZM142.252 35.1151H121.466H121.465C122.053 27.669 126.346 23.9459 131.986 23.9459C137.458 23.9459 141.664 27.669 142.252 35.1151Z" fill="#215BDF"/>
<path d="M131.987 23.9453C137.454 23.9453 141.662 27.6684 142.252 35.1145H142.253C141.664 27.6684 137.458 23.9453 131.987 23.9453Z" fill="#215BDF"/>
</svg>
