<svg width="60" height="32" viewBox="0 0 60 32" fill="none" xmlns="http://www.w3.org/2000/svg">
<path d="M8.18 28.252V31.636H10.412V28.324C15.308 28.036 18.44 25.336 18.44 21.412C18.44 16.984 14.876 15.616 11.456 14.464L10.592 14.176V6.04C12.608 6.436 14.408 7.84 14.66 10.612H18.044C17.756 6.184 14.948 3.556 10.592 3.16V0.207999H8.36V3.16C3.86 3.448 0.764 6.148 0.764 9.892C0.764 13.996 4.004 15.58 7.424 16.732L8.18 16.984V25.408C5.552 25.012 3.896 23.068 3.716 20.008H0.296C0.548 24.868 3.32 27.784 8.18 28.252ZM4.184 9.676C4.184 7.48 6.092 6.076 8.36 5.968V13.708C5.912 13.024 4.184 11.908 4.184 9.676ZM14.912 21.628C14.912 23.968 13.148 25.336 10.412 25.444V17.416C12.932 18.208 14.912 19.288 14.912 21.628ZM28.9222 28.252V31.636H31.1542V28.324C36.0502 28.036 39.1822 25.336 39.1822 21.412C39.1822 16.984 35.6182 15.616 32.1982 14.464L31.3342 14.176V6.04C33.3502 6.436 35.1502 7.84 35.4022 10.612H38.7862C38.4982 6.184 35.6902 3.556 31.3342 3.16V0.207999H29.1022V3.16C24.6022 3.448 21.5062 6.148 21.5062 9.892C21.5062 13.996 24.7462 15.58 28.1662 16.732L28.9222 16.984V25.408C26.2942 25.012 24.6382 23.068 24.4582 20.008H21.0382C21.2902 24.868 24.0622 27.784 28.9222 28.252ZM24.9262 9.676C24.9262 7.48 26.8342 6.076 29.1022 5.968V13.708C26.6542 13.024 24.9262 11.908 24.9262 9.676ZM35.6542 21.628C35.6542 23.968 33.8902 25.336 31.1542 25.444V17.416C33.6742 18.208 35.6542 19.288 35.6542 21.628ZM49.6644 28.252V31.636H51.8964V28.324C56.7924 28.036 59.9244 25.336 59.9244 21.412C59.9244 16.984 56.3604 15.616 52.9404 14.464L52.0764 14.176V6.04C54.0924 6.436 55.8924 7.84 56.1444 10.612H59.5284C59.2404 6.184 56.4324 3.556 52.0764 3.16V0.207999H49.8444V3.16C45.3444 3.448 42.2484 6.148 42.2484 9.892C42.2484 13.996 45.4884 15.58 48.9084 16.732L49.6644 16.984V25.408C47.0364 25.012 45.3804 23.068 45.2004 20.008H41.7804C42.0324 24.868 44.8044 27.784 49.6644 28.252ZM45.6684 9.676C45.6684 7.48 47.5764 6.076 49.8444 5.968V13.708C47.3964 13.024 45.6684 11.908 45.6684 9.676ZM56.3964 21.628C56.3964 23.968 54.6324 25.336 51.8964 25.444V17.416C54.4164 18.208 56.3964 19.288 56.3964 21.628Z" fill="#215BDF"/>
</svg>
