<svg width="19" height="32" viewBox="0 0 19 32" fill="none" xmlns="http://www.w3.org/2000/svg">
<path d="M8.18 28.252V31.636H10.412V28.324C15.308 28.036 18.44 25.336 18.44 21.412C18.44 16.984 14.876 15.616 11.456 14.464L10.592 14.176V6.04C12.608 6.436 14.408 7.84 14.66 10.612H18.044C17.756 6.184 14.948 3.556 10.592 3.16V0.207999H8.36V3.16C3.86 3.448 0.764 6.148 0.764 9.892C0.764 13.996 4.004 15.58 7.424 16.732L8.18 16.984V25.408C5.552 25.012 3.896 23.068 3.716 20.008H0.296C0.548 24.868 3.32 27.784 8.18 28.252ZM4.184 9.676C4.184 7.48 6.092 6.076 8.36 5.968V13.708C5.912 13.024 4.184 11.908 4.184 9.676ZM14.912 21.628C14.912 23.968 13.148 25.336 10.412 25.444V17.416C12.932 18.208 14.912 19.288 14.912 21.628Z" fill="#215BDF"/>
</svg>
