<svg width="507" height="478" viewBox="0 0 507 478" fill="none" xmlns="http://www.w3.org/2000/svg">
<path d="M198.797 347.773V476.74L0.90918 400.026V103.734L198.797 180.448V217.082" stroke="#215BDF" stroke-miterlimit="10"/>
<path d="M348.979 301.027V425.504L198.797 367.291" stroke="#215BDF" stroke-miterlimit="10"/>
<path d="M348.979 278.035V292.497" stroke="#215BDF" stroke-miterlimit="10"/>
<path d="M330.825 122.178L348.979 129.211V165.873" stroke="#215BDF" stroke-miterlimit="10"/>
<path d="M308.479 113.535L322.495 118.958" stroke="#215BDF" stroke-miterlimit="10"/>
<path d="M211.574 75.9424L301.244 110.712" stroke="#215BDF" stroke-miterlimit="10"/>
<path d="M196.32 70.0371L203.019 72.6357" stroke="#215BDF" stroke-miterlimit="10"/>
<path d="M499.161 248.012V374.296L348.979 316.054" stroke="#215BDF" stroke-miterlimit="10"/>
<path d="M301.245 110.711V1.26074L499.161 78.0029V241.26" stroke="#215BDF" stroke-miterlimit="10"/>
<path d="M217.541 337.351L506 238.944" stroke="#215BDF" stroke-miterlimit="10"/>
<path d="M157.339 231.262L365.078 160.366" stroke="#215BDF" stroke-miterlimit="10"/>
<path d="M224.352 152.429L432.118 81.5332" stroke="#215BDF" stroke-miterlimit="10"/>
<path d="M254.692 303.061L381.992 259.648" stroke="#215BDF" stroke-miterlimit="10"/>
<path d="M252.92 127.149L352.328 93.2266" stroke="#215BDF" stroke-miterlimit="10"/>
<path d="M151.092 97.3799V161.948" stroke="#215BDF" stroke-miterlimit="10"/>
<path d="M151.092 85.4023V90.1475" stroke="#215BDF" stroke-miterlimit="10"/>
<path d="M60.3242 110.202L187.652 66.6761L151.092 52.4971V79.0193" stroke="#215BDF" stroke-miterlimit="10"/>
<path d="M123.818 99.638L229.925 63.4277" stroke="#215BDF" stroke-miterlimit="10"/>
<path d="M75.773 321.56L70.0886 323.559C72.577 330.632 78.8006 333.075 86.4811 330.373C93.5541 327.885 97.012 322.328 94.9968 316.6C93.0579 311.09 87.6387 310.656 82.1166 311.038C76.2169 311.456 72.8668 311.22 71.8287 308.269C70.8974 305.622 72.9514 303.144 75.9021 302.106C79.2434 300.931 82.771 302.225 84.0686 305.914L89.6663 303.944C87.2919 297.611 81.6221 295.217 74.6358 297.675C67.6496 300.133 64.3323 305.396 66.2254 310.777C68.4696 317.156 74.8185 316.629 80.2996 316.407C84.5304 316.235 88.2814 316.086 89.4264 319.34C90.4035 322.118 88.7143 324.662 84.9392 325.991C80.6433 327.502 77.2997 325.899 75.773 321.56ZM99.5017 299.899L94.2946 301.731L102.172 324.121L107.379 322.289L99.5017 299.899ZM96.2958 290.786L91.0886 292.618L92.9359 297.869L98.143 296.037L96.2958 290.786ZM109.734 296.299L105.048 297.947L112.925 320.338L118.133 318.506L114.255 307.484C112.759 303.232 112.548 299.307 116.237 298.01C119.318 296.926 121.06 299.385 122.099 302.335L126.724 315.483L131.931 313.651L128.054 302.63C126.558 298.377 126.347 294.453 130.079 293.14C133.16 292.056 134.816 294.545 135.854 297.496L140.48 310.644L145.687 308.812L140.756 294.796C139.718 291.845 138.345 289.744 136.45 288.655C134.805 287.722 132.797 287.697 130.41 288.537C127.156 289.682 124.745 291.7 124.101 294.999C121.924 292.693 119.388 292.414 116.438 293.453C113.487 294.491 111.341 296.709 110.744 299.308L109.734 296.299ZM164.396 298.963L165.418 301.87L170.278 300.16L162.401 277.769L157.194 279.601L161.194 290.97C162.171 293.747 162.291 295.753 161.836 297.23C161.38 298.707 160.363 299.699 158.758 300.263C155.113 301.546 153.567 298.676 152.407 295.378L147.995 282.838L142.831 284.655L147.304 297.369C148.449 300.623 149.475 302.847 151.094 303.984C153.154 305.404 155.547 305.83 158.498 304.792C161.102 303.876 163.5 301.96 164.396 298.963ZM169.957 264.871L164.75 266.703L175.833 298.206L181.04 296.374L169.957 264.871ZM200.559 289.507L205.289 287.843C204.043 285.55 203.208 283.454 202.338 280.981L200.14 274.732C198.018 268.701 194.681 265.73 187.564 268.234C181.706 270.295 178.951 274.385 180.427 279.132L185.764 277.254C184.952 274.809 186.041 272.914 188.862 271.922C191.639 270.945 193.46 271.962 194.437 274.74L194.773 275.694C189.333 278.388 180.365 281.592 182.884 288.752C184.35 292.917 187.997 294.414 192.988 292.658C196.502 291.422 198.247 289.589 199.319 286.676C199.775 287.832 200.123 288.685 200.559 289.507ZM196.025 279.252L196.36 280.207C198.07 285.067 196.32 287.438 193.066 288.583C190.636 289.438 188.906 288.681 188.235 286.772C186.891 282.953 192.318 281.19 196.025 279.252ZM201.011 257.944L202.965 263.498L199.363 264.765L200.768 268.757L204.37 267.49L208.446 279.076C210.232 284.153 212.846 285.623 217.315 284.05C218.487 283.638 219.454 283.2 220.519 282.484L219.115 278.492C218.351 278.956 217.874 279.124 217.397 279.292C215.314 280.024 214.264 278.98 213.286 276.203L209.577 265.658L214.003 264.101L212.598 260.109L208.172 261.666L206.218 256.112L201.011 257.944ZM218.455 270.532C221.035 277.865 226.37 281.108 233.617 278.559C239.041 276.651 241.846 272.982 241.336 267.651L235.825 269.59C235.897 272.149 234.747 273.87 232.317 274.725C228.672 276.007 225.875 274.017 224.401 270.244L240.326 264.641C239.105 261.17 237.663 258.459 235.478 256.545C232.939 254.318 229.478 253.488 225.312 254.953C218.543 257.335 216.089 263.806 218.455 270.532ZM233.689 262.685L222.971 266.456C221.931 262.531 223.472 259.843 226.38 258.82C229.2 257.828 232.042 258.974 233.689 262.685ZM261.343 264.854L262.366 267.762L267.226 266.052L259.348 243.661L254.141 245.493L258.141 256.862C259.118 259.639 259.238 261.645 258.783 263.122C258.327 264.599 257.311 265.59 255.705 266.155C252.06 267.438 250.514 264.568 249.354 261.27L244.942 248.73L239.778 250.546L244.251 263.26C245.396 266.515 246.422 268.738 248.041 269.875C250.102 271.296 252.495 271.722 255.445 270.684C258.049 269.768 260.447 267.852 261.343 264.854ZM269.806 239.982L264.903 241.707L272.78 264.098L277.987 262.266L274.537 252.459C272.629 247.035 273.183 243.621 277.479 242.11C278.174 241.866 278.927 241.649 279.812 241.533L278.224 237.02C277.426 237.106 276.412 237.414 275.675 237.673C273.114 238.574 271.574 240.433 270.982 243.323L269.806 239.982ZM291.148 245.006C293.758 252.426 298.986 255.365 304.714 253.35C307.491 252.373 309.581 250.273 310.364 247.51L311.418 250.504L316.321 248.779L305.237 217.276L300.03 219.108L304.137 230.781C301.87 229.189 299.265 229.13 296.531 230.092C290.803 232.107 288.659 237.933 291.148 245.006ZM296.528 243.113C294.88 238.426 295.896 234.801 299.238 233.626C302.535 232.466 305.598 234.655 307.247 239.342C308.941 244.158 307.807 247.727 304.509 248.887C301.211 250.047 298.177 247.799 296.528 243.113ZM316.462 236.051C319.042 243.384 324.377 246.627 331.623 244.078C337.048 242.17 339.853 238.501 339.343 233.17L333.832 235.109C333.903 237.668 332.753 239.389 330.323 240.244C326.678 241.526 323.881 239.536 322.408 235.763L338.333 230.16C337.111 226.689 335.67 223.978 333.485 222.064C330.946 219.837 327.484 219.007 323.318 220.472C316.549 222.854 314.096 229.325 316.462 236.051ZM331.695 228.204L320.977 231.975C319.938 228.05 321.479 225.362 324.386 224.339C327.207 223.347 330.048 224.493 331.695 228.204ZM352.682 200.584L343.483 203.82L354.566 235.323L364.416 231.858C370.014 229.889 373.406 226.501 374.895 222.417C376.203 218.788 376.003 214.615 374.537 210.45C372.14 203.637 367.946 199.895 362.232 199.175C359.374 198.815 356.153 199.362 352.682 200.584ZM361.859 227.638L358.474 228.828L350.597 206.438L354.025 205.232C357.019 204.178 359.517 203.933 361.548 204.438C364.951 205.24 367.221 207.952 368.855 212.595C370.275 216.631 370.226 219.818 368.843 222.401C367.6 224.691 365.287 226.432 361.859 227.638ZM379.063 214.026C381.643 221.36 386.978 224.603 394.224 222.054C399.648 220.145 402.454 216.476 401.944 211.145L396.433 213.084C396.504 215.644 395.354 217.365 392.924 218.22C389.279 219.502 386.482 217.512 385.008 213.739L400.934 208.136C399.712 204.665 398.271 201.953 396.086 200.04C393.547 197.812 390.085 196.982 385.919 198.448C379.15 200.829 376.697 207.3 379.063 214.026ZM394.296 206.18L383.578 209.951C382.539 206.025 384.08 203.338 386.987 202.315C389.808 201.322 392.649 202.468 394.296 206.18ZM403.389 192.984L397.618 195.015L413.306 214.658L419.641 212.429L419.574 187.29L414.02 189.244L414.487 201.661C414.615 204.103 414.814 206.471 415.072 208.867L414.768 208.974C413.426 206.959 412.142 204.973 410.712 202.989L403.389 192.984ZM427.709 184.428L422.502 186.26L430.379 208.651L435.586 206.819L427.709 184.428ZM424.503 175.316L419.296 177.148L421.143 182.398L426.35 180.566L424.503 175.316ZM442.302 196.41L436.964 198.288C438.881 203.319 443.386 204.758 449.764 202.513C455.622 200.452 458.351 196.566 456.825 192.227C455.313 187.931 451.312 187.925 447.462 188.207C443.83 188.558 440.319 189.11 439.479 186.724C438.914 185.118 440.038 183.601 442.338 182.792C445.159 181.8 446.886 182.411 447.947 185.012L453.111 183.196C451.386 178.292 447.144 176.908 441.199 178.999C435.471 181.014 432.816 184.972 434.251 189.051C435.976 193.954 440.84 193.365 444.979 192.932C448.131 192.604 450.803 192.298 451.597 194.554C452.207 196.29 450.968 197.896 448.495 198.766C445.327 199.881 443.248 199.1 442.302 196.41Z" fill="#215BDF"/>
</svg>
