<svg xmlns="http://www.w3.org/2000/svg" viewBox="0 0 919.51557 865.10578"><path d="M12.4625,196.51924V732.88042L371.957,871.76848V673.58234l272.492,105.276V580.45218L916.90442,685.69147V149.33038L557.37339,10.479V208.8853L284.91794,103.6092V301.79534Z" transform="translate(-10.49333 -8.36365)" style="fill:#fff"/><path d="M11.98554,196.04228V732.36673L371.47967,871.29135v-536.361Z" transform="translate(-10.49333 -8.36365)" style="fill:#fff"/><path d="M371.48415,637.798v233.4837L11.99332,732.35831V196.03922L371.48415,334.92591v66.306" transform="translate(-10.49333 -8.36365)" style="fill:none;stroke:#215bdf;stroke-miterlimit:9.999900832772255;stroke-width:2.9999702498316765px"/><path d="M644.30205,553.18818,371.47967,673.14193,644.30205,778.52814Z" transform="translate(-10.49333 -8.36365)" style="fill:#fff"/><path d="M644.30383,553.18168V778.51935L371.48415,673.13422" transform="translate(-10.49333 -8.36365)" style="fill:none;stroke:#215bdf;stroke-miterlimit:9.999900832772255;stroke-width:2.9999702498316765px"/><path d="M644.30383,511.5707v26.16277" transform="translate(-10.49333 -8.36365)" style="fill:none;stroke:#215bdf;stroke-miterlimit:9.999900832772255;stroke-width:2.9999702498316765px"/><path d="M611.27715,229.43413l33.0249,79.07629V242.20369Z" transform="translate(-10.49333 -8.36365)" style="fill:#fff"/><path d="M611.27926,229.43074l33.02457,12.76949v66.306" transform="translate(-10.49333 -8.36365)" style="fill:none;stroke:#215bdf;stroke-miterlimit:9.999900832772255;stroke-width:2.9999702498316765px"/><path d="M570.73242,213.76241l25.42895,9.834" transform="translate(-10.49333 -8.36365)" style="fill:none;stroke:#215bdf;stroke-miterlimit:9.999900832772255;stroke-width:2.9999702498316765px"/><path d="M394.71146,145.76848,557.596,208.69864" transform="translate(-10.49333 -8.36365)" style="fill:none;stroke:#215bdf;stroke-miterlimit:9.999900832772255;stroke-width:2.9999702498316765px"/><path d="M366.9708,135.05384l12.14572,4.69683" transform="translate(-10.49333 -8.36365)" style="fill:none;stroke:#215bdf;stroke-miterlimit:9.999900832772255;stroke-width:2.9999702498316765px"/><path d="M917.08789,685.80148V457.19586L644.30205,580.41545Z" transform="translate(-10.49333 -8.36365)" style="fill:#fff"/><path d="M917.08683,457.1902V685.79364l-272.783-105.38506" transform="translate(-10.49333 -8.36365)" style="fill:none;stroke:#215bdf;stroke-miterlimit:9.999900832772255;stroke-width:2.9999702498316765px"/><path d="M557.59341,208.70183,917.08789,445.01335V149.44048L557.59341,10.55242Z" transform="translate(-10.49333 -8.36365)" style="fill:#fff"/><path d="M557.596,208.69864V10.55119L917.08683,149.43788V445.00782" transform="translate(-10.49333 -8.36365)" style="fill:none;stroke:#215bdf;stroke-miterlimit:9.999900832772255;stroke-width:2.9999702498316765px"/><path d="M405.49947,618.93725,929.5261,440.788" transform="translate(-10.49333 -8.36365)" style="fill:none;stroke:#215bdf;stroke-miterlimit:9.999900832772255;stroke-width:2.9999702498316765px"/><path d="M296.15143,426.881,673.549,298.56219" transform="translate(-10.49333 -8.36365)" style="fill:none;stroke:#215bdf;stroke-miterlimit:9.999900832772255;stroke-width:2.9999702498316765px"/><path d="M417.902,284.17815,795.33621,155.896" transform="translate(-10.49333 -8.36365)" style="fill:none;stroke:#215bdf;stroke-miterlimit:9.999900832772255;stroke-width:2.9999702498316765px"/><path d="M472.97966,556.85108l231.24545-78.59853" transform="translate(-10.49333 -8.36365)" style="fill:none;stroke:#215bdf;stroke-miterlimit:9.999900832772255;stroke-width:2.9999702498316765px"/><path d="M469.75063,238.42076l180.60771-61.389" transform="translate(-10.49333 -8.36365)" style="fill:none;stroke:#215bdf;stroke-miterlimit:9.999900832772255;stroke-width:2.9999702498316765px"/><path d="M284.7763,184.554v116.8703" transform="translate(-10.49333 -8.36365)" style="fill:none;stroke:#215bdf;stroke-miterlimit:9.999900832772255;stroke-width:2.9999702498316765px"/><path d="M284.7763,162.90457V171.491" transform="translate(-10.49333 -8.36365)" style="fill:none;stroke:#215bdf;stroke-miterlimit:9.999900832772255;stroke-width:2.9999702498316765px"/><path d="M284.771,151.31184l-5.1372,1.87144L351.22468,128.965,284.771,103.279Z" transform="translate(-10.49333 -8.36365)" style="fill:#fff"/><path d="M119.91029,207.74461l231.31881-78.782-66.4528-25.68578v48.0324" transform="translate(-10.49333 -8.36365)" style="fill:none;stroke:#215bdf;stroke-miterlimit:9.999900832772255;stroke-width:2.9999702498316765px"/><path d="M235.27615,188.627l192.75343-65.49875" transform="translate(-10.49333 -8.36365)" style="fill:none;stroke:#215bdf;stroke-miterlimit:9.999900832772255;stroke-width:2.9999702498316765px"/><path d="M289.98169,527.86909q-4.18349-12.14581-13.28342-17.283-9.13668-5.17384-20.035-1.43113-10.86208,3.74284-14.93466,13.50362-3.99965,9.68736.14692,21.75967,4.18293,12.1825,13.21,17.3198,9.10012,5.17385,20.035,1.39432a23.96072,23.96072,0,0,0,11.4118-7.66909l9.68745,4.73354,3.15557-6.64171-9.10013-4.40332q3.70671-9.68709-.29348-21.28272M251.15915,541.2258q-3.08211-8.88-.99082-15.66838a14.18957,14.18957,0,0,1,21.64966-7.4857q5.79818,4.0366,8.8801,12.98985a26.3102,26.3102,0,0,1,1.21085,13.94385l-8.54971-4.14657-3.30249,6.56843,8.73318,4.2564a13.86023,13.86023,0,0,1-18.71411,2.45859Q254.20453,550.10581,251.15915,541.2258Z" transform="translate(-10.49333 -8.36365)" style="fill:#215bdf"/><path d="M325.83213,503.32062l-8.54971,2.93554,6.42151,18.71412q2.20219,6.42141.99046,10.27441a7.51173,7.51173,0,0,1-5.1003,4.95374q-4.07328,1.39431-6.715-1.24758-1.94474-1.945-3.63288-6.86191l-7.08194-20.6222-8.51316,2.93555,7.192,20.91586a48.57068,48.57068,0,0,0,2.75207,6.75172,11.64819,11.64819,0,0,0,3.376,4.14639q5.3945,3.74271,12.146,1.39449a16.67567,16.67567,0,0,0,5.94419-3.44941,13.35768,13.35768,0,0,0,3.81636-6.01783l1.65124,4.77026,7.99929-2.75207Z" transform="translate(-10.49333 -8.36365)" style="fill:#215bdf"/><path d="M376.4334,506.513q-3.009-8.77-9.7971-12.366-6.86192-3.596-15.30161-.69715-8.36642,2.86212-11.52216,9.94411-3.15576,7.00865-.14657,15.77856,3.009,8.77,9.7971,12.366,6.82538,3.63279,15.15505.77061,8.47607-2.93563,11.66873-9.98093,3.15575-7.00865.14656-15.8152m-28.62158-.66052a9.299,9.299,0,0,1,13.98076-4.77026q3.66962,2.532,5.72417,8.51315,2.05545,5.98121.73389,10.27442a8.72394,8.72394,0,0,1-5.8711,5.87109,8.56368,8.56368,0,0,1-8.14621-1.13756q-3.596-2.60534-5.65071-8.51307Q346.52716,510.10907,347.81182,505.85249Z" transform="translate(-10.49333 -8.36365)" style="fill:#215bdf"/><path d="M396.90913,486.221l-2.23857-6.56825-7.302,2.53187-3.119-9.13685-8.58662,2.93555,3.15557,9.13685-5.94419,2.01819,2.27476,6.56834,5.908-2.01819,6.56807,19.04433q2.16565,6.27466,5.57761,8.21958,3.41269,1.98127,8.91666.07337a25.0744,25.0744,0,0,0,5.28412-2.532l-2.27512-6.56825a13.70352,13.70352,0,0,1-2.82553,1.2843,4.02554,4.02554,0,0,1-4.03638-.40367q-1.46794-1.1742-2.67861-4.73354L389.64336,488.753Z" transform="translate(-10.49333 -8.36365)" style="fill:#215bdf"/><path d="M439.69458,503.17388a15.64832,15.64832,0,0,0,2.75208-11.045l-9.06358,3.119q.11019,6.34806-5.79763,8.403a8.85641,8.85641,0,0,1-7.85273-.62378,13.42564,13.42564,0,0,1-5.1003-6.8251l26.19954-9.02684a44.31151,44.31151,0,0,0-3.339-7.59571,23.03532,23.03532,0,0,0-4.51333-5.72435,14.67483,14.67483,0,0,0-7.33887-3.63271,18.31314,18.31314,0,0,0-9.3205.88063q-8.21914,2.86227-11.33834,10.0543-3.009,7.00853-.11037,15.44827,3.15575,9.17349,9.46743,12.73291,6.53133,3.63279,15.30125.62388,6.78826-2.34854,10.05439-6.78845m-14.97122-25.39256a11.63745,11.63745,0,0,1,5.24722,6.128l-17.64983,6.05457a11.46465,11.46465,0,0,1,.44-8.07276,8.70166,8.70166,0,0,1,5.24758-4.44A8.48171,8.48171,0,0,1,424.72336,477.78132Z" transform="translate(-10.49333 -8.36365)" style="fill:#215bdf"/><path d="M469.56391,443.94916a10.52071,10.52071,0,0,1,7.96239.18348,9.943,9.943,0,0,1,5.39414,6.16466l9.21049-3.15575q-2.89935-7.81585-9.43052-10.64135-6.56842-2.78877-15.19159.14683-8.58627,2.97219-12.40262,8.88a13.77749,13.77749,0,0,0-1.54123,12.54944,12.79707,12.79707,0,0,0,9.504,8.73327q3.77927.99078,13.54.66052a43.68423,43.68423,0,0,1,9.394.36694q4.32969.954,5.54071,4.55006a6.81479,6.81479,0,0,1-.80735,6.34814q-1.98127,2.9355-6.64153,4.51342-5.32086,1.83481-9.24705-.1101-3.88946-1.94472-5.72417-7.26549l-9.35706,3.19239q2.97246,8.69658,10.16441,11.70554,7.1183,2.97219,16.659-.3303,8.73354-3.00888,12.623-9.21022a14.74728,14.74728,0,0,0,1.50433-13.28334,12.65716,12.65716,0,0,0-8.29278-8.25622q-4.58661-1.54119-12.76955-1.02746-7.9993.51373-11.44871-.25684-4.25712-.95422-5.43069-4.40332a6.28817,6.28817,0,0,1,1.02737-6.01793A11.12835,11.12835,0,0,1,469.56391,443.94916Z" transform="translate(-10.49333 -8.36365)" style="fill:#215bdf"/><path d="M509.01032,440.3531l-8.55006,2.93555,12.65954,36.84117,8.55007-2.93555L509.01032,440.3531m-5.1372-15.00795-8.58662,2.97228,2.9721,8.62317,8.58661-2.93555Z" transform="translate(-10.49333 -8.36365)" style="fill:#215bdf"/><path d="M576.85794,458.22331l8.58661-2.93554L577.51836,432.207q-2.64188-7.59562-7.00847-10.12759-3.99964-2.31171-9.90747-.25693-8.87975,3.04569-10.42134,10.53135a10.33324,10.33324,0,0,0-5.79763-3.37595,13.42359,13.42359,0,0,0-6.75154.73388A15.64828,15.64828,0,0,0,531.467,433.528a12.12156,12.12156,0,0,0-3.26558,5.72426l-1.61469-4.95373-7.70581,2.6787,12.65954,36.84117,8.54971-2.97228-6.238-18.127q-4.36623-12.843,3.376-15.52172,6.34806-2.1651,9.57744,7.1554l7.44888,21.64966,8.54971-2.93555-6.238-18.1637q-4.40333-12.843,3.44941-15.52172a5.49128,5.49128,0,0,1,5.98111,1.13756,14.88179,14.88179,0,0,1,3.449,6.05457Z" transform="translate(-10.49333 -8.36365)" style="fill:#215bdf"/><path d="M613.95612,404.28264l-8.55006,2.93555,6.42151,18.71411q2.20111,6.31135.99082,10.27441a7.5114,7.5114,0,0,1-5.1003,4.95374q-4.07329,1.39444-6.71535-1.24766-1.98129-1.94473-3.63253-6.86183l-7.11884-20.62219-8.47625,2.89881,7.192,20.91577a48.668,48.668,0,0,0,2.75207,6.75182,12.04062,12.04062,0,0,0,3.37595,4.18311q5.394,3.74286,12.14568,1.39441a16.30789,16.30789,0,0,0,5.908-3.44932,13.61722,13.61722,0,0,0,3.8529-6.05457l1.61434,4.807,7.99965-2.75207Z" transform="translate(-10.49333 -8.36365)" style="fill:#215bdf"/><path d="M627.23919,382.9632l-8.58626,2.93554,17.8333,51.81239,8.54971-2.93555Z" transform="translate(-10.49333 -8.36365)" style="fill:#215bdf"/><path d="M656.815,388.43062q-7.26559,2.49527-10.42134,7.19212a11.9618,11.9618,0,0,0-1.43086,10.60463l8.76973-3.00892a6.30158,6.30158,0,0,1,.36694-5.284,8.53489,8.53489,0,0,1,4.80718-3.44932q6.67862-2.275,9.10012,4.69689l.55041,1.57788q-2.23874,1.10083-7.41232,3.52269a46.74464,46.74464,0,0,0-7.30232,4.32986q-7.59563,5.83446-4.95373,13.43016,1.76143,5.174,6.05456,6.89856,4.36731,1.72461,10.45789-.36695a18.52791,18.52791,0,0,0,6.7519-3.81626,15.70921,15.70921,0,0,0,3.706-5.94447,42.84723,42.84723,0,0,0,2.01819,4.66017l7.77927-2.642a79.4133,79.4133,0,0,1-4.77026-11.30187l-3.52251-10.27441q-2.75208-7.96261-7.1554-10.64136-5.02737-3.04569-13.39343-.18347m13.72346,18.16369.55042,1.57788q1.94472,5.68757.29384,9.17358-1.46742,3.08238-5.798,4.55015a7.33077,7.33077,0,0,1-5.02684.18347,4.99848,4.99848,0,0,1-2.86244-3.22912q-1.39432-4.03632,3.3394-7.30222Q661.18109,411.438,670.5385,406.59431Z" transform="translate(-10.49333 -8.36365)" style="fill:#215bdf"/><path d="M688.26216,368.50566l-8.55007,2.93555,3.119,9.13685-5.90765,2.05492,2.23821,6.56825,5.94456-2.05492,6.53152,19.08106q2.16564,6.27481,5.57761,8.21958,3.44923,1.94474,8.95356.03664a22.25393,22.25393,0,0,0,5.24722-2.53187l-2.23821-6.56825a14.19836,14.19836,0,0,1-2.82554,1.2843,4.1037,4.1037,0,0,1-4.07329-.40367q-1.43085-1.17434-2.6417-4.69689l-5.98146-17.35644,7.30231-2.49515-2.27512-6.56834-7.26541,2.49524Z" transform="translate(-10.49333 -8.36365)" style="fill:#215bdf"/><path d="M709.06756,376.43159q-3.1192,7.00864-.11,15.77856,3.009,8.77009,9.7609,12.366,6.82484,3.63281,15.19124.77062,8.47662-2.89881,11.66873-9.98084,3.15574-7.00866.14692-15.77857-3.00846-8.77008-9.834-12.366-6.86192-3.63279-15.26506-.73389-8.36641,2.86214-11.55871,9.94412m8.80664,12.69627q-2.05439-5.98119-.77044-10.23777a9.25442,9.25442,0,0,1,13.94385-4.77026q3.66962,2.532,5.76108,8.51315,2.05493,5.98121.73389,10.27442a8.729,8.729,0,0,1-5.908,5.87109,8.3579,8.3579,0,0,1-8.1093-1.13756Q719.89221,395.07229,717.8742,389.12786Z" transform="translate(-10.49333 -8.36365)" style="fill:#215bdf"/><path d="M767.52192,359.40545a18.11307,18.11307,0,0,1,3.816-.95409l-2.5317-7.41224a19.35953,19.35953,0,0,0-4.21985,1.0641q-6.27493,2.12829-7.74272,9.21032l-1.90817-5.50415-8.07276,2.75207,12.65955,36.84108,8.58662-2.93555-5.5407-16.1455q-2.385-6.8986-1.32122-10.8982Q762.34781,361.16685,767.52192,359.40545Z" transform="translate(-10.49333 -8.36365)" style="fill:#215bdf"/></svg>