<svg xmlns="http://www.w3.org/2000/svg" viewBox="0 0 919.51558 865.10578"><path d="M920.93136,684.61918V148.25806L561.40033,9.37V207.77627L288.94489,102.53692V300.68633L16.48944,195.447V731.77141L375.98392,870.65947V672.47332l272.492,105.27611V579.34313Z" transform="translate(-14.52692 -7.26555)" style="fill:#fff"/><path d="M375.50661,870.18242V333.82131L16.01249,194.93325V731.29436Z" transform="translate(-14.52692 -7.26555)" style="fill:#fff"/><path d="M375.51775,636.70008v233.4837L16.0269,731.2971V194.94134L375.51775,333.828v66.3427" transform="translate(-14.52692 -7.26555)" style="fill:none;stroke:#215bdf;stroke-miterlimit:9.999900832772255;stroke-width:2.9999702498316765px"/><path d="M375.50661,672.033,648.329,777.41912V552.07922Z" transform="translate(-14.52692 -7.26555)" style="fill:#fff"/><path d="M648.33743,552.08379V777.42146L375.51775,672.03634" transform="translate(-14.52692 -7.26555)" style="fill:none;stroke:#215bdf;stroke-miterlimit:9.999900832772255;stroke-width:2.9999702498316765px"/><path d="M648.33743,510.47281v26.16277" transform="translate(-14.52692 -7.26555)" style="fill:none;stroke:#215bdf;stroke-miterlimit:9.999900832772255;stroke-width:2.9999702498316765px"/><path d="M648.329,241.09472,615.30409,228.3618,648.329,307.4381Z" transform="translate(-14.52692 -7.26555)" style="fill:#fff"/><path d="M615.31285,228.36953l33.02458,12.73282V307.445" transform="translate(-14.52692 -7.26555)" style="fill:none;stroke:#215bdf;stroke-miterlimit:9.999900832772255;stroke-width:2.9999702498316765px"/><path d="M574.766,212.70123,600.195,222.4985" transform="translate(-14.52692 -7.26555)" style="fill:none;stroke:#215bdf;stroke-miterlimit:9.999900832772255;stroke-width:2.9999702498316765px"/><path d="M398.745,144.67059l162.88453,62.93017" transform="translate(-14.52692 -7.26555)" style="fill:none;stroke:#215bdf;stroke-miterlimit:9.999900832772255;stroke-width:2.9999702498316765px"/><path d="M371.00439,133.956l12.1457,4.69684" transform="translate(-14.52692 -7.26555)" style="fill:none;stroke:#215bdf;stroke-miterlimit:9.999900832772255;stroke-width:2.9999702498316765px"/><path d="M921.11483,684.69256v-228.569L648.329,579.30644Z" transform="translate(-14.52692 -7.26555)" style="fill:#fff"/><path d="M921.12043,456.12905V684.69576l-272.783-105.38507" transform="translate(-14.52692 -7.26555)" style="fill:none;stroke:#215bdf;stroke-miterlimit:9.999900832772255;stroke-width:2.9999702498316765px"/><path d="M921.11483,443.90434V148.36814L561.62035,9.44339v198.1494Z" transform="translate(-14.52692 -7.26555)" style="fill:#fff"/><path d="M561.62955,207.60076V9.45331L921.12043,148.37669V443.90994" transform="translate(-14.52692 -7.26555)" style="fill:none;stroke:#215bdf;stroke-miterlimit:9.999900832772255;stroke-width:2.9999702498316765px"/><path d="M409.53306,617.83936,933.5597,439.69013" transform="translate(-14.52692 -7.26555)" style="fill:none;stroke:#215bdf;stroke-miterlimit:9.999900832772255;stroke-width:2.9999702498316765px"/><path d="M300.185,425.7831,677.5825,297.46431" transform="translate(-14.52692 -7.26555)" style="fill:none;stroke:#215bdf;stroke-miterlimit:9.999900832772255;stroke-width:2.9999702498316765px"/><path d="M421.93562,283.08026,799.3698,154.79813" transform="translate(-14.52692 -7.26555)" style="fill:none;stroke:#215bdf;stroke-miterlimit:9.999900832772255;stroke-width:2.9999702498316765px"/><path d="M477.04994,555.78987l231.24545-78.63521" transform="translate(-14.52692 -7.26555)" style="fill:none;stroke:#215bdf;stroke-miterlimit:9.999900832772255;stroke-width:2.9999702498316765px"/><path d="M473.78423,237.35956l180.6077-61.389" transform="translate(-14.52692 -7.26555)" style="fill:none;stroke:#215bdf;stroke-miterlimit:9.999900832772255;stroke-width:2.9999702498316765px"/><path d="M288.8099,183.49281v116.8703" transform="translate(-14.52692 -7.26555)" style="fill:none;stroke:#215bdf;stroke-miterlimit:9.999900832772255;stroke-width:2.9999702498316765px"/><path d="M288.8099,161.80669v8.58638" transform="translate(-14.52692 -7.26555)" style="fill:none;stroke:#215bdf;stroke-miterlimit:9.999900832772255;stroke-width:2.9999702498316765px"/><path d="M288.798,150.20286l-5.13721,1.87141L355.25162,127.856,288.798,102.20667Z" transform="translate(-14.52692 -7.26555)" style="fill:#fff"/><path d="M123.94387,206.64672l231.3188-78.782-66.45277-25.6491v47.99573" transform="translate(-14.52692 -7.26555)" style="fill:none;stroke:#215bdf;stroke-miterlimit:9.999900832772255;stroke-width:2.9999702498316765px"/><path d="M239.30972,187.56586l192.75342-65.53545" transform="translate(-14.52692 -7.26555)" style="fill:none;stroke:#215bdf;stroke-miterlimit:9.999900832772255;stroke-width:2.9999702498316765px"/><path d="M207.81349,530.2094a13.79536,13.79536,0,0,0-1.54087,12.54945,12.78681,12.78681,0,0,0,9.46707,8.73327q3.77927.99071,13.54.66051a43.47764,43.47764,0,0,1,9.394.36695q4.32968.954,5.57761,4.55006a6.79783,6.79783,0,0,1-.80735,6.34814,12.69546,12.69546,0,0,1-6.64189,4.51342q-5.32086,1.83474-9.24669-.1101-3.92654-1.90812-5.76108-7.2655l-9.35705,3.22912q2.97245,8.65989,10.1644,11.66882,7.11831,2.97225,16.659-.29358,8.73354-3.00894,12.65955-9.21027a14.83234,14.83234,0,0,0,1.50468-13.32006,12.66023,12.66023,0,0,0-8.32969-8.25622q-4.58661-1.50444-12.76955-.99073-7.99931.477-11.41216-.29358-4.25658-.954-5.43069-4.40332a6.23235,6.23235,0,0,1,.99082-6.01788,11.41175,11.41175,0,0,1,5.76108-4.03637,10.62475,10.62475,0,0,1,7.96239.2202,9.93848,9.93848,0,0,1,5.39414,6.12793l9.21049-3.1557q-2.86227-7.81587-9.43051-10.60467-6.56844-2.82545-15.15469.14679Q211.62966,524.30164,207.81349,530.2094Z" transform="translate(-14.52692 -7.26555)" style="fill:#215bdf"/><path d="M261.71762,525.03551l-8.54971,2.97223,12.65954,36.80444,8.54971-2.93555-12.65954-36.84112m-2.16511-6.34814-2.9721-8.62317-8.58662,2.93555,2.97246,8.62317Z" transform="translate(-14.52692 -7.26555)" style="fill:#215bdf"/><path d="M329.56559,542.90563l8.54971-2.93554-7.9262-23.08075q-2.56878-7.48563-6.97192-10.12763-3.99964-2.31171-9.90747-.25684-8.95338,3.08231-10.421,10.53126a10.49519,10.49519,0,0,0-5.79763-3.37587,13.32271,13.32271,0,0,0-6.78845.77058,15.53726,15.53726,0,0,0-6.128,3.77953,11.94166,11.94166,0,0,0-3.26594,5.761l-1.61433-4.95373-7.70581,2.642,12.65954,36.84113,8.54971-2.93555-6.238-18.1637q-4.40331-12.843,3.37595-15.52168,6.34806-2.165,9.57708,7.19209l7.41233,21.613,8.58626-2.93555-6.238-18.127q-4.43932-12.843,3.41286-15.55841a5.54221,5.54221,0,0,1,6.01766,1.13752,14.60891,14.60891,0,0,1,3.4125,6.09125Z" transform="translate(-14.52692 -7.26555)" style="fill:#215bdf"/><path d="M358.0768,491.90051l6.45842,18.71411q2.16458,6.45824.95391,10.27441a7.50561,7.50561,0,0,1-5.06375,4.95374q-4.10929,1.39437-6.7519-1.24762-1.94473-1.94479-3.63252-6.86182l-7.08194-20.6222-8.51316,2.93554,7.192,20.91578a51.065,51.065,0,0,0,2.789,6.75172,12.0995,12.0995,0,0,0,3.3756,4.14648q5.32032,3.74277,12.146,1.3944a16.732,16.732,0,0,0,5.90764-3.44928,13.59848,13.59848,0,0,0,3.81635-6.05456l1.65125,4.807,7.99929-2.75208L366.66342,488.965Z" transform="translate(-14.52692 -7.26555)" style="fill:#215bdf"/><path d="M379.90993,467.64556l-8.54971,2.93555L389.157,522.43022l8.58662-2.97228Z" transform="translate(-14.52692 -7.26555)" style="fill:#215bdf"/><path d="M409.48578,473.113q-7.229,2.49514-10.42134,7.22877a11.812,11.812,0,0,0-1.39431,10.568l8.77009-3.009a6.30157,6.30157,0,0,1,.36694-5.28394,8.36813,8.36813,0,0,1,4.77027-3.4126q6.71517-2.31177,9.13667,4.66017l.51387,1.57787q-2.23875,1.10083-7.41233,3.52265a46.7403,46.7403,0,0,0-7.30232,4.32995q-7.55853,5.83438-4.91682,13.43012,1.7609,5.17391,6.05456,6.89855,4.32969,1.72455,10.45789-.36694a18.143,18.143,0,0,0,6.715-3.81622,15.71688,15.71688,0,0,0,3.74289-5.90778,44.98128,44.98128,0,0,0,2.01819,4.66016l7.77927-2.6787a79.41182,79.41182,0,0,1-4.77026-11.30183l-3.52287-10.27442q-2.715-7.96274-7.192-10.64136-5.02737-3.04562-13.39343-.18347m13.76038,18.20038.55041,1.54115q1.94474,5.68758.29348,9.17358-1.46794,3.08232-5.79763,4.55011a7.43432,7.43432,0,0,1-5.06375.18347,5.12716,5.12716,0,0,1-2.86244-3.22907q-1.35777-4.03634,3.376-7.30219Q413.99912,496.047,423.24616,491.3134Z" transform="translate(-14.52692 -7.26555)" style="fill:#215bdf"/><path d="M432.38283,456.16021l3.15593,9.1369-5.908,2.01819,2.23857,6.5683,5.94456-2.01819,6.53152,19.04437q2.128,6.27466,5.57761,8.21954,3.41268,1.94479,8.91665.03668a22.07854,22.07854,0,0,0,5.28377-2.53192l-2.23821-6.56829a17.56536,17.56536,0,0,1-2.86209,1.321,4.02543,4.02543,0,0,1-4.03637-.40363q-1.43087-1.1742-2.64207-4.73358l-5.9811-17.3564,7.302-2.49523-2.27476-6.56829-7.26576,2.49523-3.15557-9.1369Z" transform="translate(-14.52692 -7.26555)" style="fill:#215bdf"/><path d="M489.69945,453.99528a14.79834,14.79834,0,0,0-7.302-3.59606,18.47257,18.47257,0,0,0-9.35706.88067q-8.22021,2.82544-11.33869,10.01753-3.00848,7.00866-.11,15.44835,3.15574,9.21026,9.50361,12.73292,6.49479,3.66941,15.30161.62378,6.75173-2.31171,10.01749-6.75172a15.64474,15.64474,0,0,0,2.75207-11.045l-9.06321,3.119q.18383,6.34812-5.798,8.36633a8.778,8.778,0,0,1-7.85238-.5871,13.42628,13.42628,0,0,1-5.10065-6.86187l26.1999-8.99011q-3.08211-9.06351-7.85274-13.35671m-20.65884,16.14551a11.46648,11.46648,0,0,1,.44041-8.07275,8.70131,8.70131,0,0,1,5.24722-4.44,8.48166,8.48166,0,0,1,6.715.33025,11.63856,11.63856,0,0,1,5.24722,6.09126Z" transform="translate(-14.52692 -7.26555)" style="fill:#215bdf"/><path d="M529.69628,432.896l-8.54971,2.97223,6.42151,18.67743q2.20165,6.34812.99082,10.3111a7.5123,7.5123,0,0,1-5.10066,4.917q-4.07328,1.39437-6.715-1.21093-1.98181-1.98148-3.63288-6.86183l-7.11849-20.62224-8.4766,2.89886,7.1923,20.91577a48.573,48.573,0,0,0,2.75208,6.75177,11.6471,11.6471,0,0,0,3.37595,4.14643q5.394,3.74286,12.14568,1.43109a16.30838,16.30838,0,0,0,5.90764-3.44928,13.62387,13.62387,0,0,0,3.85291-6.05456l1.61469,4.77026,7.9993-2.75207Z" transform="translate(-14.52692 -7.26555)" style="fill:#215bdf"/><path d="M549.51122,432.23552l-1.90818-5.46746-8.03584,2.75207,12.65955,36.84113,8.5497-2.93555-5.5407-16.14551q-2.385-6.89853-1.32121-10.8982,1.10083-4.29325,6.27495-6.05456a23.45874,23.45874,0,0,1,3.816-.91736l-2.53169-7.41228a18.63634,18.63634,0,0,0-4.1833,1.02745Q550.97954,425.22692,549.51122,432.23552Z" transform="translate(-14.52692 -7.26555)" style="fill:#215bdf"/><path d="M607.48827,389.41325l-8.54971,2.93555,6.605,19.19111q-5.21013-3.7061-12.47607-1.21089a14.64309,14.64309,0,0,0-9.54053,9.06349q-2.49567,6.64166.51387,15.33825,3.11919,9.0635,9.13667,12.73291,5.87075,3.596,13.02649,1.13752a14.57365,14.57365,0,0,0,5.908-3.66943,13.75656,13.75656,0,0,0,3.44906-5.8711l1.68815,4.95374,8.07275-2.78876-17.83366-51.81239m-10.01748,26.75014a7.87416,7.87416,0,0,1,7.55889,1.13756q3.52287,2.56857,5.50415,8.32959,2.01783,5.90777.73389,10.091a8.06473,8.06473,0,0,1-5.32068,5.54083,7.77307,7.77307,0,0,1-7.55889-1.21088q-3.48579-2.56859-5.50415-8.36633-1.98182-5.7977-.77044-9.94416A8.07367,8.07367,0,0,1,597.47079,416.16339Z" transform="translate(-14.52692 -7.26555)" style="fill:#215bdf"/><path d="M637.87111,394.62383q-8.21913,2.82544-11.33833,10.01757-3.009,7.00859-.11,15.44831,3.15521,9.21024,9.50361,12.73291,6.49533,3.66942,15.30161.62384,6.78828-2.34848,10.01748-6.78846a15.57976,15.57976,0,0,0,2.75208-11.0083l-9.06357,3.119q.18328,6.34812-5.79764,8.36628a8.85628,8.85628,0,0,1-7.85237-.62378,13.4239,13.4239,0,0,1-5.10065-6.82514l26.19989-8.99011q-3.11865-9.13688-7.85273-13.35675a15.08586,15.08586,0,0,0-7.33886-3.63275,18.08531,18.08531,0,0,0-9.32051.91736m1.68816,6.34814a8.29363,8.29363,0,0,1,6.715.33021,11.6385,11.6385,0,0,1,5.24722,6.0913L633.87164,413.448a11.35593,11.35593,0,0,1,.44041-8.03607A8.70027,8.70027,0,0,1,639.55927,400.972Z" transform="translate(-14.52692 -7.26555)" style="fill:#215bdf"/><path d="M703.334,359.65411q-6.71517-.88065-15.66855,2.20166l-15.15469,5.17394,17.8333,51.84907,16.219-5.57752a31.6598,31.6598,0,0,0,11.15522-6.34814,23.26939,23.26939,0,0,0,6.128-9.0268q3.2654-8.80663-.44041-19.63147-5.72452-16.73263-20.07187-18.64074m-13.54035,9.8341q7.30268-2.4952,12.36606-1.21093a13.31049,13.31049,0,0,1,7.04538,4.36663,27.29156,27.29156,0,0,1,4.84373,9.10022q3.339,9.68729-.11,16.10882-3.15576,5.6142-11.52217,8.47638L696.839,408.2741,684.17943,371.433Z" transform="translate(-14.52692 -7.26555)" style="fill:#215bdf"/><path d="M742.92728,358.47991q-8.22021,2.82544-11.30214,10.01757-3.009,7.04527-.11,15.485,3.15629,9.21026,9.46707,12.73292,6.49479,3.63273,15.3016.58714,6.78828-2.31177,10.0544-6.75176a15.64824,15.64824,0,0,0,2.75207-11.045l-9.06357,3.119q.11019,6.34812-5.83454,8.403a8.77053,8.77053,0,0,1-7.81583-.62379,13.166,13.166,0,0,1-5.10029-6.82514l26.19954-9.02679a44.3403,44.3403,0,0,0-3.339-7.59576,21.75151,21.75151,0,0,0-4.55024-5.72431,14.46223,14.46223,0,0,0-7.302-3.63274,18.47246,18.47246,0,0,0-9.35706.88067m-3.96327,18.8609a11.46646,11.46646,0,0,1,.4404-8.07276,8.70327,8.70327,0,0,1,5.24722-4.44,8.495,8.495,0,0,1,6.71535.33021,11.66649,11.66649,0,0,1,5.21031,6.128Z" transform="translate(-14.52692 -7.26555)" style="fill:#215bdf"/><path d="M798.95925,340.3529l-9.13668,3.119.62388,20.402q.25692,5.87107.88045,11.8156l-.51351.18347q-4.55059-7.04534-6.56843-9.87078L772.35585,349.4898l-9.50362,3.2658,25.50257,32.4378,10.421-3.59606Z" transform="translate(-14.52692 -7.26555)" style="fill:#215bdf"/><path d="M810.84835,329.16113l-2.97209-8.65986-8.58662,2.97223,2.9721,8.62317,8.58661-2.93554m2.16511,6.34813-8.55006,2.93555,12.65954,36.84112,8.55007-2.93554Z" transform="translate(-14.52692 -7.26555)" style="fill:#215bdf"/><path d="M825.783,333.41768a10.11447,10.11447,0,0,0-1.35776,9.50382,9.43452,9.43452,0,0,0,7.30231,6.53161q3.08211.66051,10.27442-.03671a31.71338,31.71338,0,0,1,6.86155-.22015,4.478,4.478,0,0,1,3.96328,2.97223,4.045,4.045,0,0,1-.66079,3.963,9.21073,9.21073,0,0,1-4.47642,2.89886q-7.85309,2.71539-10.12785-3.92629L828.792,358.113q2.31185,6.16468,7.70581,7.99938,5.35687,1.798,13.24651-.91736,7.2285-2.4952,10.38443-6.97195A10.35277,10.35277,0,0,0,861.45,348.389a9.16976,9.16976,0,0,0-6.20149-6.16465,28.03942,28.03942,0,0,0-9.137-.55041,64.22947,64.22947,0,0,1-8.25623.44033q-3.92653-.33027-4.80681-2.93554a3.72763,3.72763,0,0,1,.62387-3.70614,8.10061,8.10061,0,0,1,4.10984-2.71537q3.48631-1.21092,5.68762-.36695,2.2022.88066,3.486,4.07307l8.5128-2.93555q-2.09147-6.01788-7.11848-7.7792-4.99083-1.7613-12.40262.77059Q828.90222,328.941,825.783,333.41768Z" transform="translate(-14.52692 -7.26555)" style="fill:#215bdf"/></svg>