<svg id="Layer_1" data-name="Layer 1" xmlns="http://www.w3.org/2000/svg" viewBox="0 0 960.76669 710.50973"><defs><style>.cls-1{fill:#fff;}.cls-2{fill:none;stroke:#0e57e7;stroke-miterlimit:9.9999;stroke-width:2.99997px;}.cls-3{fill:#215bdf;}</style></defs><g id="Layer0_1_MEMBER_0_MEMBER_0_MEMBER_0_FILL" data-name="Layer0 1 MEMBER 0 MEMBER 0 MEMBER 0 FILL"><path class="cls-1" d="M920.39305,395.254q21.026-3.26581,32.76806-5.65089,5.87113-1.17422,7.52234-1.688L408.2869,69.00462q-11.96232,2.4219-38.34558,6.64171Q317.21156,84.086,245.1439,93.00277q-54.82137,6.78853-121.45826-13.17332A494.53157,494.53157,0,0,1,32.86716,42.03428L232.1908,157.14449l-48.253,15.41162q-69.20553,22.01673-130.11812,16.916a206.651,206.651,0,0,1-34.933-5.72426,95.9061,95.9061,0,0,1-12.10913-3.77953l141.34658,81.57152L6.77749,332.91036,59.58064,363.4033h.03669L6.77749,394.11644,559.174,713.027,960.68345,479.6877l-28.25464-16.29225,28.25464-14.27424-32.73133-18.89758q20.36535-7.15541,32.73133-11.70546Z" transform="translate(-3.63223 -4.2336)"/></g><g id="Layer0_1_MEMBER_0_MEMBER_0_MEMBER_1_FILL" data-name="Layer0 1 MEMBER 0 MEMBER 0 MEMBER 1 FILL"><path class="cls-1" d="M6.77749,26.98961,13.676,31.24618q8.91673,5.32073,19.19114,10.7881Z" transform="translate(-3.63223 -4.2336)"/></g><path id="Layer0_1_MEMBER_0_MEMBER_1_1_STROKES" data-name="Layer0 1 MEMBER 0 MEMBER 1 1 STROKES" class="cls-2" d="M232.196,157.13292l-48.25256,15.41146q-69.20486,22.01639-130.11683,16.91591a206.65325,206.65325,0,0,1-34.93266-5.72424,95.88783,95.88783,0,0,1-12.109-3.77948L221.33454,303.79873" transform="translate(-3.63223 -4.2336)"/><path id="Layer0_1_MEMBER_0_MEMBER_2_1_STROKES" data-name="Layer0 1 MEMBER 0 MEMBER 2 1 STROKES" class="cls-2" d="M289.47526,190.19417,32.92935,42.079q-2.56743-1.3736-5.11881-2.77039Q19.481,34.72182,12.289,30.39192l-5.5041-3.41253L32.92935,42.079A526.88827,526.88827,0,0,0,82.70472,65.36129Q173.082,101.94517,245.14894,92.99184,317.21589,84.0752,369.94513,75.6356q26.383-4.2198,38.3452-6.64161L960.6814,387.90129q-1.65123.51378-7.52226,1.68791-11.74207,2.3851-32.76775,5.65088l40.29,23.264q-12.36591,4.55-32.73106,11.70539h.03674l32.69432,18.8974-28.25436,14.274L960.6814,479.6729l-401.50548,233.337L6.78489,394.10258l52.83932-30.71283h-.0367L6.78489,332.897l141.34518-71.36977" transform="translate(-3.63223 -4.2336)"/><g id="Layer0_1_MEMBER_0_MEMBER_3_MEMBER_0_FILL" data-name="Layer0 1 MEMBER 0 MEMBER 3 MEMBER 0 FILL"><path class="cls-1" d="M838.67478,298.78462a129.69963,129.69963,0,0,0-8.69654,22.34682,101.41244,101.41244,0,0,0-3.92628,22.53028l-.03673.44041a10.10936,10.10936,0,1,0,20.21862,0l.07337-.69725a86.418,86.418,0,0,1,3.92627-19.22779,113.56275,113.56275,0,0,1,8.403-19.70484,118.64338,118.64338,0,0,1,11.92566-18.09033l3.7429-4.47669a93.9708,93.9708,0,0,1,8.58643-8.51316l9.28369-6.93519q1.50436-.99078,2.275-1.43105,1.68794-.99076,4.58679-2.34849.69715-.3303,2.56861-1.0641a33.31292,33.31292,0,0,1,11.81555-2.5686q11.70559,0,16.62256,11.48535a41.57338,41.57338,0,0,1,3.04564,16.40235q.07338,16.6225-8.21958,35.55677A116.94528,116.94528,0,0,1,903.73385,355.037l17.90686,10.34787a135.72425,135.72425,0,0,0,22.9706-37.53832q8.73327-21.31944,8.6599-40.95091-.03669-21.53956-11.045-34.82289-11.00831-13.24665-28.80506-13.24669a48.27839,48.27839,0,0,0-10.60462,1.24766q-1.94487.477-2.89891.77052l-7.63235,2.67871-1.2843.62378q-1.17434.51387-2.82554,1.321l-.62378.33021q-2.12829,1.10083-3.19239,1.72461-.66048.36686-1.94482,1.21094l-7.77918,5.3574q-1.83468,1.39433-2.56861,1.98146l-2.42186,2.05492q-2.56865,2.23821-4.29322,3.92628-.587.5871-1.798,1.76134l-4.14648,4.36659a130.69892,130.69892,0,0,0-8.91674,11.08168l-.69716.91735q-1.90818,2.71539-2.82545,4.14648l-.14683.25684a146.38706,146.38706,0,0,0-8.07275,14.09068Z" transform="translate(-3.63223 -4.2336)"/></g><path id="Layer0_1_MEMBER_0_MEMBER_3_MEMBER_0_1_STROKES" data-name="Layer0 1 MEMBER 0 MEMBER 3 MEMBER 0 1 STROKES" class="cls-2" d="M829.97743,321.11826a101.41188,101.41188,0,0,0-3.92623,22.53011l-.03668.44033a10.10924,10.10924,0,1,0,20.21837,0l.07336-.69719a86.42432,86.42432,0,0,1,3.92629-19.22763,113.54837,113.54837,0,0,1,8.40294-19.70467A118.63347,118.63347,0,0,1,870.561,286.36909l3.74276-4.47667a93.9714,93.9714,0,0,1,8.5864-8.513l9.28354-6.93517q1.50447-.99073,2.27506-1.431,1.68793-.99077,4.58675-2.34842.69716-.33022,2.56857-1.06411a33.31262,33.31262,0,0,1,11.81544-2.56858q11.70544,0,16.62239,11.48521a41.57341,41.57341,0,0,1,3.04557,16.40221q.07342,16.62238-8.2194,35.55644a116.941,116.941,0,0,1-21.13578,32.54756L921.639,365.37118a135.72177,135.72177,0,0,0,22.97042-37.5379q8.73312-21.31921,8.65976-40.95049-.0367-21.53935-11.04487-34.82256-11.0082-13.24654-28.80477-13.24654a48.284,48.284,0,0,0-10.60457,1.2476q-1.94484.477-2.89878.77056l-7.63237,2.67866-1.28429.6238q-1.17414.5137-2.82541,1.321l-.62383.33023q-2.12822,1.10082-3.19235,1.72462-.66046.36695-1.94481,1.2109L874.634,254.0784q-1.83471,1.39437-2.56858,1.98145l-2.42179,2.05488q-2.56859,2.23836-4.29323,3.92623-.587.58713-1.798,1.76134l-4.14638,4.36656a130.67115,130.67115,0,0,0-8.91666,11.08159l-.6972.91735q-1.90812,2.71537-2.82541,4.14641l-.14679.25686a146.35575,146.35575,0,0,0-8.07267,14.0905l-.07337.11008A129.70913,129.70913,0,0,0,829.97743,321.11826Z" transform="translate(-3.63223 -4.2336)"/><g id="Layer0_1_MEMBER_0_MEMBER_3_MEMBER_1_FILL" data-name="Layer0 1 MEMBER 0 MEMBER 3 MEMBER 1 FILL"><path class="cls-1" d="M848.58225,211.92906q-1.798.58724-2.71535.88072l-8.18285,3.5226-11.15513,6.82518-4.917,3.77954q-1.10082.88071-2.42186,2.05483-2.56865,2.23848-4.29322,3.92636l-5.94446,6.12794A126.68964,126.68964,0,0,0,799.999,250.1279l-3.66943,5.32068a143.53618,143.53618,0,0,0-8.07275,14.09059l-.03673.1101a130.348,130.348,0,0,0-8.73327,22.3469,103.804,103.804,0,0,0-3.92628,22.53029l-.03673.44031a10.12768,10.12768,0,0,0,20.25535,0l.03664-.69715a84.725,84.725,0,0,1,3.963-19.26453v.03664a114.70236,114.70236,0,0,1,8.403-19.74148,119.91056,119.91056,0,0,1,11.889-18.05369l3.77953-4.47669a94.24146,94.24146,0,0,1,8.58644-8.51307l5.284-4.21984q1.32108-1.02733,2.45859-1.76135l3.81618-2.38513q2.31171-1.32094,4.58679-2.3484.844-.40368,2.53187-1.06419a33.30892,33.30892,0,0,1,11.81565-2.56861q11.74215-.00014,16.65919,11.48535a41.32446,41.32446,0,0,1,3.00892,16.40235q.07338,16.6225-8.21949,35.55686a116.94269,116.94269,0,0,1-21.136,32.54786l17.90686,10.34779a135.70432,135.70432,0,0,0,23.00733-37.53833q8.73327-21.28275,8.6599-40.95082-.03669-21.53956-11.045-34.78625t-28.8417-13.24669a48.31318,48.31318,0,0,0-10.60472,1.21093q-1.94472.477-2.89881.77062Z" transform="translate(-3.63223 -4.2336)"/></g><path id="Layer0_1_MEMBER_0_MEMBER_3_MEMBER_1_1_STROKES" data-name="Layer0 1 MEMBER 0 MEMBER 3 MEMBER 1 1 STROKES" class="cls-2" d="M845.866,212.79768l-8.18278,3.52261-11.15492,6.82506-4.917,3.77951q-1.10082.88064-2.42179,2.05485-2.5685,2.2383-4.29324,3.92626l-5.94439,6.1279a126.71765,126.71765,0,0,0-8.95335,11.08155l-3.66939,5.32063a143.53126,143.53126,0,0,0-8.07268,14.0905l-.03668.11007a130.34616,130.34616,0,0,0-8.73319,22.34664,103.8008,103.8008,0,0,0-3.92623,22.53008l-.03668.44034a10.12753,10.12753,0,0,0,20.255,0l.03668-.69717a84.72249,84.72249,0,0,1,3.963-19.26434v.03669a114.70037,114.70037,0,0,1,8.40293-19.74135,119.9059,119.9059,0,0,1,11.8888-18.05344l3.77951-4.47668a94.25069,94.25069,0,0,1,8.5864-8.513l5.28394-4.21981q1.321-1.02744,2.45847-1.7613l3.81619-2.38511q2.31168-1.321,4.58675-2.3484.84391-.40365,2.53189-1.06414a33.31149,33.31149,0,0,1,11.81544-2.56857q11.74206,0,16.65907,11.4852a41.32322,41.32322,0,0,1,3.00888,16.40222q.07342,16.62237-8.21946,35.55647a116.94324,116.94324,0,0,1-21.13571,32.54753l17.90668,10.3477a135.70447,135.70447,0,0,0,23.00709-37.53793q8.73322-21.28249,8.65977-40.95046-.03661-21.53934-11.04487-34.78591t-28.84145-13.24651a48.31839,48.31839,0,0,0-10.60457,1.2109q-1.94475.477-2.89884.77059l-.84392.22015Q846.78333,212.50408,845.866,212.79768Z" transform="translate(-3.63223 -4.2336)"/><g id="Layer0_1_MEMBER_0_MEMBER_3_MEMBER_2_FILL" data-name="Layer0 1 MEMBER 0 MEMBER 3 MEMBER 2 FILL"><path class="cls-1" d="M776.07421,194.02229l-7.37551,5.83437q-2.56851,2.23835-4.29322,3.92627l-1.79808,1.72462q-.9174.91726-2.6787,2.82554l-1.46778,1.57778a131.698,131.698,0,0,0-8.95338,11.08176l-3.486,5.02711-.14679.29357A126.1118,126.1118,0,0,0,737.802,240.4039l-.07337.1101a130.13459,130.13459,0,0,0-8.69658,22.31017,101.48045,101.48045,0,0,0-3.92628,22.567l-.07337.44032a10.12763,10.12763,0,0,0,20.25525,0l.07337-.69725a86.41977,86.41977,0,0,1,3.92633-19.2278,114.69165,114.69165,0,0,1,8.403-19.74157,118.24943,118.24943,0,0,1,11.92566-18.05359,6.256,6.256,0,0,1,.58705-.73389l3.15575-3.7428a107.89265,107.89265,0,0,1,8.58644-8.51307l1.35776-1.13756q1.32094-1.13753,2.42177-1.94482l5.50415-3.85291q1.65124-1.10082,2.275-1.431,2.05491-1.1742,4.58679-2.34849.99076-.477,2.5686-1.0641a33.31108,33.31108,0,0,1,11.81565-2.5686q11.70546,0,16.62246,11.48534a41.56993,41.56993,0,0,1,3.04565,16.40235q.07336,16.62251-8.2195,35.55678a116.94328,116.94328,0,0,1-21.136,32.548l17.90685,10.34778a136.90353,136.90353,0,0,0,22.97069-37.53832q8.73313-21.31945,8.65981-40.95092-.03654-21.53955-11.04494-34.82289-11.00829-13.24663-28.80505-13.24669a48.275,48.275,0,0,0-10.60472,1.24766q-1.94472.477-2.89881.77053l-7.63244,2.6787-4.73354,2.275-7.96274,4.73362Q778.27582,192.48106,776.07421,194.02229Z" transform="translate(-3.63223 -4.2336)"/></g><path id="Layer0_1_MEMBER_0_MEMBER_3_MEMBER_2_1_STROKES" data-name="Layer0 1 MEMBER 0 MEMBER 3 MEMBER 2 1 STROKES" class="cls-2" d="M768.6985,199.84468q-2.56866,2.23834-4.29317,3.92626l-1.798,1.72462q-.91734.91735-2.67862,2.82545l-1.46776,1.57783a131.69778,131.69778,0,0,0-8.95334,11.08159l-3.48593,5.02708-.14678.29354a126.08975,126.08975,0,0,0-8.07268,14.09047l-.07336.11011a130.13849,130.13849,0,0,0-8.69651,22.30993,101.47365,101.47365,0,0,0-3.92623,22.56679l-.07343.44033a10.12756,10.12756,0,0,0,20.25511,0l.07337-.6972a86.42063,86.42063,0,0,1,3.92629-19.22765,114.698,114.698,0,0,1,8.40287-19.74135A118.26985,118.26985,0,0,1,769.61585,228.099a6.2451,6.2451,0,0,1,.58715-.73388l3.15567-3.74276a107.89633,107.89633,0,0,1,8.5864-8.513l1.35766-1.13753q1.3209-1.13748,2.42179-1.94477l5.50409-3.85287q1.65123-1.10082,2.27507-1.431,2.05488-1.1742,4.58674-2.34842.99069-.477,2.56858-1.06414a33.30972,33.30972,0,0,1,11.81543-2.56858q11.70537,0,16.6224,11.48524a41.57187,41.57187,0,0,1,3.04556,16.40218q.07343,16.62237-8.21946,35.55647a116.94393,116.94393,0,0,1-21.13572,32.54756l17.90669,10.34771a136.89961,136.89961,0,0,0,22.97041-37.538q8.73314-21.31921,8.65977-40.95046-.03672-21.5394-11.04488-34.82259-11.00818-13.2465-28.80477-13.24652a48.28224,48.28224,0,0,0-10.60457,1.24761q-1.94474.477-2.89883.77056l-7.63231,2.67866-4.73354,2.275-7.96256,4.73353q-.36694.22014-2.56858,1.76131Z" transform="translate(-3.63223 -4.2336)"/><g id="Layer0_1_MEMBER_0_MEMBER_3_MEMBER_3_FILL" data-name="Layer0 1 MEMBER 0 MEMBER 3 MEMBER 3 FILL"><path class="cls-1" d="M750.16806,174.20735a32.46827,32.46827,0,0,1,11.81556-2.5686q11.74213.00014,16.65919,11.48526a41.32346,41.32346,0,0,1,3.009,16.40243q.07336,16.62252-8.21959,35.52005a117.49271,117.49271,0,0,1-21.13593,32.58459l17.90681,10.34778a135.70884,135.70884,0,0,0,23.00742-37.53823q8.73314-21.28263,8.65981-40.95092-.07337-21.57624-11.08167-34.82288-10.97162-13.24678-28.80505-13.2467a48.29021,48.29021,0,0,0-10.60468,1.24758l-3.7428.99082q-1.798.5871-2.71539.88062l-8.18285,3.5227-8.58644,5.06374-4.95374,3.55942q-1.65117,1.21089-2.53192,1.98146-.844.66048-2.45854,2.05492-2.12823,1.87135-4.25654,3.92628l-5.94446,6.12793a114.72734,114.72734,0,0,0-8.95343,11.08168L695.3834,197.178a141.92239,141.92239,0,0,0-8.07276,14.09068l-.03668.11a130.78736,130.78736,0,0,0-8.73327,22.31018,103.86542,103.86542,0,0,0-3.92628,22.567l-.03668.44032a10.12763,10.12763,0,0,0,20.25525,0l.03669-.69716A86.41771,86.41771,0,0,1,698.796,236.7712h.03668a111.43153,111.43153,0,0,1,8.403-19.70493A119.03722,119.03722,0,0,1,719.12461,198.976l3.77954-4.47678a94.25239,94.25239,0,0,1,8.58648-8.51307l3.74281-3.08229,7.81591-5.284q1.83474-1.064,4.55011-2.3484Z" transform="translate(-3.63223 -4.2336)"/></g><path id="Layer0_1_MEMBER_0_MEMBER_3_MEMBER_3_1_STROKES" data-name="Layer0 1 MEMBER 0 MEMBER 3 MEMBER 3 1 STROKES" class="cls-2" d="M761.98354,171.627q11.74208,0,16.65908,11.48521a41.32507,41.32507,0,0,1,3.00888,16.40221q.07342,16.62234-8.21946,35.51976a117.49215,117.49215,0,0,1-21.13572,32.58424L770.203,277.96616a135.70407,135.70407,0,0,0,23.0071-37.53793q8.73322-21.2825,8.65976-40.95049-.07343-21.57606-11.08155-34.82256-10.97157-13.24654-28.80477-13.24654a48.28134,48.28134,0,0,0-10.60457,1.24761l-3.74276.99074q-1.798.58712-2.71537.88064l-8.18278,3.52264-8.5864,5.06376-4.95368,3.55932q-1.65114,1.21086-2.53184,1.98145-.844.66051-2.45853,2.05489-2.12822,1.8714-4.25649,3.92626l-5.9444,6.12787a114.74461,114.74461,0,0,0-8.95334,11.08158L695.384,197.166a141.92456,141.92456,0,0,0-8.07267,14.09049l-.03668.11008a130.77918,130.77918,0,0,0-8.73319,22.30993,103.8703,103.8703,0,0,0-3.92623,22.56679l-.03675.44034a10.12756,10.12756,0,0,0,20.25511,0l.03668-.6972a86.42756,86.42756,0,0,1,3.92623-19.22762h.03675a111.42054,111.42054,0,0,1,8.40287-19.70467A119.03657,119.03657,0,0,1,719.125,198.964l3.7795-4.47667a94.24428,94.24428,0,0,1,8.5864-8.513l3.74276-3.08228,7.81584-5.28394q1.83471-1.06416,4.55-2.34843l2.56858-1.06411A32.46526,32.46526,0,0,1,761.98354,171.627Z" transform="translate(-3.63223 -4.2336)"/><g id="Layer0_1_MEMBER_0_MEMBER_3_MEMBER_4_FILL" data-name="Layer0 1 MEMBER 0 MEMBER 3 MEMBER 4 FILL"><path class="cls-1" d="M728.15146,153.98874a41.57365,41.57365,0,0,1,3.0456,16.40235q.03669,16.62264-8.21954,35.52013a116.77992,116.77992,0,0,1-21.13593,32.58459l17.90686,10.34779a136.90255,136.90255,0,0,0,22.97064-37.53833q8.73327-21.31931,8.65985-40.95082-.03667-21.53957-11.045-34.823-11.00831-13.24652-28.80505-13.2466a48.29036,48.29036,0,0,0-10.60468,1.24757l-2.89886.73389-7.63239,2.71534-7.926,3.963-1.94482,1.24766q-2.45853,1.54119-2.82544,1.76125l-9.94421,7.63244q-2.05485,1.76145-4.29321,3.92628l-5.94447,6.128a131.68013,131.68013,0,0,0-8.95343,11.08167l-3.486,5.0271-.14678.29358a126.09467,126.09467,0,0,0-8.07276,14.09059l-.07337.07337a131.27481,131.27481,0,0,0-8.69658,22.3469,103.53455,103.53455,0,0,0-3.963,22.567l-.03673.44031a10.12766,10.12766,0,0,0,20.2553,0l.07338-.69715a86.41952,86.41952,0,0,1,3.92632-19.22789,114.70128,114.70128,0,0,1,8.403-19.74157,118.26877,118.26877,0,0,1,11.92566-18.0536l.58715-.73388q1.50444-1.908,2.642-3.15566l.51373-.58715a93.982,93.982,0,0,1,8.58649-8.51307l5.32067-4.25657,3.963-2.67871q1.65125-1.101,2.27507-1.431,1.68793-.99078,4.58679-2.3484.99071-.477,2.56861-1.06419a32.46453,32.46453,0,0,1,11.81556-2.56861Q723.23436,142.50339,728.15146,153.98874Z" transform="translate(-3.63223 -4.2336)"/></g><path id="Layer0_1_MEMBER_0_MEMBER_3_MEMBER_4_1_STROKES" data-name="Layer0 1 MEMBER 0 MEMBER 3 MEMBER 4 1 STROKES" class="cls-2" d="M731.19729,170.37943q.03671,16.62237-8.21947,35.51976a116.78032,116.78032,0,0,1-21.13571,32.58427l17.90668,10.34767a136.90279,136.90279,0,0,0,22.97042-37.53792q8.73312-21.31921,8.65976-40.95046-.03661-21.5394-11.04487-34.8226-11.0082-13.24653-28.80477-13.24651a48.28388,48.28388,0,0,0-10.60457,1.24758l-2.89884.73388-7.63231,2.71536-7.92594,3.963-1.94475,1.2476q-2.45853,1.54115-2.82547,1.76131l-9.944,7.63234q-2.05488,1.76132-4.29317,3.92626l-5.94446,6.1279a131.679,131.679,0,0,0-8.95328,11.08159l-3.48593,5.02705-.14679.29357a126.09124,126.09124,0,0,0-8.07267,14.09047l-.07343.07339a131.26461,131.26461,0,0,0-8.69645,22.34664,103.538,103.538,0,0,0-3.963,22.5668l-.03668.4403a10.12756,10.12756,0,0,0,20.25511,0l.07336-.69717a86.42022,86.42022,0,0,1,3.92623-19.22765,114.7007,114.7007,0,0,1,8.40293-19.74135A118.26324,118.26324,0,0,1,668.67075,169.829l.58709-.73388q1.50447-1.90807,2.642-3.15567l.51373-.58712a93.99717,93.99717,0,0,1,8.58634-8.513l5.32062-4.25652,3.963-2.67865q1.65114-1.10082,2.275-1.43108,1.68794-.99073,4.58675-2.3484.99077-.477,2.56857-1.06413a32.4654,32.4654,0,0,1,11.8155-2.56858q11.70536,0,16.62233,11.48521A41.57121,41.57121,0,0,1,731.19729,170.37943Z" transform="translate(-3.63223 -4.2336)"/><g id="Layer0_1_MEMBER_0_MEMBER_3_MEMBER_5_FILL" data-name="Layer0 1 MEMBER 0 MEMBER 3 MEMBER 5 FILL"><path class="cls-1" d="M689.84256,106.3962q-10.97162-13.24665-28.80505-13.24669a46.31589,46.31589,0,0,0-10.60467,1.24766L646.69,95.3879q-1.79805.587-2.71539.88063l-8.18285,3.52269-5.72431,3.22912q-1.90811,1.1742-2.86218,1.83472l-4.95373,3.55933q-1.65132,1.21089-2.53188,1.98146-.844.6606-2.45854,2.05492-2.12823,1.87135-4.25654,3.92627l-5.98119,6.12794a130.689,130.689,0,0,0-8.9167,11.08167l-.66051.91736q-1.24758,1.68807-2.82545,4.10984l-.18347.29348a141.92918,141.92918,0,0,0-8.07276,14.09068l-.03668.07337a131.9393,131.9393,0,0,0-8.73327,22.34681,104.37052,104.37052,0,0,0-3.92628,22.567l-.03673.4404a10.12766,10.12766,0,0,0,20.2553,0l.03669-.69724a87.54886,87.54886,0,0,1,3.92627-19.26453v.03673a114.70255,114.70255,0,0,1,8.403-19.74157,118.26574,118.26574,0,0,1,11.92566-18.05359l3.77953-4.47669a94.25684,94.25684,0,0,1,8.58648-8.51316l3.74281-3.08229,7.81591-5.28395q1.83474-1.06415,4.55006-2.34849.88065-.40354,2.5686-1.0641a32.467,32.467,0,0,1,11.81561-2.5686q11.74221,0,16.65924,11.48534a41.3244,41.3244,0,0,1,3.00891,16.40235q.07338,16.62251-8.21954,35.52014a117.49375,117.49375,0,0,1-21.13593,32.5845l17.90686,10.34787A135.70689,135.70689,0,0,0,692.26438,182.17q8.73327-21.28263,8.65985-40.95092Q700.85087,119.64285,689.84256,106.3962Z" transform="translate(-3.63223 -4.2336)"/></g><path id="Layer0_1_MEMBER_0_MEMBER_3_MEMBER_5_1_STROKES" data-name="Layer0 1 MEMBER 0 MEMBER 3 MEMBER 5 1 STROKES" class="cls-2" d="M661.03844,93.13862a46.31811,46.31811,0,0,0-10.60457,1.2476l-3.74283.99073q-1.798.58713-2.7153.88065L635.793,99.78023l-5.72425,3.22908q-1.90812,1.1742-2.86215,1.8347l-4.95369,3.55932q-1.65123,1.21091-2.5319,1.98145-.84391.66051-2.45847,2.05488-2.12831,1.87137-4.25649,3.92623l-5.98114,6.1279a130.68244,130.68244,0,0,0-8.9166,11.08159l-.66051.91735q-1.24758,1.68789-2.82541,4.10973l-.18347.29355a141.92657,141.92657,0,0,0-8.07268,14.09049l-.03674.07337a131.92675,131.92675,0,0,0-8.73313,22.34664A104.37405,104.37405,0,0,0,573.67,197.9733l-.03668.44033a10.12756,10.12756,0,0,0,20.25511,0l.03668-.69719a87.5513,87.5513,0,0,1,3.92623-19.26434v.03671a114.6976,114.6976,0,0,1,8.40293-19.74138A118.25521,118.25521,0,0,1,618.17985,140.694l3.77951-4.47667a94.24856,94.24856,0,0,1,8.58634-8.513l3.74282-3.0823,7.81578-5.28392q1.8347-1.0641,4.55006-2.34842.88072-.40365,2.56858-1.06411a32.46577,32.46577,0,0,1,11.8155-2.56858q11.742,0,16.659,11.48521a41.323,41.323,0,0,1,3.00894,16.40221q.07343,16.62239-8.21946,35.51976a117.493,117.493,0,0,1-21.13571,32.58424l17.90662,10.34771A135.70766,135.70766,0,0,0,692.265,182.15821q8.73314-21.2825,8.65977-40.95049-.07334-21.576-11.08156-34.82256Q678.87172,93.13862,661.03844,93.13862Z" transform="translate(-3.63223 -4.2336)"/><g id="Layer0_1_MEMBER_0_MEMBER_3_MEMBER_6_FILL" data-name="Layer0 1 MEMBER 0 MEMBER 3 MEMBER 6 FILL"><path class="cls-1" d="M599.97812,65.26182l-7.81591,2.34849-7.44892,3.37586q-2.642,1.39431-3.19244,1.68788l-4.77026,3.04565q-.367.22011-2.5686,1.76135l-7.37555,5.83436q-1.83474,1.54119-4.29322,3.88964l-5.94451,6.16466a131.68444,131.68444,0,0,0-8.95339,11.08167l-3.66943,5.32068a135.75786,135.75786,0,0,0-8.03607,14.09059l-.07341.1101a130.12675,130.12675,0,0,0-8.69654,22.31018,103.036,103.036,0,0,0-3.963,22.567l-.03668.44032a10.12766,10.12766,0,0,0,20.2553,0l.03668-.69716a88.0309,88.0309,0,0,1,3.963-19.26452v.03664a114.69912,114.69912,0,0,1,8.403-19.74148,119.91034,119.91034,0,0,1,11.889-18.05369l.62378-.73389q1.06415-1.39445,2.642-3.15566l.51373-.58714a93.98143,93.98143,0,0,1,8.58644-8.51307l1.321-1.13756q1.0274-.88057,2.45851-1.94473l7.77918-5.284q1.68792-.99063,4.58679-2.3484.844-.40367,2.53192-1.06419a32.95327,32.95327,0,0,1,11.85229-2.5686q11.70544-.00014,16.6225,11.48534a41.57315,41.57315,0,0,1,3.04565,16.40236q.03675,16.62251-8.21954,35.52013a116.77969,116.77969,0,0,1-21.13593,32.58459L618.80234,190.573A136.9025,136.9025,0,0,0,641.773,153.03465q8.73321-21.31931,8.65986-40.95083-.03677-21.57638-11.045-34.823t-28.805-13.24661A46.32029,46.32029,0,0,0,599.97812,65.26182Z" transform="translate(-3.63223 -4.2336)"/></g><path id="Layer0_1_MEMBER_0_MEMBER_3_MEMBER_6_1_STROKES" data-name="Layer0 1 MEMBER 0 MEMBER 3 MEMBER 6 1 STROKES" class="cls-2" d="M592.16381,67.59962,584.715,70.97546q-2.642,1.39438-3.19241,1.68793L576.75235,75.709q-.36694.22016-2.56858,1.76132l-7.37548,5.83434q-1.8347,1.54116-4.29317,3.88956l-5.94446,6.16458a131.6903,131.6903,0,0,0-8.95334,11.08157l-3.6694,5.32063a135.7908,135.7908,0,0,0-8.03593,14.0905l-.07342.11007a130.13181,130.13181,0,0,0-8.69645,22.30993,103.03823,103.03823,0,0,0-3.963,22.56679l-.03669.44034a10.12753,10.12753,0,0,0,20.255,0l.03675-.69717a88.02723,88.02723,0,0,1,3.96291-19.26433v.03668a114.69117,114.69117,0,0,1,8.40293-19.74135A119.90289,119.90289,0,0,1,567.689,111.559l.62377-.73388q1.06412-1.39438,2.642-3.15567l.51367-.58712a93.97769,93.97769,0,0,1,8.5864-8.513l1.321-1.13751q1.02748-.88066,2.45854-1.94478l7.77909-5.28394q1.688-.99074,4.58675-2.34841.844-.40364,2.5319-1.06412A32.95556,32.95556,0,0,1,610.58422,84.222q11.70537,0,16.62234,11.4852a41.57106,41.57106,0,0,1,3.04562,16.40222q.03672,16.62237-8.21946,35.51975A116.77767,116.77767,0,0,1,600.897,180.21341l17.90663,10.3477a136.901,136.901,0,0,0,22.97047-37.53793q8.73314-21.31917,8.65977-40.95046-.03663-21.576-11.04488-34.82259T610.58422,64.00361a46.31877,46.31877,0,0,0-10.60457,1.24759Z" transform="translate(-3.63223 -4.2336)"/><g id="Layer0_1_MEMBER_0_MEMBER_3_MEMBER_7_FILL" data-name="Layer0 1 MEMBER 0 MEMBER 3 MEMBER 7 FILL"><path class="cls-1" d="M534.22189,41.85081q-2.642,1.39444-3.19243,1.688l-9.724,6.605L516.315,54.18014q-1.43107,1.24758-4.29322,3.88964l-5.94451,6.16458a130.66832,130.66832,0,0,0-8.9167,11.08176l-.66051.91736q-1.24764,1.68792-2.82545,4.10974l-.18347.25685a141.24412,141.24412,0,0,0-8.07276,14.12732l-.03673.07337a131.92938,131.92938,0,0,0-8.73322,22.3469,103.86806,103.86806,0,0,0-3.92632,22.567l-.03669.44031a10.12766,10.12766,0,0,0,20.2553,0l.03669-.69724a87.55017,87.55017,0,0,1,3.92628-19.26453V120.23a114.69949,114.69949,0,0,1,8.403-19.74157,118.25547,118.25547,0,0,1,11.92566-18.0536l.5871-.73388q1.21088-1.50452,2.6787-3.15575l.51373-.58706a94.24018,94.24018,0,0,1,8.58644-8.51307l1.321-1.13756q.80721-.69715,2.42182-1.94481l7.81587-5.284a49.22391,49.22391,0,0,1,4.5501-2.38513l2.56861-1.02746a32.46493,32.46493,0,0,1,11.8156-2.56861q11.70552,0,16.65919,11.48535a41.49139,41.49139,0,0,1,3.009,16.40235q.07338,16.6225-8.21954,35.52013a117.4943,117.4943,0,0,1-21.13593,32.58459l17.90681,10.34779a135.709,135.709,0,0,0,23.00738-37.53833q8.7332-21.28275,8.65985-40.95091-.07336-21.57624-11.08167-34.82289-10.97161-13.24665-28.805-13.24669a48.313,48.313,0,0,0-10.60467,1.21093L541.67082,38.475Z" transform="translate(-3.63223 -4.2336)"/></g><path id="Layer0_1_MEMBER_0_MEMBER_3_MEMBER_7_1_STROKES" data-name="Layer0 1 MEMBER 0 MEMBER 3 MEMBER 7 1 STROKES" class="cls-2" d="M531.03167,43.52838l-9.7239,6.60491-4.99037,4.03634q-1.43114,1.24758-4.29323,3.88956l-5.9444,6.16458a130.68842,130.68842,0,0,0-8.91666,11.08159l-.66046.91735q-1.24767,1.68792-2.82547,4.10971l-.18347.25687A141.26674,141.26674,0,0,0,485.421,94.71647l-.03668.07338a131.93131,131.93131,0,0,0-8.73316,22.34664,103.86438,103.86438,0,0,0-3.92626,22.56679l-.03669.44033a10.12753,10.12753,0,0,0,20.25505,0l.03674-.69719a87.54424,87.54424,0,0,1,3.92623-19.26434v.03668a114.70131,114.70131,0,0,1,8.40294-19.74135A118.25878,118.25878,0,0,1,517.23475,82.424l.58709-.73388q1.211-1.50447,2.67868-3.15569l.51367-.5871a94.24939,94.24939,0,0,1,8.5864-8.513l1.321-1.13751q.80732-.6972,2.42185-1.94479l7.81578-5.28393a49.276,49.276,0,0,1,4.55007-2.38511l2.56858-1.02743A32.46494,32.46494,0,0,1,560.09327,55.087q11.70536,0,16.65908,11.4852a41.491,41.491,0,0,1,3.00894,16.40222q.07333,16.62237-8.21946,35.51977a117.49259,117.49259,0,0,1-21.13572,32.58424l17.90662,10.34771a135.706,135.706,0,0,0,23.00716-37.538q8.73313-21.28246,8.65976-40.95046-.07343-21.576-11.08161-34.82258-10.97148-13.24654-28.80477-13.24653a48.31685,48.31685,0,0,0-10.60451,1.2109l-7.81584,2.38511-7.4489,3.37585Q531.58212,43.23481,531.03167,43.52838Z" transform="translate(-3.63223 -4.2336)"/><g id="Layer0_1_MEMBER_0_MEMBER_3_MEMBER_8_FILL" data-name="Layer0 1 MEMBER 0 MEMBER 3 MEMBER 8 FILL"><path class="cls-1" d="M480.57475,14.40352q-.66048.40354-1.94478,1.21084l-10.34783,7.33887-2.42181,2.09165q-1.83474,1.54119-4.29322,3.88954l-5.94451,6.16467a131.68468,131.68468,0,0,0-8.95343,11.08167l-3.66943,5.32068A143.53529,143.53529,0,0,0,434.927,65.59212l-.03668.07337a131.27021,131.27021,0,0,0-8.69654,22.34681,103.03667,103.03667,0,0,0-3.963,22.567l-.03668.44032a10.12763,10.12763,0,0,0,20.25525,0l.03673-.69716A88.02875,88.02875,0,0,1,446.449,91.058a115.18066,115.18066,0,0,1,8.403-19.70484,121.50913,121.50913,0,0,1,11.889-18.09032l.62378-.69716q1.06414-1.39444,2.642-3.15575l.51369-.58714a94.00877,94.00877,0,0,1,8.58648-8.51307l1.321-1.13747q.80729-.69729,2.42186-1.94482l7.81587-5.284a38.34179,38.34179,0,0,1,4.58679-2.3484q.844-.40368,2.53192-1.0641a32.95923,32.95923,0,0,1,11.85229-2.5686q11.70552.00014,16.6225,11.48525a41.572,41.572,0,0,1,3.04565,16.40244q.03669,16.62251-8.21954,35.52005a116.77984,116.77984,0,0,1-21.13593,32.58459l17.90681,10.34778a136.90111,136.90111,0,0,0,22.97069-37.53823q8.73321-21.31959,8.65986-40.98765-.03669-21.53955-11.045-34.78616-11.00823-13.24677-28.805-13.24669A47.9815,47.9815,0,0,0,499.032,6.95455L495.25248,7.982q-1.21089.33017-2.71539.88063L484.391,12.38533l-.62379.33021Q481.12516,14.10987,480.57475,14.40352Z" transform="translate(-3.63223 -4.2336)"/></g><path id="Layer0_1_MEMBER_0_MEMBER_3_MEMBER_8_1_STROKES" data-name="Layer0 1 MEMBER 0 MEMBER 3 MEMBER 8 1 STROKES" class="cls-2" d="M478.63268,15.60426,468.285,22.94305l-2.42179,2.09157q-1.83475,1.54113-4.2932,3.88955l-5.94443,6.16459a131.69509,131.69509,0,0,0-8.95335,11.08157L443.00282,51.491a143.5443,143.5443,0,0,0-8.07268,14.0905l-.03668.07337A131.27,131.27,0,0,0,426.197,88.00146a103.033,103.033,0,0,0-3.96294,22.56679l-.03668.44034a10.12753,10.12753,0,0,0,20.255,0l.03671-.6972a88.026,88.026,0,0,1,3.96294-19.26432A115.17544,115.17544,0,0,1,454.855,71.3424a121.51075,121.51075,0,0,1,11.88882-18.09012l.62381-.69718q1.06414-1.39439,2.642-3.15569l.5137-.58711a93.97386,93.97386,0,0,1,8.5864-8.513l1.321-1.1375q.80725-.6972,2.42182-1.94479l7.81581-5.28393a38.35093,38.35093,0,0,1,4.58675-2.34841q.844-.40366,2.53189-1.06413A32.95618,32.95618,0,0,1,509.63906,25.952q11.70536,0,16.62239,11.4852a41.57335,41.57335,0,0,1,3.04563,16.40221q.0367,16.62236-8.21947,35.51976a116.77839,116.77839,0,0,1-21.13571,32.58424l17.90662,10.34771a136.89805,136.89805,0,0,0,22.97041-37.53793Q549.56215,73.434,549.48876,53.766q-.0367-21.53937-11.04493-34.78588T509.63906,5.73358a47.985,47.985,0,0,0-10.60451,1.2109l-3.7795,1.02744q-1.211.33026-2.71537.88065l-8.146,3.52263-.6238.33024q-2.642,1.39439-3.19238,1.68792Q479.917,14.797,478.63268,15.60426Z" transform="translate(-3.63223 -4.2336)"/><g id="Layer0_1_MEMBER_1_MEMBER_0_FILL" data-name="Layer0 1 MEMBER 1 MEMBER 0 FILL"><path class="cls-3" d="M673.25669,567.42389a14.60143,14.60143,0,0,0-11.33851-7.52234q-5.57758-.734-14.78783,1.6878-8.99014,2.34867-13.09986,2.23839-5.06386-.14674-7.19213-3.77944a7.3517,7.3517,0,0,1-.22016-7.11867,13.43568,13.43568,0,0,1,5.68762-5.90782,12.17829,12.17829,0,0,1,9.10022-1.54124,11.44891,11.44891,0,0,1,7.559,5.79782l9.79737-5.68763q-5.027-8.293-13.13654-10.01766-8.1095-1.72434-17.283,3.59615-9.13687,5.284-12.18254,12.9163a15.92136,15.92136,0,0,0,1.06414,14.641,15.00248,15.00248,0,0,0,12.80633,7.85273q4.55007.25666,15.5951-2.27512,7.63238-1.76117,10.78814-1.688,5.17392.11019,7.37555,3.92637a7.987,7.987,0,0,1,.51373,7.41215q-1.61455,3.77953-6.56829,6.64171-5.651,3.26594-10.568,1.98146-4.917-1.32094-8.21954-7.00848l-9.94416,5.7609q5.35741,9.21032,14.23742,11.045,8.77,1.798,18.93427-4.0731,9.28369-5.394,12.366-13.39343A17.2649,17.2649,0,0,0,673.25669,567.42389Z" transform="translate(-3.63223 -4.2336)"/></g><g id="Layer0_1_MEMBER_1_MEMBER_1_FILL" data-name="Layer0 1 MEMBER 1 MEMBER 1 FILL"><path class="cls-3" d="M715.85885,537.44455q-5.39409-9.28368-13.02648-12.25587a16.65248,16.65248,0,0,0-15.1181,1.39431,18.15513,18.15513,0,0,0-6.09125,5.57761,16.01075,16.01075,0,0,0-2.642,7.48561L675.9354,534.399l-8.51307,4.95374,31.55713,54.45435,9.13685-5.28394L696.6677,568.78148a12.68075,12.68075,0,0,0,7.15539,1.17429,19.11235,19.11235,0,0,0,7.33887-2.60534,17.06131,17.06131,0,0,0,8.80664-12.21914q1.39438-8.1463-4.10975-17.68674m-17.50322-2.86209q4.58674,2.12829,8.14617,8.29278,3.63273,6.23813,3.19239,11.2285a9.348,9.348,0,0,1-4.91705,7.63253,9.182,9.182,0,0,1-8.95343.33021q-4.62349-2.1651-8.14612-8.25622-3.55937-6.12793-3.08234-11.2285a9.43422,9.43422,0,0,1,4.84368-7.5958A9.25157,9.25157,0,0,1,698.35563,534.58246Z" transform="translate(-3.63223 -4.2336)"/></g><g id="Layer0_1_MEMBER_1_MEMBER_2_FILL" data-name="Layer0 1 MEMBER 1 MEMBER 2 FILL"><path class="cls-3" d="M735.27012,552.37922l9.10022-5.28413-22.71381-39.18948-9.10017,5.284,22.71376,39.18966m-17.53986-51.22533-5.32068-9.21032-9.10022,5.284,5.32068,9.21031Z" transform="translate(-3.63223 -4.2336)"/></g><g id="Layer0_1_MEMBER_1_MEMBER_3_FILL" data-name="Layer0 1 MEMBER 1 MEMBER 3 FILL"><path class="cls-3" d="M744.11349,502.69494l-3.3759-5.83436-8.58649,4.95373L754.86491,541.004l9.10017-5.28413L754.021,518.5837q-4.2565-7.33869-3.963-12.14587.29355-5.13729,5.79772-8.32968a24.57312,24.57312,0,0,1,4.18312-1.908l-4.58679-7.88928a19.44733,19.44733,0,0,0-4.55006,2.1282Q744.22353,494.3288,744.11349,502.69494Z" transform="translate(-3.63223 -4.2336)"/></g><g id="Layer0_1_MEMBER_1_MEMBER_4_FILL" data-name="Layer0 1 MEMBER 1 MEMBER 4 FILL"><path class="cls-3" d="M776.11094,474.91744q-7.70582,4.47642-10.27442,10.56789a13.83753,13.83753,0,0,0,.77062,12.4028l9.32032-5.43087a7.16038,7.16038,0,0,1-.77061-6.0913q.99077-2.862,4.69689-4.99028,7.11885-4.14666,11.44862,3.30249l.99081,1.65124q-2.31171,1.76116-7.66917,5.68762a53.82451,53.82451,0,0,0-7.3755,6.605q-7.33883,8.3296-2.64207,16.439,3.22912,5.50416,8.47643,6.495,5.35741,1.02747,11.88893-2.75207a21.01434,21.01434,0,0,0,6.78845-5.90783,17.74951,17.74951,0,0,0,2.93555-7.55907q2.34854,3.63281,3.33922,4.84373l8.29295-4.807a92.52487,92.52487,0,0,1-7.99938-11.81565l-6.31141-10.93484q-4.917-8.47661-10.568-10.53135-6.45825-2.3484-15.33825,2.82554m10.01757,25.4291a44.53734,44.53734,0,0,1,4.69689-3.99965q3.48593-2.532,5.06375-3.77944l.95409,1.68779q3.52273,6.018,2.38513,10.38461-.99078,3.81609-5.57752,6.49479a8.20627,8.20627,0,0,1-5.72436,1.321,5.75592,5.75592,0,0,1-3.963-3.00883Q781.46835,505.15345,786.12851,500.34654Z" transform="translate(-3.63223 -4.2336)"/></g><g id="Layer0_1_MEMBER_1_MEMBER_5_FILL" data-name="Layer0 1 MEMBER 1 MEMBER 5 FILL"><path class="cls-3" d="M802.49413,439.7276l-9.10013,5.284,31.96072,55.15152,9.10021-5.284Z" transform="translate(-3.63223 -4.2336)"/></g></svg>