<svg id="Layer_1" data-name="Layer 1" xmlns="http://www.w3.org/2000/svg" viewBox="0 0 960.76667 710.473"><defs><style>.cls-1{fill:#fff;}.cls-2{fill:none;stroke:#0e57e7;stroke-miterlimit:9.9999;stroke-width:2.99997px;}.cls-3{fill:#215bdf;}</style></defs><g id="Layer1_1_MEMBER_0_MEMBER_0_MEMBER_0_FILL" data-name="Layer1 1 MEMBER 0 MEMBER 0 MEMBER 0 FILL"><path class="cls-1" d="M931.14416,405.07079q21.02595-3.26574,32.76806-5.61426,5.87113-1.1742,7.52234-1.68793L419.038,78.82144q-11.96232,2.42184-38.34558,6.64168Q327.96268,93.90281,255.895,102.85624q-54.82136,6.78845-121.45825-13.21A494.03534,494.03534,0,0,1,43.61827,51.8878L242.94191,166.96123q-25.02555,8.07273-48.253,15.44833-69.20553,22.01659-130.11812,16.91608a211.686,211.686,0,0,1-34.933-5.72431,99.01252,99.01252,0,0,1-12.10913-3.81622l141.34658,81.60821L17.5286,342.76379l52.80315,30.493h.03669L17.5286,403.93327,569.92515,722.84373l401.50941-233.3026-28.25464-16.329,28.25464-14.27406-32.73133-18.89758q20.36535-7.15533,32.73133-11.70551Z" transform="translate(-14.38334 -14.13011)"/></g><g id="Layer1_1_MEMBER_0_MEMBER_0_MEMBER_1_FILL" data-name="Layer1 1 MEMBER 0 MEMBER 0 MEMBER 1 FILL"><path class="cls-1" d="M17.5286,36.80643,24.42713,41.063q8.91674,5.35737,19.19114,10.82483Z" transform="translate(-14.38334 -14.13011)"/></g><path id="Layer1_1_MEMBER_0_MEMBER_1_1_STROKES" data-name="Layer1 1 MEMBER 0 MEMBER 1 1 STROKES" class="cls-2" d="M242.94706,166.99273q-25.02531,8.07268-48.25256,15.44818Q125.48965,204.4573,64.57767,199.35682A211.68864,211.68864,0,0,1,29.645,193.63258a99.012,99.012,0,0,1-12.109-3.81619L232.08565,313.69523" transform="translate(-14.38334 -14.13011)"/><path id="Layer1_1_MEMBER_0_MEMBER_2_1_STROKES" data-name="Layer1 1 MEMBER 0 MEMBER 2 1 STROKES" class="cls-2" d="M158.88118,271.4238,17.536,342.79357l52.80262,30.49268h.0367L17.536,403.9624,569.927,722.8697,971.43251,489.56946l-28.25436-16.32882,28.25436-14.274L938.73819,440.106l-.03674-.03668q20.36524-7.15533,32.73106-11.70539l-40.29-23.264q21.02562-3.26574,32.76775-5.61414,5.871-1.17425,7.52226-1.68791L419.04144,78.85382q-11.9622,2.4218-38.3452,6.64161Q327.967,93.93508,255.90005,102.88837q-72.067,8.91665-162.44422-27.66725A526.88578,526.88578,0,0,1,43.68046,51.93879L300.22637,200.054M43.68046,51.93879Q41.113,50.56521,38.56164,49.1684,25.24175,41.8663,17.536,36.83922Z" transform="translate(-14.38334 -14.13011)"/><g id="Layer1_1_MEMBER_0_MEMBER_3_MEMBER_0_FILL" data-name="Layer1 1 MEMBER 0 MEMBER 3 MEMBER 0 FILL"><path class="cls-1" d="M910.6687,250.661l-.88063.22016-6.75172,2.49521-4.10984,1.90811a3.1733,3.1733,0,0,1-.62378.33026q-2.12829,1.10084-3.19239,1.72464-1.28425.80727-1.94482,1.21091l-5.394,3.596q-.69716.477-2.38513,1.76132l-4.99047,4.07309q-2.3484,1.98147-4.29322,3.88959l-5.94446,6.16466a138.06312,138.06312,0,0,0-8.91674,11.045l-3.52261,5.06379-.14683.25689a139.931,139.931,0,0,0-8.07275,14.12732l-.07337.07337a131.26208,131.26208,0,0,0-8.69654,22.34686,101.96215,101.96215,0,0,0-3.92628,22.567l-.03673.40363a10.10936,10.10936,0,1,0,20.21862,0l.07337-.66047a86.43517,86.43517,0,0,1,3.92627-19.26453,113.56082,113.56082,0,0,1,8.403-19.70488,119.831,119.831,0,0,1,11.92566-18.09028l3.74289-4.44a93.57776,93.57776,0,0,1,8.58644-8.51307l1.35768-1.1742,7.926-5.79772q.77052-.477,2.275-1.43109,2.05493-1.17423,4.58679-2.34843l2.5686-1.02743a32.69837,32.69837,0,0,1,11.81556-2.60531q11.7056,0,16.62256,11.48532a41.67519,41.67519,0,0,1,3.04564,16.43908q.07338,16.6225-8.21958,35.52009A117.49489,117.49489,0,0,1,914.485,364.89049l17.90686,10.34778A135.01316,135.01316,0,0,0,955.36242,337.7q8.73327-21.31944,8.6599-40.9876-.03669-21.53955-11.045-34.7862t-28.80506-13.24667a48.31642,48.31642,0,0,0-10.60462,1.21091Q911.62274,250.36744,910.6687,250.661Z" transform="translate(-14.38334 -14.13011)"/></g><path id="Layer1_1_MEMBER_0_MEMBER_3_MEMBER_0_1_STROKES" data-name="Layer1 1 MEMBER 0 MEMBER 3 MEMBER 0 1 STROKES" class="cls-2" d="M909.78664,250.91185l-6.75171,2.49519-4.1097,1.90809a3.1759,3.1759,0,0,1-.62383.33026q-2.12821,1.10087-3.19235,1.72459-1.2843.80725-1.94481,1.21093l-5.394,3.596q-.69726.477-2.38511,1.7613l-4.99036,4.073q-2.34849,1.98145-4.29323,3.88958l-5.9444,6.16458a138.07291,138.07291,0,0,0-8.91666,11.04488l-3.52261,5.06379-.14679.25683a139.94332,139.94332,0,0,0-8.07267,14.12718l-.07337.0734a131.27014,131.27014,0,0,0-8.69651,22.34664,101.96077,101.96077,0,0,0-3.92623,22.56679l-.03668.40362a10.10924,10.10924,0,1,0,20.21837,0l.07336-.66048a86.441,86.441,0,0,1,3.92629-19.26434,113.548,113.548,0,0,1,8.40294-19.70467,119.8247,119.8247,0,0,1,11.92554-18.09012l3.74276-4.44a93.5816,93.5816,0,0,1,8.5864-8.513l1.35765-1.17421,7.92589-5.79764q.77058-.477,2.27506-1.43108,2.05488-1.1742,4.58675-2.34839l2.56857-1.02746a32.69813,32.69813,0,0,1,11.81544-2.60526q11.70545,0,16.62239,11.48521a41.675,41.675,0,0,1,3.04557,16.43889q.07343,16.62239-8.21941,35.51979A117.49139,117.49139,0,0,1,914.48343,364.92l17.90668,10.34771a135.01092,135.01092,0,0,0,22.97042-37.538q8.73312-21.31921,8.65976-40.98714-.03671-21.53936-11.04487-34.78591t-28.80477-13.24651a48.31816,48.31816,0,0,0-10.60457,1.21089q-1.94484.477-2.89878.77059Z" transform="translate(-14.38334 -14.13011)"/><g id="Layer1_1_MEMBER_0_MEMBER_3_MEMBER_1_FILL" data-name="Layer1 1 MEMBER 0 MEMBER 3 MEMBER 1 FILL"><path class="cls-1" d="M860.17735,221.52571l-4.9171,1.61456-6.82509,3.00894-.62379.33024q-2.49526,1.321-3.15575,1.72464-1.28426.80724-1.94481,1.21091L832.363,236.75386q-.80721.62382-2.42186,2.09158-2.3484,1.98152-4.29322,3.88959l-5.94446,6.16467a133.69546,133.69546,0,0,0-8.95339,11.045l-3.66943,5.32068a154.25409,154.25409,0,0,0-8.07275,14.09063l-.03673.11006a131.93114,131.93114,0,0,0-8.73327,22.34686,103.86532,103.86532,0,0,0-3.92628,22.567l-.03673.40363a10.12768,10.12768,0,0,0,20.25535,0l.03664-.66047a84.198,84.198,0,0,1,3.963-19.26453,115.18808,115.18808,0,0,1,8.403-19.70488,121.5197,121.5197,0,0,1,11.889-18.09028l3.77953-4.44a88.09558,88.09558,0,0,1,8.58644-8.51309l5.284-4.25654q1.90818-1.3944,2.45859-1.72463.18344-.14674,1.50442-.99076l2.31176-1.43106q2.31171-1.321,4.58679-2.34845l2.53187-1.02743a32.69872,32.69872,0,0,1,11.81565-2.60529q11.74215,0,16.65919,11.48532A41.59468,41.59468,0,0,1,893.349,267.6505q.07337,16.62256-8.21949,35.52013a117.49163,117.49163,0,0,1-21.136,32.58455L881.90038,346.103a135.707,135.707,0,0,0,23.00733-37.53833q8.73327-21.31938,8.6599-40.98758-.03669-21.53955-11.045-34.78622t-28.84169-13.24665a48.31859,48.31859,0,0,0-10.60472,1.21091Q861.13144,221.23215,860.17735,221.52571Z" transform="translate(-14.38334 -14.13011)"/></g><path id="Layer1_1_MEMBER_0_MEMBER_3_MEMBER_1_1_STROKES" data-name="Layer1 1 MEMBER 0 MEMBER 3 MEMBER 1 1 STROKES" class="cls-2" d="M855.25941,223.17122l-6.82513,3.00888-.62377.33026q-2.49525,1.321-3.15567,1.72463-1.2843.80725-1.94481,1.21089l-10.34767,7.33879q-.80731.62379-2.42179,2.09157-2.3484,1.98146-4.29324,3.88955l-5.9444,6.16458a133.70334,133.70334,0,0,0-8.95334,11.0449l-3.66939,5.32063a154.27458,154.27458,0,0,0-8.07268,14.09046l-.03668.11011a131.9268,131.9268,0,0,0-8.73319,22.34661,103.86307,103.86307,0,0,0-3.92623,22.56679l-.03668.40366a10.12753,10.12753,0,0,0,20.25505,0l.03668-.66052a84.19394,84.19394,0,0,1,3.963-19.26434,115.184,115.184,0,0,1,8.40293-19.70463,121.51624,121.51624,0,0,1,11.8888-18.09016l3.77951-4.44a88.10553,88.10553,0,0,1,8.5864-8.513l5.28394-4.25649q1.908-1.39439,2.45847-1.72462.18348-.14681,1.50444-.99075l2.31175-1.431q2.31168-1.321,4.58674-2.34843l2.5319-1.02743a32.69823,32.69823,0,0,1,11.81544-2.60529q11.74206,0,16.65907,11.48524a41.59317,41.59317,0,0,1,3.00888,16.4389q.07343,16.62232-8.21946,35.51975A117.49333,117.49333,0,0,1,863.99253,335.785l17.90669,10.3477a135.70389,135.70389,0,0,0,23.00709-37.53793q8.73323-21.31921,8.65977-40.98717-.03662-21.53936-11.04487-34.78588t-28.84145-13.24654a48.31846,48.31846,0,0,0-10.60457,1.21093q-1.94475.477-2.89884.77056Z" transform="translate(-14.38334 -14.13011)"/><g id="Layer1_1_MEMBER_0_MEMBER_3_MEMBER_2_FILL" data-name="Layer1 1 MEMBER 0 MEMBER 3 MEMBER 2 FILL"><path class="cls-1" d="M863.07616,238.44182q-.03654-21.5396-11.04494-34.78625t-28.805-13.24665a48.31852,48.31852,0,0,0-10.60472,1.21091q-1.94472.477-2.89881.77059l-.88072.22016-4.03638,1.39438q-1.1742.44035-2.71534,1.10083l-1.28431.58712q-1.1742.5137-2.82544,1.321l-.62379.33026q-2.12829,1.10086-3.19248,1.72461-1.28426.80728-1.94473,1.21094l-2.82553,1.798-9.94411,7.63242q-2.34853,1.98152-4.29322,3.88962L769.212,219.7277a138.47675,138.47675,0,0,0-8.95338,11.08168l-3.486,5.06383-.14679.25684a129.51363,129.51363,0,0,0-8.07275,14.09064l-.07337.11008a131.27051,131.27051,0,0,0-8.69659,22.34686,101.96465,101.96465,0,0,0-3.92627,22.567l-.07337.40367a10.12763,10.12763,0,0,0,20.25525,0l.07337-.66051a86.43773,86.43773,0,0,1,3.92633-19.26453,113.54984,113.54984,0,0,1,8.403-19.70486,119.818,119.818,0,0,1,11.92566-18.0903l3.7428-4.44a93.60331,93.60331,0,0,1,8.58644-8.51309q.88071-.80728,1.35776-1.17422,1.32095-1.13753,2.42177-1.9448l5.50415-3.8529q1.65125-1.10083,2.275-1.43109,2.05491-1.1742,4.58679-2.34843l2.5686-1.02746a32.6989,32.6989,0,0,1,11.81565-2.60528q11.70546,0,16.62246,11.48532a41.67181,41.67181,0,0,1,3.04565,16.43906q.07336,16.62254-8.2195,35.52013a117.49155,117.49155,0,0,1-21.136,32.58454L831.44566,316.931a136.34576,136.34576,0,0,0,22.97069-37.50164Q863.14948,258.11,863.07616,238.44182Z" transform="translate(-14.38334 -14.13011)"/></g><path id="Layer1_1_MEMBER_0_MEMBER_3_MEMBER_2_1_STROKES" data-name="Layer1 1 MEMBER 0 MEMBER 3 MEMBER 2 1 STROKES" class="cls-2" d="M852.03031,203.68671q-11.00819-13.24654-28.80477-13.24652a48.31725,48.31725,0,0,0-10.60457,1.2109q-1.94474.477-2.89883.77056l-.88061.22018-4.03634,1.39437q-1.17414.44031-2.71536,1.10082l-1.28429.58709q-1.17425.51373-2.82547,1.321l-.62378.33023q-2.1283,1.10082-3.19235,1.72462-1.28428.8073-1.9448,1.21089l-2.82541,1.798-9.94412,7.63234q-2.3484,1.98146-4.29317,3.88958l-5.9444,6.12787a138.46957,138.46957,0,0,0-8.95334,11.08159l-3.48593,5.06376-.14679.25686a129.51933,129.51933,0,0,0-8.07267,14.0905l-.07336.11007a131.27389,131.27389,0,0,0-8.69651,22.34665,101.9573,101.9573,0,0,0-3.92623,22.56679l-.07343.40362a10.12756,10.12756,0,0,0,20.25511,0l.07337-.66049a86.437,86.437,0,0,1,3.92629-19.26433,113.55174,113.55174,0,0,1,8.40287-19.70467A119.83158,119.83158,0,0,1,780.367,237.95889l3.74282-4.44a93.585,93.585,0,0,1,8.5864-8.513q.88065-.80725,1.35766-1.17421,1.3209-1.13754,2.42179-1.94478l5.50409-3.85286q1.65123-1.10087,2.27506-1.43108,2.0549-1.1742,4.58675-2.34843l2.56858-1.02742a32.69771,32.69771,0,0,1,11.81543-2.60526q11.70537,0,16.6224,11.48521A41.67386,41.67386,0,0,1,842.8935,238.546q.07342,16.62239-8.21946,35.51976A117.493,117.493,0,0,1,813.53832,306.65L831.445,316.961a136.34224,136.34224,0,0,0,22.97041-37.50124q8.73313-21.31921,8.65977-40.98717Q863.03847,216.93324,852.03031,203.68671Z" transform="translate(-14.38334 -14.13011)"/><g id="Layer1_1_MEMBER_0_MEMBER_3_MEMBER_3_FILL" data-name="Layer1 1 MEMBER 0 MEMBER 3 MEMBER 3 FILL"><path class="cls-1" d="M751.63548,165.9705l-4.77026,2.23835q-2.12829,1.10082-3.1557,1.72464-.51373.29355-1.94482,1.2109l-5.43074,3.596q-1.57794,1.17424-2.38513,1.76133l-2.53192,1.9815q-.40367.29358-2.45854,2.09158-2.49522,2.16495-4.25654,3.88959l-5.94446,6.128a119.8364,119.8364,0,0,0-8.95343,11.0817l-3.66943,5.32067a146.39093,146.39093,0,0,0-8.07276,14.09062l-.03668.1101a131.93052,131.93052,0,0,0-8.73327,22.34683,103.86592,103.86592,0,0,0-3.92628,22.567l-.03668.40365a10.12763,10.12763,0,0,0,20.25525,0l.03669-.66051a86.43531,86.43531,0,0,1,3.92632-19.26453h.03668a112.99278,112.99278,0,0,1,8.403-19.70484,120.21652,120.21652,0,0,1,11.88892-18.09033l3.77954-4.47669a96.62922,96.62922,0,0,1,8.58648-8.4764l5.284-4.25654q2.01822-1.46775,2.42181-1.72463l3.85291-2.42182q2.23834-1.2843,4.5501-2.34845l2.56861-1.02744a32.69787,32.69787,0,0,1,11.81556-2.60531q11.74213,0,16.65919,11.48535a41.59316,41.59316,0,0,1,3.009,16.43906q.07336,16.62251-8.21959,35.52011a117.49506,117.49506,0,0,1-21.13593,32.58459l17.90681,10.3111a135.159,135.159,0,0,0,23.00742-37.50162q8.73313-21.31944,8.65981-40.98758-.07336-21.53955-11.08167-34.78622-10.97161-13.24668-28.805-13.24667a48.31647,48.31647,0,0,0-10.60468,1.21093q-1.94472.477-2.89886.77057l-.84394.22016q-.73384.22019-2.71539.91736l-1.35767.477Q752.80975,165.45674,751.63548,165.9705Z" transform="translate(-14.38334 -14.13011)"/></g><path id="Layer1_1_MEMBER_0_MEMBER_3_MEMBER_3_1_STROKES" data-name="Layer1 1 MEMBER 0 MEMBER 3 MEMBER 3 1 STROKES" class="cls-2" d="M746.8654,168.24034q-2.12822,1.10082-3.15567,1.72462-.51369.29357-1.9448,1.2109l-5.43074,3.596q-1.5777,1.1742-2.3851,1.76131l-2.53184,1.98148q-.40365.29352-2.45853,2.09157-2.49516,2.16492-4.25649,3.88954l-5.9444,6.1279a119.83864,119.83864,0,0,0-8.95334,11.08159l-3.6694,5.32063a146.356,146.356,0,0,0-8.07267,14.09046l-.03668.11008a131.92526,131.92526,0,0,0-8.73319,22.34664,103.86908,103.86908,0,0,0-3.92623,22.56679l-.03675.40362a10.12756,10.12756,0,0,0,20.25511,0l.03668-.66048a86.444,86.444,0,0,1,3.92623-19.26434h.03675a112.98524,112.98524,0,0,1,8.40287-19.70467,120.21622,120.21622,0,0,1,11.88886-18.09012l3.7795-4.47667a96.62015,96.62015,0,0,1,8.5864-8.47629l5.28389-4.25649q2.01807-1.46777,2.42185-1.72463l3.85286-2.42182q2.23827-1.28429,4.55-2.34839l2.56858-1.02743a32.69779,32.69779,0,0,1,11.81549-2.60529q11.74208,0,16.65908,11.48521a41.5954,41.5954,0,0,1,3.00888,16.43892q.07342,16.62239-8.21946,35.51976A117.49179,117.49179,0,0,1,763.04743,277.515l17.90668,10.311a135.15433,135.15433,0,0,0,23.0071-37.50122q8.73322-21.31921,8.65976-40.98717-.07343-21.5394-11.08155-34.78588-10.97157-13.24655-28.80477-13.24654a48.31634,48.31634,0,0,0-10.60457,1.21089q-1.94484.477-2.89884.77059l-.84392.22016q-.734.22017-2.71537.91735l-1.35771.477q-1.50438.58713-2.67862,1.10082Z" transform="translate(-14.38334 -14.13011)"/><g id="Layer1_1_MEMBER_0_MEMBER_3_MEMBER_4_FILL" data-name="Layer1 1 MEMBER 0 MEMBER 3 MEMBER 4 FILL"><path class="cls-1" d="M738.90257,163.80553a41.67534,41.67534,0,0,1,3.0456,16.43905q.03669,16.62255-8.21954,35.52012a116.78035,116.78035,0,0,1-21.13593,32.58459l17.90685,10.3111a136.90238,136.90238,0,0,0,22.97065-37.53831q8.73327-21.31944,8.65985-40.95089-.03668-21.53959-11.045-34.78622T722.28,132.13832a48.31727,48.31727,0,0,0-10.60467,1.21091q-1.94472.477-2.89886.77057l-.88063.22018q-1.02752.29355-2.6787.91736l-1.35767.477q-1.17427.44032-2.71539,1.10083l-4.73358,2.23835q-2.12829,1.10082-3.19239,1.72463-1.28426.80729-1.94482,1.21091L680.92552,149.348l-2.42187,2.09158q-2.34846,1.98149-4.29322,3.88961l-5.94446,6.12794a138.463,138.463,0,0,0-8.95343,11.08169l-3.486,5.06382-.14679.25686a129.49876,129.49876,0,0,0-8.07275,14.09064l-.07337.11008a129.71206,129.71206,0,0,0-8.69658,22.34686,103.032,103.032,0,0,0-3.963,22.567l-.03673.40363a10.12766,10.12766,0,0,0,20.2553,0l.07338-.66049a86.43429,86.43429,0,0,1,3.92632-19.26453,113.55309,113.55309,0,0,1,8.403-19.70486A119.82671,119.82671,0,0,1,679.421,179.65748l.58715-.73388q2.23835-2.67871,2.642-3.15573l.51373-.55041a93.5768,93.5768,0,0,1,8.58649-8.51307l5.32067-4.25656,3.963-2.71537q1.65124-1.10079,2.27507-1.43108,2.05485-1.1742,4.58679-2.34845l2.56861-1.02744A32.69842,32.69842,0,0,1,722.28,152.3202Q733.98547,152.3202,738.90257,163.80553Z" transform="translate(-14.38334 -14.13011)"/></g><path id="Layer1_1_MEMBER_0_MEMBER_3_MEMBER_4_1_STROKES" data-name="Layer1 1 MEMBER 0 MEMBER 3 MEMBER 4 1 STROKES" class="cls-2" d="M741.9484,180.276q.0367,16.62237-8.21947,35.51976A116.77929,116.77929,0,0,1,712.59322,248.38l17.90668,10.311a136.90225,136.90225,0,0,0,22.97042-37.53793q8.73312-21.31922,8.65976-40.95049-.03661-21.53934-11.04487-34.78588t-28.80477-13.24651a48.31576,48.31576,0,0,0-10.60457,1.2109q-1.94484.477-2.89884.77056l-.88066.22018q-1.02739.29356-2.67863.91735l-1.35771.477q-1.17416.44031-2.71531,1.10082l-4.73353,2.23832q-2.12831,1.1008-3.19241,1.72462-1.28439.80726-1.94475,1.21089l-10.34773,7.3388-2.42179,2.09156q-2.34849,1.9815-4.29317,3.88955l-5.94446,6.1279a138.45641,138.45641,0,0,0-8.95328,11.08158l-3.48593,5.06377-.14679.25686a129.51673,129.51673,0,0,0-8.07267,14.0905l-.07343.11007a129.70469,129.70469,0,0,0-8.69645,22.34661,103.03466,103.03466,0,0,0-3.963,22.5668l-.03668.40365a10.12756,10.12756,0,0,0,20.25511,0l.07336-.66049a86.43655,86.43655,0,0,1,3.92623-19.26433,113.55768,113.55768,0,0,1,8.40293-19.70467,119.82857,119.82857,0,0,1,11.92555-18.09012l.58709-.73388q2.23834-2.67867,2.642-3.1557l.51373-.55041a93.59005,93.59005,0,0,1,8.58634-8.513l5.32062-4.25649,3.963-2.71536q1.65114-1.10082,2.275-1.431,2.05488-1.17424,4.58675-2.34843l2.56857-1.02742a32.69815,32.69815,0,0,1,11.8155-2.60526q11.70536,0,16.62233,11.4852A41.67292,41.67292,0,0,1,741.9484,180.276Z" transform="translate(-14.38334 -14.13011)"/><g id="Layer1_1_MEMBER_0_MEMBER_3_MEMBER_5_FILL" data-name="Layer1 1 MEMBER 0 MEMBER 3 MEMBER 5 FILL"><path class="cls-1" d="M605.37187,148.4673l-.18347.25686a146.37194,146.37194,0,0,0-8.07276,14.09062l-.03668.11007a130.35329,130.35329,0,0,0-8.73327,22.34686,103.8625,103.8625,0,0,0-3.92628,22.567l-.03673.40363a10.12766,10.12766,0,0,0,20.2553,0l.03669-.66049a86.43743,86.43743,0,0,1,3.92627-19.26453,113.55727,113.55727,0,0,1,8.403-19.70486,119.83024,119.83024,0,0,1,11.92566-18.09031l3.77953-4.47671a96.62623,96.62623,0,0,1,8.58648-8.47638l3.74281-3.119,7.81591-5.284q2.23835-1.28428,4.55006-2.34842l2.5686-1.02744a32.69822,32.69822,0,0,1,11.81561-2.60531q11.74221,0,16.65923,11.48533a41.3245,41.3245,0,0,1,3.00892,16.40237q.07338,16.62254-8.21954,35.55682A117.4929,117.4929,0,0,1,662.1013,219.214l17.90686,10.3111a135.7063,135.7063,0,0,0,23.00733-37.5383q8.73327-21.28272,8.65985-40.95087-.07336-21.53958-11.08167-34.78622-10.97161-13.24668-28.805-13.24667a48.31652,48.31652,0,0,0-10.60467,1.21091q-1.94479.477-2.89887.77059l-.84394.22016q-.73385.22017-2.71539.91736l-1.35772.477q-1.50442.58713-2.67866,1.10083l-4.77026,2.23837q-2.12829,1.10082-3.19243,1.72463l-12.25588,8.54978q-.40361.29355-2.45854,2.09158-2.49514,2.165-4.25654,3.88959l-5.98119,6.128a127.23635,127.23635,0,0,0-8.9167,11.0817l-.66051.91735Q607.20654,145.67851,605.37187,148.4673Z" transform="translate(-14.38334 -14.13011)"/></g><path id="Layer1_1_MEMBER_0_MEMBER_3_MEMBER_5_1_STROKES" data-name="Layer1 1 MEMBER 0 MEMBER 3 MEMBER 5 1 STROKES" class="cls-2" d="M605.19,148.75582a146.38355,146.38355,0,0,0-8.07268,14.0905l-.03674.11008a130.34584,130.34584,0,0,0-8.73313,22.34664,103.86689,103.86689,0,0,0-3.92629,22.56679l-.03668.40362a10.12756,10.12756,0,0,0,20.25511,0l.03668-.66048a86.44068,86.44068,0,0,1,3.92623-19.26434,113.55338,113.55338,0,0,1,8.40293-19.70467A119.8219,119.8219,0,0,1,628.931,150.55384l3.77951-4.47667a96.62927,96.62927,0,0,1,8.58634-8.4763l3.74282-3.119,7.81578-5.284q2.23834-1.28428,4.55006-2.34839l2.56858-1.02746a32.69841,32.69841,0,0,1,11.8155-2.60526q11.742,0,16.659,11.48521a41.32315,41.32315,0,0,1,3.00894,16.40221q.07343,16.62239-8.21946,35.55647A117.49372,117.49372,0,0,1,662.10232,219.245L680.009,229.556A135.70766,135.70766,0,0,0,703.0161,192.018q8.73313-21.28251,8.65977-40.95046-.07334-21.53935-11.08156-34.78591-10.97148-13.24652-28.80476-13.24651A48.31694,48.31694,0,0,0,661.185,104.246q-1.94484.477-2.89884.77058l-.844.22017q-.73388.22016-2.7153.91734l-1.35771.477q-1.50438.5871-2.67863,1.10082l-4.77021,2.23833q-2.1283,1.10082-3.19242,1.72463l-12.2558,8.5497q-.40365.29357-2.45847,2.09153-2.49524,2.165-4.25649,3.88958l-5.98114,6.1279a127.236,127.236,0,0,0-8.9166,11.08156l-.66051.91735q-.99069,1.35766-2.82541,4.14644Z" transform="translate(-14.38334 -14.13011)"/><g id="Layer1_1_MEMBER_0_MEMBER_3_MEMBER_6_FILL" data-name="Layer1 1 MEMBER 0 MEMBER 3 MEMBER 6 FILL"><path class="cls-1" d="M596.08818,80.47269l-.62378.33024q-2.12829,1.10082-3.19244,1.72464-1.28432.80729-1.94477,1.21091l-7.81591,5.35739-4.95374,4.03637q-2.56865,2.23836-4.29321,3.92628l-5.94451,6.128a138.45146,138.45146,0,0,0-8.95339,11.08169l-3.66943,5.32068a145.14489,145.14489,0,0,0-8.03607,14.09064l-.07341.11007A129.70153,129.70153,0,0,0,537.891,156.1364a102.97351,102.97351,0,0,0-3.963,22.53033l-.03669.44034a10.12766,10.12766,0,0,0,20.25531,0l.03668-.6972a86.88163,86.88163,0,0,1,3.963-19.22782,115.18327,115.18327,0,0,1,8.403-19.70486,121.51977,121.51977,0,0,1,11.889-18.09031l.62378-.73388q1.39446-1.76135,2.642-3.15573l.51373-.5871a102.97947,102.97947,0,0,1,8.58644-8.47641l7.74254-6.01785,3.81618-2.38513q2.05485-1.17424,4.58679-2.34845.844-.40363,2.53192-1.06412a33.81851,33.81851,0,0,1,11.85229-2.56861q11.70544,0,16.6225,11.48533a41.57337,41.57337,0,0,1,3.04565,16.40237q.03675,16.65923-8.21954,35.5568A116.94415,116.94415,0,0,1,611.64659,190.042l17.90686,10.3478a136.34428,136.34428,0,0,0,22.97064-37.50161q8.73321-21.31941,8.65986-40.98758-.03676-21.53955-11.045-34.78623T621.33391,73.86771a48.3167,48.3167,0,0,0-10.60468,1.21092q-1.9448.477-2.93554.77057l-.844.22017q-.88065.25686-2.71535.91736l-1.321.477q-1.17412.44033-2.71534,1.10083l-1.321.5871Q597.26239,79.84887,596.08818,80.47269Z" transform="translate(-14.38334 -14.13011)"/></g><path id="Layer1_1_MEMBER_0_MEMBER_3_MEMBER_6_1_STROKES" data-name="Layer1 1 MEMBER 0 MEMBER 3 MEMBER 6 1 STROKES" class="cls-2" d="M595.46608,80.83529q-2.12831,1.10082-3.19241,1.72463-1.28429.80725-1.94474,1.21089l-7.81584,5.35732-4.95369,4.03634q-2.56857,2.23833-4.29317,3.92625l-5.94446,6.1279a138.45978,138.45978,0,0,0-8.95334,11.08158l-3.6694,5.32063a145.14425,145.14425,0,0,0-8.03593,14.09047l-.07342.1101a129.70293,129.70293,0,0,0-8.69645,22.34661,102.97783,102.97783,0,0,0-3.963,22.53011l-.03669.44034a10.12753,10.12753,0,0,0,20.25505,0l.03675-.6972a86.87934,86.87934,0,0,1,3.96291-19.22765,115.17239,115.17239,0,0,1,8.40293-19.70464,121.50952,121.50952,0,0,1,11.88886-18.09016l.62377-.73387q1.39443-1.76133,2.642-3.15567l.51367-.5871a102.979,102.979,0,0,1,8.5864-8.47632l7.74242-6.01781,3.81618-2.38511q2.05488-1.1742,4.58675-2.34841.844-.40363,2.5319-1.06412a33.81835,33.81835,0,0,1,11.85217-2.56858q11.70537,0,16.62234,11.48521a41.571,41.571,0,0,1,3.04562,16.40219q.03672,16.65909-8.21946,35.55648a116.94269,116.94269,0,0,1-21.13572,32.54755L629.55474,200.421a136.34343,136.34343,0,0,0,22.97047-37.50124q8.73313-21.31923,8.65977-40.98718-.03663-21.53937-11.04488-34.78588T621.33533,73.90014A48.31682,48.31682,0,0,0,610.73076,75.111q-1.94474.477-2.93551.77058l-.844.22016q-.88073.25686-2.71537.91735l-1.321.477q-1.17414.44031-2.71536,1.10082l-1.321.5871q-1.61461.6972-2.78873,1.321Z" transform="translate(-14.38334 -14.13011)"/><g id="Layer1_1_MEMBER_0_MEMBER_3_MEMBER_7_FILL" data-name="Layer1 1 MEMBER 0 MEMBER 3 MEMBER 7 FILL"><path class="cls-1" d="M559.02691,67.4829a33.31166,33.31166,0,0,1,11.8156-2.56861q11.70552,0,16.65919,11.48532a41.49185,41.49185,0,0,1,3.009,16.40238q.07338,16.62253-8.21954,35.55682a117.49385,117.49385,0,0,1-21.13593,32.58456l17.90681,10.3111a135.70841,135.70841,0,0,0,23.00738-37.5383q8.7332-21.28272,8.65985-40.95087-.07336-21.53956-11.08167-34.78624-10.97161-13.24665-28.80505-13.24665a48.31774,48.31774,0,0,0-10.60467,1.21091q-1.94479.477-2.89887.77058l-.88067.22017q-.69716.18348-2.67866.91736l-5.35741,2.165q-1.17412.51373-2.82544,1.321l-.62379.33024q-2.12835,1.10083-3.19243,1.72464-.25687.14677-1.90809,1.21091l-2.86218,1.798q-1.13751.77058-2.5686,1.798-1.32095.91737-2.38513,1.76133l-2.53192,1.98149q-.844.66049-2.4585,2.05488l-4.29322,3.9263q-1.21095,1.13754-1.798,1.76133l-4.14648,4.36662a130.67983,130.67983,0,0,0-8.9167,11.08169l-.66051.91736q-.99072,1.35768-2.82545,4.14647l-.18347.25684a146.37664,146.37664,0,0,0-8.07276,14.09063l-.03673.11008a130.34742,130.34742,0,0,0-8.73322,22.34686,103.80611,103.80611,0,0,0-3.92632,22.53031l-.03669.44034a10.12766,10.12766,0,0,0,20.2553,0l.03669-.69718a86.42125,86.42125,0,0,1,3.92627-19.22784,113.55781,113.55781,0,0,1,8.403-19.70487,118.646,118.646,0,0,1,11.92566-18.0903l.5871-.73388q1.7613-2.12826,2.6787-3.15571l.51373-.58712a100.708,100.708,0,0,1,8.58644-8.51308l3.74285-3.08232,7.81586-5.284q2.23836-1.2843,4.55011-2.34843Q557.339,68.1434,559.02691,67.4829Z" transform="translate(-14.38334 -14.13011)"/></g><path id="Layer1_1_MEMBER_0_MEMBER_3_MEMBER_7_1_STROKES" data-name="Layer1 1 MEMBER 0 MEMBER 3 MEMBER 7 1 STROKES" class="cls-2" d="M570.84438,64.94681q11.70536,0,16.65908,11.48521a41.49106,41.49106,0,0,1,3.00894,16.40221q.07334,16.62236-8.21946,35.55644a117.49209,117.49209,0,0,1-21.13572,32.58427l17.90662,10.311A135.70563,135.70563,0,0,0,602.071,133.748q8.73312-21.28251,8.65976-40.95048-.07342-21.53935-11.08161-34.78589-10.97148-13.24653-28.80477-13.24651A48.31743,48.31743,0,0,0,560.23987,45.976q-1.94484.477-2.89884.77058l-.88066.22016q-.69717.1835-2.67869.91735l-5.3573,2.16494q-1.17425.5137-2.82542,1.321l-.62383.33024q-2.12821,1.10082-3.19235,1.72461-.2568.14677-1.90806,1.21091l-2.86216,1.798q-1.13753.77057-2.56858,1.798-1.321.91736-2.3851,1.76132L529.527,61.9746q-.84393.66049-2.45847,2.05486l-4.29323,3.92625q-1.21087,1.13753-1.798,1.76132l-4.14644,4.36658a130.68809,130.68809,0,0,0-8.91666,11.08157l-.66046.91735q-.99076,1.35768-2.82547,4.14642l-.18347.25685a146.38317,146.38317,0,0,0-8.07267,14.0905l-.03669.11008a130.34991,130.34991,0,0,0-8.73315,22.34664A103.80265,103.80265,0,0,0,483.476,149.5631l-.03668.44033a10.12753,10.12753,0,0,0,20.255,0l.03674-.6972a86.41658,86.41658,0,0,1,3.92623-19.22762,113.55631,113.55631,0,0,1,8.40294-19.70467,118.63942,118.63942,0,0,1,11.92554-18.09012l.58709-.73388q1.76136-2.12826,2.67868-3.15569l.51367-.5871a100.71254,100.71254,0,0,1,8.5864-8.513l3.74282-3.08229,7.81578-5.28393q2.23827-1.28428,4.55007-2.34841.88063-.40365,2.56858-1.06412A33.31187,33.31187,0,0,1,570.84438,64.94681Z" transform="translate(-14.38334 -14.13011)"/><g id="Layer1_1_MEMBER_0_MEMBER_3_MEMBER_8_FILL" data-name="Layer1 1 MEMBER 0 MEMBER 3 MEMBER 8 FILL"><path class="cls-1" d="M520.3878,15.59711a47.98621,47.98621,0,0,0-10.60468,1.2109q-1.9448.477-2.93554.77059l-.844.22017q-.7339.22016-2.71539.91735l-5.35736,2.165q-1.61457.69719-2.78876,1.321l-.62379.33024Q492.39,23.63317,491.32586,24.257l-12.29261,8.54978-2.42181,2.05488q-2.56859,2.23835-4.29322,3.92629-1.211,1.17423-1.798,1.76133-1.24762,1.17421-2.71539,2.78878l-1.43108,1.57785a131.68828,131.68828,0,0,0-8.95343,11.08169l-3.66943,5.32068a154.28193,154.28193,0,0,0-8.07276,14.09062l-.03668.11008a129.70831,129.70831,0,0,0-8.69654,22.34685,102.97627,102.97627,0,0,0-3.963,22.53033l-.03668.44034a10.12763,10.12763,0,0,0,20.25525,0l.03673-.6972a86.88179,86.88179,0,0,1,3.963-19.22784,113.559,113.559,0,0,1,8.403-19.70486,119.03758,119.03758,0,0,1,11.889-18.0903l.62378-.73389q1.39438-1.76133,2.642-3.15571l.51369-.58711a107.89649,107.89649,0,0,1,8.58648-8.51308l3.74285-3.08233,7.81587-5.284q2.05491-1.1742,4.58679-2.34843a22.66541,22.66541,0,0,1,2.53192-1.02744A32.98015,32.98015,0,0,1,520.3878,35.779q11.70552,0,16.6225,11.48532A41.57183,41.57183,0,0,1,540.056,63.66669q.03669,16.65923-8.21954,35.55681a116.78,116.78,0,0,1-21.13593,32.58456l17.90681,10.31112A136.90144,136.90144,0,0,0,551.578,104.58086q8.73321-21.31941,8.65986-40.95087-.03669-21.53958-11.045-34.78623T520.3878,15.59711Z" transform="translate(-14.38334 -14.13011)"/></g><path id="Layer1_1_MEMBER_0_MEMBER_3_MEMBER_8_1_STROKES" data-name="Layer1 1 MEMBER 0 MEMBER 3 MEMBER 8 1 STROKES" class="cls-2" d="M509.78566,16.841q-1.94484.477-2.93552.77058l-.844.22015q-.73389.22016-2.71537.91735l-5.35731,2.165q-1.61451.6972-2.78873,1.321l-.6238.33026q-2.12826,1.10082-3.19238,1.72461l-12.29248,8.5497-2.42179,2.05485q-2.56863,2.23833-4.2932,3.92627-1.21092,1.17421-1.798,1.7613-1.24758,1.17421-2.71534,2.78875l-1.43107,1.57785a131.69149,131.69149,0,0,0-8.95335,11.08157l-3.66939,5.32062a154.28155,154.28155,0,0,0-8.07268,14.09048l-.03668.11009A129.70834,129.70834,0,0,0,436.94809,97.898a102.97237,102.97237,0,0,0-3.96294,22.53011l-.03668.4403a10.12753,10.12753,0,0,0,20.25505,0l.03671-.69716a86.87785,86.87785,0,0,1,3.96294-19.22766,113.55089,113.55089,0,0,1,8.40293-19.70465,119.037,119.037,0,0,1,11.88883-18.09014l.62381-.73388q1.39437-1.76128,2.642-3.15567l.5137-.5871a107.89467,107.89467,0,0,1,8.5864-8.513l3.74279-3.08229,7.81581-5.28393q2.05488-1.1742,4.58675-2.34841a22.669,22.669,0,0,1,2.53189-1.02744,32.97969,32.97969,0,0,1,11.85212-2.60528q11.70536,0,16.62239,11.48523a41.57328,41.57328,0,0,1,3.04563,16.40219q.03671,16.65908-8.21947,35.55647A116.7781,116.7781,0,0,1,510.703,131.83991l17.90662,10.311A136.89805,136.89805,0,0,0,551.58,104.613q8.73322-21.31919,8.65983-40.95046-.0367-21.53937-11.04493-34.78589T520.39017,15.6301A47.985,47.985,0,0,0,509.78566,16.841Z" transform="translate(-14.38334 -14.13011)"/><g id="Layer1_1_MEMBER_1_MEMBER_0_FILL" data-name="Layer1 1 MEMBER 1 MEMBER 0 FILL"><path class="cls-3" d="M618.10479,585.0565l9.79741-5.65093q-5.02717-8.29291-13.0999-10.01753-8.14617-1.72469-17.283,3.596-9.17357,5.284-12.21923,12.91643a15.99981,15.99981,0,0,0,1.10083,14.641,14.9749,14.9749,0,0,0,12.76965,7.85259q4.58681.25693,15.59509-2.31171,7.66906-1.76137,10.78814-1.65125,5.17386.11005,7.37556,3.92628a7.84,7.84,0,0,1,.51373,7.41223q-1.61457,3.77961-6.5683,6.64172-5.65089,3.2658-10.53126,1.94477-4.917-1.32095-8.21954-7.00861l-9.94415,5.79772q5.32072,9.21026,14.20069,11.045,8.80663,1.798,18.93427-4.10979,9.32037-5.35735,12.366-13.35671a17.11432,17.11432,0,0,0-1.2843-15.485,14.68,14.68,0,0,0-11.30187-7.559q-5.57753-.73391-14.82452,1.68793-8.95338,2.38509-13.09986,2.27508-5.06379-.18344-7.1554-3.81622a7.28316,7.28316,0,0,1-.25688-7.11871,13.23909,13.23909,0,0,1,5.68762-5.8711,12.19652,12.19652,0,0,1,9.1369-1.57787A11.404,11.404,0,0,1,618.10479,585.0565Z" transform="translate(-14.38334 -14.13011)"/></g><g id="Layer1_1_MEMBER_1_MEMBER_1_FILL" data-name="Layer1 1 MEMBER 1 MEMBER 1 FILL"><path class="cls-3" d="M656.89073,560.3612a18.00283,18.00283,0,0,0-6.0913,5.61425,16.32952,16.32952,0,0,0-2.67866,7.48565l-3.04565-5.24731-8.47638,4.95374,31.55713,54.4544,9.1369-5.284-11.48535-19.74153a12.681,12.681,0,0,0,7.1554,1.1742,19.40934,19.40934,0,0,0,7.37555-2.60528,16.94806,16.94806,0,0,0,8.77-12.21924q1.43112-8.14617-4.10975-17.68665-5.35741-9.32037-12.98981-12.25592a16.7301,16.7301,0,0,0-15.118,1.35768m1.72461,8.43969a9.24587,9.24587,0,0,1,8.91674-.40362q4.58682,2.12829,8.14613,8.29291,3.63273,6.238,3.19239,11.2285a9.44133,9.44133,0,0,1-4.95374,7.63239,9.10885,9.10885,0,0,1-8.91669.33026q-4.62351-2.16491-8.18286-8.29291-3.5226-6.128-3.0456-11.19177A9.434,9.434,0,0,1,658.61534,568.80089Z" transform="translate(-14.38334 -14.13011)"/></g><g id="Layer1_1_MEMBER_1_MEMBER_2_FILL" data-name="Layer1 1 MEMBER 1 MEMBER 2 FILL"><path class="cls-3" d="M686.90667,534.93205l-5.32068-9.17358-9.1369,5.284,5.32068,9.17358,9.1369-5.284m3.92632,6.78845-9.1369,5.284L704.44658,586.194l9.10016-5.284Z" transform="translate(-14.38334 -14.13011)"/></g><g id="Layer1_1_MEMBER_1_MEMBER_3_FILL" data-name="Layer1 1 MEMBER 1 MEMBER 3 FILL"><path class="cls-3" d="M713.2899,536.50988l-3.41259-5.87109-8.58644,4.99046,22.75049,39.18952,9.10017-5.284-9.94416-17.17292q-4.25658-7.33883-3.963-12.14582.29361-5.10054,5.79772-8.293a21.72988,21.72988,0,0,1,4.18316-1.90809l-4.58679-7.926a22.10566,22.10566,0,0,0-4.55011,2.165Q713.4,528.07022,713.2899,536.50988Z" transform="translate(-14.38334 -14.13011)"/></g><g id="Layer1_1_MEMBER_1_MEMBER_4_FILL" data-name="Layer1 1 MEMBER 1 MEMBER 4 FILL"><path class="cls-3" d="M771.15685,516.4381q-4.917-8.47641-10.56794-10.53126-6.42149-2.34848-15.30156,2.78876-7.7425,4.47669-10.27442,10.56794a13.9891,13.9891,0,0,0,.73389,12.43939l9.35705-5.43073a7.16008,7.16008,0,0,1-.77057-6.0913q.99078-2.89888,4.69689-5.02711,7.11872-4.10976,11.44862,3.30249l.954,1.68793q-5.027,3.63281-7.66908,5.65094a51.82283,51.82283,0,0,0-7.33886,6.605q-7.33882,8.36636-2.642,16.43908,3.19243,5.50422,8.47638,6.49488,5.32065,1.02746,11.85229-2.75207a21.07328,21.07328,0,0,0,6.82518-5.8711,18.43384,18.43384,0,0,0,2.93555-7.59571,47.94648,47.94648,0,0,0,3.33913,4.88032l8.25622-4.807A87.19213,87.19213,0,0,1,777.505,527.373l-6.34814-10.93493M753.10326,543.225q-2.45853-4.29319,2.20166-9.06348a39.3705,39.3705,0,0,1,4.69689-3.99969q1.72455-1.28427,5.06379-3.77954l.954,1.65125q3.48591,6.05456,2.38513,10.38451-.9907,3.81623-5.57752,6.49488a8.38372,8.38372,0,0,1-5.72431,1.35772A5.75352,5.75352,0,0,1,753.10326,543.225Z" transform="translate(-14.38334 -14.13011)"/></g><g id="Layer1_1_MEMBER_1_MEMBER_5_FILL" data-name="Layer1 1 MEMBER 1 MEMBER 5 FILL"><path class="cls-3" d="M771.67063,473.50572l-9.13695,5.284,31.99745,55.15156,9.10021-5.284Z" transform="translate(-14.38334 -14.13011)"/></g><g id="Layer1_1_MEMBER_1_MEMBER_6_FILL" data-name="Layer1 1 MEMBER 1 MEMBER 6 FILL"><path class="cls-3" d="M817.97886,469.506a21.50978,21.50978,0,0,0-10.49462,3.119q-8.73327,5.10054-10.678,14.01726-1.87149,8.65983,3.33913,17.65,5.68758,9.79742,13.687,12.40266,8.25623,2.71539,17.61328-2.71535,7.22877-4.18314,9.9442-9.98088a18.26017,18.26017,0,0,0,.66043-13.24665l-9.65054,5.61425q1.54119,7.19208-4.77026,10.86152a10.19136,10.19136,0,0,1-9.06357,1.06414q-4.18308-1.57794-7.37551-6.64171l27.88769-16.18219a51.41789,51.41789,0,0,0-5.50415-7.926,26.34958,26.34958,0,0,0-6.45824-5.54084,17.55136,17.55136,0,0,0-9.13685-2.49523m-7.11875,10.01757a9.66037,9.66037,0,0,1,7.74254-1.13751q4.14651,1.13751,7.33886,5.79767l-18.75084,10.86152q-2.42177-5.10054-1.32094-9.28364A9.94359,9.94359,0,0,1,810.86011,479.5236Z" transform="translate(-14.38334 -14.13011)"/></g></svg>