
<svg xmlns="http://www.w3.org/2000/svg" version="1.1" xmlns:xlink="http://www.w3.org/1999/xlink" preserveAspectRatio="none" x="0px" y="0px" width="1000px" height="1000px" viewBox="0 0 1000 1000">
<defs>
<g id="Layer1_0_MEMBER_0_MEMBER_0_MEMBER_0_FILL">
<path fill="#FFFFFF" stroke="none" d="
M -234.3 -2839.75
Q -209.9 -2880.85 -209.9 -2924.3 -209.9 -2982.35 -252.9 -3035.4 -294.45 -3086.65 -370.25 -3126.15 -446 -3165.65 -544.25 -3187.3 -645.95 -3209.75 -757.35 -3209.75 -868.7 -3209.75 -970.4 -3187.3 -1068.65 -3165.65 -1144.4 -3126.15 -1220.2 -3086.65 -1261.75 -3035.4 -1304.75 -2982.35 -1304.75 -2924.3 -1304.75 -2886.15 -1285.9 -2849.75 -1267.6 -2814.35 -1232.6 -2782.55
L -1203.95 -2759.2
Q -1144.95 -2715.85 -1060.1 -2686.45 -973.7 -2656.5 -872.6 -2645.2
L -828.7 -2641.25
Q -817.5 -2640.5 -808.55 -2640.1
L -755.9 -2638.85
Q -686.7 -2638.95 -620.5 -2647.85 -556.05 -2656.5 -497.55 -2673
L -447.9 -2688.8
Q -391.5 -2708.95 -346.05 -2735.9
L -302.7 -2765.25
Q -257.95 -2799.95 -234.3 -2839.75 Z"/>
</g>

<g id="Layer1_0_MEMBER_1_MEMBER_0_FILL">
<path fill="#215BDF" stroke="none" d="
M -970.55 -3000.65
Q -959.65 -3000.65 -952.4 -2993.9 -944.85 -2986.9 -944.85 -2975.5
L -921.15 -2975.5
Q -921.6 -2995.8 -934.45 -3007.35 -947.3 -3019 -969.45 -3019 -991.6 -3019 -1005.05 -3008.45 -1018.5 -2997.95 -1018.5 -2980.85 -1018.5 -2963.05 -1003.6 -2953.2 -995.55 -2947.9 -972.95 -2941 -957.25 -2936.2 -951.65 -2932.75 -942.45 -2927.1 -942.45 -2917.85 -942.45 -2909 -949.3 -2903.9 -956.25 -2898.75 -968.2 -2898.75 -981.8 -2898.75 -989.3 -2906.3 -996.8 -2913.85 -996.8 -2927.6
L -1020.85 -2927.6
Q -1020.85 -2905.25 -1006.7 -2892.65 -992.7 -2880.2 -968.2 -2880.2 -945.7 -2880.2 -931.8 -2891.4 -917.85 -2902.65 -917.85 -2920.8 -917.85 -2936.65 -930.45 -2946.3 -939.75 -2953.45 -959 -2958.8 -977.75 -2963.95 -985.05 -2968.5 -994.05 -2974.05 -994.05 -2982.85 -994.05 -2990.95 -987 -2995.95 -980.35 -3000.65 -970.55 -3000.65 Z"/>
</g>

<g id="Layer1_0_MEMBER_1_MEMBER_1_FILL">
<path fill="#215BDF" stroke="none" d="
M -894 -3001.2
L -894 -2977.7 -909.25 -2977.7 -909.25 -2960.8 -894 -2960.8 -894 -2911.8
Q -894 -2895.65 -887.7 -2888.5 -881.35 -2881.3 -867.2 -2881.3 -859.6 -2881.3 -853.05 -2882.95
L -853.05 -2899.85
Q -856.55 -2899.15 -860.6 -2899.15 -867 -2899.15 -869.55 -2903.25 -871.95 -2907.1 -871.95 -2916.2
L -871.95 -2960.8 -853.25 -2960.8 -853.25 -2977.7 -871.95 -2977.7 -871.95 -3001.2 -894 -3001.2 Z"/>
</g>

<g id="Layer1_0_MEMBER_1_MEMBER_2_FILL">
<path fill="#215BDF" stroke="none" d="
M -754.65 -2977.7
L -776.7 -2977.7 -776.7 -2929.6
Q -776.7 -2913.15 -782.55 -2905.2 -788.05 -2897.85 -798.15 -2897.85 -808.65 -2897.85 -812.65 -2906 -815.6 -2912 -815.6 -2924.65
L -815.6 -2977.7 -837.45 -2977.7 -837.45 -2923.9
Q -837.45 -2912.55 -836.4 -2906.2 -835.2 -2898.5 -831.95 -2894 -822.6 -2881.15 -805.15 -2881.15 -796.25 -2881.15 -788.8 -2884.4 -780.45 -2888.05 -775.2 -2895.25
L -775.2 -2882.95 -754.65 -2882.95 -754.65 -2977.7 Z"/>
</g>

<g id="Layer1_0_MEMBER_1_MEMBER_3_FILL">
<path fill="#215BDF" stroke="none" d="
M -724.25 -2894.05
Q -713.55 -2881.15 -695.15 -2881.15 -686.25 -2881.15 -678.7 -2884.85 -671.05 -2888.65 -666.15 -2895.65
L -666.15 -2882.95 -645.4 -2882.95 -645.4 -3016.25 -667.45 -3016.25 -667.45 -2966.9
Q -676.45 -2979.55 -695.15 -2979.55 -713.35 -2979.55 -724.25 -2966.25 -735.2 -2952.9 -735.2 -2930.5 -735.2 -2907.25 -724.25 -2894.05
M -673.1 -2954
Q -667.05 -2945.4 -667.05 -2930.5 -667.05 -2915.35 -673.3 -2906.7 -679.45 -2898.2 -690 -2898.2 -700.4 -2898.2 -706.45 -2906.9 -712.4 -2915.6 -712.4 -2930.5 -712.4 -2945.4 -706.35 -2954 -700.25 -2962.65 -689.65 -2962.65 -679.2 -2962.65 -673.1 -2954 Z"/>
</g>

<g id="Layer1_0_MEMBER_1_MEMBER_4_FILL">
<path fill="#215BDF" stroke="none" d="
M -598.05 -2977.7
L -620.05 -2977.7 -620.05 -2882.95 -598.05 -2882.95 -598.05 -2977.7
M -620.05 -3016.25
L -620.05 -2994.05 -598.05 -2994.05 -598.05 -3016.25 -620.05 -3016.25 Z"/>
</g>

<g id="Layer1_0_MEMBER_1_MEMBER_5_FILL">
<path fill="#215BDF" stroke="none" d="
M -566.05 -2894.15
Q -553.25 -2880.4 -531.75 -2880.4 -509.95 -2880.4 -497 -2894.15 -484.2 -2907.75 -484.2 -2930.35 -484.2 -2952.9 -497 -2966.55 -509.9 -2980.3 -531.55 -2980.3 -553.1 -2980.3 -565.95 -2966.55 -578.75 -2952.9 -578.75 -2930.35 -578.75 -2907.75 -566.05 -2894.15
M -513.55 -2954.5
Q -507.15 -2945.7 -507.15 -2930.35 -507.15 -2914.95 -513.6 -2906.15 -520.1 -2897.3 -531.75 -2897.3 -543.15 -2897.3 -549.55 -2906.3 -555.8 -2915.15 -555.8 -2930.35 -555.8 -2945.75 -549.45 -2954.5 -543.05 -2963.4 -531.55 -2963.4 -520.05 -2963.4 -513.55 -2954.5 Z"/>
</g>

<path id="Layer1_0_MEMBER_0_MEMBER_1_MEMBER_0_1_STROKES" stroke="#215BDF" stroke-width="3" stroke-linejoin="miter" stroke-linecap="butt" stroke-miterlimit="10" fill="none" d="
M 463.26589355468764 457.8656738281252
Q 456.6976074218751 457.5721191406251 448.47807617187505 457.0217041015626"/>

<path id="Layer1_0_MEMBER_0_MEMBER_1_MEMBER_1_1_STROKES" stroke="#215BDF" stroke-width="3" stroke-linejoin="miter" stroke-linecap="butt" stroke-miterlimit="10" fill="none" d="
M 691.5046630859376 433.7208007812501
Q 648.5722900390626 445.8299316406251 601.2732910156251 452.1780517578127 552.689990234375 458.7096435546878 501.9050292968751 458.7830322265627"/>

<path id="Layer1_0_MEMBER_0_MEMBER_1_MEMBER_2_1_STROKES" stroke="#215BDF" stroke-width="3" stroke-linejoin="miter" stroke-linecap="butt" stroke-miterlimit="10" fill="none" d="
M 802.6885009765626 387.559326171875
Q 769.3333496093751 407.3375732421878 727.9421386718751 422.1253906249999"/>

<path id="Layer1_0_MEMBER_0_MEMBER_1_MEMBER_3_1_STROKES" stroke="#215BDF" stroke-width="3" stroke-linejoin="miter" stroke-linecap="butt" stroke-miterlimit="10" fill="none" d="
M 152.06123046875018 353.3235107421874
Q 126.37519531250018 329.9859130859377 112.945068359375 304.0063232421876 99.11130371093759 277.2928466796875 99.11130371093759 249.2950683593749 99.11130371093759 206.69294433593768 130.6684326171876 167.76025390625 161.16142578125005 130.1485595703125 216.7900390625 101.1600341796875 272.3819580078125 72.1715087890625 344.4863281250001 56.28286132812491 419.12260742187505 39.80710449218759 500.84089355468757 39.80710449218759 582.5958740234375 39.80710449218759 657.2321533203126 56.28286132812491 729.3365234375001 72.1715087890625 784.9284423828126 101.1600341796875 840.5570556640625 130.1485595703125 871.0500488281251 167.76025390625 902.6071777343751 206.69294433593768 902.6071777343751 249.2950683593749 902.6071777343751 281.1824462890627 884.7003417968751 311.3451904296876 867.3439208984375 340.5538818359378 834.502490234375 366.0197509765626"/>

<path id="Layer1_0_MEMBER_0_MEMBER_1_MEMBER_4_1_STROKES" stroke="#215BDF" stroke-width="3" stroke-linejoin="miter" stroke-linecap="butt" stroke-miterlimit="10" fill="none" d="
M 416.26044921875007 454.1228515625003
Q 342.06450195312505 445.8299316406251 278.6566894531252 423.8500244140628 216.38640136718755 402.2737548828127 173.08708496093755 370.4597656250003"/>

<path id="Layer1_0_MEMBER_0_MEMBER_1_MEMBER_5_1_STROKES" stroke="#215BDF" stroke-width="3" stroke-linejoin="miter" stroke-linecap="butt" stroke-miterlimit="10" fill="none" d="
M 171.4725341796875 270.7245605468752
L 80.32380371093768 658.5836914062502"/>

<path id="Layer1_0_MEMBER_0_MEMBER_1_MEMBER_6_1_STROKES" stroke="#215BDF" stroke-width="3" stroke-linejoin="miter" stroke-linecap="butt" stroke-miterlimit="10" fill="none" d="
M 707.1364501953126 367.2306640625002
L 566.7439208984376 964.6878417968751"/>

<path id="Layer1_0_MEMBER_0_MEMBER_1_MEMBER_7_1_STROKES" stroke="#215BDF" stroke-width="3" stroke-linejoin="miter" stroke-linecap="butt" stroke-miterlimit="10" fill="none" d="
M 421.1041015625001 435.4087402343753
L 326.5061035156251 837.9822998046875"/>

<path id="Layer1_0_MEMBER_0_MEMBER_1_MEMBER_8_1_STROKES" stroke="#215BDF" stroke-width="3" stroke-linejoin="miter" stroke-linecap="butt" stroke-miterlimit="10" fill="none" d="
M 816.0452392578126 330.6464111328128
L 742.766650390625 642.5849609375"/>

<path id="Layer1_0_MEMBER_0_MEMBER_1_MEMBER_9_1_STROKES" stroke="#215BDF" stroke-width="3" stroke-linejoin="miter" stroke-linecap="butt" stroke-miterlimit="10" fill="none" d="
M 477.5032958984376 397.3200195312502
L 429.6171875000001 601.0836669921878"/>
</defs>

<g transform="matrix( 0.73388671875, 0, 0, 0.73388671875, 1056.65,2395.4) ">
<use xlink:href="#Layer1_0_MEMBER_0_MEMBER_0_MEMBER_0_FILL"/>
</g>

<g transform="matrix( 0.73388671875, 0, 0, 0.73388671875, 1056.65,2395.4) ">
<use xlink:href="#Layer1_0_MEMBER_0_MEMBER_1_MEMBER_0_1_STROKES" transform="matrix( 1.3625946044921875, 0, 0, 1.3625946044921875, -1439.75,-3263.95) "/>
</g>

<g transform="matrix( 0.73388671875, 0, 0, 0.73388671875, 1056.65,2395.4) ">
<use xlink:href="#Layer1_0_MEMBER_0_MEMBER_1_MEMBER_1_1_STROKES" transform="matrix( 1.3625946044921875, 0, 0, 1.3625946044921875, -1439.75,-3263.95) "/>
</g>

<g transform="matrix( 0.73388671875, 0, 0, 0.73388671875, 1056.65,2395.4) ">
<use xlink:href="#Layer1_0_MEMBER_0_MEMBER_1_MEMBER_2_1_STROKES" transform="matrix( 1.3625946044921875, 0, 0, 1.3625946044921875, -1439.75,-3263.95) "/>
</g>

<g transform="matrix( 0.73388671875, 0, 0, 0.73388671875, 1056.65,2395.4) ">
<use xlink:href="#Layer1_0_MEMBER_0_MEMBER_1_MEMBER_3_1_STROKES" transform="matrix( 1.3625946044921875, 0, 0, 1.3625946044921875, -1439.75,-3263.95) "/>
</g>

<g transform="matrix( 0.73388671875, 0, 0, 0.73388671875, 1056.65,2395.4) ">
<use xlink:href="#Layer1_0_MEMBER_0_MEMBER_1_MEMBER_4_1_STROKES" transform="matrix( 1.3625946044921875, 0, 0, 1.3625946044921875, -1439.75,-3263.95) "/>
</g>

<g transform="matrix( 0.73388671875, 0, 0, 0.73388671875, 1056.65,2395.4) ">
<use xlink:href="#Layer1_0_MEMBER_0_MEMBER_1_MEMBER_5_1_STROKES" transform="matrix( 1.3625946044921875, 0, 0, 1.3625946044921875, -1439.75,-3263.95) "/>
</g>

<g transform="matrix( 0.73388671875, 0, 0, 0.73388671875, 1056.65,2395.4) ">
<use xlink:href="#Layer1_0_MEMBER_0_MEMBER_1_MEMBER_6_1_STROKES" transform="matrix( 1.3625946044921875, 0, 0, 1.3625946044921875, -1439.75,-3263.95) "/>
</g>

<g transform="matrix( 0.73388671875, 0, 0, 0.73388671875, 1056.65,2395.4) ">
<use xlink:href="#Layer1_0_MEMBER_0_MEMBER_1_MEMBER_7_1_STROKES" transform="matrix( 1.3625946044921875, 0, 0, 1.3625946044921875, -1439.75,-3263.95) "/>
</g>

<g transform="matrix( 0.73388671875, 0, 0, 0.73388671875, 1056.65,2395.4) ">
<use xlink:href="#Layer1_0_MEMBER_0_MEMBER_1_MEMBER_8_1_STROKES" transform="matrix( 1.3625946044921875, 0, 0, 1.3625946044921875, -1439.75,-3263.95) "/>
</g>

<g transform="matrix( 0.73388671875, 0, 0, 0.73388671875, 1056.65,2395.4) ">
<use xlink:href="#Layer1_0_MEMBER_0_MEMBER_1_MEMBER_9_1_STROKES" transform="matrix( 1.3625946044921875, 0, 0, 1.3625946044921875, -1439.75,-3263.95) "/>
</g>

<g transform="matrix( 0.73388671875, 0, 0, 0.73388671875, 1056.65,2395.4) ">
<use xlink:href="#Layer1_0_MEMBER_1_MEMBER_0_FILL"/>
</g>

<g transform="matrix( 0.73388671875, 0, 0, 0.73388671875, 1056.65,2395.4) ">
<use xlink:href="#Layer1_0_MEMBER_1_MEMBER_1_FILL"/>
</g>

<g transform="matrix( 0.73388671875, 0, 0, 0.73388671875, 1056.65,2395.4) ">
<use xlink:href="#Layer1_0_MEMBER_1_MEMBER_2_FILL"/>
</g>

<g transform="matrix( 0.73388671875, 0, 0, 0.73388671875, 1056.65,2395.4) ">
<use xlink:href="#Layer1_0_MEMBER_1_MEMBER_3_FILL"/>
</g>

<g transform="matrix( 0.73388671875, 0, 0, 0.73388671875, 1056.65,2395.4) ">
<use xlink:href="#Layer1_0_MEMBER_1_MEMBER_4_FILL"/>
</g>

<g transform="matrix( 0.73388671875, 0, 0, 0.73388671875, 1056.65,2395.4) ">
<use xlink:href="#Layer1_0_MEMBER_1_MEMBER_5_FILL"/>
</g>
</svg>
