<svg width="338" height="380" viewBox="0 0 338 380" fill="none" xmlns="http://www.w3.org/2000/svg">
<path class="studio-bg" d="M296.442 143.103C287.436 148.453 277.153 153.205 265.866 157.242L250.964 161.994C227.887 168.503 201.466 172.192 173.403 172.231L157.593 171.864C155.563 171.768 153.553 171.652 151.543 171.516L138.362 170.338C97.5031 165.78 62.2882 153.301 38.9018 136.129L30.301 129.118C16.5204 116.582 8.63477 102.075 8.63477 86.6032C8.67342 39.2983 82.2536 0.956055 172.997 0.956055C263.74 0.956055 337.32 39.2983 337.32 86.5839C337.32 104.239 327.057 120.657 309.469 134.294L296.442 143.103Z" fill="white"/>
<path d="M104.332 89.1643H97.1268C97.1268 98.1293 103.177 103.354 112.912 103.354C121.877 103.354 127.982 98.4593 127.982 91.1993C127.982 84.2143 122.042 81.5743 115.662 79.8143C108.842 77.9443 105.157 76.3493 105.157 72.6093C105.157 69.2543 108.457 67.2743 112.197 67.2743C116.432 67.2743 119.897 70.1343 119.897 74.8093H126.992C126.827 66.7243 121.382 61.7743 112.527 61.7743C103.672 61.7743 97.8418 66.3943 97.8418 73.2143C97.8418 81.2993 105.212 83.2243 111.482 85.1493C116.322 86.6343 120.612 87.9543 120.612 92.0793C120.612 95.5993 117.697 97.7993 112.912 97.7993C107.467 97.7993 104.332 94.6643 104.332 89.1643ZM134.025 67.1093V74.1493H129.46V79.2093H134.025V93.8943C134.025 100.329 136.39 103.024 142.055 103.024C143.54 103.024 144.805 102.914 146.29 102.529V97.4693C145.245 97.6893 144.64 97.6893 144.035 97.6893C141.395 97.6893 140.625 96.0943 140.625 92.5743V79.2093H146.235V74.1493H140.625V67.1093H134.025ZM168.5 98.8443V102.529H174.66V74.1493H168.06V88.5593C168.06 92.0793 167.4 94.3893 166.3 95.8743C165.2 97.3593 163.66 98.0743 161.625 98.0743C157.005 98.0743 156.4 94.2243 156.4 90.0443V74.1493H149.855V90.2643C149.855 94.3893 150.13 97.3043 151.505 99.2293C153.265 101.649 155.795 103.079 159.535 103.079C162.835 103.079 166.3 101.869 168.5 98.8443ZM179.391 88.2843C179.391 97.6893 184.121 103.079 191.381 103.079C194.901 103.079 198.091 101.539 200.071 98.7343V102.529H206.286V62.5993H199.686V77.3943C197.761 74.6993 194.846 73.5993 191.381 73.5993C184.121 73.5993 179.391 79.3193 179.391 88.2843ZM186.211 88.2843C186.211 82.3443 188.796 78.6593 193.031 78.6593C197.211 78.6593 199.796 82.3443 199.796 88.2843C199.796 94.3893 197.101 97.9643 192.921 97.9643C188.741 97.9643 186.211 94.2243 186.211 88.2843ZM219.361 74.1493H212.761V102.529H219.361V74.1493ZM219.361 62.5993H212.761V69.2543H219.361V62.5993ZM238.161 73.3793C229.526 73.3793 224.026 79.3743 224.026 88.3393C224.026 97.3043 229.471 103.299 238.106 103.299C246.851 103.299 252.351 97.3043 252.351 88.3393C252.351 79.3743 246.851 73.3793 238.161 73.3793ZM238.161 78.4393C242.781 78.4393 245.476 82.2343 245.476 88.3393C245.476 94.4443 242.781 98.2393 238.106 98.2393C233.486 98.2393 230.901 94.3343 230.901 88.3393C230.901 82.2343 233.541 78.4393 238.161 78.4393Z" fill="#215BDF"/>
<path d="M157.631 171.845C155.601 171.748 153.591 171.632 151.581 171.497" stroke="#215BDF" stroke-miterlimit="10"/>
<path d="M250.984 161.974C227.906 168.483 201.486 172.173 173.422 172.211" stroke="#215BDF" stroke-miterlimit="10"/>
<path d="M296.442 143.102C287.435 148.452 277.153 153.204 265.865 157.241" stroke="#215BDF" stroke-miterlimit="10"/>
<path d="M30.3391 129.098C16.5585 116.562 8.67285 102.056 8.67285 86.5839C8.67285 39.2983 82.2531 0.956055 172.996 0.956055C263.739 0.956055 337.32 39.2983 337.32 86.5839C337.32 104.239 327.057 120.657 309.468 134.294" stroke="#215BDF" stroke-miterlimit="10"/>
<path d="M138.399 170.319C97.5408 165.76 62.3259 153.282 38.9395 136.11" stroke="#215BDF" stroke-miterlimit="10"/>
<path d="M38.283 95.3535L1 253.88" stroke="#215BDF" stroke-miterlimit="10"/>
<path d="M257.38 134.797L199.938 379.009" stroke="#215BDF" stroke-miterlimit="10"/>
<path d="M140.372 162.669L101.678 327.203" stroke="#215BDF" stroke-miterlimit="10"/>
<path d="M301.912 119.847L271.935 247.352" stroke="#215BDF" stroke-miterlimit="10"/>
<path d="M163.449 147.102L143.87 230.392" stroke="#215BDF" stroke-miterlimit="10"/>
</svg>
