<svg width="220" height="168" viewBox="0 0 220 168" fill="none" xmlns="http://www.w3.org/2000/svg">
<path d="M216.324 89.8941C211.368 81.3136 200.477 73.7147 189.636 71.2413C189.509 67.9391 188.388 64.4202 186.273 60.7611C178.413 47.1444 159.305 36.0904 143.662 36.1414C138.706 36.1542 134.49 37.3017 131.458 39.4563C124.961 29.0399 110.261 20.7271 98.1969 20.7653C94.7956 20.7781 91.8912 21.4411 89.5727 22.7415C79.0377 10.2978 60.885 1.36031 46.1334 1.39856C28.5157 1.44956 21.3947 13.9697 30.2482 29.3076C30.8469 30.3531 31.5348 31.4113 32.2864 32.4823C28.1208 31.0288 23.9934 30.2638 20.2737 30.2766C7.17823 30.3148 1.87889 39.6093 8.4521 51.0203C9.61133 53.0348 11.1145 55.0365 12.8979 56.9744C1.30564 59.1801 -2.33765 68.9846 4.27378 80.4466C10.9489 92.0105 26.4138 101.968 40.5411 103.88C39.9424 107.106 40.7832 110.829 43.0124 114.692C48.3373 123.923 60.3882 131.879 71.8148 133.766C72.4263 135.461 73.2416 137.195 74.2352 138.917C83.0887 154.254 104.617 166.698 122.222 166.647C134.808 166.609 142.439 160.221 141.904 150.289C151.407 158.296 164.107 163.409 174.566 163.37C189.177 163.332 195.789 153.528 189.878 140.918C194.324 142.576 198.744 143.43 202.693 143.417C215.789 143.379 221.088 134.072 214.515 122.674C211.623 117.663 206.846 112.92 200.948 109.184C202.426 109.401 203.84 109.516 205.152 109.503C217.534 109.478 222.553 100.68 216.324 89.8941Z" fill="white" stroke="#215BDF" stroke-miterlimit="10"/>
<path d="M151.572 62.7119C151.037 60.6975 150.146 58.6193 148.936 56.5283" stroke="#215BDF" stroke-miterlimit="10"/>
<path d="M93.2666 38.9324C95.6488 35.541 99.8398 33.4373 105.343 32.9655C105.789 32.9273 107.394 32.8508 107.954 32.8508C115.177 32.8253 123.177 35.2732 130.387 39.2766C130.986 39.6081 131.585 39.9524 132.184 40.3093C139.215 44.555 145.33 50.2541 148.948 56.5397" stroke="#215BDF" stroke-miterlimit="10"/>
<path d="M122.694 140.535C127.815 145.444 134.745 148.67 140.796 149.396C141.229 149.447 141.65 149.486 142.083 149.511C144.631 149.664 146.974 149.345 148.924 148.478C152.274 146.987 153.892 144.156 153.484 140.497" stroke="#215BDF" stroke-miterlimit="10"/>
<path d="M53.4576 107.221C53.4449 108.725 53.6487 110.268 54.0691 111.849C54.0691 111.849 55.6614 116.235 56.6932 118.032C59.776 123.362 64.8715 128.64 71.2282 132.886C71.7632 133.243 72.2983 133.587 72.8588 133.931C75.139 135.346 77.5594 136.621 80.0817 137.731C87.5848 141.007 94.986 142.333 101.164 141.53M101.177 141.543C101.801 141.466 102.413 141.364 103.011 141.237L101.177 141.543Z" stroke="#215BDF" stroke-miterlimit="10"/>
<path d="M105.688 32.7621C104.987 31.9972 104.235 31.2704 103.42 30.5564C99.5858 27.165 94.9998 24.6916 90.452 23.5696C90.2992 23.5314 90.1591 23.4931 90.0062 23.4676C89.7641 23.4166 89.5221 23.3656 89.2928 23.3146C84.9107 22.4477 81.14 22.9959 78.6177 24.8828C76.1336 26.7315 75.1273 29.6512 75.7387 33.1701" stroke="#215BDF" stroke-miterlimit="10"/>
<path d="M171.61 140.242C175.496 142.027 179.47 142.983 183.05 142.983C192.336 142.957 196.082 136.353 191.419 128.27C189.113 124.254 184.973 120.416 180.082 117.675" stroke="#215BDF" stroke-miterlimit="10"/>
<path d="M34.2223 82.1807C33.8656 82.8181 33.5854 83.5066 33.3688 84.2334C32.286 87.9053 33.1268 92.2912 35.7382 96.8173C36.286 97.7608 36.9102 98.717 37.6108 99.6732C38.5408 100.948 39.5981 102.185 40.7318 103.383C41.0121 103.677 41.3051 103.983 41.6108 104.276C45.1522 107.769 49.5089 110.842 54.3241 113.201" stroke="#215BDF" stroke-miterlimit="10"/>
<path d="M49.1013 90.0986C48.9612 90.8254 48.8848 91.5776 48.8848 92.3553C48.8848 95.224 49.8402 98.3222 51.6363 101.433C52.1841 102.389 52.8083 103.333 53.5089 104.276C53.8274 104.697 54.1459 105.118 54.4898 105.538C55.114 106.303 55.7892 107.068 56.5026 107.821C61.2414 112.768 67.4707 116.796 74.1331 119.244" stroke="#215BDF" stroke-miterlimit="10"/>
<path d="M56.3375 32.1245C54.8344 31.6017 53.3312 31.1555 51.8408 30.7985C44.3249 29.0135 37.7134 29.5235 33.2294 32.2392C28.7453 34.9676 26.9109 39.583 28.0956 45.2311" stroke="#215BDF" stroke-miterlimit="10"/>
<path d="M42.4261 39.0348L38.5106 37.2025L33.288 61.21L38.1898 63.5038L46.8796 52.4863C48.0514 50.9944 49.0375 49.7434 50.7186 47.3967L50.898 47.4806C50.1593 50.3048 49.8149 51.8196 49.4202 53.6752L46.5289 67.4061L51.4009 69.6859L66.487 50.2941L62.9301 48.6297L54.7428 59.6636L51.1371 64.6438L50.9577 64.5599C51.6684 61.7955 52.0587 60.3386 52.4114 58.5727L55.2187 45.0211L50.1375 42.6434L41.5018 53.4675C40.5875 54.6428 38.647 57.2324 37.8064 58.4058L37.5972 58.3079L39.2003 52.3905L42.4261 39.0348ZM71.5616 59.8099C66.869 57.614 62.3555 59.4733 60.0757 64.3452C57.7959 69.2172 59.2304 73.8598 63.923 76.0557C68.6754 78.2796 73.1889 76.4204 75.4687 71.5484C77.7485 66.6764 76.2842 62.0198 71.5616 59.8099ZM70.2749 62.5597C72.7856 63.7346 73.2851 66.4823 71.7325 69.8001C70.18 73.1178 67.7503 74.4948 65.2098 73.3059C62.6991 72.131 62.2873 69.3515 63.8119 66.0936C65.3644 62.7759 67.7642 61.3849 70.2749 62.5597ZM84.9928 66.6051L81.6153 65.0246L74.3982 80.4475L77.9849 82.1259L81.1459 75.3709C82.8942 71.6348 84.8933 70.1656 87.8524 71.5503C88.3306 71.7741 88.8248 72.0417 89.3367 72.427L90.7913 69.3185C90.3391 68.9612 89.6657 68.6096 89.1576 68.3718C87.3941 67.5466 85.6714 67.7242 83.9158 68.9066L84.9928 66.6051ZM99.1586 65.5828L95.5719 63.9044L85.4175 85.604L89.0042 87.2824L92.5848 79.6307L94.6533 89.9259L99.1367 92.0239L96.5772 80.4424L105.726 76.3073L101.452 74.3072L93.2282 78.2558L99.1586 65.5828ZM104.759 88.6431L101.082 86.9227C99.5356 90.4617 101.119 93.4618 105.513 95.5178C109.548 97.406 112.898 96.7875 114.297 93.7986C115.681 90.8396 113.636 88.8259 111.523 87.0354C109.487 85.3905 107.411 83.909 108.18 82.2651C108.698 81.1592 110.036 80.9473 111.62 81.6886C113.563 82.5978 114.14 83.7786 113.376 85.6438L116.933 87.3082C118.514 83.9307 117.037 81.0903 112.942 79.1741C108.997 77.3278 105.649 78.0201 104.334 80.8297C102.754 84.2072 105.541 86.3492 107.877 88.2078C109.656 89.6231 111.178 90.8089 110.451 92.3631C109.891 93.5587 108.449 93.7585 106.746 92.9613C104.564 91.9403 103.892 90.4962 104.759 88.6431ZM128.407 79.2695L124.82 77.5911L114.666 99.2908L118.253 100.969L121.903 93.1681C123.623 89.4917 125.548 88.5707 127.82 89.6337C130.301 90.7946 129.664 93.0108 128.587 95.3122L124.559 103.92L128.146 105.599L132.286 96.7515C133.349 94.4799 133.901 92.9893 133.657 91.5636C133.36 89.785 132.245 88.3524 130.242 87.4153C128.359 86.5342 126.392 86.3786 124.575 87.4592L128.407 79.2695ZM145.602 94.4571C140.909 92.2612 136.396 94.1204 134.116 98.9924C131.836 103.864 133.271 108.507 137.963 110.703C142.716 112.927 147.229 111.068 149.509 106.196C151.789 101.324 150.324 96.667 145.602 94.4571ZM144.315 97.2069C146.826 98.3818 147.325 101.129 145.773 104.447C144.22 107.765 141.791 109.142 139.25 107.953C136.739 106.778 136.328 103.999 137.852 100.741C139.405 97.423 141.804 96.032 144.315 97.2069ZM166.633 114.209C168.913 109.337 167.901 105.038 163.955 103.191C161.923 102.24 159.857 102.294 158.038 103.301L159.003 101.238L155.656 99.6718L145.627 121.102L149.214 122.781L152.85 115.01C153.135 116.892 154.516 118.303 156.399 119.184C160.224 120.974 164.255 119.29 166.633 114.209ZM162.957 112.488C161.432 115.746 159.12 117.106 156.759 116.001C154.487 114.938 154.048 112.218 155.544 109.02C157.055 105.792 159.456 104.474 161.728 105.537C164 106.6 164.467 109.26 162.957 112.488ZM170.436 119.377L166.759 117.656C165.213 121.195 166.796 124.195 171.19 126.251C175.225 128.14 178.575 127.521 179.974 124.532C181.358 121.573 179.313 119.559 177.2 117.769C175.164 116.124 173.088 114.643 173.858 112.999C174.375 111.893 175.713 111.681 177.297 112.422C179.24 113.331 179.817 114.512 179.053 116.377L182.61 118.042C184.191 114.664 182.714 111.824 178.62 109.908C174.674 108.061 171.326 108.754 170.011 111.563C168.431 114.941 171.218 117.083 173.554 118.941C175.333 120.357 176.855 121.543 176.128 123.097C175.568 124.292 174.127 124.492 172.423 123.695C170.241 122.674 169.569 121.23 170.436 119.377Z" fill="#215BDF"/>
</svg>
