
<svg xmlns="http://www.w3.org/2000/svg" version="1.1" xmlns:xlink="http://www.w3.org/1999/xlink" preserveAspectRatio="none" x="0px" y="0px" width="1000px" height="1000px" viewBox="0 0 1000 1000">
<defs>
<g id="Layer1_0_MEMBER_0_MEMBER_0_MEMBER_0_MEMBER_0_FILL">
<path fill="#FFFFFF" stroke="none" d="
M -1783.75 -2788.9
Q -1800.95 -2818.7 -1830 -2845.95 -1858.05 -2872.25 -1893.15 -2892.5 -1928.25 -2912.8 -1964.95 -2923.85 -2002.95 -2935.35 -2037.25 -2935.25 -2059.3 -2935.2 -2077.8 -2930.2 -2096.25 -2925.2 -2109.85 -2915.6 -2124.1 -2938.4 -2147 -2959.1 -2169.15 -2979.1 -2196.4 -2994.4 -2223.65 -3009.75 -2251.95 -3018.1 -2281.3 -3026.75 -2307.7 -3026.7 -2338.2 -3026.6 -2359.05 -3014.95 -2382.25 -3042.3 -2413.55 -3065.95 -2444 -3089.05 -2478.85 -3106.15 -2513.75 -3123.3 -2548.9 -3132.45 -2585.05 -3141.85 -2617.45 -3141.75 -2656.05 -3141.65 -2683.85 -3128.55 -2710.65 -3115.85 -2723.75 -3092.9 -2736.85 -3069.9 -2734.2 -3040.2 -2731.4 -3009.45 -2712 -2975.85 -2706.4 -2966.2 -2699.9 -2957 -2718.5 -2963.5 -2736.6 -2966.85 -2754.75 -2970.2 -2771.35 -2970.15 -2800.05 -2970.05 -2820.7 -2960.3 -2840.65 -2950.9 -2850.35 -2933.8 -2860.1 -2916.7 -2858.1 -2894.65 -2856 -2871.75 -2841.6 -2846.8 -2831.25 -2828.85 -2815.15 -2811.4 -2840.65 -2806.55 -2857.8 -2793.65 -2874.5 -2781.1 -2881.45 -2762.25 -2888.35 -2743.45 -2884.75 -2720.6 -2881 -2697.1 -2866.45 -2671.9 -2851.8 -2646.5 -2827.8 -2622.75 -2804.55 -2599.65 -2775.2 -2580.75 -2745.9 -2561.85 -2714.3 -2549.5 -2681.75 -2536.8 -2650.7 -2532.6 -2653.4 -2518.25 -2649.65 -2501.9 -2645.95 -2485.55 -2636 -2468.35 -2612.25 -2427.2 -2563.95 -2395.25 -2515.7 -2363.35 -2464.65 -2354.95 -2459.25 -2339.9 -2450.25 -2324.3 -2430.85 -2290.7 -2398.15 -2260.05 -2366.6 -2230.45 -2327.05 -2207.6 -2287.55 -2184.8 -2246.2 -2172.3 -2203.4 -2159.4 -2164.8 -2159.5 -2108.7 -2159.65 -2077 -2186.05 -2045.35 -2212.4 -2047.7 -2256.75 -2005.25 -2221 -1952.7 -2199.95 -1900 -2178.85 -1853.4 -2179 -1821.35 -2179.05 -1797.55 -2189.4 -1774.5 -2199.4 -1762.05 -2217.7 -1749.6 -2235.95 -1749.45 -2260 -1749.3 -2284.75 -1762.3 -2312.4 -1721.75 -2297.4 -1686.05 -2297.55 -1657.35 -2297.6 -1636.7 -2307.35 -1616.75 -2316.75 -1607.05 -2333.85 -1597.3 -2350.9 -1599.3 -2373 -1601.4 -2395.85 -1615.8 -2420.85 -1628.65 -2443.15 -1649.4 -2463.75 -1670.15 -2484.35 -1696.5 -2501.05 -1683.8 -2499.1 -1671.5 -2499.1 -1644.35 -2499.15 -1624.85 -2508.4 -1605.95 -2517.3 -1596.75 -2533.45 -1587.55 -2549.65 -1589.45 -2570.55 -1591.4 -2592.15 -1605.05 -2615.8 -1627.1 -2654 -1671.25 -2684.85 -1715.35 -2715.6 -1763.75 -2726.65 -1764.9 -2756.2 -1783.75 -2788.9 Z"/>
</g>

<g id="Layer1_0_MEMBER_1_MEMBER_0_MEMBER_0_FILL">
<path fill="#215BDF" stroke="none" d="
M -2632.65 -2924.8
L -2654.25 -2935.35 -2685.5 -2802.25 -2658.45 -2789.05 -2609.1 -2849.55
Q -2596.4 -2865.25 -2587.3 -2877.5
L -2586.3 -2877
Q -2591.3 -2859 -2595.1 -2842.7
L -2612.45 -2766.55 -2585.55 -2753.45 -2499.8 -2859.95 -2519.45 -2869.5 -2566 -2808.9 -2586.55 -2781.5 -2587.55 -2782
Q -2583.5 -2796.5 -2582.4 -2800.65 -2580.3 -2808.6 -2578.9 -2815.15
L -2562.05 -2890.3 -2590.05 -2904 -2639.1 -2844.6
Q -2651.2 -2829.45 -2660.15 -2817.45
L -2661.3 -2818 -2651.8 -2850.8 -2632.65 -2924.8 Z"/>
</g>

<g id="Layer1_0_MEMBER_1_MEMBER_0_MEMBER_1_FILL">
<path fill="#215BDF" stroke="none" d="
M -2444.05 -2777.35
Q -2449.65 -2795.35 -2469.1 -2804.85 -2488.45 -2814.3 -2506.05 -2807.6 -2523.5 -2800.95 -2533.4 -2780.7 -2543.3 -2760.4 -2537.9 -2742.6 -2532.4 -2724.65 -2513.1 -2715.2 -2493.5 -2705.65 -2475.85 -2712.3 -2458.35 -2718.9 -2448.45 -2739.2 -2438.55 -2759.5 -2444.05 -2777.35
M -2496.5 -2789.55
Q -2486.8 -2794.7 -2476.5 -2789.7 -2466.15 -2784.6 -2464.2 -2773.8 -2462.3 -2763.1 -2469.05 -2749.3 -2475.8 -2735.45 -2485.45 -2730.4 -2495.2 -2725.3 -2505.65 -2730.35 -2515.95 -2735.4 -2517.7 -2746.3 -2519.45 -2756.95 -2512.8 -2770.65 -2506.05 -2784.45 -2496.5 -2789.55 Z"/>
</g>

<g id="Layer1_0_MEMBER_1_MEMBER_0_MEMBER_2_FILL">
<path fill="#215BDF" stroke="none" d="
M -2376.25 -2736.45
Q -2371.55 -2734.15 -2368.05 -2731.4
L -2359.7 -2748.6
Q -2363 -2751.3 -2368.7 -2754 -2383.1 -2761.05 -2397.9 -2751.5
L -2391.7 -2764.2 -2410.35 -2773.3 -2451.9 -2688.2 -2432.1 -2678.5 -2413.9 -2715.8
Q -2406.1 -2731.75 -2397.4 -2736.85 -2388.15 -2742.25 -2376.25 -2736.45 Z"/>
</g>

<g id="Layer1_0_MEMBER_1_MEMBER_0_MEMBER_3_FILL">
<path fill="#215BDF" stroke="none" d="
M -2273.9 -2706.7
L -2297.5 -2718.2 -2343.6 -2697 -2309.45 -2766.95 -2329.25 -2776.6 -2387.7 -2656.85 -2367.9 -2647.15 -2347.3 -2689.4 -2336.75 -2631.95 -2312 -2619.85 -2325.15 -2684.55 -2273.9 -2706.7 Z"/>
</g>

<g id="Layer1_0_MEMBER_1_MEMBER_0_MEMBER_4_FILL">
<path fill="#215BDF" stroke="none" d="
M -2277.1 -2636.55
L -2297.4 -2646.45
Q -2304.05 -2631.85 -2297.9 -2619.45 -2291.75 -2607.1 -2273.5 -2598.2 -2256.75 -2590.05 -2243.65 -2592.3 -2230.5 -2594.6 -2224.5 -2606.95 -2219.1 -2617.95 -2224.55 -2628.2 -2228.2 -2635.15 -2239.3 -2644.85 -2251.35 -2654.9 -2254.25 -2658.35 -2260.4 -2665.7 -2257.45 -2671.7 -2255.25 -2676.25 -2250 -2677.05 -2244.85 -2677.8 -2238.25 -2674.6 -2230.15 -2670.6 -2227.9 -2665.4 -2225.6 -2660.1 -2228.85 -2652.4
L -2209.25 -2642.85
Q -2202.45 -2656.75 -2208.1 -2668.5 -2213.65 -2680.1 -2230.7 -2688.45 -2246.95 -2696.4 -2260 -2694.05 -2273 -2691.75 -2278.7 -2680.05 -2284.75 -2667.7 -2277.45 -2656.3 -2273.3 -2649.85 -2259.7 -2638.65 -2250.15 -2630.8 -2247.5 -2627.2 -2242.95 -2621.05 -2245.75 -2615.3 -2248.15 -2610.4 -2253.75 -2609.6 -2259.3 -2608.85 -2266.45 -2612.3 -2284.6 -2621.2 -2277.1 -2636.55 Z"/>
</g>

<g id="Layer1_0_MEMBER_1_MEMBER_0_MEMBER_5_FILL">
<path fill="#215BDF" stroke="none" d="
M -2141.3 -2684.85
L -2161.1 -2694.5 -2219.6 -2574.75 -2199.8 -2565.1 -2178.75 -2608.15
Q -2171.5 -2623.05 -2163.1 -2627.6 -2155.15 -2631.95 -2145.55 -2627.25 -2136.2 -2622.7 -2136.2 -2613.65 -2136.2 -2607.05 -2141.8 -2595.6
L -2165 -2548.1 -2145.2 -2538.4 -2121.35 -2587.25
Q -2116.3 -2597.6 -2114.5 -2603.35 -2112.35 -2610.4 -2113.25 -2616 -2115.5 -2631.35 -2131.85 -2639.35 -2149.1 -2647.8 -2163.4 -2639.65
L -2141.3 -2684.85 Z"/>
</g>

<g id="Layer1_0_MEMBER_1_MEMBER_0_MEMBER_6_FILL">
<path fill="#215BDF" stroke="none" d="
M -2043.75 -2597.15
Q -2063.1 -2606.6 -2080.7 -2599.9 -2098.2 -2593.25 -2108.05 -2573 -2117.95 -2552.7 -2112.55 -2534.9 -2107.05 -2516.95 -2087.75 -2507.5 -2068.15 -2497.95 -2050.5 -2504.6 -2033 -2511.2 -2023.1 -2531.5 -2013.2 -2551.75 -2018.7 -2569.65 -2024.3 -2587.65 -2043.75 -2597.15
M -2071.15 -2581.85
Q -2061.45 -2587 -2051.15 -2582 -2040.8 -2576.95 -2038.9 -2566.1 -2037 -2555.4 -2043.7 -2541.6 -2050.45 -2527.75 -2060.1 -2522.7 -2069.9 -2517.6 -2080.35 -2522.7 -2090.6 -2527.7 -2092.4 -2538.6 -2094.15 -2549.25 -2087.45 -2562.95 -2080.7 -2576.75 -2071.15 -2581.85 Z"/>
</g>

<g id="Layer1_0_MEMBER_1_MEMBER_0_MEMBER_7_FILL">
<path fill="#215BDF" stroke="none" d="
M -1925.25 -2483.75
Q -1915.4 -2503.95 -1919.1 -2520.6 -1922.85 -2537.3 -1939.15 -2545.25 -1947.5 -2549.35 -1955.95 -2549.35 -1964.35 -2549.3 -1972.05 -2545.2
L -1966.5 -2556.6 -1985 -2565.6 -2042.75 -2447.3 -2022.95 -2437.65 -2002 -2480.55
Q -2001 -2472.95 -1995.7 -2466.75 -1990.75 -2460.95 -1982.65 -2457 -1966.55 -2449.15 -1951.15 -2456 -1935.35 -2463.05 -1925.25 -2483.75
M -1970.55 -2532
Q -1961.2 -2537.05 -1951.75 -2532.4 -1942.35 -2527.85 -1940.7 -2517.4 -1939 -2507 -1945.55 -2493.65 -1952.2 -2480.1 -1961.35 -2475 -1970.65 -2469.9 -1980.35 -2474.65 -1989.75 -2479.25 -1991.35 -2489.8 -1992.95 -2500.3 -1986.45 -2513.6 -1979.95 -2526.95 -1970.55 -2532 Z"/>
</g>

<g id="Layer1_0_MEMBER_1_MEMBER_0_MEMBER_8_FILL">
<path fill="#215BDF" stroke="none" d="
M -1862.45 -2491.05
Q -1854.3 -2487.05 -1852.05 -2481.85 -1849.75 -2476.55 -1853.05 -2468.9
L -1833.4 -2459.3
Q -1826.6 -2473.2 -1832.25 -2484.95 -1837.8 -2496.6 -1854.85 -2504.9 -1871.1 -2512.85 -1884.2 -2510.5 -1897.15 -2508.2 -1902.9 -2496.5 -1908.9 -2484.15 -1901.6 -2472.8 -1897.45 -2466.3 -1883.85 -2455.15 -1874.4 -2447.35 -1871.65 -2443.65 -1867.1 -2437.55 -1869.9 -2431.8 -1872.3 -2426.9 -1877.95 -2426.1 -1883.5 -2425.35 -1890.6 -2428.8 -1908.75 -2437.6 -1901.25 -2453
L -1921.55 -2462.9
Q -1928.2 -2448.25 -1922.05 -2435.9 -1915.95 -2423.6 -1897.7 -2414.7 -1880.9 -2406.5 -1867.85 -2408.8 -1854.65 -2411.1 -1848.65 -2423.45 -1843.3 -2434.4 -1848.7 -2444.7 -1852.35 -2451.6 -1863.45 -2461.3 -1875.45 -2471.3 -1878.4 -2474.85 -1884.55 -2482.15 -1881.6 -2488.15 -1879.4 -2492.7 -1874.2 -2493.5 -1869 -2494.3 -1862.45 -2491.05 Z"/>
</g>

<path id="Layer1_0_MEMBER_0_MEMBER_0_MEMBER_0_MEMBER_1_1_STROKES" stroke="#215BDF" stroke-width="3" stroke-linejoin="miter" stroke-linecap="butt" stroke-miterlimit="10" fill="none" d="
M 799.1373046875001 354.19509277343786
Q 778.5517822265626 334.8938720703127 752.7923583984375 320.0326660156252 727.0329345703126 305.134765625 700.0992919921875 297.0253173828128 672.2115966796875 288.5856201171878 647.0392822265626 288.6590087890627 630.8570800781249 288.69570312500036 617.2801757812499 292.36513671875036 603.7399658203126 296.03457031250036 593.7591064453127 303.0798828125003 583.3012207031252 286.3472656250001 566.4952148437501 271.1558105468753 550.2396240234375 256.4780761718753 530.2412109375 245.2496093750001 510.2427978515625 233.98444824218768 489.4738037109378 227.85649414062527 467.9342285156249 221.50837402343768 448.5596191406253 221.54506835937536 426.1760742187503 221.61845703125027 410.8745361328124 230.16823730468786 393.8483642578126 210.096435546875 370.8777099609374 192.74001464843786 348.5308593750001 175.7872314453125 322.9549072265627 163.2377685546876 297.3422607421876 150.651611328125 271.546142578125 143.93654785156286 245.0161376953124 137.03801269531277 221.23820800781277 137.11140136718768 192.9101806640624 137.1847900390626 172.50812988281268 146.7987060546875 152.8399658203125 156.11906738281277 143.2260498046876 172.9617675781251 133.61213378906268 189.8411621093751 135.55693359375027 211.63759765625036 137.61181640625 234.20461425781286 151.8492187500001 258.8632080078128 155.958984375 265.94521484375036 160.729248046875 272.6969726562502 147.0789550781251 267.9267089843752 133.79560546875018 265.4681884765628 120.47556152343759 263.00966796875036 108.29304199218768 263.0463623046876 87.23049316406241 263.1197509765625 72.07573242187527 270.275146484375 57.4346923828125 277.1736816406251 50.31599121093768 289.72314453125 43.16059570312518 302.27260742187536 44.62836914062518 318.4548095703126 46.16953125000009 335.2608154296877 56.73750000000018 353.5712890625 64.33322753906259 366.7445556640628 76.1488037109375 379.5508789062501 57.4346923828125 383.1102294921875 44.84853515624991 392.5773681640626 32.59262695312509 401.7876464843753 27.492114257812773 415.6214111328127 22.428295898437682 429.41848144531286 25.07028808593759 446.1877929687503 27.82236328125009 463.4341308593753 38.50041503906277 481.9280761718751 49.25185546874991 500.5687988281252 66.86513671874991 517.9986083984377 83.92800292968741 534.9513916015626 105.46757812500027 548.8218505859377 126.970458984375 562.6923095703128 150.1612792968749 571.7558105468752 174.0492919921876 581.076171875 196.83647460937527 584.1584960937503 194.85498046875 594.6897705078127 197.6070556640625 606.6888183593751 200.32243652343777 618.6878662109375 207.6246093750001 631.3107177734378 225.0544189453126 661.5101562500004 260.5011474609378 684.9578369140627 295.9111816406253 708.3688232421878 333.3760986328125 714.5334716796879 337.3390869140626 725.5784667968751 343.9440673828126 737.027099609375 358.1814697265627 761.6856933593754 382.1795654296875 784.1793212890625 405.3336914062502 805.9023681640629 434.3589111328124 822.6716796875003 463.3474365234374 839.404296875 493.6936523437503 848.577880859375 525.10400390625 858.0450195312501 553.4320312499999 857.9716308593752 594.6030761718753 857.8615478515626 617.8672851562501 838.4869384765625 641.0947998046877 819.1490234375001 639.370166015625 786.6011474609377 670.5236572265626 812.8375976562502 709.089404296875 828.2859130859379 747.7652343750001 843.7709228515628 781.96435546875 843.6608398437502 805.4854248046877 843.6241455078125 822.9519287109376 836.0284179687501 839.8680175781251 828.6895507812501 849.0049072265626 815.2594238281254 858.1417968750002 801.8659912109379 858.2518798828125 784.2160156250002 858.3619628906251 766.0523193359377 848.8214355468751 745.7603515625001 878.5805419921876 756.7686523437501 904.7802978515626 756.6585693359375 925.8428466796877 756.6218750000003 940.997607421875 749.4664794921878 955.6386474609376 742.5679443359377 962.7573486328126 730.0184814453128 969.9127441406251 717.5057128906251 968.4449707031251 701.2868164062502 966.90380859375 684.5175048828128 956.3358398437501 666.1703369140628 946.9053955078125 649.8046630859376 931.67724609375 634.6865966796877 916.4490966796875 619.5685302734378 897.1111816406251 607.3126220703125 906.4315429687501 608.7437011718753 915.4583496093751 608.7437011718753 935.3833740234377 608.7070068359376 949.6941650390627 601.9185546875001 963.5646240234375 595.386962890625 970.3163818359376 583.5346923828129 977.0681396484376 571.6457275390626 975.6737548828125 556.3074951171875 974.24267578125 540.4555419921876 964.2251220703126 523.09912109375 948.0429199218752 495.0646484375002 915.6418212890626 472.4242431640628 883.2774169921877 449.8572265625003 847.7572998046876 441.7477783203126 846.913330078125 420.06142578125036 833.0795654296876 396.0633300781251 820.4567138671875 374.19350585937536 799.1373046875001 354.19509277343786 Z"/>

<path id="Layer1_0_MEMBER_0_MEMBER_0_MEMBER_1_1_STROKES" stroke="#215BDF" stroke-width="3" stroke-linejoin="miter" stroke-linecap="butt" stroke-miterlimit="10" fill="none" d="
M 681.56865234375 404.576416015625
Q 677.9359130859375 391.2930664062501 670.046630859375 377.6060791015625"/>

<path id="Layer1_0_MEMBER_0_MEMBER_0_MEMBER_2_1_STROKES" stroke="#215BDF" stroke-width="3" stroke-linejoin="miter" stroke-linecap="butt" stroke-miterlimit="10" fill="none" d="
M 426.9833496093752 300.8415283203126
Q 434.8359375 289.6864501953128 448.2660644531252 283.0447753906251 461.7695800781253 276.3297119140625 479.6764160156249 274.8252441406253 481.437744140625 274.678466796875 485.1805664062499 274.5316894531252 489.4371093750001 274.3115234375 491.1250488281253 274.3115234375 514.3525634765624 274.2381347656251 540.1119873046878 281.72377929687536 564.9540527343752 288.9525634765628 589.0255371093749 302.3093017578126 592.6949707031249 304.3274902343751 596.8781250000002 306.8227050781252 620.3991943359374 321.0234130859376 639.0766113281252 338.8935546875 658.451220703125 357.4608886718752 670.046630859375 377.6060791015625"/>

<path id="Layer1_0_MEMBER_0_MEMBER_0_MEMBER_3_1_STROKES" stroke="#215BDF" stroke-width="3" stroke-linejoin="miter" stroke-linecap="butt" stroke-miterlimit="10" fill="none" d="
M 555.4502197265624 744.0357177734377
Q 571.9626708984374 759.8509765625004 593.4655517578126 770.1987792968753 614.3079345703127 780.2530273437501 634.4898193359377 782.6748535156253 636.9483398437501 782.9684082031254 640.0673583984376 783.1518798828129 657.350390625 784.2527099609379 669.9365478515626 778.6751708984375 680.9081542968752 773.7948242187504 686.0453613281252 764.8047119140629 691.1825683593752 755.8145996093754 689.861572265625 743.8522460937502"/>

<path id="Layer1_0_MEMBER_0_MEMBER_0_MEMBER_4_1_STROKES" stroke="#215BDF" stroke-width="3" stroke-linejoin="miter" stroke-linecap="butt" stroke-miterlimit="10" fill="none" d="
M 253.198974609375 598.7261474609377
Q 253.0888916015624 608.4501464843752 255.8776611328126 618.9447265625004 257.602294921875 623.7149902343754 259.9140380859376 629.4760009765628 264.5375244140628 640.9980224609376 267.3629882812502 645.9150634765629 277.4906249999999 663.4916503906252 293.7095214843753 680.0774902343751 310.1485839843749 696.9201904296879 330.8074951171875 710.6805664062504 334.0732910156253 712.8822265625004 337.9261962890628 715.2673583984379 352.9708740234378 724.6244140625004 369.4833251953128 731.8165039062501 394.0318359375001 742.53125 417.6629882812499 746.7877929687502 441.2574462890625 751.0076416015627 461.5494140625001 748.40234375 465.5490966796874 747.9253173828129 469.5487792968752 747.0813476562503"/>

<path id="Layer1_0_MEMBER_0_MEMBER_0_MEMBER_5_1_STROKES" stroke="#215BDF" stroke-width="3" stroke-linejoin="miter" stroke-linecap="butt" stroke-miterlimit="10" fill="none" d="
M 481.2175781250003 273.944580078125
Q 476.5573974609374 268.88076171875036 471.3468017578125 264.3306640625001 458.7973388671876 253.2122802734375 444.1929931640625 245.35969238281268 429.6253417968751 237.50710449218786 414.7274414062499 233.83767089843786
L 409.6636230468753 232.70014648437518
Q 395.3161376953126 229.87468261718777 383.3170898437502 231.63601074218786 371.3180419921878 233.3973388671875 363.0251220703126 239.5619873046876 354.9156738281249 245.6165527343751 351.6865722656253 254.90021972656268 348.4941650390624 264.1471923828126 350.4756591796877 275.7059082031251"/>

<path id="Layer1_0_MEMBER_0_MEMBER_0_MEMBER_6_1_STROKES" stroke="#215BDF" stroke-width="3" stroke-linejoin="miter" stroke-linecap="butt" stroke-miterlimit="10" fill="none" d="
M 769.0112548828126 742.7514160156252
Q 781.7074951171876 748.6225097656252 794.4404296875 751.6681396484378 807.2100585937501 754.7137695312504 818.9155517578126 754.6770751953127 833.850146484375 754.640380859375 844.6015869140626 749.5765625000004 854.986083984375 744.6595214843751 860.0499023437501 735.7794921875002 865.1137207031252 726.8994628906253 864.0862792968751 715.4141357421877 862.9854492187501 703.5251708984379 855.4998046875 690.5353759765626 847.9774658203125 677.4721923828129 834.9509765625 665.3630615234379 822.0712646484376 653.364013671875 805.9991455078125 644.3372070312503"/>

<path id="Layer1_0_MEMBER_0_MEMBER_0_MEMBER_7_1_STROKES" stroke="#215BDF" stroke-width="3" stroke-linejoin="miter" stroke-linecap="butt" stroke-miterlimit="10" fill="none" d="
M 169.20563964843768 489.5238037109375
Q 166.8572021484374 493.63356933593786 165.46281738281277 498.4405273437501 161.9401611328126 510.4395751953125 164.5821533203125 524.4935058593751 167.2241455078124 538.5107421875 175.77392578125 553.3352539062503 179.443359375 559.5732910156253 183.9567626953126 565.8113281250003 190.30488281250018 574.3611083984379 197.6070556640625 581.9935302734375 198.85466308593777 583.3145263671877 201.42326660156277 585.8831298828127 213.05537109375018 597.3684570312503 227.10930175781277 607.2025390625004 241.23662109375027 617.1100097656254 256.9417968749999 624.7791259765627"/>

<path id="Layer1_0_MEMBER_0_MEMBER_0_MEMBER_8_1_STROKES" stroke="#215BDF" stroke-width="3" stroke-linejoin="miter" stroke-linecap="butt" stroke-miterlimit="10" fill="none" d="
M 234.1913085937499 524.0164794921875
Q 233.23725585937518 528.8601318359379 233.23725585937518 533.8505615234376 233.23725585937518 552.6747558593752 245.27299804687527 573.4804443359376 248.94243164062527 579.9019531250001 253.4558349609374 585.8831298828127 255.767578125 589.0021484375002 257.7123779296876 591.3872802734377 261.8588378906252 596.4144042968751 266.5557128906253 601.3314453125004 282.0407226562502 617.4769531250004 301.8923583984374 630.3199707031254 321.6706054687502 643.1262939453127 343.5404296874999 651.162353515625"/>

<path id="Layer1_0_MEMBER_0_MEMBER_0_MEMBER_9_1_STROKES" stroke="#215BDF" stroke-width="3" stroke-linejoin="miter" stroke-linecap="butt" stroke-miterlimit="10" fill="none" d="
M 265.7484374999999 271.1191162109376
Q 255.80427246093768 267.70654296875 246.1169677734374 265.3581054687502 221.49506835937518 259.4870117187502 200.5426025390625 261.1382568359377 179.5534423828126 262.7528076171875 164.8390136718749 271.6695312500001 150.1612792968749 280.5862548828127 144.36357421875027 295.1906005859378 138.56586914062518 309.8316406250001 142.41877441406268 328.2888916015627"/>
</defs>

<g transform="matrix( 0.73388671875, 0, 0, 0.73388671875, 2142.15,2442.8) ">
<use xlink:href="#Layer1_0_MEMBER_0_MEMBER_0_MEMBER_0_MEMBER_0_FILL"/>
</g>

<g transform="matrix( 0.73388671875, 0, 0, 0.73388671875, 2142.15,2442.8) ">
<use xlink:href="#Layer1_0_MEMBER_0_MEMBER_0_MEMBER_0_MEMBER_1_1_STROKES" transform="matrix( 1.3625946044921875, 0, 0, 1.3625946044921875, -2918.9,-3328.55) "/>
</g>

<g transform="matrix( 0.73388671875, 0, 0, 0.73388671875, 2142.15,2442.8) ">
<use xlink:href="#Layer1_0_MEMBER_0_MEMBER_0_MEMBER_1_1_STROKES" transform="matrix( 1.3625946044921875, 0, 0, 1.3625946044921875, -2918.9,-3328.55) "/>
</g>

<g transform="matrix( 0.73388671875, 0, 0, 0.73388671875, 2142.15,2442.8) ">
<use xlink:href="#Layer1_0_MEMBER_0_MEMBER_0_MEMBER_2_1_STROKES" transform="matrix( 1.3625946044921875, 0, 0, 1.3625946044921875, -2918.9,-3328.55) "/>
</g>

<g transform="matrix( 0.73388671875, 0, 0, 0.73388671875, 2142.15,2442.8) ">
<use xlink:href="#Layer1_0_MEMBER_0_MEMBER_0_MEMBER_3_1_STROKES" transform="matrix( 1.3625946044921875, 0, 0, 1.3625946044921875, -2918.9,-3328.55) "/>
</g>

<g transform="matrix( 0.73388671875, 0, 0, 0.73388671875, 2142.15,2442.8) ">
<use xlink:href="#Layer1_0_MEMBER_0_MEMBER_0_MEMBER_4_1_STROKES" transform="matrix( 1.3625946044921875, 0, 0, 1.3625946044921875, -2918.9,-3328.55) "/>
</g>

<g transform="matrix( 0.73388671875, 0, 0, 0.73388671875, 2142.15,2442.8) ">
<use xlink:href="#Layer1_0_MEMBER_0_MEMBER_0_MEMBER_5_1_STROKES" transform="matrix( 1.3625946044921875, 0, 0, 1.3625946044921875, -2918.9,-3328.55) "/>
</g>

<g transform="matrix( 0.73388671875, 0, 0, 0.73388671875, 2142.15,2442.8) ">
<use xlink:href="#Layer1_0_MEMBER_0_MEMBER_0_MEMBER_6_1_STROKES" transform="matrix( 1.3625946044921875, 0, 0, 1.3625946044921875, -2918.9,-3328.55) "/>
</g>

<g transform="matrix( 0.73388671875, 0, 0, 0.73388671875, 2142.15,2442.8) ">
<use xlink:href="#Layer1_0_MEMBER_0_MEMBER_0_MEMBER_7_1_STROKES" transform="matrix( 1.3625946044921875, 0, 0, 1.3625946044921875, -2918.9,-3328.55) "/>
</g>

<g transform="matrix( 0.73388671875, 0, 0, 0.73388671875, 2142.15,2442.8) ">
<use xlink:href="#Layer1_0_MEMBER_0_MEMBER_0_MEMBER_8_1_STROKES" transform="matrix( 1.3625946044921875, 0, 0, 1.3625946044921875, -2918.9,-3328.55) "/>
</g>

<g transform="matrix( 0.73388671875, 0, 0, 0.73388671875, 2142.15,2442.8) ">
<use xlink:href="#Layer1_0_MEMBER_0_MEMBER_0_MEMBER_9_1_STROKES" transform="matrix( 1.3625946044921875, 0, 0, 1.3625946044921875, -2918.9,-3328.55) "/>
</g>

<g transform="matrix( 0.73388671875, 0, 0, 0.73388671875, 2142.15,2442.8) ">
<use xlink:href="#Layer1_0_MEMBER_1_MEMBER_0_MEMBER_0_FILL"/>
</g>

<g transform="matrix( 0.73388671875, 0, 0, 0.73388671875, 2142.15,2442.8) ">
<use xlink:href="#Layer1_0_MEMBER_1_MEMBER_0_MEMBER_1_FILL"/>
</g>

<g transform="matrix( 0.73388671875, 0, 0, 0.73388671875, 2142.15,2442.8) ">
<use xlink:href="#Layer1_0_MEMBER_1_MEMBER_0_MEMBER_2_FILL"/>
</g>

<g transform="matrix( 0.73388671875, 0, 0, 0.73388671875, 2142.15,2442.8) ">
<use xlink:href="#Layer1_0_MEMBER_1_MEMBER_0_MEMBER_3_FILL"/>
</g>

<g transform="matrix( 0.73388671875, 0, 0, 0.73388671875, 2142.15,2442.8) ">
<use xlink:href="#Layer1_0_MEMBER_1_MEMBER_0_MEMBER_4_FILL"/>
</g>

<g transform="matrix( 0.73388671875, 0, 0, 0.73388671875, 2142.15,2442.8) ">
<use xlink:href="#Layer1_0_MEMBER_1_MEMBER_0_MEMBER_5_FILL"/>
</g>

<g transform="matrix( 0.73388671875, 0, 0, 0.73388671875, 2142.15,2442.8) ">
<use xlink:href="#Layer1_0_MEMBER_1_MEMBER_0_MEMBER_6_FILL"/>
</g>

<g transform="matrix( 0.73388671875, 0, 0, 0.73388671875, 2142.15,2442.8) ">
<use xlink:href="#Layer1_0_MEMBER_1_MEMBER_0_MEMBER_7_FILL"/>
</g>

<g transform="matrix( 0.73388671875, 0, 0, 0.73388671875, 2142.15,2442.8) ">
<use xlink:href="#Layer1_0_MEMBER_1_MEMBER_0_MEMBER_8_FILL"/>
</g>
</svg>
